<?xml version="1.0" encoding="utf-8"?>
<COLLADA xmlns="http://www.collada.org/2005/11/COLLADASchema" version="1.4.1" xmlns:xsi="http://www.w3.org/2001/XMLSchema-instance">
  <asset>
    <contributor>
      <author>Blender User</author>
      <authoring_tool>Blender 4.3.1 commit date:2024-12-10, commit time:07:46, hash:33d812126174</authoring_tool>
    </contributor>
    <created>2026-08-16T16:31:13</created>
    <modified>2026-08-16T16:31:13</modified>
    <unit name="meter" meter="1"/>
    <up_axis>Z_UP</up_axis>
  </asset>
  <library_effects>
    <effect id="Material_001-effect">
      <profile_COMMON>
        <newparam sid="mars_generic_png-surface">
          <surface type="2D">
            <init_from>mars_generic_png</init_from>
          </surface>
        </newparam>
        <newparam sid="mars_generic_png-sampler">
          <sampler2D>
            <source>mars_generic_png-surface</source>
          </sampler2D>
        </newparam>
        <technique sid="common">
          <lambert>
            <emission>
              <color sid="emission">0 0 0 1</color>
            </emission>
            <diffuse>
              <texture texture="mars_generic_png-sampler" texcoord="UVMap"/>
            </diffuse>
            <index_of_refraction>
              <float sid="ior">1.5</float>
            </index_of_refraction>
          </lambert>
        </technique>
      </profile_COMMON>
    </effect>
  </library_effects>
  <library_images>
    <image id="mars_generic_png" name="mars_generic_png">
      <init_from>/home/welton/Downloads/mars_generic.png</init_from>
    </image>
  </library_images>
  <library_materials>
    <material id="Material_001-material" name="Material.001">
      <instance_effect url="#Material_001-effect"/>
    </material>
  </library_materials>
  <library_geometries>
    <geometry id="Cylinder_002-mesh" name="Cylinder.002">
      <mesh>
        <source id="Cylinder_002-mesh-positions">
          <float_array id="Cylinder_002-mesh-positions-array" count="24">0 1.129806 -5.322242 0.7988935 0.7988935 -5.322242 1.129806 0 -5.322242 0.7988935 -0.7988935 -5.322242 0 -1.129806 -5.322242 -0.7988935 -0.7988935 -5.322242 -1.129806 0 -5.322242 -0.7988935 0.7988935 -5.322242</float_array>
          <technique_common>
            <accessor source="#Cylinder_002-mesh-positions-array" count="8" stride="3">
              <param name="X" type="float"/>
              <param name="Y" type="float"/>
              <param name="Z" type="float"/>
            </accessor>
          </technique_common>
        </source>
        <source id="Cylinder_002-mesh-normals">
          <float_array id="Cylinder_002-mesh-normals-array" count="24">7.7291e-7 0 -1 9.01858e-7 0 -1 -2.7483e-7 0 -1 -1.80372e-6 0 -1 -1.54582e-6 0 -1 -4.98101e-7 0 -1 0 0 -1 2.4905e-7 0 -1</float_array>
          <technique_common>
            <accessor source="#Cylinder_002-mesh-normals-array" count="8" stride="3">
              <param name="X" type="float"/>
              <param name="Y" type="float"/>
              <param name="Z" type="float"/>
            </accessor>
          </technique_common>
        </source>
        <source id="Cylinder_002-mesh-map-0">
          <float_array id="Cylinder_002-mesh-map-0-array" count="36">0.1258912 0.1587101 0.1541515 0.1352986 0.1658573 0.07877796 0.1658573 0.07877796 0.1541515 0.02225732 0.1258912 -0.001154184 0.1258912 -0.001154184 0.09763091 0.02225732 0.1658573 0.07877796 0.09763091 0.02225732 0.0859251 0.07877796 0.1658573 0.07877796 0.0859251 0.07877796 0.09763091 0.1352986 0.1658573 0.07877796 0.09763091 0.1352986 0.1258912 0.1587101 0.1658573 0.07877796</float_array>
          <technique_common>
            <accessor source="#Cylinder_002-mesh-map-0-array" count="18" stride="2">
              <param name="S" type="float"/>
              <param name="T" type="float"/>
            </accessor>
          </technique_common>
        </source>
        <source id="Cylinder_002-mesh-map-1">
          <float_array id="Cylinder_002-mesh-map-1-array" count="36">0.1258912 0.1587101 0.1541515 0.1352986 0.1658573 0.07877796 0.1658573 0.07877796 0.1541515 0.02225732 0.1258912 -0.001154184 0.1258912 -0.001154184 0.09763091 0.02225732 0.1658573 0.07877796 0.09763091 0.02225732 0.0859251 0.07877796 0.1658573 0.07877796 0.0859251 0.07877796 0.09763091 0.1352986 0.1658573 0.07877796 0.09763091 0.1352986 0.1258912 0.1587101 0.1658573 0.07877796</float_array>
          <technique_common>
            <accessor source="#Cylinder_002-mesh-map-1-array" count="18" stride="2">
              <param name="S" type="float"/>
              <param name="T" type="float"/>
            </accessor>
          </technique_common>
        </source>
        <vertices id="Cylinder_002-mesh-vertices">
          <input semantic="POSITION" source="#Cylinder_002-mesh-positions"/>
        </vertices>
        <triangles material="Material_001-material" count="6">
          <input semantic="VERTEX" source="#Cylinder_002-mesh-vertices" offset="0"/>
          <input semantic="NORMAL" source="#Cylinder_002-mesh-normals" offset="1"/>
          <input semantic="TEXCOORD" source="#Cylinder_002-mesh-map-0" offset="2" set="0"/>
          <input semantic="TEXCOORD" source="#Cylinder_002-mesh-map-1" offset="2" set="1"/>
          <p>6 0 0 7 1 1 0 2 2 0 2 3 1 3 4 2 4 5 2 4 6 3 5 7 0 2 8 3 5 9 4 6 10 0 2 11 4 6 12 5 7 13 0 2 14 5 7 15 6 0 16 0 2 17</p>
        </triangles>
      </mesh>
    </geometry>
  </library_geometries>
  <library_visual_scenes>
    <visual_scene id="Scene" name="Scene">
      <node id="solar_park_02" name="solar_park_02" type="NODE">
        <matrix sid="transform">1 0 0 0 0 1 0 0 0 0 1 0 0 0 0 1</matrix>
        <instance_geometry url="#Cylinder_002-mesh" name="solar_park_02">
          <bind_material>
            <technique_common>
              <instance_material symbol="Material_001-material" target="#Material_001-material">
                <bind_vertex_input semantic="UVMap" input_semantic="TEXCOORD" input_set="0"/>
                <bind_vertex_input semantic="UVMap.001" input_semantic="TEXCOORD" input_set="1"/>
              </instance_material>
            </technique_common>
          </bind_material>
        </instance_geometry>
        <node id="prop_001" name="prop_001" type="NODE">
          <matrix sid="transform">1 0 0 -10 0 1 0 10 0 0 1 0 0 0 0 1</matrix>
        </node>
        <node id="prop_002" name="prop_002" type="NODE">
          <matrix sid="transform">1 0 0 10 0 1 0 10 0 0 1 0 0 0 0 1</matrix>
        </node>
        <node id="prop_004" name="prop_004" type="NODE">
          <matrix sid="transform">1 0 0 10 0 1 0 -10 0 0 1 0 0 0 0 1</matrix>
        </node>
        <node id="prop_003" name="prop_003" type="NODE">
          <matrix sid="transform">1 0 0 -10 0 1 0 -10 0 0 1 0 0 0 0 1</matrix>
        </node>
      </node>
    </visual_scene>
  </library_visual_scenes>
  <scene>
    <instance_visual_scene url="#Scene"/>
  </scene>
</COLLADA>