<?xml version="1.0" encoding="utf-8"?>
<COLLADA xmlns="http://www.collada.org/2005/11/COLLADASchema" version="1.4.1" xmlns:xsi="http://www.w3.org/2001/XMLSchema-instance">
  <asset>
    <contributor>
      <author>Blender User</author>
      <authoring_tool>Blender 4.3.1 commit date:2024-12-10, commit time:07:46, hash:33d812126174</authoring_tool>
    </contributor>
    <created>2026-08-16T16:18:29</created>
    <modified>2026-08-16T16:18:29</modified>
    <unit name="meter" meter="1"/>
    <up_axis>Z_UP</up_axis>
  </asset>
  <library_effects>
    <effect id="Material_001-effect">
      <profile_COMMON>
        <newparam sid="mars_generic_png-surface">
          <surface type="2D">
            <init_from>mars_generic_png</init_from>
          </surface>
        </newparam>
        <newparam sid="mars_generic_png-sampler">
          <sampler2D>
            <source>mars_generic_png-surface</source>
          </sampler2D>
        </newparam>
        <technique sid="common">
          <lambert>
            <emission>
              <color sid="emission">0 0 0 1</color>
            </emission>
            <diffuse>
              <texture texture="mars_generic_png-sampler" texcoord="UVMap"/>
            </diffuse>
            <index_of_refraction>
              <float sid="ior">1.5</float>
            </index_of_refraction>
          </lambert>
        </technique>
      </profile_COMMON>
    </effect>
  </library_effects>
  <library_images>
    <image id="mars_generic_png" name="mars_generic_png">
      <init_from>/home/welton/Downloads/mars_generic.png</init_from>
    </image>
  </library_images>
  <library_materials>
    <material id="Material_001-material" name="Material.001">
      <instance_effect url="#Material_001-effect"/>
    </material>
  </library_materials>
  <library_geometries>
    <geometry id="Cylinder_001-mesh" name="Cylinder.001">
      <mesh>
        <source id="Cylinder_001-mesh-positions">
          <float_array id="Cylinder_001-mesh-positions-array" count="144">0 5.662303 10.51733 5.146003 3.974823 9.215064 7.277547 -0.09911274 6.071119 5.146003 -4.173049 2.927174 0 -5.860528 1.624909 -5.146003 -4.173049 2.927174 -7.277547 -0.09911274 6.071119 -5.146003 3.974823 9.215064 5.146003 4.173048 8.958205 7.277547 0.09911137 5.814259 5.146003 -3.974825 2.670314 0 -5.662305 1.36805 -5.146003 -3.974825 2.670314 -7.277547 0.09911137 5.814259 -5.146003 4.173048 8.958205 0 5.860527 10.26047 0 1.129806 -1.914142 0.7988935 0.7988935 -1.914142 1.129806 0 -1.914142 0.7988935 -0.7988935 -1.914142 0 -1.129806 -1.914142 -0.7988935 -0.7988935 -1.914142 -1.129806 0 -1.914142 -0.7988935 0.7988935 -1.914142 0.7988938 0.7988935 5.202025 2.46583e-7 1.129806 5.202025 1.129806 0 5.202025 0.7988938 -0.7988935 5.202025 2.46583e-7 -1.129806 5.202025 -0.7988933 -0.7988935 5.202025 -1.129806 0 5.202025 -0.7988933 0.7988935 5.202025 0.7988938 0.7988935 5.202025 2.46583e-7 1.129806 5.202025 1.129806 0 5.202025 0.7988938 -0.7988935 5.202025 2.46583e-7 -1.129806 5.202025 -0.7988933 -0.7988935 5.202025 -1.129806 0 5.202025 -0.7988933 0.7988935 5.202025 0.7988938 0.7988935 6.340719 2.46583e-7 1.129806 6.340719 1.129806 0 5.591107 0.7988938 -0.7988935 4.959323 2.46583e-7 -1.129806 4.959323 -0.7988933 -0.7988935 4.959323 -1.129806 0 5.591107 -0.7988933 0.7988935 6.340719</float_array>
          <technique_common>
            <accessor source="#Cylinder_001-mesh-positions-array" count="48" stride="3">
              <param name="X" type="float"/>
              <param name="Y" type="float"/>
              <param name="Z" type="float"/>
            </accessor>
          </technique_common>
        </source>
        <source id="Cylinder_001-mesh-normals">
          <float_array id="Cylinder_001-mesh-normals-array" count="345">0 -0.610949 0.79167 0 -0.610949 0.7916701 0 -0.610949 0.79167 0 0.6109489 -0.79167 0 0.6109489 -0.79167 0 0.6109489 -0.7916701 -0.9238799 0.3029574 0.2338005 -0.9238799 0.3029588 0.2337991 -0.9238799 0.3029589 0.233799 -0.3826835 -0.7314079 -0.564443 -0.3826838 -0.7314086 -0.5644419 -0.3826838 -0.7314087 -0.5644418 0.9238802 -0.3029575 -0.2337996 0.9238794 -0.3029595 -0.2338004 0.9238802 -0.3029574 -0.2337996 0.3826825 0.7314102 0.5644407 0.3826835 0.7314051 0.5644466 0.3826825 0.7314105 0.5644404 -0.3826825 0.7314102 0.5644407 -0.3826835 0.7314051 0.5644466 -0.3826836 0.731405 0.5644468 -0.9238802 -0.3029575 -0.2337996 -0.9238794 -0.3029595 -0.2338004 -0.9238793 -0.3029595 -0.2338004 0.3826835 -0.7314088 -0.5644418 0.3826838 -0.7314077 -0.5644431 0.3826838 -0.7314077 -0.5644431 0.9238799 0.3029574 0.2338005 0.9238799 0.3029588 0.2337991 0.92388 0.3029573 0.2338006 0 0 -1 6.76393e-7 0 -1 0 0 -1 0.9238795 -0.3826835 0 0.9238795 -0.3826837 0 0.9238795 -0.3826835 0 0.3826837 0.9238795 0 0.3826836 0.9238795 0 0.3826837 0.9238795 0 -0.3826836 0.9238795 0 -0.3826836 0.9238795 0 -0.3826837 0.9238795 0 -0.9238795 -0.3826835 0 -0.9238795 -0.3826835 0 -0.9238795 -0.3826835 0 0.3826836 -0.9238795 0 0.3826836 -0.9238795 0 0.3826837 -0.9238795 0 0.9238795 0.3826837 0 0.9238796 0.3826836 0 0.9238795 0.3826837 0 -0.9238796 0.3826836 0 -0.9238796 0.3826836 0 -0.9238795 0.3826836 0 -0.3826836 -0.9238795 0 -0.3826836 -0.9238795 0 -0.3826837 -0.9238795 0 -0.3826836 0.9238795 0 -0.3826836 0.9238795 0 0.9238794 0.382684 0 -0.9238793 -0.3826841 0 0.9238793 0.382684 0 -0.3826836 0.9238796 0 -0.3826842 0.9238792 0 -0.3826834 0.9238796 0 0.9238793 0.3826839 0 0.9238794 0.382684 0 0.9238793 0.3826839 0 -0.9238794 0.3826839 0 -0.9238794 0.3826838 0 -0.9238793 0.3826839 0 0.3826836 0.9238796 0 0.3826843 0.9238792 0 0.3826834 0.9238796 0 0.9238795 -0.3826836 0 -0.9238793 0.3826842 0 -0.9238793 0.382684 0 0.3826836 0.9238795 0 0.3826836 0.9238795 0 0 -0.6109489 0.7916701 0 -0.6109489 0.7916702 0 -0.6109489 0.7916701 2.39094e-7 -0.610949 0.79167 -1.73886e-7 -0.610949 0.79167 -1.73886e-7 0.6109492 -0.7916699 0 0.6109489 -0.79167 0 0.6109489 -0.79167 1.73886e-7 0.610949 -0.79167 0 0.6109489 -0.7916702 -0.92388 0.3029573 0.2338006 -0.3826835 -0.7314079 -0.5644431 0.9238793 -0.3029595 -0.2338004 0.3826836 0.731405 0.5644468 -0.3826825 0.7314105 0.5644404 -0.9238802 -0.3029574 -0.2337996 0.3826835 -0.7314088 -0.5644418 0.9238799 0.3029589 0.233799 -9.01858e-7 0 -1 -1.50297e-7 0 -1 0 0 -1 0.9238795 -0.3826838 0 0.3826837 0.9238795 0 -0.3826837 0.9238795 0 -0.9238795 -0.3826836 0 0.3826836 -0.9238795 0 0.9238795 0.3826836 0 -0.9238795 0.3826836 0 -0.3826836 -0.9238795 0 -0.3826836 0.9238795 0 -0.3826844 0.9238792 0 0.9238794 0.3826839 0 -0.9238794 0.3826838 0 0.3826844 0.9238792 0 0.9238795 -0.3826836 0 0.3826836 0.9238795 0</float_array>
          <technique_common>
            <accessor source="#Cylinder_001-mesh-normals-array" count="115" stride="3">
              <param name="X" type="float"/>
              <param name="Y" type="float"/>
              <param name="Z" type="float"/>
            </accessor>
          </technique_common>
        </source>
        <source id="Cylinder_001-mesh-map-0">
          <float_array id="Cylinder_001-mesh-map-0-array" count="396">0.005946636 0.5261681 0.0484848 0.3688716 0.1557419 0.4336006 0.04765611 0.5851252 0.1132038 0.5884362 0.0484848 0.3664109 0.5383883 0.0370568 0.4462891 0.02544313 0.4462891 0.0370568 0.3541899 0.0370568 0.4462891 0.02544313 0.4462891 0.0370568 0.4462891 0.0370568 0.3541899 0.02544313 0.4462891 0.02544313 0.4462891 0.0370568 0.5383883 0.02544313 0.4462891 0.02544313 0.4462891 0.0370568 0.3541899 0.02544313 0.3541899 0.0370568 0.4462891 0.0370568 0.3541899 0.02544313 0.3541899 0.0370568 0.4462891 0.0370568 0.5383883 0.02544313 0.5383883 0.0370568 0.5383883 0.0370568 0.4462891 0.02544313 0.5383883 0.02544313 0.1258912 0.1587101 0.1541515 0.1352986 0.1658573 0.07877796 0.0140115 0.07877796 0.2657409 0.1352986 0.0140115 0.1352986 0.0140115 0.07877796 0.2657409 0.02225726 0.0140115 0.02225732 0.0140115 0.1352986 0.2657409 0.07877796 0.0140115 0.07877796 0.0140115 0.1352986 0.2657409 0.07877796 0.0140115 0.07877796 0.0140115 0.02225732 0.2657409 0.07877796 0.0140115 0.07877796 0.0140115 0.02225732 0.2657409 0.07877796 0.0140115 0.07877796 0.0140115 0.07877796 0.2657409 0.02225726 0.0140115 0.02225732 0.0140115 0.07877796 0.2657409 0.1352986 0.0140115 0.1352986 0 0 0 0 0 0 0 0 0 0 0 0 0 0 0 0 0 0 0 0 0 0 0 0 0 0 0 0 0 0 0 0 0 0 0 0 0 0 0 0 0 0 0 0 0 0 0 0 0.1557419 0.4336006 0.1554235 0.527585 0.1132038 0.590897 0.1132038 0.590897 0.04765611 0.5875859 0.005946636 0.5261681 0.005946636 0.5261681 0.006264984 0.4321836 0.0484848 0.3688716 0.0484848 0.3688716 0.1140325 0.3721827 0.1557419 0.4336006 0.1557419 0.4336006 0.1132038 0.590897 0.005946636 0.5261681 0.1132038 0.5884362 0.1554235 0.5251242 0.1557419 0.4311398 0.1557419 0.4311398 0.1140325 0.369722 0.1132038 0.5884362 0.1140325 0.369722 0.0484848 0.3664109 0.1132038 0.5884362 0.0484848 0.3664109 0.006264984 0.4297228 0.005946636 0.5237073 0.005946636 0.5237073 0.04765611 0.5851252 0.0484848 0.3664109 0.5383883 0.0370568 0.5383883 0.02544313 0.4462891 0.02544313 0.3541899 0.0370568 0.3541899 0.02544313 0.4462891 0.02544313 0.4462891 0.0370568 0.3541899 0.0370568 0.3541899 0.02544313 0.4462891 0.0370568 0.5383883 0.0370568 0.5383883 0.02544313 0.4462891 0.0370568 0.4462891 0.02544313 0.3541899 0.02544313 0.4462891 0.0370568 0.4462891 0.02544313 0.3541899 0.02544313 0.4462891 0.0370568 0.4462891 0.02544313 0.5383883 0.02544313 0.5383883 0.0370568 0.4462891 0.0370568 0.4462891 0.02544313 0.1658573 0.07877796 0.1541515 0.02225732 0.1258912 -0.001154184 0.1258912 -0.001154184 0.09763091 0.02225732 0.1658573 0.07877796 0.09763091 0.02225732 0.0859251 0.07877796 0.1658573 0.07877796 0.0859251 0.07877796 0.09763091 0.1352986 0.1658573 0.07877796 0.09763091 0.1352986 0.1258912 0.1587101 0.1658573 0.07877796 0.0140115 0.07877796 0.2657409 0.07877796 0.2657409 0.1352986 0.0140115 0.07877796 0.2657409 0.07877796 0.2657409 0.02225726 0.0140115 0.1352986 0.2657409 0.1352986 0.2657409 0.07877796 0.0140115 0.1352986 0.2657409 0.1352986 0.2657409 0.07877796 0.0140115 0.02225732 0.2657409 0.02225726 0.2657409 0.07877796 0.0140115 0.02225732 0.2657409 0.02225726 0.2657409 0.07877796 0.0140115 0.07877796 0.2657409 0.07877796 0.2657409 0.02225726 0.0140115 0.07877796 0.2657409 0.07877796 0.2657409 0.1352986 0 0 0 0 0 0 0 0 0 0 0 0 0 0 0 0 0 0 0 0 0 0 0 0 0 0 0 0 0 0 0 0 0 0 0 0 0 0 0 0 0 0 0 0 0 0 0 0</float_array>
          <technique_common>
            <accessor source="#Cylinder_001-mesh-map-0-array" count="198" stride="2">
              <param name="S" type="float"/>
              <param name="T" type="float"/>
            </accessor>
          </technique_common>
        </source>
        <source id="Cylinder_001-mesh-map-1">
          <float_array id="Cylinder_001-mesh-map-1-array" count="396">0.005946636 0.5261681 0.0484848 0.3688716 0.1557419 0.4336006 0.04765611 0.5851252 0.1132038 0.5884362 0.0484848 0.3664109 0.5383883 0.0370568 0.4462891 0.02544313 0.4462891 0.0370568 0.3541899 0.0370568 0.4462891 0.02544313 0.4462891 0.0370568 0.4462891 0.0370568 0.3541899 0.02544313 0.4462891 0.02544313 0.4462891 0.0370568 0.5383883 0.02544313 0.4462891 0.02544313 0.4462891 0.0370568 0.3541899 0.02544313 0.3541899 0.0370568 0.4462891 0.0370568 0.3541899 0.02544313 0.3541899 0.0370568 0.4462891 0.0370568 0.5383883 0.02544313 0.5383883 0.0370568 0.5383883 0.0370568 0.4462891 0.02544313 0.5383883 0.02544313 0.1258912 0.1587101 0.1541515 0.1352986 0.1658573 0.07877796 0.0140115 0.07877796 0.2657409 0.1352986 0.0140115 0.1352986 0.0140115 0.07877796 0.2657409 0.02225726 0.0140115 0.02225732 0.0140115 0.1352986 0.2657409 0.07877796 0.0140115 0.07877796 0.0140115 0.1352986 0.2657409 0.07877796 0.0140115 0.07877796 0.0140115 0.02225732 0.2657409 0.07877796 0.0140115 0.07877796 0.0140115 0.02225732 0.2657409 0.07877796 0.0140115 0.07877796 0.0140115 0.07877796 0.2657409 0.02225726 0.0140115 0.02225732 0.0140115 0.07877796 0.2657409 0.1352986 0.0140115 0.1352986 0 0 0 0 0 0 0 0 0 0 0 0 0 0 0 0 0 0 0 0 0 0 0 0 0 0 0 0 0 0 0 0 0 0 0 0 0 0 0 0 0 0 0 0 0 0 0 0 0.1557419 0.4336006 0.1554235 0.527585 0.1132038 0.590897 0.1132038 0.590897 0.04765611 0.5875859 0.005946636 0.5261681 0.005946636 0.5261681 0.006264984 0.4321836 0.0484848 0.3688716 0.0484848 0.3688716 0.1140325 0.3721827 0.1557419 0.4336006 0.1557419 0.4336006 0.1132038 0.590897 0.005946636 0.5261681 0.1132038 0.5884362 0.1554235 0.5251242 0.1557419 0.4311398 0.1557419 0.4311398 0.1140325 0.369722 0.1132038 0.5884362 0.1140325 0.369722 0.0484848 0.3664109 0.1132038 0.5884362 0.0484848 0.3664109 0.006264984 0.4297228 0.005946636 0.5237073 0.005946636 0.5237073 0.04765611 0.5851252 0.0484848 0.3664109 0.5383883 0.0370568 0.5383883 0.02544313 0.4462891 0.02544313 0.3541899 0.0370568 0.3541899 0.02544313 0.4462891 0.02544313 0.4462891 0.0370568 0.3541899 0.0370568 0.3541899 0.02544313 0.4462891 0.0370568 0.5383883 0.0370568 0.5383883 0.02544313 0.4462891 0.0370568 0.4462891 0.02544313 0.3541899 0.02544313 0.4462891 0.0370568 0.4462891 0.02544313 0.3541899 0.02544313 0.4462891 0.0370568 0.4462891 0.02544313 0.5383883 0.02544313 0.5383883 0.0370568 0.4462891 0.0370568 0.4462891 0.02544313 0.1658573 0.07877796 0.1541515 0.02225732 0.1258912 -0.001154184 0.1258912 -0.001154184 0.09763091 0.02225732 0.1658573 0.07877796 0.09763091 0.02225732 0.0859251 0.07877796 0.1658573 0.07877796 0.0859251 0.07877796 0.09763091 0.1352986 0.1658573 0.07877796 0.09763091 0.1352986 0.1258912 0.1587101 0.1658573 0.07877796 0.0140115 0.07877796 0.2657409 0.07877796 0.2657409 0.1352986 0.0140115 0.07877796 0.2657409 0.07877796 0.2657409 0.02225726 0.0140115 0.1352986 0.2657409 0.1352986 0.2657409 0.07877796 0.0140115 0.1352986 0.2657409 0.1352986 0.2657409 0.07877796 0.0140115 0.02225732 0.2657409 0.02225726 0.2657409 0.07877796 0.0140115 0.02225732 0.2657409 0.02225726 0.2657409 0.07877796 0.0140115 0.07877796 0.2657409 0.07877796 0.2657409 0.02225726 0.0140115 0.07877796 0.2657409 0.07877796 0.2657409 0.1352986 0 0 0 0 0 0 0 0 0 0 0 0 0 0 0 0 0 0 0 0 0 0 0 0 0 0 0 0 0 0 0 0 0 0 0 0 0 0 0 0 0 0 0 0 0 0 0 0</float_array>
          <technique_common>
            <accessor source="#Cylinder_001-mesh-map-1-array" count="198" stride="2">
              <param name="S" type="float"/>
              <param name="T" type="float"/>
            </accessor>
          </technique_common>
        </source>
        <vertices id="Cylinder_001-mesh-vertices">
          <input semantic="POSITION" source="#Cylinder_001-mesh-positions"/>
        </vertices>
        <triangles material="Material_001-material" count="66">
          <input semantic="VERTEX" source="#Cylinder_001-mesh-vertices" offset="0"/>
          <input semantic="NORMAL" source="#Cylinder_001-mesh-normals" offset="1"/>
          <input semantic="TEXCOORD" source="#Cylinder_001-mesh-map-0" offset="2" set="0"/>
          <input semantic="TEXCOORD" source="#Cylinder_001-mesh-map-1" offset="2" set="1"/>
          <p>6 0 0 4 1 1 2 2 2 14 3 3 15 4 4 11 5 5 7 6 6 13 7 7 6 8 8 5 9 9 11 10 10 4 11 11 2 12 12 10 13 13 9 14 14 0 15 15 8 16 16 15 17 17 0 18 18 14 19 19 7 20 20 6 21 21 12 22 22 5 23 23 4 24 24 10 25 25 3 26 26 1 27 27 9 28 28 8 29 29 22 30 30 23 31 31 16 32 32 18 33 33 27 34 34 19 35 35 16 36 36 24 37 37 17 38 38 23 39 39 25 40 40 16 41 41 21 42 42 30 43 43 22 44 44 19 45 45 28 46 46 20 47 47 17 48 48 26 49 49 18 50 50 22 51 51 31 52 52 23 53 53 20 54 54 29 55 55 21 56 56 47 57 57 33 57 58 39 58 59 45 59 60 38 60 61 37 61 62 43 62 63 36 63 64 35 64 65 32 65 66 42 66 67 34 67 68 46 68 69 39 69 70 38 70 71 44 71 72 37 72 73 36 73 74 34 74 75 43 75 76 35 76 77 41 77 78 32 77 79 33 78 80 2 2 81 1 79 82 0 80 83 0 80 84 7 81 85 6 0 86 6 0 87 5 82 88 4 1 89 4 1 90 3 83 91 2 2 92 2 2 93 0 80 94 6 0 95 15 4 96 8 84 97 9 85 98 9 85 99 10 86 100 15 4 101 10 86 102 11 5 103 15 4 104 11 5 105 12 87 106 13 88 107 13 88 108 14 3 109 11 5 110 7 6 111 14 89 112 13 7 113 5 9 114 12 90 115 11 10 116 2 12 117 3 91 118 10 13 119 0 15 120 1 92 121 8 16 122 0 18 123 15 93 124 14 19 125 6 21 126 13 94 127 12 22 128 4 24 129 11 95 130 10 25 131 1 27 132 2 96 133 9 28 134 16 32 135 17 97 136 18 98 137 18 98 138 19 99 139 16 32 140 19 99 141 20 99 142 16 32 143 20 99 144 21 99 145 16 32 146 21 99 147 22 30 148 16 32 149 18 33 150 26 100 151 27 34 152 16 36 153 25 101 154 24 37 155 23 39 156 31 102 157 25 40 158 21 42 159 29 103 160 30 43 161 19 45 162 27 104 163 28 46 164 17 48 165 24 105 166 26 49 167 22 51 168 30 106 169 31 52 170 20 54 171 28 107 172 29 55 173 47 57 174 41 108 175 33 57 176 45 59 177 46 60 178 38 60 179 43 62 180 44 109 181 36 63 182 32 65 183 40 110 184 42 66 185 46 68 186 47 111 187 39 69 188 44 71 189 45 112 190 37 72 191 34 74 192 42 113 193 43 75 194 41 77 195 40 114 196 32 77 197</p>
        </triangles>
      </mesh>
    </geometry>
  </library_geometries>
  <library_visual_scenes>
    <visual_scene id="Scene" name="Scene">
      <node id="solar_01" name="solar_01" type="NODE">
        <matrix sid="transform">1 0 0 0 0 1 0 0 0 0 1 0 0 0 0 1</matrix>
        <instance_geometry url="#Cylinder_001-mesh" name="solar_01">
          <bind_material>
            <technique_common>
              <instance_material symbol="Material_001-material" target="#Material_001-material">
                <bind_vertex_input semantic="UVMap" input_semantic="TEXCOORD" input_set="0"/>
                <bind_vertex_input semantic="UVMap.001" input_semantic="TEXCOORD" input_set="1"/>
              </instance_material>
            </technique_common>
          </bind_material>
        </instance_geometry>
      </node>
    </visual_scene>
  </library_visual_scenes>
  <scene>
    <instance_visual_scene url="#Scene"/>
  </scene>
</COLLADA>