<?xml version="1.0" encoding="utf-8"?>
<COLLADA xmlns="http://www.collada.org/2005/11/COLLADASchema" version="1.4.1" xmlns:xsi="http://www.w3.org/2001/XMLSchema-instance">
  <asset>
    <contributor>
      <author>Blender User</author>
      <authoring_tool>Blender 4.3.1 commit date:2024-12-10, commit time:07:46, hash:33d812126174</authoring_tool>
    </contributor>
    <created>2026-08-15T20:36:51</created>
    <modified>2026-08-15T20:36:51</modified>
    <unit name="meter" meter="1"/>
    <up_axis>Z_UP</up_axis>
  </asset>
  <library_effects>
    <effect id="Material_001-effect">
      <profile_COMMON>
        <newparam sid="mars_generic_png-surface">
          <surface type="2D">
            <init_from>mars_generic_png</init_from>
          </surface>
        </newparam>
        <newparam sid="mars_generic_png-sampler">
          <sampler2D>
            <source>mars_generic_png-surface</source>
          </sampler2D>
        </newparam>
        <technique sid="common">
          <lambert>
            <emission>
              <color sid="emission">0 0 0 1</color>
            </emission>
            <diffuse>
              <texture texture="mars_generic_png-sampler" texcoord="UVMap.001"/>
            </diffuse>
            <index_of_refraction>
              <float sid="ior">1.5</float>
            </index_of_refraction>
          </lambert>
        </technique>
      </profile_COMMON>
    </effect>
  </library_effects>
  <library_images>
    <image id="mars_generic_png" name="mars_generic_png">
      <init_from>/home/welton/Downloads/mars_generic.png</init_from>
    </image>
  </library_images>
  <library_materials>
    <material id="Material_001-material" name="Material.001">
      <instance_effect url="#Material_001-effect"/>
    </material>
  </library_materials>
  <library_geometries>
    <geometry id="Cube_001-mesh" name="Cube.001">
      <mesh>
        <source id="Cube_001-mesh-positions">
          <float_array id="Cube_001-mesh-positions-array" count="144">3.70166 -4.5806 2.83661 3.70166 -4.736029 3.094938 -3.70166 -4.5806 2.83661 -3.70166 -4.736029 3.094938 3.70166 4.736029 8.442158 3.70166 4.5806 8.700488 -3.70166 4.736029 8.442158 -3.70166 4.5806 8.700488 0 1.129806 -1.914142 0.7988934 0.7988935 -1.914141 1.129806 -2.38419e-7 -1.914142 0.7988935 -0.7988937 -1.914142 0 -1.129806 -1.914142 -0.7988936 -0.7988937 -1.914142 -1.129806 0 -1.914142 -0.7988936 0.7988935 -1.914141 0.7988937 0.7988936 5.202025 2.46583e-7 1.129806 5.202025 1.129806 0 5.202025 0.7988938 -0.7988936 5.202025 2.46583e-7 -1.129806 5.202025 -0.7988933 -0.7988936 5.202025 -1.129806 1.19209e-7 5.202025 -0.7988933 0.7988936 5.202025 0.7988937 0.7988936 5.202025 2.46583e-7 1.129806 5.202025 1.129806 0 5.202025 0.7988938 -0.7988936 5.202025 2.46583e-7 -1.129806 5.202025 -0.7988933 -0.7988936 5.202025 -1.129806 1.19209e-7 5.202025 -0.7988933 0.7988936 5.202025 0.7988937 0.7988934 6.340719 2.46583e-7 1.129806 6.340719 1.129806 0 5.591107 0.7988938 -0.7988937 4.959323 2.46583e-7 -1.129806 4.959323 -0.7988933 -0.7988937 4.959323 -1.129806 0 5.591107 -0.7988933 0.7988934 6.340719 -0.5917074 1.225736 0.6947489 -0.5930057 1.183078 0.6947489 -0.5917073 1.225736 1.742749 -0.5930048 1.183078 1.742749 0.9454432 1.136276 1.742749 0.9467409 1.178933 1.742749 0.9454429 1.136276 0.6947484 0.9467403 1.178934 0.6947484</float_array>
          <technique_common>
            <accessor source="#Cube_001-mesh-positions-array" count="48" stride="3">
              <param name="X" type="float"/>
              <param name="Y" type="float"/>
              <param name="Z" type="float"/>
            </accessor>
          </technique_common>
        </source>
        <source id="Cube_001-mesh-normals">
          <float_array id="Cube_001-mesh-normals-array" count="348">0 -0.8568607 -0.5155482 0 -0.8568593 -0.5155505 0 -0.8568607 -0.5155481 -1 0 0 -1 -1.78623e-7 0 -1 0 0 0 0.8568602 0.5155491 0 0.8568616 0.5155467 0 0.8568601 0.5155491 1 0 0 1 3.57247e-7 0 1 3.63664e-7 0 0 0.5155484 -0.8568605 0 0.5155483 -0.8568605 0 -0.5155485 0.8568605 -4.5533e-7 1.40689e-7 -1 -1.32074e-7 0 -1 0 1.40684e-7 -1 0.9238795 -0.3826838 0 0.9238796 -0.3826834 0 0.9238795 -0.3826838 0 0.3826838 0.9238795 0 0.3826833 0.9238796 0 0.3826833 0.9238797 0 -0.3826836 0.9238795 0 -0.3826834 0.9238796 0 -0.3826836 0.9238795 0 -0.9238796 -0.3826835 0 -0.9238795 -0.3826836 0 -0.9238795 -0.3826835 0 0.3826836 -0.9238796 0 0.3826835 -0.9238796 0 0.3826836 -0.9238795 0 0.9238797 0.3826833 0 0.9238795 0.3826836 0 0.9238797 0.3826833 0 -0.9238795 0.3826836 0 -0.9238795 0.3826838 0 -0.9238795 0.3826838 0 -0.3826834 -0.9238796 0 -0.3826835 -0.9238796 0 -0.3826834 -0.9238796 0 0.3826833 -0.9238796 -1.42017e-7 0.3826833 -0.9238796 0 0.3826834 -0.9238796 0 0.9238797 0.3826833 0 -0.9238798 -0.3826832 1.62317e-7 -0.9238798 -0.3826832 1.42005e-7 0.3826838 -0.9238795 0 0.3826839 -0.9238795 4.69083e-7 0.3826839 -0.9238795 5.6802e-7 -0.9238795 -0.3826836 0 -0.9238795 -0.3826835 0 -0.9238796 -0.3826836 0 0.9238795 -0.3826839 -1.87298e-7 0.9238794 -0.3826839 -2.97135e-7 0.9238794 -0.3826839 -5.3148e-7 -0.3826838 -0.9238795 0 -0.3826839 -0.9238795 4.69083e-7 -0.3826836 -0.9238794 0 -0.9238795 0.3826835 0 0.923879 -0.3826849 0 -0.9238795 0.3826836 0 -0.3826833 -0.9238796 -1.92077e-7 -0.3826833 -0.9238796 -1.71127e-7 -0.3826833 -0.9238796 -2.42136e-7 -0.9995377 0.03040391 8.32909e-7 -0.9995372 0.03042155 0 -0.9995377 0.03040343 8.53536e-7 -3.40276e-7 0 -1 -3.40275e-7 0 -1 -3.40276e-7 0 -1 0.9995378 -0.03040093 -5.67675e-7 0.9995376 -0.03040724 -3.59669e-7 0.9995376 -0.03040742 -3.53987e-7 4.49697e-7 1.09707e-5 1 2.30853e-7 1.87797e-7 1 4.53699e-7 1.11679e-5 1 -0.03040766 -0.9995376 -1.54946e-7 -0.0304076 -0.9995376 -1.59427e-7 -0.03040748 -0.9995376 -1.66566e-7 0.0304076 0.9995376 0 0.03040754 0.9995376 0 0.03040748 0.9995377 1.32238e-7 0 -0.8568593 -0.5155506 -1 -1.81831e-7 0 0 0.8568615 0.5155466 1 0 0 0 -0.5155484 0.8568606 2.79236e-7 1.40689e-7 -1 -5.47465e-7 3.51716e-7 -1 4.50929e-7 0 -1 -4.50929e-7 0 -1 5.47465e-7 3.51716e-7 -1 0.9238796 -0.3826834 0 0.3826838 0.9238795 0 -0.3826833 0.9238796 0 -0.9238795 -0.3826836 0 0.3826835 -0.9238795 0 0.9238795 0.3826838 0 -0.9238795 0.3826836 0 -0.3826835 -0.9238795 0 0.3826833 -0.9238796 -2.42136e-7 0.9238797 0.3826833 0 0.3826837 -0.9238795 0 -0.9238796 -0.3826836 0 0.9238794 -0.3826839 0 -0.3826839 -0.9238795 5.68021e-7 0.9238791 -0.3826845 0 -0.3826835 -0.9238796 -1.21068e-7 -0.9995372 0.03042203 0 -3.40275e-7 0 -1 0.9995378 -0.03040075 -5.73357e-7 2.2685e-7 0 1 -0.03040784 -0.9995377 -1.47807e-7 0.03040766 0.9995377 0</float_array>
          <technique_common>
            <accessor source="#Cube_001-mesh-normals-array" count="116" stride="3">
              <param name="X" type="float"/>
              <param name="Y" type="float"/>
              <param name="Z" type="float"/>
            </accessor>
          </technique_common>
        </source>
        <source id="Cube_001-mesh-map-0">
          <float_array id="Cube_001-mesh-map-0-array" count="372">0.1616219 0.01892697 0.05015242 0.145105 0.1616219 0.145105 0.1616219 0.01892697 0.05015242 0.145105 0.1616219 0.145105 0.05015242 0.01892697 0.1616219 0.145105 0.05015242 0.145105 0.05015242 0.145105 0.1616219 0.01892697 0.1616219 0.145105 0.1616219 0.02737498 0.05015242 0.1366568 0.1616219 0.1366568 0.4069096 0.9860387 0.3522686 0.7630998 0.4069096 0.7630998 0.1541515 0.1352986 0.1658573 0.07877796 0.0859251 0.07877796 0.0140115 0.07877796 0.2657409 0.1352986 0.0140115 0.1352986 0.0140115 0.02225732 0.2657409 0.07877796 0.2657409 0.02225726 0.0140115 0.1352986 0.2657409 0.07877796 0.0140115 0.07877796 0.0140115 0.1352986 0.2657409 0.07877796 0.0140115 0.07877796 0.0140115 0.02225732 0.2657409 0.07877796 0.0140115 0.07877796 0.0140115 0.02225732 0.2657409 0.07877796 0.0140115 0.07877796 0.0140115 0.02225732 0.2657409 0.07877796 0.2657409 0.02225726 0.0140115 0.07877796 0.2657409 0.1352986 0.0140115 0.1352986 0 0 0 0 0 0 0 0 0 0 0 0 0 0 0 0 0 0 0 0 0 0 0 0 0 0 0 0 0 0 0 0 0 0 0 0 0 0 0 0 0 0 0 0 0 0 0 0 0.1616219 0.01892697 0.05015242 0.145105 0.1616219 0.145105 0.1616219 0.01892697 0.05015242 0.145105 0.1616219 0.145105 0.05015242 0.145105 0.1616219 0.01892697 0.1616219 0.145105 0.05015242 0.01892697 0.1616219 0.145105 0.05015242 0.145105 0.05015242 0.02737498 0.1616219 0.1366568 0.1616219 0.02737498 0.7873939 0.1383323 0.7064543 0.2142086 0.707141 0.1355306 0.1616219 0.01892697 0.05015242 0.01892697 0.05015242 0.145105 0.1616219 0.01892697 0.05015242 0.01892697 0.05015242 0.145105 0.05015242 0.01892697 0.1616219 0.01892697 0.1616219 0.145105 0.05015242 0.145105 0.05015242 0.01892697 0.1616219 0.01892697 0.1616219 0.02737498 0.05015242 0.02737498 0.05015242 0.1366568 0.4069096 0.9860387 0.3522686 0.9860387 0.3522686 0.7630998 0.1658573 0.07877796 0.1541515 0.02225732 0.0859251 0.07877796 0.1541515 0.02225732 0.1258912 -0.001154184 0.0859251 0.07877796 0.1258912 -0.001154184 0.09763091 0.02225732 0.0859251 0.07877796 0.0859251 0.07877796 0.09763091 0.1352986 0.1258912 0.1587101 0.1258912 0.1587101 0.1541515 0.1352986 0.0859251 0.07877796 0.0140115 0.07877796 0.2657409 0.07877796 0.2657409 0.1352986 0.0140115 0.02225732 0.0140115 0.07877796 0.2657409 0.07877796 0.0140115 0.1352986 0.2657409 0.1352986 0.2657409 0.07877796 0.0140115 0.1352986 0.2657409 0.1352986 0.2657409 0.07877796 0.0140115 0.02225732 0.2657409 0.02225726 0.2657409 0.07877796 0.0140115 0.02225732 0.2657409 0.02225726 0.2657409 0.07877796 0.0140115 0.02225732 0.0140115 0.07877796 0.2657409 0.07877796 0.0140115 0.07877796 0.2657409 0.07877796 0.2657409 0.1352986 0 0 0 0 0 0 0 0 0 0 0 0 0 0 0 0 0 0 0 0 0 0 0 0 0 0 0 0 0 0 0 0 0 0 0 0 0 0 0 0 0 0 0 0 0 0 0 0 0.1616219 0.01892697 0.05015242 0.01892697 0.05015242 0.145105 0.1616219 0.01892697 0.05015242 0.01892697 0.05015242 0.145105 0.05015242 0.145105 0.05015242 0.01892697 0.1616219 0.01892697 0.05015242 0.01892697 0.1616219 0.01892697 0.1616219 0.145105 0.05015242 0.02737498 0.05015242 0.1366568 0.1616219 0.1366568 0.7873939 0.1383323 0.7867072 0.2170102 0.7064543 0.2142086</float_array>
          <technique_common>
            <accessor source="#Cube_001-mesh-map-0-array" count="186" stride="2">
              <param name="S" type="float"/>
              <param name="T" type="float"/>
            </accessor>
          </technique_common>
        </source>
        <source id="Cube_001-mesh-map-1">
          <float_array id="Cube_001-mesh-map-1-array" count="372">0.1616219 0.01892697 0.05015242 0.145105 0.1616219 0.145105 0.1616219 0.01892697 0.05015242 0.145105 0.1616219 0.145105 0.05015242 0.01892697 0.1616219 0.145105 0.05015242 0.145105 0.05015242 0.145105 0.1616219 0.01892697 0.1616219 0.145105 0.1616219 0.02737498 0.05015242 0.1366568 0.1616219 0.1366568 0.4069096 0.9860387 0.3522686 0.7630998 0.4069096 0.7630998 0.1541515 0.1352986 0.1658573 0.07877796 0.0859251 0.07877796 0.0140115 0.07877796 0.2657409 0.1352986 0.0140115 0.1352986 0.0140115 0.02225732 0.2657409 0.07877796 0.2657409 0.02225726 0.0140115 0.1352986 0.2657409 0.07877796 0.0140115 0.07877796 0.0140115 0.1352986 0.2657409 0.07877796 0.0140115 0.07877796 0.0140115 0.02225732 0.2657409 0.07877796 0.0140115 0.07877796 0.0140115 0.02225732 0.2657409 0.07877796 0.0140115 0.07877796 0.0140115 0.02225732 0.2657409 0.07877796 0.2657409 0.02225726 0.0140115 0.07877796 0.2657409 0.1352986 0.0140115 0.1352986 0 0 0 0 0 0 0 0 0 0 0 0 0 0 0 0 0 0 0 0 0 0 0 0 0 0 0 0 0 0 0 0 0 0 0 0 0 0 0 0 0 0 0 0 0 0 0 0 0.1616219 0.01892697 0.05015242 0.145105 0.1616219 0.145105 0.1616219 0.01892697 0.05015242 0.145105 0.1616219 0.145105 0.05015242 0.145105 0.1616219 0.01892697 0.1616219 0.145105 0.05015242 0.01892697 0.1616219 0.145105 0.05015242 0.145105 0.05015242 0.02737498 0.1616219 0.1366568 0.1616219 0.02737498 0.7873939 0.1383323 0.7064543 0.2142086 0.707141 0.1355306 0.1616219 0.01892697 0.05015242 0.01892697 0.05015242 0.145105 0.1616219 0.01892697 0.05015242 0.01892697 0.05015242 0.145105 0.05015242 0.01892697 0.1616219 0.01892697 0.1616219 0.145105 0.05015242 0.145105 0.05015242 0.01892697 0.1616219 0.01892697 0.1616219 0.02737498 0.05015242 0.02737498 0.05015242 0.1366568 0.4069096 0.9860387 0.3522686 0.9860387 0.3522686 0.7630998 0.1658573 0.07877796 0.1541515 0.02225732 0.0859251 0.07877796 0.1541515 0.02225732 0.1258912 -0.001154184 0.0859251 0.07877796 0.1258912 -0.001154184 0.09763091 0.02225732 0.0859251 0.07877796 0.0859251 0.07877796 0.09763091 0.1352986 0.1258912 0.1587101 0.1258912 0.1587101 0.1541515 0.1352986 0.0859251 0.07877796 0.0140115 0.07877796 0.2657409 0.07877796 0.2657409 0.1352986 0.0140115 0.02225732 0.0140115 0.07877796 0.2657409 0.07877796 0.0140115 0.1352986 0.2657409 0.1352986 0.2657409 0.07877796 0.0140115 0.1352986 0.2657409 0.1352986 0.2657409 0.07877796 0.0140115 0.02225732 0.2657409 0.02225726 0.2657409 0.07877796 0.0140115 0.02225732 0.2657409 0.02225726 0.2657409 0.07877796 0.0140115 0.02225732 0.0140115 0.07877796 0.2657409 0.07877796 0.0140115 0.07877796 0.2657409 0.07877796 0.2657409 0.1352986 0 0 0 0 0 0 0 0 0 0 0 0 0 0 0 0 0 0 0 0 0 0 0 0 0 0 0 0 0 0 0 0 0 0 0 0 0 0 0 0 0 0 0 0 0 0 0 0 0.1616219 0.01892697 0.05015242 0.01892697 0.05015242 0.145105 0.1616219 0.01892697 0.05015242 0.01892697 0.05015242 0.145105 0.05015242 0.145105 0.05015242 0.01892697 0.1616219 0.01892697 0.05015242 0.01892697 0.1616219 0.01892697 0.1616219 0.145105 0.05015242 0.02737498 0.05015242 0.1366568 0.1616219 0.1366568 0.7873939 0.1383323 0.7867072 0.2170102 0.7064543 0.2142086</float_array>
          <technique_common>
            <accessor source="#Cube_001-mesh-map-1-array" count="186" stride="2">
              <param name="S" type="float"/>
              <param name="T" type="float"/>
            </accessor>
          </technique_common>
        </source>
        <vertices id="Cube_001-mesh-vertices">
          <input semantic="POSITION" source="#Cube_001-mesh-positions"/>
        </vertices>
        <triangles material="Material_001-material" count="62">
          <input semantic="VERTEX" source="#Cube_001-mesh-vertices" offset="0"/>
          <input semantic="NORMAL" source="#Cube_001-mesh-normals" offset="1"/>
          <input semantic="TEXCOORD" source="#Cube_001-mesh-map-0" offset="2" set="0"/>
          <input semantic="TEXCOORD" source="#Cube_001-mesh-map-1" offset="2" set="1"/>
          <p>1 0 0 2 1 1 0 2 2 3 3 3 6 4 4 2 5 5 7 6 6 4 7 7 6 8 8 4 9 9 1 10 10 0 11 11 2 12 12 4 13 13 0 12 14 3 14 15 5 14 16 7 14 17 15 15 18 8 16 19 12 17 20 10 18 21 19 19 22 11 20 23 9 21 24 17 22 25 16 23 26 15 24 27 17 25 28 8 26 29 13 27 30 22 28 31 14 29 32 11 30 33 20 31 34 12 32 35 9 33 36 18 34 37 10 35 38 15 36 39 22 37 40 23 38 41 12 39 42 21 40 43 13 41 44 31 42 45 33 43 46 39 44 47 30 45 48 37 46 49 29 47 50 28 48 51 35 49 52 27 50 53 24 51 54 34 52 55 32 53 56 31 54 57 38 55 58 30 56 59 28 57 60 37 58 61 36 59 62 26 60 63 35 61 64 34 62 65 24 63 66 33 64 67 25 65 68 42 66 69 41 67 70 43 68 71 40 69 72 46 70 73 41 71 74 46 72 75 45 73 76 44 74 77 45 75 78 43 76 79 44 77 80 46 78 81 43 79 82 41 80 83 40 81 84 45 82 85 47 83 86 1 0 87 3 84 88 2 1 89 3 3 90 7 85 91 6 4 92 7 6 93 5 86 94 4 7 95 4 9 96 5 87 97 1 10 98 2 12 99 6 13 100 4 13 101 3 14 102 1 88 103 5 14 104 8 16 105 9 89 106 12 17 107 9 89 108 10 90 109 12 17 110 10 90 111 11 91 112 12 17 113 12 17 114 13 92 115 14 93 116 14 93 117 15 15 118 12 17 119 10 18 120 18 94 121 19 19 122 9 21 123 8 95 124 17 22 125 15 24 126 23 96 127 17 25 128 13 27 129 21 97 130 22 28 131 11 30 132 19 98 133 20 31 134 9 33 135 16 99 136 18 34 137 15 36 138 14 100 139 22 37 140 12 39 141 20 101 142 21 40 143 31 42 144 25 102 145 33 43 146 30 45 147 38 103 148 37 46 149 28 48 150 36 104 151 35 49 152 24 51 153 26 105 154 34 52 155 31 54 156 39 106 157 38 55 158 28 57 159 29 107 160 37 58 161 26 60 162 27 108 163 35 61 164 24 63 165 32 109 166 33 64 167 42 66 168 40 110 169 41 67 170 40 69 171 47 111 172 46 70 173 46 72 174 47 112 175 45 73 176 45 75 177 42 113 178 43 76 179 46 78 180 44 114 181 43 79 182 40 81 183 42 115 184 45 82 185</p>
        </triangles>
      </mesh>
    </geometry>
  </library_geometries>
  <library_visual_scenes>
    <visual_scene id="Scene" name="Scene">
      <node id="solar_02" name="solar_02" type="NODE">
        <matrix sid="transform">1 0 0 0 0 1 0 0 0 0 1 0 0 0 0 1</matrix>
        <instance_geometry url="#Cube_001-mesh" name="solar_02">
          <bind_material>
            <technique_common>
              <instance_material symbol="Material_001-material" target="#Material_001-material">
                <bind_vertex_input semantic="UVMap" input_semantic="TEXCOORD" input_set="0"/>
                <bind_vertex_input semantic="UVMap.001" input_semantic="TEXCOORD" input_set="1"/>
              </instance_material>
            </technique_common>
          </bind_material>
        </instance_geometry>
      </node>
    </visual_scene>
  </library_visual_scenes>
  <scene>
    <instance_visual_scene url="#Scene"/>
  </scene>
</COLLADA>