<?xml version="1.0" encoding="utf-8"?>
<COLLADA xmlns="http://www.collada.org/2005/11/COLLADASchema" version="1.4.1" xmlns:xsi="http://www.w3.org/2001/XMLSchema-instance">
  <asset>
    <contributor>
      <author>Blender User</author>
      <authoring_tool>Blender 4.3.1 commit date:2024-12-10, commit time:07:46, hash:33d812126174</authoring_tool>
    </contributor>
    <created>2026-08-18T21:54:37</created>
    <modified>2026-08-18T21:54:37</modified>
    <unit name="meter" meter="1"/>
    <up_axis>Z_UP</up_axis>
  </asset>
  <library_effects>
    <effect id="Material-effect">
      <profile_COMMON>
        <newparam sid="mars_generic_png_001-surface">
          <surface type="2D">
            <init_from>mars_generic_png_001</init_from>
          </surface>
        </newparam>
        <newparam sid="mars_generic_png_001-sampler">
          <sampler2D>
            <source>mars_generic_png_001-surface</source>
          </sampler2D>
        </newparam>
        <technique sid="common">
          <lambert>
            <emission>
              <color sid="emission">0 0 0 1</color>
            </emission>
            <diffuse>
              <texture texture="mars_generic_png_001-sampler" texcoord="UVMap"/>
            </diffuse>
            <index_of_refraction>
              <float sid="ior">1.5</float>
            </index_of_refraction>
          </lambert>
        </technique>
      </profile_COMMON>
    </effect>
  </library_effects>
  <library_images>
    <image id="mars_generic_png_001" name="mars_generic_png_001">
      <init_from>/home/welton/snap/0ad/739/.local/share/0ad/mods/mars_wars/art/textures/skins/structural/mars_generic.png</init_from>
    </image>
  </library_images>
  <library_materials>
    <material id="Material-material" name="Material">
      <instance_effect url="#Material-effect"/>
    </material>
  </library_materials>
  <library_geometries>
    <geometry id="Cylinder_004-mesh" name="Cylinder.004">
      <mesh>
        <source id="Cylinder_004-mesh-positions">
          <float_array id="Cylinder_004-mesh-positions-array" count="768">2.762964 9.345716 14.97589 4.351576 9.027268 13.15184 5.831925 8.093627 11.4521 7.103131 6.608419 9.992501 8.078561 4.672858 8.872509 8.691742 2.418849 8.168455 8.900888 1.45088e-7 7.928313 8.691742 -2.418849 8.168455 8.078561 -4.672857 8.872509 7.103131 -6.608419 9.992501 5.831925 -8.093627 11.4521 4.351576 -9.027268 13.15184 2.762964 -9.345716 14.97589 1.174353 -9.027268 16.79994 -0.3059976 -8.093627 18.49968 -1.577203 -6.608419 19.95928 -2.552633 -4.672857 21.07927 -3.165814 -2.418849 21.78332 -3.374959 1.45088e-7 22.02346 -3.165814 2.418849 21.78332 -2.552633 4.672858 21.07927 -1.577203 6.608419 19.95928 -0.3059976 8.093627 18.49968 1.174353 9.027268 16.79994 1.223569 1.272862 13.18291 0.9995719 1.317764 13.4401 1.432302 1.141216 12.94324 1.611544 0.9317999 12.73743 1.749081 0.6588827 12.57951 1.835541 0.3410624 12.48024 1.865031 1.73464e-7 12.44638 1.835541 -0.3410621 12.48024 1.749081 -0.6588827 12.57951 1.611544 -0.9317997 12.73743 1.432302 -1.141216 12.94324 1.223569 -1.272862 13.18291 0.9995719 -1.317764 13.4401 0.7755746 -1.272862 13.69729 0.5668419 -1.141216 13.93696 0.3876 -0.9318006 14.14277 0.250063 -0.6588827 14.30069 0.1636028 -0.3410621 14.39996 0.134113 1.73464e-7 14.43382 0.1636029 0.3410624 14.39996 0.250063 0.6588827 14.30069 0.3875997 0.9317997 14.14277 0.566842 1.141216 13.93696 0.7755751 1.272862 13.69729 2.360385 4.920248 12.87698 1.494523 5.093815 13.87117 3.167239 4.411373 11.95055 3.8601 3.601871 11.15501 4.391751 2.546908 10.54457 4.725962 1.318377 10.16083 4.839954 1.45088e-7 10.02994 4.725962 -1.318376 10.16083 4.391751 -2.546908 10.54457 3.8601 -3.601872 11.15501 3.167239 -4.411373 11.95055 2.360385 -4.920248 12.87698 1.494523 -5.093815 13.87117 0.6286621 -4.920248 14.86535 -0.1781926 -4.411373 15.79178 -0.8710535 -3.601872 16.58733 -1.402704 -2.546908 17.19777 -1.736915 -1.318376 17.58151 -1.850908 1.45088e-7 17.7124 -1.736915 1.318377 17.58151 -1.402704 2.546908 17.19777 -0.8710535 3.601871 16.58733 -0.1781923 4.411373 15.79178 0.6286621 4.920248 14.86535 1.223569 1.272862 13.18291 0.9995719 1.317764 13.4401 1.432302 1.141216 12.94324 1.611544 0.9317999 12.73743 1.749081 0.6588827 12.57951 1.835541 0.3410624 12.48024 1.865031 1.73464e-7 12.44638 1.835541 -0.3410621 12.48024 1.749081 -0.6588827 12.57951 1.611544 -0.9317997 12.73743 1.432302 -1.141216 12.94324 1.223569 -1.272862 13.18291 0.9995719 -1.317764 13.4401 0.7755746 -1.272862 13.69729 0.5668419 -1.141216 13.93696 0.3876 -0.9318006 14.14277 0.250063 -0.6588827 14.30069 0.1636028 -0.3410621 14.39996 0.134113 1.73464e-7 14.43382 0.1636029 0.3410624 14.39996 0.250063 0.6588827 14.30069 0.3875997 0.9317997 14.14277 0.566842 1.141216 13.93696 0.7755751 1.272862 13.69729 0.9445534 1.272862 12.9399 1.153286 1.141216 12.70024 1.332528 0.9317999 12.49443 1.470065 0.6588827 12.33651 1.556525 0.3410624 12.23724 1.586015 1.73464e-7 12.20338 1.556525 -0.3410621 12.23724 1.470065 -0.6588827 12.33651 1.332528 -0.9317997 12.49443 1.153286 -1.141216 12.70024 0.9445529 -1.272862 12.93991 0.7205561 -1.317764 13.1971 0.4965588 -1.272862 13.45429 0.2878261 -1.141216 13.69396 0.1085842 -0.9318006 13.89977 -0.02895283 -0.6588827 14.05769 -0.1154129 -0.3410621 14.15696 -0.1449027 1.73464e-7 14.19082 -0.1154127 0.3410624 14.15696 -0.02895283 0.6588827 14.05769 0.1085839 0.9317997 13.89977 0.2878263 1.141216 13.69396 0.4965593 1.272862 13.45429 0.7205561 1.317764 13.1971 1.225077 5.198078 13.6365 2.503209 9.481985 14.74966 4.114984 9.158894 12.89902 2.108661 5.020958 12.62197 5.616919 8.21164 11.17449 2.932031 4.501667 11.67657 6.90666 6.704776 9.693611 3.639074 3.675596 10.86474 7.896313 4.740992 8.55729 4.181607 2.59904 10.24181 8.518435 2.454118 7.842967 4.522658 1.345362 9.850213 8.730628 1.44234e-7 7.599326 4.638984 1.47505e-7 9.716647 8.518435 -2.454118 7.842967 4.522658 -1.345361 9.850213 7.896313 -4.740992 8.55729 4.181607 -2.599039 10.24181 6.90666 -6.704776 9.693611 3.639074 -3.675597 10.86474 5.616919 -8.21164 11.17449 2.932031 -4.501667 11.67657 4.114984 -9.158894 12.89902 2.108661 -5.020958 12.62197 2.503209 -9.481985 14.74966 1.225077 -5.198078 13.6365 0.8914341 -9.158894 16.6003 0.3414925 -5.020958 14.65103 -0.6105008 -8.21164 18.32483 -0.4818771 -4.501667 15.59643 -1.900242 -6.704776 19.80571 -1.18892 -3.675597 16.40826 -2.889895 -4.740992 20.94203 -1.731453 -2.599039 17.03119 -3.512017 -2.454118 21.65635 -2.072504 -1.345361 17.42279 -3.72421 1.44234e-7 21.9 -2.18883 1.47505e-7 17.55636 -3.512017 2.454118 21.65635 -2.072504 1.345362 17.42279 -2.889895 4.740992 20.94203 -1.731453 2.59904 17.03119 -1.900242 6.704776 19.80571 -1.18892 3.675596 16.40826 -0.6105008 8.21164 18.32483 -0.4818771 4.501667 15.59643 0.8914341 9.158894 16.6003 0.3414925 5.020958 14.65103 0.7246468 1.381134 13.20066 0.9594159 1.334073 12.9311 1.178187 1.196097 12.67991 1.366048 0.9766094 12.4642 1.510199 0.6905679 12.29869 1.600817 0.3574638 12.19464 1.631725 1.79909e-7 12.15915 1.600817 -0.3574635 12.19464 1.510199 -0.6905679 12.29869 1.366048 -0.9766092 12.4642 1.178186 -1.196097 12.67991 0.9594154 -1.334073 12.9311 0.7246468 -1.381134 13.20066 0.4898776 -1.334073 13.47022 0.2711071 -1.196097 13.72142 0.08324563 -0.9766102 13.93712 -0.06090557 -0.6905679 14.10263 -0.1515233 -0.3574635 14.20668 -0.1824312 1.79909e-7 14.24217 -0.1515233 0.3574638 14.20668 -0.06090557 0.6905679 14.10263 0.08324527 0.9766092 13.93712 0.2711073 1.196096 13.72142 0.4898781 1.334073 13.47022 0 1.03649 10.09346 0.7329089 0.7329089 10.09346 1.03649 0 10.09346 0.7329089 -0.7329089 10.09346 0 -1.03649 10.09346 -0.7329089 -0.7329089 10.09346 -1.03649 0 10.09346 -0.7329089 0.7329089 10.09346 0 2.153373 1.922103 1.522665 1.522665 1.922103 2.153373 0 1.922103 1.522665 -1.522665 1.922103 0 -2.153373 1.922103 -1.522665 -1.522665 1.922103 -2.153373 0 1.922103 -1.522665 1.522665 1.922103 0 0.6201866 10.01281 0.438538 0.4385381 10.01281 0.6201866 0 10.01281 0.438538 -0.438538 10.01281 0 -0.6201866 10.01281 -0.4385381 -0.438538 10.01281 -0.6201866 0 10.01281 -0.4385381 0.4385381 10.01281 0.438538 0.4385381 13.65277 0 0.6201866 13.65277 0.6201866 0 13.65277 0.438538 -0.438538 13.65277 0 -0.6201866 13.65277 -0.4385381 -0.438538 14.82633 -0.6201866 0 14.82633 -0.4385381 0.4385381 14.82633 2.15876e-7 6.47958 3.067673 4.581754 4.581754 3.067673 6.47958 2.38329e-7 3.067673 4.581754 -4.581754 3.067673 2.15876e-7 -6.47958 3.067673 -4.581754 -4.581754 3.067673 -6.47958 2.38329e-7 3.067673 -4.581754 4.581754 3.067673 4.893177 4.893177 -3.816732 2.30083e-7 6.919999 -3.816732 6.919999 2.52536e-7 -3.816732 4.893177 -4.893177 -3.816732 2.30083e-7 -6.919999 -3.816732 -4.893177 -4.893177 -3.816732 -6.919999 2.52536e-7 -3.816732 -4.893177 4.893177 -3.816732 4.893177 4.893177 3.067673 2.30083e-7 6.919999 3.067673 6.919999 2.52536e-7 3.067673 4.893177 -4.893177 3.067673 2.30083e-7 -6.919999 3.067673 -4.893177 -4.893177 3.067673 -6.919999 2.52536e-7 3.067673 -4.893177 4.893177 3.067673 4.581754 4.581754 2.190619 2.13065e-7 6.47958 2.190619 6.47958 2.38329e-7 2.190619 4.581754 -4.581754 2.190619 2.13065e-7 -6.47958 2.190619 -4.581754 -4.581754 2.190619 -6.47958 2.38329e-7 2.190619 -4.581754 4.581754 2.190619</float_array>
          <technique_common>
            <accessor source="#Cylinder_004-mesh-positions-array" count="256" stride="3">
              <param name="X" type="float"/>
              <param name="Y" type="float"/>
              <param name="Z" type="float"/>
            </accessor>
          </technique_common>
        </source>
        <source id="Cylinder_004-mesh-normals">
          <float_array id="Cylinder_004-mesh-normals-array" count="1293">0.754097 -2.37808e-7 0.6567631 0.6686281 -0.367433 0.6464747 0.6072539 -0.3423928 0.7169449 0.5522257 -0.2940198 0.7801277 0.507297 -0.2256093 0.8317152 0.4755269 -0.1418236 0.8681938 0.4590829 -0.04837375 0.8870756 0.459082 0.0483734 0.8870759 0.4755278 0.1418234 0.8681933 0.507297 0.2256089 0.8317154 0.5522274 0.2940192 0.7801268 0.6072532 0.3423931 0.7169453 0.6686294 0.367433 0.6464733 0.7321685 0.367433 0.5735176 0.7935435 0.342393 0.5030466 0.8485714 0.2940187 0.4398634 0.8934999 0.225609 0.3882767 0.9252696 0.1418242 0.3517987 0.9417151 0.04837375 0.3329157 0.941715 -0.04837346 0.3329159 0.9252697 -0.1418235 0.3517983 0.8934996 -0.2256093 0.3882771 0.8485701 -0.2940197 0.4398649 0.793543 -0.3423932 0.5030473 0.7321685 -0.3674329 0.5735176 0.7279651 -0.1712077 0.6638936 0.699366 -0.1595404 0.6967311 0.6737247 -0.1370012 0.7261719 0.6527913 -0.1051239 0.7502083 0.637988 -0.0660839 0.7672055 0.6303251 -0.02254146 0.776004 0.6303245 0.02254033 0.7760045 0.6379877 0.06608343 0.7672057 0.65279 0.1051232 0.7502095 0.6737268 0.1370003 0.7261703 0.6993676 0.1595406 0.6967294 0.7279646 0.1712079 0.6638942 0.757572 0.1712077 0.629899 0.7861703 0.15954 0.5970622 0.8118078 0.137001 0.5676255 0.832745 0.105124 0.5435852 0.8475496 0.06608343 0.5265861 0.8552111 0.02254009 0.5177896 0.8552111 -0.02254003 0.5177894 0.8475481 -0.06608372 0.5265882 0.8327445 -0.1051242 0.5435857 0.8118104 -0.1370002 0.5676223 0.7861698 -0.15954 0.597063 0.757569 -0.1712087 0.6299024 0 0 1 -0.7540972 0 -0.6567628 -0.6686143 0.3674689 -0.6464685 -0.607233 0.3424264 -0.7169466 -0.552201 0.294048 -0.7801345 -0.5072678 0.2256308 -0.8317273 -0.4754943 0.1418375 -0.8682092 -0.4590477 0.04837858 -0.8870934 -0.4590475 -0.04837852 -0.8870936 -0.4754945 -0.1418374 -0.8682093 -0.5072678 -0.2256305 -0.8317274 -0.5522015 -0.2940482 -0.7801341 -0.6072332 -0.342426 -0.7169466 -0.6686145 -0.3674687 -0.6464685 -0.7321611 -0.3674682 -0.5735044 -0.7935425 -0.3424255 -0.503026 -0.8485751 -0.2940469 -0.4398372 -0.8935077 -0.2256311 -0.3882457 -0.9252809 -0.1418373 -0.3517634 -0.9417276 -0.04837834 -0.3328793 -0.9417275 0.04837828 -0.3328797 -0.9252809 0.1418374 -0.3517634 -0.8935075 0.2256313 -0.3882458 -0.8485752 0.2940468 -0.4398373 -0.7935412 0.3424264 -0.5030276 -0.7321612 0.3674682 -0.5735043 -0.7279559 0.171247 -0.6638936 -0.6993491 0.1595776 -0.6967396 -0.6737048 0.1370332 -0.7261845 -0.652764 0.105148 -0.7502288 -0.637959 0.06609767 -0.7672284 -0.6302939 0.02254575 -0.7760292 -0.6302921 -0.02254551 -0.7760307 -0.6379595 -0.06609761 -0.7672281 -0.6527682 -0.1051477 -0.7502252 -0.6737064 -0.1370319 -0.7261832 -0.6993512 -0.1595767 -0.6967376 -0.7279564 -0.1712471 -0.6638932 -0.7575681 -0.1712477 -0.6298927 -0.7861764 -0.1595765 -0.5970445 -0.8118195 -0.1370322 -0.5676015 -0.8327614 -0.1051474 -0.5435556 -0.8475673 -0.06609857 -0.5265554 -0.8552319 -0.02254545 -0.5177551 -0.8552308 0.0225442 -0.517757 -0.8475655 0.06609994 -0.5265581 -0.8327608 0.1051482 -0.5435563 -0.8118187 0.1370323 -0.5676025 -0.7861775 0.1595757 -0.5970432 -0.7575678 0.1712477 -0.6298931 -0.7439272 0.08528858 -0.6627957 -0.7296784 0.07947784 -0.6791559 -0.7169201 0.06823813 -0.6938078 -0.70649 0.0523625 -0.7057833 -0.6990911 0.03292131 -0.7142744 -0.6952895 0.01122826 -0.7186421 -0.6952967 -0.01122784 -0.7186353 -0.6990863 -0.03292214 -0.714279 -0.7064805 -0.05236202 -0.7057929 -0.7169031 -0.06824225 -0.6938248 -0.7296847 -0.07946664 -0.6791505 -0.7439302 -0.08528584 -0.6627928 -0.7586714 -0.08528745 -0.6458669 -0.7729213 -0.07947182 -0.6295054 -0.7856864 -0.06824493 -0.6148492 -0.7961187 -0.05236428 -0.6028706 -0.8034875 -0.03291845 -0.5944109 -0.8073066 -0.01122778 -0.5900255 -0.8073248 0.01122784 -0.5900005 -0.8034873 0.03291398 -0.5944114 -0.7961198 0.05236512 -0.6028693 -0.785689 0.06824404 -0.6148461 -0.7729206 0.07947099 -0.6295064 -0.7586754 0.08528715 -0.6458621 0.7604164 -0.5667303 -0.3171494 0.1955446 0.9229886 0.3314431 0.5093295 0.860088 -0.02884733 -0.2895213 -0.3562608 0.8884006 0.6475555 -0.7385755 -0.1875582 0.6475543 0.7385761 -0.1875601 -0.3308396 -0.1215137 0.935831 0.509328 -0.8600889 -0.02884674 0.760419 0.5667285 -0.3171465 -0.3308335 0.121514 0.9358331 0.3551551 -0.9229887 0.1481781 0.8402249 0.3562593 -0.4087807 -0.2895237 0.35626 0.8884002 0.1955435 -0.9229897 0.3314406 0.8815367 0.1215133 -0.45621 -0.2097251 0.5667288 0.7967646 0.04137182 -0.8600887 0.5084642 0.8815329 -0.1215136 -0.4562172 -0.09686541 0.7385745 0.6671768 -0.09685492 -0.7385762 0.6671764 0.8402231 -0.3562625 -0.4087814 0.04137074 0.8600898 0.5084624 0.3551542 0.9229895 0.1481752 -0.2097122 -0.5667306 0.7967668 -1.12238e-6 0 1 2.14312e-6 0 1 -1.78593e-7 0 1 0 0 -1 4.9652e-7 0 -1 0 0 -1 0 -0.9907878 0.1354236 -0.7005927 -0.7005929 0.1354236 0 -0.9907878 0.1354236 0.9907878 0 0.1354236 0.7005928 -0.7005928 0.1354236 0.9907878 0 0.1354236 0 0.9907878 0.1354236 0.7005928 0.7005927 0.1354236 0 0.9907878 0.1354236 -0.7005928 0.7005928 0.1354236 -0.7005929 0.7005927 0.1354236 -0.9907878 0 0.1354236 -0.7005929 -0.7005927 0.1354236 0.7005929 -0.7005927 0.1354236 0.7005929 0.7005927 0.1354236 -0.9907878 0 0.1354236 0.5810933 -0.05287575 0.8121175 0.9358214 0 0.3524747 0.5810937 0.05287575 0.8121172 -0.7071065 0.7071072 0 -0.112821 0.9936153 0 4.92862e-7 1 0 -0.7071083 -0.7071054 0 -1 -2.42323e-6 0 -1 2.50537e-6 0 0.7071065 -0.7071071 0 -0.1128208 -0.9936155 0 0 -1 0 0.707107 0.7071066 0 1 5.5447e-7 0 1 -4.10719e-7 0 -0.858155 0.5133907 0 -0.8581544 -0.513392 0 0.7071073 -0.7071063 0 0.7071066 0.7071071 0 0.7071091 -0.7071045 0 -3.12149e-6 -1 0 3.05988e-6 -1 0 0.7071014 0.7071121 0 7.6187e-6 1 0 -7.55709e-6 1 0 -0.7071014 0.7071122 0 -0.7071122 0.7071014 0 -1 -7.53656e-6 0 -0.7071123 -0.7071014 0 -0.7071014 -0.7071122 0 7.6187e-6 -1 0 0.7071014 -0.7071121 0 0.7071123 -0.7071014 0 1 7.60843e-6 0 0.7071122 0.7071014 0 -1 7.60843e-6 0 -7.55709e-6 -1 0 1 -7.53656e-6 0 0 0 1 0 0 1 4.2707e-7 0 1 0 0 1 0 0 1 4.4253e-7 0 1 0 0 1 0 0 1 -4.2707e-7 0 1 0 0 1 0 0 1 -4.4253e-7 0 1 0.7071046 0.707109 0 1 -3.23444e-6 0 1 2.94436e-6 0 -0.7071091 0.7071045 0 3.05988e-6 1 0 -3.12149e-6 1 0 -0.7071046 -0.707109 0 -1 3.23444e-6 0 -1 -2.94436e-6 0 0.7071047 -0.7071089 0 0.7071089 0.7071047 0 -0.7071047 0.7071089 0 -0.707109 -0.7071046 0 0.7540966 5.83811e-6 0.6567636 0.7541067 1.946e-6 0.6567521 0.7540963 2.18929e-6 0.6567639 0.7540981 -5.16917e-7 0.656762 0.7540833 0 0.6567788 0.7541023 1.45951e-6 0.656757 0.7540983 -8.75713e-6 0.6567617 0.7540965 0 0.6567638 0.754097 0 0.6567632 0.7541013 -1.94605e-6 0.6567581 0.7540977 3.89208e-6 0.6567625 0.7540919 -2.9191e-6 0.656769 0.7541023 7.7842e-6 0.656757 0.754096 7.68603e-7 0.6567642 0.754093 3.36268e-7 0.6567677 0.7540973 0 0.6567628 0.7540972 5.62659e-7 0.656763 0.7540929 1.79343e-6 0.6567677 0.754101 -7.50206e-7 0.6567586 0.7540956 0 0.6567647 0.7540968 0 0.6567634 0.6686294 -0.367433 0.6464733 0.607254 -0.3423932 0.7169446 0.5522269 -0.2940194 0.780127 0.5072972 -0.2256089 0.8317152 0.4755278 -0.1418234 0.8681933 0.459082 -0.0483734 0.887076 0.459082 0.04837375 0.8870759 0.4755269 0.1418236 0.8681938 0.5072968 0.2256093 0.8317155 0.5522258 0.2940199 0.7801277 0.6072537 0.3423931 0.7169449 0.6686281 0.367433 0.6464747 0.7321685 0.3674329 0.5735176 0.793543 0.3423932 0.5030473 0.84857 0.2940199 0.4398652 0.8934998 0.225609 0.3882766 0.9252698 0.1418234 0.3517982 0.941715 0.04837346 0.3329159 0.941715 -0.04837381 0.332916 0.9252696 -0.1418242 0.3517987 0.8935 -0.2256087 0.3882762 0.8485713 -0.2940188 0.4398635 0.7935433 -0.3423929 0.5030468 0.7321685 -0.367433 0.5735176 0.7279666 -0.1712077 0.6638921 0.6993651 -0.1595399 0.696732 0.673727 -0.1370004 0.7261701 0.6527917 -0.105123 0.7502081 0.6379878 -0.06608343 0.7672057 0.6303245 -0.02254033 0.7760045 0.6303269 0.02254146 0.7760025 0.6379898 0.06608378 0.7672041 0.6527912 0.1051241 0.7502084 0.6737244 0.1370007 0.7261723 0.6993663 0.1595402 0.6967307 0.7279651 0.1712077 0.6638936 0.7575683 0.1712089 0.6299031 0.7861695 0.1595402 0.5970632 0.8118104 0.137 0.5676221 0.8327437 0.1051247 0.543587 0.8475481 0.06608378 0.5265883 0.8552111 0.02254003 0.5177895 0.8552111 -0.02254021 0.5177896 0.8475495 -0.06608325 0.5265861 0.832745 -0.105124 0.5435851 0.8118071 -0.1370015 0.5676266 0.7861695 -0.1595402 0.5970632 0.757572 -0.1712077 0.629899 -0.7540966 6.87177e-7 -0.6567636 -0.7540961 -2.65504e-6 -0.6567642 -0.7540969 3.89215e-6 -0.6567633 -0.7540987 2.43255e-7 -0.6567612 -0.754096 0 -0.6567643 -0.7541018 0 -0.6567576 -0.7541149 5.83801e-6 -0.6567427 -0.7540935 -4.86514e-6 -0.6567672 -0.7540966 -3.89207e-6 -0.6567636 -0.7540898 2.58461e-6 -0.6567713 -0.7540967 0 -0.6567636 -0.7541049 0 -0.656754 -0.7540859 1.03386e-6 -0.6567759 -0.7540966 1.70278e-6 -0.6567636 -0.7540932 -3.89209e-6 -0.6567675 -0.7540948 -1.28102e-6 -0.6567656 -0.7540982 9.60757e-7 -0.6567618 -0.7540963 0 -0.6567639 -0.7540972 0 -0.6567629 -0.7540957 0 -0.6567646 -0.7540961 0 -0.6567641 -0.6686142 0.3674688 -0.6464688 -0.6072347 0.342426 -0.7169453 -0.5522017 0.2940478 -0.7801341 -0.5072676 0.2256309 -0.8317273 -0.4754948 0.1418377 -0.8682091 -0.4590485 0.04837781 -0.8870931 -0.4590482 -0.04837787 -0.8870933 -0.4754946 -0.1418377 -0.8682091 -0.5072671 -0.225631 -0.8317277 -0.5522021 -0.294048 -0.7801339 -0.6072345 -0.3424261 -0.7169454 -0.668614 -0.3674688 -0.6464689 -0.7321606 -0.3674688 -0.5735047 -0.7935408 -0.3424266 -0.503028 -0.8485735 -0.2940483 -0.4398396 -0.8935077 -0.2256306 -0.3882462 -0.9252805 -0.1418375 -0.3517645 -0.9417276 -0.04837799 -0.3328796 -0.9417276 0.04837793 -0.3328797 -0.9252805 0.1418375 -0.3517645 -0.8935077 0.2256305 -0.3882461 -0.8485732 0.2940484 -0.4398398 -0.7935418 0.342426 -0.5030269 -0.7321606 0.3674688 -0.5735046 -0.7279566 0.1712469 -0.6638929 -0.6993513 0.159577 -0.6967374 -0.6737062 0.1370316 -0.7261834 -0.6527657 0.1051479 -0.7502272 -0.6379584 0.0660991 -0.7672289 -0.6302936 0.02254539 -0.7760294 -0.6302943 -0.02254533 -0.7760289 -0.6379588 -0.06609898 -0.7672285 -0.6527647 -0.105148 -0.7502281 -0.6737053 -0.1370323 -0.7261841 -0.6993504 -0.159577 -0.6967383 -0.7279564 -0.1712471 -0.6638931 -0.7575699 -0.171247 -0.6298907 -0.7861735 -0.1595771 -0.5970481 -0.8118204 -0.1370317 -0.5676002 -0.8327602 -0.1051489 -0.5435571 -0.847567 -0.06609886 -0.5265561 -0.8552315 -0.02254509 -0.5177556 -0.8552318 0.02254515 -0.5177551 -0.8475676 0.06609869 -0.5265551 -0.83276 0.1051487 -0.5435573 -0.8118209 0.1370314 -0.5675995 -0.7861739 0.159577 -0.5970476 -0.7575694 0.1712473 -0.6298913 -0.7439279 0.08528637 -0.6627953 -0.7296794 0.07947605 -0.6791552 -0.7168999 0.06824946 -0.6938276 -0.7064826 0.05236321 -0.7057907 -0.6991148 0.03291517 -0.7142515 -0.6952953 0.01122909 -0.7186365 -0.6952988 -0.01122874 -0.7186331 -0.6991159 -0.03291511 -0.7142504 -0.706475 -0.05236858 -0.705798 -0.7169094 -0.06824833 -0.6938178 -0.7296798 -0.07946825 -0.6791555 -0.7439274 -0.08527904 -0.6627969 -0.7586796 -0.0852856 -0.6458572 -0.7729202 -0.07947438 -0.6295063 -0.7856938 -0.06824481 -0.6148398 -0.7961282 -0.05236488 -0.6028581 -0.8034951 -0.03291857 -0.5944005 -0.8073224 -0.01122832 -0.5900039 -0.807301 0.01122558 -0.5900332 -0.8034964 0.03291875 -0.5943987 -0.7961134 0.05236715 -0.6028774 -0.7856955 0.06824451 -0.6148378 -0.7729229 0.07947403 -0.6295031 -0.7586758 0.08528691 -0.6458616 0.7604187 -0.5667283 -0.3171474 0.1955435 0.9229897 0.3314406 0.509328 0.8600889 -0.02884674 -0.2895237 -0.35626 0.8884002 0.6475543 -0.7385761 -0.1875601 0.6475555 0.7385755 -0.1875582 -0.3308336 -0.121514 0.935833 0.5093295 -0.860088 -0.02884733 0.7604182 0.5667285 -0.3171484 -0.3308396 0.1215137 0.935831 0.3551542 -0.9229895 0.1481752 0.8402231 0.3562625 -0.4087814 -0.2895213 0.3562608 0.8884006 0.1955446 -0.9229886 0.3314431 0.8815329 0.1215136 -0.4562173 -0.209712 0.56673 0.7967672 0.04137074 -0.8600898 0.5084624 0.8815367 -0.1215133 -0.45621 -0.09685492 0.7385762 0.6671764 -0.09686541 -0.7385745 0.6671768 0.8402249 -0.3562594 -0.4087805 0.04137182 0.8600887 0.5084642 0.3551551 0.9229887 0.1481781 -0.209725 -0.5667287 0.7967647 -3.21468e-6 0 1 9.43805e-7 0 1 5.91827e-7 0 1 -5.91828e-7 0 1 0 0 -1 0 0 -1 -1.71391e-7 0 -1 0 0 -1 1.4964e-6 0 1 2.99296e-6 0 1 0.8882638 -0.3679316 0.2749798 0.8882637 0.3679316 0.2749799 5.98592e-6 0 1</float_array>
          <technique_common>
            <accessor source="#Cylinder_004-mesh-normals-array" count="431" stride="3">
              <param name="X" type="float"/>
              <param name="Y" type="float"/>
              <param name="Z" type="float"/>
            </accessor>
          </technique_common>
        </source>
        <source id="Cylinder_004-mesh-map-0">
          <float_array id="Cylinder_004-mesh-map-0-array" count="2904">0.4068787 0.4998194 0.3985404 0.4736794 0.4235545 0.4475396 0.4152167 0.5202457 0.4274339 0.5562044 0.4152167 0.5591156 0.4280806 0.514007 0.4274339 0.5562044 0.4218756 0.518659 0.4334091 0.5066068 0.4388185 0.5476693 0.4280806 0.514007 0.4334091 0.5066068 0.4560962 0.5163974 0.4485946 0.5340919 0.440068 0.4857315 0.4560962 0.5163974 0.4374977 0.4969624 0.4409446 0.4736793 0.4608119 0.4957918 0.440068 0.4857315 0.4409446 0.4736793 0.4608119 0.4515666 0.4624202 0.4736792 0.440068 0.4616269 0.4560962 0.430961 0.4608119 0.4515666 0.4334091 0.4407517 0.4560962 0.430961 0.4374977 0.450396 0.4334091 0.4407517 0.4388185 0.3996891 0.4485946 0.4132665 0.4218756 0.4286994 0.4388185 0.3996891 0.4280806 0.4333514 0.4152166 0.4271127 0.4274339 0.391154 0.4218756 0.4286994 0.4152166 0.4271127 0.4029995 0.391154 0.4152167 0.3882428 0.4023528 0.4333515 0.4029995 0.391154 0.4085578 0.4286994 0.3970243 0.4407517 0.3916149 0.3996891 0.4023528 0.4333515 0.3929356 0.450396 0.3818387 0.4132665 0.3970243 0.4407517 0.3929356 0.450396 0.3696215 0.4515666 0.3743372 0.430961 0.3894887 0.4736792 0.3696215 0.4515666 0.3903654 0.461627 0.3894887 0.4736792 0.3696215 0.4957918 0.3680131 0.4736792 0.3929356 0.4969624 0.3696215 0.4957918 0.3903654 0.4857315 0.3929356 0.4969624 0.3818387 0.5340919 0.3743372 0.5163974 0.3970244 0.5066069 0.3916149 0.5476693 0.3818387 0.5340919 0.4023527 0.514007 0.4029995 0.5562044 0.3916149 0.5476693 0.4152167 0.5202457 0.4029995 0.5562044 0.4085579 0.518659 0.4152167 0.4857832 0.4219073 0.518873 0.4152167 0.5204672 0.4169476 0.4853709 0.4281418 0.5141988 0.4219073 0.518873 0.4199454 0.4822381 0.4281418 0.5141988 0.4185605 0.4841617 0.4199454 0.4822381 0.4376038 0.4970732 0.4334957 0.5067634 0.4216762 0.476812 0.4376038 0.4970732 0.4210082 0.4797313 0.4219042 0.4736792 0.4401862 0.4857888 0.4216762 0.476812 0.4219042 0.4736792 0.4401863 0.4615696 0.441067 0.4736793 0.4216763 0.4705466 0.4376037 0.4502851 0.4401863 0.4615696 0.4199455 0.4651206 0.4376037 0.4502851 0.4210082 0.4676272 0.4199455 0.4651206 0.4281418 0.4331595 0.4334957 0.440595 0.4169475 0.4619876 0.4281418 0.4331595 0.4185603 0.4631968 0.4152167 0.4615752 0.4219073 0.4284854 0.4169475 0.4619876 0.4152167 0.4615752 0.4085262 0.4284854 0.4152166 0.4268912 0.4118729 0.4631968 0.4085262 0.4284854 0.4134857 0.4619876 0.4104881 0.4651205 0.4022916 0.4331597 0.4118729 0.4631968 0.4104881 0.4651205 0.3928296 0.4502853 0.3969377 0.440595 0.4087572 0.4705464 0.3928296 0.4502853 0.4094253 0.4676272 0.4087572 0.4705464 0.3893663 0.4736792 0.3902472 0.4615696 0.4087571 0.476812 0.3893663 0.4736792 0.4085293 0.4736793 0.4087571 0.476812 0.3928296 0.4970732 0.3902471 0.4857888 0.410488 0.4822381 0.3928296 0.4970732 0.4094253 0.4797313 0.410488 0.4822381 0.4022915 0.5141988 0.3969379 0.5067635 0.4134859 0.4853708 0.4022915 0.5141988 0.4118731 0.4841618 0.4152167 0.4857832 0.4085262 0.518873 0.4134859 0.4853708 0.4169394 0.4853156 0.4152167 0.4857259 0.4152167 0.4857259 0.4185446 0.484112 0.4169394 0.4853156 0.4169394 0.4853156 0.419923 0.4821975 0.4185446 0.484112 0.4185446 0.484112 0.4209808 0.4797026 0.419923 0.4821975 0.419923 0.4821975 0.4216457 0.4767972 0.4209808 0.4797026 0.4209808 0.4797026 0.4218725 0.4736792 0.4216457 0.4767972 0.4216457 0.4767972 0.4216458 0.4705615 0.4218725 0.4736792 0.4218725 0.4736792 0.4209808 0.4676558 0.4216458 0.4705615 0.4216458 0.4705615 0.4199231 0.4651611 0.4209808 0.4676558 0.4209808 0.4676558 0.4185445 0.4632465 0.4199231 0.4651611 0.4199231 0.4651611 0.4169393 0.462043 0.4185445 0.4632465 0.4185445 0.4632465 0.4152167 0.4616325 0.4169393 0.462043 0.4169393 0.462043 0.4134939 0.462043 0.4152167 0.4616325 0.4152167 0.4616325 0.4118888 0.4632465 0.4134939 0.462043 0.4134939 0.462043 0.4105105 0.465161 0.4118888 0.4632465 0.4118888 0.4632465 0.4094527 0.4676559 0.4105105 0.465161 0.4105105 0.465161 0.4087877 0.4705613 0.4094527 0.4676559 0.4094527 0.4676559 0.4085609 0.4736793 0.4087877 0.4705613 0.4087877 0.4705613 0.4087877 0.4767972 0.4085609 0.4736793 0.4085609 0.4736793 0.4094527 0.4797027 0.4087877 0.4767972 0.4087877 0.4767972 0.4105103 0.4821976 0.4094527 0.4797027 0.4094527 0.4797027 0.4118889 0.4841122 0.4105103 0.4821976 0.4105103 0.4821976 0.4134941 0.4853155 0.4118889 0.4841122 0.4118889 0.4841122 0.4152167 0.4857259 0.4134941 0.4853155 0.4134941 0.4853155 0.4152166 0.4434957 0.4007747 0.4585876 0.4152167 0.5038627 0.4152167 0.5202457 0.4274339 0.5562044 0.4218756 0.518659 0.4218756 0.518659 0.4388185 0.5476693 0.4280806 0.514007 0.4388185 0.5476693 0.4334091 0.5066068 0.4280806 0.514007 0.4334091 0.5066068 0.4560962 0.5163974 0.4374977 0.4969624 0.4560962 0.5163974 0.440068 0.4857315 0.4374977 0.4969624 0.440068 0.4857315 0.4624202 0.4736792 0.4409446 0.4736793 0.4624202 0.4736792 0.440068 0.4616269 0.4409446 0.4736793 0.440068 0.4616269 0.4560962 0.430961 0.4374977 0.450396 0.4560962 0.430961 0.4334091 0.4407517 0.4374977 0.450396 0.4334091 0.4407517 0.4388185 0.3996891 0.4280806 0.4333514 0.4388185 0.3996891 0.4218756 0.4286994 0.4280806 0.4333514 0.4274339 0.391154 0.4152166 0.4271127 0.4218756 0.4286994 0.4152167 0.3882428 0.4085578 0.4286994 0.4152166 0.4271127 0.4029995 0.391154 0.4023528 0.4333515 0.4085578 0.4286994 0.3916149 0.3996891 0.3970243 0.4407517 0.4023528 0.4333515 0.3970243 0.4407517 0.3743372 0.430961 0.3929356 0.450396 0.3743372 0.430961 0.3903654 0.461627 0.3929356 0.450396 0.3696215 0.4515666 0.3894887 0.4736792 0.3903654 0.461627 0.3894887 0.4736792 0.3696215 0.4957918 0.3903654 0.4857315 0.3903654 0.4857315 0.3743372 0.5163974 0.3929356 0.4969624 0.3743372 0.5163974 0.3970244 0.5066069 0.3929356 0.4969624 0.3970244 0.5066069 0.3916149 0.5476693 0.4023527 0.514007 0.3916149 0.5476693 0.4085579 0.518659 0.4023527 0.514007 0.4085579 0.518659 0.4152167 0.5591156 0.4152167 0.5202457 0.4152167 0.5204672 0.4169476 0.4853709 0.4152167 0.4857832 0.4219073 0.518873 0.4185605 0.4841617 0.4169476 0.4853709 0.4185605 0.4841617 0.4334957 0.5067634 0.4199454 0.4822381 0.4334957 0.5067634 0.4210082 0.4797313 0.4199454 0.4822381 0.4210082 0.4797313 0.4401862 0.4857888 0.4216762 0.476812 0.4401862 0.4857888 0.4219042 0.4736792 0.4216762 0.476812 0.4219042 0.4736792 0.4401863 0.4615696 0.4216763 0.4705466 0.4401863 0.4615696 0.4210082 0.4676272 0.4216763 0.4705466 0.4210082 0.4676272 0.4334957 0.440595 0.4199455 0.4651206 0.4199455 0.4651206 0.4281418 0.4331595 0.4185603 0.4631968 0.4281418 0.4331595 0.4169475 0.4619876 0.4185603 0.4631968 0.4169475 0.4619876 0.4152166 0.4268912 0.4152167 0.4615752 0.4152166 0.4268912 0.4134857 0.4619876 0.4152167 0.4615752 0.4134857 0.4619876 0.4022916 0.4331597 0.4118729 0.4631968 0.4022916 0.4331597 0.4104881 0.4651205 0.4118729 0.4631968 0.4104881 0.4651205 0.3928296 0.4502853 0.4094253 0.4676272 0.3928296 0.4502853 0.4087572 0.4705464 0.4094253 0.4676272 0.4087572 0.4705464 0.3893663 0.4736792 0.4085293 0.4736793 0.4085293 0.4736793 0.3902471 0.4857888 0.4087571 0.476812 0.4087571 0.476812 0.3928296 0.4970732 0.4094253 0.4797313 0.3928296 0.4970732 0.410488 0.4822381 0.4094253 0.4797313 0.410488 0.4822381 0.4022915 0.5141988 0.4118731 0.4841618 0.4022915 0.5141988 0.4134859 0.4853708 0.4118731 0.4841618 0.4134859 0.4853708 0.4152167 0.5204672 0.4152167 0.4857832 0.4152167 0.4857259 0.4169394 0.4853156 0.4169394 0.4853156 0.4169394 0.4853156 0.4185446 0.484112 0.4185446 0.484112 0.4185446 0.484112 0.419923 0.4821975 0.419923 0.4821975 0.419923 0.4821975 0.4209808 0.4797026 0.419923 0.4821975 0.4209808 0.4797026 0.4216457 0.4767972 0.4216457 0.4767972 0.4216457 0.4767972 0.4218725 0.4736792 0.4216457 0.4767972 0.4218725 0.4736792 0.4216458 0.4705615 0.4216458 0.4705615 0.4216458 0.4705615 0.4209808 0.4676558 0.4216458 0.4705615 0.4209808 0.4676558 0.4199231 0.4651611 0.4209808 0.4676558 0.4199231 0.4651611 0.4185445 0.4632465 0.4185445 0.4632465 0.4185445 0.4632465 0.4169393 0.462043 0.4169393 0.462043 0.4169393 0.462043 0.4152167 0.4616325 0.4152167 0.4616325 0.4152167 0.4616325 0.4134939 0.462043 0.4152167 0.4616325 0.4134939 0.462043 0.4118888 0.4632465 0.4118888 0.4632465 0.4118888 0.4632465 0.4105105 0.465161 0.4118888 0.4632465 0.4105105 0.465161 0.4094527 0.4676559 0.4094527 0.4676559 0.4094527 0.4676559 0.4087877 0.4705613 0.4094527 0.4676559 0.4087877 0.4705613 0.4085609 0.4736793 0.4085609 0.4736793 0.4085609 0.4736793 0.4087877 0.4767972 0.4085609 0.4736793 0.4087877 0.4767972 0.4094527 0.4797027 0.4087877 0.4767972 0.4094527 0.4797027 0.4105103 0.4821976 0.4094527 0.4797027 0.4105103 0.4821976 0.4118889 0.4841122 0.4118889 0.4841122 0.4118889 0.4841122 0.4134941 0.4853155 0.4118889 0.4841122 0.4134941 0.4853155 0.4152167 0.4857259 0.4152167 0.4857259 0.4560962 0.430961 0.4485946 0.4132665 0.4560962 0.430961 0.4029995 0.5562044 0.4152167 0.5591156 0.4029995 0.5562044 0.4274339 0.5562044 0.4388185 0.5476693 0.4274339 0.5562044 0.3696215 0.4515666 0.3743372 0.430961 0.3743372 0.430961 0.4388185 0.3996891 0.4485946 0.4132665 0.4485946 0.4132665 0.4388185 0.5476693 0.4485946 0.5340919 0.4388185 0.5476693 0.3680131 0.4736792 0.3696215 0.4515666 0.3696215 0.4515666 0.4274339 0.391154 0.4388185 0.3996891 0.4388185 0.3996891 0.4560962 0.5163974 0.4485946 0.5340919 0.4485946 0.5340919 0.3680131 0.4736792 0.3696215 0.4957918 0.3680131 0.4736792 0.4152167 0.3882428 0.4274339 0.391154 0.4274339 0.391154 0.4608119 0.4957918 0.4560962 0.5163974 0.4560962 0.5163974 0.3696215 0.4957918 0.3743372 0.5163974 0.3696215 0.4957918 0.4029995 0.391154 0.4152167 0.3882428 0.4152167 0.3882428 0.4608119 0.4957918 0.4624202 0.4736792 0.4608119 0.4957918 0.3818387 0.5340919 0.3743372 0.5163974 0.3743372 0.5163974 0.4029995 0.391154 0.3916149 0.3996891 0.4029995 0.391154 0.4608119 0.4515666 0.4624202 0.4736792 0.4624202 0.4736792 0.3916149 0.5476693 0.3818387 0.5340919 0.3818387 0.5340919 0.3916149 0.3996891 0.3818387 0.4132665 0.3916149 0.3996891 0.4608119 0.4515666 0.4560962 0.430961 0.4608119 0.4515666 0.4029995 0.5562044 0.3916149 0.5476693 0.3916149 0.5476693 0.4152167 0.5591156 0.4274339 0.5562044 0.4152167 0.5591156 0.3818387 0.4132665 0.3743372 0.430961 0.3818387 0.4132665 0.1226042 0.07920604 0.1286326 0.05009847 0.1431864 0.03804159 0.1431864 0.1295457 0.1609842 0.1148016 0.1683562 0.07920604 0.2528581 0.07920604 0.03351485 0.1396791 0.03351485 0.07920604 0.2528581 0.07920604 0.03351485 0.1396791 0.03351485 0.07920604 0.2528581 0.07920604 0.03351485 0.01873302 0.03351485 0.07920604 0.2528581 0.07920604 0.03351485 0.1396791 0.2528581 0.1083137 0.2528581 0.07920604 0.03351485 0.1396791 0.2528581 0.1083137 0.2528581 0.07920604 0.03351485 0.01873302 0.2528581 0.05009847 0.2528581 0.07920604 0.03351485 0.01873302 0.2528581 0.05009847 0.2528581 0.07920604 0.03351485 0.01873302 0.03351485 0.07920604 0.7207317 0.7621061 0.7066283 0.8154805 0.692525 0.7621061 0.6966558 0.7309569 0.7066283 0.7621061 0.7066283 0.7309569 0.6966558 0.7309569 0.7066283 0.8154805 0.7066283 0.7309569 0.7166008 0.7309569 0.7066283 0.7621061 0.7066283 0.7309569 0.7166008 0.7309569 0.7066283 0.7621061 0.7066283 0.7309569 0.7066283 0.7309569 0.7166008 0.8154805 0.7166008 0.7309569 0.6966558 0.7309569 0.7066283 0.7621061 0.6966558 0.8154805 0.7066283 0.7309569 0.6966558 0.7621061 0.6966558 0.7309569 0.7066283 0.7309569 0.7166008 0.7621061 0.7166008 0.7309569 0.07556152 0.1170919 0.09454977 0.1328223 0.09454977 0.1328223 0.4628128 0.08845835 0.4241053 0.00826776 0.4241053 0.08845835 0.4241053 0.08845835 0.3853978 0.00826776 0.3853978 0.08845835 0.4241053 0.08845835 0.3853978 0.00826776 0.3853978 0.08845835 0.4241053 0.08845835 0.4628128 0.00826776 0.4628128 0.08845835 0.4241053 0.08845835 0.4628128 0.00826776 0.4628128 0.08845835 0.4628128 0.08845835 0.4241053 0.00826776 0.4241053 0.08845835 0.3853978 0.08845835 0.4241053 0.00826776 0.4241053 0.08845835 0.3853978 0.08845835 0.4241053 0.00826776 0.4241053 0.08845835 0.09454977 0.1328223 0.1148287 0.1196731 0.09454977 0.1364728 0.1214032 0.07911545 0.1148287 0.1196731 0.113538 0.1170919 0.1214032 0.07911545 0.1148287 0.0385577 0.1232284 0.07911545 0.09454977 0.02540856 0.1148287 0.0385577 0.113538 0.04113894 0.09454977 0.02540856 0.0742709 0.0385577 0.09454977 0.02175807 0.06769633 0.07911545 0.0742709 0.0385577 0.07556152 0.04113894 0.06769633 0.07911545 0.0742709 0.1196731 0.06587111 0.07911545 0.09454977 0.1328223 0.0742709 0.1196731 0.07556152 0.1170919 0.06769633 0.07911545 0.09454977 0.02540856 0.1214032 0.07911545 0.07556152 0.04113894 0.06769633 0.07911545 0.06769633 0.07911545 0.113538 0.04113894 0.09454977 0.02540856 0.09454977 0.02540856 0.113538 0.1170919 0.1214032 0.07911545 0.1214032 0.07911545 0.06769633 0.07911545 0.07556152 0.1170919 0.07556152 0.1170919 0.09454977 0.02540856 0.07556152 0.04113894 0.07556152 0.04113894 0.1214032 0.07911545 0.113538 0.04113894 0.113538 0.04113894 0.09454977 0.1328223 0.113538 0.1170919 0.113538 0.1170919 0.4235549 0.499819 0.419533 0.5028345 0.4152167 0.5038627 0.4152167 0.5038627 0.4109005 0.5028343 0.4068787 0.4998194 0.4068787 0.4998194 0.4034247 0.4950223 0.4007747 0.4887712 0.4007747 0.4887712 0.3991085 0.4814913 0.3985404 0.4736794 0.3985404 0.4736794 0.3991087 0.4658671 0.4007747 0.4585876 0.4007747 0.4585876 0.403425 0.4523365 0.4068784 0.4475396 0.4068784 0.4475396 0.4109001 0.4445241 0.4152166 0.4434957 0.4152166 0.4434957 0.4195327 0.4445241 0.4068784 0.4475396 0.4195327 0.4445241 0.4235545 0.4475396 0.4068784 0.4475396 0.4235545 0.4475396 0.4270088 0.4523366 0.4296588 0.4585874 0.4296588 0.4585874 0.431325 0.4658675 0.431893 0.4736791 0.431893 0.4736791 0.4313247 0.4814914 0.4296588 0.4887711 0.4296588 0.4887711 0.4270085 0.4950221 0.4235549 0.499819 0.4235549 0.499819 0.4152167 0.5038627 0.4068787 0.4998194 0.4068787 0.4998194 0.4007747 0.4887712 0.3985404 0.4736794 0.3985404 0.4736794 0.4007747 0.4585876 0.4235545 0.4475396 0.4007747 0.4585876 0.4068784 0.4475396 0.4235545 0.4475396 0.4235545 0.4475396 0.4296588 0.4585874 0.431893 0.4736791 0.431893 0.4736791 0.4296588 0.4887711 0.4235545 0.4475396 0.4296588 0.4887711 0.4235549 0.499819 0.4235545 0.4475396 0.4235549 0.499819 0.4068787 0.4998194 0.4235545 0.4475396 0.4152167 0.5202457 0.4218756 0.518659 0.4274339 0.5562044 0.4280806 0.514007 0.4388185 0.5476693 0.4274339 0.5562044 0.4334091 0.5066068 0.4485946 0.5340919 0.4388185 0.5476693 0.4334091 0.5066068 0.4374977 0.4969624 0.4560962 0.5163974 0.440068 0.4857315 0.4608119 0.4957918 0.4560962 0.5163974 0.4409446 0.4736793 0.4624202 0.4736792 0.4608119 0.4957918 0.4409446 0.4736793 0.440068 0.4616269 0.4608119 0.4515666 0.440068 0.4616269 0.4374977 0.450396 0.4560962 0.430961 0.4334091 0.4407517 0.4485946 0.4132665 0.4560962 0.430961 0.4334091 0.4407517 0.4280806 0.4333514 0.4388185 0.3996891 0.4218756 0.4286994 0.4274339 0.391154 0.4388185 0.3996891 0.4152166 0.4271127 0.4152167 0.3882428 0.4274339 0.391154 0.4152166 0.4271127 0.4085578 0.4286994 0.4029995 0.391154 0.4023528 0.4333515 0.3916149 0.3996891 0.4029995 0.391154 0.3970243 0.4407517 0.3818387 0.4132665 0.3916149 0.3996891 0.3929356 0.450396 0.3743372 0.430961 0.3818387 0.4132665 0.3929356 0.450396 0.3903654 0.461627 0.3696215 0.4515666 0.3894887 0.4736792 0.3680131 0.4736792 0.3696215 0.4515666 0.3894887 0.4736792 0.3903654 0.4857315 0.3696215 0.4957918 0.3929356 0.4969624 0.3743372 0.5163974 0.3696215 0.4957918 0.3929356 0.4969624 0.3970244 0.5066069 0.3818387 0.5340919 0.3970244 0.5066069 0.4023527 0.514007 0.3916149 0.5476693 0.4023527 0.514007 0.4085579 0.518659 0.4029995 0.5562044 0.4152167 0.5202457 0.4152167 0.5591156 0.4029995 0.5562044 0.4152167 0.4857832 0.4169476 0.4853709 0.4219073 0.518873 0.4169476 0.4853709 0.4185605 0.4841617 0.4281418 0.5141988 0.4199454 0.4822381 0.4334957 0.5067634 0.4281418 0.5141988 0.4199454 0.4822381 0.4210082 0.4797313 0.4376038 0.4970732 0.4216762 0.476812 0.4401862 0.4857888 0.4376038 0.4970732 0.4219042 0.4736792 0.441067 0.4736793 0.4401862 0.4857888 0.4219042 0.4736792 0.4216763 0.4705466 0.4401863 0.4615696 0.4216763 0.4705466 0.4210082 0.4676272 0.4376037 0.4502851 0.4199455 0.4651206 0.4334957 0.440595 0.4376037 0.4502851 0.4199455 0.4651206 0.4185603 0.4631968 0.4281418 0.4331595 0.4169475 0.4619876 0.4219073 0.4284854 0.4281418 0.4331595 0.4152167 0.4615752 0.4152166 0.4268912 0.4219073 0.4284854 0.4152167 0.4615752 0.4134857 0.4619876 0.4085262 0.4284854 0.4118729 0.4631968 0.4022916 0.4331597 0.4085262 0.4284854 0.4104881 0.4651205 0.3969377 0.440595 0.4022916 0.4331597 0.4104881 0.4651205 0.4094253 0.4676272 0.3928296 0.4502853 0.4087572 0.4705464 0.3902472 0.4615696 0.3928296 0.4502853 0.4087572 0.4705464 0.4085293 0.4736793 0.3893663 0.4736792 0.4087571 0.476812 0.3902471 0.4857888 0.3893663 0.4736792 0.4087571 0.476812 0.4094253 0.4797313 0.3928296 0.4970732 0.410488 0.4822381 0.3969379 0.5067635 0.3928296 0.4970732 0.410488 0.4822381 0.4118731 0.4841618 0.4022915 0.5141988 0.4134859 0.4853708 0.4085262 0.518873 0.4022915 0.5141988 0.4152167 0.4857832 0.4152167 0.5204672 0.4085262 0.518873 0.4169394 0.4853156 0.4169394 0.4853156 0.4152167 0.4857259 0.4185446 0.484112 0.4185446 0.484112 0.4169394 0.4853156 0.419923 0.4821975 0.419923 0.4821975 0.4185446 0.484112 0.4209808 0.4797026 0.4209808 0.4797026 0.419923 0.4821975 0.4216457 0.4767972 0.4216457 0.4767972 0.4209808 0.4797026 0.4218725 0.4736792 0.4218725 0.4736792 0.4216457 0.4767972 0.4216458 0.4705615 0.4216458 0.4705615 0.4218725 0.4736792 0.4209808 0.4676558 0.4209808 0.4676558 0.4216458 0.4705615 0.4199231 0.4651611 0.4199231 0.4651611 0.4209808 0.4676558 0.4185445 0.4632465 0.4185445 0.4632465 0.4199231 0.4651611 0.4169393 0.462043 0.4169393 0.462043 0.4185445 0.4632465 0.4152167 0.4616325 0.4152167 0.4616325 0.4169393 0.462043 0.4134939 0.462043 0.4134939 0.462043 0.4152167 0.4616325 0.4118888 0.4632465 0.4118888 0.4632465 0.4134939 0.462043 0.4105105 0.465161 0.4105105 0.465161 0.4118888 0.4632465 0.4094527 0.4676559 0.4094527 0.4676559 0.4105105 0.465161 0.4087877 0.4705613 0.4087877 0.4705613 0.4094527 0.4676559 0.4085609 0.4736793 0.4085609 0.4736793 0.4087877 0.4705613 0.4087877 0.4767972 0.4087877 0.4767972 0.4085609 0.4736793 0.4094527 0.4797027 0.4094527 0.4797027 0.4087877 0.4767972 0.4105103 0.4821976 0.4105103 0.4821976 0.4094527 0.4797027 0.4118889 0.4841122 0.4118889 0.4841122 0.4105103 0.4821976 0.4134941 0.4853155 0.4134941 0.4853155 0.4118889 0.4841122 0.4152167 0.4857259 0.4152167 0.4857259 0.4134941 0.4853155 0.4152167 0.5038627 0.419533 0.5028345 0.4296588 0.4887711 0.419533 0.5028345 0.4235549 0.499819 0.4296588 0.4887711 0.4235549 0.499819 0.4270085 0.4950221 0.4296588 0.4887711 0.4296588 0.4887711 0.4313247 0.4814914 0.431893 0.4736791 0.431893 0.4736791 0.431325 0.4658675 0.4296588 0.4887711 0.431325 0.4658675 0.4296588 0.4585874 0.4296588 0.4887711 0.4296588 0.4585874 0.4270088 0.4523366 0.4235545 0.4475396 0.4235545 0.4475396 0.4195327 0.4445241 0.4152166 0.4434957 0.4152166 0.4434957 0.4109001 0.4445241 0.4068784 0.4475396 0.4068784 0.4475396 0.403425 0.4523365 0.4007747 0.4585876 0.4007747 0.4585876 0.3991087 0.4658671 0.4007747 0.4887712 0.3991087 0.4658671 0.3985404 0.4736794 0.4007747 0.4887712 0.3985404 0.4736794 0.3991085 0.4814913 0.4007747 0.4887712 0.4007747 0.4887712 0.4034247 0.4950223 0.4068787 0.4998194 0.4068787 0.4998194 0.4109005 0.5028343 0.4152167 0.5038627 0.4296588 0.4585874 0.4235545 0.4475396 0.4152166 0.4434957 0.4152166 0.4434957 0.4068784 0.4475396 0.4007747 0.4585876 0.4007747 0.4887712 0.4068787 0.4998194 0.4007747 0.4585876 0.4068787 0.4998194 0.4152167 0.5038627 0.4007747 0.4585876 0.4152167 0.5038627 0.4296588 0.4887711 0.4296588 0.4585874 0.4296588 0.4585874 0.4152166 0.4434957 0.4152167 0.5038627 0.4152167 0.5202457 0.4152167 0.5591156 0.4274339 0.5562044 0.4218756 0.518659 0.4274339 0.5562044 0.4388185 0.5476693 0.4388185 0.5476693 0.4485946 0.5340919 0.4334091 0.5066068 0.4334091 0.5066068 0.4485946 0.5340919 0.4560962 0.5163974 0.4560962 0.5163974 0.4608119 0.4957918 0.440068 0.4857315 0.440068 0.4857315 0.4608119 0.4957918 0.4624202 0.4736792 0.4624202 0.4736792 0.4608119 0.4515666 0.440068 0.4616269 0.440068 0.4616269 0.4608119 0.4515666 0.4560962 0.430961 0.4560962 0.430961 0.4485946 0.4132665 0.4334091 0.4407517 0.4334091 0.4407517 0.4485946 0.4132665 0.4388185 0.3996891 0.4388185 0.3996891 0.4274339 0.391154 0.4218756 0.4286994 0.4274339 0.391154 0.4152167 0.3882428 0.4152166 0.4271127 0.4152167 0.3882428 0.4029995 0.391154 0.4085578 0.4286994 0.4029995 0.391154 0.3916149 0.3996891 0.4023528 0.4333515 0.3916149 0.3996891 0.3818387 0.4132665 0.3970243 0.4407517 0.3970243 0.4407517 0.3818387 0.4132665 0.3743372 0.430961 0.3743372 0.430961 0.3696215 0.4515666 0.3903654 0.461627 0.3696215 0.4515666 0.3680131 0.4736792 0.3894887 0.4736792 0.3894887 0.4736792 0.3680131 0.4736792 0.3696215 0.4957918 0.3903654 0.4857315 0.3696215 0.4957918 0.3743372 0.5163974 0.3743372 0.5163974 0.3818387 0.5340919 0.3970244 0.5066069 0.3970244 0.5066069 0.3818387 0.5340919 0.3916149 0.5476693 0.3916149 0.5476693 0.4029995 0.5562044 0.4085579 0.518659 0.4085579 0.518659 0.4029995 0.5562044 0.4152167 0.5591156 0.4152167 0.5204672 0.4219073 0.518873 0.4169476 0.4853709 0.4219073 0.518873 0.4281418 0.5141988 0.4185605 0.4841617 0.4185605 0.4841617 0.4281418 0.5141988 0.4334957 0.5067634 0.4334957 0.5067634 0.4376038 0.4970732 0.4210082 0.4797313 0.4210082 0.4797313 0.4376038 0.4970732 0.4401862 0.4857888 0.4401862 0.4857888 0.441067 0.4736793 0.4219042 0.4736792 0.4219042 0.4736792 0.441067 0.4736793 0.4401863 0.4615696 0.4401863 0.4615696 0.4376037 0.4502851 0.4210082 0.4676272 0.4210082 0.4676272 0.4376037 0.4502851 0.4334957 0.440595 0.4199455 0.4651206 0.4334957 0.440595 0.4281418 0.4331595 0.4281418 0.4331595 0.4219073 0.4284854 0.4169475 0.4619876 0.4169475 0.4619876 0.4219073 0.4284854 0.4152166 0.4268912 0.4152166 0.4268912 0.4085262 0.4284854 0.4134857 0.4619876 0.4134857 0.4619876 0.4085262 0.4284854 0.4022916 0.4331597 0.4022916 0.4331597 0.3969377 0.440595 0.4104881 0.4651205 0.4104881 0.4651205 0.3969377 0.440595 0.3928296 0.4502853 0.3928296 0.4502853 0.3902472 0.4615696 0.4087572 0.4705464 0.4087572 0.4705464 0.3902472 0.4615696 0.3893663 0.4736792 0.4085293 0.4736793 0.3893663 0.4736792 0.3902471 0.4857888 0.4087571 0.476812 0.3902471 0.4857888 0.3928296 0.4970732 0.3928296 0.4970732 0.3969379 0.5067635 0.410488 0.4822381 0.410488 0.4822381 0.3969379 0.5067635 0.4022915 0.5141988 0.4022915 0.5141988 0.4085262 0.518873 0.4134859 0.4853708 0.4134859 0.4853708 0.4085262 0.518873 0.4152167 0.5204672 0.4152167 0.4857259 0.4152167 0.4857259 0.4169394 0.4853156 0.4169394 0.4853156 0.4169394 0.4853156 0.4185446 0.484112 0.4185446 0.484112 0.4185446 0.484112 0.419923 0.4821975 0.419923 0.4821975 0.4209808 0.4797026 0.4209808 0.4797026 0.4209808 0.4797026 0.4209808 0.4797026 0.4216457 0.4767972 0.4216457 0.4767972 0.4218725 0.4736792 0.4218725 0.4736792 0.4218725 0.4736792 0.4218725 0.4736792 0.4216458 0.4705615 0.4216458 0.4705615 0.4209808 0.4676558 0.4209808 0.4676558 0.4209808 0.4676558 0.4199231 0.4651611 0.4199231 0.4651611 0.4199231 0.4651611 0.4199231 0.4651611 0.4185445 0.4632465 0.4185445 0.4632465 0.4185445 0.4632465 0.4169393 0.462043 0.4169393 0.462043 0.4169393 0.462043 0.4152167 0.4616325 0.4152167 0.4616325 0.4134939 0.462043 0.4134939 0.462043 0.4134939 0.462043 0.4134939 0.462043 0.4118888 0.4632465 0.4118888 0.4632465 0.4105105 0.465161 0.4105105 0.465161 0.4105105 0.465161 0.4105105 0.465161 0.4094527 0.4676559 0.4094527 0.4676559 0.4087877 0.4705613 0.4087877 0.4705613 0.4087877 0.4705613 0.4087877 0.4705613 0.4085609 0.4736793 0.4085609 0.4736793 0.4087877 0.4767972 0.4087877 0.4767972 0.4087877 0.4767972 0.4094527 0.4797027 0.4094527 0.4797027 0.4094527 0.4797027 0.4105103 0.4821976 0.4105103 0.4821976 0.4105103 0.4821976 0.4105103 0.4821976 0.4118889 0.4841122 0.4118889 0.4841122 0.4134941 0.4853155 0.4134941 0.4853155 0.4134941 0.4853155 0.4134941 0.4853155 0.4152167 0.4857259 0.4560962 0.430961 0.4485946 0.4132665 0.4485946 0.4132665 0.4029995 0.5562044 0.4152167 0.5591156 0.4152167 0.5591156 0.4274339 0.5562044 0.4388185 0.5476693 0.4388185 0.5476693 0.3696215 0.4515666 0.3696215 0.4515666 0.3743372 0.430961 0.4388185 0.3996891 0.4388185 0.3996891 0.4485946 0.4132665 0.4388185 0.5476693 0.4485946 0.5340919 0.4485946 0.5340919 0.3680131 0.4736792 0.3680131 0.4736792 0.3696215 0.4515666 0.4274339 0.391154 0.4274339 0.391154 0.4388185 0.3996891 0.4560962 0.5163974 0.4560962 0.5163974 0.4485946 0.5340919 0.3680131 0.4736792 0.3696215 0.4957918 0.3696215 0.4957918 0.4152167 0.3882428 0.4152167 0.3882428 0.4274339 0.391154 0.4608119 0.4957918 0.4608119 0.4957918 0.4560962 0.5163974 0.3696215 0.4957918 0.3743372 0.5163974 0.3743372 0.5163974 0.4029995 0.391154 0.4029995 0.391154 0.4152167 0.3882428 0.4608119 0.4957918 0.4624202 0.4736792 0.4624202 0.4736792 0.3818387 0.5340919 0.3818387 0.5340919 0.3743372 0.5163974 0.4029995 0.391154 0.3916149 0.3996891 0.3916149 0.3996891 0.4608119 0.4515666 0.4608119 0.4515666 0.4624202 0.4736792 0.3916149 0.5476693 0.3916149 0.5476693 0.3818387 0.5340919 0.3916149 0.3996891 0.3818387 0.4132665 0.3818387 0.4132665 0.4608119 0.4515666 0.4560962 0.430961 0.4560962 0.430961 0.4029995 0.5562044 0.4029995 0.5562044 0.3916149 0.5476693 0.4152167 0.5591156 0.4274339 0.5562044 0.4274339 0.5562044 0.3818387 0.4132665 0.3743372 0.430961 0.3743372 0.430961 0.1431864 0.03804159 0.1577402 0.05009847 0.1637687 0.07920604 0.1637687 0.07920604 0.1577403 0.1083137 0.1431864 0.03804159 0.1577403 0.1083137 0.1431864 0.1203705 0.1431864 0.03804159 0.1431864 0.1203705 0.1286326 0.1083137 0.1431864 0.03804159 0.1286326 0.1083137 0.1226042 0.07920604 0.1431864 0.03804159 0.1683562 0.07920604 0.1609842 0.04361051 0.1180166 0.07920604 0.1609842 0.04361051 0.1431864 0.02886635 0.1180166 0.07920604 0.1431864 0.02886635 0.1253886 0.04361051 0.1180166 0.07920604 0.1180166 0.07920604 0.1253886 0.1148016 0.1683562 0.07920604 0.1253886 0.1148016 0.1431864 0.1295457 0.1683562 0.07920604 0.2528581 0.07920604 0.2528581 0.1083137 0.03351485 0.1396791 0.2528581 0.07920604 0.2528581 0.1083137 0.03351485 0.1396791 0.2528581 0.07920604 0.2528581 0.05009847 0.03351485 0.01873302 0.2528581 0.07920604 0.03351485 0.07920604 0.03351485 0.1396791 0.2528581 0.07920604 0.03351485 0.07920604 0.03351485 0.1396791 0.2528581 0.07920604 0.03351485 0.07920604 0.03351485 0.01873302 0.2528581 0.07920604 0.03351485 0.07920604 0.03351485 0.01873302 0.2528581 0.07920604 0.2528581 0.05009847 0.03351485 0.01873302 0.7066283 0.7621061 0.7166008 0.7621061 0.7207317 0.7621061 0.7207317 0.7621061 0.7166008 0.8154805 0.7066283 0.8154805 0.7066283 0.8154805 0.6966558 0.8154805 0.692525 0.7621061 0.692525 0.7621061 0.6966558 0.7621061 0.7066283 0.7621061 0.7066283 0.7621061 0.7207317 0.7621061 0.692525 0.7621061 0.6966558 0.7309569 0.6966558 0.8154805 0.7066283 0.7621061 0.6966558 0.7309569 0.6966558 0.8154805 0.7066283 0.8154805 0.7166008 0.7309569 0.7166008 0.7621061 0.7066283 0.7621061 0.7166008 0.7309569 0.7166008 0.7621061 0.7066283 0.7621061 0.7066283 0.7309569 0.7066283 0.8154805 0.7166008 0.8154805 0.6966558 0.7309569 0.7066283 0.7309569 0.7066283 0.7621061 0.7066283 0.7309569 0.7066283 0.7621061 0.6966558 0.7621061 0.7066283 0.7309569 0.7066283 0.7621061 0.7166008 0.7621061 0.07556152 0.1170919 0.07556152 0.1170919 0.09454977 0.1328223 0.4628128 0.08845835 0.4628128 0.00826776 0.4241053 0.00826776 0.4241053 0.08845835 0.4241053 0.00826776 0.3853978 0.00826776 0.4241053 0.08845835 0.4241053 0.00826776 0.3853978 0.00826776 0.4241053 0.08845835 0.4241053 0.00826776 0.4628128 0.00826776 0.4241053 0.08845835 0.4241053 0.00826776 0.4628128 0.00826776 0.4628128 0.08845835 0.4628128 0.00826776 0.4241053 0.00826776 0.3853978 0.08845835 0.3853978 0.00826776 0.4241053 0.00826776 0.3853978 0.08845835 0.3853978 0.00826776 0.4241053 0.00826776 0.09454977 0.1328223 0.113538 0.1170919 0.1148287 0.1196731 0.1214032 0.07911545 0.1232284 0.07911545 0.1148287 0.1196731 0.1214032 0.07911545 0.113538 0.04113894 0.1148287 0.0385577 0.09454977 0.02540856 0.09454977 0.02175807 0.1148287 0.0385577 0.09454977 0.02540856 0.07556152 0.04113894 0.0742709 0.0385577 0.06769633 0.07911545 0.06587111 0.07911545 0.0742709 0.0385577 0.06769633 0.07911545 0.07556152 0.1170919 0.0742709 0.1196731 0.09454977 0.1328223 0.09454977 0.1364728 0.0742709 0.1196731 0.1214032 0.07911545 0.113538 0.1170919 0.09454977 0.1328223 0.09454977 0.1328223 0.07556152 0.1170919 0.06769633 0.07911545 0.06769633 0.07911545 0.07556152 0.04113894 0.09454977 0.02540856 0.09454977 0.02540856 0.113538 0.04113894 0.1214032 0.07911545 0.1214032 0.07911545 0.09454977 0.1328223 0.06769633 0.07911545 0.07556152 0.04113894 0.07556152 0.04113894 0.06769633 0.07911545 0.113538 0.04113894 0.113538 0.04113894 0.09454977 0.02540856 0.113538 0.1170919 0.113538 0.1170919 0.1214032 0.07911545 0.06769633 0.07911545 0.06769633 0.07911545 0.07556152 0.1170919 0.09454977 0.02540856 0.09454977 0.02540856 0.07556152 0.04113894 0.1214032 0.07911545 0.1214032 0.07911545 0.113538 0.04113894 0.09454977 0.1328223 0.09454977 0.1328223 0.113538 0.1170919</float_array>
          <technique_common>
            <accessor source="#Cylinder_004-mesh-map-0-array" count="1452" stride="2">
              <param name="S" type="float"/>
              <param name="T" type="float"/>
            </accessor>
          </technique_common>
        </source>
        <source id="Cylinder_004-mesh-map-1">
          <float_array id="Cylinder_004-mesh-map-1-array" count="2904">0 0 0 0 0 0 0 0 0 0 0 0 0 0 0 0 0 0 0 0 0 0 0 0 0 0 0 0 0 0 0 0 0 0 0 0 0 0 0 0 0 0 0 0 0 0 0 0 0 0 0 0 0 0 0 0 0 0 0 0 0 0 0 0 0 0 0 0 0 0 0 0 0 0 0 0 0 0 0 0 0 0 0 0 0 0 0 0 0 0 0 0 0 0 0 0 0 0 0 0 0 0 0 0 0 0 0 0 0 0 0 0 0 0 0 0 0 0 0 0 0 0 0 0 0 0 0 0 0 0 0 0 0 0 0 0 0 0 0 0 0 0 0 0 0 0 0 0 0 0 0 0 0 0 0 0 0 0 0 0 0 0 0 0 0 0 0 0 0 0 0 0 0 0 0 0 0 0 0 0 0 0 0 0 0 0 0 0 0 0 0 0 0 0 0 0 0 0 0 0 0 0 0 0 0 0 0 0 0 0 0 0 0 0 0 0 0 0 0 0 0 0 0 0 0 0 0 0 0 0 0 0 0 0 0 0 0 0 0 0 0 0 0 0 0 0 0 0 0 0 0 0 0 0 0 0 0 0 0 0 0 0 0 0 0 0 0 0 0 0 0 0 0 0 0 0 0 0 0 0 0 0 0 0 0 0 0 0 0 0 0 0 0 0 0 0 0 0 0 0 0 0 0 0 0 0 0 0 0 0 0 0 0 0 0 0 0 0 0 0 0 0 0 0 0 0 0 0 0 0 0 0 0 0 0 0 0 0 0 0 0 0 0 0 0 0 0 0 0 0 0 0 0 0 0 0 0 0 0 0 0 0 0 0 0 0 0 0 0 0 0 0 0 0 0 0 0 0 0 0 0 0 0 0 0 0 0 0 0 0 0 0 0 0 0 0 0 0 0 0 0 0 0 0 0 0 0 0 0 0 0 0 0 0 0 0 0 0 0 0 0 0 0 0 0 0 0 0 0 0 0 0 0 0 0 0 0 0 0 0 0 0 0 0 0 0 0 0 0 0 0 0 0 0 0 0 0 0 0 0 0 0 0 0 0 0 0 0 0 0 0 0 0 0 0 0 0 0 0 0 0 0 0 0 0 0 0 0 0 0 0 0 0 0 0 0 0 0 0 0 0 0 0 0 0 0 0 0 0 0 0 0 0 0 0 0 0 0 0 0 0 0 0 0 0 0 0 0 0 0 0 0 0 0 0 0 0 0 0 0 0 0 0 0 0 0 0 0 0 0 0 0 0 0 0 0 0 0 0 0 0 0 0 0 0 0 0 0 0 0 0 0 0 0 0 0 0 0 0 0 0 0 0 0 0 0 0 0 0 0 0 0 0 0 0 0 0 0 0 0 0 0 0 0 0 0 0 0 0 0 0 0 0 0 0 0 0 0 0 0 0 0 0 0 0 0 0 0 0 0 0 0 0 0 0 0 0 0 0 0 0 0 0 0 0 0 0 0 0 0 0 0 0 0 0 0 0 0 0 0 0 0 0 0 0 0 0 0 0 0 0 0 0 0 0 0 0 0 0 0 0 0 0 0 0 0 0 0 0 0 0 0 0 0 0 0 0 0 0 0 0 0 0 0 0 0 0 0 0 0 0 0 0 0 0 0 0 0 0 0 0 0 0 0 0 0 0 0 0 0 0 0 0 0 0 0 0 0 0 0 0 0 0 0 0 0 0 0 0 0 0 0 0 0 0 0 0 0 0 0 0 0 0 0 0 0 0 0 0 0 0 0 0 0 0 0 0 0 0 0 0 0 0 0 0 0 0 0 0 0 0 0 0 0 0 0 0 0 0 0 0 0 0 0 0 0 0 0 0 0 0 0 0 0 0 0 0 0 0 0 0 0 0 0 0 0 0 0 0 0 0 0 0 0 0 0 0 0 0 0 0 0 0 0 0 0 0 0 0 0 0 0 0 0 0 0 0 0 0 0 0 0 0 0 0 0 0 0 0 0 0 0 0 0 0 0 0 0 0 0 0 0 0 0 0 0 0 0 0 0 0 0 0 0 0 0 0 0 0 0 0 0 0 0 0 0 0 0 0 0 0 0 0 0 0 0 0 0 0 0 0 0 0 0 0 0 0 0 0 0 0 0 0 0 0 0 0 0 0 0 0 0 0 0 0 0 0 0 0 0 0 0 0 0 0 0 0 0 0 0 0 0 0 0 0 0 0 0 0 0 0 0 0 0 0 0 0 0 0 0 0 0 0 0 0 0 0 0 0 0 0 0 0 0 0 0 0 0 0 0 0 0 0 0 0 0 0 0 0 0 0 0 0 0 0 0 0 0 0 0 0.0859251 0.07877796 0.09763091 0.02225732 0.1258912 -0.001154184 0.1258912 0.1587101 0.1541515 0.1352986 0.1658573 0.07877796 0.0859251 0.07877796 0.09763091 0.1352986 0.0859251 0.07877796 0.1258912 -0.001154184 0.09763091 0.02225732 0.1258912 -0.001154184 0.1658573 0.07877796 0.1541515 0.02225732 0.1658573 0.07877796 0.1658573 0.07877796 0.1541515 0.1352986 0.1541515 0.1352986 0.1258912 0.1587101 0.09763091 0.1352986 0.09763091 0.1352986 0.0859251 0.07877796 0.09763091 0.02225732 0.09763091 0.02225732 0.1258912 -0.001154184 0.1541515 0.02225732 0.1541515 0.02225732 0.1258912 0.1587101 0.1541515 0.1352986 0.1258912 0.1587101 0.1658573 0.07877796 0.1258912 0.1587101 0.0859251 0.07877796 0.1541515 0.1352986 0.1658573 0.07877796 0.1658573 0.07877796 0.09763091 0.1352986 0.1258912 0.1587101 0.1258912 0.1587101 0.09763091 0.02225732 0.0859251 0.07877796 0.0859251 0.07877796 0.1541515 0.02225732 0.1258912 -0.001154184 0.1258912 -0.001154184 0.1258912 0.1587101 0.1541515 0.1352986 0.1541515 0.1352986 0.09763091 0.1352986 0.0859251 0.07877796 0.09763091 0.1352986 0.1258912 -0.001154184 0.09763091 0.02225732 0.09763091 0.02225732 0.1658573 0.07877796 0.1541515 0.02225732 0.1541515 0.02225732 0.1523529 0.1317014 0.1633137 0.07877796 0.1633137 0.07877796 0.1541515 0.02225732 0.1658573 0.07877796 0.1658573 0.07877796 0.1658573 0.07877796 0.1541515 0.1352986 0.1541515 0.1352986 0.1258912 0.1587101 0.09763091 0.1352986 0.09763091 0.1352986 0.0859251 0.07877796 0.09763091 0.02225732 0.09763091 0.02225732 0.1258912 -0.001154184 0.1541515 0.02225732 0.1541515 0.02225732 0.1541515 0.1352986 0.1258912 0.1587101 0.1258912 0.1587101 0.09763091 0.1352986 0.0859251 0.07877796 0.0859251 0.07877796 0.09763091 0.02225732 0.1258912 -0.001154184 0.1258912 -0.001154184 0.1633137 0.07877796 0.1541515 0.02225732 0.1658573 0.07877796 0.1258912 0.003933012 0.1541515 0.02225732 0.1523529 0.02585452 0.1258912 0.003933012 0.09763091 0.02225732 0.1258912 -0.001154184 0.08846873 0.07877796 0.09763091 0.02225732 0.09942948 0.02585452 0.08846873 0.07877796 0.09763091 0.1352986 0.0859251 0.07877796 0.1258912 0.1536229 0.09763091 0.1352986 0.09942954 0.1317014 0.1258912 0.1536229 0.1541515 0.1352986 0.1258912 0.1587101 0.1633137 0.07877796 0.1541515 0.1352986 0.1523529 0.1317014 0.1258912 0.1536229 0.08846873 0.07877796 0.1258912 0.003933012 0.09942954 0.1317014 0.1258912 0.1536229 0.1258912 0.1536229 0.09942948 0.02585452 0.08846873 0.07877796 0.08846873 0.07877796 0.1523529 0.02585452 0.1258912 0.003933012 0.1258912 0.003933012 0.1258912 0.1536229 0.1523529 0.1317014 0.1523529 0.1317014 0.08846873 0.07877796 0.09942954 0.1317014 0.09942954 0.1317014 0.1258912 0.003933012 0.09942948 0.02585452 0.09942948 0.02585452 0.1633137 0.07877796 0.1523529 0.02585452 0.1523529 0.02585452 0 0 0 0 0 0 0 0 0 0 0 0 0 0 0 0 0 0 0 0 0 0 0 0 0 0 0 0 0 0 0 0 0 0 0 0 0 0 0 0 0 0 0 0 0 0 0 0 0 0 0 0 0 0 0 0 0 0 0 0 0 0 0 0 0 0 0 0 0 0 0 0 0 0 0 0 0 0 0 0 0 0 0 0 0 0 0 0 0 0 0 0 0 0 0 0 0 0 0 0 0 0 0 0 0 0 0 0 0 0 0 0 0 0 0 0 0 0 0 0 0 0 0 0 0 0 0 0 0 0 0 0 0 0 0 0 0 0 0 0 0 0 0 0 0 0 0 0 0 0 0 0 0 0 0 0 0 0 0 0 0 0 0 0 0 0 0 0 0 0 0 0 0 0 0 0 0 0 0 0 0 0 0 0 0 0 0 0 0 0 0 0 0 0 0 0 0 0 0 0 0 0 0 0 0 0 0 0 0 0 0 0 0 0 0 0 0 0 0 0 0 0 0 0 0 0 0 0 0 0 0 0 0 0 0 0 0 0 0 0 0 0 0 0 0 0 0 0 0 0 0 0 0 0 0 0 0 0 0 0 0 0 0 0 0 0 0 0 0 0 0 0 0 0 0 0 0 0 0 0 0 0 0 0 0 0 0 0 0 0 0 0 0 0 0 0 0 0 0 0 0 0 0 0 0 0 0 0 0 0 0 0 0 0 0 0 0 0 0 0 0 0 0 0 0 0 0 0 0 0 0 0 0 0 0 0 0 0 0 0 0 0 0 0 0 0 0 0 0 0 0 0 0 0 0 0 0 0 0 0 0 0 0 0 0 0 0 0 0 0 0 0 0 0 0 0 0 0 0 0 0 0 0 0 0 0 0 0 0 0 0 0 0 0 0 0 0 0 0 0 0 0 0 0 0 0 0 0 0 0 0 0 0 0 0 0 0 0 0 0 0 0 0 0 0 0 0 0 0 0 0 0 0 0 0 0 0 0 0 0 0 0 0 0 0 0 0 0 0 0 0 0 0 0 0 0 0 0 0 0 0 0 0 0 0 0 0 0 0 0 0 0 0 0 0 0 0 0 0 0 0 0 0 0 0 0 0 0 0 0 0 0 0 0 0 0 0 0 0 0 0 0 0 0 0 0 0 0 0 0 0 0 0 0 0 0 0 0 0 0 0 0 0 0 0 0 0 0 0 0 0 0 0 0 0 0 0 0 0 0 0 0 0 0 0 0 0 0 0 0 0 0 0 0 0 0 0 0 0 0 0 0 0 0 0 0 0 0 0 0 0 0 0 0 0 0 0 0 0 0 0 0 0 0 0 0 0 0 0 0 0 0 0 0 0 0 0 0 0 0 0 0 0 0 0 0 0 0 0 0 0 0 0 0 0 0 0 0 0 0 0 0 0 0 0 0 0 0 0 0 0 0 0 0 0 0 0 0 0 0 0 0 0 0 0 0 0 0 0 0 0 0 0 0 0 0 0 0 0 0 0 0 0 0 0 0 0 0 0 0 0 0 0 0 0 0 0 0 0 0 0 0 0 0 0 0 0 0 0 0 0 0 0 0 0 0 0 0 0 0 0 0 0 0 0 0 0 0 0 0 0 0 0 0 0 0 0 0 0 0 0 0 0 0 0 0 0 0 0 0 0 0 0 0 0 0 0 0 0 0 0 0 0 0 0 0 0 0 0 0 0 0 0 0 0 0 0 0 0 0 0 0 0 0 0 0 0 0 0 0 0 0 0 0 0 0 0 0 0 0 0 0 0 0 0 0 0 0 0 0 0 0 0 0 0 0 0 0 0 0 0 0 0 0 0 0 0 0 0 0 0 0 0 0 0 0 0 0 0 0 0 0 0 0 0 0 0 0 0 0 0 0 0 0 0 0 0 0 0 0 0 0 0 0 0 0 0 0 0 0 0 0 0 0 0 0 0 0 0 0 0 0 0 0 0 0 0 0 0 0 0 0 0 0 0 0 0 0 0 0 0 0 0 0 0 0 0 0 0 0 0 0 0 0 0 0 0 0 0 0 0 0 0 0 0 0 0 0 0 0 0 0 0 0 0 0 0 0 0 0 0 0 0 0 0 0 0 0 0 0 0 0 0 0 0 0 0 0 0 0 0 0 0 0 0 0 0 0 0 0 0 0 0 0 0 0 0 0 0 0 0 0 0 0 0 0 0 0 0 0 0 0 0 0 0 0 0 0 0 0 0 0 0 0 0 0 0 0 0 0 0 0 0 0 0 0 0 0 0 0 0 0 0 0 0 0 0 0 0 0 0 0 0 0 0 0 0 0 0 0 0 0 0 0 0 0 0 0 0 0 0 0 0 0 0 0 0 0 0 0 0 0 0 0 0 0 0 0 0 0 0 0 0 0 0 0 0 0 0 0 0 0 0 0 0 0 0 0 0 0 0 0 0 0 0 0 0 0 0 0 0 0 0 0 0 0 0 0 0 0 0 0 0 0 0 0 0 0 0 0 0 0 0 0 0 0 0 0 0 0 0 0 0 0 0 0 0 0 0 0 0 0 0 0 0 0 0 0 0 0 0 0 0 0 0 0 0 0 0 0 0 0 0 0 0 0 0 0 0 0 0 0 0 0 0 0 0 0 0 0 0 0 0 0 0 0 0 0 0 0 0 0 0 0 0 0 0 0 0 0 0 0 0 0 0 0 0 0 0 0 0 0 0 0 0 0 0 0 0 0 0 0 0 0 0 0 0 0 0 0 0 0 0 0 0 0 0 0 0 0 0 0 0 0 0 0 0 0 0 0 0 0 0 0 0 0 0 0 0 0 0 0 0 0 0 0 0 0 0 0 0 0 0 0 0 0 0 0 0 0 0.1258912 -0.001154184 0.1541515 0.02225732 0.1658573 0.07877796 0.1658573 0.07877796 0.1541515 0.1352986 0.1258912 -0.001154184 0.1541515 0.1352986 0.1258912 0.1587101 0.1258912 -0.001154184 0.1258912 0.1587101 0.09763091 0.1352986 0.1258912 -0.001154184 0.09763091 0.1352986 0.0859251 0.07877796 0.1258912 -0.001154184 0.1658573 0.07877796 0.1541515 0.02225732 0.0859251 0.07877796 0.1541515 0.02225732 0.1258912 -0.001154184 0.0859251 0.07877796 0.1258912 -0.001154184 0.09763091 0.02225732 0.0859251 0.07877796 0.0859251 0.07877796 0.09763091 0.1352986 0.1658573 0.07877796 0.09763091 0.1352986 0.1258912 0.1587101 0.1658573 0.07877796 0.0859251 0.07877796 0.09763091 0.1352986 0.09763091 0.1352986 0.1258912 -0.001154184 0.09763091 0.02225732 0.09763091 0.02225732 0.1658573 0.07877796 0.1541515 0.02225732 0.1541515 0.02225732 0.1658573 0.07877796 0.1658573 0.07877796 0.1541515 0.1352986 0.1258912 0.1587101 0.1258912 0.1587101 0.09763091 0.1352986 0.0859251 0.07877796 0.0859251 0.07877796 0.09763091 0.02225732 0.1258912 -0.001154184 0.1258912 -0.001154184 0.1541515 0.02225732 0.1258912 0.1587101 0.1541515 0.1352986 0.1541515 0.1352986 0.1258912 -0.001154184 0.1541515 0.02225732 0.1658573 0.07877796 0.1658573 0.07877796 0.1541515 0.1352986 0.1258912 0.1587101 0.1258912 0.1587101 0.09763091 0.1352986 0.0859251 0.07877796 0.0859251 0.07877796 0.09763091 0.02225732 0.1258912 -0.001154184 0.1258912 -0.001154184 0.1658573 0.07877796 0.0859251 0.07877796 0.1541515 0.1352986 0.1541515 0.1352986 0.1658573 0.07877796 0.09763091 0.1352986 0.09763091 0.1352986 0.1258912 0.1587101 0.09763091 0.02225732 0.09763091 0.02225732 0.0859251 0.07877796 0.1541515 0.02225732 0.1541515 0.02225732 0.1258912 -0.001154184 0.1258912 0.1587101 0.1258912 0.1587101 0.1541515 0.1352986 0.09763091 0.1352986 0.0859251 0.07877796 0.0859251 0.07877796 0.1258912 -0.001154184 0.1258912 -0.001154184 0.09763091 0.02225732 0.1658573 0.07877796 0.1658573 0.07877796 0.1541515 0.02225732 0.1523529 0.1317014 0.1523529 0.1317014 0.1633137 0.07877796 0.1541515 0.02225732 0.1541515 0.02225732 0.1658573 0.07877796 0.1658573 0.07877796 0.1658573 0.07877796 0.1541515 0.1352986 0.1258912 0.1587101 0.1258912 0.1587101 0.09763091 0.1352986 0.0859251 0.07877796 0.0859251 0.07877796 0.09763091 0.02225732 0.1258912 -0.001154184 0.1258912 -0.001154184 0.1541515 0.02225732 0.1541515 0.1352986 0.1541515 0.1352986 0.1258912 0.1587101 0.09763091 0.1352986 0.09763091 0.1352986 0.0859251 0.07877796 0.09763091 0.02225732 0.09763091 0.02225732 0.1258912 -0.001154184 0.1633137 0.07877796 0.1523529 0.02585452 0.1541515 0.02225732 0.1258912 0.003933012 0.1258912 -0.001154184 0.1541515 0.02225732 0.1258912 0.003933012 0.09942948 0.02585452 0.09763091 0.02225732 0.08846873 0.07877796 0.0859251 0.07877796 0.09763091 0.02225732 0.08846873 0.07877796 0.09942954 0.1317014 0.09763091 0.1352986 0.1258912 0.1536229 0.1258912 0.1587101 0.09763091 0.1352986 0.1258912 0.1536229 0.1523529 0.1317014 0.1541515 0.1352986 0.1633137 0.07877796 0.1658573 0.07877796 0.1541515 0.1352986 0.1258912 0.003933012 0.1523529 0.02585452 0.1633137 0.07877796 0.1633137 0.07877796 0.1523529 0.1317014 0.1258912 0.1536229 0.1258912 0.1536229 0.09942954 0.1317014 0.08846873 0.07877796 0.08846873 0.07877796 0.09942948 0.02585452 0.1258912 0.003933012 0.1258912 0.003933012 0.1633137 0.07877796 0.1258912 0.1536229 0.09942954 0.1317014 0.09942954 0.1317014 0.1258912 0.1536229 0.09942948 0.02585452 0.09942948 0.02585452 0.08846873 0.07877796 0.1523529 0.02585452 0.1523529 0.02585452 0.1258912 0.003933012 0.1258912 0.1536229 0.1258912 0.1536229 0.1523529 0.1317014 0.08846873 0.07877796 0.08846873 0.07877796 0.09942954 0.1317014 0.1258912 0.003933012 0.1258912 0.003933012 0.09942948 0.02585452 0.1633137 0.07877796 0.1633137 0.07877796 0.1523529 0.02585452</float_array>
          <technique_common>
            <accessor source="#Cylinder_004-mesh-map-1-array" count="1452" stride="2">
              <param name="S" type="float"/>
              <param name="T" type="float"/>
            </accessor>
          </technique_common>
        </source>
        <vertices id="Cylinder_004-mesh-vertices">
          <input semantic="POSITION" source="#Cylinder_004-mesh-positions"/>
        </vertices>
        <triangles material="Material-material" count="484">
          <input semantic="VERTEX" source="#Cylinder_004-mesh-vertices" offset="0"/>
          <input semantic="NORMAL" source="#Cylinder_004-mesh-normals" offset="1"/>
          <input semantic="TEXCOORD" source="#Cylinder_004-mesh-map-0" offset="2" set="0"/>
          <input semantic="TEXCOORD" source="#Cylinder_004-mesh-map-1" offset="2" set="1"/>
          <p>46 0 0 42 0 1 34 0 2 49 1 3 1 1 4 0 1 5 50 2 6 1 2 7 48 2 8 51 3 9 2 3 10 50 3 11 51 4 12 4 4 13 3 4 14 53 5 15 4 5 16 52 5 17 54 6 18 5 6 19 53 6 20 54 7 21 7 7 22 6 7 23 55 8 24 8 8 25 7 8 26 57 9 27 8 9 28 56 9 29 57 10 30 10 10 31 9 10 32 59 11 33 10 11 34 58 11 35 60 12 36 11 12 37 59 12 38 60 13 39 13 13 40 12 13 41 62 14 42 13 14 43 61 14 44 63 15 45 14 15 46 62 15 47 64 16 48 15 16 49 63 16 50 64 17 51 17 17 52 16 17 53 66 18 54 17 18 55 65 18 56 66 19 57 19 19 58 18 19 59 68 20 60 19 20 61 67 20 62 68 21 63 21 21 64 20 21 65 69 22 66 22 22 67 21 22 68 70 23 69 23 23 70 22 23 71 49 24 72 23 24 73 71 24 74 73 25 75 48 25 76 49 25 77 72 26 78 50 26 79 48 26 80 75 27 81 50 27 82 74 27 83 75 28 84 52 28 85 51 28 86 77 29 87 52 29 88 76 29 89 78 30 90 53 30 91 77 30 92 78 31 93 55 31 94 54 31 95 79 32 96 56 32 97 55 32 98 81 33 99 56 33 100 80 33 101 81 34 102 58 34 103 57 34 104 83 35 105 58 35 106 82 35 107 84 36 108 59 36 109 83 36 110 84 37 111 61 37 112 60 37 113 86 38 114 61 38 115 85 38 116 87 39 117 62 39 118 86 39 119 87 40 120 64 40 121 63 40 122 89 41 123 64 41 124 88 41 125 89 42 126 66 42 127 65 42 128 91 43 129 66 43 130 90 43 131 91 44 132 68 44 133 67 44 134 93 45 135 68 45 136 92 45 137 93 46 138 70 46 139 69 46 140 95 47 141 70 47 142 94 47 143 73 48 144 71 48 145 95 48 146 24 49 147 73 49 148 25 49 149 26 49 150 72 49 151 24 49 152 27 49 153 74 49 154 26 49 155 28 49 156 75 49 157 27 49 158 29 49 159 76 49 160 28 49 161 30 49 162 77 49 163 29 49 164 31 49 165 78 49 166 30 49 167 32 49 168 79 49 169 31 49 170 33 49 171 80 49 172 32 49 173 34 49 174 81 49 175 33 49 176 35 49 177 82 49 178 34 49 179 36 49 180 83 49 181 35 49 182 37 49 183 84 49 184 36 49 185 38 49 186 85 49 187 37 49 188 39 49 189 86 49 190 38 49 191 40 49 192 87 49 193 39 49 194 41 49 195 88 49 196 40 49 197 42 49 198 89 49 199 41 49 200 43 49 201 90 49 202 42 49 203 44 49 204 91 49 205 43 49 206 45 49 207 92 49 208 44 49 209 46 49 210 93 49 211 45 49 212 47 49 213 94 49 214 46 49 215 25 49 216 95 49 217 47 49 218 107 50 219 111 50 220 119 50 221 120 51 222 122 51 223 123 51 224 123 52 225 124 52 226 125 52 227 124 53 228 127 53 229 125 53 230 127 54 231 128 54 232 129 54 233 128 55 234 131 55 235 129 55 236 131 56 237 132 56 238 133 56 239 132 57 240 135 57 241 133 57 242 135 58 243 136 58 244 137 58 245 136 59 246 139 59 247 137 59 248 139 60 249 140 60 250 141 60 251 140 61 252 143 61 253 141 61 254 142 62 255 145 62 256 143 62 257 144 63 258 147 63 259 145 63 260 146 64 261 149 64 262 147 64 263 148 65 264 151 65 265 149 65 266 151 66 267 152 66 268 153 66 269 152 67 270 155 67 271 153 67 272 154 68 273 157 68 274 155 68 275 157 69 276 158 69 277 159 69 278 159 70 279 160 70 280 161 70 281 160 71 282 163 71 283 161 71 284 163 72 285 164 72 286 165 72 287 164 73 288 167 73 289 165 73 290 167 74 291 121 74 292 120 74 293 120 75 294 169 75 295 168 75 296 123 76 297 170 76 298 169 76 299 170 77 300 127 77 301 171 77 302 127 78 303 172 78 304 171 78 305 172 79 306 131 79 307 173 79 308 131 80 309 174 80 310 173 80 311 174 81 312 135 81 313 175 81 314 135 82 315 176 82 316 175 82 317 176 83 318 139 83 319 177 83 320 177 84 321 141 84 322 178 84 323 141 85 324 179 85 325 178 85 326 179 86 327 145 86 328 180 86 329 145 87 330 181 87 331 180 87 332 181 88 333 149 88 334 182 88 335 149 89 336 183 89 337 182 89 338 183 90 339 153 90 340 184 90 341 153 91 342 185 91 343 184 91 344 185 92 345 157 92 346 186 92 347 186 93 348 159 93 349 187 93 350 187 94 351 161 94 352 188 94 353 161 95 354 189 95 355 188 95 356 189 96 357 165 96 358 190 96 359 165 97 360 191 97 361 190 97 362 191 98 363 120 98 364 168 98 365 119 99 366 169 99 367 96 99 368 96 100 369 170 100 370 97 100 371 97 101 372 171 101 373 98 101 374 171 102 375 99 102 376 98 102 377 99 103 378 173 103 379 100 103 380 173 104 381 101 104 382 100 104 383 101 105 384 175 105 385 102 105 386 175 106 387 103 106 388 102 106 389 176 107 390 104 107 391 103 107 392 104 108 393 178 108 394 105 108 395 105 109 396 179 109 397 106 109 398 106 110 399 180 110 400 107 110 401 180 111 402 108 111 403 107 111 404 108 112 405 182 112 406 109 112 407 182 113 408 110 113 409 109 113 410 110 114 411 184 114 412 111 114 413 184 115 414 112 115 415 111 115 416 112 116 417 186 116 418 113 116 419 186 117 420 114 117 421 113 117 422 187 118 423 115 118 424 114 118 425 188 119 426 116 119 427 115 119 428 116 120 429 190 120 430 117 120 431 190 121 432 118 121 433 117 121 434 118 122 435 168 122 436 119 122 437 8 123 438 138 123 439 136 123 440 23 124 441 121 124 442 166 124 443 1 125 444 124 125 445 122 125 446 17 126 447 152 126 448 16 126 449 10 127 450 138 127 451 9 127 452 2 128 453 126 128 454 124 128 455 18 129 456 154 129 457 17 129 458 11 130 459 140 130 460 10 130 461 4 131 462 126 131 463 3 131 464 18 132 465 158 132 466 156 132 467 12 133 468 142 133 469 11 133 470 5 134 471 128 134 472 4 134 473 19 135 474 160 135 475 158 135 476 13 136 477 144 136 478 12 136 479 5 137 480 132 137 481 130 137 482 21 138 483 160 138 484 20 138 485 13 139 486 148 139 487 146 139 488 7 140 489 132 140 490 6 140 491 22 141 492 162 141 493 21 141 494 14 142 495 150 142 496 148 142 497 7 143 498 136 143 499 134 143 500 23 144 501 164 144 502 22 144 503 0 145 504 122 145 505 121 145 506 15 146 507 152 146 508 150 146 509 196 147 510 195 148 511 194 149 512 206 150 513 207 151 514 200 152 515 196 153 516 205 154 517 204 155 518 194 156 519 203 157 520 202 158 521 192 159 522 201 160 523 200 161 524 192 159 525 207 162 526 199 163 527 198 164 528 205 154 529 197 165 530 196 153 531 203 157 532 195 166 533 194 156 534 201 160 535 193 167 536 198 164 537 207 162 538 206 168 539 217 169 540 222 170 541 220 171 542 215 172 543 217 173 544 208 174 545 213 175 546 222 176 547 214 177 548 211 178 549 220 179 550 212 180 551 209 181 552 218 182 553 210 183 554 214 177 555 223 184 556 215 172 557 213 175 558 220 179 559 221 185 560 210 183 561 219 186 562 211 178 563 208 174 564 216 187 565 209 181 566 231 188 567 249 189 568 224 190 569 240 191 570 233 192 571 241 193 572 241 193 573 239 194 574 247 195 575 246 196 576 237 197 577 245 198 578 244 199 579 235 200 580 243 201 581 242 202 582 232 203 583 240 191 584 247 195 585 238 204 586 246 196 587 245 198 588 236 205 589 244 199 590 243 201 591 234 206 592 242 202 593 224 207 594 240 208 595 241 49 596 226 209 597 240 208 598 225 210 599 226 209 600 243 211 601 242 212 602 228 213 603 243 211 604 227 210 605 228 213 606 245 214 607 244 49 608 230 215 609 245 214 610 229 216 611 230 215 612 247 217 613 246 218 614 224 207 615 247 217 616 231 216 617 254 49 618 252 49 619 250 49 620 229 219 621 254 220 622 230 221 623 227 222 624 252 223 625 228 224 626 225 225 627 250 226 628 226 227 629 230 221 630 255 228 631 231 188 632 228 224 633 253 229 634 229 219 635 226 227 636 251 230 637 227 222 638 224 190 639 248 231 640 225 225 641 26 232 642 24 232 643 25 232 644 25 233 645 47 233 646 46 233 647 46 234 648 45 234 649 44 234 650 44 235 651 43 235 652 42 235 653 42 236 654 41 236 655 40 236 656 40 237 657 39 237 658 38 237 659 38 238 660 37 238 661 36 238 662 36 239 663 35 239 664 38 239 665 35 240 666 34 240 667 38 240 668 34 241 669 33 241 670 32 241 671 32 242 672 31 242 673 30 242 674 30 243 675 29 243 676 28 243 677 28 244 678 27 244 679 26 244 680 26 245 681 25 245 682 46 245 683 46 246 684 44 246 685 42 246 686 42 247 687 40 247 688 34 247 689 40 248 690 38 248 691 34 248 692 34 249 693 32 249 694 30 249 695 30 250 696 28 250 697 34 250 698 28 251 699 26 251 700 34 251 701 26 252 702 46 252 703 34 252 704 49 253 705 48 253 706 1 253 707 50 254 708 2 254 709 1 254 710 51 255 711 3 255 712 2 255 713 51 256 714 52 256 715 4 256 716 53 257 717 5 257 718 4 257 719 54 258 720 6 258 721 5 258 722 54 259 723 55 259 724 7 259 725 55 260 726 56 260 727 8 260 728 57 261 729 9 261 730 8 261 731 57 262 732 58 262 733 10 262 734 59 263 735 11 263 736 10 263 737 60 264 738 12 264 739 11 264 740 60 265 741 61 265 742 13 265 743 62 266 744 14 266 745 13 266 746 63 267 747 15 267 748 14 267 749 64 268 750 16 268 751 15 268 752 64 269 753 65 269 754 17 269 755 66 270 756 18 270 757 17 270 758 66 271 759 67 271 760 19 271 761 68 272 762 20 272 763 19 272 764 68 273 765 69 273 766 21 273 767 69 274 768 70 274 769 22 274 770 70 275 771 71 275 772 23 275 773 49 276 774 0 276 775 23 276 776 73 277 777 72 277 778 48 277 779 72 278 780 74 278 781 50 278 782 75 279 783 51 279 784 50 279 785 75 280 786 76 280 787 52 280 788 77 281 789 53 281 790 52 281 791 78 282 792 54 282 793 53 282 794 78 283 795 79 283 796 55 283 797 79 284 798 80 284 799 56 284 800 81 285 801 57 285 802 56 285 803 81 286 804 82 286 805 58 286 806 83 287 807 59 287 808 58 287 809 84 288 810 60 288 811 59 288 812 84 289 813 85 289 814 61 289 815 86 290 816 62 290 817 61 290 818 87 291 819 63 291 820 62 291 821 87 292 822 88 292 823 64 292 824 89 293 825 65 293 826 64 293 827 89 294 828 90 294 829 66 294 830 91 295 831 67 295 832 66 295 833 91 296 834 92 296 835 68 296 836 93 297 837 69 297 838 68 297 839 93 298 840 94 298 841 70 298 842 95 299 843 71 299 844 70 299 845 73 300 846 49 300 847 71 300 848 24 49 849 72 49 850 73 49 851 26 49 852 74 49 853 72 49 854 27 49 855 75 49 856 74 49 857 28 49 858 76 49 859 75 49 860 29 49 861 77 49 862 76 49 863 30 49 864 78 49 865 77 49 866 31 49 867 79 49 868 78 49 869 32 49 870 80 49 871 79 49 872 33 49 873 81 49 874 80 49 875 34 49 876 82 49 877 81 49 878 35 49 879 83 49 880 82 49 881 36 49 882 84 49 883 83 49 884 37 49 885 85 49 886 84 49 887 38 49 888 86 49 889 85 49 890 39 49 891 87 49 892 86 49 893 40 49 894 88 49 895 87 49 896 41 49 897 89 49 898 88 49 899 42 49 900 90 49 901 89 49 902 43 49 903 91 49 904 90 49 905 44 49 906 92 49 907 91 49 908 45 49 909 93 49 910 92 49 911 46 49 912 94 49 913 93 49 914 47 49 915 95 49 916 94 49 917 25 49 918 73 49 919 95 49 920 119 301 921 96 301 922 99 301 923 96 302 924 97 302 925 99 302 926 97 303 927 98 303 928 99 303 929 99 304 930 100 304 931 101 304 932 101 305 933 102 305 934 99 305 935 102 306 936 103 306 937 99 306 938 103 307 939 104 307 940 105 307 941 105 308 942 106 308 943 107 308 944 107 309 945 108 309 946 109 309 947 109 310 948 110 310 949 111 310 950 111 311 951 112 311 952 115 311 953 112 312 954 113 312 955 115 312 956 113 313 957 114 313 958 115 313 959 115 314 960 116 314 961 117 314 962 117 315 963 118 315 964 119 315 965 103 316 966 105 316 967 107 316 968 107 317 969 109 317 970 111 317 971 115 318 972 117 318 973 111 318 974 117 319 975 119 319 976 111 319 977 119 320 978 99 320 979 103 320 980 103 321 981 107 321 982 119 321 983 120 322 984 121 322 985 122 322 986 123 323 987 122 323 988 124 323 989 124 324 990 126 324 991 127 324 992 127 325 993 126 325 994 128 325 995 128 326 996 130 326 997 131 326 998 131 327 999 130 327 1000 132 327 1001 132 328 1002 134 328 1003 135 328 1004 135 329 1005 134 329 1006 136 329 1007 136 330 1008 138 330 1009 139 330 1010 139 331 1011 138 331 1012 140 331 1013 140 332 1014 142 332 1015 143 332 1016 142 333 1017 144 333 1018 145 333 1019 144 334 1020 146 334 1021 147 334 1022 146 335 1023 148 335 1024 149 335 1025 148 336 1026 150 336 1027 151 336 1028 151 337 1029 150 337 1030 152 337 1031 152 338 1032 154 338 1033 155 338 1034 154 339 1035 156 339 1036 157 339 1037 157 340 1038 156 340 1039 158 340 1040 159 341 1041 158 341 1042 160 341 1043 160 342 1044 162 342 1045 163 342 1046 163 343 1047 162 343 1048 164 343 1049 164 344 1050 166 344 1051 167 344 1052 167 345 1053 166 345 1054 121 345 1055 120 346 1056 123 346 1057 169 346 1058 123 347 1059 125 347 1060 170 347 1061 170 348 1062 125 348 1063 127 348 1064 127 349 1065 129 349 1066 172 349 1067 172 350 1068 129 350 1069 131 350 1070 131 351 1071 133 351 1072 174 351 1073 174 352 1074 133 352 1075 135 352 1076 135 353 1077 137 353 1078 176 353 1079 176 354 1080 137 354 1081 139 354 1082 177 355 1083 139 355 1084 141 355 1085 141 356 1086 143 356 1087 179 356 1088 179 357 1089 143 357 1090 145 357 1091 145 358 1092 147 358 1093 181 358 1094 181 359 1095 147 359 1096 149 359 1097 149 360 1098 151 360 1099 183 360 1100 183 361 1101 151 361 1102 153 361 1103 153 362 1104 155 362 1105 185 362 1106 185 363 1107 155 363 1108 157 363 1109 186 364 1110 157 364 1111 159 364 1112 187 365 1113 159 365 1114 161 365 1115 161 366 1116 163 366 1117 189 366 1118 189 367 1119 163 367 1120 165 367 1121 165 368 1122 167 368 1123 191 368 1124 191 369 1125 167 369 1126 120 369 1127 119 370 1128 168 370 1129 169 370 1130 96 371 1131 169 371 1132 170 371 1133 97 372 1134 170 372 1135 171 372 1136 171 373 1137 172 373 1138 99 373 1139 99 374 1140 172 374 1141 173 374 1142 173 375 1143 174 375 1144 101 375 1145 101 376 1146 174 376 1147 175 376 1148 175 377 1149 176 377 1150 103 377 1151 176 378 1152 177 378 1153 104 378 1154 104 379 1155 177 379 1156 178 379 1157 105 380 1158 178 380 1159 179 380 1160 106 381 1161 179 381 1162 180 381 1163 180 382 1164 181 382 1165 108 382 1166 108 383 1167 181 383 1168 182 383 1169 182 384 1170 183 384 1171 110 384 1172 110 385 1173 183 385 1174 184 385 1175 184 386 1176 185 386 1177 112 386 1178 112 387 1179 185 387 1180 186 387 1181 186 388 1182 187 388 1183 114 388 1184 187 389 1185 188 389 1186 115 389 1187 188 390 1188 189 390 1189 116 390 1190 116 391 1191 189 391 1192 190 391 1193 190 392 1194 191 392 1195 118 392 1196 118 393 1197 191 393 1198 168 393 1199 8 394 1200 9 394 1201 138 394 1202 23 395 1203 0 395 1204 121 395 1205 1 396 1206 2 396 1207 124 396 1208 17 397 1209 154 397 1210 152 397 1211 10 398 1212 140 398 1213 138 398 1214 2 399 1215 3 399 1216 126 399 1217 18 400 1218 156 400 1219 154 400 1220 11 401 1221 142 401 1222 140 401 1223 4 402 1224 128 402 1225 126 402 1226 18 403 1227 19 403 1228 158 403 1229 12 404 1230 144 404 1231 142 404 1232 5 405 1233 130 405 1234 128 405 1235 19 406 1236 20 406 1237 160 406 1238 13 407 1239 146 407 1240 144 407 1241 5 408 1242 6 408 1243 132 408 1244 21 409 1245 162 409 1246 160 409 1247 13 410 1248 14 410 1249 148 410 1250 7 411 1251 134 411 1252 132 411 1253 22 412 1254 164 412 1255 162 412 1256 14 413 1257 15 413 1258 150 413 1259 7 414 1260 8 414 1261 136 414 1262 23 415 1263 166 415 1264 164 415 1265 0 416 1266 1 416 1267 122 416 1268 15 417 1269 16 417 1270 152 417 1271 194 149 1272 193 418 1273 192 419 1274 192 419 1275 199 420 1276 194 149 1277 199 420 1278 198 49 1279 194 149 1280 198 49 1281 197 421 1282 194 149 1283 197 421 1284 196 147 1285 194 149 1286 200 152 1287 201 422 1288 204 423 1289 201 422 1290 202 424 1291 204 423 1292 202 424 1293 203 425 1294 204 423 1295 204 423 1296 205 425 1297 200 152 1298 205 425 1299 206 150 1300 200 152 1301 196 153 1302 197 165 1303 205 154 1304 194 156 1305 195 166 1306 203 157 1307 192 159 1308 193 167 1309 201 160 1310 192 159 1311 200 161 1312 207 162 1313 198 164 1314 206 168 1315 205 154 1316 196 153 1317 204 155 1318 203 157 1319 194 156 1320 202 158 1321 201 160 1322 198 164 1323 199 163 1324 207 162 1325 218 426 1326 216 427 1327 217 169 1328 217 169 1329 223 428 1330 222 170 1331 222 170 1332 221 429 1333 220 171 1334 220 171 1335 219 430 1336 218 426 1337 218 426 1338 217 169 1339 220 171 1340 215 172 1341 223 184 1342 217 173 1343 213 175 1344 221 185 1345 222 176 1346 211 178 1347 219 186 1348 220 179 1349 209 181 1350 216 187 1351 218 182 1352 214 177 1353 222 176 1354 223 184 1355 213 175 1356 212 180 1357 220 179 1358 210 183 1359 218 182 1360 219 186 1361 208 174 1362 217 173 1363 216 187 1364 231 188 1365 255 228 1366 249 189 1367 240 191 1368 232 203 1369 233 192 1370 241 193 1371 233 192 1372 239 194 1373 246 196 1374 238 204 1375 237 197 1376 244 199 1377 236 205 1378 235 200 1379 242 202 1380 234 206 1381 232 203 1382 247 195 1383 239 194 1384 238 204 1385 245 198 1386 237 197 1387 236 205 1388 243 201 1389 235 200 1390 234 206 1391 224 207 1392 225 210 1393 240 208 1394 226 209 1395 242 212 1396 240 208 1397 226 209 1398 227 210 1399 243 211 1400 228 213 1401 244 49 1402 243 211 1403 228 213 1404 229 216 1405 245 214 1406 230 215 1407 246 218 1408 245 214 1409 230 215 1410 231 216 1411 247 217 1412 224 207 1413 241 49 1414 247 217 1415 250 49 1416 248 49 1417 249 49 1418 249 49 1419 255 49 1420 254 49 1421 254 49 1422 253 49 1423 252 49 1424 252 49 1425 251 49 1426 250 49 1427 250 49 1428 249 49 1429 254 49 1430 229 219 1431 253 229 1432 254 220 1433 227 222 1434 251 230 1435 252 223 1436 225 225 1437 248 231 1438 250 226 1439 230 221 1440 254 220 1441 255 228 1442 228 224 1443 252 223 1444 253 229 1445 226 227 1446 250 226 1447 251 230 1448 224 190 1449 249 189 1450 248 231 1451</p>
        </triangles>
      </mesh>
    </geometry>
  </library_geometries>
  <library_animations>
    <animation id="action_container-Cylinder_001" name="Cylinder.001"/>
  </library_animations>
  <library_visual_scenes>
    <visual_scene id="Scene" name="Scene">
      <node id="Cylinder_001" name="Cylinder.001" type="NODE">
        <matrix sid="transform">1 0 0 0 0 1 0 0 0 0 1 0 0 0 0 1</matrix>
        <instance_geometry url="#Cylinder_004-mesh" name="Cylinder.001">
          <bind_material>
            <technique_common>
              <instance_material symbol="Material-material" target="#Material-material">
                <bind_vertex_input semantic="UVMap" input_semantic="TEXCOORD" input_set="0"/>
                <bind_vertex_input semantic="UVMap.001" input_semantic="TEXCOORD" input_set="1"/>
              </instance_material>
            </technique_common>
          </bind_material>
        </instance_geometry>
      </node>
    </visual_scene>
  </library_visual_scenes>
  <scene>
    <instance_visual_scene url="#Scene"/>
  </scene>
</COLLADA>