<?xml version="1.0" encoding="utf-8"?>
<COLLADA xmlns="http://www.collada.org/2005/11/COLLADASchema" version="1.4.1">
  <asset>
    <contributor><authoring_tool>mars_wars gen_common.py</authoring_tool></contributor>
    <unit name="meter" meter="1"/>
    <up_axis>Z_UP</up_axis>
  </asset>
  <library_effects>
    <effect id="lightning_3-effect"><profile_COMMON><technique sid="common"><lambert><diffuse><color>1 1 1 1</color></diffuse></lambert></technique></profile_COMMON></effect>
  </library_effects>
  <library_materials>
    <material id="lightning_3-material" name="lightning_3"><instance_effect url="#lightning_3-effect"/></material>
  </library_materials>
  <library_geometries>
    <geometry id="lightning_3-mesh" name="lightning_3">
      <mesh>
        <source id="lightning_3-positions">
          <float_array id="lightning_3-positions-array" count="1968">5.9976 1.6177 75 5.4951 2.4823 75 4.4966 1.9021 71.659 4.9991 1.0375 71.659 5.9976 1.6177 75 5.4951 2.4823 75 4.4966 1.9021 71.659 4.9991 1.0375 71.659 5.3378 1.8126 75.163 6.1549 2.2875 74.837 5.1564 1.7072 71.496 4.3392 1.2323 71.822 5.3378 1.8126 75.163 6.1549 2.2875 74.837 5.1564 1.7072 71.496 4.3392 1.2323 71.822 5.22 1.6342 71.659 4.2756 1.3053 71.659 4.5822 0.42503 69.292 5.5265 0.75387 69.292 5.22 1.6342 71.659 4.2756 1.3053 71.659 4.5822 0.42503 69.292 5.5265 0.75387 69.292 4.9008 1.0304 71.842 4.5949 1.9091 71.476 4.9014 1.0288 69.109 5.2073 0.15011 69.476 4.9008 1.0304 71.842 4.5949 1.9091 71.476 4.9014 1.0288 69.109 5.2073 0.15011 69.476 5.4012 0.22934 69.292 4.7075 0.94956 69.292 3.3444 -0.36337 65.779 4.0382 -1.0836 65.779 5.4012 0.22934 69.292 4.7075 0.94956 69.292 3.3444 -0.36337 65.779 4.0382 -1.0836 65.779 4.7373 0.28406 69.53 5.3714 0.89484 69.055 4.0083 -0.41809 65.542 3.3742 -1.0289 66.016 4.7373 0.28406 69.53 5.3714 0.89484 69.055 4.0083 -0.41809 65.542 3.3742 -1.0289 66.016 4.164 -0.56042 65.779 3.2186 -0.88654 65.779 3.7409 -2.4004 63.195 4.6862 -2.0742 63.195 4.164 -0.56042 65.779 3.2186 -0.88654 65.779 3.7409 -2.4004 63.195 4.6862 -2.0742 63.195 3.8299 -1.1252 66.042 3.5527 -0.32172 65.515 4.0749 -1.8355 62.931 4.3521 -2.6391 63.458 3.8299 -1.1252 66.042 3.5527 -0.32172 65.515 4.0749 -1.8355 62.931 4.3521 -2.6391 63.458 3.8704 -2.601 63.195 4.5566 -1.8736 63.195 3.5338 -0.90862 60.945 2.8476 -1.636 60.945 3.8704 -2.601 63.195 4.5566 -1.8736 63.195 3.5338 -0.90862 60.945 2.8476 -1.636 60.945 3.9051 -1.9463 63.46 4.5219 -2.5283 62.93 3.4991 -1.5633 60.68 2.8823 -0.98135 61.21 3.9051 -1.9463 63.46 4.5219 -2.5283 62.93 3.4991 -1.5633 60.68 2.8823 -0.98135 61.21 3.6757 -1.3939 60.945 2.7057 -1.1507 60.945 1.6925 -5.1925 58.194 2.6625 -5.4357 58.194 3.6757 -1.3939 60.945 2.7057 -1.1507 60.945 1.6925 -5.1925 58.194 2.6625 -5.4357 58.194 3.1237 -1.5395 61.362 3.2577 -1.0051 60.527 2.2445 -5.0469 57.777 2.1105 -5.5813 58.612 3.1237 -1.5395 61.362 3.2577 -1.0051 60.527 2.2445 -5.0469 57.777 2.1105 -5.5813 58.612 2.2209 -4.816 58.194 2.1341 -5.8122 58.194 2.9641 -5.8846 55.197 3.051 -4.8884 55.197 2.2209 -4.816 58.194 2.1341 -5.8122 58.194 2.9641 -5.8846 55.197 3.051 -4.8884 55.197 2.6574 -5.356 58.328 1.6976 -5.2723 58.06 2.5277 -5.3446 55.063 3.4875 -5.4284 55.331 2.6574 -5.356 58.328 1.6976 -5.2723 58.06 2.5277 -5.3446 55.063 3.4875 -5.4284 55.331 3.4131 -5.094 55.197 2.6021 -5.679 55.197 4.1357 -7.8049 52.186 4.9467 -7.2199 52.186 3.4131 -5.094 55.197 2.6021 -5.679 55.197 4.1357 -7.8049 52.186 4.9467 -7.2199 52.186 3.2282 -5.6924 55.525 2.7869 -5.0806 54.869 4.3206 -7.2065 51.857 4.7619 -7.8182 52.514 3.2282 -5.6924 55.525 2.7869 -5.0806 54.869 4.3206 -7.2065 51.857 4.7619 -7.8182 52.514 4.6899 -7.035 52.186 4.3925 -7.9898 52.186 6.7739 -8.7315 49.159 7.0713 -7.7768 49.159 4.6899 -7.035 52.186 4.3925 -7.9898 52.186 6.7739 -8.7315 49.159 7.0713 -7.7768 49.159 4.9096 -7.6271 52.504 4.1729 -7.3976 51.867 6.5542 -8.1394 48.841 7.291 -8.3689 49.477 4.9096 -7.6271 52.504 4.1729 -7.3976 51.867 6.5542 -8.1394 48.841 7.291 -8.3689 49.477 6.4247 -8.2994 49.159 7.4206 -8.2089 49.159 7.2956 -6.8344 45.536 6.2997 -6.9249 45.536 6.4247 -8.2994 49.159 7.4206 -8.2089 49.159 7.2956 -6.8344 45.536 6.2997 -6.9249 45.536 6.8803 -7.7888 49.337 6.9649 -8.7195 48.981 6.84 -7.345 45.358 6.7554 -6.4143 45.714 6.8803 -7.7888 49.337 6.9649 -8.7195 48.981 6.84 -7.345 45.358 6.7554 -6.4143 45.714 6.3413 -7.0839 45.536 7.254 -6.6753 45.536 6.7495 -5.5482 43.035 5.8367 -5.9568 43.035 6.3413 -7.0839 45.536 7.254 -6.6753 45.536 6.7495 -5.5482 43.035 5.8367 -5.9568 43.035 6.6145 -6.4705 45.757 6.9809 -7.2888 45.314 6.4763 -6.1617 42.813 6.1099 -5.3433 43.256 6.6145 -6.4705 45.757 6.9809 -7.2888 45.314 6.4763 -6.1617 42.813 6.1099 -5.3433 43.256 6.1098 -6.2177 43.035 6.4764 -5.2873 43.035 4.9816 -4.6984 39.964 4.6151 -5.6288 39.964 6.1098 -6.2177 43.035 6.4764 -5.2873 43.035 4.9816 -4.6984 39.964 4.6151 -5.6288 39.964 5.8809 -5.5901 43.267 6.7053 -5.9149 42.803 5.2105 -5.326 39.732 4.3862 -5.0012 40.196 5.8809 -5.5901 43.267 6.7053 -5.9149 42.803 5.2105 -5.326 39.732 4.3862 -5.0012 40.196 4.3181 -5.0246 39.964 5.2786 -5.3026 39.964 5.8571 -3.304 36.375 4.8965 -3.026 36.375 4.3181 -5.0246 39.964 5.2786 -5.3026 39.964 5.8571 -3.304 36.375 4.8965 -3.026 36.375 4.9186 -4.7481 40.215 4.6781 -5.5791 39.713 5.2566 -3.5805 36.124 5.4971 -2.7495 36.626 4.9186 -4.7481 40.215 4.6781 -5.5791 39.713 5.2566 -3.5805 36.124 5.4971 -2.7495 36.626 5.5341 -3.6396 36.375 5.2195 -2.6904 36.375 4.145 -3.0465 32.571 4.4597 -3.9957 32.571 5.5341 -3.6396 36.375 5.2195 -2.6904 36.375 4.145 -3.0465 32.571 4.4597 -3.9957 32.571 4.9219 -3.3158 36.518 5.8317 -3.0142 36.233 4.7573 -3.3703 32.428 3.8475 -3.6719 32.713 4.9219 -3.3158 36.518 5.8317 -3.0142 36.233 4.7573 -3.3703 32.428 3.8475 -3.6719 32.713 4.3635 -4.0174 32.571 4.2412 -3.0249 32.571 1.9954 -3.3017 29.818 2.1177 -4.2942 29.818 4.3635 -4.0174 32.571 4.2412 -3.0249 32.571 1.9954 -3.3017 29.818 2.1177 -4.2942 29.818 3.919 -3.5684 32.888 4.6857 -3.4739 32.253 2.4399 -3.7507 29.501 1.6732 -3.8452 30.136 3.919 -3.5684 32.888 4.6857 -3.4739 32.253 2.4399 -3.7507 29.501 1.6732 -3.8452 30.136 2.5255 -3.6245 29.818 1.5876 -3.9714 29.818 1.8068 -4.564 26.832 2.7447 -4.2171 26.832 2.5255 -3.6245 29.818 1.5876 -3.9714 29.818 1.8068 -4.564 26.832 2.7447 -4.2171 26.832 2.2263 -4.2567 29.922 1.8869 -3.3392 29.715 2.106 -3.9317 26.728 2.4455 -4.8493 26.935 2.2263 -4.2567 29.922 1.8869 -3.3392 29.715 2.106 -3.9317 26.728 2.4455 -4.8493 26.935 1.9561 -4.0061 26.832 2.5954 -4.775 26.832 3.2693 -4.2146 23.276 2.6299 -3.4458 23.276 1.9561 -4.0061 26.832 2.5954 -4.775 26.832 3.2693 -4.2146 23.276 2.6299 -3.4458 23.276 2.649 -4.0801 26.951 1.9025 -4.7009 26.712 2.5763 -4.1406 23.156 3.3229 -3.5198 23.395 2.649 -4.0801 26.951 1.9025 -4.7009 26.712 2.5763 -4.1406 23.156 3.3229 -3.5198 23.395 2.7007 -4.2639 23.276 3.1984 -3.3965 23.276 1.2129 -2.2571 19.607 0.7152 -3.1244 19.607 2.7007 -4.2639 23.276 3.1984 -3.3965 23.276 1.2129 -2.2571 19.607 0.7152 -3.1244 19.607 2.5817 -3.6191 23.54 3.3175 -4.0413 23.011 1.332 -2.9019 19.342 0.59615 -2.4796 19.871 2.5817 -3.6191 23.54 3.3175 -4.0413 23.011 1.332 -2.9019 19.342 0.59615 -2.4796 19.871 0.67127 -2.2855 19.607 1.2569 -3.0961 19.607 2.4517 -2.2329 16.339 1.8661 -1.4223 16.339 0.67127 -2.2855 19.607 1.2569 -3.0961 19.607 2.4517 -2.2329 16.339 1.8661 -1.4223 16.339 1.3335 -2.4239 19.812 0.59461 -2.9577 19.401 1.7894 -2.0945 16.133 2.5283 -1.5607 16.544 1.3335 -2.4239 19.812 0.59461 -2.9577 19.401 1.7894 -2.0945 16.133 2.5283 -1.5607 16.544 1.6649 -1.7502 16.339 2.6528 -1.905 16.339 2.7881 -1.0419 13.202 1.8002 -0.8871 13.202 1.6649 -1.7502 16.339 2.6528 -1.905 16.339 2.7881 -1.0419 13.202 1.8002 -0.8871 13.202 2.2334 -1.3518 16.473 2.0843 -2.3035 16.205 2.2196 -1.4404 13.068 2.3687 -0.48865 13.336 2.2334 -1.3518 16.473 2.0843 -2.3035 16.205 2.2196 -1.4404 13.068 2.3687 -0.48865 13.336 1.9722 -1.3471 13.202 2.6161 -0.58193 13.202 1.5909 0.28071 10.429 0.94704 -0.48444 10.429 1.9722 -1.3471 13.202 2.6161 -0.58193 13.202 1.5909 0.28071 10.429 0.94704 -0.48444 10.429 1.9497 -0.67464 13.419 2.6386 -1.2544 12.984 1.6134 -0.39173 10.211 0.92449 0.188 10.646 1.9497 -0.67464 13.419 2.6386 -1.2544 12.984 1.6134 -0.39173 10.211 0.92449 0.188 10.646 1.6132 0.26074 10.429 0.92471 -0.46447 10.429 2.3398 -1.808 7.558 3.0283 -1.0827 7.558 1.6132 0.26074 10.429 0.92471 -0.46447 10.429 2.3398 -1.808 7.558 3.0283 -1.0827 7.558 1.5689 -0.38658 10.71 0.96908 0.18285 10.148 2.3842 -1.1606 7.2769 2.9839 -1.7301 7.8391 1.5689 -0.38658 10.71 0.96908 0.18285 10.148 2.3842 -1.1606 7.2769 2.9839 -1.7301 7.8391 2.1841 -1.451 7.558 3.184 -1.4397 7.558 3.1696 -0.17372 4.4408 2.1697 -0.18507 4.4408 2.1841 -1.451 7.558 3.184 -1.4397 7.558 3.1696 -0.17372 4.4408 2.1697 -0.18507 4.4408 2.6788 -0.98213 7.7462 2.6893 -1.9086 7.3699 2.6749 -0.64261 4.2527 2.6644 0.28383 4.629 2.6788 -0.98213 7.7462 2.6893 -1.9086 7.3699 2.6749 -0.64261 4.2527 2.6644 0.28383 4.629 2.524 -0.65769 4.4408 2.8154 0.29891 4.4408 1.4543 0.71353 0.78014 1.1629 -0.24307 0.78014 2.524 -0.65769 4.4408 2.8154 0.29891 4.4408 1.4543 0.71353 0.78014 1.1629 -0.24307 0.78014 2.2239 -0.043586 4.6219 3.1155 -0.3152 4.2597 1.7544 0.099419 0.59901 0.86281 0.37103 0.96128 2.2239 -0.043586 4.6219 3.1155 -0.3152 4.2597 1.7544 0.099419 0.59901 0.86281 0.37103 0.96128 1.3971 -0.25689 0.78014 1.2202 0.72734 0.78014 -0.088458 0.49211 0 0.088458 -0.49211 0 1.3971 -0.25689 0.78014 1.2202 0.72734 0.78014 -0.088458 0.49211 0 0.088458 -0.49211 0 1.0596 0.19046 1.2114 1.5577 0.27999 0.3489 0.24904 0.044766 -0.43125 -0.24904 -0.044766 0.43125 1.0596 0.19046 1.2114 1.5577 0.27999 0.3489 0.24904 0.044766 -0.43125 -0.24904 -0.044766 0.43125 4.1166 -2.4677 63.195 4.3105 -2.0069 63.195 3.2221 -1.549 61.322 3.0282 -2.0098 61.322 4.1166 -2.4677 63.195 4.3105 -2.0069 63.195 3.2221 -1.549 61.322 3.0282 -2.0098 61.322 4.0186 -2.1553 63.328 4.4085 -2.3193 63.061 3.3201 -1.8614 61.189 2.9303 -1.6974 61.455 4.0186 -2.1553 63.328 4.4085 -2.3193 63.061 3.3201 -1.8614 61.189 2.9303 -1.6974 61.455 3.1485 -2.0283 61.322 3.1019 -1.5305 61.322 1.835 -1.649 59.202 1.8815 -2.1468 59.202 3.1485 -2.0283 61.322 3.1019 -1.5305 61.322 1.835 -1.649 59.202 1.8815 -2.1468 59.202 2.9118 -1.7994 61.451 3.3386 -1.7594 61.193 2.0717 -1.878 59.074 1.6448 -1.9179 59.331 2.9118 -1.7994 61.451 3.3386 -1.7594 61.193 2.0717 -1.878 59.074 1.6448 -1.9179 59.331 1.6141 -1.9519 59.202 2.1024 -1.844 59.202 1.8931 -0.89728 57.699 1.4049 -1.0052 57.699 1.6141 -1.9519 59.202 2.1024 -1.844 59.202 1.8931 -0.89728 57.699 1.4049 -1.0052 57.699 1.8129 -1.6928 59.338 1.9036 -2.1031 59.067 1.6944 -1.1564 57.564 1.6037 -0.74609 57.835 1.8129 -1.6928 59.338 1.9036 -2.1031 59.067 1.6944 -1.1564 57.564 1.6037 -0.74609 57.835 1.4006 -0.9792 57.699 1.8975 -0.92326 57.699 1.7477 0.40669 55.648 1.2509 0.35075 55.648 1.4006 -0.9792 57.699 1.8975 -0.92326 57.699 1.7477 0.40669 55.648 1.2509 0.35075 55.648 1.6256 -0.74319 57.836 1.6725 -1.1593 57.563 1.5227 0.17067 55.512 1.4759 0.58676 55.785 1.6256 -0.74319 57.836 1.6725 -1.1593 57.563 1.5227 0.17067 55.512 1.4759 0.58676 55.785 1.259 0.44768 55.648 1.7396 0.30976 55.648 1.9638 1.0912 53.704 1.4832 1.2291 53.704 1.259 0.44768 55.648 1.7396 0.30976 55.648 1.9638 1.0912 53.704 1.4832 1.2291 53.704 1.5629 0.60043 55.745 1.4357 0.15701 55.552 1.6599 0.93842 53.607 1.7872 1.3818 53.8 1.5629 0.60043 55.745 1.4357 0.15701 55.552 1.6599 0.93842 53.607 1.7872 1.3818 53.8 7.1424 -8.3733 49.159 6.7028 -8.135 49.159 5.7378 -9.9146 47.934 6.1773 -10.153 47.934 7.1424 -8.3733 49.159 6.7028 -8.135 49.159 5.7378 -9.9146 47.934 6.1773 -10.153 47.934 6.8609 -8.368 49.373 6.9843 -8.1404 48.945 6.0193 -9.92 47.72 5.8959 -10.148 48.148 6.8609 -8.368 49.373 6.9843 -8.1404 48.945 6.0193 -9.92 47.72 5.8959 -10.148 48.148 6.1313 -10.214 47.934 5.7838 -9.854 47.934 3.7665 -11.804 46.79 4.114 -12.163 46.79 6.1313 -10.214 47.934 5.7838 -9.854 47.934 3.7665 -11.804 46.79 4.114 -12.163 46.79 5.8897 -10.099 48.166 6.0255 -9.9681 47.703 4.0081 -11.918 46.558 3.8723 -12.049 47.021 5.8897 -10.099 48.166 6.0255 -9.9681 47.703 4.0081 -11.918 46.558 3.8723 -12.049 47.021 4.1302 -12.146 46.79 3.7502 -11.821 46.79 2.3973 -13.403 45.304 2.7773 -13.728 45.304 4.1302 -12.146 46.79 3.7502 -11.821 46.79 2.3973 -13.403 45.304 2.7773 -13.728 45.304 3.8458 -12.094 46.993 4.0346 -11.873 46.586 2.6817 -13.455 45.1 2.4929 -13.676 45.507 3.8458 -12.094 46.993 4.0346 -11.873 46.586 2.6817 -13.455 45.1 2.4929 -13.676 45.507 2.6201 -13.814 45.304 2.5545 -13.318 45.304 0.87501 -13.54 44.359 0.94062 -14.036 44.359 2.6201 -13.814 45.304 2.5545 -13.318 45.304 0.87501 -13.54 44.359 0.94062 -14.036 44.359 2.4666 -13.582 45.522 2.708 -13.55 45.085 1.0286 -13.772 44.14 0.78708 -13.804 44.577 2.4666 -13.582 45.522 2.708 -13.55 45.085 1.0286 -13.772 44.14 0.78708 -13.804 44.577 0.9619 -14.032 44.359 0.85373 -13.544 44.359 -1.3513 -14.033 43.316 -1.2432 -14.521 43.316 0.9619 -14.032 44.359 0.85373 -13.544 44.359 -1.3513 -14.033 43.316 -1.2432 -14.521 43.316 0.80549 -13.811 44.586 1.0102 -13.765 44.132 -1.1949 -14.254 43.089 -1.3996 -14.299 43.543 0.80549 -13.811 44.586 1.0102 -13.765 44.132 -1.1949 -14.254 43.089 -1.3996 -14.299 43.543 6.6442 -7.077 45.536 6.9511 -6.6823 45.536 5.2553 -5.3638 43.86 4.9484 -5.7586 43.86 6.6442 -7.077 45.536 6.9511 -6.6823 45.536 5.2553 -5.3638 43.86 4.9484 -5.7586 43.86 6.6763 -6.7852 45.733 6.9191 -6.974 45.338 5.2232 -5.6556 43.662 4.9804 -5.4668 44.057 6.6763 -6.7852 45.733 6.9191 -6.974 45.338 5.2232 -5.6556 43.662 4.9804 -5.4668 44.057 4.925 -5.7379 43.86 5.2787 -5.3845 43.86 4.4941 -4.5991 41.79 4.1403 -4.9525 41.79 4.925 -5.7379 43.86 5.2787 -5.3845 43.86 4.4941 -4.5991 41.79 4.1403 -4.9525 41.79 4.9461 -5.4054 43.978 5.2575 -5.7171 43.741 4.4729 -4.9317 41.672 4.1615 -4.6199 41.908 4.9461 -5.4054 43.978 5.2575 -5.7171 43.741 4.4729 -4.9317 41.672 4.1615 -4.6199 41.908 4.1228 -4.933 41.79 4.5116 -4.6186 41.79 2.8705 -2.5898 39.702 2.4817 -2.9042 39.702 4.1228 -4.933 41.79 4.5116 -4.6186 41.79 2.8705 -2.5898 39.702 2.4817 -2.9042 39.702 4.219 -4.6544 41.985 4.4154 -4.8972 41.595 2.7743 -2.8684 39.507 2.5779 -2.6255 39.897 4.219 -4.6544 41.985 4.4154 -4.8972 41.595 2.7743 -2.8684 39.507 2.5779 -2.6255 39.897 2.4605 -2.6205 39.702 2.8917 -2.8735 39.702 3.2627 -2.2412 37.911 2.8314 -1.9882 37.911 2.4605 -2.6205 39.702 2.8917 -2.8735 39.702 3.2627 -2.2412 37.911 2.8314 -1.9882 37.911 2.7932 -2.5474 39.797 2.559 -2.9465 39.607 2.93 -2.3142 37.817 3.1641 -1.9151 38.006 2.7932 -2.5474 39.797 2.559 -2.9465 39.607 2.93 -2.3142 37.817 3.1641 -1.9151 38.006 2.8862 -2.306 37.911 3.2079 -1.9233 37.911 0.79432 0.10569 35.298 0.47258 -0.27704 35.298 2.8862 -2.306 37.911 3.2079 -1.9233 37.911 0.79432 0.10569 35.298 0.47258 -0.27704 35.298 2.925 -2.012 38.104 3.1692 -2.2173 37.719 0.75556 -0.18833 35.106 0.51135 0.016969 35.491 2.925 -2.012 38.104 3.1692 -2.2173 37.719 0.75556 -0.18833 35.106 0.51135 0.016969 35.491 0.4151 -0.20743 35.298 0.8518 0.03607 35.298 -0.28344 2.0721 33.575 -0.72014 1.8286 33.575 0.4151 -0.20743 35.298 0.8518 0.03607 35.298 -0.28344 2.0721 33.575 -0.72014 1.8286 33.575 0.56106 0.044148 35.499 0.70584 -0.21551 35.097 -0.4294 1.8205 33.374 -0.57418 2.0801 33.776 0.56106 0.044148 35.499 0.70584 -0.21551 35.097 -0.4294 1.8205 33.374 -0.57418 2.0801 33.776</float_array>
          <technique_common><accessor source="#lightning_3-positions-array" count="656" stride="3"><param name="X" type="float"/><param name="Y" type="float"/><param name="Z" type="float"/></accessor></technique_common>
        </source>
        <source id="lightning_3-normals">
          <float_array id="lightning_3-normals-array" count="1968">0.81717 0.47488 -0.3267 0.81717 0.47488 -0.3267 0.81717 0.47488 -0.3267 0.81717 0.47488 -0.3267 -0.81717 -0.47488 0.3267 -0.81717 -0.47488 0.3267 -0.81717 -0.47488 0.3267 -0.81717 -0.47488 0.3267 0.50245 -0.86461 -2.7756e-17 0.50245 -0.86461 -2.7756e-17 0.50245 -0.86461 -2.7756e-17 0.50245 -0.86461 -2.7756e-17 -0.50245 0.86461 2.7756e-17 -0.50245 0.86461 2.7756e-17 -0.50245 0.86461 2.7756e-17 -0.50245 0.86461 2.7756e-17 -0.30596 0.87868 -0.36648 -0.30596 0.87868 -0.36648 -0.30596 0.87868 -0.36648 -0.30596 0.87868 -0.36648 0.30596 -0.87868 0.36648 0.30596 -0.87868 0.36648 0.30596 -0.87868 0.36648 0.30596 -0.87868 0.36648 0.94439 0.32883 0 0.94439 0.32883 0 0.94439 0.32883 0 0.94439 0.32883 0 -0.94439 -0.32883 -0 -0.94439 -0.32883 -0 -0.94439 -0.32883 -0 -0.94439 -0.32883 -0 0.6341 0.61078 -0.4742 0.6341 0.61078 -0.4742 0.6341 0.61078 -0.4742 0.6341 0.61078 -0.4742 -0.6341 -0.61078 0.4742 -0.6341 -0.61078 0.4742 -0.6341 -0.61078 0.4742 -0.6341 -0.61078 0.4742 0.69374 -0.72022 0 0.69374 -0.72022 0 0.69374 -0.72022 0 0.69374 -0.72022 0 -0.69374 0.72022 -0 -0.69374 0.72022 -0 -0.69374 0.72022 -0 -0.69374 0.72022 -0 -0.2772 0.80353 -0.52679 -0.2772 0.80353 -0.52679 -0.2772 0.80353 -0.52679 -0.2772 0.80353 -0.52679 0.2772 -0.80353 0.52679 0.2772 -0.80353 0.52679 0.2772 -0.80353 0.52679 0.2772 -0.80353 0.52679 0.94533 0.32612 0 0.94533 0.32612 0 0.94533 0.32612 0 0.94533 0.32612 0 -0.94533 -0.32612 -0 -0.94533 -0.32612 -0 -0.94533 -0.32612 -0 -0.94533 -0.32612 -0 0.61683 -0.58193 -0.52997 0.61683 -0.58193 -0.52997 0.61683 -0.58193 -0.52997 0.61683 -0.58193 -0.52997 -0.61683 0.58193 0.52997 -0.61683 0.58193 0.52997 -0.61683 0.58193 0.52997 -0.61683 0.58193 0.52997 -0.68623 -0.72738 0 -0.68623 -0.72738 0 -0.68623 -0.72738 0 -0.68623 -0.72738 0 0.68623 0.72738 -0 0.68623 0.72738 -0 0.68623 0.72738 -0 0.68623 0.72738 -0 0.13395 0.53435 -0.83458 0.13395 0.53435 -0.83458 0.13395 0.53435 -0.83458 0.13395 0.53435 -0.83458 -0.13395 -0.53435 0.83458 -0.13395 -0.53435 0.83458 -0.13395 -0.53435 0.83458 -0.13395 -0.53435 0.83458 0.96999 -0.24315 1.3878e-17 0.96999 -0.24315 1.3878e-17 0.96999 -0.24315 1.3878e-17 0.96999 -0.24315 1.3878e-17 -0.96999 0.24315 -1.3878e-17 -0.96999 0.24315 -1.3878e-17 -0.96999 0.24315 -1.3878e-17 -0.96999 0.24315 -1.3878e-17 -0.95982 0.083701 -0.26784 -0.95982 0.083701 -0.26784 -0.95982 0.083701 -0.26784 -0.95982 0.083701 -0.26784 0.95982 -0.083701 0.26784 0.95982 -0.083701 0.26784 0.95982 -0.083701 0.26784 0.95982 -0.083701 0.26784 0.086875 0.99622 0 0.086875 0.99622 0 0.086875 0.99622 0 0.086875 0.99622 0 -0.086875 -0.99622 -0 -0.086875 -0.99622 -0 -0.086875 -0.99622 -0 -0.086875 -0.99622 -0 -0.4413 0.61171 -0.65656 -0.4413 0.61171 -0.65656 -0.4413 0.61171 -0.65656 -0.4413 0.61171 -0.65656 0.4413 -0.61171 0.65656 0.4413 -0.61171 0.65656 0.4413 -0.61171 0.65656 0.4413 -0.61171 0.65656 0.81099 0.58506 0 0.81099 0.58506 0 0.81099 0.58506 0 0.81099 0.58506 0 -0.81099 -0.58506 -0 -0.81099 -0.58506 -0 -0.81099 -0.58506 -0 -0.81099 -0.58506 -0 -0.73675 0.22949 -0.63603 -0.73675 0.22949 -0.63603 -0.73675 0.22949 -0.63603 -0.73675 0.22949 -0.63603 0.73675 -0.22949 0.63603 0.73675 -0.22949 0.63603 0.73675 -0.22949 0.63603 0.73675 -0.22949 0.63603 0.2974 0.95475 0 0.2974 0.95475 0 0.2974 0.95475 0 0.2974 0.95475 0 -0.2974 -0.95475 -0 -0.2974 -0.95475 -0 -0.2974 -0.95475 -0 -0.2974 -0.95475 -0 0.08459 -0.93068 -0.35593 0.08459 -0.93068 -0.35593 0.08459 -0.93068 -0.35593 0.08459 -0.93068 -0.35593 -0.08459 0.93068 0.35593 -0.08459 0.93068 0.35593 -0.08459 0.93068 0.35593 -0.08459 0.93068 0.35593 -0.99589 -0.090518 3.4694e-18 -0.99589 -0.090518 3.4694e-18 -0.99589 -0.090518 3.4694e-18 -0.99589 -0.090518 3.4694e-18 0.99589 0.090518 -3.4694e-18 0.99589 0.090518 -3.4694e-18 0.99589 0.090518 -3.4694e-18 0.99589 0.090518 -3.4694e-18 0.36637 -0.81838 -0.44276 0.36637 -0.81838 -0.44276 0.36637 -0.81838 -0.44276 0.36637 -0.81838 -0.44276 -0.36637 0.81838 0.44276 -0.36637 0.81838 0.44276 -0.36637 0.81838 0.44276 -0.36637 0.81838 0.44276 -0.91271 -0.4086 0 -0.91271 -0.4086 0 -0.91271 -0.4086 0 -0.91271 -0.4086 0 0.91271 0.4086 -0 0.91271 0.4086 -0 0.91271 0.4086 -0 0.91271 0.4086 -0 0.82439 -0.32478 -0.46358 0.82439 -0.32478 -0.46358 0.82439 -0.32478 -0.46358 0.82439 -0.32478 -0.46358 -0.82439 0.32478 0.46358 -0.82439 0.32478 0.46358 -0.82439 0.32478 0.46358 -0.82439 0.32478 0.46358 -0.36655 -0.9304 0 -0.36655 -0.9304 0 -0.36655 -0.9304 0 -0.36655 -0.9304 0 0.36655 0.9304 -0 0.36655 0.9304 -0 0.36655 0.9304 -0 0.36655 0.9304 -0 -0.24051 -0.83101 -0.50157 -0.24051 -0.83101 -0.50157 -0.24051 -0.83101 -0.50157 -0.24051 -0.83101 -0.50157 0.24051 0.83101 0.50157 0.24051 0.83101 0.50157 0.24051 0.83101 0.50157 0.24051 0.83101 0.50157 -0.96058 0.27801 0 -0.96058 0.27801 0 -0.96058 0.27801 0 -0.96058 0.27801 0 0.96058 -0.27801 -0 0.96058 -0.27801 -0 0.96058 -0.27801 -0 0.96058 -0.27801 -0 0.9098 0.30159 -0.28516 0.9098 0.30159 -0.28516 0.9098 0.30159 -0.28516 0.9098 0.30159 -0.28516 -0.9098 -0.30159 0.28516 -0.9098 -0.30159 0.28516 -0.9098 -0.30159 0.28516 -0.9098 -0.30159 0.28516 0.31465 -0.94921 0 0.31465 -0.94921 0 0.31465 -0.94921 0 0.31465 -0.94921 0 -0.31465 0.94921 -0 -0.31465 0.94921 -0 -0.31465 0.94921 -0 -0.31465 0.94921 -0 0.76665 0.094497 -0.63507 0.76665 0.094497 -0.63507 0.76665 0.094497 -0.63507 0.76665 0.094497 -0.63507 -0.76665 -0.094497 0.63507 -0.76665 -0.094497 0.63507 -0.76665 -0.094497 0.63507 -0.76665 -0.094497 0.63507 0.12233 -0.99249 -6.9389e-18 0.12233 -0.99249 -6.9389e-18 0.12233 -0.99249 -6.9389e-18 0.12233 -0.99249 -6.9389e-18 -0.12233 0.99249 6.9389e-18 -0.12233 0.99249 6.9389e-18 -0.12233 0.99249 6.9389e-18 -0.12233 0.99249 6.9389e-18 -0.33941 0.91759 -0.20697 -0.33941 0.91759 -0.20697 -0.33941 0.91759 -0.20697 -0.33941 0.91759 -0.20697 0.33941 -0.91759 0.20697 0.33941 -0.91759 0.20697 0.33941 -0.91759 0.20697 0.33941 -0.91759 0.20697 0.93789 0.34692 0 0.93789 0.34692 0 0.93789 0.34692 0 0.93789 0.34692 0 -0.93789 -0.34692 -0 -0.93789 -0.34692 -0 -0.93789 -0.34692 -0 -0.93789 -0.34692 -0 -0.74656 -0.6208 -0.23928 -0.74656 -0.6208 -0.23928 -0.74656 -0.6208 -0.23928 -0.74656 -0.6208 -0.23928 0.74656 0.6208 0.23928 0.74656 0.6208 0.23928 0.74656 0.6208 0.23928 0.74656 0.6208 0.23928 -0.63937 0.7689 1.3878e-17 -0.63937 0.7689 1.3878e-17 -0.63937 0.7689 1.3878e-17 -0.63937 0.7689 1.3878e-17 0.63937 -0.7689 -1.3878e-17 0.63937 -0.7689 -1.3878e-17 0.63937 -0.7689 -1.3878e-17 0.63937 -0.7689 -1.3878e-17 0.73585 -0.42229 -0.52934 0.73585 -0.42229 -0.52934 0.73585 -0.42229 -0.52934 0.73585 -0.42229 -0.52934 -0.73585 0.42229 0.52934 -0.73585 0.42229 0.52934 -0.73585 0.42229 0.52934 -0.73585 0.42229 0.52934 -0.49774 -0.86733 -5.5511e-17 -0.49774 -0.86733 -5.5511e-17 -0.49774 -0.86733 -5.5511e-17 -0.49774 -0.86733 -5.5511e-17 0.49774 0.86733 5.5511e-17 0.49774 0.86733 5.5511e-17 0.49774 0.86733 5.5511e-17 0.49774 0.86733 5.5511e-17 -0.73892 -0.5338 -0.41116 -0.73892 -0.5338 -0.41116 -0.73892 -0.5338 -0.41116 -0.73892 -0.5338 -0.41116 0.73892 0.5338 0.41116 0.73892 0.5338 0.41116 0.73892 0.5338 0.41116 0.73892 0.5338 0.41116 -0.58559 0.81061 0 -0.58559 0.81061 0 -0.58559 0.81061 0 -0.58559 0.81061 0 0.58559 -0.81061 -0 0.58559 -0.81061 -0 0.58559 -0.81061 -0 0.58559 -0.81061 -0 -0.14915 -0.95172 -0.2683 -0.14915 -0.95172 -0.2683 -0.14915 -0.95172 -0.2683 -0.14915 -0.95172 -0.2683 0.14915 0.95172 0.2683 0.14915 0.95172 0.2683 0.14915 0.95172 0.2683 0.14915 0.95172 0.2683 -0.98794 0.15483 6.9389e-18 -0.98794 0.15483 6.9389e-18 -0.98794 0.15483 6.9389e-18 -0.98794 0.15483 6.9389e-18 0.98794 -0.15483 -6.9389e-18 0.98794 -0.15483 -6.9389e-18 0.98794 -0.15483 -6.9389e-18 0.98794 -0.15483 -6.9389e-18 0.68896 -0.57974 -0.43502 0.68896 -0.57974 -0.43502 0.68896 -0.57974 -0.43502 0.68896 -0.57974 -0.43502 -0.68896 0.57974 0.43502 -0.68896 0.57974 0.43502 -0.68896 0.57974 0.43502 -0.68896 0.57974 0.43502 -0.64385 -0.76515 0 -0.64385 -0.76515 0 -0.64385 -0.76515 0 -0.64385 -0.76515 0 0.64385 0.76515 -0 0.64385 0.76515 -0 0.64385 0.76515 -0 0.64385 0.76515 -0 -0.59978 0.56943 -0.56216 -0.59978 0.56943 -0.56216 -0.59978 0.56943 -0.56216 -0.59978 0.56943 -0.56216 0.59978 -0.56943 0.56216 0.59978 -0.56943 0.56216 0.59978 -0.56943 0.56216 0.59978 -0.56943 0.56216 0.68852 0.72522 5.5511e-17 0.68852 0.72522 5.5511e-17 0.68852 0.72522 5.5511e-17 0.68852 0.72522 5.5511e-17 -0.68852 -0.72522 -5.5511e-17 -0.68852 -0.72522 -5.5511e-17 -0.68852 -0.72522 -5.5511e-17 -0.68852 -0.72522 -5.5511e-17 0.01052 -0.92644 -0.37629 0.01052 -0.92644 -0.37629 0.01052 -0.92644 -0.37629 0.01052 -0.92644 -0.37629 -0.01052 0.92644 0.37629 -0.01052 0.92644 0.37629 -0.01052 0.92644 0.37629 -0.01052 0.92644 0.37629 -0.99994 -0.011355 0 -0.99994 -0.011355 0 -0.99994 -0.011355 0 -0.99994 -0.011355 0 0.99994 0.011355 -0 0.99994 0.011355 -0 0.99994 0.011355 -0 0.99994 0.011355 -0 0.89162 -0.27162 -0.36227 0.89162 -0.27162 -0.36227 0.89162 -0.27162 -0.36227 0.89162 -0.27162 -0.36227 -0.89162 0.27162 0.36227 -0.89162 0.27162 0.36227 -0.89162 0.27162 0.36227 -0.89162 0.27162 0.36227 -0.29141 -0.9566 1.3878e-17 -0.29141 -0.9566 1.3878e-17 -0.29141 -0.9566 1.3878e-17 -0.29141 -0.9566 1.3878e-17 0.29141 0.9566 -1.3878e-17 0.29141 0.9566 -1.3878e-17 0.29141 0.9566 -1.3878e-17 0.29141 0.9566 -1.3878e-17 0.49809 0.089532 -0.86249 0.49809 0.089532 -0.86249 0.49809 0.089532 -0.86249 0.49809 0.089532 -0.86249 -0.49809 -0.089532 0.86249 -0.49809 -0.089532 0.86249 -0.49809 -0.089532 0.86249 -0.49809 -0.089532 0.86249 0.17692 -0.98423 0 0.17692 -0.98423 0 0.17692 -0.98423 0 0.17692 -0.98423 0 -0.17692 0.98423 -0 -0.17692 0.98423 -0 -0.17692 0.98423 -0 -0.17692 0.98423 -0 0.7797 -0.32804 -0.53335 0.7797 -0.32804 -0.53335 0.7797 -0.32804 -0.53335 0.7797 -0.32804 -0.53335 -0.7797 0.32804 0.53335 -0.7797 0.32804 0.53335 -0.7797 0.32804 0.53335 -0.7797 0.32804 0.53335 -0.3878 -0.92174 2.7756e-17 -0.3878 -0.92174 2.7756e-17 -0.3878 -0.92174 2.7756e-17 -0.3878 -0.92174 2.7756e-17 0.3878 0.92174 -2.7756e-17 0.3878 0.92174 -2.7756e-17 0.3878 0.92174 -2.7756e-17 0.3878 0.92174 -2.7756e-17 0.85367 0.079853 -0.51466 0.85367 0.079853 -0.51466 0.85367 0.079853 -0.51466 0.85367 0.079853 -0.51466 -0.85367 -0.079853 0.51466 -0.85367 -0.079853 0.51466 -0.85367 -0.079853 0.51466 -0.85367 -0.079853 0.51466 0.093135 -0.99565 0 0.093135 -0.99565 0 0.093135 -0.99565 0 0.093135 -0.99565 0 -0.093135 0.99565 -0 -0.093135 0.99565 -0 -0.093135 0.99565 -0 -0.093135 0.99565 -0 0.18135 -0.82055 -0.54204 0.18135 -0.82055 -0.54204 0.18135 -0.82055 -0.54204 0.18135 -0.82055 -0.54204 -0.18135 0.82055 0.54204 -0.18135 0.82055 0.54204 -0.18135 0.82055 0.54204 -0.18135 0.82055 0.54204 -0.97644 -0.21581 0 -0.97644 -0.21581 0 -0.97644 -0.21581 0 -0.97644 -0.21581 0 0.97644 0.21581 -0 0.97644 0.21581 -0 0.97644 0.21581 -0 0.97644 0.21581 -0 0.093691 -0.83218 -0.54654 0.093691 -0.83218 -0.54654 0.093691 -0.83218 -0.54654 0.093691 -0.83218 -0.54654 -0.093691 0.83218 0.54654 -0.093691 0.83218 0.54654 -0.093691 0.83218 0.54654 -0.093691 0.83218 0.54654 -0.99372 -0.11188 0 -0.99372 -0.11188 0 -0.99372 -0.11188 0 -0.99372 -0.11188 0 0.99372 0.11188 -0 0.99372 0.11188 -0 0.99372 0.11188 -0 0.99372 0.11188 -0 -0.2545 -0.88684 -0.38568 -0.2545 -0.88684 -0.38568 -0.2545 -0.88684 -0.38568 -0.2545 -0.88684 -0.38568 0.2545 0.88684 0.38568 0.2545 0.88684 0.38568 0.2545 0.88684 0.38568 0.2545 0.88684 0.38568 -0.9612 0.27584 0 -0.9612 0.27584 0 -0.9612 0.27584 0 -0.9612 0.27584 0 0.9612 -0.27584 -0 0.9612 -0.27584 -0 0.9612 -0.27584 -0 0.9612 -0.27584 -0 0.24683 0.45517 -0.85551 0.24683 0.45517 -0.85551 0.24683 0.45517 -0.85551 0.24683 0.45517 -0.85551 -0.24683 -0.45517 0.85551 -0.24683 -0.45517 0.85551 -0.24683 -0.45517 0.85551 -0.24683 -0.45517 0.85551 0.87907 -0.4767 2.7756e-17 0.87907 -0.4767 2.7756e-17 0.87907 -0.4767 2.7756e-17 0.87907 -0.4767 2.7756e-17 -0.87907 0.4767 -2.7756e-17 -0.87907 0.4767 -2.7756e-17 -0.87907 0.4767 -2.7756e-17 -0.87907 0.4767 -2.7756e-17 0.27158 0.26248 -0.92593 0.27158 0.26248 -0.92593 0.27158 0.26248 -0.92593 0.27158 0.26248 -0.92593 -0.27158 -0.26248 0.92593 -0.27158 -0.26248 0.92593 -0.27158 -0.26248 0.92593 -0.27158 -0.26248 0.92593 0.69496 -0.71905 -2.7756e-17 0.69496 -0.71905 -2.7756e-17 0.69496 -0.71905 -2.7756e-17 0.69496 -0.71905 -2.7756e-17 -0.69496 0.71905 2.7756e-17 -0.69496 0.71905 2.7756e-17 -0.69496 0.71905 2.7756e-17 -0.69496 0.71905 2.7756e-17 0.37754 0.44156 -0.81394 0.37754 0.44156 -0.81394 0.37754 0.44156 -0.81394 0.37754 0.44156 -0.81394 -0.37754 -0.44156 0.81394 -0.37754 -0.44156 0.81394 -0.37754 -0.44156 0.81394 -0.37754 -0.44156 0.81394 0.76006 -0.64985 0 0.76006 -0.64985 0 0.76006 -0.64985 0 0.76006 -0.64985 0 -0.76006 0.64985 -0 -0.76006 0.64985 -0 -0.76006 0.64985 -0 -0.76006 0.64985 -0 0.48294 0.06392 -0.87332 0.48294 0.06392 -0.87332 0.48294 0.06392 -0.87332 0.48294 0.06392 -0.87332 -0.48294 -0.06392 0.87332 -0.48294 -0.06392 0.87332 -0.48294 -0.06392 0.87332 -0.48294 -0.06392 0.87332 0.13121 -0.99135 0 0.13121 -0.99135 0 0.13121 -0.99135 0 0.13121 -0.99135 0 -0.13121 0.99135 -0 -0.13121 0.99135 -0 -0.13121 0.99135 -0 -0.13121 0.99135 -0 0.40933 0.090705 -0.90787 0.40933 0.090705 -0.90787 0.40933 0.090705 -0.90787 0.40933 0.090705 -0.90787 -0.40933 -0.090705 0.90787 -0.40933 -0.090705 0.90787 -0.40933 -0.090705 0.90787 -0.40933 -0.090705 0.90787 0.21634 -0.97632 1.3878e-17 0.21634 -0.97632 1.3878e-17 0.21634 -0.97632 1.3878e-17 0.21634 -0.97632 1.3878e-17 -0.21634 0.97632 -1.3878e-17 -0.21634 0.97632 -1.3878e-17 -0.21634 0.97632 -1.3878e-17 -0.21634 0.97632 -1.3878e-17 0.48567 -0.37757 -0.7884 0.48567 -0.37757 -0.7884 0.48567 -0.37757 -0.7884 0.48567 -0.37757 -0.7884 -0.48567 0.37757 0.7884 -0.48567 0.37757 0.7884 -0.48567 0.37757 0.7884 -0.48567 0.37757 0.7884 -0.61377 -0.78948 0 -0.61377 -0.78948 0 -0.61377 -0.78948 0 -0.61377 -0.78948 0 0.61377 0.78948 -0 0.61377 0.78948 -0 0.61377 0.78948 -0 0.61377 0.78948 -0 0.62279 -0.62342 -0.47273 0.62279 -0.62342 -0.47273 0.62279 -0.62342 -0.47273 0.62279 -0.62342 -0.47273 -0.62279 0.62342 0.47273 -0.62279 0.62342 0.47273 -0.62279 0.62342 0.47273 -0.62279 0.62342 0.47273 -0.70746 -0.70675 -2.7756e-17 -0.70746 -0.70675 -2.7756e-17 -0.70746 -0.70675 -2.7756e-17 -0.70746 -0.70675 -2.7756e-17 0.70746 0.70675 2.7756e-17 0.70746 0.70675 2.7756e-17 0.70746 0.70675 2.7756e-17 0.70746 0.70675 2.7756e-17 0.39293 -0.48576 -0.7808 0.39293 -0.48576 -0.7808 0.39293 -0.48576 -0.7808 0.39293 -0.48576 -0.7808 -0.39293 0.48576 0.7808 -0.39293 0.48576 0.7808 -0.39293 0.48576 0.7808 -0.39293 0.48576 0.7808 -0.77748 -0.62891 0 -0.77748 -0.62891 0 -0.77748 -0.62891 0 -0.77748 -0.62891 0 0.77748 0.62891 -0 0.77748 0.62891 -0 0.77748 0.62891 -0 0.77748 0.62891 -0 -0.4683 -0.7982 -0.37891 -0.4683 -0.7982 -0.37891 -0.4683 -0.7982 -0.37891 -0.4683 -0.7982 -0.37891 0.4683 0.7982 0.37891 0.4683 0.7982 0.37891 0.4683 0.7982 0.37891 0.4683 0.7982 0.37891 -0.86251 0.50603 -2.7756e-17 -0.86251 0.50603 -2.7756e-17 -0.86251 0.50603 -2.7756e-17 -0.86251 0.50603 -2.7756e-17 0.86251 -0.50603 2.7756e-17 0.86251 -0.50603 2.7756e-17 0.86251 -0.50603 2.7756e-17 0.86251 -0.50603 2.7756e-17 0.48843 -0.41059 -0.76997 0.48843 -0.41059 -0.76997 0.48843 -0.41059 -0.76997 0.48843 -0.41059 -0.76997 -0.48843 0.41059 0.76997 -0.48843 0.41059 0.76997 -0.48843 0.41059 0.76997 -0.48843 0.41059 0.76997 -0.64348 -0.76546 0 -0.64348 -0.76546 0 -0.64348 -0.76546 0 -0.64348 -0.76546 0 0.64348 0.76546 -0 0.64348 0.76546 -0 0.64348 0.76546 -0 0.64348 0.76546 -0 0.28956 -0.51931 -0.80404 0.28956 -0.51931 -0.80404 0.28956 -0.51931 -0.80404 0.28956 -0.51931 -0.80404 -0.28956 0.51931 0.80404 -0.28956 0.51931 0.80404 -0.28956 0.51931 0.80404 -0.28956 0.51931 0.80404 -0.8734 -0.487 0 -0.8734 -0.487 0 -0.8734 -0.487 0 -0.8734 -0.487 0 0.8734 0.487 -0 0.8734 0.487 -0 0.8734 0.487 -0 0.8734 0.487 -0</float_array>
          <technique_common><accessor source="#lightning_3-normals-array" count="656" stride="3"><param name="X" type="float"/><param name="Y" type="float"/><param name="Z" type="float"/></accessor></technique_common>
        </source>
        <source id="lightning_3-map-0">
          <float_array id="lightning_3-map-0-array" count="1312">0 0 1 0 1 1 0 1 0 0 1 0 1 1 0 1 0 0 1 0 1 1 0 1 0 0 1 0 1 1 0 1 0 0 1 0 1 1 0 1 0 0 1 0 1 1 0 1 0 0 1 0 1 1 0 1 0 0 1 0 1 1 0 1 0 0 1 0 1 1 0 1 0 0 1 0 1 1 0 1 0 0 1 0 1 1 0 1 0 0 1 0 1 1 0 1 0 0 1 0 1 1 0 1 0 0 1 0 1 1 0 1 0 0 1 0 1 1 0 1 0 0 1 0 1 1 0 1 0 0 1 0 1 1 0 1 0 0 1 0 1 1 0 1 0 0 1 0 1 1 0 1 0 0 1 0 1 1 0 1 0 0 1 0 1 1 0 1 0 0 1 0 1 1 0 1 0 0 1 0 1 1 0 1 0 0 1 0 1 1 0 1 0 0 1 0 1 1 0 1 0 0 1 0 1 1 0 1 0 0 1 0 1 1 0 1 0 0 1 0 1 1 0 1 0 0 1 0 1 1 0 1 0 0 1 0 1 1 0 1 0 0 1 0 1 1 0 1 0 0 1 0 1 1 0 1 0 0 1 0 1 1 0 1 0 0 1 0 1 1 0 1 0 0 1 0 1 1 0 1 0 0 1 0 1 1 0 1 0 0 1 0 1 1 0 1 0 0 1 0 1 1 0 1 0 0 1 0 1 1 0 1 0 0 1 0 1 1 0 1 0 0 1 0 1 1 0 1 0 0 1 0 1 1 0 1 0 0 1 0 1 1 0 1 0 0 1 0 1 1 0 1 0 0 1 0 1 1 0 1 0 0 1 0 1 1 0 1 0 0 1 0 1 1 0 1 0 0 1 0 1 1 0 1 0 0 1 0 1 1 0 1 0 0 1 0 1 1 0 1 0 0 1 0 1 1 0 1 0 0 1 0 1 1 0 1 0 0 1 0 1 1 0 1 0 0 1 0 1 1 0 1 0 0 1 0 1 1 0 1 0 0 1 0 1 1 0 1 0 0 1 0 1 1 0 1 0 0 1 0 1 1 0 1 0 0 1 0 1 1 0 1 0 0 1 0 1 1 0 1 0 0 1 0 1 1 0 1 0 0 1 0 1 1 0 1 0 0 1 0 1 1 0 1 0 0 1 0 1 1 0 1 0 0 1 0 1 1 0 1 0 0 1 0 1 1 0 1 0 0 1 0 1 1 0 1 0 0 1 0 1 1 0 1 0 0 1 0 1 1 0 1 0 0 1 0 1 1 0 1 0 0 1 0 1 1 0 1 0 0 1 0 1 1 0 1 0 0 1 0 1 1 0 1 0 0 1 0 1 1 0 1 0 0 1 0 1 1 0 1 0 0 1 0 1 1 0 1 0 0 1 0 1 1 0 1 0 0 1 0 1 1 0 1 0 0 1 0 1 1 0 1 0 0 1 0 1 1 0 1 0 0 1 0 1 1 0 1 0 0 1 0 1 1 0 1 0 0 1 0 1 1 0 1 0 0 1 0 1 1 0 1 0 0 1 0 1 1 0 1 0 0 1 0 1 1 0 1 0 0 1 0 1 1 0 1 0 0 1 0 1 1 0 1 0 0 1 0 1 1 0 1 0 0 1 0 1 1 0 1 0 0 1 0 1 1 0 1 0 0 1 0 1 1 0 1 0 0 1 0 1 1 0 1 0 0 1 0 1 1 0 1 0 0 1 0 1 1 0 1 0 0 1 0 1 1 0 1 0 0 1 0 1 1 0 1 0 0 1 0 1 1 0 1 0 0 1 0 1 1 0 1 0 0 1 0 1 1 0 1 0 0 1 0 1 1 0 1 0 0 1 0 1 1 0 1 0 0 1 0 1 1 0 1 0 0 1 0 1 1 0 1 0 0 1 0 1 1 0 1 0 0 1 0 1 1 0 1 0 0 1 0 1 1 0 1 0 0 1 0 1 1 0 1 0 0 1 0 1 1 0 1 0 0 1 0 1 1 0 1 0 0 1 0 1 1 0 1 0 0 1 0 1 1 0 1 0 0 1 0 1 1 0 1 0 0 1 0 1 1 0 1 0 0 1 0 1 1 0 1 0 0 1 0 1 1 0 1 0 0 1 0 1 1 0 1 0 0 1 0 1 1 0 1 0 0 1 0 1 1 0 1 0 0 1 0 1 1 0 1 0 0 1 0 1 1 0 1 0 0 1 0 1 1 0 1 0 0 1 0 1 1 0 1 0 0 1 0 1 1 0 1 0 0 1 0 1 1 0 1 0 0 1 0 1 1 0 1 0 0 1 0 1 1 0 1 0 0 1 0 1 1 0 1 0 0 1 0 1 1 0 1 0 0 1 0 1 1 0 1 0 0 1 0 1 1 0 1 0 0 1 0 1 1 0 1 0 0 1 0 1 1 0 1 0 0 1 0 1 1 0 1 0 0 1 0 1 1 0 1 0 0 1 0 1 1 0 1 0 0 1 0 1 1 0 1 0 0 1 0 1 1 0 1 0 0 1 0 1 1 0 1 0 0 1 0 1 1 0 1 0 0 1 0 1 1 0 1 0 0 1 0 1 1 0 1 0 0 1 0 1 1 0 1 0 0 1 0 1 1 0 1 0 0 1 0 1 1 0 1 0 0 1 0 1 1 0 1 0 0 1 0 1 1 0 1 0 0 1 0 1 1 0 1 0 0 1 0 1 1 0 1 0 0 1 0 1 1 0 1 0 0 1 0 1 1 0 1 0 0 1 0 1 1 0 1 0 0 1 0 1 1 0 1 0 0 1 0 1 1 0 1 0 0 1 0 1 1 0 1 0 0 1 0 1 1 0 1 0 0 1 0 1 1 0 1 0 0 1 0 1 1 0 1 0 0 1 0 1 1 0 1 0 0 1 0 1 1 0 1 0 0 1 0 1 1 0 1 0 0 1 0 1 1 0 1 0 0 1 0 1 1 0 1 0 0 1 0 1 1 0 1</float_array>
          <technique_common><accessor source="#lightning_3-map-0-array" count="656" stride="2"><param name="S" type="float"/><param name="T" type="float"/></accessor></technique_common>
        </source>
        <vertices id="lightning_3-vertices"><input semantic="POSITION" source="#lightning_3-positions"/></vertices>
        <triangles material="lightning_3-material" count="328">
          <input semantic="VERTEX" source="#lightning_3-vertices" offset="0"/>
          <input semantic="NORMAL" source="#lightning_3-normals" offset="1"/>
          <input semantic="TEXCOORD" source="#lightning_3-map-0" offset="2" set="0"/>
          <p>0 0 0 1 1 1 2 2 2 0 0 0 2 2 2 3 3 3 4 4 4 6 6 6 5 5 5 4 4 4 7 7 7 6 6 6 8 8 8 9 9 9 10 10 10 8 8 8 10 10 10 11 11 11 12 12 12 14 14 14 13 13 13 12 12 12 15 15 15 14 14 14 16 16 16 17 17 17 18 18 18 16 16 16 18 18 18 19 19 19 20 20 20 22 22 22 21 21 21 20 20 20 23 23 23 22 22 22 24 24 24 25 25 25 26 26 26 24 24 24 26 26 26 27 27 27 28 28 28 30 30 30 29 29 29 28 28 28 31 31 31 30 30 30 32 32 32 33 33 33 34 34 34 32 32 32 34 34 34 35 35 35 36 36 36 38 38 38 37 37 37 36 36 36 39 39 39 38 38 38 40 40 40 41 41 41 42 42 42 40 40 40 42 42 42 43 43 43 44 44 44 46 46 46 45 45 45 44 44 44 47 47 47 46 46 46 48 48 48 49 49 49 50 50 50 48 48 48 50 50 50 51 51 51 52 52 52 54 54 54 53 53 53 52 52 52 55 55 55 54 54 54 56 56 56 57 57 57 58 58 58 56 56 56 58 58 58 59 59 59 60 60 60 62 62 62 61 61 61 60 60 60 63 63 63 62 62 62 64 64 64 65 65 65 66 66 66 64 64 64 66 66 66 67 67 67 68 68 68 70 70 70 69 69 69 68 68 68 71 71 71 70 70 70 72 72 72 73 73 73 74 74 74 72 72 72 74 74 74 75 75 75 76 76 76 78 78 78 77 77 77 76 76 76 79 79 79 78 78 78 80 80 80 81 81 81 82 82 82 80 80 80 82 82 82 83 83 83 84 84 84 86 86 86 85 85 85 84 84 84 87 87 87 86 86 86 88 88 88 89 89 89 90 90 90 88 88 88 90 90 90 91 91 91 92 92 92 94 94 94 93 93 93 92 92 92 95 95 95 94 94 94 96 96 96 97 97 97 98 98 98 96 96 96 98 98 98 99 99 99 100 100 100 102 102 102 101 101 101 100 100 100 103 103 103 102 102 102 104 104 104 105 105 105 106 106 106 104 104 104 106 106 106 107 107 107 108 108 108 110 110 110 109 109 109 108 108 108 111 111 111 110 110 110 112 112 112 113 113 113 114 114 114 112 112 112 114 114 114 115 115 115 116 116 116 118 118 118 117 117 117 116 116 116 119 119 119 118 118 118 120 120 120 121 121 121 122 122 122 120 120 120 122 122 122 123 123 123 124 124 124 126 126 126 125 125 125 124 124 124 127 127 127 126 126 126 128 128 128 129 129 129 130 130 130 128 128 128 130 130 130 131 131 131 132 132 132 134 134 134 133 133 133 132 132 132 135 135 135 134 134 134 136 136 136 137 137 137 138 138 138 136 136 136 138 138 138 139 139 139 140 140 140 142 142 142 141 141 141 140 140 140 143 143 143 142 142 142 144 144 144 145 145 145 146 146 146 144 144 144 146 146 146 147 147 147 148 148 148 150 150 150 149 149 149 148 148 148 151 151 151 150 150 150 152 152 152 153 153 153 154 154 154 152 152 152 154 154 154 155 155 155 156 156 156 158 158 158 157 157 157 156 156 156 159 159 159 158 158 158 160 160 160 161 161 161 162 162 162 160 160 160 162 162 162 163 163 163 164 164 164 166 166 166 165 165 165 164 164 164 167 167 167 166 166 166 168 168 168 169 169 169 170 170 170 168 168 168 170 170 170 171 171 171 172 172 172 174 174 174 173 173 173 172 172 172 175 175 175 174 174 174 176 176 176 177 177 177 178 178 178 176 176 176 178 178 178 179 179 179 180 180 180 182 182 182 181 181 181 180 180 180 183 183 183 182 182 182 184 184 184 185 185 185 186 186 186 184 184 184 186 186 186 187 187 187 188 188 188 190 190 190 189 189 189 188 188 188 191 191 191 190 190 190 192 192 192 193 193 193 194 194 194 192 192 192 194 194 194 195 195 195 196 196 196 198 198 198 197 197 197 196 196 196 199 199 199 198 198 198 200 200 200 201 201 201 202 202 202 200 200 200 202 202 202 203 203 203 204 204 204 206 206 206 205 205 205 204 204 204 207 207 207 206 206 206 208 208 208 209 209 209 210 210 210 208 208 208 210 210 210 211 211 211 212 212 212 214 214 214 213 213 213 212 212 212 215 215 215 214 214 214 216 216 216 217 217 217 218 218 218 216 216 216 218 218 218 219 219 219 220 220 220 222 222 222 221 221 221 220 220 220 223 223 223 222 222 222 224 224 224 225 225 225 226 226 226 224 224 224 226 226 226 227 227 227 228 228 228 230 230 230 229 229 229 228 228 228 231 231 231 230 230 230 232 232 232 233 233 233 234 234 234 232 232 232 234 234 234 235 235 235 236 236 236 238 238 238 237 237 237 236 236 236 239 239 239 238 238 238 240 240 240 241 241 241 242 242 242 240 240 240 242 242 242 243 243 243 244 244 244 246 246 246 245 245 245 244 244 244 247 247 247 246 246 246 248 248 248 249 249 249 250 250 250 248 248 248 250 250 250 251 251 251 252 252 252 254 254 254 253 253 253 252 252 252 255 255 255 254 254 254 256 256 256 257 257 257 258 258 258 256 256 256 258 258 258 259 259 259 260 260 260 262 262 262 261 261 261 260 260 260 263 263 263 262 262 262 264 264 264 265 265 265 266 266 266 264 264 264 266 266 266 267 267 267 268 268 268 270 270 270 269 269 269 268 268 268 271 271 271 270 270 270 272 272 272 273 273 273 274 274 274 272 272 272 274 274 274 275 275 275 276 276 276 278 278 278 277 277 277 276 276 276 279 279 279 278 278 278 280 280 280 281 281 281 282 282 282 280 280 280 282 282 282 283 283 283 284 284 284 286 286 286 285 285 285 284 284 284 287 287 287 286 286 286 288 288 288 289 289 289 290 290 290 288 288 288 290 290 290 291 291 291 292 292 292 294 294 294 293 293 293 292 292 292 295 295 295 294 294 294 296 296 296 297 297 297 298 298 298 296 296 296 298 298 298 299 299 299 300 300 300 302 302 302 301 301 301 300 300 300 303 303 303 302 302 302 304 304 304 305 305 305 306 306 306 304 304 304 306 306 306 307 307 307 308 308 308 310 310 310 309 309 309 308 308 308 311 311 311 310 310 310 312 312 312 313 313 313 314 314 314 312 312 312 314 314 314 315 315 315 316 316 316 318 318 318 317 317 317 316 316 316 319 319 319 318 318 318 320 320 320 321 321 321 322 322 322 320 320 320 322 322 322 323 323 323 324 324 324 326 326 326 325 325 325 324 324 324 327 327 327 326 326 326 328 328 328 329 329 329 330 330 330 328 328 328 330 330 330 331 331 331 332 332 332 334 334 334 333 333 333 332 332 332 335 335 335 334 334 334 336 336 336 337 337 337 338 338 338 336 336 336 338 338 338 339 339 339 340 340 340 342 342 342 341 341 341 340 340 340 343 343 343 342 342 342 344 344 344 345 345 345 346 346 346 344 344 344 346 346 346 347 347 347 348 348 348 350 350 350 349 349 349 348 348 348 351 351 351 350 350 350 352 352 352 353 353 353 354 354 354 352 352 352 354 354 354 355 355 355 356 356 356 358 358 358 357 357 357 356 356 356 359 359 359 358 358 358 360 360 360 361 361 361 362 362 362 360 360 360 362 362 362 363 363 363 364 364 364 366 366 366 365 365 365 364 364 364 367 367 367 366 366 366 368 368 368 369 369 369 370 370 370 368 368 368 370 370 370 371 371 371 372 372 372 374 374 374 373 373 373 372 372 372 375 375 375 374 374 374 376 376 376 377 377 377 378 378 378 376 376 376 378 378 378 379 379 379 380 380 380 382 382 382 381 381 381 380 380 380 383 383 383 382 382 382 384 384 384 385 385 385 386 386 386 384 384 384 386 386 386 387 387 387 388 388 388 390 390 390 389 389 389 388 388 388 391 391 391 390 390 390 392 392 392 393 393 393 394 394 394 392 392 392 394 394 394 395 395 395 396 396 396 398 398 398 397 397 397 396 396 396 399 399 399 398 398 398 400 400 400 401 401 401 402 402 402 400 400 400 402 402 402 403 403 403 404 404 404 406 406 406 405 405 405 404 404 404 407 407 407 406 406 406 408 408 408 409 409 409 410 410 410 408 408 408 410 410 410 411 411 411 412 412 412 414 414 414 413 413 413 412 412 412 415 415 415 414 414 414 416 416 416 417 417 417 418 418 418 416 416 416 418 418 418 419 419 419 420 420 420 422 422 422 421 421 421 420 420 420 423 423 423 422 422 422 424 424 424 425 425 425 426 426 426 424 424 424 426 426 426 427 427 427 428 428 428 430 430 430 429 429 429 428 428 428 431 431 431 430 430 430 432 432 432 433 433 433 434 434 434 432 432 432 434 434 434 435 435 435 436 436 436 438 438 438 437 437 437 436 436 436 439 439 439 438 438 438 440 440 440 441 441 441 442 442 442 440 440 440 442 442 442 443 443 443 444 444 444 446 446 446 445 445 445 444 444 444 447 447 447 446 446 446 448 448 448 449 449 449 450 450 450 448 448 448 450 450 450 451 451 451 452 452 452 454 454 454 453 453 453 452 452 452 455 455 455 454 454 454 456 456 456 457 457 457 458 458 458 456 456 456 458 458 458 459 459 459 460 460 460 462 462 462 461 461 461 460 460 460 463 463 463 462 462 462 464 464 464 465 465 465 466 466 466 464 464 464 466 466 466 467 467 467 468 468 468 470 470 470 469 469 469 468 468 468 471 471 471 470 470 470 472 472 472 473 473 473 474 474 474 472 472 472 474 474 474 475 475 475 476 476 476 478 478 478 477 477 477 476 476 476 479 479 479 478 478 478 480 480 480 481 481 481 482 482 482 480 480 480 482 482 482 483 483 483 484 484 484 486 486 486 485 485 485 484 484 484 487 487 487 486 486 486 488 488 488 489 489 489 490 490 490 488 488 488 490 490 490 491 491 491 492 492 492 494 494 494 493 493 493 492 492 492 495 495 495 494 494 494 496 496 496 497 497 497 498 498 498 496 496 496 498 498 498 499 499 499 500 500 500 502 502 502 501 501 501 500 500 500 503 503 503 502 502 502 504 504 504 505 505 505 506 506 506 504 504 504 506 506 506 507 507 507 508 508 508 510 510 510 509 509 509 508 508 508 511 511 511 510 510 510 512 512 512 513 513 513 514 514 514 512 512 512 514 514 514 515 515 515 516 516 516 518 518 518 517 517 517 516 516 516 519 519 519 518 518 518 520 520 520 521 521 521 522 522 522 520 520 520 522 522 522 523 523 523 524 524 524 526 526 526 525 525 525 524 524 524 527 527 527 526 526 526 528 528 528 529 529 529 530 530 530 528 528 528 530 530 530 531 531 531 532 532 532 534 534 534 533 533 533 532 532 532 535 535 535 534 534 534 536 536 536 537 537 537 538 538 538 536 536 536 538 538 538 539 539 539 540 540 540 542 542 542 541 541 541 540 540 540 543 543 543 542 542 542 544 544 544 545 545 545 546 546 546 544 544 544 546 546 546 547 547 547 548 548 548 550 550 550 549 549 549 548 548 548 551 551 551 550 550 550 552 552 552 553 553 553 554 554 554 552 552 552 554 554 554 555 555 555 556 556 556 558 558 558 557 557 557 556 556 556 559 559 559 558 558 558 560 560 560 561 561 561 562 562 562 560 560 560 562 562 562 563 563 563 564 564 564 566 566 566 565 565 565 564 564 564 567 567 567 566 566 566 568 568 568 569 569 569 570 570 570 568 568 568 570 570 570 571 571 571 572 572 572 574 574 574 573 573 573 572 572 572 575 575 575 574 574 574 576 576 576 577 577 577 578 578 578 576 576 576 578 578 578 579 579 579 580 580 580 582 582 582 581 581 581 580 580 580 583 583 583 582 582 582 584 584 584 585 585 585 586 586 586 584 584 584 586 586 586 587 587 587 588 588 588 590 590 590 589 589 589 588 588 588 591 591 591 590 590 590 592 592 592 593 593 593 594 594 594 592 592 592 594 594 594 595 595 595 596 596 596 598 598 598 597 597 597 596 596 596 599 599 599 598 598 598 600 600 600 601 601 601 602 602 602 600 600 600 602 602 602 603 603 603 604 604 604 606 606 606 605 605 605 604 604 604 607 607 607 606 606 606 608 608 608 609 609 609 610 610 610 608 608 608 610 610 610 611 611 611 612 612 612 614 614 614 613 613 613 612 612 612 615 615 615 614 614 614 616 616 616 617 617 617 618 618 618 616 616 616 618 618 618 619 619 619 620 620 620 622 622 622 621 621 621 620 620 620 623 623 623 622 622 622 624 624 624 625 625 625 626 626 626 624 624 624 626 626 626 627 627 627 628 628 628 630 630 630 629 629 629 628 628 628 631 631 631 630 630 630 632 632 632 633 633 633 634 634 634 632 632 632 634 634 634 635 635 635 636 636 636 638 638 638 637 637 637 636 636 636 639 639 639 638 638 638 640 640 640 641 641 641 642 642 642 640 640 640 642 642 642 643 643 643 644 644 644 646 646 646 645 645 645 644 644 644 647 647 647 646 646 646 648 648 648 649 649 649 650 650 650 648 648 648 650 650 650 651 651 651 652 652 652 654 654 654 653 653 653 652 652 652 655 655 655 654 654 654</p>
        </triangles>
      </mesh>
    </geometry>
  </library_geometries>
  <library_visual_scenes>
    <visual_scene id="Scene" name="Scene">
      <node id="lightning_3" name="lightning_3" type="NODE">
        <matrix sid="transform">1 0 0 0 0 1 0 0 0 0 1 0 0 0 0 1</matrix>
        <instance_geometry url="#lightning_3-mesh" name="lightning_3">
          <bind_material><technique_common><instance_material symbol="lightning_3-material" target="#lightning_3-material"><bind_vertex_input semantic="lightning_3-map-0" input_semantic="TEXCOORD" input_set="0"/></instance_material></technique_common></bind_material>
        </instance_geometry>
      </node>
    </visual_scene>
  </library_visual_scenes>
  <scene><instance_visual_scene url="#Scene"/></scene>
</COLLADA>
