<?xml version="1.0" encoding="utf-8"?>
<COLLADA xmlns="http://www.collada.org/2005/11/COLLADASchema" version="1.4.1">
  <asset>
    <contributor><authoring_tool>mars_wars gen_common.py</authoring_tool></contributor>
    <unit name="meter" meter="1"/>
    <up_axis>Z_UP</up_axis>
  </asset>
  <library_effects>
    <effect id="lightning_2-effect"><profile_COMMON><technique sid="common"><lambert><diffuse><color>1 1 1 1</color></diffuse></lambert></technique></profile_COMMON></effect>
  </library_effects>
  <library_materials>
    <material id="lightning_2-material" name="lightning_2"><instance_effect url="#lightning_2-effect"/></material>
  </library_materials>
  <library_geometries>
    <geometry id="lightning_2-mesh" name="lightning_2">
      <mesh>
        <source id="lightning_2-positions">
          <float_array id="lightning_2-positions-array" count="2304">-3.0172 2.6742 75 -3.3905 1.7464 75 -1.0352 0.79868 71.577 -0.66192 1.7264 71.577 -3.0172 2.6742 75 -3.3905 1.7464 75 -1.0352 0.79868 71.577 -0.66192 1.7264 71.577 -2.8312 2.0604 75.298 -3.5764 2.3602 74.702 -1.2212 1.4125 71.279 -0.476 1.1126 71.874 -2.8312 2.0604 75.298 -3.5764 2.3602 74.702 -1.2212 1.4125 71.279 -0.476 1.1126 71.874 -0.37646 1.0979 71.577 -1.3207 1.4272 71.577 -1.8432 -0.071212 69.165 -0.89894 -0.40047 69.165 -0.37646 1.0979 71.577 -1.3207 1.4272 71.577 -1.8432 -0.071212 69.165 -0.89894 -0.40047 69.165 -0.98611 0.86812 71.851 -0.71105 1.6569 71.302 -1.2335 0.15857 68.89 -1.5086 -0.63025 69.44 -0.98611 0.86812 71.851 -0.71105 1.6569 71.302 -1.2335 0.15857 68.89 -1.5086 -0.63025 69.44 -1.6645 0.16903 69.165 -1.0777 -0.64071 69.165 0.066203 0.18821 66.715 -0.52059 0.99795 66.715 -1.6645 0.16903 69.165 -1.0777 -0.64071 69.165 0.066203 0.18821 66.715 -0.52059 0.99795 66.715 -1.0203 0.018334 69.415 -1.7218 -0.49002 68.915 -0.57794 0.33891 66.465 0.12356 0.84726 66.964 -1.0203 0.018334 69.415 -1.7218 -0.49002 68.915 -0.57794 0.33891 66.465 0.12356 0.84726 66.964 0.22747 0.38503 66.715 -0.68185 0.80113 66.715 -1.4636 -0.90724 63.85 -0.55427 -1.3233 63.85 0.22747 0.38503 66.715 -0.68185 0.80113 66.715 -1.4636 -0.90724 63.85 -0.55427 -1.3233 63.85 -0.40116 0.21289 66.989 -0.05322 0.97327 66.44 -0.83496 -0.7351 63.576 -1.1829 -1.4955 64.124 -0.40116 0.21289 66.989 -0.05322 0.97327 66.44 -0.83496 -0.7351 63.576 -1.1829 -1.4955 64.124 -0.53871 -0.9453 63.85 -1.4791 -1.2853 63.85 -1.0771 -2.3975 61.059 -0.13664 -2.0575 61.059 -0.53871 -0.9453 63.85 -1.4791 -1.2853 63.85 -1.0771 -2.3975 61.059 -0.13664 -2.0575 61.059 -0.85241 -1.5482 64.045 -1.1654 -0.68233 63.655 -0.76338 -1.7945 60.864 -0.45034 -2.6604 61.254 -0.85241 -1.5482 64.045 -1.1654 -0.68233 63.655 -0.76338 -1.7945 60.864 -0.45034 -2.6604 61.254 -0.43655 -1.7574 61.059 -0.77717 -2.6976 61.059 1.1365 -3.3909 58.135 1.4771 -2.4507 58.135 -0.43655 -1.7574 61.059 -0.77717 -2.6976 61.059 1.1365 -3.3909 58.135 1.4771 -2.4507 58.135 -0.22103 -2.3672 61.345 -0.99269 -2.0877 60.773 0.92101 -2.781 57.849 1.6927 -3.0606 58.421 -0.22103 -2.3672 61.345 -0.99269 -2.0877 60.773 0.92101 -2.781 57.849 1.6927 -3.0606 58.421 0.89887 -2.6317 58.135 1.7148 -3.2098 58.135 2.1623 -2.5783 55.534 1.3464 -2.0001 55.534 0.89887 -2.6317 58.135 1.7148 -3.2098 58.135 2.1623 -2.5783 55.534 1.3464 -2.0001 55.534 1.5839 -2.5298 58.278 1.0298 -3.3118 57.992 1.4773 -2.6802 55.391 2.0314 -1.8982 55.676 1.5839 -2.5298 58.278 1.0298 -3.3118 57.992 1.4773 -2.6802 55.391 2.0314 -1.8982 55.676 1.2934 -2.0954 55.534 2.2153 -2.483 55.534 2.9803 -0.66344 52.218 2.0585 -0.27586 52.218 1.2934 -2.0954 55.534 2.2153 -2.483 55.534 2.9803 -0.66344 52.218 2.0585 -0.27586 52.218 1.9209 -1.8931 55.79 1.5878 -2.6853 55.278 2.3529 -0.86571 51.962 2.6859 -0.073589 52.474 1.9209 -1.8931 55.79 1.5878 -2.6853 55.278 2.3529 -0.86571 51.962 2.6859 -0.073589 52.474 2.0861 -0.7192 52.218 2.9527 -0.22011 52.218 2.3389 0.84553 49.045 1.4724 0.34644 49.045 2.0861 -0.7192 52.218 2.9527 -0.22011 52.218 2.3389 0.84553 49.045 1.4724 0.34644 49.045 2.2867 -0.065663 52.399 2.7521 -0.87364 52.037 2.1383 0.19199 48.865 1.673 0.99997 49.226 2.2867 -0.065663 52.399 2.7521 -0.87364 52.037 2.1383 0.19199 48.865 1.673 0.99997 49.226 1.9461 0.097623 49.045 1.8651 1.0943 49.045 1.1373 1.0352 46.183 1.2183 0.038485 46.183 1.9461 0.097623 49.045 1.8651 1.0943 49.045 1.1373 1.0352 46.183 1.2183 0.038485 46.183 1.4227 0.55674 49.169 2.3885 0.63522 48.922 1.6607 0.57608 46.059 0.69491 0.49761 46.306 1.4227 0.55674 49.169 2.3885 0.63522 48.922 1.6607 0.57608 46.059 0.69491 0.49761 46.306 0.79477 0.21546 46.183 1.5608 0.85822 46.183 0.91386 1.6293 43.724 0.14779 0.98657 43.724 0.79477 0.21546 46.183 1.5608 0.85822 46.183 0.91386 1.6293 43.724 0.14779 0.98657 43.724 0.88039 0.89133 46.372 1.4752 0.18236 45.993 0.82825 0.95346 43.534 0.23341 1.6624 43.913 0.88039 0.89133 46.372 1.4752 0.18236 45.993 0.82825 0.95346 43.534 0.23341 1.6624 43.913 0.92501 1.0003 43.724 0.13665 1.6156 43.724 -2.1832 -1.3572 41.017 -1.3948 -1.9724 41.017 0.92501 1.0003 43.724 0.13665 1.6156 43.724 -2.1832 -1.3572 41.017 -1.3948 -1.9724 41.017 0.35147 1.0781 44.13 0.71019 1.5378 43.318 -1.6097 -1.435 40.611 -1.9684 -1.8947 41.424 0.35147 1.0781 44.13 0.71019 1.5378 43.318 -1.6097 -1.435 40.611 -1.9684 -1.8947 41.424 -2.2277 -1.9047 41.017 -1.3503 -1.4249 41.017 -2.3855 0.46829 39.137 -3.2629 -0.011468 39.137 -2.2277 -1.9047 41.017 -1.3503 -1.4249 41.017 -2.3855 0.46829 39.137 -3.2629 -0.011468 39.137 -1.9466 -1.3766 41.394 -1.6314 -1.9531 40.641 -2.6666 -0.059852 38.76 -2.9819 0.51668 39.513 -1.9466 -1.3766 41.394 -1.6314 -1.9531 40.641 -2.6666 -0.059852 38.76 -2.9819 0.51668 39.513 -2.3552 0.055101 39.137 -3.2932 0.40172 39.137 -3.4775 -0.096965 36.134 -2.5395 -0.44359 36.134 -2.3552 0.055101 39.137 -3.2932 0.40172 39.137 -3.4775 -0.096965 36.134 -2.5395 -0.44359 36.134 -2.9949 -0.23341 39.224 -2.6536 0.69023 39.049 -2.8379 0.19154 36.047 -3.1792 -0.7321 36.221 -2.9949 -0.23341 39.224 -2.6536 0.69023 39.049 -2.8379 0.19154 36.047 -3.1792 -0.7321 36.221 -2.929 0.22335 36.134 -3.0881 -0.76391 36.134 -2.722 -0.8229 32.781 -2.5629 0.16436 32.781 -2.929 0.22335 36.134 -3.0881 -0.76391 36.134 -2.722 -0.8229 32.781 -2.5629 0.16436 32.781 -2.5179 -0.34935 36.189 -3.4992 -0.1912 36.079 -3.1331 -0.25019 32.726 -2.1519 -0.40834 32.836 -2.5179 -0.34935 36.189 -3.4992 -0.1912 36.079 -3.1331 -0.25019 32.726 -2.1519 -0.40834 32.836 -2.1527 -0.22877 32.781 -3.1323 -0.42976 32.781 -2.5937 -3.0546 29.935 -1.6141 -2.8536 29.935 -2.1527 -0.22877 32.781 -3.1323 -0.42976 32.781 -2.5937 -3.0546 29.935 -1.6141 -2.8536 29.935 -2.5693 -0.68591 33.124 -2.7157 0.027378 32.439 -2.1771 -2.5975 29.592 -2.0308 -3.3108 30.277 -2.5693 -0.68591 33.124 -2.7157 0.027378 32.439 -2.1771 -2.5975 29.592 -2.0308 -3.3108 30.277 -2.6025 -2.9158 29.935 -1.6054 -2.9924 29.935 -1.4748 -1.2917 26.998 -2.4718 -1.2151 26.998 -2.6025 -2.9158 29.935 -1.6054 -2.9924 29.935 -1.4748 -1.2917 26.998 -2.4718 -1.2151 26.998 -2.0708 -2.5231 30.186 -2.1371 -3.3852 29.684 -2.0064 -1.6845 26.747 -1.9402 -0.82234 27.25 -2.0708 -2.5231 30.186 -2.1371 -3.3852 29.684 -2.0064 -1.6845 26.747 -1.9402 -0.82234 27.25 -1.5284 -1.0252 26.998 -2.4182 -1.4816 26.998 -1.7872 -2.7118 24.067 -0.89743 -2.2555 24.067 -1.5284 -1.0252 26.998 -2.4182 -1.4816 26.998 -1.7872 -2.7118 24.067 -0.89743 -2.2555 24.067 -1.7669 -1.6558 27.212 -2.1797 -0.85102 26.785 -1.5487 -2.0813 23.853 -1.1359 -2.8861 24.28 -1.7669 -1.6558 27.212 -2.1797 -0.85102 26.785 -1.5487 -2.0813 23.853 -1.1359 -2.8861 24.28 -1.7402 -2.1809 24.067 -0.94443 -2.7865 24.067 0.065658 -1.4591 21.113 -0.73012 -0.85355 21.113 -1.7402 -2.1809 24.067 -0.94443 -2.7865 24.067 0.065658 -1.4591 21.113 -0.73012 -0.85355 21.113 -1.0787 -2.1372 24.312 -1.606 -2.8301 23.821 -0.59589 -1.5028 20.867 -0.068573 -0.80988 21.359 -1.0787 -2.1372 24.312 -1.606 -2.8301 23.821 -0.59589 -1.5028 20.867 -0.068573 -0.80988 21.359 -0.64565 -0.76677 21.113 -0.018812 -1.5459 21.113 2.0422 0.1122 17.859 1.4154 0.89135 17.859 -0.64565 -0.76677 21.113 -0.018812 -1.5459 21.113 2.0422 0.1122 17.859 1.4154 0.89135 17.859 -0.029928 -0.91314 21.428 -0.63454 -1.3996 20.797 1.4265 0.25857 17.543 2.0311 0.74499 18.174 -0.029928 -0.91314 21.428 -0.63454 -1.3996 20.797 1.4265 0.25857 17.543 2.0311 0.74499 18.174 1.932 0.044929 17.859 1.5256 0.95863 17.859 -1.6824 -0.4682 14.885 -1.276 -1.3819 14.885 1.932 0.044929 17.859 1.5256 0.95863 17.859 -1.6824 -0.4682 14.885 -1.276 -1.3819 14.885 1.4335 0.37046 18.24 2.024 0.6331 17.477 -1.184 -0.79373 14.504 -1.7745 -1.0564 15.267 1.4335 0.37046 18.24 2.024 0.6331 17.477 -1.184 -0.79373 14.504 -1.7745 -1.0564 15.267 -1.0398 -0.68652 14.885 -1.9186 -1.1636 14.885 -1.7115 -1.5451 11.721 -0.83266 -1.0681 11.721 -1.0398 -0.68652 14.885 -1.9186 -1.1636 14.885 -1.7115 -1.5451 11.721 -0.83266 -1.0681 11.721 -1.2429 -1.3604 14.953 -1.7155 -0.48969 14.817 -1.5084 -0.87126 11.653 -1.0358 -1.742 11.789 -1.2429 -1.3604 14.953 -1.7155 -0.48969 14.817 -1.5084 -0.87126 11.653 -1.0358 -1.742 11.789 -0.93638 -0.93608 11.721 -1.6078 -1.6771 11.721 -0.76383 -2.4418 7.8917 -0.092398 -1.7008 7.8917 -0.93638 -0.93608 11.721 -1.6078 -1.6771 11.721 -0.76383 -2.4418 7.8917 -0.092398 -1.7008 7.8917 -0.91694 -1.6284 11.864 -1.6273 -0.98483 11.579 -0.78328 -1.7495 7.7492 -0.072953 -2.3931 8.0342 -0.91694 -1.6284 11.864 -1.6273 -0.98483 11.579 -0.78328 -1.7495 7.7492 -0.072953 -2.3931 8.0342 -0.90638 -2.2171 7.8917 0.050157 -1.9255 7.8917 -0.35329 -0.60203 4.5599 -1.3098 -0.89362 4.5599 -0.90638 -2.2171 7.8917 0.050157 -1.9255 7.8917 -0.35329 -0.60203 4.5599 -1.3098 -0.89362 4.5599 -0.56276 -1.6296 8.0834 -0.29347 -2.513 7.6999 -0.69691 -1.1895 4.3681 -0.96621 -0.30612 4.7516 -0.56276 -1.6296 8.0834 -0.29347 -2.513 7.6999 -0.69691 -1.1895 4.3681 -0.96621 -0.30612 4.7516 -1.1659 -0.37605 4.5599 -0.49722 -1.1196 4.5599 0.33434 -0.37178 0 -0.33434 0.37178 0 -1.1659 -0.37605 4.5599 -0.49722 -1.1196 4.5599 0.33434 -0.37178 0 -0.33434 0.37178 0 -0.47049 -0.42311 4.679 -1.1926 -1.0725 4.4408 -0.36108 -0.32471 -0.1191 0.36108 0.32471 0.1191 -0.47049 -0.42311 4.679 -1.1926 -1.0725 4.4408 -0.36108 -0.32471 -0.1191 0.36108 0.32471 0.1191 1.9718 0.35489 49.045 1.8395 0.83707 49.045 0.27638 0.40815 47.517 0.40869 -0.074023 47.517 1.9718 0.35489 49.045 1.8395 0.83707 49.045 0.27638 0.40815 47.517 0.40869 -0.074023 47.517 1.7403 0.5506 49.227 2.071 0.64136 48.863 0.50792 0.21245 47.335 0.17716 0.12168 47.699 1.7403 0.5506 49.227 2.071 0.64136 48.863 0.50792 0.21245 47.335 0.17716 0.12168 47.699 0.19206 -0.032576 47.517 0.49302 0.36671 47.517 -2.2269 2.4168 45.62 -2.5278 2.0175 45.62 0.19206 -0.032576 47.517 0.49302 0.36671 47.517 -2.2269 2.4168 45.62 -2.5278 2.0175 45.62 0.24537 0.2403 47.736 0.4397 0.093828 47.299 -2.2802 2.1439 45.401 -2.4745 2.2904 45.838 0.24537 0.2403 47.736 0.4397 0.093828 47.299 -2.2802 2.1439 45.401 -2.4745 2.2904 45.838 -2.5485 2.035 45.62 -2.2062 2.3994 45.62 -3.1445 3.281 43.702 -3.4869 2.9166 43.702 -2.5485 2.035 45.62 -2.2062 2.3994 45.62 -3.1445 3.281 43.702 -3.4869 2.9166 43.702 -2.5286 2.3593 45.759 -2.2261 2.075 45.48 -3.1644 2.9567 43.563 -3.4669 3.2409 43.841 -2.5286 2.3593 45.759 -2.2261 2.075 45.48 -3.1644 2.9567 43.563 -3.4669 3.2409 43.841 -3.4871 2.9169 43.702 -3.1442 3.2808 43.702 -3.6682 3.7746 41.558 -4.0112 3.4107 41.558 -3.4871 2.9169 43.702 -3.1442 3.2808 43.702 -3.6682 3.7746 41.558 -4.0112 3.4107 41.558 -3.4882 3.2614 43.781 -3.1432 2.9363 43.622 -3.6672 3.4301 41.478 -4.0122 3.7552 41.638 -3.4882 3.2614 43.781 -3.1432 2.9363 43.622 -3.6672 3.4301 41.478 -4.0122 3.7552 41.638 -3.6974 3.3871 41.558 -3.982 3.7982 41.558 -5.4363 2.791 39.596 -5.1516 2.3799 39.596 -3.6974 3.3871 41.558 -3.982 3.7982 41.558 -5.4363 2.791 39.596 -5.1516 2.3799 39.596 -3.9923 3.4869 41.725 -3.6871 3.6983 41.391 -5.1413 2.6912 39.429 -5.4466 2.4798 39.763 -3.9923 3.4869 41.725 -3.6871 3.6983 41.391 -5.1413 2.6912 39.429 -5.4466 2.4798 39.763 -5.3405 2.3398 39.596 -5.2474 2.8311 39.596 -8.3365 3.4161 37.87 -8.4296 2.9248 37.87 -5.3405 2.3398 39.596 -5.2474 2.8311 39.596 -8.3365 3.4161 37.87 -8.4296 2.9248 37.87 -5.4122 2.6079 39.815 -5.1757 2.5631 39.377 -8.2648 3.1481 37.651 -8.5013 3.1929 38.089 -5.4122 2.6079 39.815 -5.1757 2.5631 39.377 -8.2648 3.1481 37.651 -8.5013 3.1929 38.089 1.3533 0.3588 46.183 1.0023 0.71489 46.183 0.2783 0.0012092 44.693 0.6293 -0.35488 44.693 1.3533 0.3588 46.183 1.0023 0.71489 46.183 0.2783 0.0012092 44.693 0.6293 -0.35488 44.693 1.0307 0.39187 46.324 1.3249 0.68181 46.042 0.60087 -0.031861 44.552 0.30673 -0.32181 44.834 1.0307 0.39187 46.324 1.3249 0.68181 46.042 0.60087 -0.031861 44.552 0.30673 -0.32181 44.834 0.33898 -0.39891 44.693 0.56862 0.045238 44.693 -1.895 1.3191 42.49 -2.1247 0.87493 42.49 0.33898 -0.39891 44.693 0.56862 0.045238 44.693 -1.895 1.3191 42.49 -2.1247 0.87493 42.49 0.31567 -0.10541 44.888 0.59193 -0.24825 44.497 -1.8717 1.0256 42.294 -2.148 1.1684 42.685 0.31567 -0.10541 44.888 0.59193 -0.24825 44.497 -1.8717 1.0256 42.294 -2.148 1.1684 42.685 -1.9583 0.85237 42.49 -2.0614 1.3416 42.49 -4.3919 0.8508 40.992 -4.2888 0.36153 40.992 -1.9583 0.85237 42.49 -2.0614 1.3416 42.49 -4.3919 0.8508 40.992 -4.2888 0.36153 40.992 -2.1401 1.0696 42.701 -1.8796 1.1244 42.278 -4.2101 0.63359 40.78 -4.4706 0.57874 41.204 -2.1401 1.0696 42.701 -1.8796 1.1244 42.278 -4.2101 0.63359 40.78 -4.4706 0.57874 41.204 -4.3394 0.35616 40.992 -4.3414 0.85616 40.992 -6.1796 0.84876 38.738 -6.1776 0.34877 38.738 -4.3394 0.35616 40.992 -4.3414 0.85616 40.992 -6.1796 0.84876 38.738 -6.1776 0.34877 38.738 -4.5341 0.60538 41.15 -4.1466 0.60694 40.834 -5.9848 0.59955 38.58 -6.3723 0.59799 38.896 -4.5341 0.60538 41.15 -4.1466 0.60694 40.834 -5.9848 0.59955 38.58 -6.3723 0.59799 38.896 -6.246 0.35804 38.738 -6.1111 0.83949 38.738 -6.194 0.86273 36.929 -6.329 0.38128 36.929 -6.246 0.35804 38.738 -6.1111 0.83949 38.738 -6.194 0.86273 36.929 -6.329 0.38128 36.929 -6.419 0.66615 38.75 -5.9381 0.53138 38.726 -6.021 0.55462 36.917 -6.5019 0.68939 36.941 -6.419 0.66615 38.75 -5.9381 0.53138 38.726 -6.021 0.55462 36.917 -6.5019 0.68939 36.941 -6.0414 0.50342 36.929 -6.4816 0.74058 36.929 -7.1075 -0.42121 35.386 -6.6674 -0.65837 35.386 -6.0414 0.50342 36.929 -6.4816 0.74058 36.929 -7.1075 -0.42121 35.386 -6.6674 -0.65837 35.386 -6.3516 0.45473 37.092 -6.1714 0.78928 36.767 -6.7973 -0.37251 35.223 -6.9776 -0.70707 35.548 -6.3516 0.45473 37.092 -6.1714 0.78928 36.767 -6.7973 -0.37251 35.223 -6.9776 -0.70707 35.548 -1.6164 -1.484 41.017 -1.9616 -1.8457 41.017 -0.26121 -3.4685 39.502 0.084001 -3.1068 39.502 -1.6164 -1.484 41.017 -1.9616 -1.8457 41.017 -0.26121 -3.4685 39.502 0.084001 -3.1068 39.502 -1.691 -1.7584 41.228 -1.887 -1.5713 40.807 -0.18661 -3.1941 39.292 0.0094071 -3.3812 39.712 -1.691 -1.7584 41.228 -1.887 -1.5713 40.807 -0.18661 -3.1941 39.292 0.0094071 -3.3812 39.712 -0.17831 -3.0543 39.502 0.0011013 -3.521 39.502 0.6285 -3.2798 38.129 0.4491 -2.8131 38.129 -0.17831 -3.0543 39.502 0.0011013 -3.521 39.502 0.6285 -3.2798 38.129 0.4491 -2.8131 38.129 0.12097 -3.2071 39.612 -0.29818 -3.3682 39.392 0.32923 -3.127 38.019 0.74838 -2.9659 38.239 0.12097 -3.2071 39.612 -0.29818 -3.3682 39.392 0.32923 -3.127 38.019 0.74838 -2.9659 38.239 0.73977 -2.8978 38.129 0.33783 -3.1952 38.129 2.1388 -5.6293 36.7 2.5407 -5.3319 36.7 0.73977 -2.8978 38.129 0.33783 -3.1952 38.129 2.1388 -5.6293 36.7 2.5407 -5.3319 36.7 0.60228 -3.1323 38.355 0.47532 -2.9607 37.903 2.2763 -5.3948 36.474 2.4032 -5.5664 36.926 0.60228 -3.1323 38.355 0.47532 -2.9607 37.903 2.2763 -5.3948 36.474 2.4032 -5.5664 36.926 2.4845 -5.2768 36.7 2.195 -5.6845 36.7 4.5608 -7.3645 34.985 4.8503 -6.9568 34.985 2.4845 -5.2768 36.7 2.195 -5.6845 36.7 4.5608 -7.3645 34.985 4.8503 -6.9568 34.985 2.4435 -5.5543 36.915 2.236 -5.407 36.484 4.6018 -7.087 34.769 4.8093 -7.2343 35.2 2.4435 -5.5543 36.915 2.236 -5.407 36.484 4.6018 -7.087 34.769 4.8093 -7.2343 35.2 4.7146 -6.9108 34.985 4.6965 -7.4105 34.985 6.6233 -7.4805 33.282 6.6414 -6.9808 33.282 4.7146 -6.9108 34.985 4.6965 -7.4105 34.985 6.6233 -7.4805 33.282 6.6414 -6.9808 33.282 4.8709 -7.1666 35.172 4.5402 -7.1546 34.797 6.467 -7.2246 33.094 6.7977 -7.2366 33.469 4.8709 -7.1666 35.172 4.5402 -7.1546 34.797 6.467 -7.2246 33.094 6.7977 -7.2366 33.469 6.8184 -7.0637 33.282 6.4463 -7.3976 33.282 7.4951 -8.5664 31.415 7.8673 -8.2325 31.415 6.8184 -7.0637 33.282 6.4463 -7.3976 33.282 7.4951 -8.5664 31.415 7.8673 -8.2325 31.415 6.7601 -7.373 33.443 6.5046 -7.0883 33.121 7.5534 -8.2571 31.254 7.8089 -8.5418 31.576 6.7601 -7.373 33.443 6.5046 -7.0883 33.121 7.5534 -8.2571 31.254 7.8089 -8.5418 31.576 -2.0146 -1.7725 41.017 -1.5634 -1.5571 41.017 -2.7892 1.0112 39.365 -3.2404 0.79585 39.365 -2.0146 -1.7725 41.017 -1.5634 -1.5571 41.017 -2.7892 1.0112 39.365 -3.2404 0.79585 39.365 -1.8431 -1.5515 41.234 -1.735 -1.7781 40.801 -2.9607 0.79025 39.149 -3.0689 1.0168 39.582 -1.8431 -1.5515 41.234 -1.735 -1.7781 40.801 -2.9607 0.79025 39.149 -3.0689 1.0168 39.582 -3.2478 0.99406 39.365 -2.7818 0.81299 39.365 -1.891 3.1058 37.46 -2.357 3.2869 37.46 -3.2478 0.99406 39.365 -2.7818 0.81299 39.365 -1.891 3.1058 37.46 -2.357 3.2869 37.46 -2.9594 1.0462 39.563 -3.0702 0.76083 39.168 -2.1794 3.0536 37.263 -2.0686 3.339 37.658 -2.9594 1.0462 39.563 -3.0702 0.76083 39.168 -2.1794 3.0536 37.263 -2.0686 3.339 37.658 -2.3666 3.1361 37.46 -1.8814 3.2566 37.46 -2.4815 5.6726 35.551 -2.9668 5.5521 35.551 -2.3666 3.1361 37.46 -1.8814 3.2566 37.46 -2.4815 5.6726 35.551 -2.9668 5.5521 35.551 -2.1607 3.344 37.659 -2.0873 3.0487 37.262 -2.6875 5.4647 35.353 -2.7608 5.76 35.75 -2.1607 3.344 37.659 -2.0873 3.0487 37.262 -2.6875 5.4647 35.353 -2.7608 5.76 35.75 -2.8451 5.3935 35.551 -2.6032 5.8311 35.551 -4.9552 7.1309 33.042 -5.1971 6.6933 33.042 -2.8451 5.3935 35.551 -2.6032 5.8311 35.551 -4.9552 7.1309 33.042 -5.1971 6.6933 33.042 -2.8735 5.6949 35.734 -2.5748 5.5298 35.369 -4.9268 6.8296 32.86 -5.2255 6.9946 33.225 -2.8735 5.6949 35.734 -2.5748 5.5298 35.369 -4.9268 6.8296 32.86 -5.2255 6.9946 33.225 -5.3251 6.8892 33.042 -4.8272 6.935 33.042 -4.962 8.3997 30.975 -5.4599 8.3538 30.975 -5.3251 6.8892 33.042 -4.8272 6.935 33.042 -4.962 8.3997 30.975 -5.4599 8.3538 30.975 -5.0948 7.1149 33.187 -5.0575 6.7092 32.897 -5.1923 8.1739 30.83 -5.2296 8.5796 31.12 -5.0948 7.1149 33.187 -5.0575 6.7092 32.897 -5.1923 8.1739 30.83 -5.2296 8.5796 31.12</float_array>
          <technique_common><accessor source="#lightning_2-positions-array" count="768" stride="3"><param name="X" type="float"/><param name="Y" type="float"/><param name="Z" type="float"/></accessor></technique_common>
        </source>
        <source id="lightning_2-normals">
          <float_array id="lightning_2-normals-array" count="2304">-0.74516 0.29986 -0.59567 -0.74516 0.29986 -0.59567 -0.74516 0.29986 -0.59567 -0.74516 0.29986 -0.59567 0.74516 -0.29986 0.59567 0.74516 -0.29986 0.59567 0.74516 -0.29986 0.59567 0.74516 -0.29986 0.59567 0.37332 0.9277 0 0.37332 0.9277 0 0.37332 0.9277 0 0.37332 0.9277 0 -0.37332 -0.9277 -0 -0.37332 -0.9277 -0 -0.37332 -0.9277 -0 -0.37332 -0.9277 -0 0.27506 0.78881 -0.54965 0.27506 0.78881 -0.54965 0.27506 0.78881 -0.54965 0.27506 0.78881 -0.54965 -0.27506 -0.78881 0.54965 -0.27506 -0.78881 0.54965 -0.27506 -0.78881 0.54965 -0.27506 -0.78881 0.54965 0.94424 -0.32926 -2.7756e-17 0.94424 -0.32926 -2.7756e-17 0.94424 -0.32926 -2.7756e-17 0.94424 -0.32926 -2.7756e-17 -0.94424 0.32926 2.7756e-17 -0.94424 0.32926 2.7756e-17 -0.94424 0.32926 2.7756e-17 -0.94424 0.32926 2.7756e-17 -0.7015 -0.50835 -0.49948 -0.7015 -0.50835 -0.49948 -0.7015 -0.50835 -0.49948 -0.7015 -0.50835 -0.49948 0.7015 0.50835 0.49948 0.7015 0.50835 0.49948 0.7015 0.50835 0.49948 0.7015 0.50835 0.49948 -0.58679 0.80974 2.7756e-17 -0.58679 0.80974 2.7756e-17 -0.58679 0.80974 2.7756e-17 -0.58679 0.80974 2.7756e-17 0.58679 -0.80974 -2.7756e-17 0.58679 -0.80974 -2.7756e-17 0.58679 -0.80974 -2.7756e-17 0.58679 -0.80974 -2.7756e-17 0.34794 0.76038 -0.54841 0.34794 0.76038 -0.54841 0.34794 0.76038 -0.54841 0.34794 0.76038 -0.54841 -0.34794 -0.76038 0.54841 -0.34794 -0.76038 0.54841 -0.34794 -0.76038 0.54841 -0.34794 -0.76038 0.54841 0.90932 -0.4161 0 0.90932 -0.4161 0 0.90932 -0.4161 0 0.90932 -0.4161 0 -0.90932 0.4161 -0 -0.90932 0.4161 -0 -0.90932 0.4161 -0 -0.90932 0.4161 -0 -0.31304 0.86591 -0.39015 -0.31304 0.86591 -0.39015 -0.31304 0.86591 -0.39015 -0.31304 0.86591 -0.39015 0.31304 -0.86591 0.39015 0.31304 -0.86591 0.39015 0.31304 -0.86591 0.39015 0.31304 -0.86591 0.39015 0.94043 0.33998 1.3878e-17 0.94043 0.33998 1.3878e-17 0.94043 0.33998 1.3878e-17 0.94043 0.33998 1.3878e-17 -0.94043 -0.33998 -1.3878e-17 -0.94043 -0.33998 -1.3878e-17 -0.94043 -0.33998 -1.3878e-17 -0.94043 -0.33998 -1.3878e-17 -0.77166 0.27956 -0.57131 -0.77166 0.27956 -0.57131 -0.77166 0.27956 -0.57131 -0.77166 0.27956 -0.57131 0.77166 -0.27956 0.57131 0.77166 -0.27956 0.57131 0.77166 -0.27956 0.57131 0.77166 -0.27956 0.57131 0.34062 0.9402 -5.5511e-17 0.34062 0.9402 -5.5511e-17 0.34062 0.9402 -5.5511e-17 0.34062 0.9402 -5.5511e-17 -0.34062 -0.9402 5.5511e-17 -0.34062 -0.9402 5.5511e-17 -0.34062 -0.9402 5.5511e-17 -0.34062 -0.9402 5.5511e-17 -0.55414 -0.78203 -0.28523 -0.55414 -0.78203 -0.28523 -0.55414 -0.78203 -0.28523 -0.55414 -0.78203 -0.28523 0.55414 0.78203 0.28523 0.55414 0.78203 0.28523 0.55414 0.78203 0.28523 0.55414 0.78203 0.28523 -0.81593 0.57815 -2.7756e-17 -0.81593 0.57815 -2.7756e-17 -0.81593 0.57815 -2.7756e-17 -0.81593 0.57815 -2.7756e-17 0.81593 -0.57815 2.7756e-17 0.81593 -0.57815 2.7756e-17 0.81593 -0.57815 2.7756e-17 0.81593 -0.57815 2.7756e-17 -0.33304 -0.79212 -0.51149 -0.33304 -0.79212 -0.51149 -0.33304 -0.79212 -0.51149 -0.33304 -0.79212 -0.51149 0.33304 0.79212 0.51149 0.33304 0.79212 0.51149 0.33304 0.79212 0.51149 0.33304 0.79212 0.51149 -0.92184 0.38758 0 -0.92184 0.38758 0 -0.92184 0.38758 0 -0.92184 0.38758 0 0.92184 -0.38758 -0 0.92184 -0.38758 -0 0.92184 -0.38758 -0 0.92184 -0.38758 -0 0.46535 -0.80797 -0.36142 0.46535 -0.80797 -0.36142 0.46535 -0.80797 -0.36142 0.46535 -0.80797 -0.36142 -0.46535 0.80797 0.36142 -0.46535 0.80797 0.36142 -0.46535 0.80797 0.36142 -0.46535 0.80797 0.36142 -0.86655 -0.49909 -2.7756e-17 -0.86655 -0.49909 -2.7756e-17 -0.86655 -0.49909 -2.7756e-17 -0.86655 -0.49909 -2.7756e-17 0.86655 0.49909 2.7756e-17 0.86655 0.49909 2.7756e-17 0.86655 0.49909 2.7756e-17 0.86655 0.49909 2.7756e-17 0.96579 0.078474 -0.24717 0.96579 0.078474 -0.24717 0.96579 0.078474 -0.24717 0.96579 0.078474 -0.24717 -0.96579 -0.078474 0.24717 -0.96579 -0.078474 0.24717 -0.96579 -0.078474 0.24717 -0.96579 -0.078474 0.24717 0.080987 -0.99672 0 0.080987 -0.99672 0 0.080987 -0.99672 0 0.080987 -0.99672 0 -0.080987 0.99672 -0 -0.080987 0.99672 -0 -0.080987 0.99672 -0 -0.080987 0.99672 -0 0.59484 -0.70896 -0.37885 0.59484 -0.70896 -0.37885 0.59484 -0.70896 -0.37885 0.59484 -0.70896 -0.37885 -0.59484 0.70896 0.37885 -0.59484 0.70896 0.37885 -0.59484 0.70896 0.37885 -0.59484 0.70896 0.37885 -0.76607 -0.64276 -2.7756e-17 -0.76607 -0.64276 -2.7756e-17 -0.76607 -0.64276 -2.7756e-17 -0.76607 -0.64276 -2.7756e-17 0.76607 0.64276 2.7756e-17 0.76607 0.64276 2.7756e-17 0.76607 0.64276 2.7756e-17 0.76607 0.64276 2.7756e-17 0.35872 0.45968 -0.81242 0.35872 0.45968 -0.81242 0.35872 0.45968 -0.81242 0.35872 0.45968 -0.81242 -0.35872 -0.45968 0.81242 -0.35872 -0.45968 0.81242 -0.35872 -0.45968 0.81242 -0.35872 -0.45968 0.81242 0.78836 -0.61521 0 0.78836 -0.61521 0 0.78836 -0.61521 0 0.78836 -0.61521 0 -0.78836 0.61521 -0 -0.78836 0.61521 -0 -0.78836 0.61521 -0 -0.78836 0.61521 -0 0.31525 -0.57653 -0.75381 0.31525 -0.57653 -0.75381 0.31525 -0.57653 -0.75381 0.31525 -0.57653 -0.75381 -0.31525 0.57653 0.75381 -0.31525 0.57653 0.75381 -0.31525 0.57653 0.75381 -0.31525 0.57653 0.75381 -0.8774 -0.47976 0 -0.8774 -0.47976 0 -0.8774 -0.47976 0 -0.8774 -0.47976 0 0.8774 0.47976 -0 0.8774 0.47976 -0 0.8774 0.47976 -0 0.8774 0.47976 -0 0.34131 0.92364 -0.17434 0.34131 0.92364 -0.17434 0.34131 0.92364 -0.17434 0.34131 0.92364 -0.17434 -0.34131 -0.92364 0.17434 -0.34131 -0.92364 0.17434 -0.34131 -0.92364 0.17434 -0.34131 -0.92364 0.17434 0.938 -0.34662 6.9389e-18 0.938 -0.34662 6.9389e-18 0.938 -0.34662 6.9389e-18 0.938 -0.34662 6.9389e-18 -0.938 0.34662 -6.9389e-18 -0.938 0.34662 -6.9389e-18 -0.938 0.34662 -6.9389e-18 -0.938 0.34662 -6.9389e-18 -0.98128 0.15815 -0.10992 -0.98128 0.15815 -0.10992 -0.98128 0.15815 -0.10992 -0.98128 0.15815 -0.10992 0.98128 -0.15815 0.10992 0.98128 -0.15815 0.10992 0.98128 -0.15815 0.10992 0.98128 -0.15815 0.10992 0.15911 0.98726 0 0.15911 0.98726 0 0.15911 0.98726 0 0.15911 0.98726 0 -0.15911 -0.98726 -0 -0.15911 -0.98726 -0 -0.15911 -0.98726 -0 -0.15911 -0.98726 -0 -0.14635 0.71329 -0.68542 -0.14635 0.71329 -0.68542 -0.14635 0.71329 -0.68542 -0.14635 0.71329 -0.68542 0.14635 -0.71329 0.68542 0.14635 -0.71329 0.68542 0.14635 -0.71329 0.68542 0.14635 -0.71329 0.68542 0.97959 0.20099 -1.3878e-17 0.97959 0.20099 -1.3878e-17 0.97959 0.20099 -1.3878e-17 0.97959 0.20099 -1.3878e-17 -0.97959 -0.20099 1.3878e-17 -0.97959 -0.20099 1.3878e-17 -0.97959 -0.20099 1.3878e-17 -0.97959 -0.20099 1.3878e-17 -0.066226 -0.86215 -0.50231 -0.066226 -0.86215 -0.50231 -0.066226 -0.86215 -0.50231 -0.066226 -0.86215 -0.50231 0.066226 0.86215 0.50231 0.066226 0.86215 0.50231 0.066226 0.86215 0.50231 0.066226 0.86215 0.50231 -0.99706 0.07659 0 -0.99706 0.07659 0 -0.99706 0.07659 0 -0.99706 0.07659 0 0.99706 -0.07659 -0 0.99706 -0.07659 -0 0.99706 -0.07659 -0 0.99706 -0.07659 -0 -0.41277 0.8048 -0.42653 -0.41277 0.8048 -0.42653 -0.41277 0.8048 -0.42653 -0.41277 0.8048 -0.42653 0.41277 -0.8048 0.42653 0.41277 -0.8048 0.42653 0.41277 -0.8048 0.42653 0.41277 -0.8048 0.42653 0.88979 0.45636 0 0.88979 0.45636 0 0.88979 0.45636 0 0.88979 0.45636 0 -0.88979 -0.45636 -0 -0.88979 -0.45636 -0 -0.88979 -0.45636 -0 -0.88979 -0.45636 -0 -0.52732 -0.69293 -0.49172 -0.52732 -0.69293 -0.49172 -0.52732 -0.69293 -0.49172 -0.52732 -0.69293 -0.49172 0.52732 0.69293 0.49172 0.52732 0.69293 0.49172 0.52732 0.69293 0.49172 0.52732 0.69293 0.49172 -0.79578 0.60559 2.7756e-17 -0.79578 0.60559 2.7756e-17 -0.79578 0.60559 2.7756e-17 -0.79578 0.60559 2.7756e-17 0.79578 -0.60559 -2.7756e-17 0.79578 -0.60559 -2.7756e-17 0.79578 -0.60559 -2.7756e-17 0.79578 -0.60559 -2.7756e-17 -0.60461 -0.48642 -0.63075 -0.60461 -0.48642 -0.63075 -0.60461 -0.48642 -0.63075 -0.60461 -0.48642 -0.63075 0.60461 0.48642 0.63075 0.60461 0.48642 0.63075 0.60461 0.48642 0.63075 0.60461 0.48642 0.63075 -0.62684 0.77915 -2.7756e-17 -0.62684 0.77915 -2.7756e-17 -0.62684 0.77915 -2.7756e-17 -0.62684 0.77915 -2.7756e-17 0.62684 -0.77915 2.7756e-17 0.62684 -0.77915 2.7756e-17 0.62684 -0.77915 2.7756e-17 0.62684 -0.77915 2.7756e-17 0.59049 0.26263 -0.76312 0.59049 0.26263 -0.76312 0.59049 0.26263 -0.76312 0.59049 0.26263 -0.76312 -0.59049 -0.26263 0.76312 -0.59049 -0.26263 0.76312 -0.59049 -0.26263 0.76312 -0.59049 -0.26263 0.76312 0.40639 -0.9137 0 0.40639 -0.9137 0 0.40639 -0.9137 0 0.40639 -0.9137 0 -0.40639 0.9137 -0 -0.40639 0.9137 -0 -0.40639 0.9137 -0 -0.40639 0.9137 -0 -0.47263 0.87071 -0.13595 -0.47263 0.87071 -0.13595 -0.47263 0.87071 -0.13595 -0.47263 0.87071 -0.13595 0.47263 -0.87071 0.13595 0.47263 -0.87071 0.13595 0.47263 -0.87071 0.13595 0.47263 -0.87071 0.13595 0.87887 0.47706 6.9389e-18 0.87887 0.47706 6.9389e-18 0.87887 0.47706 6.9389e-18 0.87887 0.47706 6.9389e-18 -0.87887 -0.47706 -6.9389e-18 -0.87887 -0.47706 -6.9389e-18 -0.87887 -0.47706 -6.9389e-18 -0.87887 -0.47706 -6.9389e-18 -0.71032 0.64358 -0.28505 -0.71032 0.64358 -0.28505 -0.71032 0.64358 -0.28505 -0.71032 0.64358 -0.28505 0.71032 -0.64358 0.28505 0.71032 -0.64358 0.28505 0.71032 -0.64358 0.28505 0.71032 -0.64358 0.28505 0.67143 0.74107 0 0.67143 0.74107 0 0.67143 0.74107 0 0.67143 0.74107 0 -0.67143 -0.74107 -0 -0.67143 -0.74107 -0 -0.67143 -0.74107 -0 -0.67143 -0.74107 -0 0.2693 -0.8834 -0.38351 0.2693 -0.8834 -0.38351 0.2693 -0.8834 -0.38351 0.2693 -0.8834 -0.38351 -0.2693 0.8834 0.38351 -0.2693 0.8834 0.38351 -0.2693 0.8834 0.38351 -0.2693 0.8834 0.38351 -0.95654 -0.29159 0 -0.95654 -0.29159 0 -0.95654 -0.29159 0 -0.95654 -0.29159 0 0.95654 0.29159 -0 0.95654 0.29159 -0 0.95654 0.29159 -0 0.95654 0.29159 -0 -0.72215 -0.64943 -0.2382 -0.72215 -0.64943 -0.2382 -0.72215 -0.64943 -0.2382 -0.72215 -0.64943 -0.2382 0.72215 0.64943 0.2382 0.72215 0.64943 0.2382 0.72215 0.64943 0.2382 0.72215 0.64943 0.2382 -0.66868 0.74355 -1.3878e-17 -0.66868 0.74355 -1.3878e-17 -0.66868 0.74355 -1.3878e-17 -0.66868 0.74355 -1.3878e-17 0.66868 -0.74355 1.3878e-17 0.66868 -0.74355 1.3878e-17 0.66868 -0.74355 1.3878e-17 0.66868 -0.74355 1.3878e-17 0.66151 0.18152 -0.72763 0.66151 0.18152 -0.72763 0.66151 0.18152 -0.72763 0.66151 0.18152 -0.72763 -0.66151 -0.18152 0.72763 -0.66151 -0.18152 0.72763 -0.66151 -0.18152 0.72763 -0.66151 -0.18152 0.72763 0.26462 -0.96435 0 0.26462 -0.96435 0 0.26462 -0.96435 0 0.26462 -0.96435 0 -0.26462 0.96435 -0 -0.26462 0.96435 -0 -0.26462 0.96435 -0 -0.26462 0.96435 -0 0.38866 -0.29295 -0.87357 0.38866 -0.29295 -0.87357 0.38866 -0.29295 -0.87357 0.38866 -0.29295 -0.87357 -0.38866 0.29295 0.87357 -0.38866 0.29295 0.87357 -0.38866 0.29295 0.87357 -0.38866 0.29295 0.87357 -0.60191 -0.79856 -2.7756e-17 -0.60191 -0.79856 -2.7756e-17 -0.60191 -0.79856 -2.7756e-17 -0.60191 -0.79856 -2.7756e-17 0.60191 0.79856 2.7756e-17 0.60191 0.79856 2.7756e-17 0.60191 0.79856 2.7756e-17 0.60191 0.79856 2.7756e-17 0.60506 -0.56851 -0.55741 0.60506 -0.56851 -0.55741 0.60506 -0.56851 -0.55741 0.60506 -0.56851 -0.55741 -0.60506 0.56851 0.55741 -0.60506 0.56851 0.55741 -0.60506 0.56851 0.55741 -0.60506 0.56851 0.55741 -0.68475 -0.72877 -2.7756e-17 -0.68475 -0.72877 -2.7756e-17 -0.68475 -0.72877 -2.7756e-17 -0.68475 -0.72877 -2.7756e-17 0.68475 0.72877 2.7756e-17 0.68475 0.72877 2.7756e-17 0.68475 0.72877 2.7756e-17 0.68475 0.72877 2.7756e-17 0.68991 -0.65014 -0.31836 0.68991 -0.65014 -0.31836 0.68991 -0.65014 -0.31836 0.68991 -0.65014 -0.31836 -0.68991 0.65014 0.31836 -0.68991 0.65014 0.31836 -0.68991 0.65014 0.31836 -0.68991 0.65014 0.31836 -0.68582 -0.72777 -2.7756e-17 -0.68582 -0.72777 -2.7756e-17 -0.68582 -0.72777 -2.7756e-17 -0.68582 -0.72777 -2.7756e-17 0.68582 0.72777 2.7756e-17 0.68582 0.72777 2.7756e-17 0.68582 0.72777 2.7756e-17 0.68582 0.72777 2.7756e-17 0.61056 0.42285 -0.66964 0.61056 0.42285 -0.66964 0.61056 0.42285 -0.66964 0.61056 0.42285 -0.66964 -0.61056 -0.42285 0.66964 -0.61056 -0.42285 0.66964 -0.61056 -0.42285 0.66964 -0.61056 -0.42285 0.66964 0.56935 -0.82209 -2.7756e-17 0.56935 -0.82209 -2.7756e-17 0.56935 -0.82209 -2.7756e-17 0.56935 -0.82209 -2.7756e-17 -0.56935 0.82209 2.7756e-17 -0.56935 0.82209 2.7756e-17 -0.56935 0.82209 2.7756e-17 -0.56935 0.82209 2.7756e-17 0.4729 -0.089557 -0.87655 0.4729 -0.089557 -0.87655 0.4729 -0.089557 -0.87655 0.4729 -0.089557 -0.87655 -0.4729 0.089557 0.87655 -0.4729 0.089557 0.87655 -0.4729 0.089557 0.87655 -0.4729 0.089557 0.87655 -0.18607 -0.98254 0 -0.18607 -0.98254 0 -0.18607 -0.98254 0 -0.18607 -0.98254 0 0.18607 0.98254 -0 0.18607 0.98254 -0 0.18607 0.98254 -0 0.18607 0.98254 -0 0.58828 0.57989 -0.5636 0.58828 0.57989 -0.5636 0.58828 0.57989 -0.5636 0.58828 0.57989 -0.5636 -0.58828 -0.57989 0.5636 -0.58828 -0.57989 0.5636 -0.58828 -0.57989 0.5636 -0.58828 -0.57989 0.5636 0.70201 -0.71217 -2.7756e-17 0.70201 -0.71217 -2.7756e-17 0.70201 -0.71217 -2.7756e-17 0.70201 -0.71217 -2.7756e-17 -0.70201 0.71217 2.7756e-17 -0.70201 0.71217 2.7756e-17 -0.70201 0.71217 2.7756e-17 -0.70201 0.71217 2.7756e-17 0.55251 -0.28567 -0.78302 0.55251 -0.28567 -0.78302 0.55251 -0.28567 -0.78302 0.55251 -0.28567 -0.78302 -0.55251 0.28567 0.78302 -0.55251 0.28567 0.78302 -0.55251 0.28567 0.78302 -0.55251 0.28567 0.78302 -0.45929 -0.88829 -2.7756e-17 -0.45929 -0.88829 -2.7756e-17 -0.45929 -0.88829 -2.7756e-17 -0.45929 -0.88829 -2.7756e-17 0.45929 0.88829 2.7756e-17 0.45929 0.88829 2.7756e-17 0.45929 0.88829 2.7756e-17 0.45929 0.88829 2.7756e-17 0.52088 0.10971 -0.84655 0.52088 0.10971 -0.84655 0.52088 0.10971 -0.84655 0.52088 0.10971 -0.84655 -0.52088 -0.10971 0.84655 -0.52088 -0.10971 0.84655 -0.52088 -0.10971 0.84655 -0.52088 -0.10971 0.84655 0.20609 -0.97853 0 0.20609 -0.97853 0 0.20609 -0.97853 0 0.20609 -0.97853 0 -0.20609 0.97853 -0 -0.20609 0.97853 -0 -0.20609 0.97853 -0 -0.20609 0.97853 -0 0.77495 0.0031183 -0.63201 0.77495 0.0031183 -0.63201 0.77495 0.0031183 -0.63201 0.77495 0.0031183 -0.63201 -0.77495 -0.0031183 0.63201 -0.77495 -0.0031183 0.63201 -0.77495 -0.0031183 0.63201 -0.77495 -0.0031183 0.63201 0.0040238 -0.99999 -4.3368e-19 0.0040238 -0.99999 -4.3368e-19 0.0040238 -0.99999 -4.3368e-19 0.0040238 -0.99999 -4.3368e-19 -0.0040238 0.99999 4.3368e-19 -0.0040238 0.99999 4.3368e-19 -0.0040238 0.99999 4.3368e-19 -0.0040238 0.99999 4.3368e-19 0.96181 -0.26955 -0.047554 0.96181 -0.26955 -0.047554 0.96181 -0.26955 -0.047554 0.96181 -0.26955 -0.047554 -0.96181 0.26955 0.047554 -0.96181 0.26955 0.047554 -0.96181 0.26955 0.047554 -0.96181 0.26955 0.047554 -0.26985 -0.9629 0 -0.26985 -0.9629 0 -0.26985 -0.9629 0 -0.26985 -0.9629 0 0.26985 0.9629 -0 0.26985 0.9629 -0 0.26985 0.9629 -0 0.26985 0.9629 -0 0.3605 0.66911 -0.64987 0.3605 0.66911 -0.64987 0.3605 0.66911 -0.64987 0.3605 0.66911 -0.64987 -0.3605 -0.66911 0.64987 -0.3605 -0.66911 0.64987 -0.3605 -0.66911 0.64987 -0.3605 -0.66911 0.64987 0.88036 -0.47432 2.7756e-17 0.88036 -0.47432 2.7756e-17 0.88036 -0.47432 2.7756e-17 0.88036 -0.47432 2.7756e-17 -0.88036 0.47432 -2.7756e-17 -0.88036 0.47432 -2.7756e-17 -0.88036 0.47432 -2.7756e-17 -0.88036 0.47432 -2.7756e-17 -0.39204 0.37415 -0.84043 -0.39204 0.37415 -0.84043 -0.39204 0.37415 -0.84043 -0.39204 0.37415 -0.84043 0.39204 -0.37415 0.84043 0.39204 -0.37415 0.84043 0.39204 -0.37415 0.84043 0.39204 -0.37415 0.84043 0.69041 0.72341 0 0.69041 0.72341 0 0.69041 0.72341 0 0.69041 0.72341 0 -0.69041 -0.72341 -0 -0.69041 -0.72341 -0 -0.69041 -0.72341 -0 -0.69041 -0.72341 -0 -0.8383 -0.32225 -0.43978 -0.8383 -0.32225 -0.43978 -0.8383 -0.32225 -0.43978 -0.8383 -0.32225 -0.43978 0.8383 0.32225 0.43978 0.8383 0.32225 0.43978 0.8383 0.32225 0.43978 0.8383 0.32225 0.43978 -0.35881 0.93341 0 -0.35881 0.93341 0 -0.35881 0.93341 0 -0.35881 0.93341 0 0.35881 -0.93341 -0 0.35881 -0.93341 -0 0.35881 -0.93341 -0 0.35881 -0.93341 -0 -0.25391 0.34318 -0.9043 -0.25391 0.34318 -0.9043 -0.25391 0.34318 -0.9043 -0.25391 0.34318 -0.9043 0.25391 -0.34318 0.9043 0.25391 -0.34318 0.9043 0.25391 -0.34318 0.9043 0.25391 -0.34318 0.9043 0.80389 0.59478 -2.7756e-17 0.80389 0.59478 -2.7756e-17 0.80389 0.59478 -2.7756e-17 0.80389 0.59478 -2.7756e-17 -0.80389 -0.59478 2.7756e-17 -0.80389 -0.59478 2.7756e-17 -0.80389 -0.59478 2.7756e-17 -0.80389 -0.59478 2.7756e-17 -0.41487 0.2946 -0.86087 -0.41487 0.2946 -0.86087 -0.41487 0.2946 -0.86087 -0.41487 0.2946 -0.86087 0.41487 -0.2946 0.86087 0.41487 -0.2946 0.86087 0.41487 -0.2946 0.86087 0.41487 -0.2946 0.86087 0.57899 0.81534 2.7756e-17 0.57899 0.81534 2.7756e-17 0.57899 0.81534 2.7756e-17 0.57899 0.81534 2.7756e-17 -0.57899 -0.81534 -2.7756e-17 -0.57899 -0.81534 -2.7756e-17 -0.57899 -0.81534 -2.7756e-17 -0.57899 -0.81534 -2.7756e-17 -0.66153 0.024035 -0.74953 -0.66153 0.024035 -0.74953 -0.66153 0.024035 -0.74953 -0.66153 0.024035 -0.74953 0.66153 -0.024035 0.74953 0.66153 -0.024035 0.74953 0.66153 -0.024035 0.74953 0.66153 -0.024035 0.74953 0.036309 0.99934 0 0.036309 0.99934 0 0.036309 0.99934 0 0.036309 0.99934 0 -0.036309 -0.99934 -0 -0.036309 -0.99934 -0 -0.036309 -0.99934 -0 -0.036309 -0.99934 -0 -0.51105 0.56951 -0.64381 -0.51105 0.56951 -0.64381 -0.51105 0.56951 -0.64381 -0.51105 0.56951 -0.64381 0.51105 -0.56951 0.64381 0.51105 -0.56951 0.64381 0.51105 -0.56951 0.64381 0.51105 -0.56951 0.64381 0.74428 0.66787 0 0.74428 0.66787 0 0.74428 0.66787 0 0.74428 0.66787 0 -0.74428 -0.66787 -0 -0.74428 -0.66787 -0 -0.74428 -0.66787 -0 -0.74428 -0.66787 -0 0.21625 -0.45311 -0.86483 0.21625 -0.45311 -0.86483 0.21625 -0.45311 -0.86483 0.21625 -0.45311 -0.86483 -0.21625 0.45311 0.86483 -0.21625 0.45311 0.86483 -0.21625 0.45311 0.86483 -0.21625 0.45311 0.86483 -0.90248 -0.43072 0 -0.90248 -0.43072 0 -0.90248 -0.43072 0 -0.90248 -0.43072 0 0.90248 0.43072 -0 0.90248 0.43072 -0 0.90248 0.43072 -0 0.90248 0.43072 -0 -0.22175 -0.57077 -0.7906 -0.22175 -0.57077 -0.7906 -0.22175 -0.57077 -0.7906 -0.22175 -0.57077 -0.7906 0.22175 0.57077 0.7906 0.22175 0.57077 0.7906 0.22175 0.57077 0.7906 0.22175 0.57077 0.7906 -0.93212 0.36215 0 -0.93212 0.36215 0 -0.93212 0.36215 0 -0.93212 0.36215 0 0.93212 -0.36215 -0 0.93212 -0.36215 -0 0.93212 -0.36215 -0 0.93212 -0.36215 -0 0.14669 -0.59052 -0.79358 0.14669 -0.59052 -0.79358 0.14669 -0.59052 -0.79358 0.14669 -0.59052 -0.79358 -0.14669 0.59052 0.79358 -0.14669 0.59052 0.79358 -0.14669 0.59052 0.79358 -0.14669 0.59052 0.79358 -0.9705 -0.24109 0 -0.9705 -0.24109 0 -0.9705 -0.24109 0 -0.9705 -0.24109 0 0.9705 0.24109 -0 0.9705 0.24109 -0 0.9705 0.24109 -0 0.9705 0.24109 -0 0.59733 -0.33009 -0.73092 0.59733 -0.33009 -0.73092 0.59733 -0.33009 -0.73092 0.59733 -0.33009 -0.73092 -0.59733 0.33009 0.73092 -0.59733 0.33009 0.73092 -0.59733 0.33009 0.73092 -0.59733 0.33009 0.73092 -0.48367 -0.87525 2.7756e-17 -0.48367 -0.87525 2.7756e-17 -0.48367 -0.87525 2.7756e-17 -0.48367 -0.87525 2.7756e-17 0.48367 0.87525 -2.7756e-17 0.48367 0.87525 -2.7756e-17 0.48367 0.87525 -2.7756e-17 0.48367 0.87525 -2.7756e-17 0.074669 -0.81132 -0.57981 0.074669 -0.81132 -0.57981 0.074669 -0.81132 -0.57981 0.074669 -0.81132 -0.57981 -0.074669 0.81132 0.57981 -0.074669 0.81132 0.57981 -0.074669 0.81132 0.57981 -0.074669 0.81132 0.57981 -0.99579 -0.091646 -6.9389e-18 -0.99579 -0.091646 -6.9389e-18 -0.99579 -0.091646 -6.9389e-18 -0.99579 -0.091646 -6.9389e-18 0.99579 0.091646 6.9389e-18 0.99579 0.091646 6.9389e-18 0.99579 0.091646 6.9389e-18 0.99579 0.091646 6.9389e-18</float_array>
          <technique_common><accessor source="#lightning_2-normals-array" count="768" stride="3"><param name="X" type="float"/><param name="Y" type="float"/><param name="Z" type="float"/></accessor></technique_common>
        </source>
        <source id="lightning_2-map-0">
          <float_array id="lightning_2-map-0-array" count="1536">0 0 1 0 1 1 0 1 0 0 1 0 1 1 0 1 0 0 1 0 1 1 0 1 0 0 1 0 1 1 0 1 0 0 1 0 1 1 0 1 0 0 1 0 1 1 0 1 0 0 1 0 1 1 0 1 0 0 1 0 1 1 0 1 0 0 1 0 1 1 0 1 0 0 1 0 1 1 0 1 0 0 1 0 1 1 0 1 0 0 1 0 1 1 0 1 0 0 1 0 1 1 0 1 0 0 1 0 1 1 0 1 0 0 1 0 1 1 0 1 0 0 1 0 1 1 0 1 0 0 1 0 1 1 0 1 0 0 1 0 1 1 0 1 0 0 1 0 1 1 0 1 0 0 1 0 1 1 0 1 0 0 1 0 1 1 0 1 0 0 1 0 1 1 0 1 0 0 1 0 1 1 0 1 0 0 1 0 1 1 0 1 0 0 1 0 1 1 0 1 0 0 1 0 1 1 0 1 0 0 1 0 1 1 0 1 0 0 1 0 1 1 0 1 0 0 1 0 1 1 0 1 0 0 1 0 1 1 0 1 0 0 1 0 1 1 0 1 0 0 1 0 1 1 0 1 0 0 1 0 1 1 0 1 0 0 1 0 1 1 0 1 0 0 1 0 1 1 0 1 0 0 1 0 1 1 0 1 0 0 1 0 1 1 0 1 0 0 1 0 1 1 0 1 0 0 1 0 1 1 0 1 0 0 1 0 1 1 0 1 0 0 1 0 1 1 0 1 0 0 1 0 1 1 0 1 0 0 1 0 1 1 0 1 0 0 1 0 1 1 0 1 0 0 1 0 1 1 0 1 0 0 1 0 1 1 0 1 0 0 1 0 1 1 0 1 0 0 1 0 1 1 0 1 0 0 1 0 1 1 0 1 0 0 1 0 1 1 0 1 0 0 1 0 1 1 0 1 0 0 1 0 1 1 0 1 0 0 1 0 1 1 0 1 0 0 1 0 1 1 0 1 0 0 1 0 1 1 0 1 0 0 1 0 1 1 0 1 0 0 1 0 1 1 0 1 0 0 1 0 1 1 0 1 0 0 1 0 1 1 0 1 0 0 1 0 1 1 0 1 0 0 1 0 1 1 0 1 0 0 1 0 1 1 0 1 0 0 1 0 1 1 0 1 0 0 1 0 1 1 0 1 0 0 1 0 1 1 0 1 0 0 1 0 1 1 0 1 0 0 1 0 1 1 0 1 0 0 1 0 1 1 0 1 0 0 1 0 1 1 0 1 0 0 1 0 1 1 0 1 0 0 1 0 1 1 0 1 0 0 1 0 1 1 0 1 0 0 1 0 1 1 0 1 0 0 1 0 1 1 0 1 0 0 1 0 1 1 0 1 0 0 1 0 1 1 0 1 0 0 1 0 1 1 0 1 0 0 1 0 1 1 0 1 0 0 1 0 1 1 0 1 0 0 1 0 1 1 0 1 0 0 1 0 1 1 0 1 0 0 1 0 1 1 0 1 0 0 1 0 1 1 0 1 0 0 1 0 1 1 0 1 0 0 1 0 1 1 0 1 0 0 1 0 1 1 0 1 0 0 1 0 1 1 0 1 0 0 1 0 1 1 0 1 0 0 1 0 1 1 0 1 0 0 1 0 1 1 0 1 0 0 1 0 1 1 0 1 0 0 1 0 1 1 0 1 0 0 1 0 1 1 0 1 0 0 1 0 1 1 0 1 0 0 1 0 1 1 0 1 0 0 1 0 1 1 0 1 0 0 1 0 1 1 0 1 0 0 1 0 1 1 0 1 0 0 1 0 1 1 0 1 0 0 1 0 1 1 0 1 0 0 1 0 1 1 0 1 0 0 1 0 1 1 0 1 0 0 1 0 1 1 0 1 0 0 1 0 1 1 0 1 0 0 1 0 1 1 0 1 0 0 1 0 1 1 0 1 0 0 1 0 1 1 0 1 0 0 1 0 1 1 0 1 0 0 1 0 1 1 0 1 0 0 1 0 1 1 0 1 0 0 1 0 1 1 0 1 0 0 1 0 1 1 0 1 0 0 1 0 1 1 0 1 0 0 1 0 1 1 0 1 0 0 1 0 1 1 0 1 0 0 1 0 1 1 0 1 0 0 1 0 1 1 0 1 0 0 1 0 1 1 0 1 0 0 1 0 1 1 0 1 0 0 1 0 1 1 0 1 0 0 1 0 1 1 0 1 0 0 1 0 1 1 0 1 0 0 1 0 1 1 0 1 0 0 1 0 1 1 0 1 0 0 1 0 1 1 0 1 0 0 1 0 1 1 0 1 0 0 1 0 1 1 0 1 0 0 1 0 1 1 0 1 0 0 1 0 1 1 0 1 0 0 1 0 1 1 0 1 0 0 1 0 1 1 0 1 0 0 1 0 1 1 0 1 0 0 1 0 1 1 0 1 0 0 1 0 1 1 0 1 0 0 1 0 1 1 0 1 0 0 1 0 1 1 0 1 0 0 1 0 1 1 0 1 0 0 1 0 1 1 0 1 0 0 1 0 1 1 0 1 0 0 1 0 1 1 0 1 0 0 1 0 1 1 0 1 0 0 1 0 1 1 0 1 0 0 1 0 1 1 0 1 0 0 1 0 1 1 0 1 0 0 1 0 1 1 0 1 0 0 1 0 1 1 0 1 0 0 1 0 1 1 0 1 0 0 1 0 1 1 0 1 0 0 1 0 1 1 0 1 0 0 1 0 1 1 0 1 0 0 1 0 1 1 0 1 0 0 1 0 1 1 0 1 0 0 1 0 1 1 0 1 0 0 1 0 1 1 0 1 0 0 1 0 1 1 0 1 0 0 1 0 1 1 0 1 0 0 1 0 1 1 0 1 0 0 1 0 1 1 0 1 0 0 1 0 1 1 0 1 0 0 1 0 1 1 0 1 0 0 1 0 1 1 0 1 0 0 1 0 1 1 0 1 0 0 1 0 1 1 0 1 0 0 1 0 1 1 0 1 0 0 1 0 1 1 0 1 0 0 1 0 1 1 0 1 0 0 1 0 1 1 0 1 0 0 1 0 1 1 0 1 0 0 1 0 1 1 0 1 0 0 1 0 1 1 0 1 0 0 1 0 1 1 0 1 0 0 1 0 1 1 0 1 0 0 1 0 1 1 0 1 0 0 1 0 1 1 0 1 0 0 1 0 1 1 0 1 0 0 1 0 1 1 0 1 0 0 1 0 1 1 0 1 0 0 1 0 1 1 0 1 0 0 1 0 1 1 0 1 0 0 1 0 1 1 0 1 0 0 1 0 1 1 0 1 0 0 1 0 1 1 0 1 0 0 1 0 1 1 0 1 0 0 1 0 1 1 0 1 0 0 1 0 1 1 0 1 0 0 1 0 1 1 0 1 0 0 1 0 1 1 0 1 0 0 1 0 1 1 0 1 0 0 1 0 1 1 0 1 0 0 1 0 1 1 0 1 0 0 1 0 1 1 0 1 0 0 1 0 1 1 0 1</float_array>
          <technique_common><accessor source="#lightning_2-map-0-array" count="768" stride="2"><param name="S" type="float"/><param name="T" type="float"/></accessor></technique_common>
        </source>
        <vertices id="lightning_2-vertices"><input semantic="POSITION" source="#lightning_2-positions"/></vertices>
        <triangles material="lightning_2-material" count="384">
          <input semantic="VERTEX" source="#lightning_2-vertices" offset="0"/>
          <input semantic="NORMAL" source="#lightning_2-normals" offset="1"/>
          <input semantic="TEXCOORD" source="#lightning_2-map-0" offset="2" set="0"/>
          <p>0 0 0 1 1 1 2 2 2 0 0 0 2 2 2 3 3 3 4 4 4 6 6 6 5 5 5 4 4 4 7 7 7 6 6 6 8 8 8 9 9 9 10 10 10 8 8 8 10 10 10 11 11 11 12 12 12 14 14 14 13 13 13 12 12 12 15 15 15 14 14 14 16 16 16 17 17 17 18 18 18 16 16 16 18 18 18 19 19 19 20 20 20 22 22 22 21 21 21 20 20 20 23 23 23 22 22 22 24 24 24 25 25 25 26 26 26 24 24 24 26 26 26 27 27 27 28 28 28 30 30 30 29 29 29 28 28 28 31 31 31 30 30 30 32 32 32 33 33 33 34 34 34 32 32 32 34 34 34 35 35 35 36 36 36 38 38 38 37 37 37 36 36 36 39 39 39 38 38 38 40 40 40 41 41 41 42 42 42 40 40 40 42 42 42 43 43 43 44 44 44 46 46 46 45 45 45 44 44 44 47 47 47 46 46 46 48 48 48 49 49 49 50 50 50 48 48 48 50 50 50 51 51 51 52 52 52 54 54 54 53 53 53 52 52 52 55 55 55 54 54 54 56 56 56 57 57 57 58 58 58 56 56 56 58 58 58 59 59 59 60 60 60 62 62 62 61 61 61 60 60 60 63 63 63 62 62 62 64 64 64 65 65 65 66 66 66 64 64 64 66 66 66 67 67 67 68 68 68 70 70 70 69 69 69 68 68 68 71 71 71 70 70 70 72 72 72 73 73 73 74 74 74 72 72 72 74 74 74 75 75 75 76 76 76 78 78 78 77 77 77 76 76 76 79 79 79 78 78 78 80 80 80 81 81 81 82 82 82 80 80 80 82 82 82 83 83 83 84 84 84 86 86 86 85 85 85 84 84 84 87 87 87 86 86 86 88 88 88 89 89 89 90 90 90 88 88 88 90 90 90 91 91 91 92 92 92 94 94 94 93 93 93 92 92 92 95 95 95 94 94 94 96 96 96 97 97 97 98 98 98 96 96 96 98 98 98 99 99 99 100 100 100 102 102 102 101 101 101 100 100 100 103 103 103 102 102 102 104 104 104 105 105 105 106 106 106 104 104 104 106 106 106 107 107 107 108 108 108 110 110 110 109 109 109 108 108 108 111 111 111 110 110 110 112 112 112 113 113 113 114 114 114 112 112 112 114 114 114 115 115 115 116 116 116 118 118 118 117 117 117 116 116 116 119 119 119 118 118 118 120 120 120 121 121 121 122 122 122 120 120 120 122 122 122 123 123 123 124 124 124 126 126 126 125 125 125 124 124 124 127 127 127 126 126 126 128 128 128 129 129 129 130 130 130 128 128 128 130 130 130 131 131 131 132 132 132 134 134 134 133 133 133 132 132 132 135 135 135 134 134 134 136 136 136 137 137 137 138 138 138 136 136 136 138 138 138 139 139 139 140 140 140 142 142 142 141 141 141 140 140 140 143 143 143 142 142 142 144 144 144 145 145 145 146 146 146 144 144 144 146 146 146 147 147 147 148 148 148 150 150 150 149 149 149 148 148 148 151 151 151 150 150 150 152 152 152 153 153 153 154 154 154 152 152 152 154 154 154 155 155 155 156 156 156 158 158 158 157 157 157 156 156 156 159 159 159 158 158 158 160 160 160 161 161 161 162 162 162 160 160 160 162 162 162 163 163 163 164 164 164 166 166 166 165 165 165 164 164 164 167 167 167 166 166 166 168 168 168 169 169 169 170 170 170 168 168 168 170 170 170 171 171 171 172 172 172 174 174 174 173 173 173 172 172 172 175 175 175 174 174 174 176 176 176 177 177 177 178 178 178 176 176 176 178 178 178 179 179 179 180 180 180 182 182 182 181 181 181 180 180 180 183 183 183 182 182 182 184 184 184 185 185 185 186 186 186 184 184 184 186 186 186 187 187 187 188 188 188 190 190 190 189 189 189 188 188 188 191 191 191 190 190 190 192 192 192 193 193 193 194 194 194 192 192 192 194 194 194 195 195 195 196 196 196 198 198 198 197 197 197 196 196 196 199 199 199 198 198 198 200 200 200 201 201 201 202 202 202 200 200 200 202 202 202 203 203 203 204 204 204 206 206 206 205 205 205 204 204 204 207 207 207 206 206 206 208 208 208 209 209 209 210 210 210 208 208 208 210 210 210 211 211 211 212 212 212 214 214 214 213 213 213 212 212 212 215 215 215 214 214 214 216 216 216 217 217 217 218 218 218 216 216 216 218 218 218 219 219 219 220 220 220 222 222 222 221 221 221 220 220 220 223 223 223 222 222 222 224 224 224 225 225 225 226 226 226 224 224 224 226 226 226 227 227 227 228 228 228 230 230 230 229 229 229 228 228 228 231 231 231 230 230 230 232 232 232 233 233 233 234 234 234 232 232 232 234 234 234 235 235 235 236 236 236 238 238 238 237 237 237 236 236 236 239 239 239 238 238 238 240 240 240 241 241 241 242 242 242 240 240 240 242 242 242 243 243 243 244 244 244 246 246 246 245 245 245 244 244 244 247 247 247 246 246 246 248 248 248 249 249 249 250 250 250 248 248 248 250 250 250 251 251 251 252 252 252 254 254 254 253 253 253 252 252 252 255 255 255 254 254 254 256 256 256 257 257 257 258 258 258 256 256 256 258 258 258 259 259 259 260 260 260 262 262 262 261 261 261 260 260 260 263 263 263 262 262 262 264 264 264 265 265 265 266 266 266 264 264 264 266 266 266 267 267 267 268 268 268 270 270 270 269 269 269 268 268 268 271 271 271 270 270 270 272 272 272 273 273 273 274 274 274 272 272 272 274 274 274 275 275 275 276 276 276 278 278 278 277 277 277 276 276 276 279 279 279 278 278 278 280 280 280 281 281 281 282 282 282 280 280 280 282 282 282 283 283 283 284 284 284 286 286 286 285 285 285 284 284 284 287 287 287 286 286 286 288 288 288 289 289 289 290 290 290 288 288 288 290 290 290 291 291 291 292 292 292 294 294 294 293 293 293 292 292 292 295 295 295 294 294 294 296 296 296 297 297 297 298 298 298 296 296 296 298 298 298 299 299 299 300 300 300 302 302 302 301 301 301 300 300 300 303 303 303 302 302 302 304 304 304 305 305 305 306 306 306 304 304 304 306 306 306 307 307 307 308 308 308 310 310 310 309 309 309 308 308 308 311 311 311 310 310 310 312 312 312 313 313 313 314 314 314 312 312 312 314 314 314 315 315 315 316 316 316 318 318 318 317 317 317 316 316 316 319 319 319 318 318 318 320 320 320 321 321 321 322 322 322 320 320 320 322 322 322 323 323 323 324 324 324 326 326 326 325 325 325 324 324 324 327 327 327 326 326 326 328 328 328 329 329 329 330 330 330 328 328 328 330 330 330 331 331 331 332 332 332 334 334 334 333 333 333 332 332 332 335 335 335 334 334 334 336 336 336 337 337 337 338 338 338 336 336 336 338 338 338 339 339 339 340 340 340 342 342 342 341 341 341 340 340 340 343 343 343 342 342 342 344 344 344 345 345 345 346 346 346 344 344 344 346 346 346 347 347 347 348 348 348 350 350 350 349 349 349 348 348 348 351 351 351 350 350 350 352 352 352 353 353 353 354 354 354 352 352 352 354 354 354 355 355 355 356 356 356 358 358 358 357 357 357 356 356 356 359 359 359 358 358 358 360 360 360 361 361 361 362 362 362 360 360 360 362 362 362 363 363 363 364 364 364 366 366 366 365 365 365 364 364 364 367 367 367 366 366 366 368 368 368 369 369 369 370 370 370 368 368 368 370 370 370 371 371 371 372 372 372 374 374 374 373 373 373 372 372 372 375 375 375 374 374 374 376 376 376 377 377 377 378 378 378 376 376 376 378 378 378 379 379 379 380 380 380 382 382 382 381 381 381 380 380 380 383 383 383 382 382 382 384 384 384 385 385 385 386 386 386 384 384 384 386 386 386 387 387 387 388 388 388 390 390 390 389 389 389 388 388 388 391 391 391 390 390 390 392 392 392 393 393 393 394 394 394 392 392 392 394 394 394 395 395 395 396 396 396 398 398 398 397 397 397 396 396 396 399 399 399 398 398 398 400 400 400 401 401 401 402 402 402 400 400 400 402 402 402 403 403 403 404 404 404 406 406 406 405 405 405 404 404 404 407 407 407 406 406 406 408 408 408 409 409 409 410 410 410 408 408 408 410 410 410 411 411 411 412 412 412 414 414 414 413 413 413 412 412 412 415 415 415 414 414 414 416 416 416 417 417 417 418 418 418 416 416 416 418 418 418 419 419 419 420 420 420 422 422 422 421 421 421 420 420 420 423 423 423 422 422 422 424 424 424 425 425 425 426 426 426 424 424 424 426 426 426 427 427 427 428 428 428 430 430 430 429 429 429 428 428 428 431 431 431 430 430 430 432 432 432 433 433 433 434 434 434 432 432 432 434 434 434 435 435 435 436 436 436 438 438 438 437 437 437 436 436 436 439 439 439 438 438 438 440 440 440 441 441 441 442 442 442 440 440 440 442 442 442 443 443 443 444 444 444 446 446 446 445 445 445 444 444 444 447 447 447 446 446 446 448 448 448 449 449 449 450 450 450 448 448 448 450 450 450 451 451 451 452 452 452 454 454 454 453 453 453 452 452 452 455 455 455 454 454 454 456 456 456 457 457 457 458 458 458 456 456 456 458 458 458 459 459 459 460 460 460 462 462 462 461 461 461 460 460 460 463 463 463 462 462 462 464 464 464 465 465 465 466 466 466 464 464 464 466 466 466 467 467 467 468 468 468 470 470 470 469 469 469 468 468 468 471 471 471 470 470 470 472 472 472 473 473 473 474 474 474 472 472 472 474 474 474 475 475 475 476 476 476 478 478 478 477 477 477 476 476 476 479 479 479 478 478 478 480 480 480 481 481 481 482 482 482 480 480 480 482 482 482 483 483 483 484 484 484 486 486 486 485 485 485 484 484 484 487 487 487 486 486 486 488 488 488 489 489 489 490 490 490 488 488 488 490 490 490 491 491 491 492 492 492 494 494 494 493 493 493 492 492 492 495 495 495 494 494 494 496 496 496 497 497 497 498 498 498 496 496 496 498 498 498 499 499 499 500 500 500 502 502 502 501 501 501 500 500 500 503 503 503 502 502 502 504 504 504 505 505 505 506 506 506 504 504 504 506 506 506 507 507 507 508 508 508 510 510 510 509 509 509 508 508 508 511 511 511 510 510 510 512 512 512 513 513 513 514 514 514 512 512 512 514 514 514 515 515 515 516 516 516 518 518 518 517 517 517 516 516 516 519 519 519 518 518 518 520 520 520 521 521 521 522 522 522 520 520 520 522 522 522 523 523 523 524 524 524 526 526 526 525 525 525 524 524 524 527 527 527 526 526 526 528 528 528 529 529 529 530 530 530 528 528 528 530 530 530 531 531 531 532 532 532 534 534 534 533 533 533 532 532 532 535 535 535 534 534 534 536 536 536 537 537 537 538 538 538 536 536 536 538 538 538 539 539 539 540 540 540 542 542 542 541 541 541 540 540 540 543 543 543 542 542 542 544 544 544 545 545 545 546 546 546 544 544 544 546 546 546 547 547 547 548 548 548 550 550 550 549 549 549 548 548 548 551 551 551 550 550 550 552 552 552 553 553 553 554 554 554 552 552 552 554 554 554 555 555 555 556 556 556 558 558 558 557 557 557 556 556 556 559 559 559 558 558 558 560 560 560 561 561 561 562 562 562 560 560 560 562 562 562 563 563 563 564 564 564 566 566 566 565 565 565 564 564 564 567 567 567 566 566 566 568 568 568 569 569 569 570 570 570 568 568 568 570 570 570 571 571 571 572 572 572 574 574 574 573 573 573 572 572 572 575 575 575 574 574 574 576 576 576 577 577 577 578 578 578 576 576 576 578 578 578 579 579 579 580 580 580 582 582 582 581 581 581 580 580 580 583 583 583 582 582 582 584 584 584 585 585 585 586 586 586 584 584 584 586 586 586 587 587 587 588 588 588 590 590 590 589 589 589 588 588 588 591 591 591 590 590 590 592 592 592 593 593 593 594 594 594 592 592 592 594 594 594 595 595 595 596 596 596 598 598 598 597 597 597 596 596 596 599 599 599 598 598 598 600 600 600 601 601 601 602 602 602 600 600 600 602 602 602 603 603 603 604 604 604 606 606 606 605 605 605 604 604 604 607 607 607 606 606 606 608 608 608 609 609 609 610 610 610 608 608 608 610 610 610 611 611 611 612 612 612 614 614 614 613 613 613 612 612 612 615 615 615 614 614 614 616 616 616 617 617 617 618 618 618 616 616 616 618 618 618 619 619 619 620 620 620 622 622 622 621 621 621 620 620 620 623 623 623 622 622 622 624 624 624 625 625 625 626 626 626 624 624 624 626 626 626 627 627 627 628 628 628 630 630 630 629 629 629 628 628 628 631 631 631 630 630 630 632 632 632 633 633 633 634 634 634 632 632 632 634 634 634 635 635 635 636 636 636 638 638 638 637 637 637 636 636 636 639 639 639 638 638 638 640 640 640 641 641 641 642 642 642 640 640 640 642 642 642 643 643 643 644 644 644 646 646 646 645 645 645 644 644 644 647 647 647 646 646 646 648 648 648 649 649 649 650 650 650 648 648 648 650 650 650 651 651 651 652 652 652 654 654 654 653 653 653 652 652 652 655 655 655 654 654 654 656 656 656 657 657 657 658 658 658 656 656 656 658 658 658 659 659 659 660 660 660 662 662 662 661 661 661 660 660 660 663 663 663 662 662 662 664 664 664 665 665 665 666 666 666 664 664 664 666 666 666 667 667 667 668 668 668 670 670 670 669 669 669 668 668 668 671 671 671 670 670 670 672 672 672 673 673 673 674 674 674 672 672 672 674 674 674 675 675 675 676 676 676 678 678 678 677 677 677 676 676 676 679 679 679 678 678 678 680 680 680 681 681 681 682 682 682 680 680 680 682 682 682 683 683 683 684 684 684 686 686 686 685 685 685 684 684 684 687 687 687 686 686 686 688 688 688 689 689 689 690 690 690 688 688 688 690 690 690 691 691 691 692 692 692 694 694 694 693 693 693 692 692 692 695 695 695 694 694 694 696 696 696 697 697 697 698 698 698 696 696 696 698 698 698 699 699 699 700 700 700 702 702 702 701 701 701 700 700 700 703 703 703 702 702 702 704 704 704 705 705 705 706 706 706 704 704 704 706 706 706 707 707 707 708 708 708 710 710 710 709 709 709 708 708 708 711 711 711 710 710 710 712 712 712 713 713 713 714 714 714 712 712 712 714 714 714 715 715 715 716 716 716 718 718 718 717 717 717 716 716 716 719 719 719 718 718 718 720 720 720 721 721 721 722 722 722 720 720 720 722 722 722 723 723 723 724 724 724 726 726 726 725 725 725 724 724 724 727 727 727 726 726 726 728 728 728 729 729 729 730 730 730 728 728 728 730 730 730 731 731 731 732 732 732 734 734 734 733 733 733 732 732 732 735 735 735 734 734 734 736 736 736 737 737 737 738 738 738 736 736 736 738 738 738 739 739 739 740 740 740 742 742 742 741 741 741 740 740 740 743 743 743 742 742 742 744 744 744 745 745 745 746 746 746 744 744 744 746 746 746 747 747 747 748 748 748 750 750 750 749 749 749 748 748 748 751 751 751 750 750 750 752 752 752 753 753 753 754 754 754 752 752 752 754 754 754 755 755 755 756 756 756 758 758 758 757 757 757 756 756 756 759 759 759 758 758 758 760 760 760 761 761 761 762 762 762 760 760 760 762 762 762 763 763 763 764 764 764 766 766 766 765 765 765 764 764 764 767 767 767 766 766 766</p>
        </triangles>
      </mesh>
    </geometry>
  </library_geometries>
  <library_visual_scenes>
    <visual_scene id="Scene" name="Scene">
      <node id="lightning_2" name="lightning_2" type="NODE">
        <matrix sid="transform">1 0 0 0 0 1 0 0 0 0 1 0 0 0 0 1</matrix>
        <instance_geometry url="#lightning_2-mesh" name="lightning_2">
          <bind_material><technique_common><instance_material symbol="lightning_2-material" target="#lightning_2-material"><bind_vertex_input semantic="lightning_2-map-0" input_semantic="TEXCOORD" input_set="0"/></instance_material></technique_common></bind_material>
        </instance_geometry>
      </node>
    </visual_scene>
  </library_visual_scenes>
  <scene><instance_visual_scene url="#Scene"/></scene>
</COLLADA>
