<?xml version="1.0" encoding="utf-8"?>
<COLLADA xmlns="http://www.collada.org/2005/11/COLLADASchema" version="1.4.1">
  <asset>
    <contributor><authoring_tool>mars_wars gen_common.py</authoring_tool></contributor>
    <unit name="meter" meter="1"/>
    <up_axis>Z_UP</up_axis>
  </asset>
  <library_effects>
    <effect id="lightning_1-effect"><profile_COMMON><technique sid="common"><lambert><diffuse><color>1 1 1 1</color></diffuse></lambert></technique></profile_COMMON></effect>
  </library_effects>
  <library_materials>
    <material id="lightning_1-material" name="lightning_1"><instance_effect url="#lightning_1-effect"/></material>
  </library_materials>
  <library_geometries>
    <geometry id="lightning_1-mesh" name="lightning_1">
      <mesh>
        <source id="lightning_1-positions">
          <float_array id="lightning_1-positions-array" count="2016">1.8654 1.4349 75 0.93323 1.7969 75 -0.093966 -0.84807 72.235 0.83821 -1.2101 72.235 1.8654 1.4349 75 0.93323 1.7969 75 -0.093966 -0.84807 72.235 0.83821 -1.2101 72.235 1.273 1.2907 75.358 1.5256 1.9412 74.642 0.49844 -0.70381 71.877 0.2458 -1.3543 72.593 1.273 1.2907 75.358 1.5256 1.9412 74.642 0.49844 -0.70381 71.877 0.2458 -1.3543 72.593 0.5642 -0.56744 72.235 0.18004 -1.4907 72.235 1.1476 -1.8933 69.379 1.5318 -0.97003 69.379 0.5642 -0.56744 72.235 0.18004 -1.4907 72.235 1.1476 -1.8933 69.379 1.5318 -0.97003 69.379 0.80551 -1.2094 72.407 -0.061272 -0.84875 72.063 0.90631 -1.2513 69.206 1.7731 -1.612 69.551 0.80551 -1.2094 72.407 -0.061272 -0.84875 72.063 0.90631 -1.2513 69.206 1.7731 -1.612 69.551 1.0762 -1.0068 69.379 1.6032 -1.8566 69.379 3.8267 -0.47754 66.655 3.2997 0.37228 66.655 1.0762 -1.0068 69.379 1.6032 -1.8566 69.379 3.8267 -0.47754 66.655 3.2997 0.37228 66.655 1.6462 -1.2416 69.725 1.0333 -1.6217 69.032 3.2568 -0.24269 66.308 3.8697 0.13743 67.001 1.6462 -1.2416 69.725 1.0333 -1.6217 69.032 3.2568 -0.24269 66.308 3.8697 0.13743 67.001 3.9543 0.25886 66.655 3.1721 -0.36412 66.655 4.0662 -1.4868 64.03 4.8484 -0.86378 64.03 3.9543 0.25886 66.655 3.1721 -0.36412 66.655 4.0662 -1.4868 64.03 4.8484 -0.86378 64.03 3.8365 -0.39578 66.894 3.2899 0.29052 66.415 4.184 -0.83212 63.791 4.7306 -1.5184 64.27 3.8365 -0.39578 66.894 3.2899 0.29052 66.415 4.184 -0.83212 63.791 4.7306 -1.5184 64.27 4.556 -1.6654 64.03 4.3585 -0.68511 64.03 2.2155 -1.1168 60.86 2.413 -2.0971 60.86 4.556 -1.6654 64.03 4.3585 -0.68511 64.03 2.2155 -1.1168 60.86 2.413 -2.0971 60.86 4.0538 -1.2566 64.314 4.8608 -1.094 63.747 2.7178 -1.5257 60.576 1.9108 -1.6883 61.144 4.0538 -1.2566 64.314 4.8608 -1.094 63.747 2.7178 -1.5257 60.576 1.9108 -1.6883 61.144 2.3461 -2.106 60.86 2.2824 -1.108 60.86 0.035362 -1.2514 58.501 0.099066 -2.2494 58.501 2.3461 -2.106 60.86 2.2824 -1.108 60.86 0.035362 -1.2514 58.501 0.099066 -2.2494 58.501 1.9533 -1.63 61.205 2.6752 -1.5839 60.515 0.42817 -1.7274 58.156 -0.29374 -1.7735 58.846 1.9533 -1.63 61.205 2.6752 -1.5839 60.515 0.42817 -1.7274 58.156 -0.29374 -1.7735 58.846 0.54849 -1.886 58.501 -0.41406 -1.6149 58.501 -0.85623 -3.1848 55.465 0.10632 -3.4559 55.465 0.54849 -1.886 58.501 -0.41406 -1.6149 58.501 -0.85623 -3.1848 55.465 0.10632 -3.4559 55.465 -0.052195 -2.1744 58.738 0.18662 -1.3265 58.264 -0.25554 -2.8964 55.229 -0.49436 -3.7443 55.702 -0.052195 -2.1744 58.738 0.18662 -1.3265 58.264 -0.25554 -2.8964 55.229 -0.49436 -3.7443 55.702 -0.4853 -2.8326 55.465 -0.26461 -3.808 55.465 0.8455 -3.5568 52.464 0.6248 -2.5815 52.464 -0.4853 -2.8326 55.465 -0.26461 -3.808 55.465 0.8455 -3.5568 52.464 0.6248 -2.5815 52.464 0.081028 -3.2171 55.643 -0.83093 -3.4235 55.288 0.27917 -3.1723 52.287 1.1911 -2.966 52.642 0.081028 -3.2171 55.643 -0.83093 -3.4235 55.288 0.27917 -3.1723 52.287 1.1911 -2.966 52.642 0.56766 -3.5402 52.464 0.90264 -2.598 52.464 -0.92935 -1.9467 49.654 -1.2643 -2.8889 49.654 0.56766 -3.5402 52.464 0.90264 -2.598 52.464 -0.92935 -1.9467 49.654 -1.2643 -2.8889 49.654 0.34771 -2.9314 52.749 1.1226 -3.2069 52.18 -0.7094 -2.5556 49.369 -1.4843 -2.2801 49.938 0.34771 -2.9314 52.749 1.1226 -3.2069 52.18 -0.7094 -2.5556 49.369 -1.4843 -2.2801 49.938 -1.4683 -2.0832 49.654 -0.72533 -2.7524 49.654 1.0183 -0.81667 46.922 0.2753 -0.1474 46.922 -1.4683 -2.0832 49.654 -0.72533 -2.7524 49.654 1.0183 -0.81667 46.922 0.2753 -0.1474 46.922 -0.85469 -2.149 49.999 -1.339 -2.6866 49.309 0.40466 -0.75087 46.577 0.88896 -0.21321 47.267 -0.85469 -2.149 49.999 -1.339 -2.6866 49.309 0.40466 -0.75087 46.577 0.88896 -0.21321 47.267 0.97584 -0.85852 46.922 0.31778 -0.10555 46.922 -1.8174 -1.9716 43.494 -1.1593 -2.7245 43.494 0.97584 -0.85852 46.922 0.31778 -0.10555 46.922 -1.8174 -1.9716 43.494 -1.1593 -2.7245 43.494 0.3567 -0.73557 47.241 0.93691 -0.2285 46.604 -1.1982 -2.0945 43.175 -1.7784 -2.6016 43.813 0.3567 -0.73557 47.241 0.93691 -0.2285 46.604 -1.1982 -2.0945 43.175 -1.7784 -2.6016 43.813 -1.0201 -2.1726 43.494 -1.9566 -2.5235 43.494 -1.5732 -3.5469 41.005 -0.63671 -3.1961 41.005 -1.0201 -2.1726 43.494 -1.9566 -2.5235 43.494 -1.5732 -3.5469 41.005 -0.63671 -3.1961 41.005 -1.3277 -2.7768 43.695 -1.6489 -1.9193 43.293 -1.2655 -2.9427 40.804 -0.94432 -3.8002 41.206 -1.3277 -2.7768 43.695 -1.6489 -1.9193 43.293 -1.2655 -2.9427 40.804 -0.94432 -3.8002 41.206 -1.5206 -3.0936 41.005 -0.68926 -3.6494 41.005 -0.37225 -3.1752 38.298 -1.2036 -2.6194 38.298 -1.5206 -3.0936 41.005 -0.68926 -3.6494 41.005 -0.37225 -3.1752 38.298 -1.2036 -2.6194 38.298 -0.83302 -2.9647 41.108 -1.3768 -3.7782 40.902 -1.0598 -3.304 38.194 -0.51601 -2.4905 38.401 -0.83302 -2.9647 41.108 -1.3768 -3.7782 40.902 -1.0598 -3.304 38.194 -0.51601 -2.4905 38.401 -0.30186 -2.78 38.298 -1.274 -3.0145 38.298 -0.83166 -4.8483 36.254 0.14046 -4.6138 36.254 -0.30186 -2.78 38.298 -1.274 -3.0145 38.298 -0.83166 -4.8483 36.254 0.14046 -4.6138 36.254 -0.70176 -3.2544 38.637 -0.87408 -2.5401 37.958 -0.43175 -4.3738 35.915 -0.25944 -5.0882 36.593 -0.70176 -3.2544 38.637 -0.87408 -2.5401 37.958 -0.43175 -4.3738 35.915 -0.25944 -5.0882 36.593 -0.7062 -4.3846 36.254 0.015003 -5.0774 36.254 1.9169 -3.0973 32.962 1.1957 -2.4046 32.962 -0.7062 -4.3846 36.254 0.015003 -5.0774 36.254 1.9169 -3.0973 32.962 1.1957 -2.4046 32.962 -0.079618 -4.4541 36.574 -0.61158 -5.0079 35.934 1.2903 -3.0279 32.642 1.8223 -2.474 33.283 -0.079618 -4.4541 36.574 -0.61158 -5.0079 35.934 1.2903 -3.0279 32.642 1.8223 -2.474 33.283 1.8723 -3.1384 32.962 1.2403 -2.3635 32.962 -1.1615 -4.3221 29.551 -0.52946 -5.0971 29.551 1.8723 -3.1384 32.962 1.2403 -2.3635 32.962 -1.1615 -4.3221 29.551 -0.52946 -5.0971 29.551 1.2695 -2.9848 33.299 1.8431 -2.5171 32.626 -0.55867 -4.4757 29.215 -1.1322 -4.9434 29.888 1.2695 -2.9848 33.299 1.8431 -2.5171 32.626 -0.55867 -4.4757 29.215 -1.1322 -4.9434 29.888 -1.2026 -4.3596 29.551 -0.48832 -5.0595 29.551 0.65846 -3.8891 27.12 -0.055819 -3.1892 27.12 -1.2026 -4.3596 29.551 -0.48832 -5.0595 29.551 0.65846 -3.8891 27.12 -0.055819 -3.1892 27.12 -0.55528 -4.4134 29.831 -1.1356 -5.0057 29.272 0.011146 -3.8353 26.841 0.5915 -3.243 27.4 -0.55528 -4.4134 29.831 -1.1356 -5.0057 29.272 0.011146 -3.8353 26.841 0.5915 -3.243 27.4 0.18319 -3.0533 27.12 0.41945 -4.025 27.12 3.2046 -3.3478 24.258 2.9684 -2.3761 24.258 0.18319 -3.0533 27.12 0.41945 -4.025 27.12 3.2046 -3.3478 24.258 2.9684 -2.3761 24.258 0.64459 -3.4557 27.474 -0.041947 -3.6226 26.766 2.7432 -2.9454 23.905 3.4298 -2.7785 24.612 0.64459 -3.4557 27.474 -0.041947 -3.6226 26.766 2.7432 -2.9454 23.905 3.4298 -2.7785 24.612 3.4264 -3.2287 24.258 2.7466 -2.4953 24.258 2.2747 -2.9327 20.807 2.9545 -3.6661 20.807 3.4264 -3.2287 24.258 2.7466 -2.4953 24.258 2.2747 -2.9327 20.807 2.9545 -3.6661 20.807 2.726 -3.1961 24.35 3.447 -2.5278 24.167 2.9751 -2.9652 20.715 2.2541 -3.6335 20.899 2.726 -3.1961 24.35 3.447 -2.5278 24.167 2.9751 -2.9652 20.715 2.2541 -3.6335 20.899 2.3502 -2.875 20.807 2.879 -3.7238 20.807 3.543 -3.3102 17.649 3.0143 -2.4613 17.649 2.3502 -2.875 20.807 2.879 -3.7238 20.807 3.543 -3.3102 17.649 3.0143 -2.4613 17.649 3.0266 -3.0428 20.927 2.2027 -3.556 20.687 2.8667 -3.1423 17.529 3.6906 -2.6292 17.769 3.0266 -3.0428 20.927 2.2027 -3.556 20.687 2.8667 -3.1423 17.529 3.6906 -2.6292 17.769 3.0331 -3.3213 17.649 3.5242 -2.4502 17.649 2.4704 -1.8562 15.158 1.9793 -2.7273 15.158 3.0331 -3.3213 17.649 3.5242 -2.4502 17.649 2.4704 -1.8562 15.158 1.9793 -2.7273 15.158 2.8869 -2.6649 17.867 3.6704 -3.1066 17.43 2.6167 -2.5126 14.94 1.8331 -2.0708 15.377 2.8869 -2.6649 17.867 3.6704 -3.1066 17.43 2.6167 -2.5126 14.94 1.8331 -2.0708 15.377 1.7443 -2.1537 15.158 2.7055 -2.4297 15.158 2.8114 -2.0608 11.945 1.8503 -1.7848 11.945 1.7443 -2.1537 15.158 2.7055 -2.4297 15.158 2.8114 -2.0608 11.945 1.8503 -1.7848 11.945 2.3619 -1.8145 15.218 2.0878 -2.7689 15.099 2.1938 -2.4 11.885 2.4679 -1.4456 12.004 2.3619 -1.8145 15.218 2.0878 -2.7689 15.099 2.1938 -2.4 11.885 2.4679 -1.4456 12.004 2.7241 -2.2316 11.945 1.9376 -1.614 11.945 1.6145 -2.0255 8.8333 2.401 -2.6431 8.8333 2.7241 -2.2316 11.945 1.9376 -1.614 11.945 1.6145 -2.0255 8.8333 2.401 -2.6431 8.8333 2.0263 -2.3106 12.027 2.6353 -1.535 11.862 2.3123 -1.9465 8.7504 1.7032 -2.7221 8.9162 2.0263 -2.3106 12.027 2.6353 -1.535 11.862 2.3123 -1.9465 8.7504 1.7032 -2.7221 8.9162 1.7313 -2.7509 8.8333 2.2842 -1.9177 8.8333 1.5078 -1.4024 6.3402 0.95484 -2.2356 6.3402 1.7313 -2.7509 8.8333 2.2842 -1.9177 8.8333 1.5078 -1.4024 6.3402 0.95484 -2.2356 6.3402 1.6175 -2.0753 9.0084 2.398 -2.5933 8.6583 1.6216 -2.078 6.1652 0.8411 -1.56 6.5153 1.6175 -2.0753 9.0084 2.398 -2.5933 8.6583 1.6216 -2.078 6.1652 0.8411 -1.56 6.5153 0.81728 -2.0993 6.3402 1.6454 -1.5387 6.3402 0.41405 0.28029 0 -0.41405 -0.28029 0 0.81728 -2.0993 6.3402 1.6454 -1.5387 6.3402 0.41405 0.28029 0 -0.41405 -0.28029 0 0.96648 -1.4277 6.5039 1.4962 -2.2102 6.1766 0.26484 -0.39124 -0.16368 -0.26484 0.39124 0.16368 0.96648 -1.4277 6.5039 1.4962 -2.2102 6.1766 0.26484 -0.39124 -0.16368 -0.26484 0.39124 0.16368 -0.86206 -3.4307 41.005 -1.3478 -3.3122 41.005 -1.4556 -3.7537 38.987 -0.96982 -3.8723 38.987 -0.86206 -3.4307 41.005 -1.3478 -3.3122 41.005 -1.4556 -3.7537 38.987 -0.96982 -3.8723 38.987 -1.1628 -3.6084 41.06 -1.0471 -3.1345 40.95 -1.1549 -3.5761 38.932 -1.2705 -4.0499 39.042 -1.1628 -3.6084 41.06 -1.0471 -3.1345 40.95 -1.1549 -3.5761 38.932 -1.2705 -4.0499 39.042 -1.2203 -3.5631 38.987 -1.205 -4.0629 38.987 -0.10539 -4.0292 36.937 -0.1207 -3.5294 36.937 -1.2203 -3.5631 38.987 -1.205 -4.0629 38.987 -0.10539 -4.0292 36.937 -0.1207 -3.5294 36.937 -0.99249 -3.8062 39.106 -1.4329 -3.8197 38.869 -0.33324 -3.7861 36.819 0.10715 -3.7726 37.055 -0.99249 -3.8062 39.106 -1.4329 -3.8197 38.869 -0.33324 -3.7861 36.819 0.10715 -3.7726 37.055 0.086356 -3.9301 36.937 -0.31245 -3.6285 36.937 -2.3777 -6.3596 35.168 -1.9789 -6.6612 35.168 0.086356 -3.9301 36.937 -0.31245 -3.6285 36.937 -2.3777 -6.3596 35.168 -1.9789 -6.6612 35.168 -0.18225 -3.8708 37.159 -0.043847 -3.6878 36.715 -2.1091 -6.4189 34.946 -2.2475 -6.6019 35.39 -0.18225 -3.8708 37.159 -0.043847 -3.6878 36.715 -2.1091 -6.4189 34.946 -2.2475 -6.6019 35.39 -2.0722 -6.284 35.168 -2.2845 -6.7367 35.168 0.38676 -7.9894 32.947 0.59905 -7.5367 32.947 -2.0722 -6.284 35.168 -2.2845 -6.7367 35.168 0.38676 -7.9894 32.947 0.59905 -7.5367 32.947 -2.0422 -6.5742 35.368 -2.3144 -6.4465 34.968 0.35678 -7.6992 32.748 0.62902 -7.8269 33.147 -2.0422 -6.5742 35.368 -2.3144 -6.4465 34.968 0.35678 -7.6992 32.748 0.62902 -7.8269 33.147 0.71091 -7.8854 32.947 0.27489 -7.6407 32.947 -0.10388 -8.3155 30.431 0.33213 -8.5602 30.431 0.71091 -7.8854 32.947 0.27489 -7.6407 32.947 -0.10388 -8.3155 30.431 0.33213 -8.5602 30.431 0.37594 -7.9714 33.021 0.60986 -7.5546 32.874 0.23108 -8.2295 30.357 -0.0028323 -8.6462 30.504 0.37594 -7.9714 33.021 0.60986 -7.5546 32.874 0.23108 -8.2295 30.357 -0.0028323 -8.6462 30.504 -0.48241 -3.546 55.465 -0.26749 -3.0946 55.465 -0.79371 -2.8441 53.669 -1.0086 -3.2955 53.669 -0.48241 -3.546 55.465 -0.26749 -3.0946 55.465 -0.79371 -2.8441 53.669 -1.0086 -3.2955 53.669 -0.58966 -3.2181 55.543 -0.16025 -3.4225 55.388 -0.68647 -3.172 53.592 -1.1159 -2.9676 53.747 -0.58966 -3.2181 55.543 -0.16025 -3.4225 55.388 -0.68647 -3.172 53.592 -1.1159 -2.9676 53.747 -1.0534 -3.2681 53.669 -0.7489 -2.8715 53.669 -2.6087 -1.4433 52.104 -2.9132 -1.8399 52.104 -1.0534 -3.2681 53.669 -0.7489 -2.8715 53.669 -2.6087 -1.4433 52.104 -2.9132 -1.8399 52.104 -1.0113 -2.9852 53.877 -0.79107 -3.1544 53.461 -2.6509 -1.7261 51.896 -2.8711 -1.557 52.312 -1.0113 -2.9852 53.877 -0.79107 -3.1544 53.461 -2.6509 -1.7261 51.896 -2.8711 -1.557 52.312 -2.995 -1.5537 52.104 -2.5269 -1.7295 52.104 -2.2168 -0.90337 50.801 -2.6849 -0.72762 50.801 -2.995 -1.5537 52.104 -2.5269 -1.7295 52.104 -2.2168 -0.90337 50.801 -2.6849 -0.72762 50.801 -2.6882 -1.4478 52.244 -2.8337 -1.8354 51.963 -2.5236 -1.0093 50.661 -2.378 -0.62171 50.941 -2.6882 -1.4478 52.244 -2.8337 -1.8354 51.963 -2.5236 -1.0093 50.661 -2.378 -0.62171 50.941 -2.6098 -1.0084 50.801 -2.2918 -0.62261 50.801 -4.3028 1.0356 49.207 -4.6209 0.64983 49.207 -2.6098 -1.0084 50.801 -2.2918 -0.62261 50.801 -4.3028 1.0356 49.207 -4.6209 0.64983 49.207 -2.5514 -0.73252 51.014 -2.3502 -0.89848 50.587 -4.3612 0.75974 48.993 -4.5625 0.9257 49.42 -2.5514 -0.73252 51.014 -2.3502 -0.89848 50.587 -4.3612 0.75974 48.993 -4.5625 0.9257 49.42 -4.6715 0.70663 49.207 -4.2521 0.9788 49.207 -6.0891 3.8097 47.641 -6.5085 3.5375 47.641 -4.6715 0.70663 49.207 -4.2521 0.9788 49.207 -6.0891 3.8097 47.641 -6.5085 3.5375 47.641 -4.5191 0.93097 49.433 -4.4046 0.75446 48.98 -6.2416 3.5853 47.414 -6.3561 3.7618 47.868 -4.5191 0.93097 49.433 -4.4046 0.75446 48.98 -6.2416 3.5853 47.414 -6.3561 3.7618 47.868 0.3081 -1.8173 58.501 -0.17368 -1.6836 58.501 -0.29338 -2.1148 56.723 0.1884 -2.2485 56.723 0.3081 -1.8173 58.501 -0.17368 -1.6836 58.501 -0.29338 -2.1148 56.723 0.1884 -2.2485 56.723 0.0023658 -1.984 58.562 0.13206 -1.5168 58.44 0.01236 -1.948 56.662 -0.11734 -2.4152 56.784 0.0023658 -1.984 58.562 0.13206 -1.5168 58.44 0.01236 -1.948 56.662 -0.11734 -2.4152 56.784 -0.27661 -2.2924 56.723 0.17163 -2.0709 56.723 -0.9304 0.15885 55.552 -1.3786 -0.062696 55.552 -0.27661 -2.2924 56.723 0.17163 -2.0709 56.723 -0.9304 0.15885 55.552 -1.3786 -0.062696 55.552 -0.099678 -2.0862 56.949 -0.0052981 -2.2771 56.497 -1.1073 -0.047403 55.326 -1.2017 0.14355 55.778 -0.099678 -2.0862 56.949 -0.0052981 -2.2771 56.497 -1.1073 -0.047403 55.326 -1.2017 0.14355 55.778 -1.2379 -0.18759 55.552 -1.0711 0.28374 55.552 -2.4827 0.78348 54.451 -2.6496 0.31214 54.451 -1.2379 -0.18759 55.552 -1.0711 0.28374 55.552 -2.4827 0.78348 54.451 -2.6496 0.31214 54.451 -1.2941 0.097482 55.753 -1.015 -0.0013321 55.35 -2.4266 0.4984 54.25 -2.7057 0.59722 54.653 -1.2941 0.097482 55.753 -1.015 -0.0013321 55.35 -2.4266 0.4984 54.25 -2.7057 0.59722 54.653 -2.7495 0.37789 54.451 -2.3828 0.71772 54.451 -3.0993 1.491 53.149 -3.466 1.1512 53.149 -2.7495 0.37789 54.451 -2.3828 0.71772 54.451 -3.0993 1.491 53.149 -3.466 1.1512 53.149 -2.6982 0.69036 54.609 -2.4341 0.40526 54.294 -3.1506 1.1785 52.992 -3.4147 1.4636 53.306 -2.6982 0.69036 54.609 -2.4341 0.40526 54.294 -3.1506 1.1785 52.992 -3.4147 1.4636 53.306 -3.5238 1.3868 53.149 -3.0414 1.2554 53.149 -2.5205 3.1673 51.498 -3.0029 3.2988 51.498 -3.5238 1.3868 53.149 -3.0414 1.2554 53.149 -2.5205 3.1673 51.498 -3.0029 3.2988 51.498 -3.2406 1.4755 53.341 -3.3247 1.1667 52.957 -2.8038 3.0787 51.306 -2.7197 3.3874 51.69 -3.2406 1.4755 53.341 -3.3247 1.1667 52.957 -2.8038 3.0787 51.306 -2.7197 3.3874 51.69 -2.9358 3.0536 51.498 -2.5876 3.4124 51.498 -4.0955 4.876 50.265 -4.4438 4.5172 50.265 -2.9358 3.0536 51.498 -2.5876 3.4124 51.498 -4.0955 4.876 50.265 -4.4438 4.5172 50.265 -2.8525 3.3212 51.714 -2.6709 3.1449 51.283 -4.1789 4.6085 50.05 -4.3604 4.7847 50.481 -2.8525 3.3212 51.714 -2.6709 3.1449 51.283 -4.1789 4.6085 50.05 -4.3604 4.7847 50.481 -4.5082 4.6219 50.265 -4.0311 4.7713 50.265 -4.3269 5.7166 48.76 -4.8041 5.5672 48.76 -4.5082 4.6219 50.265 -4.0311 4.7713 50.265 -4.3269 5.7166 48.76 -4.8041 5.5672 48.76 -4.332 4.8959 50.403 -4.2073 4.4973 50.128 -4.5032 5.4426 48.623 -4.6279 5.8412 48.898 -4.332 4.8959 50.403 -4.2073 4.4973 50.128 -4.5032 5.4426 48.623 -4.6279 5.8412 48.898</float_array>
          <technique_common><accessor source="#lightning_1-positions-array" count="672" stride="3"><param name="X" type="float"/><param name="Y" type="float"/><param name="Z" type="float"/></accessor></technique_common>
        </source>
        <source id="lightning_1-normals">
          <float_array id="lightning_1-normals-array" count="2016">0.25264 0.65053 -0.71623 0.25264 0.65053 -0.71623 0.25264 0.65053 -0.71623 0.25264 0.65053 -0.71623 -0.25264 -0.65053 0.71623 -0.25264 -0.65053 0.71623 -0.25264 -0.65053 0.71623 -0.25264 -0.65053 0.71623 0.93217 -0.36201 0 0.93217 -0.36201 0 0.93217 -0.36201 0 0.93217 -0.36201 0 -0.93217 0.36201 -0 -0.93217 0.36201 -0 -0.93217 0.36201 -0 -0.93217 0.36201 -0 -0.86678 0.36065 -0.34441 -0.86678 0.36065 -0.34441 -0.86678 0.36065 -0.34441 -0.86678 0.36065 -0.34441 0.86678 -0.36065 0.34441 0.86678 -0.36065 0.34441 0.86678 -0.36065 0.34441 0.86678 -0.36065 0.34441 0.38415 0.92327 0 0.38415 0.92327 0 0.38415 0.92327 0 0.38415 0.92327 0 -0.38415 -0.92327 -0 -0.38415 -0.92327 -0 -0.38415 -0.92327 -0 -0.38415 -0.92327 -0 -0.6129 -0.38012 -0.69272 -0.6129 -0.38012 -0.69272 -0.6129 -0.38012 -0.69272 -0.6129 -0.38012 -0.69272 0.6129 0.38012 0.69272 0.6129 0.38012 0.69272 0.6129 0.38012 0.69272 0.6129 0.38012 0.69272 -0.52707 0.84982 0 -0.52707 0.84982 0 -0.52707 0.84982 0 -0.52707 0.84982 0 0.52707 -0.84982 -0 0.52707 -0.84982 -0 0.52707 -0.84982 -0 0.52707 -0.84982 -0 -0.54657 0.6863 -0.47985 -0.54657 0.6863 -0.47985 -0.54657 0.6863 -0.47985 -0.54657 0.6863 -0.47985 0.54657 -0.6863 0.47985 0.54657 -0.6863 0.47985 0.54657 -0.6863 0.47985 0.54657 -0.6863 0.47985 0.78224 0.62298 2.7756e-17 0.78224 0.62298 2.7756e-17 0.78224 0.62298 2.7756e-17 0.78224 0.62298 2.7756e-17 -0.78224 -0.62298 -2.7756e-17 -0.78224 -0.62298 -2.7756e-17 -0.78224 -0.62298 -2.7756e-17 -0.78224 -0.62298 -2.7756e-17 0.80706 0.16259 -0.56764 0.80706 0.16259 -0.56764 0.80706 0.16259 -0.56764 0.80706 0.16259 -0.56764 -0.80706 -0.16259 0.56764 -0.80706 -0.16259 0.56764 -0.80706 -0.16259 0.56764 -0.80706 -0.16259 0.56764 0.19749 -0.98031 1.3878e-17 0.19749 -0.98031 1.3878e-17 0.19749 -0.98031 1.3878e-17 0.19749 -0.98031 1.3878e-17 -0.19749 0.98031 -1.3878e-17 -0.19749 0.98031 -1.3878e-17 -0.19749 0.98031 -1.3878e-17 -0.19749 0.98031 -1.3878e-17 0.72191 0.046083 -0.69045 0.72191 0.046083 -0.69045 0.72191 0.046083 -0.69045 0.72191 0.046083 -0.69045 -0.72191 -0.046083 0.69045 -0.72191 -0.046083 0.69045 -0.72191 -0.046083 0.69045 -0.72191 -0.046083 0.69045 0.063705 -0.99797 0 0.063705 -0.99797 0 0.063705 -0.99797 0 0.063705 -0.99797 0 -0.063705 0.99797 -0 -0.063705 0.99797 -0 -0.063705 0.99797 -0 -0.063705 0.99797 -0 0.23882 0.84791 -0.4733 0.23882 0.84791 -0.4733 0.23882 0.84791 -0.4733 0.23882 0.84791 -0.4733 -0.23882 -0.84791 0.4733 -0.23882 -0.84791 0.4733 -0.23882 -0.84791 0.4733 -0.23882 -0.84791 0.4733 0.96255 -0.27111 1.3878e-17 0.96255 -0.27111 1.3878e-17 0.96255 -0.27111 1.3878e-17 0.96255 -0.27111 1.3878e-17 -0.96255 0.27111 -1.3878e-17 -0.96255 0.27111 -1.3878e-17 -0.96255 0.27111 -1.3878e-17 -0.96255 0.27111 -1.3878e-17 -0.91196 -0.20635 -0.35461 -0.91196 -0.20635 -0.35461 -0.91196 -0.20635 -0.35461 -0.91196 -0.20635 -0.35461 0.91196 0.20635 0.35461 0.91196 0.20635 0.35461 0.91196 0.20635 0.35461 0.91196 0.20635 0.35461 -0.22069 0.97534 1.3878e-17 -0.22069 0.97534 1.3878e-17 -0.22069 0.97534 1.3878e-17 -0.22069 0.97534 1.3878e-17 0.22069 -0.97534 -1.3878e-17 0.22069 -0.97534 -1.3878e-17 0.22069 -0.97534 -1.3878e-17 0.22069 -0.97534 -1.3878e-17 0.77488 -0.27549 -0.56892 0.77488 -0.27549 -0.56892 0.77488 -0.27549 -0.56892 0.77488 -0.27549 -0.56892 -0.77488 0.27549 0.56892 -0.77488 0.27549 0.56892 -0.77488 0.27549 0.56892 -0.77488 0.27549 0.56892 -0.33499 -0.94222 0 -0.33499 -0.94222 0 -0.33499 -0.94222 0 -0.33499 -0.94222 0 0.33499 0.94222 -0 0.33499 0.94222 -0 0.33499 0.94222 -0 0.33499 0.94222 -0 -0.4843 -0.53766 -0.6902 -0.4843 -0.53766 -0.6902 -0.4843 -0.53766 -0.6902 -0.4843 -0.53766 -0.6902 0.4843 0.53766 0.6902 0.4843 0.53766 0.6902 0.4843 0.53766 0.6902 0.4843 0.53766 0.6902 -0.74302 0.66927 0 -0.74302 0.66927 0 -0.74302 0.66927 0 -0.74302 0.66927 0 0.74302 -0.66927 -0 0.74302 -0.66927 -0 0.74302 -0.66927 -0 0.74302 -0.66927 -0 0.58021 0.50707 -0.63737 0.58021 0.50707 -0.63737 0.58021 0.50707 -0.63737 0.58021 0.50707 -0.63737 -0.58021 -0.50707 0.63737 -0.58021 -0.50707 0.63737 -0.58021 -0.50707 0.63737 -0.58021 -0.50707 0.63737 0.65806 -0.75297 -2.7756e-17 0.65806 -0.75297 -2.7756e-17 0.65806 -0.75297 -2.7756e-17 0.65806 -0.75297 -2.7756e-17 -0.65806 0.75297 2.7756e-17 -0.65806 0.75297 2.7756e-17 -0.65806 0.75297 2.7756e-17 -0.65806 0.75297 2.7756e-17 -0.32122 0.85745 -0.402 -0.32122 0.85745 -0.402 -0.32122 0.85745 -0.402 -0.32122 0.85745 -0.402 0.32122 -0.85745 0.402 0.32122 -0.85745 0.402 0.32122 -0.85745 0.402 0.32122 -0.85745 0.402 0.93644 0.35082 1.3878e-17 0.93644 0.35082 1.3878e-17 0.93644 0.35082 1.3878e-17 0.93644 0.35082 1.3878e-17 -0.93644 -0.35082 -1.3878e-17 -0.93644 -0.35082 -1.3878e-17 -0.93644 -0.35082 -1.3878e-17 -0.93644 -0.35082 -1.3878e-17 -0.54383 -0.81348 -0.20616 -0.54383 -0.81348 -0.20616 -0.54383 -0.81348 -0.20616 -0.54383 -0.81348 -0.20616 0.54383 0.81348 0.20616 0.54383 0.81348 0.20616 0.54383 0.81348 0.20616 0.54383 0.81348 0.20616 -0.83134 0.55577 -1.3878e-17 -0.83134 0.55577 -1.3878e-17 -0.83134 0.55577 -1.3878e-17 -0.83134 0.55577 -1.3878e-17 0.83134 -0.55577 1.3878e-17 0.83134 -0.55577 1.3878e-17 0.83134 -0.55577 1.3878e-17 0.83134 -0.55577 1.3878e-17 -0.17231 0.71435 -0.67824 -0.17231 0.71435 -0.67824 -0.17231 0.71435 -0.67824 -0.17231 0.71435 -0.67824 0.17231 -0.71435 0.67824 0.17231 -0.71435 0.67824 0.17231 -0.71435 0.67824 0.17231 -0.71435 0.67824 0.97212 0.23449 0 0.97212 0.23449 0 0.97212 0.23449 0 0.97212 0.23449 0 -0.97212 -0.23449 -0 -0.97212 -0.23449 -0 -0.97212 -0.23449 -0 -0.97212 -0.23449 -0 -0.53196 -0.55383 -0.64054 -0.53196 -0.55383 -0.64054 -0.53196 -0.55383 -0.64054 -0.53196 -0.55383 -0.64054 0.53196 0.55383 0.64054 0.53196 0.55383 0.64054 0.53196 0.55383 0.64054 0.53196 0.55383 0.64054 -0.7212 0.69273 0 -0.7212 0.69273 0 -0.7212 0.69273 0 -0.7212 0.69273 0 0.7212 -0.69273 -0 0.7212 -0.69273 -0 0.7212 -0.69273 -0 0.7212 -0.69273 -0 0.57357 0.46775 -0.67248 0.57357 0.46775 -0.67248 0.57357 0.46775 -0.67248 0.57357 0.46775 -0.67248 -0.57357 -0.46775 0.67248 -0.57357 -0.46775 0.67248 -0.57357 -0.46775 0.67248 -0.57357 -0.46775 0.67248 0.63199 -0.77497 -2.7756e-17 0.63199 -0.77497 -2.7756e-17 0.63199 -0.77497 -2.7756e-17 0.63199 -0.77497 -2.7756e-17 -0.63199 0.77497 2.7756e-17 -0.63199 0.77497 2.7756e-17 -0.63199 0.77497 2.7756e-17 -0.63199 0.77497 2.7756e-17 -0.58035 -0.59231 -0.55889 -0.58035 -0.59231 -0.55889 -0.58035 -0.59231 -0.55889 -0.58035 -0.59231 -0.55889 0.58035 0.59231 0.55889 0.58035 0.59231 0.55889 0.58035 0.59231 0.55889 0.58035 0.59231 0.55889 -0.71428 0.69986 0 -0.71428 0.69986 0 -0.71428 0.69986 0 -0.71428 0.69986 0 0.71428 -0.69986 -0 0.71428 -0.69986 -0 0.71428 -0.69986 -0 0.71428 -0.69986 -0 -0.68654 -0.16692 -0.70768 -0.68654 -0.16692 -0.70768 -0.68654 -0.16692 -0.70768 -0.68654 -0.16692 -0.70768 0.68654 0.16692 0.70768 0.68654 0.16692 0.70768 0.68654 0.16692 0.70768 0.68654 0.16692 0.70768 -0.23625 0.97169 0 -0.23625 0.97169 0 -0.23625 0.97169 0 -0.23625 0.97169 0 0.23625 -0.97169 -0 0.23625 -0.97169 -0 0.23625 -0.97169 -0 0.23625 -0.97169 -0 0.72099 0.66828 -0.18326 0.72099 0.66828 -0.18326 0.72099 0.66828 -0.18326 0.72099 0.66828 -0.18326 -0.72099 -0.66828 0.18326 -0.72099 -0.66828 0.18326 -0.72099 -0.66828 0.18326 -0.72099 -0.66828 0.18326 0.67979 -0.73341 -1.3878e-17 0.67979 -0.73341 -1.3878e-17 0.67979 -0.73341 -1.3878e-17 0.67979 -0.73341 -1.3878e-17 -0.67979 0.73341 1.3878e-17 -0.67979 0.73341 1.3878e-17 -0.67979 0.73341 1.3878e-17 -0.67979 0.73341 1.3878e-17 -0.8239 -0.5132 -0.24046 -0.8239 -0.5132 -0.24046 -0.8239 -0.5132 -0.24046 -0.8239 -0.5132 -0.24046 0.8239 0.5132 0.24046 0.8239 0.5132 0.24046 0.8239 0.5132 0.24046 0.8239 0.5132 0.24046 -0.52871 0.8488 1.3878e-17 -0.52871 0.8488 1.3878e-17 -0.52871 0.8488 1.3878e-17 -0.52871 0.8488 1.3878e-17 0.52871 -0.8488 -1.3878e-17 0.52871 -0.8488 -1.3878e-17 0.52871 -0.8488 -1.3878e-17 0.52871 -0.8488 -1.3878e-17 0.78358 -0.44173 -0.43689 0.78358 -0.44173 -0.43689 0.78358 -0.44173 -0.43689 0.78358 -0.44173 -0.43689 -0.78358 0.44173 0.43689 -0.78358 0.44173 0.43689 -0.78358 0.44173 0.43689 -0.78358 0.44173 0.43689 -0.49108 -0.87112 0 -0.49108 -0.87112 0 -0.49108 -0.87112 0 -0.49108 -0.87112 0 0.49108 0.87112 -0 0.49108 0.87112 -0 0.49108 0.87112 -0 0.49108 0.87112 -0 -0.27409 -0.95436 -0.11858 -0.27409 -0.95436 -0.11858 -0.27409 -0.95436 -0.11858 -0.27409 -0.95436 -0.11858 0.27409 0.95436 0.11858 0.27409 0.95436 0.11858 0.27409 0.95436 0.11858 0.27409 0.95436 0.11858 -0.96115 0.27604 3.4694e-18 -0.96115 0.27604 3.4694e-18 -0.96115 0.27604 3.4694e-18 -0.96115 0.27604 3.4694e-18 0.96115 -0.27604 -3.4694e-18 0.96115 -0.27604 -3.4694e-18 0.96115 -0.27604 -3.4694e-18 0.96115 -0.27604 -3.4694e-18 0.60903 0.77562 -0.16582 0.60903 0.77562 -0.16582 0.60903 0.77562 -0.16582 0.60903 0.77562 -0.16582 -0.60903 -0.77562 0.16582 -0.60903 -0.77562 0.16582 -0.60903 -0.77562 0.16582 -0.60903 -0.77562 0.16582 0.7865 -0.61758 -1.3878e-17 0.7865 -0.61758 -1.3878e-17 0.7865 -0.61758 -1.3878e-17 0.7865 -0.61758 -1.3878e-17 -0.7865 0.61758 1.3878e-17 -0.7865 0.61758 1.3878e-17 -0.7865 0.61758 1.3878e-17 -0.7865 0.61758 1.3878e-17 0.78046 -0.51798 -0.35012 0.78046 -0.51798 -0.35012 0.78046 -0.51798 -0.35012 0.78046 -0.51798 -0.35012 -0.78046 0.51798 0.35012 -0.78046 0.51798 0.35012 -0.78046 0.51798 0.35012 -0.78046 0.51798 0.35012 -0.55298 -0.83319 2.7756e-17 -0.55298 -0.83319 2.7756e-17 -0.55298 -0.83319 2.7756e-17 -0.55298 -0.83319 2.7756e-17 0.55298 0.83319 -2.7756e-17 0.55298 0.83319 -2.7756e-17 0.55298 0.83319 -2.7756e-17 0.55298 0.83319 -2.7756e-17 0.52969 -0.78248 -0.32736 0.52969 -0.78248 -0.32736 0.52969 -0.78248 -0.32736 0.52969 -0.78248 -0.32736 -0.52969 0.78248 0.32736 -0.52969 0.78248 0.32736 -0.52969 0.78248 0.32736 -0.52969 0.78248 0.32736 -0.8281 -0.56057 0 -0.8281 -0.56057 0 -0.8281 -0.56057 0 -0.8281 -0.56057 0 0.8281 0.56057 -0 0.8281 0.56057 -0 0.8281 0.56057 -0 0.8281 0.56057 -0 0.23131 0.94773 -0.21976 0.23131 0.94773 -0.21976 0.23131 0.94773 -0.21976 0.23131 0.94773 -0.21976 -0.23131 -0.94773 0.21976 -0.23131 -0.94773 0.21976 -0.23131 -0.94773 0.21976 -0.23131 -0.94773 0.21976 0.97148 -0.2371 -6.9389e-18 0.97148 -0.2371 -6.9389e-18 0.97148 -0.2371 -6.9389e-18 0.97148 -0.2371 -6.9389e-18 -0.97148 0.2371 6.9389e-18 -0.97148 0.2371 6.9389e-18 -0.97148 0.2371 6.9389e-18 -0.97148 0.2371 6.9389e-18 -0.88078 -0.026976 -0.47275 -0.88078 -0.026976 -0.47275 -0.88078 -0.026976 -0.47275 -0.88078 -0.026976 -0.47275 0.88078 0.026976 0.47275 0.88078 0.026976 0.47275 0.88078 0.026976 0.47275 0.88078 0.026976 0.47275 -0.030612 0.99953 1.7347e-18 -0.030612 0.99953 1.7347e-18 -0.030612 0.99953 1.7347e-18 -0.030612 0.99953 1.7347e-18 0.030612 -0.99953 -1.7347e-18 0.030612 -0.99953 -1.7347e-18 0.030612 -0.99953 -1.7347e-18 0.030612 -0.99953 -1.7347e-18 0.2768 0.36603 -0.88849 0.2768 0.36603 -0.88849 0.2768 0.36603 -0.88849 0.2768 0.36603 -0.88849 -0.2768 -0.36603 0.88849 -0.2768 -0.36603 0.88849 -0.2768 -0.36603 0.88849 -0.2768 -0.36603 0.88849 0.79761 -0.60317 0 0.79761 -0.60317 0 0.79761 -0.60317 0 0.79761 -0.60317 0 -0.79761 0.60317 -0 -0.79761 0.60317 -0 -0.79761 0.60317 -0 -0.79761 0.60317 -0 -0.54448 0.25533 -0.79896 -0.54448 0.25533 -0.79896 -0.54448 0.25533 -0.79896 -0.54448 0.25533 -0.79896 0.54448 -0.25533 0.79896 0.54448 -0.25533 0.79896 0.54448 -0.25533 0.79896 0.54448 -0.25533 0.79896 0.42458 0.90539 0 0.42458 0.90539 0 0.42458 0.90539 0 0.42458 0.90539 0 -0.42458 -0.90539 -0 -0.42458 -0.90539 -0 -0.42458 -0.90539 -0 -0.42458 -0.90539 -0 0.46783 0.83351 -0.29393 0.46783 0.83351 -0.29393 0.46783 0.83351 -0.29393 0.46783 0.83351 -0.29393 -0.46783 -0.83351 0.29393 -0.46783 -0.83351 0.29393 -0.46783 -0.83351 0.29393 -0.46783 -0.83351 0.29393 0.87203 -0.48945 0 0.87203 -0.48945 0 0.87203 -0.48945 0 0.87203 -0.48945 0 -0.87203 0.48945 -0 -0.87203 0.48945 -0 -0.87203 0.48945 -0 -0.87203 0.48945 -0 0.85882 -0.40885 -0.30865 0.85882 -0.40885 -0.30865 0.85882 -0.40885 -0.30865 0.85882 -0.40885 -0.30865 -0.85882 0.40885 0.30865 -0.85882 0.40885 0.30865 -0.85882 0.40885 0.30865 -0.85882 0.40885 0.30865 -0.42984 -0.90291 1.3878e-17 -0.42984 -0.90291 1.3878e-17 -0.42984 -0.90291 1.3878e-17 -0.42984 -0.90291 1.3878e-17 0.42984 0.90291 -1.3878e-17 0.42984 0.90291 -1.3878e-17 0.42984 0.90291 -1.3878e-17 0.42984 0.90291 -1.3878e-17 0.44042 -0.33821 -0.83165 0.44042 -0.33821 -0.83165 0.44042 -0.33821 -0.83165 0.44042 -0.33821 -0.83165 -0.44042 0.33821 0.83165 -0.44042 0.33821 0.83165 -0.44042 0.33821 0.83165 -0.44042 0.33821 0.83165 -0.60907 -0.79312 0 -0.60907 -0.79312 0 -0.60907 -0.79312 0 -0.60907 -0.79312 0 0.60907 0.79312 -0 0.60907 0.79312 -0 0.60907 0.79312 -0 0.60907 0.79312 -0 -0.29103 -0.77516 -0.56074 -0.29103 -0.77516 -0.56074 -0.29103 -0.77516 -0.56074 -0.29103 -0.77516 -0.56074 0.29103 0.77516 0.56074 0.29103 0.77516 0.56074 0.29103 0.77516 0.56074 0.29103 0.77516 0.56074 -0.93619 0.35149 0 -0.93619 0.35149 0 -0.93619 0.35149 0 -0.93619 0.35149 0 0.93619 -0.35149 -0 0.93619 -0.35149 -0 0.93619 -0.35149 -0 0.93619 -0.35149 -0 0.40254 -0.33192 -0.8531 0.40254 -0.33192 -0.8531 0.40254 -0.33192 -0.8531 0.40254 -0.33192 -0.8531 -0.40254 0.33192 0.8531 -0.40254 0.33192 0.8531 -0.40254 0.33192 0.8531 -0.40254 0.33192 0.8531 -0.63618 -0.77154 0 -0.63618 -0.77154 0 -0.63618 -0.77154 0 -0.63618 -0.77154 0 0.63618 0.77154 -0 0.63618 0.77154 -0 0.63618 0.77154 -0 0.63618 0.77154 -0 0.22907 -0.35301 -0.90714 0.22907 -0.35301 -0.90714 0.22907 -0.35301 -0.90714 0.22907 -0.35301 -0.90714 -0.22907 0.35301 0.90714 -0.22907 0.35301 0.90714 -0.22907 0.35301 0.90714 -0.22907 0.35301 0.90714 -0.83886 -0.54435 -2.7756e-17 -0.83886 -0.54435 -2.7756e-17 -0.83886 -0.54435 -2.7756e-17 -0.83886 -0.54435 -2.7756e-17 0.83886 0.54435 2.7756e-17 0.83886 0.54435 2.7756e-17 0.83886 0.54435 2.7756e-17 0.83886 0.54435 2.7756e-17 0.25939 0.93441 -0.24411 0.25939 0.93441 -0.24411 0.25939 0.93441 -0.24411 0.25939 0.93441 -0.24411 -0.25939 -0.93441 0.24411 -0.25939 -0.93441 0.24411 -0.25939 -0.93441 0.24411 -0.25939 -0.93441 0.24411 0.96356 -0.26748 6.9389e-18 0.96356 -0.26748 6.9389e-18 0.96356 -0.26748 6.9389e-18 0.96356 -0.26748 6.9389e-18 -0.96356 0.26748 -6.9389e-18 -0.96356 0.26748 -6.9389e-18 -0.96356 0.26748 -6.9389e-18 -0.96356 0.26748 -6.9389e-18 0.18876 -0.38191 -0.90472 0.18876 -0.38191 -0.90472 0.18876 -0.38191 -0.90472 0.18876 -0.38191 -0.90472 -0.18876 0.38191 0.90472 -0.18876 0.38191 0.90472 -0.18876 0.38191 0.90472 -0.18876 0.38191 0.90472 -0.89648 -0.44308 0 -0.89648 -0.44308 0 -0.89648 -0.44308 0 -0.89648 -0.44308 0 0.89648 0.44308 -0 0.89648 0.44308 -0 0.89648 0.44308 -0 0.89648 0.44308 -0 0.55825 -0.19763 -0.80579 0.55825 -0.19763 -0.80579 0.55825 -0.19763 -0.80579 0.55825 -0.19763 -0.80579 -0.55825 0.19763 0.80579 -0.55825 0.19763 0.80579 -0.55825 0.19763 0.80579 -0.55825 0.19763 0.80579 -0.33372 -0.94267 2.7756e-17 -0.33372 -0.94267 2.7756e-17 -0.33372 -0.94267 2.7756e-17 -0.33372 -0.94267 2.7756e-17 0.33372 0.94267 -2.7756e-17 0.33372 0.94267 -2.7756e-17 0.33372 0.94267 -2.7756e-17 0.33372 0.94267 -2.7756e-17 0.52832 -0.57019 -0.6291 0.52832 -0.57019 -0.6291 0.52832 -0.57019 -0.6291 0.52832 -0.57019 -0.6291 -0.52832 0.57019 0.6291 -0.52832 0.57019 0.6291 -0.52832 0.57019 0.6291 -0.52832 0.57019 0.6291 -0.73353 -0.67966 2.7756e-17 -0.73353 -0.67966 2.7756e-17 -0.73353 -0.67966 2.7756e-17 -0.73353 -0.67966 2.7756e-17 0.73353 0.67966 -2.7756e-17 0.73353 0.67966 -2.7756e-17 0.73353 0.67966 -2.7756e-17 0.73353 0.67966 -2.7756e-17 -0.16824 -0.61751 -0.76836 -0.16824 -0.61751 -0.76836 -0.16824 -0.61751 -0.76836 -0.16824 -0.61751 -0.76836 0.16824 0.61751 0.76836 0.16824 0.61751 0.76836 0.16824 0.61751 0.76836 0.16824 0.61751 0.76836 -0.96483 0.26287 0 -0.96483 0.26287 0 -0.96483 0.26287 0 -0.96483 0.26287 0 0.96483 -0.26287 -0 0.96483 -0.26287 -0 0.96483 -0.26287 -0 0.96483 -0.26287 -0 0.36316 -0.35246 -0.86249 0.36316 -0.35246 -0.86249 0.36316 -0.35246 -0.86249 0.36316 -0.35246 -0.86249 -0.36316 0.35246 0.86249 -0.36316 0.35246 0.86249 -0.36316 0.35246 0.86249 -0.36316 0.35246 0.86249 -0.69646 -0.71759 0 -0.69646 -0.71759 0 -0.69646 -0.71759 0 -0.69646 -0.71759 0 0.69646 0.71759 -0 0.69646 0.71759 -0 0.69646 0.71759 -0 0.69646 0.71759 -0 0.24949 -0.79716 -0.54981 0.24949 -0.79716 -0.54981 0.24949 -0.79716 -0.54981 0.24949 -0.79716 -0.54981 -0.24949 0.79716 0.54981 -0.24949 0.79716 0.54981 -0.24949 0.79716 0.54981 -0.24949 0.79716 0.54981 -0.95435 -0.29869 0 -0.95435 -0.29869 0 -0.95435 -0.29869 0 -0.95435 -0.29869 0 0.95435 0.29869 -0 0.95435 0.29869 -0 0.95435 0.29869 -0 0.95435 0.29869 -0</float_array>
          <technique_common><accessor source="#lightning_1-normals-array" count="672" stride="3"><param name="X" type="float"/><param name="Y" type="float"/><param name="Z" type="float"/></accessor></technique_common>
        </source>
        <source id="lightning_1-map-0">
          <float_array id="lightning_1-map-0-array" count="1344">0 0 1 0 1 1 0 1 0 0 1 0 1 1 0 1 0 0 1 0 1 1 0 1 0 0 1 0 1 1 0 1 0 0 1 0 1 1 0 1 0 0 1 0 1 1 0 1 0 0 1 0 1 1 0 1 0 0 1 0 1 1 0 1 0 0 1 0 1 1 0 1 0 0 1 0 1 1 0 1 0 0 1 0 1 1 0 1 0 0 1 0 1 1 0 1 0 0 1 0 1 1 0 1 0 0 1 0 1 1 0 1 0 0 1 0 1 1 0 1 0 0 1 0 1 1 0 1 0 0 1 0 1 1 0 1 0 0 1 0 1 1 0 1 0 0 1 0 1 1 0 1 0 0 1 0 1 1 0 1 0 0 1 0 1 1 0 1 0 0 1 0 1 1 0 1 0 0 1 0 1 1 0 1 0 0 1 0 1 1 0 1 0 0 1 0 1 1 0 1 0 0 1 0 1 1 0 1 0 0 1 0 1 1 0 1 0 0 1 0 1 1 0 1 0 0 1 0 1 1 0 1 0 0 1 0 1 1 0 1 0 0 1 0 1 1 0 1 0 0 1 0 1 1 0 1 0 0 1 0 1 1 0 1 0 0 1 0 1 1 0 1 0 0 1 0 1 1 0 1 0 0 1 0 1 1 0 1 0 0 1 0 1 1 0 1 0 0 1 0 1 1 0 1 0 0 1 0 1 1 0 1 0 0 1 0 1 1 0 1 0 0 1 0 1 1 0 1 0 0 1 0 1 1 0 1 0 0 1 0 1 1 0 1 0 0 1 0 1 1 0 1 0 0 1 0 1 1 0 1 0 0 1 0 1 1 0 1 0 0 1 0 1 1 0 1 0 0 1 0 1 1 0 1 0 0 1 0 1 1 0 1 0 0 1 0 1 1 0 1 0 0 1 0 1 1 0 1 0 0 1 0 1 1 0 1 0 0 1 0 1 1 0 1 0 0 1 0 1 1 0 1 0 0 1 0 1 1 0 1 0 0 1 0 1 1 0 1 0 0 1 0 1 1 0 1 0 0 1 0 1 1 0 1 0 0 1 0 1 1 0 1 0 0 1 0 1 1 0 1 0 0 1 0 1 1 0 1 0 0 1 0 1 1 0 1 0 0 1 0 1 1 0 1 0 0 1 0 1 1 0 1 0 0 1 0 1 1 0 1 0 0 1 0 1 1 0 1 0 0 1 0 1 1 0 1 0 0 1 0 1 1 0 1 0 0 1 0 1 1 0 1 0 0 1 0 1 1 0 1 0 0 1 0 1 1 0 1 0 0 1 0 1 1 0 1 0 0 1 0 1 1 0 1 0 0 1 0 1 1 0 1 0 0 1 0 1 1 0 1 0 0 1 0 1 1 0 1 0 0 1 0 1 1 0 1 0 0 1 0 1 1 0 1 0 0 1 0 1 1 0 1 0 0 1 0 1 1 0 1 0 0 1 0 1 1 0 1 0 0 1 0 1 1 0 1 0 0 1 0 1 1 0 1 0 0 1 0 1 1 0 1 0 0 1 0 1 1 0 1 0 0 1 0 1 1 0 1 0 0 1 0 1 1 0 1 0 0 1 0 1 1 0 1 0 0 1 0 1 1 0 1 0 0 1 0 1 1 0 1 0 0 1 0 1 1 0 1 0 0 1 0 1 1 0 1 0 0 1 0 1 1 0 1 0 0 1 0 1 1 0 1 0 0 1 0 1 1 0 1 0 0 1 0 1 1 0 1 0 0 1 0 1 1 0 1 0 0 1 0 1 1 0 1 0 0 1 0 1 1 0 1 0 0 1 0 1 1 0 1 0 0 1 0 1 1 0 1 0 0 1 0 1 1 0 1 0 0 1 0 1 1 0 1 0 0 1 0 1 1 0 1 0 0 1 0 1 1 0 1 0 0 1 0 1 1 0 1 0 0 1 0 1 1 0 1 0 0 1 0 1 1 0 1 0 0 1 0 1 1 0 1 0 0 1 0 1 1 0 1 0 0 1 0 1 1 0 1 0 0 1 0 1 1 0 1 0 0 1 0 1 1 0 1 0 0 1 0 1 1 0 1 0 0 1 0 1 1 0 1 0 0 1 0 1 1 0 1 0 0 1 0 1 1 0 1 0 0 1 0 1 1 0 1 0 0 1 0 1 1 0 1 0 0 1 0 1 1 0 1 0 0 1 0 1 1 0 1 0 0 1 0 1 1 0 1 0 0 1 0 1 1 0 1 0 0 1 0 1 1 0 1 0 0 1 0 1 1 0 1 0 0 1 0 1 1 0 1 0 0 1 0 1 1 0 1 0 0 1 0 1 1 0 1 0 0 1 0 1 1 0 1 0 0 1 0 1 1 0 1 0 0 1 0 1 1 0 1 0 0 1 0 1 1 0 1 0 0 1 0 1 1 0 1 0 0 1 0 1 1 0 1 0 0 1 0 1 1 0 1 0 0 1 0 1 1 0 1 0 0 1 0 1 1 0 1 0 0 1 0 1 1 0 1 0 0 1 0 1 1 0 1 0 0 1 0 1 1 0 1 0 0 1 0 1 1 0 1 0 0 1 0 1 1 0 1 0 0 1 0 1 1 0 1 0 0 1 0 1 1 0 1 0 0 1 0 1 1 0 1 0 0 1 0 1 1 0 1 0 0 1 0 1 1 0 1 0 0 1 0 1 1 0 1 0 0 1 0 1 1 0 1 0 0 1 0 1 1 0 1 0 0 1 0 1 1 0 1 0 0 1 0 1 1 0 1 0 0 1 0 1 1 0 1 0 0 1 0 1 1 0 1 0 0 1 0 1 1 0 1 0 0 1 0 1 1 0 1 0 0 1 0 1 1 0 1 0 0 1 0 1 1 0 1 0 0 1 0 1 1 0 1 0 0 1 0 1 1 0 1 0 0 1 0 1 1 0 1 0 0 1 0 1 1 0 1 0 0 1 0 1 1 0 1 0 0 1 0 1 1 0 1 0 0 1 0 1 1 0 1 0 0 1 0 1 1 0 1 0 0 1 0 1 1 0 1 0 0 1 0 1 1 0 1</float_array>
          <technique_common><accessor source="#lightning_1-map-0-array" count="672" stride="2"><param name="S" type="float"/><param name="T" type="float"/></accessor></technique_common>
        </source>
        <vertices id="lightning_1-vertices"><input semantic="POSITION" source="#lightning_1-positions"/></vertices>
        <triangles material="lightning_1-material" count="336">
          <input semantic="VERTEX" source="#lightning_1-vertices" offset="0"/>
          <input semantic="NORMAL" source="#lightning_1-normals" offset="1"/>
          <input semantic="TEXCOORD" source="#lightning_1-map-0" offset="2" set="0"/>
          <p>0 0 0 1 1 1 2 2 2 0 0 0 2 2 2 3 3 3 4 4 4 6 6 6 5 5 5 4 4 4 7 7 7 6 6 6 8 8 8 9 9 9 10 10 10 8 8 8 10 10 10 11 11 11 12 12 12 14 14 14 13 13 13 12 12 12 15 15 15 14 14 14 16 16 16 17 17 17 18 18 18 16 16 16 18 18 18 19 19 19 20 20 20 22 22 22 21 21 21 20 20 20 23 23 23 22 22 22 24 24 24 25 25 25 26 26 26 24 24 24 26 26 26 27 27 27 28 28 28 30 30 30 29 29 29 28 28 28 31 31 31 30 30 30 32 32 32 33 33 33 34 34 34 32 32 32 34 34 34 35 35 35 36 36 36 38 38 38 37 37 37 36 36 36 39 39 39 38 38 38 40 40 40 41 41 41 42 42 42 40 40 40 42 42 42 43 43 43 44 44 44 46 46 46 45 45 45 44 44 44 47 47 47 46 46 46 48 48 48 49 49 49 50 50 50 48 48 48 50 50 50 51 51 51 52 52 52 54 54 54 53 53 53 52 52 52 55 55 55 54 54 54 56 56 56 57 57 57 58 58 58 56 56 56 58 58 58 59 59 59 60 60 60 62 62 62 61 61 61 60 60 60 63 63 63 62 62 62 64 64 64 65 65 65 66 66 66 64 64 64 66 66 66 67 67 67 68 68 68 70 70 70 69 69 69 68 68 68 71 71 71 70 70 70 72 72 72 73 73 73 74 74 74 72 72 72 74 74 74 75 75 75 76 76 76 78 78 78 77 77 77 76 76 76 79 79 79 78 78 78 80 80 80 81 81 81 82 82 82 80 80 80 82 82 82 83 83 83 84 84 84 86 86 86 85 85 85 84 84 84 87 87 87 86 86 86 88 88 88 89 89 89 90 90 90 88 88 88 90 90 90 91 91 91 92 92 92 94 94 94 93 93 93 92 92 92 95 95 95 94 94 94 96 96 96 97 97 97 98 98 98 96 96 96 98 98 98 99 99 99 100 100 100 102 102 102 101 101 101 100 100 100 103 103 103 102 102 102 104 104 104 105 105 105 106 106 106 104 104 104 106 106 106 107 107 107 108 108 108 110 110 110 109 109 109 108 108 108 111 111 111 110 110 110 112 112 112 113 113 113 114 114 114 112 112 112 114 114 114 115 115 115 116 116 116 118 118 118 117 117 117 116 116 116 119 119 119 118 118 118 120 120 120 121 121 121 122 122 122 120 120 120 122 122 122 123 123 123 124 124 124 126 126 126 125 125 125 124 124 124 127 127 127 126 126 126 128 128 128 129 129 129 130 130 130 128 128 128 130 130 130 131 131 131 132 132 132 134 134 134 133 133 133 132 132 132 135 135 135 134 134 134 136 136 136 137 137 137 138 138 138 136 136 136 138 138 138 139 139 139 140 140 140 142 142 142 141 141 141 140 140 140 143 143 143 142 142 142 144 144 144 145 145 145 146 146 146 144 144 144 146 146 146 147 147 147 148 148 148 150 150 150 149 149 149 148 148 148 151 151 151 150 150 150 152 152 152 153 153 153 154 154 154 152 152 152 154 154 154 155 155 155 156 156 156 158 158 158 157 157 157 156 156 156 159 159 159 158 158 158 160 160 160 161 161 161 162 162 162 160 160 160 162 162 162 163 163 163 164 164 164 166 166 166 165 165 165 164 164 164 167 167 167 166 166 166 168 168 168 169 169 169 170 170 170 168 168 168 170 170 170 171 171 171 172 172 172 174 174 174 173 173 173 172 172 172 175 175 175 174 174 174 176 176 176 177 177 177 178 178 178 176 176 176 178 178 178 179 179 179 180 180 180 182 182 182 181 181 181 180 180 180 183 183 183 182 182 182 184 184 184 185 185 185 186 186 186 184 184 184 186 186 186 187 187 187 188 188 188 190 190 190 189 189 189 188 188 188 191 191 191 190 190 190 192 192 192 193 193 193 194 194 194 192 192 192 194 194 194 195 195 195 196 196 196 198 198 198 197 197 197 196 196 196 199 199 199 198 198 198 200 200 200 201 201 201 202 202 202 200 200 200 202 202 202 203 203 203 204 204 204 206 206 206 205 205 205 204 204 204 207 207 207 206 206 206 208 208 208 209 209 209 210 210 210 208 208 208 210 210 210 211 211 211 212 212 212 214 214 214 213 213 213 212 212 212 215 215 215 214 214 214 216 216 216 217 217 217 218 218 218 216 216 216 218 218 218 219 219 219 220 220 220 222 222 222 221 221 221 220 220 220 223 223 223 222 222 222 224 224 224 225 225 225 226 226 226 224 224 224 226 226 226 227 227 227 228 228 228 230 230 230 229 229 229 228 228 228 231 231 231 230 230 230 232 232 232 233 233 233 234 234 234 232 232 232 234 234 234 235 235 235 236 236 236 238 238 238 237 237 237 236 236 236 239 239 239 238 238 238 240 240 240 241 241 241 242 242 242 240 240 240 242 242 242 243 243 243 244 244 244 246 246 246 245 245 245 244 244 244 247 247 247 246 246 246 248 248 248 249 249 249 250 250 250 248 248 248 250 250 250 251 251 251 252 252 252 254 254 254 253 253 253 252 252 252 255 255 255 254 254 254 256 256 256 257 257 257 258 258 258 256 256 256 258 258 258 259 259 259 260 260 260 262 262 262 261 261 261 260 260 260 263 263 263 262 262 262 264 264 264 265 265 265 266 266 266 264 264 264 266 266 266 267 267 267 268 268 268 270 270 270 269 269 269 268 268 268 271 271 271 270 270 270 272 272 272 273 273 273 274 274 274 272 272 272 274 274 274 275 275 275 276 276 276 278 278 278 277 277 277 276 276 276 279 279 279 278 278 278 280 280 280 281 281 281 282 282 282 280 280 280 282 282 282 283 283 283 284 284 284 286 286 286 285 285 285 284 284 284 287 287 287 286 286 286 288 288 288 289 289 289 290 290 290 288 288 288 290 290 290 291 291 291 292 292 292 294 294 294 293 293 293 292 292 292 295 295 295 294 294 294 296 296 296 297 297 297 298 298 298 296 296 296 298 298 298 299 299 299 300 300 300 302 302 302 301 301 301 300 300 300 303 303 303 302 302 302 304 304 304 305 305 305 306 306 306 304 304 304 306 306 306 307 307 307 308 308 308 310 310 310 309 309 309 308 308 308 311 311 311 310 310 310 312 312 312 313 313 313 314 314 314 312 312 312 314 314 314 315 315 315 316 316 316 318 318 318 317 317 317 316 316 316 319 319 319 318 318 318 320 320 320 321 321 321 322 322 322 320 320 320 322 322 322 323 323 323 324 324 324 326 326 326 325 325 325 324 324 324 327 327 327 326 326 326 328 328 328 329 329 329 330 330 330 328 328 328 330 330 330 331 331 331 332 332 332 334 334 334 333 333 333 332 332 332 335 335 335 334 334 334 336 336 336 337 337 337 338 338 338 336 336 336 338 338 338 339 339 339 340 340 340 342 342 342 341 341 341 340 340 340 343 343 343 342 342 342 344 344 344 345 345 345 346 346 346 344 344 344 346 346 346 347 347 347 348 348 348 350 350 350 349 349 349 348 348 348 351 351 351 350 350 350 352 352 352 353 353 353 354 354 354 352 352 352 354 354 354 355 355 355 356 356 356 358 358 358 357 357 357 356 356 356 359 359 359 358 358 358 360 360 360 361 361 361 362 362 362 360 360 360 362 362 362 363 363 363 364 364 364 366 366 366 365 365 365 364 364 364 367 367 367 366 366 366 368 368 368 369 369 369 370 370 370 368 368 368 370 370 370 371 371 371 372 372 372 374 374 374 373 373 373 372 372 372 375 375 375 374 374 374 376 376 376 377 377 377 378 378 378 376 376 376 378 378 378 379 379 379 380 380 380 382 382 382 381 381 381 380 380 380 383 383 383 382 382 382 384 384 384 385 385 385 386 386 386 384 384 384 386 386 386 387 387 387 388 388 388 390 390 390 389 389 389 388 388 388 391 391 391 390 390 390 392 392 392 393 393 393 394 394 394 392 392 392 394 394 394 395 395 395 396 396 396 398 398 398 397 397 397 396 396 396 399 399 399 398 398 398 400 400 400 401 401 401 402 402 402 400 400 400 402 402 402 403 403 403 404 404 404 406 406 406 405 405 405 404 404 404 407 407 407 406 406 406 408 408 408 409 409 409 410 410 410 408 408 408 410 410 410 411 411 411 412 412 412 414 414 414 413 413 413 412 412 412 415 415 415 414 414 414 416 416 416 417 417 417 418 418 418 416 416 416 418 418 418 419 419 419 420 420 420 422 422 422 421 421 421 420 420 420 423 423 423 422 422 422 424 424 424 425 425 425 426 426 426 424 424 424 426 426 426 427 427 427 428 428 428 430 430 430 429 429 429 428 428 428 431 431 431 430 430 430 432 432 432 433 433 433 434 434 434 432 432 432 434 434 434 435 435 435 436 436 436 438 438 438 437 437 437 436 436 436 439 439 439 438 438 438 440 440 440 441 441 441 442 442 442 440 440 440 442 442 442 443 443 443 444 444 444 446 446 446 445 445 445 444 444 444 447 447 447 446 446 446 448 448 448 449 449 449 450 450 450 448 448 448 450 450 450 451 451 451 452 452 452 454 454 454 453 453 453 452 452 452 455 455 455 454 454 454 456 456 456 457 457 457 458 458 458 456 456 456 458 458 458 459 459 459 460 460 460 462 462 462 461 461 461 460 460 460 463 463 463 462 462 462 464 464 464 465 465 465 466 466 466 464 464 464 466 466 466 467 467 467 468 468 468 470 470 470 469 469 469 468 468 468 471 471 471 470 470 470 472 472 472 473 473 473 474 474 474 472 472 472 474 474 474 475 475 475 476 476 476 478 478 478 477 477 477 476 476 476 479 479 479 478 478 478 480 480 480 481 481 481 482 482 482 480 480 480 482 482 482 483 483 483 484 484 484 486 486 486 485 485 485 484 484 484 487 487 487 486 486 486 488 488 488 489 489 489 490 490 490 488 488 488 490 490 490 491 491 491 492 492 492 494 494 494 493 493 493 492 492 492 495 495 495 494 494 494 496 496 496 497 497 497 498 498 498 496 496 496 498 498 498 499 499 499 500 500 500 502 502 502 501 501 501 500 500 500 503 503 503 502 502 502 504 504 504 505 505 505 506 506 506 504 504 504 506 506 506 507 507 507 508 508 508 510 510 510 509 509 509 508 508 508 511 511 511 510 510 510 512 512 512 513 513 513 514 514 514 512 512 512 514 514 514 515 515 515 516 516 516 518 518 518 517 517 517 516 516 516 519 519 519 518 518 518 520 520 520 521 521 521 522 522 522 520 520 520 522 522 522 523 523 523 524 524 524 526 526 526 525 525 525 524 524 524 527 527 527 526 526 526 528 528 528 529 529 529 530 530 530 528 528 528 530 530 530 531 531 531 532 532 532 534 534 534 533 533 533 532 532 532 535 535 535 534 534 534 536 536 536 537 537 537 538 538 538 536 536 536 538 538 538 539 539 539 540 540 540 542 542 542 541 541 541 540 540 540 543 543 543 542 542 542 544 544 544 545 545 545 546 546 546 544 544 544 546 546 546 547 547 547 548 548 548 550 550 550 549 549 549 548 548 548 551 551 551 550 550 550 552 552 552 553 553 553 554 554 554 552 552 552 554 554 554 555 555 555 556 556 556 558 558 558 557 557 557 556 556 556 559 559 559 558 558 558 560 560 560 561 561 561 562 562 562 560 560 560 562 562 562 563 563 563 564 564 564 566 566 566 565 565 565 564 564 564 567 567 567 566 566 566 568 568 568 569 569 569 570 570 570 568 568 568 570 570 570 571 571 571 572 572 572 574 574 574 573 573 573 572 572 572 575 575 575 574 574 574 576 576 576 577 577 577 578 578 578 576 576 576 578 578 578 579 579 579 580 580 580 582 582 582 581 581 581 580 580 580 583 583 583 582 582 582 584 584 584 585 585 585 586 586 586 584 584 584 586 586 586 587 587 587 588 588 588 590 590 590 589 589 589 588 588 588 591 591 591 590 590 590 592 592 592 593 593 593 594 594 594 592 592 592 594 594 594 595 595 595 596 596 596 598 598 598 597 597 597 596 596 596 599 599 599 598 598 598 600 600 600 601 601 601 602 602 602 600 600 600 602 602 602 603 603 603 604 604 604 606 606 606 605 605 605 604 604 604 607 607 607 606 606 606 608 608 608 609 609 609 610 610 610 608 608 608 610 610 610 611 611 611 612 612 612 614 614 614 613 613 613 612 612 612 615 615 615 614 614 614 616 616 616 617 617 617 618 618 618 616 616 616 618 618 618 619 619 619 620 620 620 622 622 622 621 621 621 620 620 620 623 623 623 622 622 622 624 624 624 625 625 625 626 626 626 624 624 624 626 626 626 627 627 627 628 628 628 630 630 630 629 629 629 628 628 628 631 631 631 630 630 630 632 632 632 633 633 633 634 634 634 632 632 632 634 634 634 635 635 635 636 636 636 638 638 638 637 637 637 636 636 636 639 639 639 638 638 638 640 640 640 641 641 641 642 642 642 640 640 640 642 642 642 643 643 643 644 644 644 646 646 646 645 645 645 644 644 644 647 647 647 646 646 646 648 648 648 649 649 649 650 650 650 648 648 648 650 650 650 651 651 651 652 652 652 654 654 654 653 653 653 652 652 652 655 655 655 654 654 654 656 656 656 657 657 657 658 658 658 656 656 656 658 658 658 659 659 659 660 660 660 662 662 662 661 661 661 660 660 660 663 663 663 662 662 662 664 664 664 665 665 665 666 666 666 664 664 664 666 666 666 667 667 667 668 668 668 670 670 670 669 669 669 668 668 668 671 671 671 670 670 670</p>
        </triangles>
      </mesh>
    </geometry>
  </library_geometries>
  <library_visual_scenes>
    <visual_scene id="Scene" name="Scene">
      <node id="lightning_1" name="lightning_1" type="NODE">
        <matrix sid="transform">1 0 0 0 0 1 0 0 0 0 1 0 0 0 0 1</matrix>
        <instance_geometry url="#lightning_1-mesh" name="lightning_1">
          <bind_material><technique_common><instance_material symbol="lightning_1-material" target="#lightning_1-material"><bind_vertex_input semantic="lightning_1-map-0" input_semantic="TEXCOORD" input_set="0"/></instance_material></technique_common></bind_material>
        </instance_geometry>
      </node>
    </visual_scene>
  </library_visual_scenes>
  <scene><instance_visual_scene url="#Scene"/></scene>
</COLLADA>
