<?xml version="1.0" encoding="utf-8"?>
<COLLADA xmlns="http://www.collada.org/2005/11/COLLADASchema" version="1.4.1" xmlns:xsi="http://www.w3.org/2001/XMLSchema-instance">
  <asset>
    <contributor>
      <author>Blender User</author>
      <authoring_tool>Blender 4.3.1 commit date:2024-12-10, commit time:07:46, hash:33d812126174</authoring_tool>
    </contributor>
    <created>2026-08-31T21:57:42</created>
    <modified>2026-08-31T21:57:42</modified>
    <unit name="inch" meter="0.0254"/>
    <up_axis>Z_UP</up_axis>
  </asset>
  <library_effects>
    <effect id="Material_001-effect">
      <profile_COMMON>
        <newparam sid="mla_a_png-surface">
          <surface type="2D">
            <init_from>mla_a_png</init_from>
          </surface>
        </newparam>
        <newparam sid="mla_a_png-sampler">
          <sampler2D>
            <source>mla_a_png-surface</source>
          </sampler2D>
        </newparam>
        <technique sid="common">
          <lambert>
            <emission>
              <color sid="emission">0 0 0 1</color>
            </emission>
            <diffuse>
              <texture texture="mla_a_png-sampler" texcoord="Cube_006-mesh-map-0"/>
            </diffuse>
            <index_of_refraction>
              <float sid="ior">1.5</float>
            </index_of_refraction>
          </lambert>
        </technique>
      </profile_COMMON>
    </effect>
  </library_effects>
  <library_images>
    <image id="mla_a_png" name="mla_a_png">
      <init_from>/home/welton/Downloads/mla_a.png</init_from>
    </image>
  </library_images>
  <library_materials>
    <material id="Material_001-material" name="Material.001">
      <instance_effect url="#Material_001-effect"/>
    </material>
  </library_materials>
  <library_geometries>
    <geometry id="Cube_001-mesh" name="Cube.001">
      <mesh>
        <source id="Cube_001-mesh-positions">
          <float_array id="Cube_001-mesh-positions-array" count="576">0.09361332 0.1603576 -0.1379581 0.237536 0.1444571 0.3958237 0.261879 0.01774066 0.4336127 0.2268837 -0.0902118 0.4262645 0.2011678 -0.06469559 -0.009766101 0.07970952 0.1386857 -0.1386663 0.2533236 0.1266826 0.25368 0.2179583 0.1380536 0.1456509 0.2255787 -0.2471708 0.06697142 0.2770612 0.01489043 0.2624446 0.2212942 0.04245167 0.1125529 0.2590199 -0.08991611 0.2489163 0.2371908 -0.03069239 0.08670848 0.1464147 0.2218008 0.4321268 0.09701168 -0.2910035 -0.07025378 0.06973761 0.1810631 -0.1417984 0.1545449 -0.09710556 0.5069856 0.154787 0.04300349 0.4999629 0.1655268 0.242541 0.2865568 0.1052197 0.2256717 0.158955 0.07147407 -0.3607396 0.02330565 0.07865583 -0.2338328 -0.07237613 0.04971373 -0.02223467 -0.1457157 0.06123512 -0.003765821 -0.1395738 0.1952279 0.1228002 0.08242523 0.2141889 0.03366303 0.07240223 0.1110695 0.1674935 0.07929873 -0.09361243 0.1603576 -0.1379581 -0.1770539 -0.1846373 -0.02322226 -0.2375352 0.1444571 0.3958237 4.22253e-7 0.227418 0.4691964 4.22253e-7 0.202491 -0.1528187 -0.2618782 0.01774066 0.4336127 -0.2268828 -0.0902118 0.4262645 -0.201167 -0.06469559 -0.009766101 -0.07970869 0.1386857 -0.1386663 4.22253e-7 0.04868644 0.5417156 4.22253e-7 -0.1113523 0.5430392 -0.2533227 0.1266826 0.25368 -0.2179574 0.1380536 0.1456509 -0.2255779 -0.2471708 0.06697142 4.22253e-7 0.2848644 0.2968135 4.22253e-7 0.2635841 0.160508 -0.2770604 0.01489043 0.2624446 -0.2212933 0.04245167 0.1125529 -0.2590191 -0.08991611 0.2489163 -0.1464139 0.2218008 0.4321268 -0.06973677 0.1810631 -0.1417984 -0.1065294 -0.1031129 -0.07463312 -0.1545441 -0.09710556 0.5069856 -0.1547861 0.04300349 0.4999629 -0.165526 0.242541 0.2865568 -0.1052189 0.2256717 0.158955 -0.07147324 -0.3607396 0.02330565 -0.001034379 -0.3672583 0.0152446 4.22253e-7 -0.2682998 -0.09247779 -0.078655 -0.2338328 -0.07237613 -0.04971283 -0.02223467 -0.1457157 4.22253e-7 -0.03414356 -0.1529702 -0.06123429 -0.003765821 -0.1395738 -0.1952271 0.1228002 0.08242523 4.22253e-7 0.2037773 0.07200539 -0.214188 0.03366303 0.07240223 -0.1110686 0.1674935 0.07929873 -0.2214567 -0.03027594 0.06812959 0.1770547 -0.1846373 -0.02322226 4.22253e-7 -0.3221352 -0.08485263 0.1065302 -0.1031129 -0.07463312 4.22253e-7 -0.13652 -0.08437615 0.2214576 -0.03027594 0.06812959 0.1767442 -0.0283249 -0.01893645 -0.09701085 -0.2910035 -0.07025378 -0.23719 -0.03069239 0.08670848 -0.1767434 -0.0283249 -0.01893645 0.1560856 -0.09351807 0.4233373 0.1803401 -0.09816962 0.2994166 0.1097688 -0.09077495 0.4806711 -0.1560848 -0.09351807 0.4233373 4.19289e-7 -0.1008939 0.5062789 -0.1803393 -0.09816962 0.2994166 -0.109768 -0.09077495 0.4806711 0.03262197 -0.1240652 0.5307317 0.06302046 -0.05248808 0.518128 0.05650264 -0.1531406 0.5234116 0.1091543 -0.1086575 0.5039867 0.1543673 -0.06498903 0.4662648 0.1890605 -0.02511119 0.4128168 0.2108695 0.008258402 0.3472849 0.2183082 0.03284567 0.2741351 0.2108695 0.04697525 0.1983523 0.1890605 0.04968392 0.1251012 0.06524354 -0.1928583 0.5134122 0.1260405 -0.1853862 0.4846693 0.1782479 -0.1734998 0.4389459 0.2183082 -0.1580092 0.3793581 0.2434911 -0.1399701 0.3099666 0.2520805 -0.1206117 0.2355003 0.236525 -0.1012533 0.161034 0.2183082 -0.0832141 0.09164249 0.05650264 -0.232576 0.5034128 0.1091543 -0.262115 0.4653519 0.1543673 -0.2820107 0.411627 0.1890605 -0.2909073 0.3458994 0.2108695 -0.2881987 0.2726482 0.2183082 -0.2740692 0.1968655 0.2108695 -0.2494818 0.1237157 0.1890605 -0.2161121 0.05818378 0.03262197 -0.2616514 0.4960927 0.06302046 -0.3182843 0.4512106 0.0891242 -0.3614462 0.3916282 0.1091543 -0.3881955 0.3214059 0.1217458 -0.3967095 0.2453293 0.1260405 -0.3864078 0.1685829 0.1217458 -0.3579927 0.0963968 0.1091543 -0.3134003 0.03369039 4.39942e-7 -0.2722938 0.4934134 4.42486e-7 -0.3388437 0.4460346 4.42486e-7 -0.3905215 0.384308 4.42486e-7 -0.4238054 0.3124407 4.42486e-7 -0.4364272 0.2353299 4.42486e-7 -0.4275266 0.1582307 4.42486e-7 -0.3977103 0.08639734 4.42486e-7 -0.3490102 0.02472513 -0.03262108 -0.2616514 0.4960927 -0.06301957 -0.3182843 0.4512106 -0.0891233 -0.3614462 0.3916282 -0.1091534 -0.3881955 0.3214059 -0.1217449 -0.3967095 0.2453293 -0.1260396 -0.3864078 0.1685829 -0.1217449 -0.3579927 0.0963968 -0.1091534 -0.3134003 0.03369039 4.42486e-7 -0.1954069 0.5232158 -0.05650174 -0.232576 0.5034128 -0.1091534 -0.262115 0.4653519 -0.1543664 -0.2820107 0.411627 -0.1890596 -0.2909073 0.3458994 -0.2108687 -0.2881987 0.2726482 -0.2183073 -0.2740692 0.1968655 -0.2108687 -0.2494818 0.1237157 -0.1890596 -0.2161121 0.05818378 -0.06524264 -0.1928583 0.5134122 -0.1260396 -0.1853862 0.4846693 -0.1782471 -0.1734998 0.4389459 -0.2183073 -0.1580092 0.3793581 -0.2434902 -0.1399701 0.3099666 -0.2520796 -0.1206117 0.2355003 -0.2365241 -0.1012533 0.161034 -0.2183073 -0.0832141 0.09164249 -0.05650174 -0.1531406 0.5234116 -0.1091534 -0.1086575 0.5039867 -0.1543664 -0.06498903 0.4662648 -0.1890596 -0.02511119 0.4128168 -0.2108687 0.008258402 0.3472849 -0.2183073 0.03284573 0.2741351 -0.2108687 0.04697525 0.1983523 -0.1890596 0.04968392 0.1251012 -0.03262108 -0.1240652 0.5307317 -0.06301957 -0.05248814 0.518128 4.44958e-7 -0.1134229 0.533411 4.42486e-7 -0.03192877 0.5233041 0.05457735 -0.4060004 0.3169233 0.04456228 -0.3759838 0.3879681 0.01631122 -0.2669726 0.494753 0.05457735 -0.3312053 0.02920776 0.06087309 -0.3778515 0.0913971 0.06087309 -0.4165683 0.2403296 0.03151041 -0.328564 0.4486226 0.0630204 -0.4069672 0.1634068 -0.06301957 -0.4069672 0.1634068 -0.06087219 -0.4165683 0.2403296 -0.04456144 -0.3759838 0.3879681 -0.03150951 -0.328564 0.4486226 -0.06087219 -0.3778515 0.0913971 -0.05457645 -0.4060004 0.3169233 -0.01631033 -0.2669726 0.494753 -0.05457645 -0.3312053 0.02920776 -0.1663067 -0.3424541 0.2589888 -0.1491065 -0.3395515 0.3336527 -0.08608645 -0.2901996 0.4582813 -0.04456144 -0.2471137 0.4997527 -0.1491065 -0.2647562 0.04593712 -0.1721734 -0.3302385 0.1827242 -0.1217449 -0.3217284 0.4016276 -0.1663067 -0.3037372 0.1100563 0.1663076 -0.3424541 0.2589888 0.1491073 -0.3395515 0.3336527 0.08608734 -0.2901996 0.4582813 0.04456228 -0.2471137 0.4997527 0.1491073 -0.2647562 0.04593712 0.1721743 -0.3302385 0.1827242 0.1217458 -0.3217284 0.4016276 0.1663076 -0.3037372 0.1100563</float_array>
          <technique_common>
            <accessor source="#Cube_001-mesh-positions-array" count="192" stride="3">
              <param name="X" type="float"/>
              <param name="Y" type="float"/>
              <param name="Z" type="float"/>
            </accessor>
          </technique_common>
        </source>
        <source id="Cube_001-mesh-normals">
          <float_array id="Cube_001-mesh-normals-array" count="774">0.504386 0.8133445 -0.289941 0.6608186 0.7285084 -0.1805394 0.4285325 0.9018654 -0.05476278 0.7102087 -0.5474011 -0.4426689 0.9584192 -0.1935166 -0.2097239 0.3576829 -0.6982874 -0.6200466 0.3822213 0.3470355 0.8564307 0 0.3759744 0.9266301 0 0.190789 0.9816311 0.6653856 -0.4064207 -0.6261664 0.3161542 -0.0171532 -0.9485529 0.6492074 -0.1063601 -0.7531383 0.7111407 0.2485999 -0.6576299 -0.07832038 0.3755401 -0.923491 0.2987594 0.01446282 -0.9542189 0.2935805 0.3599742 -0.8855671 0.4045991 0.1970363 0.8930153 0.5558877 0.05502587 0.8294342 0.9123336 0.3944597 -0.109768 0.5335075 0.8443411 -0.04957753 0.876565 0.4713522 0.09726667 0.3897421 0.8232364 -0.4127746 0.800081 0.4967992 -0.3362455 0.9762534 -0.1944841 -0.09542119 0.947263 -0.06444656 0.3139101 0.8660375 0.03620201 0.4986668 0.9935233 0.01118266 -0.1130774 0.9690036 0.1183293 -0.2168643 0.7291527 -0.3257597 0.6018447 0.3957322 0.8707537 -0.2918633 0.2989709 0.9542619 8.20045e-4 0.8897705 -0.3359647 -0.3089275 0.6033126 -0.7974973 0.003481924 0.5630509 0.3220102 0.7611066 0.2089856 0.3592266 -0.90955 0 -0.06413644 -0.9979411 0.7018486 -0.005221724 0.712307 0 0.9985443 0.05393952 0.3939191 0.8893442 0.2321525 0 0.9252528 -0.379351 -0.777332 -0.5927119 -0.2108265 0.4937274 -0.7516643 -0.4373033 0.09087324 -0.05429369 -0.9943814 0.02301067 -0.02789479 -0.9993461 0.5082873 0.6024669 -0.6153679 0.7145103 0.6406708 -0.281098 0.8685156 0.4057904 -0.2846313 0.7142028 0.3660227 -0.5966086 -0.01827001 -0.5297628 -0.8479492 0 -0.5566266 -0.8307628 0.2449054 -0.5390633 -0.8058735 0.6642907 -0.1725414 -0.7272876 0.6934275 -0.1274124 -0.7091717 0.7783286 -0.001573324 -0.6278553 0.9277387 0.1538885 -0.3400284 0.8967058 0.2330576 -0.376302 0.8976126 0.2330102 -0.374163 0 0.9487075 0.3161554 0.3108463 0.9504446 -0.00543797 0.2249881 -0.5351493 -0.8142455 0.2938628 0.7919726 -0.5351861 -0.504386 0.8133444 -0.2899409 -0.4285324 0.9018653 -0.05476307 -0.6608184 0.7285084 -0.1805402 -0.9134393 -0.3371323 -0.2279707 -0.9740488 0.2084741 0.08813345 -0.9761087 -0.1262441 -0.1768453 -0.3822212 0.3470354 0.8564306 -0.6653855 -0.406421 -0.6261662 -0.3481101 -0.09482395 -0.9326455 -0.7044581 0.105561 -0.7018517 -0.6471678 -0.1025766 -0.7554151 0.1825955 0.2235913 -0.9574267 -0.1198935 0.1883843 -0.9747498 -0.2987594 0.01446288 -0.9542189 -0.4045991 0.1970364 0.8930153 -0.2275174 0.3633356 0.9034507 -0.9123336 0.3944597 -0.1097679 -0.8765653 0.4713519 0.09726655 -0.5335075 0.8443411 -0.04957753 -0.3897422 0.8232365 -0.4127745 -0.800081 0.4967994 -0.3362454 -0.992165 -0.1210009 0.0311014 -0.9448534 -0.06350141 0.3212782 -0.8660376 0.03620201 0.4986668 -0.9935233 0.01118302 -0.1130773 -0.9690036 0.118329 -0.2168645 -0.7316911 -0.3271161 0.5980161 -0.3957322 0.8707536 -0.2918634 -0.2989709 0.954262 8.2001e-4 -0.7811706 -0.6230128 -0.0403428 -0.8755587 -0.3759656 -0.3033922 -0.5630509 0.3220102 0.7611066 -0.6136728 0.06393003 -0.7869681 -0.118264 -0.04785972 0.9918282 -0.3939191 0.8893442 0.2321525 -0.09185022 -0.05510085 -0.9942472 -0.4949575 0.5588359 -0.6653718 -0.5732737 0.5850026 -0.5736979 -0.682351 0.6522444 -0.3301128 -0.7142024 0.366023 -0.5966089 -0.2449054 -0.5390634 -0.8058736 -0.6934274 -0.1274125 -0.7091717 -0.6642907 -0.1725417 -0.7272876 -0.7783286 -0.001573204 -0.6278553 -0.9277386 0.1538885 -0.3400285 -0.8967056 0.2330578 -0.3763018 -0.8976125 0.2330103 -0.374163 -0.3108463 0.9504447 -0.00543785 -0.2244674 -0.5364084 -0.8135603 -0.2938627 0.7919725 -0.5351862 -0.1571136 -0.9336237 -0.321966 0.1477776 -0.9832974 -0.1062455 0.13605 -0.903773 -0.4058138 -0.3346474 -0.8799502 -0.3371927 -0.1358342 -0.9037591 -0.4059169 -0.3026751 -0.9521318 -0.04281497 -0.1477786 -0.9832974 -0.1062439 0.09276348 -0.9795501 -0.1785403 1.22711e-5 -0.8126395 -0.5827668 -0.0933029 -0.9802346 -0.1744558 0.01938778 -0.9988672 -0.04345566 -0.01939076 -0.9988674 -0.04345065 -0.2057851 -0.9512562 0.2297049 0.5637485 -0.689908 0.4541086 0.7400068 -0.4499558 0.49993 -0.5927833 -0.6742945 0.4403805 2.22873e-7 0.02426147 0.9997057 0 -0.2442564 0.9697108 0.168101 -0.01476818 0.9856592 0.2110137 0.08189892 0.9740461 2.12935e-7 0.1230781 0.9923971 0.5009209 -0.04145866 0.8644996 0.2797511 -0.1107878 0.953659 0.7648246 0.006132304 0.6442095 0.9002478 -0.1064981 0.422152 0.8868939 0.08066362 0.4548764 0.3175286 -0.2316316 0.9195229 0.9428041 0.2418677 -0.2293913 0.9755434 0.05374348 -0.2131357 0.9578227 0.07101339 -0.278447 0.9756336 -0.05367928 0.2127386 0.9557048 0.1459844 0.2555718 0.5730302 -0.2003031 0.7946792 0.9997719 0.005275964 -0.02069544 0.9799553 0.1972202 0.0281406 0.7679625 -0.1566188 0.621051 0.9600332 0.2288908 -0.1610757 0.5060418 -0.4291673 0.7481558 0.683348 -0.4706866 0.5581126 0.8826522 -0.3381473 -0.3264682 0.8073696 -0.4802191 0.3428469 0.2802225 -0.3543749 0.8921288 0.8643354 -0.2907597 -0.4103453 0.8795753 -0.4610146 0.1175282 0.9048199 -0.409228 -0.1176155 0.7608163 -0.644347 0.07730156 0.502218 -0.8124232 0.2962191 0.762414 -0.6434507 0.06852978 0.4202226 -0.5304913 0.736201 0.168641 -0.4545495 0.8746113 0.304826 -0.6174041 0.725185 0.7822009 -0.6030013 -0.1566881 0.7822028 -0.6031165 -0.1562352 0.5801581 -0.6118587 0.5376296 0.4180069 -0.7393624 0.5278386 0.7609744 -0.5312589 -0.3724004 0.7591634 -0.5275349 -0.3812847 0.6939722 -0.6486562 0.3124863 0.2214226 -0.4051802 0.8870181 0.7311702 -0.4779949 -0.4867351 0.7311703 -0.4779949 -0.4867349 0.2763936 -0.9184523 0.2829347 0 -0.8544111 0.5195978 0.2786361 -0.921881 0.2692535 0.08203917 -0.4723982 0.8775589 0.3072475 -0.8203801 -0.482261 0.2934246 -0.7502658 -0.5924552 0.2934244 -0.7502658 -0.5924554 0.3083606 -0.950992 0.02298116 0.3089501 -0.9509497 0.01563853 0.1589 -0.6697073 0.725426 -1.51033e-7 -0.4958643 0.8684 -1.52306e-7 -0.6952542 0.7187641 0.3188481 -0.9173484 -0.2383443 0.3188487 -0.9174001 -0.2381442 0.2252985 -0.8221997 0.5227124 0.3078932 -0.8240492 -0.4755467 -0.3188482 -0.9173484 -0.2383443 -0.3085682 -0.9509831 0.02041673 -0.3188475 -0.9172952 -0.2385495 -0.1589001 -0.669707 0.7254263 -0.4180068 -0.7393625 0.5278384 -0.2252985 -0.8221999 0.5227121 -0.3072475 -0.8203801 -0.4822609 -0.3074291 -0.8214071 -0.4803935 -0.5022181 -0.8124232 0.2962189 -0.2763935 -0.9184523 0.2829349 -0.08203917 -0.4723982 0.8775589 -0.2934245 -0.7502659 -0.5924552 -0.2934244 -0.7502658 -0.5924554 -0.3083606 -0.950992 0.02298098 -0.3048261 -0.6174039 0.7251852 -0.6939724 -0.6486561 0.3124862 -0.8795753 -0.4610147 0.1175281 -0.7608162 -0.6443471 0.07730156 -0.221423 -0.4051805 0.8870179 -0.5060415 -0.4291672 0.7481561 -0.4202226 -0.5304911 0.7362012 -0.9048203 -0.4092274 -0.1176149 -0.7822009 -0.6030014 -0.1566882 -0.6833478 -0.4706868 0.5581128 -0.5801578 -0.6118589 0.5376297 -0.7591634 -0.5275349 -0.3812847 -0.8826522 -0.3381473 -0.3264682 -0.8073697 -0.4802191 0.3428469 -0.1686411 -0.4545494 0.8746113 -0.7311705 -0.4779947 -0.486735 -0.8643357 -0.2907594 -0.410345 -0.9997719 0.005277454 -0.02069443 -0.9755434 0.05374389 -0.213135 -0.9002479 -0.106498 0.4221518 -0.280223 -0.3543751 0.8921287 -0.3175289 -0.2316316 0.9195229 -0.9578227 0.07101815 -0.2784458 -0.9756336 -0.05367922 0.2127388 -0.5730301 -0.200303 0.7946794 -0.7679624 -0.1566188 0.621051 -0.9557049 0.1459845 0.2555718 -0.9799605 0.1971891 0.02817916 -0.500921 -0.04145866 0.8644995 -0.7648246 0.006132125 0.6442094 -0.9600214 0.2289397 -0.1610761 -0.8868941 0.0806635 0.4548764 -0.2797513 -0.1107879 0.9536589 -0.9428036 0.2418695 -0.2293917 -0.1681005 -0.01476812 0.9856593 -0.2110133 0.08189898 0.9740462 0.3188473 -0.9172953 -0.2385492 0.3074291 -0.8214073 -0.4803932 0.308568 -0.9509832 0.02041655 0.2934244 -0.750266 -0.5924553 -0.278636 -0.921881 0.2692539 -0.30895 -0.9509497 0.01563799 -0.2934246 -0.7502659 -0.5924551 -0.3078932 -0.8240493 -0.4755466 -0.3188486 -0.9174002 -0.2381442 -0.7311704 -0.4779946 -0.4867351 -0.7609742 -0.5312591 -0.3724004 -0.7624139 -0.6434508 0.06852972 -0.7822024 -0.6031169 -0.1562355 0.2116938 -0.9490461 0.2334467 -0.5958728 -0.2365805 0.7674408 0.07548487 -0.1511208 0.985629 0.4308785 -0.7930133 0.4306665 -0.0672962 -0.9443287 0.3220475 0.06852525 -0.9465585 0.315169 0.5682349 -0.2596322 0.7808331</float_array>
          <technique_common>
            <accessor source="#Cube_001-mesh-normals-array" count="258" stride="3">
              <param name="X" type="float"/>
              <param name="Y" type="float"/>
              <param name="Z" type="float"/>
            </accessor>
          </technique_common>
        </source>
        <source id="Cube_001-mesh-map-0">
          <float_array id="Cube_001-mesh-map-0-array" count="1998">0.7755096 0.312898 0.627201 0.1125386 0.63235 0.1096532 0.5968662 0.1990374 0.6508261 0.2642837 0.6455467 0.4192179 0.7997727 0.63264 0.8116847 0.7724865 0.7123203 0.8484399 0.7009301 0.2920163 0.6134285 0.1109359 0.627201 0.1125386 0.6508261 0.2642837 0.6230708 0.2034307 0.6611475 0.2450686 0.5582037 0.1952115 0.5489471 0.1619434 0.5968662 0.1990374 0.5489471 0.1619434 0.6230708 0.2034307 0.6508261 0.2642837 0.7102906 0.7421029 0.7123203 0.8484399 0.5662017 0.7786872 0.7779443 0.4974865 0.8063015 0.5374804 0.7744662 0.6052621 0.8260254 0.4330192 0.8063015 0.5374804 0.7612115 0.3517966 0.662881 0.323669 0.6762581 0.4560499 0.6455467 0.4192179 0.7161676 0.6162884 0.7324199 0.4775878 0.7779443 0.4974865 0.7324199 0.4775878 0.7012965 0.3208491 0.7612115 0.3517966 0.7161676 0.6162884 0.6558123 0.6201532 0.6762581 0.4560499 0.6762581 0.4560499 0.662881 0.323669 0.7012965 0.3208491 0.8103464 0.3085313 0.63235 0.1096532 0.6370516 0.1089593 0.6455467 0.4192179 0.5611554 0.3510111 0.5582037 0.1952115 0.7997727 0.63264 0.7102906 0.7421029 0.7744662 0.6052621 0.5303254 0.1503928 0.5379862 0.1253623 0.5489471 0.1619434 0.7161676 0.6162884 0.7102906 0.7421029 0.6238837 0.6677204 0.8063015 0.5374804 0.8603618 0.6086553 0.7997727 0.63264 0.8063015 0.5374804 0.8260254 0.4330192 0.8535135 0.4443728 0.5611554 0.3510111 0.5388272 0.3376005 0.5303254 0.1503928 0.6230708 0.2034307 0.5489471 0.1619434 0.5466636 0.1249634 0.662881 0.323669 0.6508261 0.2642837 0.6635642 0.2945116 0.7012965 0.3208491 0.662881 0.323669 0.6635642 0.2945116 0.5466636 0.1249634 0.576079 0.1123869 0.5904431 0.118537 0.6230708 0.2034307 0.5904431 0.118537 0.596057 0.1154243 0.6134285 0.1109359 0.6611475 0.2450686 0.596057 0.1154243 0.8260254 0.4330192 0.7612115 0.3517966 0.7755096 0.312898 0.7612115 0.3517966 0.7012965 0.3208491 0.7009301 0.2920163 0.8535135 0.4443728 0.8260254 0.4330192 0.8103464 0.3085313 0.6134285 0.1109359 0.7009301 0.2920163 0.6635642 0.2945116 0.8103464 0.3085313 0.7755096 0.312898 0.63235 0.1096532 0.7102906 0.7421029 0.7997727 0.63264 0.7123203 0.8484399 0.7755096 0.312898 0.7009301 0.2920163 0.627201 0.1125386 0.5968662 0.1990374 0.5489471 0.1619434 0.6508261 0.2642837 0.6238837 0.6677204 0.7102906 0.7421029 0.5662017 0.7786872 0.8603618 0.6086553 0.8116847 0.7724865 0.7997727 0.63264 0.7744662 0.6052621 0.7161676 0.6162884 0.7779443 0.4974865 0.7779443 0.4974865 0.7324199 0.4775878 0.7612115 0.3517966 0.7324199 0.4775878 0.7161676 0.6162884 0.6762581 0.4560499 0.7324199 0.4775878 0.6762581 0.4560499 0.7012965 0.3208491 0.8388651 0.2961973 0.8103464 0.3085313 0.6370516 0.1089593 0.5968662 0.1990374 0.6455467 0.4192179 0.5582037 0.1952115 0.8063015 0.5374804 0.7997727 0.63264 0.7744662 0.6052621 0.5582037 0.1952115 0.5303254 0.1503928 0.5489471 0.1619434 0.6558123 0.6201532 0.7161676 0.6162884 0.6238837 0.6677204 0.8063015 0.5374804 0.7779443 0.4974865 0.7612115 0.3517966 0.8603618 0.6086553 0.8063015 0.5374804 0.8535135 0.4443728 0.5582037 0.1952115 0.5611554 0.3510111 0.5303254 0.1503928 0.7009301 0.2920163 0.7012965 0.3208491 0.6635642 0.2945116 0.6230708 0.2034307 0.5466636 0.1249634 0.5904431 0.118537 0.6611475 0.2450686 0.6230708 0.2034307 0.596057 0.1154243 0.8103464 0.3085313 0.8260254 0.4330192 0.7755096 0.312898 0.7755096 0.312898 0.7612115 0.3517966 0.7009301 0.2920163 0.8388651 0.2961973 0.8535135 0.4443728 0.8103464 0.3085313 0.6611475 0.2450686 0.6134285 0.1109359 0.6635642 0.2945116 0.6508261 0.2642837 0.6611475 0.2450686 0.6635642 0.2945116 0.6508261 0.2642837 0.662881 0.323669 0.6455467 0.4192179 0.7102906 0.7421029 0.7161676 0.6162884 0.7744662 0.6052621 0.5489471 0.1619434 0.5379862 0.1253623 0.5466636 0.1249634 0.7755096 0.312898 0.63235 0.1096532 0.627201 0.1125386 0.5968662 0.1990374 0.6455467 0.4192179 0.6508261 0.2642837 0.7997727 0.63264 0.7123203 0.8484399 0.8116847 0.7724865 0.7009301 0.2920163 0.627201 0.1125386 0.6134285 0.1109359 0.6508261 0.2642837 0.6611475 0.2450686 0.6230708 0.2034307 0.5582037 0.1952115 0.5968662 0.1990374 0.5489471 0.1619434 0.5489471 0.1619434 0.6508261 0.2642837 0.6230708 0.2034307 0.7102906 0.7421029 0.5662017 0.7786872 0.7123203 0.8484399 0.7779443 0.4974865 0.7744662 0.6052621 0.8063015 0.5374804 0.8260254 0.4330192 0.7612115 0.3517966 0.8063015 0.5374804 0.662881 0.323669 0.6455467 0.4192179 0.6762581 0.4560499 0.7161676 0.6162884 0.7779443 0.4974865 0.7324199 0.4775878 0.7324199 0.4775878 0.7612115 0.3517966 0.7012965 0.3208491 0.7161676 0.6162884 0.6762581 0.4560499 0.6558123 0.6201532 0.6762581 0.4560499 0.7012965 0.3208491 0.662881 0.323669 0.8103464 0.3085313 0.6370516 0.1089593 0.63235 0.1096532 0.6455467 0.4192179 0.5582037 0.1952115 0.5611554 0.3510111 0.7997727 0.63264 0.7744662 0.6052621 0.7102906 0.7421029 0.5303254 0.1503928 0.5489471 0.1619434 0.5379862 0.1253623 0.7161676 0.6162884 0.6238837 0.6677204 0.7102906 0.7421029 0.8063015 0.5374804 0.7997727 0.63264 0.8603618 0.6086553 0.8063015 0.5374804 0.8535135 0.4443728 0.8260254 0.4330192 0.5611554 0.3510111 0.5303254 0.1503928 0.5388272 0.3376005 0.6230708 0.2034307 0.5466636 0.1249634 0.5489471 0.1619434 0.662881 0.323669 0.6635642 0.2945116 0.6508261 0.2642837 0.7012965 0.3208491 0.6635642 0.2945116 0.662881 0.323669 0.5466636 0.1249634 0.5904431 0.118537 0.576079 0.1123869 0.6230708 0.2034307 0.596057 0.1154243 0.5904431 0.118537 0.6134285 0.1109359 0.596057 0.1154243 0.6611475 0.2450686 0.8260254 0.4330192 0.7755096 0.312898 0.7612115 0.3517966 0.7612115 0.3517966 0.7009301 0.2920163 0.7012965 0.3208491 0.8535135 0.4443728 0.8103464 0.3085313 0.8260254 0.4330192 0.6134285 0.1109359 0.6635642 0.2945116 0.7009301 0.2920163 0.8103464 0.3085313 0.63235 0.1096532 0.7755096 0.312898 0.7102906 0.7421029 0.7123203 0.8484399 0.7997727 0.63264 0.7755096 0.312898 0.627201 0.1125386 0.7009301 0.2920163 0.5968662 0.1990374 0.6508261 0.2642837 0.5489471 0.1619434 0.6238837 0.6677204 0.5662017 0.7786872 0.7102906 0.7421029 0.8603618 0.6086553 0.7997727 0.63264 0.8116847 0.7724865 0.7744662 0.6052621 0.7779443 0.4974865 0.7161676 0.6162884 0.7779443 0.4974865 0.7612115 0.3517966 0.7324199 0.4775878 0.7324199 0.4775878 0.6762581 0.4560499 0.7161676 0.6162884 0.7324199 0.4775878 0.7012965 0.3208491 0.6762581 0.4560499 0.8388651 0.2961973 0.6370516 0.1089593 0.8103464 0.3085313 0.5968662 0.1990374 0.5582037 0.1952115 0.6455467 0.4192179 0.8063015 0.5374804 0.7744662 0.6052621 0.7997727 0.63264 0.5582037 0.1952115 0.5489471 0.1619434 0.5303254 0.1503928 0.6558123 0.6201532 0.6238837 0.6677204 0.7161676 0.6162884 0.8063015 0.5374804 0.7612115 0.3517966 0.7779443 0.4974865 0.8603618 0.6086553 0.8535135 0.4443728 0.8063015 0.5374804 0.5582037 0.1952115 0.5303254 0.1503928 0.5611554 0.3510111 0.7009301 0.2920163 0.6635642 0.2945116 0.7012965 0.3208491 0.6230708 0.2034307 0.5904431 0.118537 0.5466636 0.1249634 0.6611475 0.2450686 0.596057 0.1154243 0.6230708 0.2034307 0.8103464 0.3085313 0.7755096 0.312898 0.8260254 0.4330192 0.7755096 0.312898 0.7009301 0.2920163 0.7612115 0.3517966 0.8388651 0.2961973 0.8103464 0.3085313 0.8535135 0.4443728 0.6611475 0.2450686 0.6635642 0.2945116 0.6134285 0.1109359 0.6508261 0.2642837 0.6635642 0.2945116 0.6611475 0.2450686 0.6508261 0.2642837 0.6455467 0.4192179 0.662881 0.323669 0.7102906 0.7421029 0.7744662 0.6052621 0.7161676 0.6162884 0.5489471 0.1619434 0.5466636 0.1249634 0.5379862 0.1253623 0.6238837 0.6677204 0.6558123 0.6201532 0.6238837 0.6677204 0.5662017 0.7786872 0.6238837 0.6677204 0.6238837 0.6677204 0.6238837 0.6677204 0.6558123 0.6201532 0.6558123 0.6201532 0.5662017 0.7786872 0.6238837 0.6677204 0.5662017 0.7786872 0.6558123 0.6201532 0.6762581 0.4560499 0.6558123 0.6201532 0.6558123 0.6201532 0.6762581 0.4560499 0.6762581 0.4560499 0.5611554 0.3510111 0.5388272 0.3376005 0.5611554 0.3510111 0.2884485 0.6571887 0.2884485 0.6513769 0.3000548 0.6556614 0.2884485 0.6571887 0.3108704 0.6484765 0.2884485 0.6514273 0.3000548 0.6556614 0.3272843 0.6404153 0.3108704 0.6484765 0.3000548 0.6556614 0.2884485 0.6513769 0.3085511 0.6514883 0.3433706 0.6189121 0.3661202 0.5693714 0.3557143 0.5884444 0.3085511 0.6514883 0.2884485 0.6513769 0.3116611 0.6457886 0.3557143 0.4244329 0.3726018 0.4449163 0.3661202 0.4053599 0.3557143 0.5884444 0.3750802 0.5298149 0.3634735 0.5510882 0.3085511 0.6514883 0.3332924 0.6294037 0.3272843 0.6404153 0.3634735 0.5510882 0.3781363 0.4873656 0.3661202 0.5093894 0.3272843 0.6404153 0.3518672 0.6033393 0.3433706 0.6189121 0.3661202 0.5093894 0.3726018 0.4449163 0.3634735 0.4661896 0.3518672 0.6033393 0.3272843 0.6183918 0.3433706 0.587766 0.3781363 0.4873656 0.3634735 0.4236433 0.3726018 0.4449163 0.3661202 0.5693714 0.3433706 0.587766 0.3557143 0.5502983 0.3116611 0.6457886 0.2884485 0.6513769 0.3085511 0.6400883 0.3726018 0.4449163 0.3557143 0.3862871 0.3661202 0.4053599 0.3750802 0.5298149 0.3557143 0.5502983 0.3634735 0.5085419 0.3332924 0.6294037 0.3085511 0.6400883 0.3272843 0.6183918 0.3781363 0.4873656 0.3634735 0.5085419 0.3661202 0.4653421 0.3476188 0.5007552 0.3272843 0.5363359 0.3317643 0.4929688 0.3190776 0.6143614 0.3000548 0.6359155 0.3108704 0.6103307 0.3497063 0.4572809 0.3317643 0.4929688 0.3332924 0.4492196 0.3317643 0.5820661 0.3108704 0.6103307 0.3201577 0.5763658 0.3497063 0.4572809 0.3317643 0.4080703 0.3476188 0.4158567 0.3414992 0.5433171 0.3201577 0.5763658 0.3272843 0.5363359 0.2884485 0.6513769 0.3043029 0.6380017 0.3085511 0.6400883 0.3476188 0.4158567 0.3272843 0.3723247 0.3414992 0.3793058 0.3078662 0.5337805 0.2884485 0.572193 0.2884485 0.5312253 0.2884485 0.6513769 0.2942516 0.6351519 0.3000548 0.6359155 0.3101061 0.40522 0.2884485 0.367214 0.3078662 0.3697693 0.3101061 0.4901186 0.2884485 0.5312253 0.2884485 0.4872686 0.2996594 0.6088552 0.2884485 0.6343882 0.2884485 0.6073799 0.3108704 0.446269 0.2884485 0.4872686 0.2884485 0.4433185 0.3043029 0.5742794 0.2884485 0.6073799 0.2884485 0.572193 0.3108704 0.446269 0.2884485 0.40237 0.3101061 0.40522 0.2660266 0.446269 0.2451326 0.4929688 0.2436046 0.4492196 0.2772372 0.6088552 0.2567389 0.5763658 0.2725937 0.5742794 0.2667902 0.40522 0.2436046 0.4492196 0.2451326 0.4080703 0.2725937 0.5742794 0.2496123 0.5363359 0.2690304 0.5337805 0.2884485 0.6513769 0.2826454 0.6351519 0.2884485 0.6343882 0.2690304 0.3697693 0.2451326 0.4080703 0.2496123 0.3723247 0.2667902 0.4901186 0.2496123 0.5363359 0.2451326 0.4929688 0.2826454 0.6351519 0.2660266 0.6103307 0.2772372 0.6088552 0.2353975 0.5433171 0.2134231 0.5085419 0.2292779 0.5007552 0.2725937 0.6380017 0.2496123 0.6183918 0.2578194 0.6143614 0.2292779 0.5007552 0.2107764 0.4653421 0.2271903 0.4572809 0.2578194 0.6143614 0.233526 0.587766 0.2451326 0.5820661 0.2292779 0.4158567 0.2107764 0.4653421 0.2134231 0.4236433 0.2451326 0.5820661 0.2211826 0.5502983 0.2353975 0.5433171 0.2884485 0.6513769 0.2725937 0.6380017 0.2768422 0.6359155 0.2353975 0.3793058 0.2134231 0.4236433 0.2211826 0.3862871 0.2134231 0.4236433 0.1987607 0.4873656 0.2042951 0.4449163 0.233526 0.587766 0.2107764 0.5693714 0.2211826 0.5502983 0.2683452 0.6400883 0.2884485 0.6513769 0.2652353 0.6457886 0.2211826 0.3862871 0.2042951 0.4449163 0.2107764 0.4053599 0.2211826 0.5502983 0.2018168 0.5298149 0.2134231 0.5085419 0.2683452 0.6400883 0.2436046 0.6294037 0.2496123 0.6183918 0.2134231 0.5085419 0.1987607 0.4873656 0.2107764 0.4653421 0.2496123 0.6183918 0.2250294 0.6033393 0.233526 0.587766 0.1987607 0.4873656 0.2134231 0.5510882 0.2107764 0.5093894 0.2250294 0.6033393 0.2496123 0.6404153 0.233526 0.6189121 0.2042951 0.4449163 0.2107764 0.5093894 0.2134231 0.4661896 0.2107764 0.5693714 0.233526 0.6189121 0.2211826 0.5884444 0.2652353 0.6457886 0.2884485 0.6513769 0.2683452 0.6514883 0.2042951 0.4449163 0.2211826 0.4244329 0.2107764 0.4053599 0.2018168 0.5298149 0.2211826 0.5884444 0.2134231 0.5510882 0.2436046 0.6294037 0.2683452 0.6514883 0.2496123 0.6404153 0.2496123 0.6404153 0.2768422 0.6556614 0.2660266 0.6484765 0.2683452 0.6514883 0.2884485 0.6513769 0.2768422 0.6556614 0.2768422 0.6556614 0.2884485 0.6513769 0.2884485 0.6571887 0.2660266 0.6484765 0.2884485 0.6571887 0.2884485 0.6514273 0.3332924 0.4492196 0.3101061 0.40522 0.3317643 0.4080703 0.3201577 0.5763658 0.2996594 0.6088552 0.3043029 0.5742794 0.3317643 0.4929688 0.3108704 0.446269 0.3332924 0.4492196 0.3108704 0.6103307 0.2942516 0.6351519 0.2996594 0.6088552 0.3272843 0.5363359 0.3101061 0.4901186 0.3317643 0.4929688 0.3317643 0.4080703 0.3078662 0.3697693 0.3272843 0.3723247 0.3272843 0.5363359 0.3043029 0.5742794 0.3078662 0.5337805 0.2884485 0.6343882 0.2772372 0.6088552 0.2884485 0.6073799 0.2884485 0.5312253 0.2667902 0.4901186 0.2884485 0.4872686 0.2884485 0.367214 0.2667902 0.40522 0.2690304 0.3697693 0.2884485 0.572193 0.2690304 0.5337805 0.2884485 0.5312253 0.2884485 0.40237 0.2660266 0.446269 0.2667902 0.40522 0.2884485 0.6073799 0.2725937 0.5742794 0.2884485 0.572193 0.2884485 0.4872686 0.2660266 0.446269 0.2884485 0.4433185 0.2496123 0.3723247 0.2292779 0.4158567 0.2353975 0.3793058 0.2567389 0.5763658 0.2353975 0.5433171 0.2496123 0.5363359 0.2451326 0.4080703 0.2271903 0.4572809 0.2292779 0.4158567 0.2660266 0.6103307 0.2451326 0.5820661 0.2567389 0.5763658 0.2451326 0.4929688 0.2271903 0.4572809 0.2436046 0.4492196 0.2768422 0.6359155 0.2578194 0.6143614 0.2660266 0.6103307 0.2496123 0.5363359 0.2292779 0.5007552 0.2451326 0.4929688 0.3634735 0.4236433 0.3414992 0.3793058 0.3557143 0.3862871 0.3557143 0.5502983 0.3317643 0.5820661 0.3414992 0.5433171 0.3661202 0.4653421 0.3476188 0.4158567 0.3634735 0.4236433 0.3433706 0.587766 0.3190776 0.6143614 0.3317643 0.5820661 0.3661202 0.4653421 0.3476188 0.5007552 0.3497063 0.4572809 0.3272843 0.6183918 0.3043029 0.6380017 0.3190776 0.6143614 0.3634735 0.5085419 0.3414992 0.5433171 0.3476188 0.5007552 0.6238837 0.6677204 0.6558123 0.6201532 0.6558123 0.6201532 0.5662017 0.7786872 0.5662017 0.7786872 0.6238837 0.6677204 0.6238837 0.6677204 0.6238837 0.6677204 0.6558123 0.6201532 0.5662017 0.7786872 0.6238837 0.6677204 0.6238837 0.6677204 0.6558123 0.6201532 0.6762581 0.4560499 0.6762581 0.4560499 0.6558123 0.6201532 0.6558123 0.6201532 0.6762581 0.4560499 0.5611554 0.3510111 0.6455467 0.4192179 0.6455467 0.4192179 0.6455467 0.4192179 0.6762581 0.4560499 0.6455467 0.4192179 0.6762581 0.4560499 0.6762581 0.4560499 0.6455467 0.4192179 0.6455467 0.4192179 0.5611554 0.3510111 0.5611554 0.3510111 0.2884485 0.6571887 0.3000548 0.6556614 0.3108704 0.6484765 0.3000548 0.6556614 0.3085511 0.6514883 0.3272843 0.6404153 0.3433706 0.6189121 0.3518672 0.6033393 0.3661202 0.5693714 0.3557143 0.4244329 0.3634735 0.4661896 0.3726018 0.4449163 0.3557143 0.5884444 0.3661202 0.5693714 0.3750802 0.5298149 0.3085511 0.6514883 0.3116611 0.6457886 0.3332924 0.6294037 0.3634735 0.5510882 0.3750802 0.5298149 0.3781363 0.4873656 0.3272843 0.6404153 0.3332924 0.6294037 0.3518672 0.6033393 0.3661202 0.5093894 0.3781363 0.4873656 0.3726018 0.4449163 0.3518672 0.6033393 0.3332924 0.6294037 0.3272843 0.6183918 0.3781363 0.4873656 0.3661202 0.4653421 0.3634735 0.4236433 0.3661202 0.5693714 0.3518672 0.6033393 0.3433706 0.587766 0.3726018 0.4449163 0.3634735 0.4236433 0.3557143 0.3862871 0.3750802 0.5298149 0.3661202 0.5693714 0.3557143 0.5502983 0.3332924 0.6294037 0.3116611 0.6457886 0.3085511 0.6400883 0.3781363 0.4873656 0.3750802 0.5298149 0.3634735 0.5085419 0.3476188 0.5007552 0.3414992 0.5433171 0.3272843 0.5363359 0.3190776 0.6143614 0.3043029 0.6380017 0.3000548 0.6359155 0.3497063 0.4572809 0.3476188 0.5007552 0.3317643 0.4929688 0.3317643 0.5820661 0.3190776 0.6143614 0.3108704 0.6103307 0.3497063 0.4572809 0.3332924 0.4492196 0.3317643 0.4080703 0.3414992 0.5433171 0.3317643 0.5820661 0.3201577 0.5763658 0.2884485 0.6513769 0.3000548 0.6359155 0.3043029 0.6380017 0.3476188 0.4158567 0.3317643 0.4080703 0.3272843 0.3723247 0.3078662 0.5337805 0.3043029 0.5742794 0.2884485 0.572193 0.2884485 0.6513769 0.2884485 0.6343882 0.2942516 0.6351519 0.3101061 0.40522 0.2884485 0.40237 0.2884485 0.367214 0.3101061 0.4901186 0.3078662 0.5337805 0.2884485 0.5312253 0.2996594 0.6088552 0.2942516 0.6351519 0.2884485 0.6343882 0.3108704 0.446269 0.3101061 0.4901186 0.2884485 0.4872686 0.3043029 0.5742794 0.2996594 0.6088552 0.2884485 0.6073799 0.3108704 0.446269 0.2884485 0.4433185 0.2884485 0.40237 0.2660266 0.446269 0.2667902 0.4901186 0.2451326 0.4929688 0.2772372 0.6088552 0.2660266 0.6103307 0.2567389 0.5763658 0.2667902 0.40522 0.2660266 0.446269 0.2436046 0.4492196 0.2725937 0.5742794 0.2567389 0.5763658 0.2496123 0.5363359 0.2884485 0.6513769 0.2768422 0.6359155 0.2826454 0.6351519 0.2690304 0.3697693 0.2667902 0.40522 0.2451326 0.4080703 0.2667902 0.4901186 0.2690304 0.5337805 0.2496123 0.5363359 0.2826454 0.6351519 0.2768422 0.6359155 0.2660266 0.6103307 0.2353975 0.5433171 0.2211826 0.5502983 0.2134231 0.5085419 0.2725937 0.6380017 0.2683452 0.6400883 0.2496123 0.6183918 0.2292779 0.5007552 0.2134231 0.5085419 0.2107764 0.4653421 0.2578194 0.6143614 0.2496123 0.6183918 0.233526 0.587766 0.2292779 0.4158567 0.2271903 0.4572809 0.2107764 0.4653421 0.2451326 0.5820661 0.233526 0.587766 0.2211826 0.5502983 0.2884485 0.6513769 0.2683452 0.6400883 0.2725937 0.6380017 0.2353975 0.3793058 0.2292779 0.4158567 0.2134231 0.4236433 0.2134231 0.4236433 0.2107764 0.4653421 0.1987607 0.4873656 0.233526 0.587766 0.2250294 0.6033393 0.2107764 0.5693714 0.2211826 0.3862871 0.2134231 0.4236433 0.2042951 0.4449163 0.2211826 0.5502983 0.2107764 0.5693714 0.2018168 0.5298149 0.2683452 0.6400883 0.2652353 0.6457886 0.2436046 0.6294037 0.2134231 0.5085419 0.2018168 0.5298149 0.1987607 0.4873656 0.2496123 0.6183918 0.2436046 0.6294037 0.2250294 0.6033393 0.1987607 0.4873656 0.2018168 0.5298149 0.2134231 0.5510882 0.2250294 0.6033393 0.2436046 0.6294037 0.2496123 0.6404153 0.2042951 0.4449163 0.1987607 0.4873656 0.2107764 0.5093894 0.2107764 0.5693714 0.2250294 0.6033393 0.233526 0.6189121 0.2042951 0.4449163 0.2134231 0.4661896 0.2211826 0.4244329 0.2018168 0.5298149 0.2107764 0.5693714 0.2211826 0.5884444 0.2436046 0.6294037 0.2652353 0.6457886 0.2683452 0.6514883 0.2496123 0.6404153 0.2683452 0.6514883 0.2768422 0.6556614 0.2660266 0.6484765 0.2768422 0.6556614 0.2884485 0.6571887 0.3332924 0.4492196 0.3108704 0.446269 0.3101061 0.40522 0.3201577 0.5763658 0.3108704 0.6103307 0.2996594 0.6088552 0.3317643 0.4929688 0.3101061 0.4901186 0.3108704 0.446269 0.3108704 0.6103307 0.3000548 0.6359155 0.2942516 0.6351519 0.3272843 0.5363359 0.3078662 0.5337805 0.3101061 0.4901186 0.3317643 0.4080703 0.3101061 0.40522 0.3078662 0.3697693 0.3272843 0.5363359 0.3201577 0.5763658 0.3043029 0.5742794 0.2884485 0.6343882 0.2826454 0.6351519 0.2772372 0.6088552 0.2884485 0.5312253 0.2690304 0.5337805 0.2667902 0.4901186 0.2884485 0.367214 0.2884485 0.40237 0.2667902 0.40522 0.2884485 0.572193 0.2725937 0.5742794 0.2690304 0.5337805 0.2884485 0.40237 0.2884485 0.4433185 0.2660266 0.446269 0.2884485 0.6073799 0.2772372 0.6088552 0.2725937 0.5742794 0.2884485 0.4872686 0.2667902 0.4901186 0.2660266 0.446269 0.2496123 0.3723247 0.2451326 0.4080703 0.2292779 0.4158567 0.2567389 0.5763658 0.2451326 0.5820661 0.2353975 0.5433171 0.2451326 0.4080703 0.2436046 0.4492196 0.2271903 0.4572809 0.2660266 0.6103307 0.2578194 0.6143614 0.2451326 0.5820661 0.2451326 0.4929688 0.2292779 0.5007552 0.2271903 0.4572809 0.2768422 0.6359155 0.2725937 0.6380017 0.2578194 0.6143614 0.2496123 0.5363359 0.2353975 0.5433171 0.2292779 0.5007552 0.3634735 0.4236433 0.3476188 0.4158567 0.3414992 0.3793058 0.3557143 0.5502983 0.3433706 0.587766 0.3317643 0.5820661 0.3661202 0.4653421 0.3497063 0.4572809 0.3476188 0.4158567 0.3433706 0.587766 0.3272843 0.6183918 0.3190776 0.6143614 0.3661202 0.4653421 0.3634735 0.5085419 0.3476188 0.5007552 0.3272843 0.6183918 0.3085511 0.6400883 0.3043029 0.6380017 0.3634735 0.5085419 0.3557143 0.5502983 0.3414992 0.5433171</float_array>
          <technique_common>
            <accessor source="#Cube_001-mesh-map-0-array" count="999" stride="2">
              <param name="S" type="float"/>
              <param name="T" type="float"/>
            </accessor>
          </technique_common>
        </source>
        <source id="Cube_001-mesh-map-1">
          <float_array id="Cube_001-mesh-map-1-array" count="1998">0 0 0 0 0 0 0 0 0 0 0 0 0 0 0 0 0 0 0 0 0 0 0 0 0 0 0 0 0 0 0 0 0 0 0 0 0 0 0 0 0 0 0 0 0 0 0 0 0 0 0 0 0 0 0 0 0 0 0 0 0 0 0 0 0 0 0 0 0 0 0 0 0 0 0 0 0 0 0 0 0 0 0 0 0 0 0 0 0 0 0 0 0 0 0 0 0 0 0 0 0 0 0 0 0 0 0 0 0 0 0 0 0 0 0 0 0 0 0 0 0 0 0 0 0 0 0 0 0 0 0 0 0 0 0 0 0 0 0 0 0 0 0 0 0 0 0 0 0 0 0 0 0 0 0 0 0 0 0 0 0 0 0 0 0 0 0 0 0 0 0 0 0 0 0 0 0 0 0 0 0 0 0 0 0 0 0 0 0 0 0 0 0 0 0 0 0 0 0 0 0 0 0 0 0 0 0 0 0 0 0 0 0 0 0 0 0 0 0 0 0 0 0 0 0 0 0 0 0 0 0 0 0 0 0 0 0 0 0 0 0 0 0 0 0 0 0 0 0 0 0 0 0 0 0 0 0 0 0 0 0 0 0 0 0 0 0 0 0 0 0 0 0 0 0 0 0 0 0 0 0 0 0 0 0 0 0 0 0 0 0 0 0 0 0 0 0 0 0 0 0 0 0 0 0 0 0 0 0 0 0 0 0 0 0 0 0 0 0 0 0 0 0 0 0 0 0 0 0 0 0 0 0 0 0 0 0 0 0 0 0 0 0 0 0 0 0 0 0 0 0 0 0 0 0 0 0 0 0 0 0 0 0 0 0 0 0 0 0 0 0 0 0 0 0 0 0 0 0 0 0 0 0 0 0 0 0 0 0 0 0 0 0 0 0 0 0 0 0 0 0 0 0 0 0 0 0 0 0 0 0 0 0 0 0 0 0 0 0 0 0 0 0 0 0 0 0 0 0 0 0 0 0 0 0 0 0 0 0 0 0 0 0 0 0 0 0 0 0 0 0 0 0 0 0 0 0 0 0 0 0 0 0 0 0 0 0 0 0 0 0 0 0 0 0 0 0 0 0 0 0 0 0 0 0 0 0 0 0 0 0 0 0 0 0 0 0 0 0 0 0 0 0 0 0 0 0 0 0 0 0 0 0 0 0 0 0 0 0 0 0 0 0 0 0 0 0 0 0 0 0 0 0 0 0 0 0 0 0 0 0 0 0 0 0 0 0 0 0 0 0 0 0 0 0 0 0 0 0 0 0 0 0 0 0 0 0 0 0 0 0 0 0 0 0 0 0 0 0 0 0 0 0 0 0 0 0 0 0 0 0 0 0 0 0 0 0 0 0 0 0 0 0 0 0 0 0 0 0 0 0 0 0 0 0 0 0 0 0 0 0 0 0 0 0 0 0 0 0 0 0 0 0 0 0 0 0 0 0 0 0 0 0 0 0 0 0 0 0 0 0 0 0 0 0 0 0 0 0 0 0 0 0 0 0 0 0 0 0 0 0 0 0 0 0 0 0 0 0 0 0 0 0 0 0 0 0 0 0 0 0 0 0 0 0 0 0 0 0 0 0 0 0 0 0 0 0 0 0 0 0 0 0 0 0 0 0 0 0 0 0 0 0 0 0 0 0 0 0 0 0 0 0 0 0 0 0 0 0 0 0 0 0 0 0 0 0 0 0 0 0 0 0 0 0 0 0 0 0 0 0 0 0 0 0 0 0 0 0 0 0 0 0 0 0 0 0 0 0 0 0 0 0 0 0 0 0.75 0.9166668 0.7083333 1 0.6666667 0.9166668 0.75 0.9166668 0.6666667 0.8333333 0.75 0.8333334 0.6666667 0.9166668 0.5833333 0.8333334 0.6666667 0.8333333 0.6666667 0.9166668 0.625 1 0.5833333 0.9166668 0.5833333 0.75 0.5 0.6666668 0.5833333 0.6666668 0.5833333 0.9166668 0.5416667 1 0.5 0.9166668 0.5833333 0.3333333 0.5 0.4166667 0.5 0.3333333 0.5833333 0.6666668 0.5 0.5833334 0.5833333 0.5833334 0.5833333 0.9166668 0.5 0.8333334 0.5833333 0.8333334 0.5833333 0.5833334 0.5 0.5 0.5833333 0.5 0.5833333 0.8333334 0.5 0.75 0.5833333 0.75 0.5833333 0.5 0.5 0.4166667 0.5833333 0.4166667 0.5 0.75 0.4166666 0.8333334 0.4166666 0.75 0.5 0.5 0.4166666 0.4166667 0.5 0.4166667 0.5 0.6666668 0.4166666 0.75 0.4166666 0.6666668 0.5 0.9166668 0.4583333 1 0.4166666 0.9166668 0.5 0.4166667 0.4166666 0.3333333 0.5 0.3333333 0.5 0.5833334 0.4166666 0.6666668 0.4166666 0.5833334 0.5 0.8333334 0.4166666 0.9166668 0.4166666 0.8333334 0.5 0.5 0.4166666 0.5833334 0.4166666 0.5 0.375 0.5833334 0.3333333 0.6666668 0.3333333 0.5833334 0.375 0.8333334 0.3333333 0.9166668 0.3333333 0.8333334 0.375 0.5 0.3333333 0.5833334 0.3333333 0.5 0.375 0.75 0.3333333 0.8333334 0.3333333 0.75 0.375 0.5 0.3333333 0.4166667 0.375 0.4166667 0.375 0.6666667 0.3333333 0.75 0.3333333 0.6666668 0.375 1 0.375 0.9166668 0.4166666 0.9166668 0.375 0.4166667 0.3333333 0.3333333 0.375 0.3333333 0.2916666 0.6666668 0.25 0.75 0.25 0.6666668 0.2916667 1 0.2916666 0.9166668 0.3333333 0.9166668 0.2916666 0.4166667 0.25 0.3333333 0.2916666 0.3333333 0.2916666 0.5833334 0.25 0.6666668 0.25 0.5833334 0.2916666 0.8333334 0.25 0.9166668 0.25 0.8333334 0.2916666 0.5 0.25 0.5833334 0.25 0.5 0.2916666 0.75 0.25 0.8333334 0.25 0.75 0.2916666 0.5 0.25 0.4166667 0.2916666 0.4166667 0.2083333 0.5 0.1666666 0.5833334 0.1666666 0.5 0.2083333 0.8333334 0.1666666 0.75 0.2083333 0.75 0.2083333 0.4166667 0.1666666 0.5 0.1666666 0.4166667 0.2083333 0.75 0.1666666 0.6666668 0.2083333 0.6666668 0.2083333 1 0.2083333 0.9166668 0.25 0.9166668 0.2083333 0.3333333 0.1666666 0.4166667 0.1666666 0.3333333 0.2083333 0.5833333 0.1666666 0.6666668 0.1666666 0.5833334 0.2083333 0.9166668 0.1666666 0.8333334 0.2083333 0.8333334 0.125 0.6666667 0.08333331 0.5833334 0.125 0.5833334 0.125 0.9166668 0.08333331 0.8333334 0.125 0.8333334 0.125 0.5833334 0.08333331 0.5 0.125 0.5 0.125 0.8333334 0.08333331 0.75 0.125 0.7500001 0.125 0.4166667 0.08333331 0.5 0.08333331 0.4166667 0.125 0.7500001 0.08333331 0.6666668 0.125 0.6666667 0.125 1 0.125 0.9166668 0.1666666 0.9166668 0.125 0.3333333 0.08333331 0.4166667 0.08333331 0.3333333 0.08333331 0.4166667 0 0.5 0 0.4166667 0.08333331 0.75 0 0.6666668 0.08333331 0.6666668 0.08333331 0.9166668 0.04166668 1 0 0.9166668 0.08333331 0.3333333 0 0.4166667 0 0.3333333 0.08333331 0.6666668 0 0.5833334 0.08333331 0.5833334 0.08333331 0.9166668 0 0.8333334 0.08333331 0.8333334 0.08333331 0.5833334 0 0.5 0.08333331 0.5 0.08333331 0.8333334 0 0.75 0.08333331 0.75 1 0.5 0.9166666 0.5833334 0.9166666 0.5 1 0.75 0.9166666 0.8333334 0.9166666 0.75 1 0.4166667 0.9166666 0.5 0.9166666 0.4166667 1 0.6666668 0.9166666 0.75 0.9166666 0.6666668 1 0.9166668 0.9583333 1 0.9166666 0.9166668 1 0.4166667 0.9166666 0.3333333 1 0.3333333 1 0.5833334 0.9166666 0.6666668 0.9166666 0.5833334 1 0.8333334 0.9166666 0.9166668 0.9166666 0.8333334 0.9166666 0.8333334 0.8333334 0.9166668 0.8333334 0.8333334 0.9166666 0.9166668 0.875 1 0.8333334 0.9166668 0.8333334 0.9166668 0.7916666 1 0.75 0.9166668 0.8333334 0.8333334 0.75 0.9166668 0.75 0.8333334 0.3333333 0.5 0.2916666 0.4166667 0.3333333 0.4166667 0.3333333 0.75 0.2916666 0.8333334 0.2916666 0.75 0.3333333 0.5833334 0.2916666 0.5 0.3333333 0.5 0.3333333 0.8333334 0.2916666 0.9166668 0.2916666 0.8333334 0.3333333 0.6666668 0.2916666 0.5833334 0.3333333 0.5833334 0.3333333 0.4166667 0.2916666 0.3333333 0.3333333 0.3333333 0.3333333 0.6666668 0.2916666 0.75 0.2916666 0.6666668 0.25 0.9166668 0.2083333 0.8333334 0.25 0.8333334 0.25 0.6666668 0.2083333 0.5833333 0.25 0.5833334 0.25 0.3333333 0.2083333 0.4166667 0.2083333 0.3333333 0.25 0.75 0.2083333 0.6666668 0.25 0.6666668 0.25 0.4166667 0.2083333 0.5 0.2083333 0.4166667 0.25 0.8333334 0.2083333 0.75 0.25 0.75 0.25 0.5833334 0.2083333 0.5 0.25 0.5 0.1666666 0.3333333 0.125 0.4166667 0.125 0.3333333 0.1666666 0.75 0.125 0.6666667 0.1666666 0.6666668 0.1666666 0.4166667 0.125 0.5 0.125 0.4166667 0.1666666 0.8333334 0.125 0.7500001 0.1666666 0.75 0.1666666 0.5833334 0.125 0.5 0.1666666 0.5 0.1666666 0.9166668 0.125 0.8333334 0.1666666 0.8333334 0.1666666 0.6666668 0.125 0.5833334 0.1666666 0.5833334 0.4166666 0.4166667 0.375 0.3333333 0.4166666 0.3333333 0.4166666 0.6666668 0.375 0.75 0.375 0.6666667 0.4166666 0.5 0.375 0.4166667 0.4166666 0.4166667 0.4166666 0.75 0.375 0.8333334 0.375 0.75 0.4166666 0.5 0.375 0.5833334 0.375 0.5 0.4166666 0.8333334 0.375 0.9166668 0.375 0.8333334 0.4166666 0.5833334 0.375 0.6666667 0.375 0.5833334 0 0 0 0 0 0 0 0 0 0 0 0 0 0 0 0 0 0 0 0 0 0 0 0 0 0 0 0 0 0 0 0 0 0 0 0 0 0 0 0 0 0 0 0 0 0 0 0 0 0 0 0 0 0 0 0 0 0 0 0 0.75 0.9166668 0.6666667 0.9166668 0.6666667 0.8333333 0.6666667 0.9166668 0.5833333 0.9166668 0.5833333 0.8333334 0.5833333 0.75 0.5 0.75 0.5 0.6666668 0.5833333 0.3333333 0.5833333 0.4166667 0.5 0.4166667 0.5833333 0.6666668 0.5 0.6666668 0.5 0.5833334 0.5833333 0.9166668 0.5 0.9166668 0.5 0.8333334 0.5833333 0.5833334 0.5 0.5833334 0.5 0.5 0.5833333 0.8333334 0.5 0.8333334 0.5 0.75 0.5833333 0.5 0.5 0.5 0.5 0.4166667 0.5 0.75 0.5 0.8333334 0.4166666 0.8333334 0.5 0.5 0.4166666 0.5 0.4166666 0.4166667 0.5 0.6666668 0.5 0.75 0.4166666 0.75 0.5 0.4166667 0.4166666 0.4166667 0.4166666 0.3333333 0.5 0.5833334 0.5 0.6666668 0.4166666 0.6666668 0.5 0.8333334 0.5 0.9166668 0.4166666 0.9166668 0.5 0.5 0.5 0.5833334 0.4166666 0.5833334 0.375 0.5833334 0.375 0.6666667 0.3333333 0.6666668 0.375 0.8333334 0.375 0.9166668 0.3333333 0.9166668 0.375 0.5 0.375 0.5833334 0.3333333 0.5833334 0.375 0.75 0.375 0.8333334 0.3333333 0.8333334 0.375 0.5 0.3333333 0.5 0.3333333 0.4166667 0.375 0.6666667 0.375 0.75 0.3333333 0.75 0.375 1 0.3333333 0.9166668 0.375 0.9166668 0.375 0.4166667 0.3333333 0.4166667 0.3333333 0.3333333 0.2916666 0.6666668 0.2916666 0.75 0.25 0.75 0.2916667 1 0.25 0.9166668 0.2916666 0.9166668 0.2916666 0.4166667 0.25 0.4166667 0.25 0.3333333 0.2916666 0.5833334 0.2916666 0.6666668 0.25 0.6666668 0.2916666 0.8333334 0.2916666 0.9166668 0.25 0.9166668 0.2916666 0.5 0.2916666 0.5833334 0.25 0.5833334 0.2916666 0.75 0.2916666 0.8333334 0.25 0.8333334 0.2916666 0.5 0.25 0.5 0.25 0.4166667 0.2083333 0.5 0.2083333 0.5833333 0.1666666 0.5833334 0.2083333 0.8333334 0.1666666 0.8333334 0.1666666 0.75 0.2083333 0.4166667 0.2083333 0.5 0.1666666 0.5 0.2083333 0.75 0.1666666 0.75 0.1666666 0.6666668 0.2083333 1 0.1666666 0.9166668 0.2083333 0.9166668 0.2083333 0.3333333 0.2083333 0.4166667 0.1666666 0.4166667 0.2083333 0.5833333 0.2083333 0.6666668 0.1666666 0.6666668 0.2083333 0.9166668 0.1666666 0.9166668 0.1666666 0.8333334 0.125 0.6666667 0.08333331 0.6666668 0.08333331 0.5833334 0.125 0.9166668 0.08333331 0.9166668 0.08333331 0.8333334 0.125 0.5833334 0.08333331 0.5833334 0.08333331 0.5 0.125 0.8333334 0.08333331 0.8333334 0.08333331 0.75 0.125 0.4166667 0.125 0.5 0.08333331 0.5 0.125 0.7500001 0.08333331 0.75 0.08333331 0.6666668 0.125 1 0.08333331 0.9166668 0.125 0.9166668 0.125 0.3333333 0.125 0.4166667 0.08333331 0.4166667 0.08333331 0.4166667 0.08333331 0.5 0 0.5 0.08333331 0.75 0 0.75 0 0.6666668 0.08333331 0.3333333 0.08333331 0.4166667 0 0.4166667 0.08333331 0.6666668 0 0.6666668 0 0.5833334 0.08333331 0.9166668 0 0.9166668 0 0.8333334 0.08333331 0.5833334 0 0.5833334 0 0.5 0.08333331 0.8333334 0 0.8333334 0 0.75 1 0.5 1 0.5833334 0.9166666 0.5833334 1 0.75 1 0.8333334 0.9166666 0.8333334 1 0.4166667 1 0.5 0.9166666 0.5 1 0.6666668 1 0.75 0.9166666 0.75 1 0.4166667 0.9166666 0.4166667 0.9166666 0.3333333 1 0.5833334 1 0.6666668 0.9166666 0.6666668 1 0.8333334 1 0.9166668 0.9166666 0.9166668 0.9166666 0.8333334 0.9166666 0.9166668 0.8333334 0.9166668 0.8333334 0.8333334 0.8333334 0.9166668 0.75 0.9166668 0.3333333 0.5 0.2916666 0.5 0.2916666 0.4166667 0.3333333 0.75 0.3333333 0.8333334 0.2916666 0.8333334 0.3333333 0.5833334 0.2916666 0.5833334 0.2916666 0.5 0.3333333 0.8333334 0.3333333 0.9166668 0.2916666 0.9166668 0.3333333 0.6666668 0.2916666 0.6666668 0.2916666 0.5833334 0.3333333 0.4166667 0.2916666 0.4166667 0.2916666 0.3333333 0.3333333 0.6666668 0.3333333 0.75 0.2916666 0.75 0.25 0.9166668 0.2083333 0.9166668 0.2083333 0.8333334 0.25 0.6666668 0.2083333 0.6666668 0.2083333 0.5833333 0.25 0.3333333 0.25 0.4166667 0.2083333 0.4166667 0.25 0.75 0.2083333 0.75 0.2083333 0.6666668 0.25 0.4166667 0.25 0.5 0.2083333 0.5 0.25 0.8333334 0.2083333 0.8333334 0.2083333 0.75 0.25 0.5833334 0.2083333 0.5833333 0.2083333 0.5 0.1666666 0.3333333 0.1666666 0.4166667 0.125 0.4166667 0.1666666 0.75 0.125 0.7500001 0.125 0.6666667 0.1666666 0.4166667 0.1666666 0.5 0.125 0.5 0.1666666 0.8333334 0.125 0.8333334 0.125 0.7500001 0.1666666 0.5833334 0.125 0.5833334 0.125 0.5 0.1666666 0.9166668 0.125 0.9166668 0.125 0.8333334 0.1666666 0.6666668 0.125 0.6666667 0.125 0.5833334 0.4166666 0.4166667 0.375 0.4166667 0.375 0.3333333 0.4166666 0.6666668 0.4166666 0.75 0.375 0.75 0.4166666 0.5 0.375 0.5 0.375 0.4166667 0.4166666 0.75 0.4166666 0.8333334 0.375 0.8333334 0.4166666 0.5 0.4166666 0.5833334 0.375 0.5833334 0.4166666 0.8333334 0.4166666 0.9166668 0.375 0.9166668 0.4166666 0.5833334 0.4166666 0.6666668 0.375 0.6666667</float_array>
          <technique_common>
            <accessor source="#Cube_001-mesh-map-1-array" count="999" stride="2">
              <param name="S" type="float"/>
              <param name="T" type="float"/>
            </accessor>
          </technique_common>
        </source>
        <vertices id="Cube_001-mesh-vertices">
          <input semantic="POSITION" source="#Cube_001-mesh-positions"/>
        </vertices>
        <triangles material="Material_001-material" count="333">
          <input semantic="VERTEX" source="#Cube_001-mesh-vertices" offset="0"/>
          <input semantic="NORMAL" source="#Cube_001-mesh-normals" offset="1"/>
          <input semantic="TEXCOORD" source="#Cube_001-mesh-map-0" offset="2" set="0"/>
          <input semantic="TEXCOORD" source="#Cube_001-mesh-map-1" offset="2" set="1"/>
          <p>24 0 0 0 1 1 15 2 2 65 3 3 4 4 4 8 5 5 13 6 6 30 7 7 36 8 8 25 9 9 5 9 10 0 9 11 4 10 12 67 11 13 70 12 14 14 13 15 21 14 16 65 15 17 21 14 18 67 11 19 4 10 20 17 16 21 36 8 22 37 17 23 6 18 24 18 19 25 1 20 26 19 21 27 18 19 28 7 22 29 12 23 30 11 24 31 8 5 32 2 25 33 9 26 34 6 18 35 9 26 36 10 27 37 7 22 38 2 25 39 3 28 40 11 24 41 11 24 42 12 23 43 10 27 44 26 29 45 15 2 46 31 30 47 8 5 48 20 31 49 14 32 50 13 6 51 17 16 52 1 33 53 66 34 54 55 35 55 21 14 56 2 25 57 17 16 58 16 36 59 18 19 60 41 37 61 13 38 62 18 19 63 19 21 64 42 39 65 20 31 66 54 40 67 66 41 68 67 42 69 21 14 70 68 43 71 12 44 72 4 45 73 69 46 74 10 47 75 12 44 76 69 46 77 68 48 78 58 49 79 22 50 80 67 11 81 22 51 82 23 52 83 5 53 84 70 12 85 23 52 86 19 21 87 7 22 88 24 0 89 7 22 90 10 27 91 25 54 92 42 39 93 19 21 94 26 29 95 5 53 96 25 54 97 69 46 98 26 29 99 24 0 100 15 2 101 17 16 102 13 6 103 36 8 104 24 55 105 25 54 106 0 56 107 65 15 108 21 14 109 4 10 110 16 36 111 17 16 112 37 17 113 41 37 114 30 57 115 13 38 116 1 20 117 2 25 118 6 18 119 6 18 120 9 26 121 7 22 122 9 26 123 2 25 124 11 24 125 9 26 126 11 24 127 10 27 128 61 58 129 26 29 130 31 30 131 65 3 132 8 5 133 14 32 134 18 19 135 13 38 136 1 20 137 14 13 138 66 34 139 21 14 140 3 28 141 2 25 142 16 36 143 18 19 144 6 18 145 7 22 146 41 37 147 18 19 148 42 39 149 14 32 150 20 31 151 66 41 152 25 54 153 10 27 154 69 46 155 67 59 156 68 48 157 22 50 158 70 12 159 67 11 160 23 52 161 26 29 162 19 21 163 24 0 164 24 55 165 7 22 166 25 54 167 61 60 168 42 39 169 26 29 170 70 12 171 5 53 172 69 46 173 4 45 174 70 12 175 69 46 176 4 4 177 12 23 178 8 5 179 17 16 180 2 25 181 1 33 182 21 14 183 55 35 184 68 43 185 60 61 186 47 62 187 27 63 188 28 64 189 40 65 190 34 66 191 46 67 192 36 8 193 30 7 194 62 68 195 27 68 196 35 68 197 34 69 198 73 70 199 48 71 200 71 72 201 28 73 202 56 74 203 56 74 204 34 69 205 48 71 206 50 75 207 37 76 208 36 8 209 38 77 210 29 78 211 51 79 212 52 80 213 39 81 214 51 79 215 72 82 216 40 65 217 45 83 218 32 84 219 38 77 220 43 85 221 43 85 222 39 81 223 44 86 224 32 84 225 45 83 226 33 87 227 45 83 228 44 86 229 72 82 230 63 88 231 31 89 232 47 62 233 40 65 234 71 90 235 53 91 236 46 67 237 29 92 238 50 75 239 66 93 240 56 74 241 55 35 242 32 84 243 49 94 244 50 75 245 51 79 246 46 95 247 41 37 248 51 79 249 42 39 250 52 80 251 53 91 252 66 41 253 54 40 254 48 96 255 68 43 256 56 74 257 72 97 258 64 98 259 34 99 260 44 100 261 64 98 262 72 97 263 68 48 264 57 101 265 58 49 266 48 71 267 59 102 268 57 103 269 35 104 270 59 102 271 73 70 272 52 80 273 60 61 274 39 81 275 39 81 276 62 105 277 44 86 278 42 39 279 63 88 280 52 80 281 35 104 282 64 98 283 62 105 284 63 88 285 47 62 286 60 61 287 50 75 288 36 8 289 46 67 290 60 106 291 27 107 292 62 105 293 28 73 294 34 69 295 56 74 296 49 94 297 37 76 298 50 75 299 41 37 300 46 95 301 30 57 302 29 78 303 38 77 304 32 84 305 38 77 306 39 81 307 43 85 308 43 85 309 45 83 310 32 84 311 43 85 312 44 86 313 45 83 314 61 108 315 31 89 316 63 88 317 28 64 318 71 90 319 40 65 320 51 79 321 29 78 322 46 95 323 71 72 324 56 74 325 66 93 326 33 87 327 49 94 328 32 84 329 51 79 330 39 81 331 38 77 332 41 37 333 42 39 334 51 79 335 71 90 336 66 41 337 53 91 338 62 105 339 64 98 340 44 86 341 48 109 342 57 101 343 68 48 344 73 70 345 59 102 346 48 71 347 63 88 348 60 61 349 52 80 350 60 106 351 62 105 352 39 81 353 61 110 354 63 88 355 42 39 356 73 70 357 64 98 358 35 104 359 34 99 360 64 98 361 73 70 362 34 66 363 40 65 364 72 82 365 50 75 366 29 92 367 32 84 368 56 74 369 68 43 370 55 35 371 49 111 372 77 112 373 80 113 374 37 114 375 76 115 376 16 116 377 16 116 378 74 117 379 3 118 380 37 114 381 80 113 382 78 119 383 33 120 384 79 121 385 77 112 386 3 118 387 75 122 388 11 123 389 53 124 390 54 125 391 20 126 392 158 127 393 131 128 394 81 129 395 158 127 396 82 130 397 159 131 398 81 129 399 84 132 400 82 130 401 81 129 402 131 128 403 83 133 404 85 134 405 94 135 406 86 136 407 83 133 408 131 128 409 91 137 410 90 138 411 97 139 412 98 140 413 86 136 414 95 141 415 87 142 416 83 133 417 92 143 418 84 132 419 87 142 420 96 144 421 88 145 422 84 132 423 93 146 424 85 134 425 88 145 426 97 139 427 89 147 428 93 146 429 100 148 430 101 149 431 96 144 432 105 150 433 97 139 434 94 135 435 101 149 436 102 151 437 91 137 438 131 128 439 99 152 440 97 139 441 106 153 442 98 140 443 95 141 444 102 151 445 103 154 446 92 143 447 99 152 448 100 148 449 96 144 450 103 154 451 104 155 452 184 156 453 110 157 454 111 158 455 186 159 456 107 160 457 108 161 458 189 162 459 111 158 460 112 163 461 190 164 462 108 161 463 109 165 464 189 162 465 113 166 466 191 167 467 185 168 468 109 165 469 110 157 470 131 128 471 187 169 472 99 152 473 191 167 474 114 170 475 188 171 476 160 172 477 117 173 478 118 174 479 131 128 480 162 175 481 107 160 482 164 176 483 122 177 484 163 178 485 165 179 486 118 174 487 119 180 488 166 181 489 115 182 490 116 183 491 167 184 492 119 180 493 120 185 494 161 186 495 116 183 496 117 173 497 167 184 498 121 187 499 164 176 500 168 188 501 127 189 502 128 190 503 171 191 504 125 192 505 170 193 506 172 194 507 128 190 508 129 195 509 170 193 510 126 196 511 173 197 512 131 128 513 174 198 514 115 182 515 175 199 516 129 195 517 130 200 518 169 201 519 126 196 520 127 189 521 174 198 522 124 202 523 171 191 524 177 203 525 136 204 526 176 205 527 179 206 528 133 207 529 178 208 530 176 205 531 137 209 532 181 210 533 178 208 534 134 211 535 182 212 536 183 213 537 137 209 538 138 214 539 182 212 540 135 215 541 177 203 542 131 128 543 179 206 544 123 216 545 180 217 546 138 214 547 139 218 548 138 214 549 145 219 550 146 220 551 134 211 552 143 221 553 135 215 554 132 222 555 131 128 556 140 223 557 139 218 558 146 220 559 147 224 560 135 215 561 144 225 562 136 204 563 132 222 564 141 226 565 133 207 566 136 204 567 145 219 568 137 209 569 133 207 570 142 227 571 134 211 572 145 219 573 152 228 574 153 229 575 142 227 576 149 230 577 150 231 578 146 220 579 153 229 580 154 232 581 143 221 582 150 231 583 151 233 584 140 223 585 131 128 586 148 234 587 146 220 588 155 235 589 147 224 590 144 225 591 151 233 592 152 228 593 141 226 594 148 234 595 149 230 596 149 230 597 156 236 598 157 237 599 148 234 600 131 128 601 156 236 602 156 236 603 131 128 604 158 127 605 157 237 606 158 127 607 159 131 608 112 238 609 164 176 610 113 239 611 109 165 612 166 181 613 161 186 614 111 240 615 167 184 616 112 238 617 108 161 618 162 175 619 166 181 620 110 157 621 165 179 622 111 240 623 113 239 624 163 178 625 114 241 626 110 157 627 161 186 628 160 172 629 115 182 630 171 191 631 116 183 632 118 242 633 169 201 634 119 243 635 122 244 636 172 194 637 175 199 638 117 173 639 173 197 640 118 242 641 121 245 642 168 188 643 172 194 644 116 183 645 170 193 646 117 173 647 119 243 648 168 188 649 120 246 650 130 247 651 183 213 652 180 217 653 125 192 654 177 203 655 126 196 656 129 248 657 181 210 658 183 213 659 124 202 660 182 212 661 125 192 662 127 249 663 181 210 664 128 250 665 123 216 666 178 208 667 124 202 668 126 196 669 176 205 670 127 249 671 105 150 672 188 171 673 106 153 674 102 151 675 190 164 676 185 168 677 104 155 678 191 167 679 105 150 680 101 149 681 186 159 682 190 164 683 104 155 684 184 156 685 189 162 686 100 148 687 187 169 688 186 159 689 103 154 690 185 168 691 184 156 692 49 111 693 33 120 694 77 112 695 37 114 696 78 119 697 76 115 698 16 116 699 76 115 700 74 117 701 37 114 702 49 111 703 80 113 704 33 120 705 45 251 706 79 121 707 3 118 708 74 117 709 75 122 710 20 252 711 8 253 712 40 254 713 8 253 714 11 255 715 40 254 716 11 255 717 45 256 718 40 254 719 40 254 720 53 257 721 20 252 722 158 127 723 81 129 724 82 130 725 81 129 726 83 133 727 84 132 728 85 134 729 93 146 730 94 135 731 90 138 732 89 147 733 97 139 734 86 136 735 94 135 736 95 141 737 83 133 738 91 137 739 92 143 740 87 142 741 95 141 742 96 144 743 84 132 744 92 143 745 93 146 746 88 145 747 96 144 748 97 139 749 93 146 750 92 143 751 100 148 752 96 144 753 104 155 754 105 150 755 94 135 756 93 146 757 101 149 758 97 139 759 105 150 760 106 153 761 95 141 762 94 135 763 102 151 764 92 143 765 91 137 766 99 152 767 96 144 768 95 141 769 103 154 770 184 156 771 185 168 772 110 157 773 186 159 774 187 169 775 107 160 776 189 162 777 184 156 778 111 158 779 190 164 780 186 159 781 108 161 782 189 162 783 112 163 784 113 166 785 185 168 786 190 164 787 109 165 788 131 128 789 107 160 790 187 169 791 191 167 792 113 166 793 114 170 794 160 172 795 161 186 796 117 173 797 131 128 798 115 182 799 162 175 800 164 176 801 121 187 802 122 177 803 165 179 804 160 172 805 118 174 806 166 181 807 162 175 808 115 182 809 167 184 810 165 179 811 119 180 812 161 186 813 166 181 814 116 183 815 167 184 816 120 185 817 121 187 818 168 188 819 169 201 820 127 189 821 171 191 822 124 202 823 125 192 824 172 194 825 168 188 826 128 190 827 170 193 828 125 192 829 126 196 830 131 128 831 123 216 832 174 198 833 175 199 834 172 194 835 129 195 836 169 201 837 173 197 838 126 196 839 174 198 840 123 216 841 124 202 842 177 203 843 135 215 844 136 204 845 179 206 846 132 222 847 133 207 848 176 205 849 136 204 850 137 209 851 178 208 852 133 207 853 134 211 854 183 213 855 181 210 856 137 209 857 182 212 858 134 211 859 135 215 860 131 128 861 132 222 862 179 206 863 180 217 864 183 213 865 138 214 866 138 214 867 137 209 868 145 219 869 134 211 870 142 227 871 143 221 872 139 218 873 138 214 874 146 220 875 135 215 876 143 221 877 144 225 878 132 222 879 140 223 880 141 226 881 136 204 882 144 225 883 145 219 884 133 207 885 141 226 886 142 227 887 145 219 888 144 225 889 152 228 890 142 227 891 141 226 892 149 230 893 146 220 894 145 219 895 153 229 896 143 221 897 142 227 898 150 231 899 146 220 900 154 232 901 155 235 902 144 225 903 143 221 904 151 233 905 141 226 906 140 223 907 148 234 908 149 230 909 148 234 910 156 236 911 157 237 912 156 236 913 158 127 914 112 238 915 167 184 916 164 176 917 109 165 918 108 161 919 166 181 920 111 240 921 165 179 922 167 184 923 108 161 924 107 160 925 162 175 926 110 157 927 160 172 928 165 179 929 113 239 930 164 176 931 163 178 932 110 157 933 109 165 934 161 186 935 115 182 936 174 198 937 171 191 938 118 242 939 173 197 940 169 201 941 122 244 942 121 245 943 172 194 944 117 173 945 170 193 946 173 197 947 121 245 948 120 246 949 168 188 950 116 183 951 171 191 952 170 193 953 119 243 954 169 201 955 168 188 956 130 247 957 129 248 958 183 213 959 125 192 960 182 212 961 177 203 962 129 248 963 128 250 964 181 210 965 124 202 966 178 208 967 182 212 968 127 249 969 176 205 970 181 210 971 123 216 972 179 206 973 178 208 974 126 196 975 177 203 976 176 205 977 105 150 978 191 167 979 188 171 980 102 151 981 101 149 982 190 164 983 104 155 984 189 162 985 191 167 986 101 149 987 100 148 988 186 159 989 104 155 990 103 154 991 184 156 992 100 148 993 99 152 994 187 169 995 103 154 996 102 151 997 185 168 998</p>
        </triangles>
      </mesh>
    </geometry>
  </library_geometries>
  <library_visual_scenes>
    <visual_scene id="Scene" name="Scene">
      <node id="head_beard_small_001" name="head_beard_small.001" type="NODE">
        <matrix sid="transform">1 0 0 0 0 1 0 0 0 0 1 0 0 0 0 1</matrix>
        <instance_geometry url="#Cube_001-mesh" name="head_beard_small.001">
          <bind_material>
            <technique_common>
              <instance_material symbol="Material_001-material" target="#Material_001-material">
                <bind_vertex_input semantic="Cube_006-mesh-map-0" input_semantic="TEXCOORD" input_set="0"/>
                <bind_vertex_input semantic="UVMap" input_semantic="TEXCOORD" input_set="1"/>
              </instance_material>
            </technique_common>
          </bind_material>
        </instance_geometry>
      </node>
    </visual_scene>
  </library_visual_scenes>
  <scene>
    <instance_visual_scene url="#Scene"/>
  </scene>
</COLLADA>