<?xml version="1.0" encoding="utf-8"?>
<COLLADA xmlns="http://www.collada.org/2005/11/COLLADASchema" version="1.4.1">
  <asset>
    <contributor><authoring_tool>mars_wars gen_art.py</authoring_tool></contributor>
    <unit name="meter" meter="1"/>
    <up_axis>Z_UP</up_axis>
  </asset>
  <library_effects>
    <effect id="tracer_rifle-effect"><profile_COMMON><technique sid="common"><lambert><diffuse><color>1 1 1 1</color></diffuse></lambert></technique></profile_COMMON></effect>
  </library_effects>
  <library_materials>
    <material id="tracer_rifle-material" name="tracer_rifle"><instance_effect url="#tracer_rifle-effect"/></material>
  </library_materials>
  <library_geometries>
    <geometry id="tracer_rifle-mesh" name="tracer_rifle">
      <mesh>
        <source id="tracer_rifle-positions">
          <float_array id="tracer_rifle-positions-array" count="72">-0.17 -0 -4.2 0.17 0 -4.2 0.17 0 0.35 -0.17 -0 0.35 -0.17 -0 -4.2 0.17 0 -4.2 0.17 0 0.35 -0.17 -0 0.35 -0.085 -0.14722 -4.2 0.085 0.14722 -4.2 0.085 0.14722 0.35 -0.085 -0.14722 0.35 -0.085 -0.14722 -4.2 0.085 0.14722 -4.2 0.085 0.14722 0.35 -0.085 -0.14722 0.35 0.085 -0.14722 -4.2 -0.085 0.14722 -4.2 -0.085 0.14722 0.35 0.085 -0.14722 0.35 0.085 -0.14722 -4.2 -0.085 0.14722 -4.2 -0.085 0.14722 0.35 0.085 -0.14722 0.35</float_array>
          <technique_common><accessor source="#tracer_rifle-positions-array" count="24" stride="3"><param name="X" type="float"/><param name="Y" type="float"/><param name="Z" type="float"/></accessor></technique_common>
        </source>
        <source id="tracer_rifle-normals">
          <float_array id="tracer_rifle-normals-array" count="72">-0 1 0 -0 1 0 -0 1 0 -0 1 0 0 -1 0 0 -1 0 0 -1 0 0 -1 0 -0.86603 0.5 0 -0.86603 0.5 0 -0.86603 0.5 0 -0.86603 0.5 0 0.86603 -0.5 0 0.86603 -0.5 0 0.86603 -0.5 0 0.86603 -0.5 0 -0.86603 -0.5 0 -0.86603 -0.5 0 -0.86603 -0.5 0 -0.86603 -0.5 0 0.86603 0.5 0 0.86603 0.5 0 0.86603 0.5 0 0.86603 0.5 0</float_array>
          <technique_common><accessor source="#tracer_rifle-normals-array" count="24" stride="3"><param name="X" type="float"/><param name="Y" type="float"/><param name="Z" type="float"/></accessor></technique_common>
        </source>
        <source id="tracer_rifle-map-0">
          <float_array id="tracer_rifle-map-0-array" count="48">0 0 1 0 1 1 0 1 0 0 1 0 1 1 0 1 0 0 1 0 1 1 0 1 0 0 1 0 1 1 0 1 0 0 1 0 1 1 0 1 0 0 1 0 1 1 0 1</float_array>
          <technique_common><accessor source="#tracer_rifle-map-0-array" count="24" stride="2"><param name="S" type="float"/><param name="T" type="float"/></accessor></technique_common>
        </source>
        <vertices id="tracer_rifle-vertices"><input semantic="POSITION" source="#tracer_rifle-positions"/></vertices>
        <triangles material="tracer_rifle-material" count="12">
          <input semantic="VERTEX" source="#tracer_rifle-vertices" offset="0"/>
          <input semantic="NORMAL" source="#tracer_rifle-normals" offset="1"/>
          <input semantic="TEXCOORD" source="#tracer_rifle-map-0" offset="2" set="0"/>
          <p>0 0 0 1 1 1 2 2 2 0 0 0 2 2 2 3 3 3 4 4 4 6 6 6 5 5 5 4 4 4 7 7 7 6 6 6 8 8 8 9 9 9 10 10 10 8 8 8 10 10 10 11 11 11 12 12 12 14 14 14 13 13 13 12 12 12 15 15 15 14 14 14 16 16 16 17 17 17 18 18 18 16 16 16 18 18 18 19 19 19 20 20 20 22 22 22 21 21 21 20 20 20 23 23 23 22 22 22</p>
        </triangles>
      </mesh>
    </geometry>
  </library_geometries>
  <library_visual_scenes>
    <visual_scene id="Scene" name="Scene">
      <node id="tracer_rifle" name="tracer_rifle" type="NODE">
        <matrix sid="transform">1 0 0 0 0 1 0 0 0 0 1 0 0 0 0 1</matrix>
        <instance_geometry url="#tracer_rifle-mesh" name="tracer_rifle">
          <bind_material><technique_common><instance_material symbol="tracer_rifle-material" target="#tracer_rifle-material"><bind_vertex_input semantic="tracer_rifle-map-0" input_semantic="TEXCOORD" input_set="0"/></instance_material></technique_common></bind_material>
        </instance_geometry>
      </node>
    </visual_scene>
  </library_visual_scenes>
  <scene><instance_visual_scene url="#Scene"/></scene>
</COLLADA>
