<?xml version="1.0" encoding="utf-8"?>
<COLLADA xmlns="http://www.collada.org/2005/11/COLLADASchema" version="1.4.1" xmlns:xsi="http://www.w3.org/2001/XMLSchema-instance">
  <asset>
    <contributor>
      <author>Blender User</author>
      <authoring_tool>Blender 4.3.1 commit date:2024-12-10, commit time:07:46, hash:33d812126174</authoring_tool>
    </contributor>
    <created>2026-09-25T21:35:32</created>
    <modified>2026-09-25T21:35:32</modified>
    <unit name="meter" meter="1"/>
    <up_axis>Z_UP</up_axis>
  </asset>
  <library_effects>
    <effect id="Material_001-effect">
      <profile_COMMON>
        <newparam sid="mcc_vec_01_png-surface">
          <surface type="2D">
            <init_from>mcc_vec_01_png</init_from>
          </surface>
        </newparam>
        <newparam sid="mcc_vec_01_png-sampler">
          <sampler2D>
            <source>mcc_vec_01_png-surface</source>
          </sampler2D>
        </newparam>
        <technique sid="common">
          <lambert>
            <emission>
              <color sid="emission">0 0 0 1</color>
            </emission>
            <diffuse>
              <texture texture="mcc_vec_01_png-sampler" texcoord="Cube_011-mesh-map-0"/>
            </diffuse>
            <index_of_refraction>
              <float sid="ior">1.45</float>
            </index_of_refraction>
          </lambert>
        </technique>
      </profile_COMMON>
    </effect>
  </library_effects>
  <library_images>
    <image id="mcc_vec_01_png" name="mcc_vec_01_png">
      <init_from>/home/welton/Downloads/mcc_vec_01.png</init_from>
    </image>
  </library_images>
  <library_materials>
    <material id="Material_001-material" name="Material.001">
      <instance_effect url="#Material_001-effect"/>
    </material>
  </library_materials>
  <library_geometries>
    <geometry id="Cube_011-mesh" name="Cube.011">
      <mesh>
        <source id="Cube_011-mesh-positions">
          <float_array id="Cube_011-mesh-positions-array" count="192">-1.281077 -1.181202 6.315306 -1.281077 -1.181202 8.100727 -1.281077 1.094481 6.315306 -1.281077 1.094481 8.100727 0.9946057 -1.181202 6.315306 0.9946057 -1.181202 8.100727 0.9946057 1.094481 6.315306 0.9946057 1.094481 8.100727 1.44818 -0.04336047 8.100727 1.44818 -0.04336047 6.315306 -1.734651 -0.04336047 8.100727 -1.734651 -0.04336047 6.315306 -2.600163 -0.04336047 5.707246 -1.899907 -1.800031 5.707246 1.613435 -1.800031 5.707246 2.313691 -0.04336047 5.707246 1.613435 1.71331 5.707246 -1.899907 1.71331 5.707246 -2.363602 -0.2037247 5.012091 -2.600163 -0.04336047 5.137907 -2.363602 0.1170036 5.012091 -1.791197 -1.639667 5.012091 -1.899907 -1.800031 5.137907 1.613435 -1.800031 5.137907 1.504724 -1.639667 5.012091 2.07713 -0.2037247 5.012091 2.07713 0.1170036 5.012091 2.313691 -0.04336047 5.137907 1.504724 1.552946 5.012091 1.613435 1.71331 5.137907 -1.899907 1.71331 5.137907 -1.791197 1.552946 5.012091 -0.6894705 -4.503807 6.80274 -0.6894705 -4.503807 7.613293 0.4029987 -4.503807 6.80274 0.4029987 -4.503807 7.613293 -0.7975304 -0.7244376 6.69468 -0.7975304 -0.7244376 7.721353 0.5110586 -0.7244376 7.721353 0.5110586 -0.7244376 6.69468 -0.7975304 -4.503807 6.69468 -0.7975304 -4.503807 7.721353 0.5110586 -4.503807 7.721353 0.5110586 -4.503807 6.69468 -0.6894705 -4.251188 6.80274 -0.6894705 -4.251188 7.613293 0.4029987 -4.251188 7.613293 0.4029987 -4.251188 6.80274 -0.7163575 -1.263422 7.69637 -0.7163575 -1.263422 8.595672 0.4298858 -1.263422 7.69637 0.4298858 -1.263422 8.595672 -0.4649015 -1.683342 7.847599 -0.4649015 -1.683342 8.444443 0.1784296 -1.683342 8.444443 0.1784296 -1.683342 7.847599 -0.7163575 -1.683342 7.69637 -0.7163575 -1.683342 8.595672 0.4298858 -1.683342 8.595672 0.4298858 -1.683342 7.69637 -0.4649015 -1.599309 7.847599 -0.4649015 -1.599309 8.444443 0.1784296 -1.599309 8.444443 0.1784296 -1.599309 7.847599</float_array>
          <technique_common>
            <accessor source="#Cube_011-mesh-positions-array" count="64" stride="3">
              <param name="X" type="float"/>
              <param name="Y" type="float"/>
              <param name="Z" type="float"/>
            </accessor>
          </technique_common>
        </source>
        <source id="Cube_011-mesh-normals">
          <float_array id="Cube_011-mesh-normals-array" count="156">-0.9289161 0.3702905 0 0 0 1 0.928916 -0.3702906 0 0 1 0 0 -1 0 0.5603353 -0.2233644 0.7975794 0.928916 -0.3702906 0 -0.9289161 -0.3702905 0 0.928916 0.3702906 0 0.5603349 0.2233645 0.7975796 0 0 -1 0 -0.7008731 0.7132861 0 0.7008728 0.7132863 -0.5603342 -0.2233647 0.79758 -0.5603343 0.2233641 0.7975801 -0.9289158 -0.3702909 0 0.9289159 0.3702908 0 -0.4695706 0 -0.8828949 0.4695714 0 -0.8828945 -0.573388 -0.2285668 -0.7867552 0.5733855 -0.2285677 -0.7867565 0.5733886 0.228567 -0.7867546 -0.573385 0.2285674 -0.786757 0 0.6172642 -0.7867559 0 -0.6172651 -0.7867553 -0.9289159 0.3702908 0 -1 0 0 1 0 0 0 -1 -1.3754e-6 -0.928916 0.3702906 0 0.928916 -0.3702908 0 0.5603345 -0.2233648 0.7975798 0.9289159 -0.3702908 0 -0.928916 -0.3702906 0 0.928916 0.3702908 0 0.5603348 0.2233645 0.7975797 0 -0.7008736 0.7132856 0 0.700873 0.7132862 -0.5603348 -0.223364 0.7975798 -0.5603346 0.2233645 0.7975797 -0.9289159 -0.3702908 0 0.928916 0.3702906 0 -0.5733851 -0.2285676 -0.786757 0.5733888 -0.2285671 -0.7867543 0.5733855 0.2285676 -0.7867566 -0.5733875 0.2285666 -0.7867555 0 0.6172645 -0.7867557 0 -0.6172655 -0.7867549 -0.9289158 0.3702909 0 0 -1 1.68606e-6 0 -1 -1.68606e-6 0 -1 1.3754e-6</float_array>
          <technique_common>
            <accessor source="#Cube_011-mesh-normals-array" count="52" stride="3">
              <param name="X" type="float"/>
              <param name="Y" type="float"/>
              <param name="Z" type="float"/>
            </accessor>
          </technique_common>
        </source>
        <source id="Cube_011-mesh-map-0">
          <float_array id="Cube_011-mesh-map-0-array" count="684">0.5031152 0.7762979 0.5241037 0.7104305 0.5031152 0.7104305 0.4167069 0.7962815 0.4797123 0.7437469 0.4692413 0.7962815 0.5031152 0.7762979 0.4821265 0.7104305 0.5031152 0.7104305 0.4821265 0.7762979 0.5241037 0.7104305 0.4821265 0.7104305 0.5241037 0.7762979 0.4821265 0.7104305 0.5241037 0.7104305 0.4860509 0.586624 0.3803205 0.4736204 0.3803205 0.586624 0.2374885 0.5703963 0.2659034 0.5519775 0.2659034 0.5703963 0.4821265 0.7762979 0.5031152 0.7104305 0.4821265 0.7104305 0.5241037 0.7762979 0.5031152 0.7104305 0.5241037 0.7104305 0.2843084 0.6142217 0.3056452 0.5774115 0.2943183 0.6342414 0.406236 0.7437469 0.4692413 0.6912123 0.4797123 0.7437469 0.2925598 0.6290534 0.229988 0.5825995 0.2392469 0.6290534 0.2843084 0.5406013 0.2374885 0.5205817 0.2943183 0.5205817 0.2843084 0.6142217 0.2374885 0.6342414 0.2474983 0.6142217 0.4860509 0.586624 0.3803205 0.4736204 0.5435537 0.4736204 0.2474983 0.6142217 0.2261615 0.5774115 0.2401615 0.5774115 0.2374885 0.5703963 0.2943183 0.5519775 0.2943183 0.5703963 0.3018187 0.5722236 0.2392469 0.5257697 0.229988 0.5722236 0.2659034 0.5703963 0.2374885 0.5519775 0.2374885 0.5703963 0.2659034 0.5703963 0.2943183 0.5519775 0.2943183 0.5703963 0.2943183 0.5703963 0.2374885 0.5519775 0.2374885 0.5703963 0.229988 0.5722236 0.2261615 0.5774115 0.229988 0.5825995 0.3018187 0.5722236 0.3018187 0.5825995 0.3056452 0.5774115 0.229988 0.5722236 0.2374885 0.5205817 0.2261615 0.5774115 0.3018187 0.5722236 0.2943183 0.5205817 0.2925598 0.5257697 0.3018187 0.5825995 0.2943183 0.6342414 0.3056452 0.5774115 0.229988 0.5825995 0.2374885 0.6342414 0.2392469 0.6290534 0.2925598 0.6290534 0.2374885 0.6342414 0.2943183 0.6342414 0.2925598 0.5257697 0.2374885 0.5205817 0.2392469 0.5257697 0.229988 0.5722236 0.3018187 0.5825995 0.3018187 0.5722236 0.2943183 0.5703963 0.2659034 0.5519775 0.2659034 0.5703963 0.05702948 0.7145506 0.01047599 0.6930208 0.05702948 0.6930208 0.1532509 0.7936375 0.01679354 0.7094275 0.01679354 0.7936375 0.1661676 0.7940423 0.00511682 0.7065429 0.00511682 0.7940423 0.1532509 0.7094275 0.01679354 0.7936375 0.01679354 0.7094275 0.1661676 0.7065429 0.00511682 0.7940423 0.00511682 0.7065429 0.005871236 0.7940423 0.01047599 0.7157524 0.01047599 0.7848328 0.0616343 0.7065429 0.05702948 0.7848328 0.05702948 0.7157524 0.005871236 0.7065429 0.05702948 0.7157524 0.01047599 0.7157524 0.0616343 0.7940423 0.01047599 0.7848328 0.05702948 0.7848328 0.654522 0.2358217 0.6268372 0.2136716 0.654522 0.2136716 0.01588165 0.7157524 0.00511682 0.7848328 0.00511682 0.7157524 0.01047599 0.7145506 0.05702948 0.6930208 0.01047599 0.6930208 0.01588165 0.7848328 0.00511682 0.7157524 0.00511682 0.7848328 0.4821265 0.7104305 0.5241037 0.7762979 0.5241037 0.7104305 0.514895 0.7578805 0.5148951 0.7288479 0.5148951 0.7288479 0.5241037 0.7104305 0.4821265 0.7104305 0.4821265 0.7104305 0.4821265 0.7104305 0.4821265 0.7762979 0.4821265 0.7762979 0.4821265 0.7762979 0.5241037 0.7762979 0.5241037 0.7762979 0.5241037 0.7762979 0.5241037 0.7104305 0.5241037 0.7104305 0.4913353 0.7288479 0.4821265 0.7762979 0.4821265 0.7104305 0.5148951 0.7288479 0.5241037 0.7762979 0.514895 0.7578805 0.4913353 0.7288479 0.5241037 0.7104305 0.5148951 0.7288479 0.4913352 0.7578806 0.5241037 0.7762979 0.4821265 0.7762979 0.7506193 0.2301332 0.7234627 0.2056109 0.7506193 0.2056109 0.5148951 0.7288479 0.4913353 0.7288479 0.4913353 0.7288479 0.4913353 0.7288479 0.4913352 0.7578806 0.4913352 0.7578806 0.4913352 0.7578806 0.514895 0.7578805 0.514895 0.7578805 0.5031152 0.7762979 0.5241037 0.7762979 0.5241037 0.7104305 0.4167069 0.7962815 0.406236 0.7437469 0.4797123 0.7437469 0.5031152 0.7762979 0.4821265 0.7762979 0.4821265 0.7104305 0.4821265 0.7762979 0.5241037 0.7762979 0.5241037 0.7104305 0.5241037 0.7762979 0.4821265 0.7762979 0.4821265 0.7104305 0.4860509 0.586624 0.5435537 0.4736204 0.3803205 0.4736204 0.2374885 0.5703963 0.2374885 0.5519775 0.2659034 0.5519775 0.4821265 0.7762979 0.5031152 0.7762979 0.5031152 0.7104305 0.5241037 0.7762979 0.5031152 0.7762979 0.5031152 0.7104305 0.2843084 0.6142217 0.2916452 0.5774115 0.3056452 0.5774115 0.406236 0.7437469 0.4167069 0.6912123 0.4692413 0.6912123 0.2925598 0.6290534 0.3018187 0.5825995 0.229988 0.5825995 0.2843084 0.5406013 0.2474983 0.5406013 0.2374885 0.5205817 0.2843084 0.6142217 0.2943183 0.6342414 0.2374885 0.6342414 0.4860509 0.586624 0.3803205 0.586624 0.3803205 0.4736204 0.2474983 0.6142217 0.2374885 0.6342414 0.2261615 0.5774115 0.2374885 0.5703963 0.2374885 0.5519775 0.2943183 0.5519775 0.3018187 0.5722236 0.2925598 0.5257697 0.2392469 0.5257697 0.2659034 0.5703963 0.2659034 0.5519775 0.2374885 0.5519775 0.2659034 0.5703963 0.2659034 0.5519775 0.2943183 0.5519775 0.2943183 0.5703963 0.2943183 0.5519775 0.2374885 0.5519775 0.229988 0.5722236 0.2392469 0.5257697 0.2374885 0.5205817 0.3018187 0.5722236 0.3056452 0.5774115 0.2943183 0.5205817 0.3018187 0.5825995 0.2925598 0.6290534 0.2943183 0.6342414 0.229988 0.5825995 0.2261615 0.5774115 0.2374885 0.6342414 0.2925598 0.6290534 0.2392469 0.6290534 0.2374885 0.6342414 0.2925598 0.5257697 0.2943183 0.5205817 0.2374885 0.5205817 0.229988 0.5722236 0.229988 0.5825995 0.3018187 0.5825995 0.2943183 0.5703963 0.2943183 0.5519775 0.2659034 0.5519775 0.05702948 0.7145506 0.01047599 0.7145506 0.01047599 0.6930208 0.1532509 0.7936375 0.1532509 0.7094275 0.01679354 0.7094275 0.1661676 0.7940423 0.1661676 0.7065429 0.00511682 0.7065429 0.1532509 0.7094275 0.1532509 0.7936375 0.01679354 0.7936375 0.1661676 0.7065429 0.1661676 0.7940423 0.00511682 0.7940423 0.005871236 0.7940423 0.005871236 0.7065429 0.01047599 0.7157524 0.0616343 0.7065429 0.0616343 0.7940423 0.05702948 0.7848328 0.005871236 0.7065429 0.0616343 0.7065429 0.05702948 0.7157524 0.0616343 0.7940423 0.005871236 0.7940423 0.01047599 0.7848328 0.654522 0.2358217 0.6268373 0.2358217 0.6268372 0.2136716 0.01588165 0.7157524 0.01588165 0.7848328 0.00511682 0.7848328 0.01047599 0.7145506 0.05702948 0.7145506 0.05702948 0.6930208 0.01588165 0.7848328 0.01588165 0.7157524 0.00511682 0.7157524 0.4821265 0.7104305 0.4821265 0.7762979 0.5241037 0.7762979 0.514895 0.7578805 0.514895 0.7578805 0.5148951 0.7288479 0.5241037 0.7104305 0.5241037 0.7104305 0.4821265 0.7104305 0.4821265 0.7104305 0.4821265 0.7104305 0.4821265 0.7762979 0.4821265 0.7762979 0.4821265 0.7762979 0.5241037 0.7762979 0.5241037 0.7762979 0.5241037 0.7762979 0.5241037 0.7104305 0.4913353 0.7288479 0.4913352 0.7578806 0.4821265 0.7762979 0.5148951 0.7288479 0.5241037 0.7104305 0.5241037 0.7762979 0.4913353 0.7288479 0.4821265 0.7104305 0.5241037 0.7104305 0.4913352 0.7578806 0.514895 0.7578805 0.5241037 0.7762979 0.7506193 0.2301332 0.7234627 0.2301333 0.7234627 0.2056109 0.5148951 0.7288479 0.5148951 0.7288479 0.4913353 0.7288479 0.4913353 0.7288479 0.4913353 0.7288479 0.4913352 0.7578806 0.4913352 0.7578806 0.4913352 0.7578806 0.514895 0.7578805</float_array>
          <technique_common>
            <accessor source="#Cube_011-mesh-map-0-array" count="342" stride="2">
              <param name="S" type="float"/>
              <param name="T" type="float"/>
            </accessor>
          </technique_common>
        </source>
        <vertices id="Cube_011-mesh-vertices">
          <input semantic="POSITION" source="#Cube_011-mesh-positions"/>
        </vertices>
        <triangles material="Material_001-material" count="114">
          <input semantic="VERTEX" source="#Cube_011-mesh-vertices" offset="0"/>
          <input semantic="NORMAL" source="#Cube_011-mesh-normals" offset="1"/>
          <input semantic="TEXCOORD" source="#Cube_011-mesh-map-0" offset="2" set="0"/>
          <p>10 0 0 2 0 1 11 0 2 3 1 3 8 1 4 7 1 5 8 2 6 4 2 7 9 2 8 3 3 9 6 3 10 2 3 11 5 4 12 0 4 13 4 4 14 4 5 15 15 5 16 9 5 17 14 6 18 27 6 19 15 6 20 1 7 21 11 7 22 0 7 23 7 8 24 9 8 25 6 8 26 6 9 27 15 9 28 16 9 29 10 1 30 5 1 31 8 1 32 28 10 33 20 10 34 31 10 35 4 11 36 13 11 37 14 11 38 6 12 39 17 12 40 2 12 41 0 13 42 12 13 43 13 13 44 2 14 45 12 14 46 11 14 47 13 4 48 23 4 49 14 4 50 25 10 51 21 10 52 18 10 53 12 15 54 22 15 55 13 15 56 15 16 57 29 16 58 16 16 59 16 3 60 30 3 61 17 3 62 18 17 63 19 17 64 20 17 65 25 18 66 26 18 67 27 18 68 18 19 69 22 19 70 19 19 71 25 20 72 23 20 73 24 20 74 26 21 75 29 21 76 27 21 77 20 22 78 30 22 79 31 22 80 28 23 81 30 23 82 29 23 83 24 24 84 22 24 85 21 24 86 18 10 87 26 10 88 25 10 89 17 25 90 19 25 91 12 25 92 47 1 93 32 1 94 34 1 95 36 10 96 43 10 97 40 10 98 37 26 99 40 26 100 41 26 101 38 1 102 41 1 103 42 1 104 39 27 105 42 27 106 43 27 107 41 4 108 32 4 109 33 4 110 43 4 111 35 4 112 34 4 113 40 4 114 34 4 115 32 4 116 42 4 117 33 4 118 35 4 119 46 4 120 44 4 121 47 4 122 44 27 123 33 27 124 32 27 125 45 10 126 35 10 127 33 10 128 46 26 129 34 26 130 35 26 131 48 3 132 51 3 133 50 3 134 54 26 135 63 26 136 55 26 137 50 10 138 56 10 139 48 10 140 48 26 141 57 26 142 49 26 143 49 1 144 58 1 145 51 1 146 51 27 147 59 27 148 50 27 149 52 4 150 57 4 151 56 4 152 55 4 153 58 4 154 54 4 155 52 4 156 59 4 157 55 4 158 53 28 159 58 28 160 57 28 161 62 4 162 60 4 163 63 4 164 55 1 165 60 1 166 52 1 167 52 27 168 61 27 169 53 27 170 53 10 171 62 10 172 54 10 173 10 29 174 3 29 175 2 29 176 3 1 177 10 1 178 8 1 179 8 30 180 5 30 181 4 30 182 3 3 183 7 3 184 6 3 185 5 4 186 1 4 187 0 4 188 4 31 189 14 31 190 15 31 191 14 32 192 23 32 193 27 32 194 1 33 195 10 33 196 11 33 197 7 34 198 8 34 199 9 34 200 6 35 201 9 35 202 15 35 203 10 1 204 1 1 205 5 1 206 28 10 207 26 10 208 20 10 209 4 36 210 0 36 211 13 36 212 6 37 213 16 37 214 17 37 215 0 38 216 11 38 217 12 38 218 2 39 219 17 39 220 12 39 221 13 4 222 22 4 223 23 4 224 25 10 225 24 10 226 21 10 227 12 40 228 19 40 229 22 40 230 15 41 231 27 41 232 29 41 233 16 3 234 29 3 235 30 3 236 18 42 237 21 42 238 22 42 239 25 43 240 27 43 241 23 43 242 26 44 243 28 44 244 29 44 245 20 45 246 19 45 247 30 45 248 28 46 249 31 46 250 30 46 251 24 47 252 23 47 253 22 47 254 18 10 255 20 10 256 26 10 257 17 48 258 30 48 259 19 48 260 47 1 261 44 1 262 32 1 263 36 10 264 39 10 265 43 10 266 37 26 267 36 26 268 40 26 269 38 1 270 37 1 271 41 1 272 39 27 273 38 27 274 42 27 275 41 4 276 40 4 277 32 4 278 43 4 279 42 4 280 35 4 281 40 49 282 43 49 283 34 49 284 42 50 285 41 50 286 33 50 287 46 4 288 45 4 289 44 4 290 44 27 291 45 27 292 33 27 293 45 10 294 46 10 295 35 10 296 46 26 297 47 26 298 34 26 299 48 3 300 49 3 301 51 3 302 54 26 303 62 26 304 63 26 305 50 10 306 59 10 307 56 10 308 48 26 309 56 26 310 57 26 311 49 1 312 57 1 313 58 1 314 51 27 315 58 27 316 59 27 317 52 4 318 53 4 319 57 4 320 55 4 321 59 4 322 58 4 323 52 51 324 56 51 325 59 51 326 53 4 327 54 4 328 58 4 329 62 4 330 61 4 331 60 4 332 55 1 333 63 1 334 60 1 335 52 27 336 60 27 337 61 27 338 53 10 339 61 10 340 62 10 341</p>
        </triangles>
      </mesh>
    </geometry>
  </library_geometries>
  <library_visual_scenes>
    <visual_scene id="Scene" name="Scene">
      <node id="cave_lion_tower" name="cave_lion_tower" type="NODE">
        <matrix sid="transform">1 0 0 0 0 1 0 0 0 0 1 0 0 0 0 1</matrix>
        <instance_geometry url="#Cube_011-mesh" name="cave_lion_tower">
          <bind_material>
            <technique_common>
              <instance_material symbol="Material_001-material" target="#Material_001-material">
                <bind_vertex_input semantic="Cube_011-mesh-map-0" input_semantic="TEXCOORD" input_set="0"/>
              </instance_material>
            </technique_common>
          </bind_material>
        </instance_geometry>
        <node id="prop_projectile" name="prop_projectile" type="NODE">
          <matrix sid="transform">2.105852 -1.37235e-6 0 0 1.37235e-6 2.105852 0 -4.21288 0 0 2.105852 7.119082 0 0 0 1</matrix>
        </node>
      </node>
    </visual_scene>
  </library_visual_scenes>
  <scene>
    <instance_visual_scene url="#Scene"/>
  </scene>
</COLLADA>