<?xml version="1.0" encoding="utf-8"?>
<COLLADA xmlns="http://www.collada.org/2005/11/COLLADASchema" version="1.4.1" xmlns:xsi="http://www.w3.org/2001/XMLSchema-instance">
  <asset>
    <contributor>
      <author>Blender User</author>
      <authoring_tool>Blender 4.3.1 commit date:2024-12-10, commit time:07:46, hash:33d812126174</authoring_tool>
    </contributor>
    <created>2026-09-23T10:39:43</created>
    <modified>2026-09-23T10:39:43</modified>
    <unit name="meter" meter="1"/>
    <up_axis>Z_UP</up_axis>
  </asset>
  <library_effects>
    <effect id="Material_001-effect">
      <profile_COMMON>
        <newparam sid="mla_v_png-surface">
          <surface type="2D">
            <init_from>mla_v_png</init_from>
          </surface>
        </newparam>
        <newparam sid="mla_v_png-sampler">
          <sampler2D>
            <source>mla_v_png-surface</source>
          </sampler2D>
        </newparam>
        <technique sid="common">
          <lambert>
            <emission>
              <color sid="emission">0 0 0 1</color>
            </emission>
            <diffuse>
              <texture texture="mla_v_png-sampler" texcoord="Cube_017-mesh-map-0"/>
            </diffuse>
            <index_of_refraction>
              <float sid="ior">1.45</float>
            </index_of_refraction>
          </lambert>
        </technique>
      </profile_COMMON>
    </effect>
  </library_effects>
  <library_images>
    <image id="mla_v_png" name="mla_v_png">
      <init_from>/home/welton/snap/0ad/743/.local/share/0ad/mods/mars_wars/art/textures/skins/mechanical/mla_v.png</init_from>
    </image>
  </library_images>
  <library_materials>
    <material id="Material_001-material" name="Material.001">
      <instance_effect url="#Material_001-effect"/>
    </material>
  </library_materials>
  <library_geometries>
    <geometry id="Cube_017-mesh" name="Cube.017">
      <mesh>
        <source id="Cube_017-mesh-positions">
          <float_array id="Cube_017-mesh-positions-array" count="144">-7.02639e-4 0.3366881 0.0901674 -7.02558e-4 -0.9933456 0.08070439 0.5463718 0.3366881 0.07771277 -7.02599e-4 -0.3393818 0.1765154 0.1723954 -0.8043851 0.07787448 0.5718508 -0.2449015 0.08080208 7.02606e-4 0.3366881 0.0901674 7.02688e-4 -0.9933456 0.08070439 -0.5463718 0.3366881 0.07771277 7.02647e-4 -0.3393818 0.1765154 -0.1723952 -0.8043851 0.07787448 -0.5718508 -0.2449017 0.08080208 -7.02599e-4 -0.3393818 -0.02512151 0.5718508 -0.2449015 0.05749821 7.02647e-4 -0.3393818 -0.02512151 -0.5718508 -0.2449017 0.05749821 -0.1723952 -0.8043851 0.06166416 -7.02558e-4 -0.9933456 0.06449407 0.1723954 -0.8043851 0.06166416 7.02688e-4 -0.9933456 0.06449407 7.02606e-4 0.3366881 0.06903958 -0.5463718 0.3366881 0.07018113 -7.02639e-4 0.3366881 0.06903958 0.5463718 0.3366881 0.07018113 -1.400896 0.4571921 0.07865715 -1.466224 -0.1022912 0.08340817 1.400896 0.4571923 0.07865715 1.466224 -0.1022911 0.08340817 -1.400896 0.4571921 0.06487566 -1.466224 -0.1022912 0.05223882 1.400896 0.4571923 0.06487566 1.466224 -0.1022911 0.05223882 -1.400896 0.4571921 0.199256 -1.466224 0.1785686 0.1744374 1.400896 0.4571923 0.199256 1.466224 0.1785687 0.1744374 -1.400896 0.4571921 0.03151589 -1.466224 -0.1022912 0.03919827 1.400896 0.4571923 0.03151589 1.466224 -0.1022911 0.03919827 -1.422119 0.4571921 0.199256 -1.488436 0.1785686 0.1744374 1.422119 0.4571923 0.199256 1.488436 0.1785687 0.1744374 -1.422119 0.4571921 0.03151589 -1.488436 -0.1022912 0.03919827 1.422119 0.4571923 0.03151589 1.488436 -0.1022911 0.03919827</float_array>
          <technique_common>
            <accessor source="#Cube_017-mesh-positions-array" count="48" stride="3">
              <param name="X" type="float"/>
              <param name="Y" type="float"/>
              <param name="Z" type="float"/>
            </accessor>
          </technique_common>
        </source>
        <source id="Cube_017-mesh-normals">
          <float_array id="Cube_017-mesh-normals-array" count="315">-0.6090263 -0.01806002 0.7929444 0.1762517 -0.1410441 0.9741879 0.07572931 0.006466805 0.9971075 0.1353816 -0.1347003 -0.9815945 -0.5986838 -0.004271447 -0.8009741 0.0588181 0.02223438 -0.9980211 -0.1762518 -0.1410441 0.9741878 0.6090666 -0.01805108 0.7929136 -0.075881 0.005819499 0.9971 -0.01530051 -0.02450126 0.9995827 -0.268295 0.3988339 0.8768976 -0.02720314 -0.8620023 0.5061742 0.02721446 -0.8619506 0.5062615 0.2682669 0.3988037 0.87692 0.5987205 -0.0031147 -0.800952 -0.1368623 -0.1253762 -0.9826239 -0.05809712 0.02211588 -0.998066 -0.04102307 -0.01769918 0.9990015 -0.2764709 0.400642 -0.8735272 0.02611565 -0.002471804 -0.9996559 0.2764693 0.4006436 -0.873527 0.05147892 -0.8915891 -0.4499098 0.7769693 -0.6295387 0 0.01440143 -0.8900105 0.4557126 0.3366876 0.8783642 -0.3392903 0.09778487 0.9948698 -0.02593052 0.3434749 0.8694405 0.355103 0 1 0 0.7815232 -0.6238747 0.001439869 0.8135458 -0.5815008 -4.10547e-4 -0.04438924 0.9985904 -0.02910357 -0.3366885 0.8783643 -0.3392894 -0.3434955 0.8694168 0.3551411 0.07069981 0.9968057 0.03714752 0.1414394 0.9899462 -0.001244604 0.1559892 -0.9877585 -7.65943e-4 0.1583439 -0.9873834 0.001189053 0.157441 -0.9875281 7.66674e-4 -0.8138539 -0.5810695 0 -0.7761938 -0.6304582 0.006752371 -0.7769692 -0.6295386 0 -0.9933208 0.1153861 3.11237e-4 -0.9930451 0.1177345 -1.23283e-4 -0.9933944 0.1147357 -0.001817166 -0.05148309 -0.8915849 -0.4499178 -0.01449382 -0.8900222 0.4556869 2.0307e-4 -0.01652723 -0.9998635 0 -0.08872437 0.9960562 0 -0.2536191 0.9673042 0 -0.08872431 0.9960563 0.9738147 -0.134193 0.1835138 0.9785223 -0.1947153 0.06767755 0.9735965 -0.2282758 0 -0.9738147 -0.134193 0.1835138 -0.9785223 -0.1947153 0.06767755 -0.9674257 -0.1098295 0.2280898 -0.9778881 0.197543 -0.0686419 -0.9730466 0.136111 -0.1861564 -0.9728236 0.2315477 0 0.9730465 0.1361111 -0.1861565 0.9778881 0.1975432 -0.0686419 0.9728235 0.231548 0 0.9931625 0.116731 -0.001496255 0.9933039 0.1155286 7.35431e-4 0.9932702 0.1157996 -0.002197921 -0.1573561 -0.9875403 -0.001770377 -0.158681 -0.9873293 0.001138329 -0.157464 -0.9875248 0 0 -0.4338447 0.9009878 0 -0.2795786 0.9601228 0 -0.01372987 -0.9999058 0 -0.01372998 -0.9999058 0 -0.01372998 -0.9999058 -0.1418134 0.9898934 -1.79578e-4 -0.09623706 0.9950117 0.02627396 0 -0.279582 0.9601219 0 -0.4338415 0.9009893 0 -0.4338414 0.9009893 0.9674258 -0.1098295 0.2280899 -0.9735966 -0.2282758 0 -0.9664815 0.1113833 -0.2313167 0.9664815 0.1113833 -0.2313168 0 -0.2536191 0.9673042 0 -0.08872431 0.9960563 -0.06253647 -0.835702 -0.5456111 -0.003764092 0.008459568 0.9999572 -0.002183675 0.006023347 0.9999796 0.06250303 -0.8357079 -0.5456059 0.003271222 0.006264686 0.9999751 0.00458163 0.006906569 0.9999657 -0.009589612 0.02071321 -0.9997395 -0.01001906 0.02136397 -0.9997216 0.8131633 -0.582035 8.92806e-4 0.1399533 0.990158 5.90386e-4 0.1578685 -0.9874601 -5.31446e-4 -0.8131913 -0.5819954 0.001232385 -0.9931671 0.1167009 4.62234e-4 0.01005047 0.0218032 -0.9997118 0.00978136 0.02110624 -0.9997294 0.9931628 0.1167379 3.97672e-5 -0.1570192 -0.9875953 7.36211e-4 0 -0.4338448 0.9009876 0 -0.01372981 -0.9999058 -0.1403673 0.9900994 4.48619e-4 0 -0.01372981 -0.9999058</float_array>
          <technique_common>
            <accessor source="#Cube_017-mesh-normals-array" count="105" stride="3">
              <param name="X" type="float"/>
              <param name="Y" type="float"/>
              <param name="Z" type="float"/>
            </accessor>
          </technique_common>
        </source>
        <source id="Cube_017-mesh-map-0">
          <float_array id="Cube_017-mesh-map-0-array" count="432">0.2591171 0.7501185 0.2344405 0.8241028 0.1774934 0.7350863 0.7853842 0.1644225 0.816514 0.07109272 0.7135465 0.05212986 0.2835941 0.8241028 0.2589167 0.7501185 0.3405413 0.7350863 0.7590191 0.06406927 0.8144682 0.06406927 0.7564368 0.1047204 0.2591171 0.7501185 0.2591171 0.8541672 0.2344405 0.8241028 0.8144682 0.06406927 0.8144682 0.1113241 0.7564368 0.1047204 0.2835941 0.8241028 0.2589167 0.8541672 0.2589167 0.7501185 0.8723571 0.1047204 0.8143257 0.1113241 0.8143257 0.06406927 0.8162611 0.07109272 0.847391 0.1644225 0.9192287 0.05212986 0.8723571 0.1047204 0.8143257 0.06406927 0.8697747 0.06406927 0.7626326 0.192058 0.8096858 0.1387162 0.7647265 0.1387162 0.8096858 0.1387162 0.7626326 0.192058 0.8096858 0.2007235 0.8566232 0.192058 0.8095702 0.1387162 0.80957 0.2007235 0.898329 0.174553 0.880998 0.1715358 0.898329 0.1708976 0.8095702 0.1733179 0.8545293 0.1726051 0.8095702 0.1715815 0.9099599 0.1764016 0.9084624 0.1626165 0.9084624 0.1764016 0.880998 0.1751913 0.8296837 0.1708757 0.880998 0.1715358 0.7647265 0.1726051 0.8096858 0.1733179 0.8096858 0.1715815 0.8545293 0.173224 0.9084624 0.1725274 0.8545293 0.1726051 0.7061845 0.172137 0.7626326 0.1761305 0.7061845 0.1746986 0.8296837 0.1708757 0.880998 0.1751913 0.880998 0.1715358 0.7483113 0.17366 0.7996256 0.172137 0.7483113 0.1725274 0.880998 0.1715358 0.898329 0.174553 0.898329 0.1708976 0.8545293 0.1387162 0.8095702 0.1387162 0.8566232 0.192058 0.9099599 0.1106856 0.9130716 0.162 0.9084624 0.1106856 0.7996256 0.1646562 0.7483113 0.1764016 0.7483113 0.1626165 0.7996256 0.1646562 0.7483111 0.1764016 0.7996256 0.1757702 0.7483113 0.1764016 0.7996256 0.1646562 0.7483113 0.1626165 0.7996256 0.1646562 0.7483111 0.1764016 0.7483111 0.1626165 0.7996256 0.172137 0.7483111 0.17366 0.7483111 0.1725274 0.7092961 0.1764016 0.7107934 0.1626165 0.7092961 0.1626165 0.9130716 0.172137 0.8566232 0.1761305 0.8566232 0.1708757 0.9146384 0.1757702 0.9130716 0.1646562 0.9146384 0.1646562 0.9130716 0.162 0.9099599 0.1106856 0.9084624 0.1106856 0.7107934 0.1725274 0.7647265 0.173224 0.7647265 0.1726051 0.7046174 0.1646562 0.7061845 0.1757702 0.7046174 0.1757702 0.7092961 0.1106856 0.7061845 0.162 0.7107934 0.1106856 0.7996256 0.1646562 0.7996256 0.1757702 0.7483113 0.1764016 0.7996256 0.1646562 0.7483111 0.1626165 0.7483111 0.1764016 0.7483113 0.1764016 0.7996256 0.1757702 0.7996256 0.1646562 0.7996256 0.1646562 0.7996256 0.1757702 0.7483111 0.1764016 0.7061845 0.162 0.7092961 0.1106856 0.7107934 0.1106856 0.7853842 0.1644225 0.816514 0.2023485 0.816514 0.07109272 0.7564368 0.1047204 0.6868179 0.08181345 0.7590191 0.06406927 0.6868179 0.08181345 0.6925023 0.04270756 0.7590191 0.06406927 0.8162611 0.07109272 0.8162611 0.2023485 0.847391 0.1644225 0.8697747 0.06406927 0.9362916 0.04270756 0.9419762 0.08181345 0.9419762 0.08181345 0.8723571 0.1047204 0.8697747 0.06406927 0.7647265 0.1387162 0.7107934 0.1106856 0.7061845 0.162 0.7061845 0.162 0.7626326 0.192058 0.7647265 0.1387162 0.898329 0.174553 0.880998 0.1751913 0.880998 0.1715358 0.8095702 0.1733179 0.8545293 0.173224 0.8545293 0.1726051 0.9099599 0.1764016 0.9099599 0.1626165 0.9084624 0.1626165 0.880998 0.1751913 0.8296837 0.1761305 0.8296837 0.1708757 0.7647265 0.1726051 0.7647265 0.173224 0.8096858 0.1733179 0.8545293 0.173224 0.9084624 0.17366 0.9084624 0.1725274 0.7061845 0.172137 0.7626326 0.1708757 0.7626326 0.1761305 0.8296837 0.1708757 0.8296837 0.1761305 0.880998 0.1751913 0.7483113 0.17366 0.7996256 0.1746986 0.7996256 0.172137 0.880998 0.1715358 0.880998 0.1751913 0.898329 0.174553 0.8566232 0.192058 0.9130716 0.162 0.8545293 0.1387162 0.9130716 0.162 0.9084624 0.1106856 0.8545293 0.1387162 0.9099599 0.1106856 0.9146384 0.162 0.9130716 0.162 0.7996256 0.172137 0.7996256 0.1746986 0.7483111 0.17366 0.7092961 0.1764016 0.7107934 0.1764016 0.7107934 0.1626165 0.9130716 0.172137 0.9130716 0.1746986 0.8566232 0.1761305 0.9146384 0.1757702 0.9130716 0.1757702 0.9130716 0.1646562 0.9130716 0.162 0.9146384 0.162 0.9099599 0.1106856 0.7107934 0.1725274 0.7107934 0.17366 0.7647265 0.173224 0.7046174 0.1646562 0.7061845 0.1646562 0.7061845 0.1757702 0.7092961 0.1106856 0.7046174 0.162 0.7061845 0.162 0.7061845 0.162 0.7046174 0.162 0.7092961 0.1106856</float_array>
          <technique_common>
            <accessor source="#Cube_017-mesh-map-0-array" count="216" stride="2">
              <param name="S" type="float"/>
              <param name="T" type="float"/>
            </accessor>
          </technique_common>
        </source>
        <vertices id="Cube_017-mesh-vertices">
          <input semantic="POSITION" source="#Cube_017-mesh-positions"/>
        </vertices>
        <triangles material="Material_001-material" count="72">
          <input semantic="VERTEX" source="#Cube_017-mesh-vertices" offset="0"/>
          <input semantic="NORMAL" source="#Cube_017-mesh-normals" offset="1"/>
          <input semantic="TEXCOORD" source="#Cube_017-mesh-map-0" offset="2" set="0"/>
          <p>3 0 0 4 1 1 5 2 2 18 3 3 12 4 4 13 5 5 10 6 6 9 7 7 11 8 8 2 9 9 0 10 10 5 2 11 3 0 12 1 11 13 4 1 14 0 10 15 3 0 16 5 2 17 10 6 18 7 12 19 9 7 20 11 8 21 9 7 22 6 13 23 14 14 24 16 15 25 15 16 26 11 8 27 6 13 28 8 17 29 13 5 30 22 18 31 23 19 32 22 18 33 13 5 34 12 4 35 15 16 36 20 20 37 14 14 38 17 21 39 4 22 40 1 23 41 20 24 42 8 25 43 6 26 44 44 27 45 32 27 46 36 27 47 18 28 48 5 29 49 4 22 50 2 30 51 22 31 52 0 32 53 21 33 54 24 34 55 8 25 56 27 35 57 13 36 58 31 37 59 11 38 60 16 39 61 10 40 62 28 41 63 25 42 64 24 43 65 10 40 66 19 44 67 7 45 68 21 46 69 20 20 70 15 16 71 40 47 72 33 48 73 32 49 74 33 50 75 36 51 76 32 52 77 35 53 78 38 54 79 39 55 80 44 56 81 41 57 82 40 58 83 43 59 84 46 60 85 42 61 86 27 62 87 30 63 88 26 64 89 46 27 90 34 27 91 42 27 92 25 65 93 15 66 94 11 67 95 45 68 96 33 48 97 41 69 98 37 70 99 44 71 100 36 72 101 26 73 102 23 74 103 2 30 104 43 75 105 39 76 106 47 77 107 46 71 108 39 70 109 38 72 110 33 50 111 37 78 112 36 51 113 35 53 114 34 79 115 38 54 116 44 56 117 45 80 118 41 57 119 43 59 120 47 81 121 46 60 122 35 82 123 42 49 124 34 83 125 18 3 126 17 84 127 12 4 128 5 2 129 27 85 130 2 9 131 27 85 132 26 86 133 2 9 134 14 14 135 19 87 136 16 15 137 8 17 138 24 88 139 25 89 140 25 89 141 11 8 142 8 17 143 23 19 144 30 90 145 31 91 146 31 91 147 13 5 148 23 19 149 17 21 150 18 28 151 4 22 152 20 24 153 21 33 154 8 25 155 44 27 156 40 27 157 32 27 158 18 28 159 13 92 160 5 29 161 2 30 162 23 74 163 22 31 164 21 33 165 28 93 166 24 34 167 27 35 168 5 94 169 13 36 170 11 38 171 15 95 172 16 39 173 28 41 174 29 96 175 25 42 176 10 40 177 16 39 178 19 44 179 15 16 180 29 97 181 21 46 182 29 97 183 28 98 184 21 46 185 40 47 186 41 69 187 33 48 188 27 62 189 31 99 190 30 63 191 46 27 192 38 27 193 34 27 194 25 65 195 29 100 196 15 66 197 45 68 198 37 101 199 33 48 200 37 70 201 45 102 202 44 71 203 26 73 204 30 103 205 23 74 206 43 75 207 35 82 208 39 76 209 46 71 210 47 104 211 39 70 212 35 82 213 43 75 214 42 49 215</p>
        </triangles>
      </mesh>
    </geometry>
  </library_geometries>
  <library_visual_scenes>
    <visual_scene id="Scene" name="Scene">
      <node id="drone_kamikaze" name="drone_kamikaze" type="NODE">
        <matrix sid="transform">1 0 0 0 0 1 0 0 0 0 1 0 0 0 0 1</matrix>
        <instance_geometry url="#Cube_017-mesh" name="drone_kamikaze">
          <bind_material>
            <technique_common>
              <instance_material symbol="Material_001-material" target="#Material_001-material">
                <bind_vertex_input semantic="Cube_017-mesh-map-0" input_semantic="TEXCOORD" input_set="0"/>
              </instance_material>
            </technique_common>
          </bind_material>
        </instance_geometry>
        <node id="prop_projectile_" name="prop_projectile." type="NODE">
          <matrix sid="transform">0.720746 0 0 0 0 0.720746 0 -1.034423 0 0 0.720746 0.07340193 0 0 0 1</matrix>
        </node>
        <node id="prop_back" name="prop_back" type="NODE">
          <matrix sid="transform">0.720746 0 0 0 0 0.720746 0 0.3680089 0 0 0.720746 0.07583889 0 0 0 1</matrix>
        </node>
      </node>
    </visual_scene>
  </library_visual_scenes>
  <scene>
    <instance_visual_scene url="#Scene"/>
  </scene>
</COLLADA>