<?xml version="1.0" encoding="utf-8"?>
<COLLADA xmlns="http://www.collada.org/2005/11/COLLADASchema" version="1.4.1" xmlns:xsi="http://www.w3.org/2001/XMLSchema-instance">
  <asset>
    <contributor>
      <author>Blender User</author>
      <authoring_tool>Blender 4.3.1 commit date:2024-12-10, commit time:07:46, hash:33d812126174</authoring_tool>
    </contributor>
    <created>2026-09-23T15:39:56</created>
    <modified>2026-09-23T15:39:56</modified>
    <unit name="meter" meter="1"/>
    <up_axis>Z_UP</up_axis>
  </asset>
  <library_effects>
    <effect id="Material_004-effect">
      <profile_COMMON>
        <newparam sid="mla_veh_01_png-surface">
          <surface type="2D">
            <init_from>mla_veh_01_png</init_from>
          </surface>
        </newparam>
        <newparam sid="mla_veh_01_png-sampler">
          <sampler2D>
            <source>mla_veh_01_png-surface</source>
          </sampler2D>
        </newparam>
        <technique sid="common">
          <lambert>
            <emission>
              <color sid="emission">0 0 0 1</color>
            </emission>
            <diffuse>
              <texture texture="mla_veh_01_png-sampler" texcoord="Cube_002-mesh-map-0"/>
            </diffuse>
            <index_of_refraction>
              <float sid="ior">1.5</float>
            </index_of_refraction>
          </lambert>
        </technique>
      </profile_COMMON>
    </effect>
  </library_effects>
  <library_images>
    <image id="mla_veh_01_png" name="mla_veh_01_png">
      <init_from>/home/welton/snap/0ad/743/.local/share/0ad/mods/mars_wars/art/textures/skins/vehicle/mla_veh_01.png</init_from>
    </image>
  </library_images>
  <library_materials>
    <material id="Material_004-material" name="Material.004">
      <instance_effect url="#Material_004-effect"/>
    </material>
  </library_materials>
  <library_geometries>
    <geometry id="Cube_001-mesh" name="Cube.001">
      <mesh>
        <source id="Cube_001-mesh-positions">
          <float_array id="Cube_001-mesh-positions-array" count="819">0.003669202 5.899741 6.184502 2.793544 5.899741 6.184502 0.003669202 3.60381 6.257257 3.24796 3.60381 6.257257 0.003669202 1.411835 6.772377 3.24796 1.411835 6.772377 0.003669202 -0.7801392 7.287497 3.24796 -0.7801392 7.287497 0.003669202 -2.972114 7.802618 3.24796 -2.972114 7.802618 -2.786205 5.899741 6.184502 -3.240621 3.60381 6.257257 -3.240621 1.411835 6.772377 -3.240621 -0.7801392 7.287497 -3.240621 -2.972114 7.802618 -3.240621 -0.1476389 9.978955 -3.240621 -2.339614 10.49407 3.24796 4.23631 8.948715 3.24796 2.044335 9.463835 3.24796 -0.1476389 9.978955 3.24796 -2.339614 10.49407 0.003669202 6.324327 7.991229 2.793544 6.324327 7.991229 0.003669202 2.044335 9.463835 0.003669202 -2.339614 10.49407 -2.786205 6.324327 7.991229 -3.240621 4.23631 8.948715 -3.240621 2.044335 9.463835 0.003669202 4.23631 8.948715 0.003669202 -0.1476389 9.978955 0.003669202 5.795784 5.742137 3.24796 5.795784 5.742137 -3.240621 5.795784 5.742137 0.003669202 6.428285 8.433594 3.24796 6.428285 8.433594 -3.240621 6.428285 8.433594 0.003669202 -2.339614 10.49407 0.003669202 -2.550447 9.596923 -1.618476 -2.339614 10.49407 -1.618476 -2.550447 9.596923 -0.1430329 -2.516886 9.739734 -0.1430329 -2.373175 10.35126 -1.471774 -2.373175 10.35126 -1.471774 -2.516886 9.739734 -0.1430329 -2.071004 9.634951 -0.1430329 -1.927293 10.24648 -1.471774 -1.927293 10.24648 -1.471774 -2.071004 9.634951 -0.1430329 -2.071004 9.634951 -0.1430329 -1.927293 10.24648 -1.471774 -1.927293 10.24648 -1.471774 -2.071004 9.634951 -3.240621 -2.339614 10.49407 -3.240621 -2.550447 9.596923 -1.618476 -2.339614 10.49407 -1.618476 -2.550447 9.596923 -1.765178 -2.373175 10.35126 -3.093919 -2.373175 10.35126 -3.093919 -2.516886 9.739734 -1.765178 -2.516886 9.739734 -1.765178 -1.927293 10.24648 -3.093919 -1.927293 10.24648 -3.093919 -2.071004 9.634951 -1.765178 -2.071004 9.634951 -1.765178 -1.927293 10.24648 -3.093919 -1.927293 10.24648 -3.093919 -2.071004 9.634951 -1.765178 -2.071004 9.634951 0.003669202 -2.339614 10.49407 0.003669202 -2.550447 9.596923 1.625814 -2.339614 10.49407 1.625814 -2.550447 9.596923 0.1503713 -2.516886 9.739734 0.1503713 -2.373175 10.35126 1.479112 -2.516886 9.739734 1.479112 -2.373175 10.35126 0.1503713 -2.071004 9.634951 0.1503713 -1.927293 10.24648 1.479112 -2.071004 9.634951 1.479112 -1.927293 10.24648 0.1503713 -2.071004 9.634951 0.1503713 -1.927293 10.24648 1.479112 -2.071004 9.634951 1.479112 -1.927293 10.24648 3.24796 -2.339614 10.49407 3.24796 -2.550447 9.596923 1.625814 -2.339614 10.49407 1.625814 -2.550447 9.596923 1.772517 -2.373175 10.35126 3.101258 -2.373175 10.35126 3.101258 -2.516886 9.739734 1.772517 -2.516886 9.739734 1.772517 -1.927293 10.24648 3.101258 -1.927293 10.24648 3.101258 -2.071004 9.634951 1.772517 -2.071004 9.634951 1.772517 -1.927293 10.24648 3.101258 -1.927293 10.24648 3.101258 -2.071004 9.634951 1.772517 -2.071004 9.634951 3.24796 -2.550447 9.596923 3.24796 -2.761281 8.69977 1.625814 -2.761281 8.69977 1.625814 -2.550447 9.596923 3.101258 -2.584009 9.454111 3.101258 -2.72772 8.842582 1.772517 -2.72772 8.842582 1.772517 -2.584009 9.454111 3.101258 -2.138127 9.349328 3.101258 -2.281838 8.737799 1.772517 -2.281838 8.737799 1.772517 -2.138127 9.349328 3.101258 -2.138127 9.349328 3.101258 -2.281838 8.737799 1.772517 -2.281838 8.737799 1.772517 -2.138127 9.349328 0.003669202 -2.761281 8.69977 0.003669202 -2.550447 9.596923 1.625814 -2.761281 8.69977 1.625814 -2.550447 9.596923 0.1503713 -2.72772 8.842582 0.1503713 -2.584009 9.454111 1.479112 -2.72772 8.842582 1.479112 -2.584009 9.454111 0.1503713 -2.281838 8.737799 0.1503713 -2.138127 9.349328 1.479112 -2.281838 8.737799 1.479112 -2.138127 9.349328 0.1503713 -2.281838 8.737799 0.1503713 -2.138127 9.349328 1.479112 -2.281838 8.737799 1.479112 -2.138127 9.349328 0.003669202 -2.761281 8.69977 0.003669202 -2.550447 9.596923 -1.618476 -2.761281 8.69977 -1.618476 -2.550447 9.596923 -0.1430329 -2.72772 8.842582 -0.1430329 -2.584009 9.454111 -1.471774 -2.72772 8.842582 -1.471774 -2.584009 9.454111 -0.1430329 -2.281838 8.737799 -0.1430329 -2.138127 9.349328 -1.471774 -2.281838 8.737799 -1.471774 -2.138127 9.349328 -0.1430329 -2.281838 8.737799 -0.1430329 -2.138127 9.349328 -1.471774 -2.281838 8.737799 -1.471774 -2.138127 9.349328 -3.240621 -2.550447 9.596923 -3.240621 -2.761281 8.69977 -1.618476 -2.761281 8.69977 -1.618476 -2.550447 9.596923 -3.093919 -2.584009 9.454111 -3.093919 -2.72772 8.842582 -1.765178 -2.72772 8.842582 -1.765178 -2.584009 9.454111 -3.093919 -2.138127 9.349328 -3.093919 -2.281838 8.737799 -1.765178 -2.281838 8.737799 -1.765178 -2.138127 9.349328 -3.093919 -2.138127 9.349328 -3.093919 -2.281838 8.737799 -1.765178 -2.281838 8.737799 -1.765178 -2.138127 9.349328 -3.240621 -2.972114 7.802618 -3.240621 -2.761281 8.69977 -1.618476 -2.972114 7.802618 -1.618476 -2.761281 8.69977 -1.765178 -2.938553 7.94543 -3.093919 -2.938553 7.94543 -3.093919 -2.794842 8.556959 -1.765178 -2.794842 8.556959 -1.765178 -2.492671 7.840646 -3.093919 -2.492671 7.840646 -3.093919 -2.34896 8.452176 -1.765178 -2.34896 8.452176 -1.765178 -2.492671 7.840646 -3.093919 -2.492671 7.840646 -3.093919 -2.34896 8.452176 -1.765178 -2.34896 8.452176 0.003669202 -2.972114 7.802618 0.003669202 -2.761281 8.69977 -1.618476 -2.972114 7.802618 -1.618476 -2.761281 8.69977 -0.1430329 -2.938553 7.94543 -0.1430329 -2.794842 8.556959 -1.471774 -2.938553 7.94543 -1.471774 -2.794842 8.556959 -0.1430329 -2.492671 7.840646 -0.1430329 -2.34896 8.452176 -1.471774 -2.492671 7.840646 -1.471774 -2.34896 8.452176 -0.1430329 -2.492671 7.840646 -0.1430329 -2.34896 8.452176 -1.471774 -2.492671 7.840646 -1.471774 -2.34896 8.452176 0.003669202 -2.972114 7.802618 0.003669202 -2.761281 8.69977 1.625814 -2.972114 7.802618 1.625814 -2.761281 8.69977 0.1503713 -2.938553 7.94543 0.1503713 -2.794842 8.556959 1.479112 -2.794842 8.556959 1.479112 -2.938553 7.94543 0.1503713 -2.492671 7.840646 0.1503713 -2.34896 8.452176 1.479112 -2.34896 8.452176 1.479112 -2.492671 7.840646 0.1503713 -2.492671 7.840646 0.1503713 -2.34896 8.452176 1.479112 -2.34896 8.452176 1.479112 -2.492671 7.840646 3.24796 -2.972114 7.802618 3.24796 -2.761281 8.69977 1.625814 -2.972114 7.802618 1.625814 -2.761281 8.69977 1.772517 -2.938553 7.94543 3.101258 -2.938553 7.94543 3.101258 -2.794842 8.556959 1.772517 -2.794842 8.556959 1.772517 -2.492671 7.840646 3.101258 -2.492671 7.840646 3.101258 -2.34896 8.452176 1.772517 -2.34896 8.452176 1.772517 -2.492671 7.840646 3.101258 -2.492671 7.840646 3.101258 -2.34896 8.452176 1.772517 -2.34896 8.452176 0.003669202 4.588325 6.257257 2.695975 4.588325 6.257257 0.003669202 3.054686 6.772377 2.695975 3.054686 6.772377 -2.688637 4.588325 6.257257 -2.688637 3.054686 6.772377 2.695975 4.588325 6.257257 2.695975 3.054686 6.772377 0.003669202 3.054686 6.772377 -2.688637 3.054686 6.772377 -2.688637 4.588325 6.257257 0.003669202 4.588325 6.257257 2.695975 4.588325 4.260642 2.695975 3.054686 4.260642 0.003669202 3.054686 4.260642 -2.688637 3.054686 4.260642 -2.688637 4.588325 4.260642 0.003669202 4.588325 4.260642 -1.247566 -0.1476389 10.18667 -1.247566 -2.339614 10.70179 1.254904 4.23631 9.156431 1.254904 2.044335 9.671551 1.254904 -0.1476389 10.18667 1.254904 -2.339614 10.70179 0.003669202 2.044335 9.671551 0.003669202 -2.339614 10.70179 -1.247566 4.23631 9.156431 -1.247566 2.044335 9.671551 0.003669202 4.23631 9.156431 0.003669202 -0.1476389 10.18667 0.003669202 6.428285 8.64131 1.254904 6.428285 8.64131 -1.247566 6.428285 8.64131 -1.247566 -0.1476389 9.891083 -1.247566 -2.339614 10.4062 1.254904 4.23631 8.860843 1.254904 2.044335 9.375964 1.254904 -0.1476389 9.891083 1.254904 -2.339614 10.4062 0.003669202 6.428285 8.345723 1.254904 6.428285 8.345723 0.003669202 -2.339614 10.4062 -1.247566 6.428285 8.345723 -1.247566 4.23631 8.860843 -1.247566 2.044335 9.375964</float_array>
          <technique_common>
            <accessor source="#Cube_001-mesh-positions-array" count="273" stride="3">
              <param name="X" type="float"/>
              <param name="Y" type="float"/>
              <param name="Z" type="float"/>
            </accessor>
          </technique_common>
        </source>
        <source id="Cube_001-mesh-normals">
          <float_array id="Cube_001-mesh-normals-array" count="672">0 -0.2287706 -0.9734804 0.5773645 0.4299578 -0.6941086 0.7071031 -0.1617661 -0.6883581 0 -0.2287707 -0.9734804 0.7071188 -0.1617625 -0.6883429 0 -0.2287706 -0.9734804 0.7071109 -0.1617643 -0.6883506 0 -0.2287707 -0.9734804 0.7070995 -0.161767 -0.6883617 -0.7071031 -0.1617661 -0.6883581 -0.5773562 0.4299755 -0.6941044 -0.7071188 -0.1617625 -0.688343 -0.7071109 -0.1617643 -0.6883506 -0.7070995 -0.161767 -0.6883617 0 -0.2287707 -0.9734804 0 0.2287707 0.9734804 0.7071187 0.1617627 0.688343 0.5773395 0.6941388 0.4299424 0 0.2287707 0.9734804 0.7071031 0.1617661 0.6883583 0 0.2287706 0.9734805 0.707111 0.1617642 0.6883506 0 0.2287705 0.9734804 0.7071151 0.1617634 0.6883465 -0.7071186 0.1617626 0.688343 -0.5773476 0.6941248 0.4299541 -0.7071031 0.1617661 0.6883583 -0.707111 0.1617642 0.6883506 -0.7071151 0.1617634 0.6883465 0 0.2287707 0.9734804 0 0.9734804 -0.228771 0 0.9734803 -0.2287713 1.59017e-7 0.9734803 -0.2287713 0 0.9734803 -0.2287714 0 0.9734803 -0.2287709 0 0.9734803 -0.2287713 0 0.9734802 -0.2287712 0 0.9734803 -0.2287713 0.3015255 -0.8115617 0.5004498 0.6890795 -0.1576372 0.707333 0.3015173 -0.9495221 -0.08657425 -0.3015264 -0.8115696 0.5004365 -4.20011e-7 -0.9734802 0.2287712 -0.3015163 -0.949521 -0.08658993 0 -0.9734803 0.2287713 -1.7635e-6 -0.9734801 0.228772 1.23176e-6 -0.9734801 0.2287718 -0.3179187 0.07273012 0.9453244 0 -0.4002641 0.9163998 0.3178939 0.07272058 0.9453334 -0.6889587 -0.1576014 0.7074586 0 -0.4002059 0.9164252 0 -0.4002059 0.9164254 0 -0.4002643 0.9163998 -0.301527 -0.811569 0.5004372 -0.6889588 -0.1576012 0.7074586 -0.3179187 0.07273012 0.9453244 -0.3015163 -0.949521 -0.08659023 0 -0.97348 0.2287724 0.3015174 -0.9495222 -0.08657318 1.23179e-6 -0.9734802 0.2287715 0.3015249 -0.8115624 0.500449 -1.76346e-6 -0.97348 0.2287722 -4.2001e-7 -0.9734804 0.2287709 0 -0.4002058 0.9164253 0.6890795 -0.1576371 0.7073331 0 -0.4002642 0.9163998 0 -0.4002642 0.9163998 0.301525 -0.8115627 0.5004485 0.3015175 -0.9495222 -0.08657264 1.23179e-6 -0.9734804 0.2287709 -1.76346e-6 -0.97348 0.2287722 -0.3015163 -0.949521 -0.08659011 0 -0.9734798 0.2287728 -4.2001e-7 -0.9734804 0.228771 -0.6889588 -0.1576013 0.7074586 0 -0.4002059 0.9164253 0.6890795 -0.1576371 0.7073331 -0.3015264 -0.8115697 0.5004365 0.3178939 0.07272088 0.9453334 0.3015256 -0.8115618 0.5004498 0.301518 -0.9495218 -0.08657497 -4.2002e-7 -0.9734802 0.2287718 0 -0.9734803 0.2287712 -0.3015158 -0.9495214 -0.08658874 -1.7635e-6 -0.9734801 0.228772 1.23176e-6 -0.9734801 0.2287718 0.6890795 -0.1576368 0.7073331 -0.6889588 -0.1576014 0.7074586 0.3015258 -0.9495194 -0.08657544 -0.6890526 -0.1576262 0.7073618 -0.3015237 -0.9495187 -0.08658987 -1.26813e-6 -0.9734803 0.2287711 8.81743e-7 -0.9734805 0.2287706 0.3015179 -0.8115648 0.5004495 -0.3015187 -0.811572 0.5004372 -8.81722e-7 -0.9734805 0.2287706 1.26811e-6 -0.9734807 0.2287696 0.6890689 -0.1576381 0.7073432 0 -0.4002642 0.9163998 -0.3179269 0.07272994 0.9453217 0.3179318 0.07272714 0.9453202 0 -0.4002528 0.9164048 0 -0.4002528 0.9164048 0 -0.4002642 0.9163998 0.3015252 -0.9495197 -0.08657425 -0.6890525 -0.1576265 0.7073617 -0.3015243 -0.9495185 -0.08659029 1.26813e-6 -0.9734805 0.2287703 0.3015174 -0.8115649 0.5004495 -0.3015195 -0.8115723 0.5004363 -1.26811e-6 -0.9734807 0.2287694 -8.8174e-7 -0.9734804 0.2287712 8.81724e-7 -0.9734804 0.2287707 -0.3179269 0.07272988 0.9453217 0.3179318 0.0727272 0.9453202 0 -0.4002528 0.9164048 0 -0.4002642 0.9163998 0.3015251 -0.9495196 -0.08657503 0.6890689 -0.157638 0.7073432 -0.3015241 -0.9495184 -0.08659195 -1.26813e-6 -0.97348 0.2287723 8.81723e-7 -0.9734808 0.2287688 0.301518 -0.8115648 0.5004495 -0.3015186 -0.8115714 0.5004383 -8.81737e-7 -0.9734805 0.22877 1.26811e-6 -0.9734807 0.2287696 -0.6890526 -0.1576262 0.7073618 -0.3179269 0.07272988 0.9453217 0.3015251 -0.9495196 -0.08657515 -0.3015244 -0.9495185 -0.08659052 1.26813e-6 -0.9734803 0.2287713 0.3015172 -0.8115644 0.5004504 -0.3015195 -0.8115722 0.5004365 -1.26811e-6 -0.9734807 0.2287695 -8.8174e-7 -0.9734805 0.2287703 8.81722e-7 -0.9734805 0.2287706 0.301525 -0.9495196 -0.08657503 -0.6889248 -0.1575968 0.7074927 -0.3015243 -0.9495185 -0.08659017 -0.301518 -0.8115724 0.500437 -4.56367e-7 -0.9734806 0.2287698 4.56358e-7 -0.9734807 0.2287697 0.3015159 -0.8115655 0.5004495 -8.81744e-7 -0.9734804 0.2287704 8.81728e-7 -0.9734804 0.228771 0 -0.4001954 0.9164298 -0.3179265 0.07273054 0.9453217 0.3178951 0.07271927 0.9453331 0.6890689 -0.157638 0.7073431 0 -0.4002643 0.9163998 0.301525 -0.9495196 -0.08657586 0.3178951 0.07271939 0.9453331 -0.3015243 -0.9495186 -0.08658993 4.56367e-7 -0.9734806 0.2287697 8.81728e-7 -0.9734803 0.2287713 0.3015165 -0.8115649 0.5004501 -0.3015174 -0.811573 0.5004364 -8.81743e-7 -0.9734807 0.2287695 -4.56358e-7 -0.9734807 0.2287697 -0.6889247 -0.1575968 0.7074927 -0.3179265 0.07273042 0.9453217 0 -0.4001954 0.9164298 -0.3015244 -0.9495185 -0.08658993 -0.3179265 0.07273048 0.9453217 -0.301518 -0.8115726 0.5004369 0.3015252 -0.9495196 -0.08657413 -4.56367e-7 -0.9734808 0.2287687 0.3015161 -0.8115659 0.5004487 -8.81745e-7 -0.9734802 0.2287714 4.56358e-7 -0.9734807 0.2287696 8.81729e-7 -0.9734803 0.2287713 0.3178951 0.07271945 0.9453331 -0.6889249 -0.1575965 0.7074928 0.3015257 -0.9495193 -0.08657521 -0.6889249 -0.1575962 0.7074928 -0.3015236 -0.9495187 -0.08658981 0.3015165 -0.8115649 0.5004501 4.56367e-7 -0.9734807 0.2287696 -0.3015174 -0.8115732 0.5004362 8.81747e-7 -0.9734804 0.2287708 -8.81726e-7 -0.9734804 0.2287709 -4.56358e-7 -0.9734807 0.2287698 0.3178951 0.07271945 0.9453331 -0.3179265 0.07273048 0.9453217 0 0.1073824 0.9942179 0 0.1613129 0.9869033 0 0.1613126 0.9869034 0 0.1073827 0.9942178 0 0.7071124 0.7071013 -0.7070958 0.7071179 0 -0.4747862 0.3935933 0.7871865 0.4747839 0.3936036 0.7871827 0.7071002 -0.7071135 0 0.7071068 0.7071068 0 -0.3344962 -0.4214714 0.8428964 0 -1 0 0 -0.7071166 0.7070971 0 1 0 0.3344994 -0.4214523 0.8429046 -0.7071197 -0.707094 0 0 -0.2287708 -0.9734804 -0.5904528 -0.6326053 -0.5011747 -0.7071002 -0.1617668 -0.6883609 0 -0.2287707 -0.9734804 -0.7071003 -0.1617667 -0.688361 0 -0.2287706 -0.9734805 -0.7071002 -0.1617667 -0.6883611 0 -0.2287706 -0.9734805 -0.5661811 0.5118535 -0.6460999 0.7071002 -0.1617669 -0.6883609 0.5904595 -0.6325945 -0.5011804 0.7071002 -0.1617668 -0.688361 0.7071002 -0.1617668 -0.6883611 0.5661743 0.5118707 -0.6460922 0 0.6209701 -0.7838343 0.7537373 0.6571759 0 -0.6490087 -0.7607811 0 -1 0 0 1 0 0 1 0 0 1 0 0 0.6489954 -0.7607923 0 -0.753726 0.657189 0</float_array>
          <technique_common>
            <accessor source="#Cube_001-mesh-normals-array" count="224" stride="3">
              <param name="X" type="float"/>
              <param name="Y" type="float"/>
              <param name="Z" type="float"/>
            </accessor>
          </technique_common>
        </source>
        <source id="Cube_001-mesh-map-0">
          <float_array id="Cube_001-mesh-map-0-array" count="2664">0.3489677 0.7668617 0.4417336 0.7668617 0.4417336 0.6584028 0.1863498 0.3407306 0.2791157 0.3407306 0.2791157 0.2322717 0.142859 0.1732397 0.2045418 0.1732397 0.2045418 0.1011221 0.142859 0.1011221 0.2045418 0.1011221 0.2045418 0.02900445 0.2562019 0.6584028 0.2562019 0.7668617 0.3489677 0.7668617 0.09358394 0.2322717 0.09358394 0.3407306 0.1863498 0.3407306 0.08117616 0.1011221 0.08117616 0.1732397 0.142859 0.1732397 0.08117616 0.02900445 0.08117616 0.1011221 0.142859 0.1011221 0.3489677 0.7668617 0.4417336 0.6584028 0.3489677 0.6584028 0.1863498 0.3407306 0.2791157 0.2322717 0.1863498 0.2322717 0.142859 0.1732397 0.2045418 0.1011221 0.142859 0.1011221 0.142859 0.1011221 0.2045418 0.02900445 0.142859 0.02900445 0.2562019 0.6584028 0.3489677 0.7668617 0.3489677 0.6584028 0.09358394 0.2322717 0.1863498 0.3407306 0.1863498 0.2322717 0.08117616 0.1011221 0.142859 0.1732397 0.142859 0.1011221 0.08117616 0.02900445 0.142859 0.1011221 0.142859 0.02900445 0.4347822 0.2716865 0.3750141 0.4126368 0.4347822 0.4126368 0.3750141 0.2716865 0.3152461 0.4126368 0.3750141 0.4126368 0.3152461 0.2716865 0.255478 0.4126368 0.3152461 0.4126368 0.255478 0.2716865 0.1957099 0.4126368 0.255478 0.4126368 0.3750141 0.4123429 0.4347822 0.2713926 0.4347822 0.4123429 0.3152461 0.4123429 0.3750141 0.2713926 0.3750141 0.4123429 0.255478 0.4123429 0.3152461 0.2713926 0.3152461 0.4123429 0.1957099 0.4123429 0.255478 0.2713926 0.255478 0.4123429 0.4347822 0.2716865 0.3750141 0.2716865 0.3750141 0.4126368 0.3750141 0.2716865 0.3152461 0.2716865 0.3152461 0.4126368 0.3152461 0.2716865 0.255478 0.2716865 0.255478 0.4126368 0.255478 0.2716865 0.1957099 0.2716865 0.1957099 0.4126368 0.3750141 0.4123429 0.3750141 0.2713926 0.4347822 0.2713926 0.3152461 0.4123429 0.3152461 0.2713926 0.3750141 0.2713926 0.255478 0.4123429 0.255478 0.2713926 0.3152461 0.2713926 0.1957099 0.4123429 0.1957099 0.2713926 0.255478 0.2713926 0.2571537 0.6650515 0.1927698 0.7982246 0.1927698 0.6650515 0.342836 0.4936869 0.4072198 0.62686 0.342836 0.62686 0.2571537 0.6650515 0.3215374 0.7982246 0.2571537 0.7982246 0.128386 0.6650515 0.1927698 0.7982246 0.128386 0.7982246 0.2784522 0.4936869 0.2140683 0.62686 0.2140683 0.4936869 0.4716036 0.4936869 0.4072198 0.62686 0.4072198 0.4936869 0.6344725 0.5812544 0.7119922 0.7064044 0.7119921 0.5812543 0.556953 0.5812543 0.6344726 0.7064045 0.6344725 0.5812544 0.342836 0.4936869 0.2784522 0.62686 0.2784522 0.4936869 0.3215374 0.6650515 0.3859213 0.7982246 0.3215374 0.7982246 0.5205498 0.6934719 0.4535118 0.6732719 0.4535118 0.6934719 0.3864738 0.6934719 0.4535118 0.6732719 0.3755546 0.6732719 0.5205499 0.7759738 0.4535118 0.7961739 0.5314691 0.7961739 0.3864738 0.7759738 0.4535118 0.7961739 0.4535118 0.7759739 0.3864738 0.6934719 0.3755546 0.7961739 0.3864738 0.7759738 0.5205499 0.7759738 0.5314691 0.6732719 0.5205498 0.6934719 0.4147061 0.7638621 0.4147061 0.7870181 0.4147061 0.7870181 0.4437814 0.7638621 0.4469915 0.7924257 0.4437814 0.7870181 0.4437814 0.7870181 0.4114961 0.7924257 0.4147061 0.7870181 0.4147061 0.7638621 0.4469915 0.7584545 0.4437814 0.7638621 0.4147061 0.7870181 0.4114961 0.7584545 0.4147061 0.7638621 0.4437814 0.7638621 0.4147061 0.7638621 0.4147061 0.7638621 0.4147061 0.7870181 0.4437814 0.7870181 0.4437814 0.7870181 0.4437814 0.7638621 0.4147061 0.7638621 0.4147061 0.7638621 0.4437814 0.7638621 0.4437814 0.7870181 0.4437814 0.7638621 0.8620245 0.07469618 0.8513237 0.08321845 0.8513237 0.07469618 0.4437814 0.7870181 0.4437814 0.7638621 0.4437814 0.7638621 0.4147061 0.7638621 0.4147061 0.7870181 0.4147061 0.7870181 0.4147061 0.7870181 0.4437814 0.7870181 0.4437814 0.7870181 0.4082859 0.7638621 0.4082859 0.787018 0.4082859 0.7638621 0.4082859 0.787018 0.3760006 0.7924257 0.3792107 0.7870181 0.3792107 0.7870181 0.3760006 0.7584545 0.3792107 0.7638621 0.4082859 0.7638621 0.3760006 0.7584545 0.4114961 0.7584545 0.4082859 0.7638621 0.4114961 0.7924257 0.4082859 0.787018 0.3792107 0.7638621 0.3792107 0.7870181 0.3792107 0.7870181 0.3792107 0.7638621 0.3792107 0.7870181 0.3792107 0.7870181 0.4082859 0.7638621 0.3792107 0.7638621 0.3792107 0.7638621 0.3792107 0.7870181 0.4082859 0.787018 0.4082859 0.787018 0.8489607 0.07469618 0.83826 0.08321845 0.83826 0.07469618 0.4082859 0.7638621 0.3792107 0.7638621 0.3792107 0.7638621 0.3792107 0.7870181 0.4082859 0.787018 0.4082859 0.787018 0.4082859 0.787018 0.4082859 0.7638621 0.4082859 0.7638621 0.4792768 0.7638621 0.4502016 0.7638621 0.4502016 0.7638621 0.4502016 0.7870181 0.4469915 0.7584545 0.4502016 0.7638621 0.4792768 0.7638621 0.4469915 0.7584545 0.482487 0.7584545 0.4792768 0.787018 0.4469915 0.7924257 0.4502016 0.7870181 0.4792768 0.7638621 0.482487 0.7924257 0.4792768 0.787018 0.4792768 0.787018 0.4792768 0.7638621 0.4792768 0.7638621 0.4502016 0.7870181 0.4792768 0.787018 0.4792768 0.787018 0.4502016 0.7638621 0.4502016 0.7870181 0.4502016 0.7870181 0.4792768 0.7638621 0.4792768 0.787018 0.4792768 0.7638621 0.8750882 0.07469618 0.8643875 0.08321845 0.8643875 0.07469618 0.4792768 0.7638621 0.4502016 0.7638621 0.4502016 0.7638621 0.4502016 0.7870181 0.4792768 0.787018 0.4792768 0.787018 0.4502016 0.7638621 0.4502016 0.7870181 0.4502016 0.7870181 0.5147724 0.7638621 0.4856971 0.7638621 0.4856971 0.7638621 0.4856971 0.7870181 0.5179826 0.7924257 0.482487 0.7924257 0.5147724 0.7638621 0.5179826 0.7924257 0.5147724 0.7870181 0.4856971 0.7638621 0.5179826 0.7584545 0.5147724 0.7638621 0.4856971 0.7870181 0.482487 0.7584545 0.4856971 0.7638621 0.4856971 0.7638621 0.4856971 0.7870181 0.4856971 0.7870181 0.4856971 0.7870181 0.5147724 0.7870181 0.5147724 0.7870181 0.4856971 0.7638621 0.4856971 0.7870181 0.4856971 0.7870181 0.5147724 0.7638621 0.5147724 0.7870181 0.5147724 0.7638621 0.888152 0.07469618 0.8774511 0.08321845 0.8774511 0.07469618 0.5147724 0.7870181 0.5147724 0.7638621 0.5147724 0.7638621 0.5147724 0.7638621 0.4856971 0.7638621 0.4856971 0.7638621 0.4856971 0.7870181 0.5147724 0.7870181 0.5147724 0.7870181 0.4856971 0.7530468 0.5147725 0.7530468 0.5147725 0.7530468 0.5147725 0.7530468 0.5179826 0.7244833 0.5179826 0.7584545 0.4856971 0.7298909 0.5179826 0.7244833 0.5147724 0.7298909 0.4856971 0.7530468 0.5179826 0.7584545 0.482487 0.7584545 0.4856971 0.7530468 0.482487 0.7244833 0.4856971 0.7298909 0.4856971 0.7530468 0.5147725 0.7530468 0.5147725 0.7530468 0.5147725 0.7530468 0.5147724 0.7298909 0.5147724 0.7298909 0.4856971 0.7530468 0.4856971 0.7298909 0.4856971 0.7530468 0.5147724 0.7298909 0.4856971 0.7298909 0.4856971 0.7298909 0.888152 0.06219339 0.8774511 0.07071572 0.8774511 0.06219339 0.5147725 0.7530468 0.5147724 0.7298909 0.5147724 0.7298909 0.4856971 0.7298909 0.4856971 0.7530468 0.4856971 0.7530468 0.5147724 0.7298909 0.4856971 0.7298909 0.4856971 0.7298909 0.4502016 0.7530468 0.4792769 0.7530469 0.4792769 0.7530469 0.4502016 0.7530468 0.4469915 0.7244833 0.4502016 0.729891 0.4792768 0.7298909 0.4469915 0.7244833 0.482487 0.7244833 0.4792769 0.7530469 0.4469915 0.7584545 0.4502016 0.7530468 0.4792769 0.7530469 0.482487 0.7244833 0.482487 0.7584545 0.4792768 0.7298909 0.4502016 0.729891 0.4502016 0.729891 0.4502016 0.7530468 0.4502016 0.729891 0.4502016 0.7530468 0.4792769 0.7530469 0.4792768 0.7298909 0.4792768 0.7298909 0.4792768 0.7298909 0.4502016 0.729891 0.4502016 0.729891 0.8750882 0.06219339 0.8643875 0.07071572 0.8643875 0.06219339 0.4502016 0.7530468 0.4792769 0.7530469 0.4792769 0.7530469 0.4502016 0.729891 0.4502016 0.7530468 0.4502016 0.7530468 0.4792769 0.7530469 0.4792768 0.7298909 0.4792768 0.7298909 0.4147061 0.7530468 0.4147061 0.7298909 0.4147061 0.7530468 0.4437814 0.7530468 0.4469915 0.7244833 0.4469915 0.7584545 0.4147061 0.7298909 0.4469915 0.7244833 0.4437814 0.7298909 0.4437814 0.7530468 0.4114961 0.7584545 0.4147061 0.7530468 0.4147061 0.7530468 0.4114961 0.7244833 0.4147061 0.7298909 0.4147061 0.7298909 0.4147061 0.7530468 0.4147061 0.7530468 0.4437814 0.7298909 0.4147061 0.7298909 0.4147061 0.7298909 0.4147061 0.7530468 0.4437814 0.7530468 0.4437814 0.7530468 0.4437814 0.7530468 0.4437814 0.7298909 0.4437814 0.7298909 0.8620245 0.06219339 0.8513237 0.07071572 0.8513237 0.06219339 0.4437814 0.7298909 0.4147061 0.7298909 0.4147061 0.7298909 0.4147061 0.7530468 0.4437814 0.7530468 0.4437814 0.7530468 0.4437814 0.7530468 0.4437814 0.7298909 0.4437814 0.7298909 0.3792107 0.7530468 0.4082859 0.7530469 0.4082859 0.7530469 0.3792107 0.7530468 0.3760006 0.7244833 0.3792107 0.7298909 0.4082859 0.7298909 0.3760006 0.7244833 0.4114961 0.7244833 0.4082859 0.7530469 0.3760006 0.7584545 0.3792107 0.7530468 0.4082859 0.7530469 0.4114961 0.7244833 0.4114961 0.7584545 0.3792107 0.7530468 0.4082859 0.7530469 0.4082859 0.7530469 0.3792107 0.7530468 0.3792107 0.7298909 0.3792107 0.7530468 0.4082859 0.7530469 0.4082859 0.7298909 0.4082859 0.7298909 0.4082859 0.7298909 0.3792107 0.7298909 0.3792107 0.7298909 0.8489607 0.06219339 0.83826 0.07071572 0.83826 0.06219339 0.3792107 0.7298909 0.3792107 0.7530468 0.3792107 0.7530468 0.4082859 0.7530469 0.4082859 0.7298909 0.4082859 0.7298909 0.4082859 0.7298909 0.3792107 0.7298909 0.3792107 0.7298909 0.3792107 0.7190756 0.4082859 0.7190756 0.4082859 0.7190756 0.4082859 0.6959199 0.3760006 0.6905123 0.4114961 0.6905123 0.3792107 0.7190756 0.3760006 0.6905123 0.3792107 0.6959199 0.4082859 0.7190756 0.3760006 0.7244833 0.3792107 0.7190756 0.4082859 0.7190756 0.4114961 0.6905123 0.4114961 0.7244833 0.4082859 0.7190756 0.4082859 0.6959199 0.4082859 0.6959199 0.4082859 0.6959199 0.3792107 0.6959199 0.3792107 0.6959199 0.4082859 0.7190756 0.4082859 0.6959199 0.4082859 0.6959199 0.3792107 0.7190756 0.3792107 0.6959199 0.3792107 0.7190756 0.8489607 0.04969078 0.83826 0.05821293 0.83826 0.04969078 0.3792107 0.6959199 0.3792107 0.7190756 0.3792107 0.7190756 0.3792107 0.7190756 0.4082859 0.7190756 0.4082859 0.7190756 0.4082859 0.6959199 0.3792107 0.6959199 0.3792107 0.6959199 0.4147061 0.7190756 0.4147061 0.6959199 0.4147061 0.7190756 0.4437814 0.7190756 0.4469915 0.6905123 0.4469915 0.7244833 0.4147061 0.6959199 0.4469915 0.6905123 0.4437814 0.6959199 0.4437814 0.7190756 0.4114961 0.7244833 0.4147061 0.7190756 0.4147061 0.7190756 0.4114961 0.6905123 0.4147061 0.6959199 0.4147061 0.6959199 0.4147061 0.7190756 0.4147061 0.7190756 0.4437814 0.6959199 0.4147061 0.6959199 0.4147061 0.6959199 0.4147061 0.7190756 0.4437814 0.7190756 0.4437814 0.7190756 0.4437814 0.7190756 0.4437814 0.6959199 0.4437814 0.6959199 0.8620245 0.04969078 0.8513237 0.05821293 0.8513237 0.04969078 0.4437814 0.6959199 0.4147061 0.6959199 0.4147061 0.6959199 0.4147061 0.7190756 0.4437814 0.7190756 0.4437814 0.7190756 0.4437814 0.7190756 0.4437814 0.6959199 0.4437814 0.6959199 0.4792769 0.7190756 0.4792768 0.6959199 0.4792768 0.6959199 0.4502016 0.7190757 0.4469915 0.6905123 0.4502016 0.69592 0.4792769 0.7190756 0.4469915 0.7244833 0.4502016 0.7190757 0.4792768 0.6959199 0.4469915 0.6905123 0.482487 0.6905123 0.4792769 0.7190756 0.482487 0.6905123 0.482487 0.7244833 0.4792768 0.6959199 0.4502016 0.69592 0.4502016 0.69592 0.4502016 0.7190757 0.4792769 0.7190756 0.4792769 0.7190756 0.4792768 0.6959199 0.4502016 0.69592 0.4502016 0.69592 0.4502016 0.7190757 0.4502016 0.69592 0.4502016 0.7190757 0.8750882 0.04969078 0.8643875 0.05821293 0.8643875 0.04969078 0.4502016 0.69592 0.4502016 0.7190757 0.4502016 0.7190757 0.4792769 0.7190756 0.4792768 0.6959199 0.4792768 0.6959199 0.4502016 0.7190757 0.4792769 0.7190756 0.4792769 0.7190756 0.4856971 0.7190756 0.5147725 0.7190756 0.5147725 0.7190756 0.4856971 0.6959199 0.5179826 0.6905123 0.5147724 0.6959199 0.5147725 0.7190756 0.5179826 0.6905123 0.5179826 0.7244833 0.4856971 0.7190756 0.5179826 0.7244833 0.482487 0.7244833 0.4856971 0.7190756 0.482487 0.6905123 0.4856971 0.6959199 0.4856971 0.6959199 0.4856971 0.7190756 0.4856971 0.7190756 0.5147724 0.6959199 0.4856971 0.6959199 0.4856971 0.6959199 0.4856971 0.7190756 0.4856971 0.6959199 0.4856971 0.7190756 0.5147725 0.7190756 0.5147724 0.6959199 0.5147724 0.6959199 0.888152 0.04969078 0.8774511 0.05821293 0.8774511 0.04969078 0.5147725 0.7190756 0.5147724 0.6959199 0.5147724 0.6959199 0.4856971 0.7190756 0.5147725 0.7190756 0.5147725 0.7190756 0.5147724 0.6959199 0.4856971 0.6959199 0.4856971 0.6959199 0.1691913 0.2641243 0.2358639 0.2641243 0.2358639 0.3400828 0.2358639 0.3400828 0.2358639 0.2641243 0.3025365 0.2641243 0.1691913 0.2641243 0.2358639 0.3400828 0.1691913 0.3400828 0.2358639 0.3400828 0.3025365 0.2641243 0.3025365 0.3400828 0.2358639 0.3102806 0.1691913 0.2113918 0.1691913 0.3102806 0.1998817 0.5272237 0.1621595 0.5851742 0.1621595 0.5272237 0.1918822 0.4341207 0.2585548 0.3097189 0.2585548 0.4341207 0.3025365 0.3102806 0.2358639 0.2113918 0.2358639 0.3102806 0.1691913 0.2641243 0.2358639 0.2641243 0.2358639 0.2641243 0.3025365 0.2641243 0.3025365 0.3400828 0.3025365 0.3400828 0.2358639 0.3400828 0.1691913 0.3400828 0.1691913 0.3400828 0.1691913 0.3400828 0.1691913 0.2641243 0.1691913 0.2641243 0.2358639 0.2641243 0.3025365 0.2641243 0.3025365 0.2641243 0.3025365 0.3400828 0.2358639 0.3400828 0.2358639 0.3400828 0.1998817 0.5272237 0.1621595 0.5851742 0.209614 0.5851742 0.2585548 0.4341207 0.3252273 0.3097189 0.3252273 0.4341207 0.16424 0.5539119 0.16424 0.5132303 0.128606 0.5132303 0.128606 0.5539119 0.128606 0.5132303 0.09297186 0.5132303 0.09297186 0.5539119 0.09297186 0.5132303 0.05733782 0.5132303 0.05733782 0.5539119 0.05733782 0.5132303 0.02170372 0.5132303 0.128606 0.5945936 0.16424 0.5945936 0.16424 0.5539119 0.09297186 0.5945936 0.128606 0.5945936 0.128606 0.5539119 0.05733782 0.5945937 0.09297186 0.5945936 0.09297186 0.5539119 0.02170372 0.5945937 0.05733782 0.5945937 0.05733782 0.5539119 0.16424 0.5539119 0.128606 0.5132303 0.128606 0.5539119 0.128606 0.5539119 0.09297186 0.5132303 0.09297186 0.5539119 0.09297186 0.5539119 0.05733782 0.5132303 0.05733782 0.5539119 0.05733782 0.5539119 0.02170372 0.5132303 0.02170372 0.5539119 0.128606 0.5945936 0.16424 0.5539119 0.128606 0.5539119 0.09297186 0.5945936 0.128606 0.5539119 0.09297186 0.5539119 0.05733782 0.5945937 0.09297186 0.5539119 0.05733782 0.5539119 0.02170372 0.5945937 0.05733782 0.5539119 0.02170372 0.5539119 0.1107498 0.5539119 0.1059446 0.5945936 0.1107498 0.5945936 0.07725334 0.5539119 0.07244807 0.5132303 0.07725334 0.5132303 0.07725334 0.5945937 0.07244807 0.5539119 0.07725334 0.5539119 0.09400159 0.5539119 0.09757041 0.62518 0.1023756 0.62518 0.1023756 0.62518 0.1059446 0.6964482 0.09757041 0.62518 0.1107498 0.5132303 0.1059446 0.5539119 0.1107498 0.5539119 0.08562743 0.4826437 0.08919632 0.5539119 0.08082222 0.4826437 0.08562743 0.4826437 0.08919632 0.5539119 0.09400159 0.5539119 0.09400159 0.5539119 0.09757041 0.62518 0.08919632 0.5539119 0.07725334 0.4113757 0.08082222 0.4826437 0.07244807 0.4113757 0.1023756 0.62518 0.1059446 0.6964482 0.1107498 0.6964482 0.07725334 0.4113757 0.08082222 0.4826437 0.08562743 0.4826437 0.2571537 0.6650515 0.2571537 0.7982246 0.1927698 0.7982246 0.342836 0.4936869 0.4072198 0.4936869 0.4072198 0.62686 0.2571537 0.6650515 0.3215374 0.6650515 0.3215374 0.7982246 0.128386 0.6650515 0.1927698 0.6650515 0.1927698 0.7982246 0.2784522 0.4936869 0.2784522 0.62686 0.2140683 0.62686 0.4716036 0.4936869 0.4716036 0.62686 0.4072198 0.62686 0.6344725 0.5812544 0.6344726 0.7064045 0.7119922 0.7064044 0.556953 0.5812543 0.556953 0.7064044 0.6344726 0.7064045 0.342836 0.4936869 0.342836 0.62686 0.2784522 0.62686 0.3215374 0.6650515 0.3859213 0.6650515 0.3859213 0.7982246 0.5205498 0.6934719 0.5314691 0.6732719 0.4535118 0.6732719 0.3864738 0.6934719 0.4535118 0.6934719 0.4535118 0.6732719 0.5205499 0.7759738 0.4535118 0.7759739 0.4535118 0.7961739 0.3864738 0.7759738 0.3755546 0.7961739 0.4535118 0.7961739 0.3864738 0.6934719 0.3755546 0.6732719 0.3755546 0.7961739 0.5205499 0.7759738 0.5314691 0.7961739 0.5314691 0.6732719 0.4147061 0.7638621 0.4147061 0.7638621 0.4147061 0.7870181 0.4437814 0.7638621 0.4469915 0.7584545 0.4469915 0.7924257 0.4437814 0.7870181 0.4469915 0.7924257 0.4114961 0.7924257 0.4147061 0.7638621 0.4114961 0.7584545 0.4469915 0.7584545 0.4147061 0.7870181 0.4114961 0.7924257 0.4114961 0.7584545 0.4437814 0.7638621 0.4437814 0.7638621 0.4147061 0.7638621 0.4147061 0.7870181 0.4147061 0.7870181 0.4437814 0.7870181 0.4437814 0.7638621 0.4437814 0.7638621 0.4147061 0.7638621 0.4437814 0.7638621 0.4437814 0.7870181 0.4437814 0.7870181 0.8620245 0.07469618 0.8620245 0.08321845 0.8513237 0.08321845 0.4437814 0.7870181 0.4437814 0.7870181 0.4437814 0.7638621 0.4147061 0.7638621 0.4147061 0.7638621 0.4147061 0.7870181 0.4147061 0.7870181 0.4147061 0.7870181 0.4437814 0.7870181 0.4082859 0.7638621 0.4082859 0.787018 0.4082859 0.787018 0.4082859 0.787018 0.4114961 0.7924257 0.3760006 0.7924257 0.3792107 0.7870181 0.3760006 0.7924257 0.3760006 0.7584545 0.4082859 0.7638621 0.3792107 0.7638621 0.3760006 0.7584545 0.4082859 0.7638621 0.4114961 0.7584545 0.4114961 0.7924257 0.3792107 0.7638621 0.3792107 0.7638621 0.3792107 0.7870181 0.3792107 0.7638621 0.3792107 0.7638621 0.3792107 0.7870181 0.4082859 0.7638621 0.4082859 0.7638621 0.3792107 0.7638621 0.3792107 0.7870181 0.3792107 0.7870181 0.4082859 0.787018 0.8489607 0.07469618 0.8489607 0.08321833 0.83826 0.08321845 0.4082859 0.7638621 0.4082859 0.7638621 0.3792107 0.7638621 0.3792107 0.7870181 0.3792107 0.7870181 0.4082859 0.787018 0.4082859 0.787018 0.4082859 0.787018 0.4082859 0.7638621 0.4792768 0.7638621 0.4792768 0.7638621 0.4502016 0.7638621 0.4502016 0.7870181 0.4469915 0.7924257 0.4469915 0.7584545 0.4792768 0.7638621 0.4502016 0.7638621 0.4469915 0.7584545 0.4792768 0.787018 0.482487 0.7924257 0.4469915 0.7924257 0.4792768 0.7638621 0.482487 0.7584545 0.482487 0.7924257 0.4792768 0.787018 0.4792768 0.787018 0.4792768 0.7638621 0.4502016 0.7870181 0.4502016 0.7870181 0.4792768 0.787018 0.4502016 0.7638621 0.4502016 0.7638621 0.4502016 0.7870181 0.4792768 0.7638621 0.4792768 0.787018 0.4792768 0.787018 0.8750882 0.07469618 0.8750882 0.08321833 0.8643875 0.08321845 0.4792768 0.7638621 0.4792768 0.7638621 0.4502016 0.7638621 0.4502016 0.7870181 0.4502016 0.7870181 0.4792768 0.787018 0.4502016 0.7638621 0.4502016 0.7638621 0.4502016 0.7870181 0.5147724 0.7638621 0.5147724 0.7638621 0.4856971 0.7638621 0.4856971 0.7870181 0.5147724 0.7870181 0.5179826 0.7924257 0.5147724 0.7638621 0.5179826 0.7584545 0.5179826 0.7924257 0.4856971 0.7638621 0.482487 0.7584545 0.5179826 0.7584545 0.4856971 0.7870181 0.482487 0.7924257 0.482487 0.7584545 0.4856971 0.7638621 0.4856971 0.7638621 0.4856971 0.7870181 0.4856971 0.7870181 0.4856971 0.7870181 0.5147724 0.7870181 0.4856971 0.7638621 0.4856971 0.7638621 0.4856971 0.7870181 0.5147724 0.7638621 0.5147724 0.7870181 0.5147724 0.7870181 0.888152 0.07469618 0.888152 0.08321845 0.8774511 0.08321845 0.5147724 0.7870181 0.5147724 0.7870181 0.5147724 0.7638621 0.5147724 0.7638621 0.5147724 0.7638621 0.4856971 0.7638621 0.4856971 0.7870181 0.4856971 0.7870181 0.5147724 0.7870181 0.4856971 0.7530468 0.4856971 0.7530468 0.5147725 0.7530468 0.5147725 0.7530468 0.5147724 0.7298909 0.5179826 0.7244833 0.4856971 0.7298909 0.482487 0.7244833 0.5179826 0.7244833 0.4856971 0.7530468 0.5147725 0.7530468 0.5179826 0.7584545 0.4856971 0.7530468 0.482487 0.7584545 0.482487 0.7244833 0.4856971 0.7530468 0.4856971 0.7530468 0.5147725 0.7530468 0.5147725 0.7530468 0.5147725 0.7530468 0.5147724 0.7298909 0.4856971 0.7530468 0.4856971 0.7298909 0.4856971 0.7298909 0.5147724 0.7298909 0.5147724 0.7298909 0.4856971 0.7298909 0.888152 0.06219339 0.888152 0.07071572 0.8774511 0.07071572 0.5147725 0.7530468 0.5147725 0.7530468 0.5147724 0.7298909 0.4856971 0.7298909 0.4856971 0.7298909 0.4856971 0.7530468 0.5147724 0.7298909 0.5147724 0.7298909 0.4856971 0.7298909 0.4502016 0.7530468 0.4502016 0.7530468 0.4792769 0.7530469 0.4502016 0.7530468 0.4469915 0.7584545 0.4469915 0.7244833 0.4792768 0.7298909 0.4502016 0.729891 0.4469915 0.7244833 0.4792769 0.7530469 0.482487 0.7584545 0.4469915 0.7584545 0.4792769 0.7530469 0.4792768 0.7298909 0.482487 0.7244833 0.4792768 0.7298909 0.4792768 0.7298909 0.4502016 0.729891 0.4502016 0.7530468 0.4502016 0.729891 0.4502016 0.729891 0.4792769 0.7530469 0.4792769 0.7530469 0.4792768 0.7298909 0.4792768 0.7298909 0.4792768 0.7298909 0.4502016 0.729891 0.8750882 0.06219339 0.8750883 0.07071572 0.8643875 0.07071572 0.4502016 0.7530468 0.4502016 0.7530468 0.4792769 0.7530469 0.4502016 0.729891 0.4502016 0.729891 0.4502016 0.7530468 0.4792769 0.7530469 0.4792769 0.7530469 0.4792768 0.7298909 0.4147061 0.7530468 0.4147061 0.7298909 0.4147061 0.7298909 0.4437814 0.7530468 0.4437814 0.7298909 0.4469915 0.7244833 0.4147061 0.7298909 0.4114961 0.7244833 0.4469915 0.7244833 0.4437814 0.7530468 0.4469915 0.7584545 0.4114961 0.7584545 0.4147061 0.7530468 0.4114961 0.7584545 0.4114961 0.7244833 0.4147061 0.7298909 0.4147061 0.7298909 0.4147061 0.7530468 0.4437814 0.7298909 0.4437814 0.7298909 0.4147061 0.7298909 0.4147061 0.7530468 0.4147061 0.7530468 0.4437814 0.7530468 0.4437814 0.7530468 0.4437814 0.7530468 0.4437814 0.7298909 0.8620245 0.06219339 0.8620245 0.07071572 0.8513237 0.07071572 0.4437814 0.7298909 0.4437814 0.7298909 0.4147061 0.7298909 0.4147061 0.7530468 0.4147061 0.7530468 0.4437814 0.7530468 0.4437814 0.7530468 0.4437814 0.7530468 0.4437814 0.7298909 0.3792107 0.7530468 0.3792107 0.7530468 0.4082859 0.7530469 0.3792107 0.7530468 0.3760006 0.7584545 0.3760006 0.7244833 0.4082859 0.7298909 0.3792107 0.7298909 0.3760006 0.7244833 0.4082859 0.7530469 0.4114961 0.7584545 0.3760006 0.7584545 0.4082859 0.7530469 0.4082859 0.7298909 0.4114961 0.7244833 0.3792107 0.7530468 0.3792107 0.7530468 0.4082859 0.7530469 0.3792107 0.7530468 0.3792107 0.7298909 0.3792107 0.7298909 0.4082859 0.7530469 0.4082859 0.7530469 0.4082859 0.7298909 0.4082859 0.7298909 0.4082859 0.7298909 0.3792107 0.7298909 0.8489607 0.06219339 0.8489607 0.07071572 0.83826 0.07071572 0.3792107 0.7298909 0.3792107 0.7298909 0.3792107 0.7530468 0.4082859 0.7530469 0.4082859 0.7530469 0.4082859 0.7298909 0.4082859 0.7298909 0.4082859 0.7298909 0.3792107 0.7298909 0.3792107 0.7190756 0.3792107 0.7190756 0.4082859 0.7190756 0.4082859 0.6959199 0.3792107 0.6959199 0.3760006 0.6905123 0.3792107 0.7190756 0.3760006 0.7244833 0.3760006 0.6905123 0.4082859 0.7190756 0.4114961 0.7244833 0.3760006 0.7244833 0.4082859 0.7190756 0.4082859 0.6959199 0.4114961 0.6905123 0.4082859 0.7190756 0.4082859 0.7190756 0.4082859 0.6959199 0.4082859 0.6959199 0.4082859 0.6959199 0.3792107 0.6959199 0.4082859 0.7190756 0.4082859 0.7190756 0.4082859 0.6959199 0.3792107 0.7190756 0.3792107 0.6959199 0.3792107 0.6959199 0.8489607 0.04969078 0.8489607 0.05821293 0.83826 0.05821293 0.3792107 0.6959199 0.3792107 0.6959199 0.3792107 0.7190756 0.3792107 0.7190756 0.3792107 0.7190756 0.4082859 0.7190756 0.4082859 0.6959199 0.4082859 0.6959199 0.3792107 0.6959199 0.4147061 0.7190756 0.4147061 0.6959199 0.4147061 0.6959199 0.4437814 0.7190756 0.4437814 0.6959199 0.4469915 0.6905123 0.4147061 0.6959199 0.4114961 0.6905123 0.4469915 0.6905123 0.4437814 0.7190756 0.4469915 0.7244833 0.4114961 0.7244833 0.4147061 0.7190756 0.4114961 0.7244833 0.4114961 0.6905123 0.4147061 0.6959199 0.4147061 0.6959199 0.4147061 0.7190756 0.4437814 0.6959199 0.4437814 0.6959199 0.4147061 0.6959199 0.4147061 0.7190756 0.4147061 0.7190756 0.4437814 0.7190756 0.4437814 0.7190756 0.4437814 0.7190756 0.4437814 0.6959199 0.8620245 0.04969078 0.8620245 0.05821293 0.8513237 0.05821293 0.4437814 0.6959199 0.4437814 0.6959199 0.4147061 0.6959199 0.4147061 0.7190756 0.4147061 0.7190756 0.4437814 0.7190756 0.4437814 0.7190756 0.4437814 0.7190756 0.4437814 0.6959199 0.4792769 0.7190756 0.4792769 0.7190756 0.4792768 0.6959199 0.4502016 0.7190757 0.4469915 0.7244833 0.4469915 0.6905123 0.4792769 0.7190756 0.482487 0.7244833 0.4469915 0.7244833 0.4792768 0.6959199 0.4502016 0.69592 0.4469915 0.6905123 0.4792769 0.7190756 0.4792768 0.6959199 0.482487 0.6905123 0.4792768 0.6959199 0.4792768 0.6959199 0.4502016 0.69592 0.4502016 0.7190757 0.4502016 0.7190757 0.4792769 0.7190756 0.4792768 0.6959199 0.4792768 0.6959199 0.4502016 0.69592 0.4502016 0.7190757 0.4502016 0.69592 0.4502016 0.69592 0.8750882 0.04969078 0.8750883 0.05821293 0.8643875 0.05821293 0.4502016 0.69592 0.4502016 0.69592 0.4502016 0.7190757 0.4792769 0.7190756 0.4792769 0.7190756 0.4792768 0.6959199 0.4502016 0.7190757 0.4502016 0.7190757 0.4792769 0.7190756 0.4856971 0.7190756 0.4856971 0.7190756 0.5147725 0.7190756 0.4856971 0.6959199 0.482487 0.6905123 0.5179826 0.6905123 0.5147725 0.7190756 0.5147724 0.6959199 0.5179826 0.6905123 0.4856971 0.7190756 0.5147725 0.7190756 0.5179826 0.7244833 0.4856971 0.7190756 0.482487 0.7244833 0.482487 0.6905123 0.4856971 0.6959199 0.4856971 0.6959199 0.4856971 0.7190756 0.5147724 0.6959199 0.5147724 0.6959199 0.4856971 0.6959199 0.4856971 0.7190756 0.4856971 0.6959199 0.4856971 0.6959199 0.5147725 0.7190756 0.5147725 0.7190756 0.5147724 0.6959199 0.888152 0.04969078 0.888152 0.05821293 0.8774511 0.05821293 0.5147725 0.7190756 0.5147725 0.7190756 0.5147724 0.6959199 0.4856971 0.7190756 0.4856971 0.7190756 0.5147725 0.7190756 0.5147724 0.6959199 0.5147724 0.6959199 0.4856971 0.6959199 0.2358639 0.3102806 0.2358639 0.2113918 0.1691913 0.2113918 0.1998817 0.5272237 0.209614 0.5851742 0.1621595 0.5851742 0.1918822 0.4341207 0.1918822 0.3097189 0.2585548 0.3097189 0.3025365 0.3102806 0.3025365 0.2113918 0.2358639 0.2113918 0.1691913 0.2641243 0.1691913 0.2641243 0.2358639 0.2641243 0.3025365 0.2641243 0.3025365 0.2641243 0.3025365 0.3400828 0.2358639 0.3400828 0.2358639 0.3400828 0.1691913 0.3400828 0.1691913 0.3400828 0.1691913 0.3400828 0.1691913 0.2641243 0.2358639 0.2641243 0.2358639 0.2641243 0.3025365 0.2641243 0.3025365 0.3400828 0.3025365 0.3400828 0.2358639 0.3400828 0.1998817 0.5272237 0.1621595 0.5272237 0.1621595 0.5851742 0.2585548 0.4341207 0.2585548 0.3097189 0.3252273 0.3097189 0.1107498 0.5539119 0.1059446 0.5539119 0.1059446 0.5945936 0.07725334 0.5539119 0.07244807 0.5539119 0.07244807 0.5132303 0.07725334 0.5945937 0.07244807 0.5945937 0.07244807 0.5539119 0.09400159 0.5539119 0.08919632 0.5539119 0.09757041 0.62518 0.1023756 0.62518 0.1107498 0.6964482 0.1059446 0.6964482 0.1107498 0.5132303 0.1059446 0.5132303 0.1059446 0.5539119 0.08562743 0.4826437 0.09400159 0.5539119 0.08919632 0.5539119 0.08562743 0.4826437 0.08082222 0.4826437 0.08919632 0.5539119 0.09400159 0.5539119 0.1023756 0.62518 0.09757041 0.62518 0.07725334 0.4113757 0.08562743 0.4826437 0.08082222 0.4826437 0.1023756 0.62518 0.09757041 0.62518 0.1059446 0.6964482 0.07725334 0.4113757 0.07244807 0.4113757 0.08082222 0.4826437</float_array>
          <technique_common>
            <accessor source="#Cube_001-mesh-map-0-array" count="1332" stride="2">
              <param name="S" type="float"/>
              <param name="T" type="float"/>
            </accessor>
          </technique_common>
        </source>
        <vertices id="Cube_001-mesh-vertices">
          <input semantic="POSITION" source="#Cube_001-mesh-positions"/>
        </vertices>
        <triangles material="Material_004-material" count="444">
          <input semantic="VERTEX" source="#Cube_001-mesh-vertices" offset="0"/>
          <input semantic="NORMAL" source="#Cube_001-mesh-normals" offset="1"/>
          <input semantic="TEXCOORD" source="#Cube_001-mesh-map-0" offset="2" set="0"/>
          <p>30 0 0 31 1 1 3 2 2 2 3 3 3 2 4 5 4 5 4 5 6 5 4 7 7 6 8 6 7 9 7 6 10 9 8 11 11 9 12 32 10 13 30 0 14 12 11 15 11 9 16 2 3 17 13 12 18 12 11 19 4 5 20 14 13 21 13 12 22 6 7 23 30 0 24 3 2 25 2 3 26 2 3 27 5 4 28 4 5 29 4 5 30 7 6 31 6 7 32 6 7 33 9 8 34 8 14 35 11 9 36 30 0 37 2 3 38 12 11 39 2 3 40 4 5 41 13 12 42 4 5 43 6 7 44 14 13 45 6 7 46 8 14 47 33 15 48 17 16 49 34 17 50 28 18 51 18 19 52 17 16 53 23 20 54 19 21 55 18 19 56 29 22 57 20 23 58 19 21 59 26 24 60 33 15 61 35 25 62 27 26 63 28 18 64 26 24 65 15 27 66 23 20 67 27 26 68 16 28 69 29 22 70 15 27 71 33 15 72 28 18 73 17 16 74 28 18 75 23 20 76 18 19 77 23 20 78 29 22 79 19 21 80 29 22 81 24 29 82 20 23 83 26 24 84 28 18 85 33 15 86 27 26 87 23 20 88 28 18 89 15 27 90 29 22 91 23 20 92 16 28 93 24 29 94 29 22 95 12 11 96 26 24 97 11 9 98 5 4 99 17 16 100 18 19 101 12 11 102 15 27 103 27 26 104 32 10 105 26 24 106 35 25 107 7 6 108 20 23 109 9 8 110 31 1 111 17 16 112 3 2 113 0 30 114 22 31 115 1 32 116 10 33 117 21 34 118 0 30 119 5 4 120 19 21 121 7 6 122 13 12 123 16 28 124 15 27 125 1 32 126 30 35 127 0 36 128 10 33 129 30 35 130 32 10 131 22 31 132 33 35 133 34 17 134 25 37 135 33 35 136 21 36 137 10 33 138 35 25 139 25 37 140 22 31 141 31 1 142 1 32 143 43 38 144 46 39 145 42 40 146 40 41 147 36 42 148 41 43 149 41 43 150 38 44 151 42 40 152 43 38 153 37 45 154 40 41 155 42 40 156 39 46 157 43 38 158 44 47 159 51 48 160 47 49 161 42 40 162 45 50 163 41 43 164 40 41 165 47 49 166 43 38 167 40 41 168 45 50 169 44 47 170 48 51 171 50 52 172 51 48 173 45 50 174 48 51 175 44 47 176 47 49 177 50 52 178 46 39 179 46 39 180 49 53 181 45 50 182 59 54 183 60 55 184 63 56 185 56 57 186 52 58 187 57 59 188 57 59 189 53 60 190 58 61 191 59 54 192 53 60 193 55 62 194 59 54 195 54 63 196 56 57 197 62 49 198 65 64 199 61 65 200 58 61 201 61 65 202 57 59 203 59 54 204 62 49 205 58 61 206 57 59 207 60 55 208 56 57 209 67 52 210 65 64 211 66 66 212 63 56 213 66 66 214 62 49 215 61 65 216 64 67 217 60 55 218 60 55 219 67 52 220 63 56 221 74 54 222 76 49 223 72 68 224 73 69 225 69 70 226 72 68 227 74 54 228 69 70 229 71 71 230 75 72 231 68 73 232 73 69 233 74 54 234 70 74 235 75 72 236 79 75 237 82 76 238 78 56 239 73 69 240 79 75 241 75 72 242 72 68 243 77 77 244 73 69 245 74 54 246 79 75 247 78 56 248 82 76 249 81 52 250 80 66 251 78 56 252 80 66 253 76 49 254 77 77 255 83 66 256 79 75 257 76 49 258 81 52 259 77 77 260 90 78 261 95 79 262 91 80 263 88 81 264 84 82 265 86 83 266 90 78 267 84 82 268 89 84 269 91 80 270 85 85 271 90 78 272 88 81 273 87 86 274 91 80 275 95 79 276 96 64 277 92 87 278 88 81 279 93 88 280 89 84 281 91 80 282 92 87 283 88 81 284 90 78 285 93 88 286 94 56 287 98 52 288 96 64 289 99 66 290 93 88 291 98 52 292 94 56 293 94 56 294 99 66 295 95 79 296 92 87 297 97 66 298 93 88 299 107 89 300 108 90 301 104 91 302 104 91 303 101 92 304 100 93 305 106 94 306 101 92 307 105 95 308 107 89 309 100 93 310 103 96 311 107 89 312 102 97 313 106 94 314 111 98 315 112 99 316 108 90 317 104 91 318 109 100 319 105 95 320 107 89 321 110 101 322 111 98 323 105 95 324 110 101 325 106 94 326 113 102 327 115 103 328 114 104 329 108 90 330 113 102 331 109 100 332 110 101 333 115 103 334 111 98 335 109 100 336 114 104 337 110 101 338 121 105 339 127 106 340 123 107 341 121 105 342 116 108 343 120 109 344 122 110 345 116 108 346 118 111 347 123 107 348 117 112 349 121 105 350 123 107 351 118 111 352 119 113 353 126 114 354 128 104 355 124 115 356 121 105 357 124 115 358 125 98 359 123 107 360 126 114 361 122 110 362 122 110 363 124 115 364 120 109 365 130 102 366 129 116 367 128 104 368 125 98 369 131 117 370 127 106 371 124 115 372 129 116 373 125 98 374 127 106 375 130 102 376 126 114 377 139 118 378 142 115 379 143 119 380 137 120 381 132 121 382 133 122 383 138 123 384 132 121 385 136 124 386 137 120 387 135 125 388 139 118 389 139 118 390 134 126 391 138 123 392 142 115 393 147 103 394 143 119 395 136 124 396 142 115 397 138 123 398 139 118 399 141 127 400 137 120 401 137 120 402 140 128 403 136 124 404 144 103 405 147 103 406 146 104 407 140 128 408 146 104 409 142 115 410 143 119 411 145 104 412 141 127 413 141 127 414 144 103 415 140 128 416 152 129 417 159 90 418 155 130 419 152 129 420 149 131 421 153 132 422 154 133 423 149 131 424 150 134 425 155 130 426 148 135 427 152 129 428 155 130 429 150 134 430 151 136 431 156 98 432 163 99 433 159 90 434 152 129 435 157 101 436 156 98 437 155 130 438 158 100 439 154 133 440 154 133 441 157 101 442 153 132 443 162 102 444 160 103 445 161 104 446 157 101 447 160 103 448 156 98 449 159 90 450 162 102 451 158 100 452 158 100 453 161 104 454 157 101 455 170 137 456 175 138 457 171 139 458 168 140 459 164 141 460 166 142 461 170 137 462 164 141 463 169 143 464 171 139 465 165 144 466 170 137 467 171 139 468 166 142 469 167 145 470 175 138 471 176 146 472 172 147 473 168 140 474 173 148 475 169 143 476 171 139 477 172 147 478 168 140 479 170 137 480 173 148 481 174 149 482 176 146 483 178 146 484 177 150 485 173 148 486 178 146 487 174 149 488 174 149 489 179 53 490 175 138 491 172 147 492 177 150 493 173 148 494 187 151 495 190 152 496 191 149 497 185 153 498 180 154 499 181 155 500 186 156 501 180 154 502 184 157 503 185 153 504 183 158 505 187 151 506 187 151 507 182 159 508 186 156 509 190 152 510 195 146 511 191 149 512 184 157 513 190 152 514 186 156 515 187 151 516 189 160 517 185 153 518 185 153 519 188 161 520 184 157 521 192 162 522 195 146 523 194 150 524 188 161 525 194 150 526 190 152 527 191 149 528 193 53 529 189 160 530 189 160 531 192 162 532 188 161 533 202 163 534 207 164 535 203 165 536 201 166 537 196 167 538 200 168 539 202 163 540 197 169 541 201 166 542 203 165 543 196 167 544 198 170 545 202 163 546 198 170 547 199 171 548 207 164 549 208 53 550 204 172 551 201 166 552 206 173 553 202 163 554 203 165 555 204 172 556 200 168 557 201 166 558 204 172 559 205 149 560 211 146 561 209 146 562 208 53 563 204 172 564 209 146 565 205 149 566 206 173 567 211 146 568 207 164 569 205 149 570 210 150 571 206 173 572 219 174 573 222 175 574 218 176 575 216 177 576 212 178 577 217 179 578 218 176 579 212 178 580 213 180 581 219 174 582 213 180 583 215 181 584 219 174 585 214 182 586 216 177 587 220 183 588 227 146 589 223 149 590 217 179 591 220 183 592 216 177 593 219 174 594 220 183 595 223 149 596 218 176 597 221 184 598 217 179 599 225 146 600 227 146 601 224 150 602 222 175 603 225 146 604 221 184 605 223 149 606 226 150 607 222 175 608 221 184 609 224 150 610 220 183 611 233 185 612 230 186 613 228 187 614 228 187 615 230 186 616 231 185 617 233 185 618 228 187 619 232 188 620 228 187 621 231 185 622 229 188 623 239 189 624 244 190 625 238 191 626 234 192 627 241 193 628 240 194 629 237 195 630 242 196 631 236 197 632 234 192 633 245 198 634 239 189 635 233 185 636 236 197 637 230 186 638 231 185 639 234 192 640 229 188 641 228 187 642 238 191 643 232 188 644 232 188 645 237 195 646 233 185 647 230 186 648 235 199 649 231 185 650 229 188 651 239 189 652 228 187 653 238 191 654 243 200 655 237 195 656 236 197 657 241 193 658 235 199 659 258 201 660 259 202 661 248 203 662 256 204 663 248 203 664 249 205 665 252 206 666 249 205 667 250 207 668 257 208 669 250 207 670 251 209 671 254 210 672 260 211 673 258 201 674 255 212 675 254 210 676 256 204 677 246 213 678 255 212 679 252 206 680 247 214 681 246 213 682 257 208 683 258 201 684 248 203 685 256 204 686 256 204 687 249 205 688 252 206 689 252 206 690 250 207 691 257 208 692 257 208 693 251 209 694 253 215 695 254 210 696 258 201 697 256 204 698 255 212 699 256 204 700 252 206 701 246 213 702 252 206 703 257 208 704 247 214 705 257 208 706 253 215 707 253 215 708 262 216 709 247 214 710 258 196 711 268 217 712 259 202 713 260 211 714 267 196 715 258 196 716 249 205 717 265 218 718 250 207 719 246 213 720 262 216 721 261 219 722 251 209 723 269 198 724 253 215 725 254 210 726 272 220 727 271 221 728 248 203 729 264 218 730 249 205 731 255 212 732 261 219 733 272 220 734 260 211 735 271 221 736 270 222 737 250 207 738 266 223 739 251 209 740 259 202 741 263 218 742 248 203 743 12 11 744 27 26 745 26 24 746 5 4 747 3 2 748 17 16 749 12 11 750 13 12 751 15 27 752 32 10 753 11 9 754 26 24 755 7 6 756 19 21 757 20 23 758 31 1 759 34 17 760 17 16 761 0 30 762 21 34 763 22 31 764 10 33 765 25 37 766 21 34 767 5 4 768 18 19 769 19 21 770 13 12 771 14 13 772 16 28 773 1 32 774 31 1 775 30 35 776 10 33 777 0 36 778 30 35 779 22 31 780 21 36 781 33 35 782 25 37 783 35 25 784 33 35 785 10 33 786 32 10 787 35 25 788 22 31 789 34 17 790 31 1 791 43 38 792 47 49 793 46 39 794 40 41 795 37 45 796 36 42 797 41 43 798 36 42 799 38 44 800 43 38 801 39 46 802 37 45 803 42 40 804 38 44 805 39 46 806 44 47 807 48 51 808 51 48 809 42 40 810 46 39 811 45 50 812 40 41 813 44 47 814 47 49 815 40 41 816 41 43 817 45 50 818 48 51 819 49 53 820 50 52 821 45 50 822 49 53 823 48 51 824 47 49 825 51 48 826 50 52 827 46 39 828 50 52 829 49 53 830 59 54 831 56 57 832 60 55 833 56 57 834 54 63 835 52 58 836 57 59 837 52 58 838 53 60 839 59 54 840 58 61 841 53 60 842 59 54 843 55 62 844 54 63 845 62 49 846 66 66 847 65 64 848 58 61 849 62 49 850 61 65 851 59 54 852 63 56 853 62 49 854 57 59 855 61 65 856 60 55 857 67 52 858 64 67 859 65 64 860 63 56 861 67 52 862 66 66 863 61 65 864 65 64 865 64 67 866 60 55 867 64 67 868 67 52 869 74 54 870 78 56 871 76 49 872 73 69 873 68 73 874 69 70 875 74 54 876 72 68 877 69 70 878 75 72 879 70 74 880 68 73 881 74 54 882 71 71 883 70 74 884 79 75 885 83 66 886 82 76 887 73 69 888 77 77 889 79 75 890 72 68 891 76 49 892 77 77 893 74 54 894 75 72 895 79 75 896 82 76 897 83 66 898 81 52 899 78 56 900 82 76 901 80 66 902 77 77 903 81 52 904 83 66 905 76 49 906 80 66 907 81 52 908 90 78 909 94 56 910 95 79 911 88 81 912 89 84 913 84 82 914 90 78 915 85 85 916 84 82 917 91 80 918 87 86 919 85 85 920 88 81 921 86 83 922 87 86 923 95 79 924 99 66 925 96 64 926 88 81 927 92 87 928 93 88 929 91 80 930 95 79 931 92 87 932 90 78 933 89 84 934 93 88 935 98 52 936 97 66 937 96 64 938 93 88 939 97 66 940 98 52 941 94 56 942 98 52 943 99 66 944 92 87 945 96 64 946 97 66 947 107 89 948 111 98 949 108 90 950 104 91 951 105 95 952 101 92 953 106 94 954 102 97 955 101 92 956 107 89 957 104 91 958 100 93 959 107 89 960 103 96 961 102 97 962 111 98 963 115 103 964 112 99 965 104 91 966 108 90 967 109 100 968 107 89 969 106 94 970 110 101 971 105 95 972 109 100 973 110 101 974 113 102 975 112 99 976 115 103 977 108 90 978 112 99 979 113 102 980 110 101 981 114 104 982 115 103 983 109 100 984 113 102 985 114 104 986 121 105 987 125 98 988 127 106 989 121 105 990 117 112 991 116 108 992 122 110 993 120 109 994 116 108 995 123 107 996 119 113 997 117 112 998 123 107 999 122 110 1000 118 111 1001 126 114 1002 130 102 1003 128 104 1004 121 105 1005 120 109 1006 124 115 1007 123 107 1008 127 106 1009 126 114 1010 122 110 1011 126 114 1012 124 115 1013 130 102 1014 131 117 1015 129 116 1016 125 98 1017 129 116 1018 131 117 1019 124 115 1020 128 104 1021 129 116 1022 127 106 1023 131 117 1024 130 102 1025 139 118 1026 138 123 1027 142 115 1028 137 120 1029 136 124 1030 132 121 1031 138 123 1032 134 126 1033 132 121 1034 137 120 1035 133 122 1036 135 125 1037 139 118 1038 135 125 1039 134 126 1040 142 115 1041 146 104 1042 147 103 1043 136 124 1044 140 128 1045 142 115 1046 139 118 1047 143 119 1048 141 127 1049 137 120 1050 141 127 1051 140 128 1052 144 103 1053 145 104 1054 147 103 1055 140 128 1056 144 103 1057 146 104 1058 143 119 1059 147 103 1060 145 104 1061 141 127 1062 145 104 1063 144 103 1064 152 129 1065 156 98 1066 159 90 1067 152 129 1068 148 135 1069 149 131 1070 154 133 1071 153 132 1072 149 131 1073 155 130 1074 151 136 1075 148 135 1076 155 130 1077 154 133 1078 150 134 1079 156 98 1080 160 103 1081 163 99 1082 152 129 1083 153 132 1084 157 101 1085 155 130 1086 159 90 1087 158 100 1088 154 133 1089 158 100 1090 157 101 1091 162 102 1092 163 99 1093 160 103 1094 157 101 1095 161 104 1096 160 103 1097 159 90 1098 163 99 1099 162 102 1100 158 100 1101 162 102 1102 161 104 1103 170 137 1104 174 149 1105 175 138 1106 168 140 1107 169 143 1108 164 141 1109 170 137 1110 165 144 1111 164 141 1112 171 139 1113 167 145 1114 165 144 1115 171 139 1116 168 140 1117 166 142 1118 175 138 1119 179 53 1120 176 146 1121 168 140 1122 172 147 1123 173 148 1124 171 139 1125 175 138 1126 172 147 1127 170 137 1128 169 143 1129 173 148 1130 176 146 1131 179 53 1132 178 146 1133 173 148 1134 177 150 1135 178 146 1136 174 149 1137 178 146 1138 179 53 1139 172 147 1140 176 146 1141 177 150 1142 187 151 1143 186 156 1144 190 152 1145 185 153 1146 184 157 1147 180 154 1148 186 156 1149 182 159 1150 180 154 1151 185 153 1152 181 155 1153 183 158 1154 187 151 1155 183 158 1156 182 159 1157 190 152 1158 194 150 1159 195 146 1160 184 157 1161 188 161 1162 190 152 1163 187 151 1164 191 149 1165 189 160 1166 185 153 1167 189 160 1168 188 161 1169 192 162 1170 193 53 1171 195 146 1172 188 161 1173 192 162 1174 194 150 1175 191 149 1176 195 146 1177 193 53 1178 189 160 1179 193 53 1180 192 162 1181 202 163 1182 206 173 1183 207 164 1184 201 166 1185 197 169 1186 196 167 1187 202 163 1188 199 171 1189 197 169 1190 203 165 1191 200 168 1192 196 167 1193 202 163 1194 203 165 1195 198 170 1196 207 164 1197 211 146 1198 208 53 1199 201 166 1200 205 149 1201 206 173 1202 203 165 1203 207 164 1204 204 172 1205 201 166 1206 200 168 1207 204 172 1208 211 146 1209 210 150 1210 209 146 1211 204 172 1212 208 53 1213 209 146 1214 206 173 1215 210 150 1216 211 146 1217 205 149 1218 209 146 1219 210 150 1220 219 174 1221 223 149 1222 222 175 1223 216 177 1224 214 182 1225 212 178 1226 218 176 1227 217 179 1228 212 178 1229 219 174 1230 218 176 1231 213 180 1232 219 174 1233 215 181 1234 214 182 1235 220 183 1236 224 150 1237 227 146 1238 217 179 1239 221 184 1240 220 183 1241 219 174 1242 216 177 1243 220 183 1244 218 176 1245 222 175 1246 221 184 1247 225 146 1248 226 150 1249 227 146 1250 222 175 1251 226 150 1252 225 146 1253 223 149 1254 227 146 1255 226 150 1256 221 184 1257 225 146 1258 224 150 1259 239 189 1260 245 198 1261 244 190 1262 234 192 1263 235 199 1264 241 193 1265 237 195 1266 243 200 1267 242 196 1268 234 192 1269 240 194 1270 245 198 1271 233 185 1272 237 195 1273 236 197 1274 231 185 1275 235 199 1276 234 192 1277 228 187 1278 239 189 1279 238 191 1280 232 188 1281 238 191 1282 237 195 1283 230 186 1284 236 197 1285 235 199 1286 229 188 1287 234 192 1288 239 189 1289 238 191 1290 244 190 1291 243 200 1292 236 197 1293 242 196 1294 241 193 1295 253 215 1296 269 198 1297 262 216 1298 258 196 1299 267 196 1300 268 217 1301 260 211 1302 270 222 1303 267 196 1304 249 205 1305 264 218 1306 265 218 1307 246 213 1308 247 214 1309 262 216 1310 251 209 1311 266 223 1312 269 198 1313 254 210 1314 255 212 1315 272 220 1316 248 203 1317 263 218 1318 264 218 1319 255 212 1320 246 213 1321 261 219 1322 260 211 1323 254 210 1324 271 221 1325 250 207 1326 265 218 1327 266 223 1328 259 202 1329 268 217 1330 263 218 1331</p>
        </triangles>
      </mesh>
    </geometry>
  </library_geometries>
  <library_visual_scenes>
    <visual_scene id="Scene" name="Scene">
      <node id="lanc_drone" name="lanc_drone" type="NODE">
        <matrix sid="transform">1 0 0 0 0 1 0 0 0 0 1 0 0 0 0 1</matrix>
        <instance_geometry url="#Cube_001-mesh" name="lanc_drone">
          <bind_material>
            <technique_common>
              <instance_material symbol="Material_004-material" target="#Material_004-material">
                <bind_vertex_input semantic="Cube_002-mesh-map-0" input_semantic="TEXCOORD" input_set="0"/>
              </instance_material>
            </technique_common>
          </bind_material>
        </instance_geometry>
      </node>
    </visual_scene>
  </library_visual_scenes>
  <scene>
    <instance_visual_scene url="#Scene"/>
  </scene>
</COLLADA>