<?xml version="1.0" encoding="utf-8"?>
<COLLADA xmlns="http://www.collada.org/2005/11/COLLADASchema" version="1.4.1" xmlns:xsi="http://www.w3.org/2001/XMLSchema-instance">
  <asset>
    <contributor>
      <author>Blender User</author>
      <authoring_tool>Blender 4.3.1 commit date:2024-12-10, commit time:07:46, hash:33d812126174</authoring_tool>
    </contributor>
    <created>2026-09-07T20:39:42</created>
    <modified>2026-09-07T20:39:42</modified>
    <unit name="meter" meter="1"/>
    <up_axis>Z_UP</up_axis>
  </asset>
  <library_effects>
    <effect id="Material-effect">
      <profile_COMMON>
        <newparam sid="mcc_vec_01_png-surface">
          <surface type="2D">
            <init_from>mcc_vec_01_png</init_from>
          </surface>
        </newparam>
        <newparam sid="mcc_vec_01_png-sampler">
          <sampler2D>
            <source>mcc_vec_01_png-surface</source>
          </sampler2D>
        </newparam>
        <technique sid="common">
          <lambert>
            <emission>
              <color sid="emission">0 0 0 1</color>
            </emission>
            <diffuse>
              <texture texture="mcc_vec_01_png-sampler" texcoord="UVMap"/>
            </diffuse>
            <index_of_refraction>
              <float sid="ior">1.45</float>
            </index_of_refraction>
          </lambert>
        </technique>
      </profile_COMMON>
    </effect>
  </library_effects>
  <library_images>
    <image id="mcc_vec_01_png" name="mcc_vec_01_png">
      <init_from>/home/welton/Downloads/mcc_vec_01.png</init_from>
    </image>
  </library_images>
  <library_materials>
    <material id="Material-material" name="Material">
      <instance_effect url="#Material-effect"/>
    </material>
  </library_materials>
  <library_geometries>
    <geometry id="Cube_006-mesh" name="Cube.006">
      <mesh>
        <source id="Cube_006-mesh-positions">
          <float_array id="Cube_006-mesh-positions-array" count="882">-2.851238 -4.326994 5.808327 -2.194008 -3.785197 7.717306 -1.028633 8.922181 6.28974 -0.7915259 8.922182 7.423748 2.851238 -4.326994 5.808327 2.194008 -3.785197 7.717306 1.028633 8.922181 6.28974 0.791526 8.922182 7.423748 -3.032673 7.521669 5.829163 -4.203015 5.260296 5.497341 -4.591478 2.998923 5.497341 -4.968836 0.7375504 5.497341 -4.329302 -1.523823 5.497341 -3.331368 -1.523823 8.028292 -3.823486 0.7375509 8.722649 -3.533111 2.998924 8.722649 -3.234191 5.260297 8.722649 -2.333621 7.52167 7.937904 4.329302 -1.523822 5.497341 4.968836 0.7375511 5.497341 4.591478 2.998924 5.497341 4.203015 5.260297 5.497341 3.032673 7.521669 5.829163 2.333621 7.521669 7.937904 3.234191 5.260296 8.722649 3.533111 2.998923 8.722649 3.823486 0.7375501 8.722649 3.331368 -1.523823 8.028292 -3.173508 -4.326995 6.882211 -1.144897 8.922182 6.882211 1.144897 8.922182 6.882211 3.173508 -4.326995 6.882211 3.37545 7.52167 6.875586 4.678073 5.260297 6.882211 5.110445 2.998923 6.882211 5.530455 0.7375501 6.882211 4.818634 -1.523823 6.882211 -4.818634 -1.523823 6.882211 -5.530455 0.7375501 6.882211 -5.110445 2.998923 6.882211 -4.678073 5.260297 6.882211 -3.37545 7.52167 6.875586 0 8.922181 6.28974 0 8.922182 7.423748 0 -4.326994 5.808327 0 -3.785197 7.717306 0 7.52167 7.937904 0 5.260297 8.722649 2.50519e-7 2.998923 8.722649 2.50519e-7 0.7375506 8.722649 2.50519e-7 -1.523823 8.028292 0 7.521669 5.829163 0 5.260296 5.497341 0 2.998923 5.497341 0 0.7375506 5.497341 0 -1.523822 5.497341 0 -4.326995 6.882211 -1.2526e-7 8.922182 6.882211 -0.8041344 -3.403348 7.119763 -0.8041344 -6.742898 7.119763 -0.7429242 -3.403348 7.427492 -0.7429242 -6.742898 7.427492 -0.5686088 -3.403348 7.688372 -0.5686088 -6.742898 7.688372 -0.3077286 -3.403348 7.862686 -0.3077286 -6.742898 7.862686 0 -3.403348 7.923898 0 -6.742898 7.923898 0.3077282 -3.403348 7.862686 0.3077294 -6.742898 7.862686 0.5686084 -3.403348 7.688372 0.5686084 -6.742898 7.688372 0.7429236 -3.403348 7.427491 0.7429236 -6.742898 7.427491 0.8041338 -3.403348 7.119763 0.8041351 -6.742898 7.119763 0.7429236 -3.403348 6.812033 0.7429236 -6.742898 6.812033 0.5686083 -3.403348 6.551154 0.5686083 -6.742898 6.551154 0.3077281 -3.403348 6.376839 0.3077294 -6.742898 6.376839 0 -3.403348 6.315628 0 -6.742898 6.315628 -0.3077287 -3.403348 6.376839 -0.3077287 -6.742898 6.376839 -0.5686089 -3.403348 6.551154 -0.5686089 -6.742898 6.551154 -0.7429242 -3.403348 6.812034 -0.7429242 -6.742898 6.812034 0.5091419 -5.692597 7.119763 0.4703857 -5.692597 6.924922 0.3600176 -5.692597 6.759744 0.1948393 -5.692597 6.649376 -1.15069e-6 -5.692597 6.61062 -0.1948416 -5.692597 6.649376 -0.3600193 -5.692597 6.759744 -0.4703874 -5.692597 6.924922 -0.5091435 -5.692597 7.119763 -0.4703874 -5.692597 7.314603 -0.3600193 -5.692597 7.479781 -0.1948416 -5.692597 7.590149 -1.11105e-6 -5.692597 7.628905 0.1948394 -5.692597 7.590149 0.3600176 -5.692597 7.479781 0.4703858 -5.692597 7.314603 0.4703857 -16.73511 6.924922 0.5091419 -16.73511 7.119763 0.3600176 -16.73511 6.759744 0.1948393 -16.73511 6.649376 -1.15069e-6 -16.73511 6.61062 -0.1948416 -16.73511 6.649376 -0.3600193 -16.73511 6.759744 -0.4703874 -16.73511 6.924922 -0.5091435 -16.73511 7.119763 -0.4703874 -16.73511 7.314603 -0.3600193 -16.73511 7.479781 -0.1948416 -16.73511 7.590149 -1.11105e-6 -16.73511 7.628905 0.1948394 -16.73511 7.590149 0.3600176 -16.73511 7.479781 0.4703858 -16.73511 7.314603 0.2397367 -16.42668 7.698538 0 -16.42668 7.746224 0.4429758 -16.42668 7.562738 0.5787757 -16.42668 7.359498 0.6264623 -16.42668 7.119762 0.5787757 -16.42668 6.880025 0.4429758 -16.42668 6.676786 0.2397367 -16.42668 6.540986 0 -16.42668 6.493299 -0.2397367 -16.42668 6.540986 -0.4429758 -16.42668 6.676786 -0.5787757 -16.42668 6.880025 -0.6264623 -16.42668 7.119762 -0.5787757 -16.42668 7.359498 -0.4429758 -16.42668 7.562738 -0.2397367 -16.42668 7.698538 0.05936813 -18.7769 7.53336 0 -18.7769 7.542532 0.2249949 -18.7769 7.447412 0.3526121 -18.7769 7.29908 0.3985392 -18.7769 7.119762 0.3526121 -18.7769 6.940444 0.2249949 -18.7769 6.792112 0.05936819 -18.7769 6.706164 0 -18.7769 6.696992 -0.05936819 -18.7769 6.706164 -0.2249949 -18.7769 6.792112 -0.3526121 -18.7769 6.940444 -0.3985392 -18.7769 7.119762 -0.3526121 -18.7769 7.29908 -0.2249949 -18.7769 7.447412 -0.05936807 -18.7769 7.53336 0.2397367 -18.7769 7.698538 0 -18.7769 7.746224 0.4429758 -18.7769 7.562738 0.5787757 -18.7769 7.359498 0.6264623 -18.7769 7.119762 0.5787757 -18.7769 6.880025 0.4429758 -18.7769 6.676786 0.2397367 -18.7769 6.540986 0 -18.7769 6.493299 -0.2397367 -18.7769 6.540986 -0.4429758 -18.7769 6.676786 -0.5787757 -18.7769 6.880025 -0.6264623 -18.7769 7.119762 -0.5787757 -18.7769 7.359498 -0.4429758 -18.7769 7.562738 -0.2397367 -18.7769 7.698538 0.05936813 -16.61047 7.53336 0 -16.61047 7.542532 0.2249949 -16.61047 7.447412 0.3526121 -16.61047 7.29908 0.3985392 -16.61047 7.119762 0.3526121 -16.61047 6.940444 0.2249949 -16.61047 6.792112 0.05936819 -16.61047 6.706164 0 -16.61047 6.696992 -0.05936819 -16.61047 6.706164 -0.2249949 -16.61047 6.792112 -0.3526121 -16.61047 6.940444 -0.3985392 -16.61047 7.119762 -0.3526121 -16.61047 7.29908 -0.2249949 -16.61047 7.447412 -0.05936807 -16.61047 7.53336 -3.331368 -1.523823 8.028292 -3.823486 0.7375509 8.569081 2.50519e-7 0.7375506 8.569081 2.50519e-7 -1.523823 8.028292 -3.331368 -1.523823 8.025493 -3.160642 -1.302721 8.22885 -3.561355 0.5164492 8.75334 -3.823486 0.7375509 8.566282 -0.2115473 0.516449 8.75334 2.50519e-7 0.7375506 8.566268 2.50519e-7 -1.523823 8.02548 -0.2115473 -1.302721 8.22885 0.9135684 2.395777 8.979231 0.9888393 2.017365 8.979231 0.6992146 2.716579 8.979231 0.3784127 2.930932 8.979231 8.74202e-7 3.006203 8.979231 -0.3784117 2.930932 8.979231 -0.6992137 2.716579 8.979231 -0.9135673 2.395777 8.979231 -0.9888384 2.017365 8.979231 -0.9135673 1.638952 8.979231 -0.6992137 1.31815 8.979231 -0.3784117 1.103796 8.979231 8.74202e-7 1.028526 8.979231 0.3784127 1.103796 8.979231 0.6992146 1.31815 8.979231 0.9135684 1.638952 8.979231 1.092844 2.470036 8.712038 1.182886 2.017365 8.712038 0.8364263 2.85379 8.712038 0.4526712 3.110208 8.712038 9.27284e-7 3.20025 8.712038 -0.4526702 3.110208 8.712038 -0.8364254 2.85379 8.712038 -1.092843 2.470036 8.712038 -1.182885 2.017365 8.712038 -1.092843 1.564694 8.712038 -0.8364254 1.180938 8.712038 -0.4526702 0.9245206 8.712038 9.27284e-7 0.8344787 8.712038 0.4526712 0.9245206 8.712038 0.8364263 1.180938 8.712038 1.092844 1.564694 8.712038 -2.354698 4.167914 8.765 -2.354698 4.091307 8.765 -2.442498 4.167914 8.765 -2.442498 4.091307 8.765 -2.290216 4.224176 11.2039 -2.290216 4.035044 11.2039 -2.50698 4.224176 11.2039 -2.50698 4.035044 11.2039 -2.354698 4.091307 9.577967 -2.290216 4.035044 10.39093 -2.50698 4.035044 10.39093 -2.442498 4.091307 9.577967 -2.354698 4.167914 9.577967 -2.290216 4.224176 10.39093 -2.442498 4.167914 9.577967 -2.50698 4.224176 10.39093 -2.364084 5.265079 8.595785 -2.364084 5.20485 8.595785 -2.433113 5.265079 8.595785 -2.433113 5.20485 8.595785 -2.313388 5.309312 10.51325 -2.313388 5.160617 10.51325 -2.483808 5.309312 10.51325 -2.483808 5.160617 10.51325 -2.364084 5.20485 9.234941 -2.313388 5.160617 9.874097 -2.483808 5.160617 9.874097 -2.433113 5.20485 9.234941 -2.364084 5.265079 9.234941 -2.313388 5.309312 9.874097 -2.433113 5.265079 9.234941 -2.483808 5.309312 9.874097 1.990081 -3.386537 7.119763 1.980432 -3.386537 7.071253 1.952953 -3.386537 7.030129 1.911829 -3.386537 7.002651 1.863319 -3.386537 6.993002 1.81481 -3.386537 7.002651 1.773686 -3.386537 7.030129 1.746207 -3.386537 7.071253 1.736558 -3.386537 7.119763 1.746207 -3.386537 7.168272 1.773686 -3.386537 7.209397 1.81481 -3.386537 7.236875 1.863319 -3.386537 7.246525 1.911829 -3.386537 7.236875 1.952953 -3.386537 7.209397 1.980432 -3.386537 7.168272 1.980432 -6.13579 7.071253 1.990081 -6.13579 7.119763 1.952953 -6.13579 7.030129 1.911829 -6.13579 7.002651 1.863319 -6.13579 6.993002 1.81481 -6.13579 7.002651 1.773686 -6.13579 7.030129 1.746207 -6.13579 7.071253 1.736558 -6.13579 7.119763 1.746207 -6.13579 7.168272 1.773686 -6.13579 7.209397 1.81481 -6.13579 7.236875 1.863319 -6.13579 7.246525 1.911829 -6.13579 7.236875 1.952953 -6.13579 7.209397 1.980432 -6.13579 7.168272</float_array>
          <technique_common>
            <accessor source="#Cube_006-mesh-positions-array" count="294" stride="3">
              <param name="X" type="float"/>
              <param name="Y" type="float"/>
              <param name="Z" type="float"/>
            </accessor>
          </technique_common>
        </source>
        <source id="Cube_006-mesh-normals">
          <float_array id="Cube_006-mesh-normals-array" count="1419">-0.5603668 0.6337953 0.5331911 -0.5332694 0.7490144 0.3931937 -0.6161274 0.5528755 0.5609954 0 1 -1.1704e-6 0 1 -1.17557e-6 0 1 -2.16041e-6 0.5611708 -0.3465986 0.7516362 0.5199422 -0.3481907 0.7800149 0.6196119 -0.3082644 0.7218409 0 -0.8389085 0.5442726 0 -0.8389084 0.5442727 0 -0.8389084 0.5442727 0 -0.05521792 -0.9984744 0 -0.1102643 -0.9939023 0 -0.1102643 -0.9939023 0 -0.2155802 0.9764862 -3.02956e-7 -0.1362386 0.9906761 0 -0.1362386 0.9906761 0 0.34463 0.9387387 0 0.3362493 0.941773 0 0.34463 0.9387387 0 0.3326346 0.9430559 0 0.1662388 0.9860855 0 0.1381421 0.9904125 1.23551e-7 0 1 0 0 1 0 -0.1484075 0.9889264 -3.10761e-7 -0.2337972 0.9722854 0 0.3124041 -0.9499494 0 0.2296419 -0.9732752 0 0.3124042 -0.9499494 0 0.1852769 -0.9826865 0 0.0727843 -0.9973478 0 0.0562784 -0.9984151 0 0 -1 0 0 -1 0 0 -1 0 -0.04094266 -0.9991615 0.5332699 0.7490136 0.3931946 0.5603667 0.6337945 0.533192 0.616127 0.5528751 0.5609962 0.7454995 0.2753426 0.6069737 0.7535526 0.251052 0.6075618 0.7620463 0.1109121 0.6379529 0.7456322 0.1294266 0.6536678 0.7159908 -0.07481884 0.6940889 0.7325927 -0.04044032 0.6794649 -0.519942 -0.3481906 0.7800152 -0.5611708 -0.3465985 0.7516361 -0.6196119 -0.3082642 0.7218409 -0.7159907 -0.07481878 0.694089 -0.7325926 -0.04044044 0.679465 -0.7456321 0.1294267 0.6536678 -0.7620463 0.1109122 0.6379531 -0.7535529 0.2510519 0.6075617 -0.7454996 0.2753425 0.6069736 -0.8943439 0.3272333 -0.3050698 -0.7223938 0.6488571 -0.2390227 -0.6989877 0.6793334 -0.2234334 -0.9257109 0.1627945 -0.3414049 -0.8960679 0.3146562 -0.3131355 -0.9298586 -0.05817162 -0.3632894 -0.9213701 0.1677688 -0.350615 -0.8738759 -0.3678864 -0.317806 -0.8744425 -0.378071 -0.3039947 -0.8390787 -0.4760463 -0.2633005 -0.843858 -0.4730468 -0.2532404 0.9298585 -0.05817162 -0.3632895 0.8738759 -0.3678863 -0.3178061 0.8744425 -0.3780708 -0.3039948 0.9213701 0.1677685 -0.350615 0.9257108 0.1627945 -0.3414052 0.8960679 0.3146561 -0.3131356 0.8943437 0.3272336 -0.3050699 0.7223937 0.6488569 -0.2390231 0.6989876 0.6793333 -0.2234339 0.5456947 0.8287635 -0.1239701 0.5525845 0.8263723 -0.1084401 0 -1 -6.40508e-7 0 -1 -7.97622e-7 0 -1 -6.2293e-7 0.8390787 -0.4760462 -0.2633004 0.8438579 -0.473047 -0.2532403 0 1 -2.22652e-6 0 1 -2.68961e-7 -0.545695 0.8287633 -0.1239697 -0.5525848 0.8263721 -0.1084401 0 1 -2.13844e-6 0 -1 -5.71905e-7 0 -0.04094266 -0.9991616 0 0 -1 0 0 -1 0 0.05627834 -0.9984151 0 0.1852769 -0.9826865 0 -0.2337971 0.9722854 0 -0.1443137 0.989532 0 0 1 0 0.1381421 0.9904125 0 0.3326346 0.9430559 0 0.3446297 0.9387387 0 -0.1362386 0.9906761 0 -0.1102643 -0.9939023 0 -0.8389084 0.5442726 0 1 -3.00906e-7 0 1 -1.634e-6 -1 0 1.30574e-6 -0.9238803 0 0.3826819 -1 0 -9.57543e-7 -0.9238789 0 0.3826852 -0.7071076 0 0.7071061 -0.7071041 0 0.7071096 -0.3826857 0 0.9238787 -0.3826835 0 0.9238796 5.41641e-7 0 1 -5.60985e-7 0 1 0.3826836 0 0.9238796 0.3826864 0 0.9238783 0.707105 0 0.7071086 0.7071085 0 0.7071051 0.9238792 0 0.3826843 0.9238796 1.90896e-7 0.3826834 1 2.15099e-7 2.12787e-6 1 2.151e-7 -8.22134e-7 0.9238796 1.90896e-7 -0.3826833 0.9238783 0 -0.3826867 0.7071063 0 -0.7071073 0.7071059 0 -0.7071078 0.3826859 0 -0.9238786 0.3826858 0 -0.9238787 -1.93443e-7 0 -1 1.74099e-7 0 -1 -0.3826848 0 -0.923879 -0.3826856 0 -0.9238786 -0.7071052 0 -0.7071084 0 -1 -7.55896e-7 0 -1 -1.42108e-6 0 -1 3.3785e-7 -0.7071069 0 -0.7071067 -0.923879 0 -0.3826846 -0.9238799 0 -0.3826826 0 1 -1.27669e-6 0 1 1.15618e-6 0 1 -1.2998e-6 0 -1 -2.25478e-6 0 -1 -1.12743e-6 0 -1 2.25498e-6 0.3826878 0 0.9238778 0.7071031 0 0.7071105 0.707108 0 0.7071056 -0.7071081 0 -0.7071056 -0.9238791 0 -0.3826845 -0.9238809 0 -0.3826802 0.9238786 0 0.3826857 0.92388 0 0.3826826 -1 0 -1.13164e-6 -1 0 1.02525e-6 1 0 -1.16066e-6 0.923881 0 -0.3826801 0.9238791 0 -0.3826847 1 0 1.03492e-6 -0.92388 0 0.3826826 -0.9238786 0 0.3826858 0.7071074 0 -0.7071062 0.7071065 0 -0.7071071 -0.7071087 0 0.7071049 -0.7071037 0 0.7071099 0.382682 0 -0.9238801 0.3826795 0 -0.9238812 -0.3826886 0 0.9238774 -0.3826808 0 0.9238806 4.46854e-6 0 -1 -4.43952e-6 0 -1 -4.45887e-6 0 1 4.4492e-6 0 1 -0.3826804 0 -0.9238808 -0.3826829 0 -0.9238798 0.3826801 0 0.923881 -0.7071073 0 -0.7071064 0 1 3.39709e-6 0 1 4.32026e-6 0 1 -3.35418e-6 -0.3107392 0 0.9504953 -1.17106e-6 0 1 1.08947e-6 0 1 -1 0 1.65394e-6 -0.923881 0 0.38268 -0.9238794 0 0.3826838 0.9238787 0 -0.3826855 0.7071086 0 -0.707105 0.7071052 0 -0.7071084 -0.707108 0 0.7071056 -0.7071073 0 0.7071063 0.3826853 0 -0.9238789 0.3826822 0 -0.9238801 -0.3826814 0 0.9238804 -0.382682 0 0.9238802 1.05427e-6 0 -1 -1.1123e-6 0 -1 9.57544e-7 0 1 0.3826819 0 0.9238802 0.3826814 0 0.9238803 -1.06394e-6 0 1 -0.3826821 0 -0.9238801 -0.3826854 0 -0.9238788 0.7071071 0 0.7071065 0.7071082 0 0.7071054 -0.707105 0 -0.7071086 -0.7071088 0 -0.7071048 0.9238794 0 0.3826841 0.9238811 0 0.3826797 -0.9238786 0 -0.3826858 -0.9238803 0 -0.3826814 1 0 1.65394e-6 1 0 -1.65394e-6 -1 0 -1.65394e-6 0.9238802 0 -0.3826817 0 -1 -3.25048e-6 0 -1 -5.98478e-6 0 -1 9.85786e-6 0 -1 0 0 -1 -6.75009e-6 0 -1 0 0 -1 2.66996e-6 0 -1 -2.66995e-6 0 -1 0 0 -1 -3.91535e-6 0 -1 -3.63369e-6 0 -1 -3.11931e-6 0 -1 3.51779e-6 0 -1 -4.65058e-6 0 -1 -2.83624e-6 0 -1 -4.35112e-6 -1.53101e-5 0 -1 -0.310734 0 -0.9504969 -0.3107467 0 -0.9504929 0.3107347 0 -0.9504967 1.54637e-5 0 -1 0.3107389 0 0.9504954 0.3107434 0 0.9504939 -0.6205952 0 -0.7841312 -0.6205942 0 -0.7841319 0.6205917 0 0.7841339 0.6205962 0 0.7841303 -0.8867169 0 -0.4623129 -0.8867185 0 -0.4623098 0.8867156 0 0.4623154 0.8867181 0 0.4623107 -1 0 -2.97692e-6 -1 0 2.37958e-6 1 0 2.3502e-6 1 0 -3.0063e-6 -0.8867176 0 0.4623115 -0.886716 0 0.4623146 0.886718 0 -0.4623107 0.8867173 0 -0.4623121 -0.6205955 0 0.7841311 -0.6205925 0 0.7841332 0.6205932 0 -0.7841327 0.6205963 0 -0.7841303 -0.3107432 0 0.950494 0.3107463 0 -0.950493 0 0.2325835 -0.9725765 1.96917e-7 0.2325835 -0.9725765 4.29094e-7 0.2325835 -0.9725764 0 1 0 0 1 0 0 1 0 -1 0 0 -1 0 0 -1 0 0 0 -1 0 0 -1 0 0 -1 0 -1.92603e-7 -0.2770289 0.9608616 -1.82482e-7 -0.506348 0.8623293 1.22383e-6 -0.5232524 0.8521777 -0.5524495 -0.3076056 0.7747119 -0.6976977 -0.3316844 0.6349831 -0.5395912 -0.3050814 0.784708 3.08848e-6 0.6458894 0.7634311 2.76268e-7 0.6459117 0.7634121 3.20107e-6 0.6458885 0.7634318 0 -0.6769551 0.7360244 0.581848 -0.1910672 0.7905354 0.7327678 -0.1843082 0.6550434 0.7515389 -0.1827529 0.6338696 0.9771528 0.2125383 0 0.9770961 0.2127983 0 0.9770962 0.2127985 0 -2.98884e-7 0 1 -1.97045e-7 0 1 0 0 1 -0.8091327 0 0.587626 -0.7475417 -0.3096401 0.587626 -0.7475402 -0.3096447 0.5876256 0.7475402 0.3096426 0.5876266 0.5721427 0.5721437 0.5876261 0.5721432 0.5721442 0.5876251 -0.5721437 -0.5721429 0.5876258 -0.5721434 -0.572143 0.5876261 0.3096454 0.747539 0.5876269 0.3096401 0.7475408 0.5876273 -0.3096452 -0.7475396 0.5876261 -0.309641 -0.7475415 0.587626 1.4997e-7 0.8091322 0.5876268 2.38428e-7 0.8091323 0.5876267 1.43255e-7 -0.8091325 0.5876265 1.6068e-7 -0.8091323 0.5876266 -0.3096401 0.7475411 0.5876269 -0.3096453 0.7475394 0.5876263 0.3096411 -0.7475413 0.5876261 0.3096454 -0.7475395 0.5876262 -0.5721428 0.5721436 0.5876261 -0.5721433 0.5721439 0.5876253 0.5721437 -0.572143 0.5876257 0.5721434 -0.5721433 0.5876258 -0.7475396 0.3096452 0.587626 -0.7475411 0.3096406 0.5876267 0.7475407 -0.309642 0.5876264 0.7475404 -0.3096422 0.5876267 -0.8091323 0 0.5876265 0.8091323 0 0.5876266 0.74754 0.3096429 0.5876268 0.8091323 0 0.5876265 0 0 -1 0 0 1 0 -0.9994336 -0.03365153 0 -0.9994338 -0.03365021 0.9992517 0 -0.03867924 1 0 0 0.9992518 0 -0.03867924 0 0.9994336 -0.03365111 0 1 0 0 0.9994336 -0.03365111 -0.9992517 0 -0.03867954 -0.9992518 0 -0.03867822 -0.9991832 0 -0.04041242 -0.9991831 0 -0.04041308 0 0.9993737 -0.03538674 0.9991831 0 -0.0404129 0 -0.9993737 -0.03538811 0 -0.9993736 -0.03538823 0 -0.9994336 -0.03365141 0 -0.9994337 -0.03364986 0.9992517 0 -0.03867959 0.9992518 0 -0.03867834 0 0.9994336 -0.0336517 0 0.9994336 -0.0336517 -0.9992517 0 -0.03867846 -0.9992518 0 -0.03867834 -0.9991831 0 -0.04041367 0 0.9993737 -0.03538805 0.9991831 0 -0.04041349 0.9991831 0 -0.04041403 0 -0.9993738 -0.03538578 0 -0.9993738 -0.03538626 0 1 7.98405e-7 0 1 2.29991e-7 0 -1 -1.72829e-6 0 -1 5.68388e-7 0.3826978 0 0.9238737 0.7070994 0 0.7071142 0.7071143 0 0.7070994 -0.7071085 0 -0.7071052 -0.9238782 0 -0.3826869 -0.9238789 0 -0.3826852 0.923878 0 0.3826873 0.9238827 0 0.382676 -1 0 -2.0505e-6 -1 0 2.44706e-6 1 0 -8.60824e-7 0.9238798 0 -0.3826832 0.923879 0 -0.3826849 1 0 3.60772e-6 -0.9238819 0 0.3826779 -0.9238772 0 0.3826892 0.7071088 0 -0.7071048 0.7070994 0 -0.7071142 -0.7071133 0 0.7071003 -0.7070984 0 0.7071152 0.3826851 0 -0.9238789 0.3826853 0 -0.9238788 -0.3826986 0 0.9238733 -0.3826737 0 0.9238837 -1.29511e-5 0 -1 1.24675e-5 0 -1 -1.47114e-5 0 1 1.42375e-5 0 1 -0.3826861 0 -0.9238784 -0.3826858 0 -0.9238786 0.382673 0 0.9238839 -0.7070991 0 -0.7071145 -0.5570062 0.7467516 0.3634642 0 1 -1.65127e-6 0.4855552 -0.3541262 0.799269 -4.15869e-7 -0.1443137 0.989532 0 0 -1 0.557007 0.7467507 0.3634646 -0.4855546 -0.3541261 0.7992693 -0.925384 -0.05319607 -0.3752794 0.9253841 -0.05319631 -0.3752794 0 -1 -8.39507e-7 0 -1 -5.59671e-7 0 -1 7.62997e-7 0 -1 -1.09197e-6 0 -1 -7.61232e-6 0 -1 3.67526e-6 0 -1 -6.32863e-6 0 -1 -1.58215e-6 0 -1 0 0 -1 -3.82928e-7 0 -1 -1.26573e-5 0 -1 -9.03927e-7 0 1 0 0 1 -2.36798e-5 0 1 -1.69111e-6 0 1 5.14314e-6 0 1 5.14765e-6 0 1 7.91893e-7 0 1 -5.14315e-6 0 -1 -1.1274e-6 0 -1 -1.57866e-5 0 -1 2.25481e-6 0 -1 3.15734e-5 0 -1 2.25475e-6 0 -1 3.1573e-5 0 -1 0 0 -1 -3.15731e-5 0 1 -2.6217e-6 0 1 -2.08549e-5 0 1 -1.48936e-6 0 1 1.35887e-5 0 1 1.48936e-6 0 1 2.0855e-5 0 1 5.74821e-6 0 1 -6.80028e-6 0 1 -1.35887e-5 -2.48853e-7 0.2325835 -0.9725764 0 1 0 -1 0 0 0 -1 0 0 -0.2770289 0.9608616 -0.7177822 -0.3342118 0.610812 0 0.6459139 0.7634103 2.38235e-6 -0.676976 0.7360052 0.5689815 -0.1912651 0.7997987 0.9771528 0.2125381 0 8.37041e-6 0 1 -1.71943e-6 0 1 -4.18524e-6 0 1 3.60335e-7 0 1 4.18525e-6 0 1 0 0 1 -8.37042e-6 0 1 8.37043e-6 0 1 2.98895e-7 0 1 -4.18519e-6 0 1 0 0 1 4.18521e-6 0 1 -8.3704e-6 0 1 0 0.9993737 -0.03538656 0.9991832 0 -0.04041266 -0.9991831 0 -0.04041373 0 0.9993737 -0.03538805 0 1 1.59691e-6 0 1 9.81219e-6 0 1 -7.95862e-6 0 1 1.59689e-6 0 1 1.03805e-5 0 -1 7.95887e-6 0 -1 5.68378e-7 0 -1 -5.18585e-6 0 -1 -2.07431e-5</float_array>
          <technique_common>
            <accessor source="#Cube_006-mesh-normals-array" count="473" stride="3">
              <param name="X" type="float"/>
              <param name="Y" type="float"/>
              <param name="Z" type="float"/>
            </accessor>
          </technique_common>
        </source>
        <source id="Cube_006-mesh-map-0">
          <float_array id="Cube_006-mesh-map-0-array" count="3060">0.48777 0.5974009 0.5301943 0.5555815 0.48777 0.5552625 0.4485731 0.5371657 0.4000002 0.5805732 0.3783153 0.5371657 0.3062326 0.6108088 0.2499746 0.5555815 0.3062326 0.5555815 0.2738041 0.5802423 0.2500661 0.5983128 0.2394683 0.5802423 0.25 0.7083333 0.375 0.75 0.25 0.75 0.5060855 0.7988094 0.5358942 0.7409679 0.5358942 0.7988094 0.3589863 0.7779421 0.3868508 0.7988094 0.3589863 0.7988094 0.3868508 0.7372872 0.4166594 0.7988094 0.3868508 0.7988094 0.4166594 0.7135452 0.4464681 0.7988094 0.4166594 0.7988094 0.4464681 0.7056647 0.4762769 0.7988094 0.4464681 0.7988094 0.4762769 0.7988094 0.5060855 0.7109833 0.5060855 0.7988094 0.375 0.5 0.25 0.5416666 0.25 0.5 0.375 0.5416666 0.25 0.5833333 0.25 0.5416666 0.375 0.5833333 0.25 0.625 0.25 0.5833333 0.375 0.625 0.25 0.6666666 0.25 0.625 0.25 0.6666666 0.375 0.7083333 0.25 0.7083333 0.5301943 0.5555815 0.48777 0.5974009 0.48777 0.5552625 0.48777 0.5552625 0.4423854 0.6368681 0.4423854 0.5555815 0.4423854 0.5555815 0.3970011 0.6368681 0.3970011 0.5555815 0.3970011 0.5555815 0.3516167 0.6368681 0.3516167 0.5555815 0.3516167 0.6368681 0.3062326 0.5555815 0.3516167 0.5555815 0.2499746 0.5555815 0.3062326 0.6108088 0.3062326 0.5555815 0.3062326 0.5555815 0.3516167 0.6368681 0.3516167 0.5555815 0.4423854 0.6368681 0.3970011 0.5555815 0.4423854 0.5555815 0.3970011 0.6368681 0.3516167 0.5555815 0.3970011 0.5555815 0.4423854 0.6368681 0.48777 0.5552625 0.4423854 0.5555815 0.4993736 0.8043464 0.5447 0.8546466 0.5447 0.8164565 0.4540472 0.8043464 0.4993736 0.8548884 0.4993736 0.8043464 0.4087208 0.8043464 0.4540472 0.8548884 0.4540472 0.8043464 0.3633946 0.8548884 0.4087208 0.8043464 0.3633946 0.8043464 0.3072084 0.8548884 0.3633946 0.8043464 0.3072084 0.8156961 0.4087208 0.8043464 0.3633946 0.8548884 0.3633946 0.8043464 0.4540472 0.8548884 0.4087208 0.8043464 0.4540472 0.8043464 0.4993736 0.8548884 0.4540472 0.8043464 0.4993736 0.8043464 0.5447 0.8546466 0.4993736 0.8043464 0.5447 0.8164565 0.5000001 0.5000001 0.375 0.5416666 0.375 0.5 0.2738041 0.5802423 0.2429552 0.5570045 0.2738041 0.5570045 0.3633946 0.8043464 0.3072084 0.8548884 0.3072084 0.8156961 0.4485731 0.5371657 0.3854498 0.4644504 0.4485731 0.4644504 0.375 0.2083333 0.5000001 0.25 0.375 0.25 0.511696 0.4644504 0.4485731 0.5371657 0.4485731 0.4644504 0.304653 0.5570045 0.2738041 0.5802423 0.2738041 0.5570045 0.25 0.6666666 0.125 0.7083333 0.125 0.6666666 0.125 0.625 0.25 0.6666666 0.125 0.6666666 0.125 0.5833333 0.25 0.625 0.125 0.625 0.125 0.5416666 0.25 0.5833333 0.125 0.5833333 0.125 0.5 0.25 0.5416666 0.125 0.5416666 0.4762769 0.7976222 0.5060855 0.7097963 0.4762769 0.6968223 0.4464682 0.7044775 0.4762769 0.7976222 0.4762769 0.6968223 0.4166595 0.7123581 0.4464681 0.7976222 0.4464682 0.7044775 0.3868508 0.7361001 0.4166594 0.7976222 0.4166595 0.7123581 0.3589863 0.7767549 0.3868508 0.7976222 0.3868508 0.7361001 0.5060855 0.7976222 0.5358942 0.7397807 0.5060855 0.7097963 0.25 0.7083333 0.125 0.75 0.125 0.7083333 0.2975421 0.5983128 0.2738041 0.5802423 0.3081398 0.5802423 0.4971457 0.5805732 0.4485731 0.5371657 0.5188305 0.5371657 0.8116856 0.4605329 0.8206122 0.4834584 0.8116856 0.4834584 0.7834428 0.4986624 0.8434591 0.4922473 0.8434591 0.4986624 0.7834428 0.4922473 0.8434591 0.4826464 0.8434591 0.4922473 0.7834428 0.4826464 0.8434591 0.4713214 0.8434591 0.4826464 0.7834428 0.4713214 0.8434591 0.4599964 0.8434591 0.4713214 0.7834428 0.4599964 0.8434591 0.4503955 0.8434591 0.4599964 0.7834428 0.4503955 0.8434591 0.4439804 0.8434591 0.4503955 0.8206122 0.4605329 0.8116856 0.4834584 0.8206122 0.4834584 0.8116856 0.4605329 0.8027592 0.4834584 0.8116856 0.4834584 0.7834428 0.4439803 0.8434591 0.4503955 0.8434591 0.4439804 0.7834428 0.4503955 0.8434591 0.4599964 0.8434591 0.4503955 0.7834428 0.4599964 0.8434591 0.4713214 0.8434591 0.4599964 0.7834428 0.4713214 0.8434591 0.4826464 0.8434591 0.4713214 0.7834428 0.4826464 0.8434591 0.4922473 0.8434591 0.4826464 0.7951918 0.4503955 0.8281798 0.4503955 0.8281798 0.4922473 0.7834428 0.4922473 0.8434591 0.4986624 0.8434591 0.4922473 0.8027592 0.4605329 0.8116856 0.4834584 0.8027592 0.4834584 0.6426209 0.4751968 0.6314322 0.4457612 0.6202434 0.4751968 0.8790521 0.08752107 0.8562828 0.08752107 0.8562828 0.04589271 0.7066031 0.4864614 0.5562613 0.4960111 0.7066031 0.4960111 0.7066031 0.4543827 0.5562613 0.4480018 0.7066031 0.4480018 0.7066031 0.4960111 0.5562613 0.5023919 0.7066031 0.5023919 0.635714 0.5347402 0.6314322 0.4156536 0.6314322 0.5347402 0.6314322 0.5347402 0.635714 0.4156536 0.635714 0.5347402 0.6271505 0.5347402 0.6314322 0.4156536 0.6314322 0.5347402 0.6314322 0.5347402 0.6271505 0.4156536 0.6271505 0.5347402 0.7066031 0.5023919 0.5562613 0.4960111 0.7066031 0.4960111 0.7066031 0.4480018 0.5562613 0.4543827 0.7066031 0.4543827 0.7066031 0.4960111 0.5562613 0.4864614 0.7066031 0.4864614 0.7066031 0.4543827 0.5562613 0.4639323 0.7066031 0.4639323 0.7066031 0.4864614 0.5562613 0.4751968 0.7066031 0.4751968 0.7066031 0.4639323 0.5562613 0.4751968 0.7066031 0.4751968 0.7066031 0.4751968 0.5562613 0.4639323 0.7066031 0.4639323 0.7066031 0.4751968 0.5562613 0.4864614 0.7066031 0.4864614 0.7066031 0.4639323 0.5562613 0.4543827 0.7066031 0.4543827 0.9448692 0.5459154 0.9700561 0.572914 0.995243 0.5459154 0.9676692 0.5522292 0.9700561 0.5348131 0.9700561 0.5522292 0.9310783 0.5459154 0.9896187 0.5355835 0.9310783 0.5355835 0.9310783 0.5562474 0.9896187 0.5650063 0.9310783 0.5650063 0.9310783 0.5355835 0.9896187 0.5268246 0.9310783 0.5268246 0.9310783 0.5650063 0.9896187 0.5708588 0.9310783 0.5708588 0.9310783 0.5268246 0.9896187 0.5209721 0.9310783 0.5209721 0.9604173 0.5333356 0.9700561 0.5522292 0.9700561 0.5333356 0.9700561 0.5333356 0.9604173 0.5522292 0.9604173 0.5333356 0.9796946 0.5333356 0.9700561 0.5522292 0.9700561 0.5333356 0.9700561 0.5333356 0.9796946 0.5522292 0.9796946 0.5333356 0.9310783 0.5209721 0.9896187 0.5268246 0.9310783 0.5268246 0.9310783 0.5708588 0.9896187 0.5650063 0.9310783 0.5650063 0.9310783 0.5268246 0.9896187 0.5355835 0.9310783 0.5355835 0.9310783 0.5650063 0.9896187 0.5562474 0.9310783 0.5562474 0.9310783 0.5355835 0.9896187 0.5459154 0.9310783 0.5459154 0.9310783 0.5562474 0.9896187 0.5459154 0.9310783 0.5459154 0.9310783 0.5459154 0.9896187 0.5562474 0.9310783 0.5562474 0.8830367 0.536051 0.8840202 0.5293785 0.8840202 0.5357635 0.8802931 0.5387452 0.8800488 0.5308733 0.8830367 0.536051 0.878179 0.5433948 0.8766821 0.5351302 0.8802931 0.5387452 0.8774182 0.5490158 0.8744325 0.5415009 0.878179 0.5433948 0.8774182 0.5490158 0.8744325 0.5565307 0.8736426 0.5490158 0.878179 0.5546368 0.8766821 0.5629015 0.8744325 0.5565307 0.8802931 0.5592865 0.8800488 0.5671584 0.8766821 0.5629015 0.8830367 0.5619807 0.8840202 0.5686532 0.8800488 0.5671584 0.8850036 0.5619807 0.8840202 0.5686532 0.8840202 0.5622681 0.8877473 0.5592865 0.8879915 0.5671584 0.8850036 0.5619807 0.8898614 0.5546368 0.8913583 0.5629015 0.8877473 0.5592865 0.8906221 0.5490158 0.8936077 0.5565307 0.8898614 0.5546368 0.8906221 0.5490158 0.8936077 0.5415009 0.8943977 0.5490158 0.8898614 0.5433948 0.8913583 0.5351302 0.8936077 0.5415009 0.8877473 0.5387452 0.8879915 0.5308733 0.8913583 0.5351302 0.8850036 0.536051 0.8840202 0.5293785 0.8879915 0.5308733 0.9700561 0.5522292 0.9676692 0.5348131 0.9676692 0.5522292 0.9724429 0.5522292 0.9700561 0.5348131 0.9700561 0.5522292 0.9700561 0.5522292 0.9724429 0.5348131 0.9724429 0.5522292 0.9896187 0.5280906 0.935656 0.5317948 0.9896187 0.5317948 0.9896187 0.5637403 0.935656 0.5600361 0.9896187 0.5600361 0.9896187 0.5317948 0.935656 0.5381873 0.9896187 0.5381873 0.9896187 0.5600361 0.935656 0.5536435 0.9896187 0.5536435 0.9896187 0.5381873 0.935656 0.5459154 0.9896187 0.5459154 0.9896187 0.5536435 0.935656 0.5459154 0.9896187 0.5459154 0.9896187 0.5459154 0.935656 0.5536435 0.9896187 0.5536435 0.9896187 0.5459154 0.935656 0.5381873 0.9896187 0.5381873 0.9896187 0.5536435 0.935656 0.5600361 0.9896187 0.5600361 0.9896187 0.5381873 0.935656 0.5317948 0.9896187 0.5317948 0.9896187 0.5600361 0.935656 0.5637403 0.9896187 0.5637403 0.9896187 0.5317948 0.935656 0.5280906 0.9896187 0.5280906 0.4762769 0.7988094 0.5060855 0.7109833 0.4762769 0.6980095 0.5060855 0.7988094 0.5060856 0.7109833 0.5060855 0.7109833 0.5060855 0.7988094 0.4762768 0.7988093 0.5060855 0.7988093 0.4762769 0.6980095 0.4762768 0.7988093 0.4762769 0.7988094 0.4822373 0.8029117 0.4134949 0.6952403 0.4822373 0.6952403 0.5033172 0.7154842 0.4762769 0.6980095 0.5060856 0.7109833 0.4790452 0.7049201 0.4762768 0.7988093 0.4762769 0.6980095 0.5060856 0.7109833 0.5033172 0.7932322 0.5033172 0.7154842 0.5033172 0.7932322 0.4762768 0.7988093 0.4790452 0.7932323 0.5060855 0.7109833 0.4762769 0.6980095 0.4762769 0.6980095 0.8296667 0.6824413 0.8536949 0.6983998 0.8536949 0.5894289 0.5922367 0.7148756 0.5777761 0.7192613 0.5777761 0.7192613 0.6066973 0.8257191 0.6189563 0.8132298 0.6189563 0.8132298 0.5777761 0.7192613 0.5655171 0.7317506 0.5655171 0.7317506 0.6271476 0.7945383 0.6189563 0.8132298 0.6271476 0.7945383 0.5573258 0.7504421 0.5655171 0.7317506 0.5573258 0.7504421 0.630024 0.7724902 0.6271476 0.7945383 0.630024 0.7724902 0.5544494 0.7724902 0.5573258 0.7504421 0.5544494 0.7724902 0.630024 0.7724902 0.6271476 0.7504421 0.6271476 0.7504421 0.5544494 0.7724902 0.5573258 0.7945383 0.5573258 0.7945383 0.6271476 0.7504421 0.6189563 0.7317506 0.6189563 0.7317506 0.5573258 0.7945383 0.5655171 0.8132298 0.5655171 0.8132298 0.6066973 0.7192613 0.6189563 0.7317506 0.6066973 0.7192613 0.5777761 0.8257191 0.5655171 0.8132298 0.5777761 0.8257191 0.5922367 0.7148756 0.6066973 0.7192613 0.5922367 0.7148756 0.6066973 0.8257191 0.5922367 0.8301048 0.6066973 0.8257191 0.5777761 0.8257191 0.5922367 0.8301048 0.5922367 0.8301048 0.3133434 0.422594 0.3267671 0.4088425 0.3133434 0.4088425 0.3267671 0.4088425 0.3133434 0.422594 0.3133434 0.4088425 0.3810726 0.4088425 0.5031072 0.422594 0.3810725 0.422594 0.3810726 0.409719 0.5031072 0.4217175 0.3810726 0.4217175 0.3810726 0.422594 0.5031072 0.4088425 0.3810726 0.4088425 0.3810725 0.4217175 0.5031072 0.409719 0.3810726 0.409719 0.1370033 0.4217175 0.2590379 0.409719 0.1370033 0.409719 0.2590379 0.4217175 0.3810726 0.409719 0.2590379 0.409719 0.1370033 0.422594 0.2590379 0.4088425 0.1370033 0.4088425 0.2590379 0.4088425 0.3810726 0.422594 0.3810726 0.4088425 0.1370033 0.409719 0.2590379 0.4217175 0.1370033 0.4217175 0.2590379 0.4217175 0.3810726 0.409719 0.3810726 0.4217175 0.1370033 0.4088425 0.2590379 0.422594 0.1370033 0.422594 0.2590379 0.4088425 0.3810725 0.422594 0.2590379 0.422594 0.3133434 0.422594 0.3267671 0.4088425 0.3133434 0.4088425 0.3267671 0.4088425 0.3133434 0.422594 0.3133434 0.4088425 0.3810726 0.4088425 0.5031072 0.422594 0.3810725 0.422594 0.3810726 0.409719 0.5031072 0.4217175 0.3810726 0.4217175 0.3810726 0.422594 0.5031072 0.4088425 0.3810726 0.4088425 0.3810725 0.4217175 0.5031072 0.409719 0.3810726 0.409719 0.1370033 0.4217175 0.2590379 0.409719 0.1370033 0.409719 0.2590379 0.409719 0.3810725 0.4217175 0.3810726 0.409719 0.1370033 0.422594 0.2590379 0.4088425 0.1370033 0.4088425 0.2590379 0.4088425 0.3810726 0.422594 0.3810726 0.4088425 0.1370033 0.409719 0.2590379 0.4217175 0.1370033 0.4217175 0.2590379 0.409719 0.3810726 0.4217175 0.2590379 0.4217175 0.1370033 0.4088425 0.2590379 0.422594 0.1370033 0.422594 0.2590379 0.4088425 0.3810725 0.422594 0.2590379 0.422594 0.4536978 0.7741639 0.4648866 0.7447281 0.4536978 0.7152924 0.2683922 0.5146427 0.2911615 0.5146427 0.2911615 0.5562711 0.5288687 0.7559927 0.3785269 0.7655423 0.5288687 0.7655423 0.5288687 0.7239139 0.3785269 0.7175331 0.5288687 0.7175331 0.5288687 0.7655423 0.3785269 0.7719232 0.5288687 0.7719232 0.4579796 0.8042713 0.4536978 0.6851848 0.4536978 0.8042713 0.4536978 0.8042713 0.4579796 0.6851848 0.4579796 0.8042713 0.4494162 0.8042713 0.4536978 0.6851848 0.4536978 0.8042713 0.4536978 0.8042713 0.4494162 0.6851848 0.4494162 0.8042713 0.5288687 0.7719232 0.3785269 0.7655423 0.5288687 0.7655423 0.5288687 0.7175331 0.3785269 0.7239139 0.5288687 0.7239139 0.5288687 0.7655423 0.3785269 0.7559927 0.5288687 0.7559927 0.5288687 0.7239139 0.3785269 0.7334635 0.5288687 0.7334635 0.5288687 0.7559927 0.3785269 0.7447281 0.5288687 0.7447281 0.5288687 0.7334635 0.3785269 0.7447281 0.5288687 0.7447281 0.5288687 0.7447281 0.3785269 0.7334635 0.5288687 0.7334635 0.5288687 0.7447281 0.3785269 0.7559927 0.5288687 0.7559927 0.5288687 0.7334635 0.3785269 0.7239139 0.5288687 0.7239139 0.48777 0.5974009 0.5301943 0.5726246 0.5301943 0.5555815 0.4485731 0.5371657 0.4485731 0.5805732 0.4000002 0.5805732 0.3062326 0.6108088 0.2608482 0.595823 0.2499746 0.5555815 0.2738041 0.5802423 0.2738041 0.5983128 0.2500661 0.5983128 0.25 0.7083333 0.375 0.7083333 0.375 0.75 0.5060855 0.7988094 0.5060855 0.7109833 0.5358942 0.7409679 0.3589863 0.7779421 0.3868508 0.7372872 0.3868508 0.7988094 0.3868508 0.7372872 0.4166594 0.7135452 0.4166594 0.7988094 0.4166594 0.7135452 0.4464681 0.7056647 0.4464681 0.7988094 0.4464681 0.7056647 0.4762769 0.6980095 0.4762769 0.7988094 0.4762769 0.7988094 0.4762769 0.6980095 0.5060855 0.7109833 0.375 0.5 0.375 0.5416666 0.25 0.5416666 0.375 0.5416666 0.375 0.5833333 0.25 0.5833333 0.375 0.5833333 0.375 0.625 0.25 0.625 0.375 0.625 0.375 0.6666667 0.25 0.6666666 0.25 0.6666666 0.375 0.6666667 0.375 0.7083333 0.5301943 0.5555815 0.5301943 0.5726246 0.48777 0.5974009 0.48777 0.5552625 0.48777 0.5974009 0.4423854 0.6368681 0.4423854 0.5555815 0.4423854 0.6368681 0.3970011 0.6368681 0.3970011 0.5555815 0.3970011 0.6368681 0.3516167 0.6368681 0.3516167 0.6368681 0.3062326 0.6108088 0.3062326 0.5555815 0.2499746 0.5555815 0.2608482 0.595823 0.3062326 0.6108088 0.3062326 0.5555815 0.3062326 0.6108088 0.3516167 0.6368681 0.4423854 0.6368681 0.3970011 0.6368681 0.3970011 0.5555815 0.3970011 0.6368681 0.3516167 0.6368681 0.3516167 0.5555815 0.4423854 0.6368681 0.48777 0.5974009 0.48777 0.5552625 0.4993736 0.8043464 0.4993736 0.8548884 0.5447 0.8546466 0.4540472 0.8043464 0.4540472 0.8548884 0.4993736 0.8548884 0.4087208 0.8043464 0.4087208 0.8548884 0.4540472 0.8548884 0.3633946 0.8548884 0.4087208 0.8548884 0.4087208 0.8043464 0.3072084 0.8548884 0.3633946 0.8548884 0.3633946 0.8043464 0.4087208 0.8043464 0.4087208 0.8548884 0.3633946 0.8548884 0.4540472 0.8548884 0.4087208 0.8548884 0.4087208 0.8043464 0.4993736 0.8548884 0.4540472 0.8548884 0.4540472 0.8043464 0.5447 0.8546466 0.4993736 0.8548884 0.4993736 0.8043464 0.5000001 0.5000001 0.5 0.5416666 0.375 0.5416666 0.2738041 0.5802423 0.2394683 0.5802423 0.2429552 0.5570045 0.3633946 0.8043464 0.3633946 0.8548884 0.3072084 0.8548884 0.4485731 0.5371657 0.3783153 0.5371657 0.3854498 0.4644504 0.375 0.2083333 0.5 0.2083333 0.5000001 0.25 0.511696 0.4644504 0.5188305 0.5371657 0.4485731 0.5371657 0.304653 0.5570045 0.3081398 0.5802423 0.2738041 0.5802423 0.25 0.6666666 0.25 0.7083333 0.125 0.7083333 0.125 0.625 0.25 0.625 0.25 0.6666666 0.125 0.5833333 0.25 0.5833333 0.25 0.625 0.125 0.5416666 0.25 0.5416666 0.25 0.5833333 0.125 0.5 0.25 0.5 0.25 0.5416666 0.4762769 0.7976222 0.5060855 0.7976222 0.5060855 0.7097963 0.4464682 0.7044775 0.4464681 0.7976222 0.4762769 0.7976222 0.4166595 0.7123581 0.4166594 0.7976222 0.4464681 0.7976222 0.3868508 0.7361001 0.3868508 0.7976222 0.4166594 0.7976222 0.3589863 0.7767549 0.3589863 0.7976222 0.3868508 0.7976222 0.5060855 0.7976222 0.5358942 0.7976222 0.5358942 0.7397807 0.25 0.7083333 0.25 0.75 0.125 0.75 0.2975421 0.5983128 0.2738041 0.5983128 0.2738041 0.5802423 0.4971457 0.5805732 0.4485731 0.5805732 0.4485731 0.5371657 0.8116856 0.4605329 0.8206122 0.4605329 0.8206122 0.4834584 0.7834428 0.4986624 0.7834428 0.4922473 0.8434591 0.4922473 0.7834428 0.4922473 0.7834428 0.4826464 0.8434591 0.4826464 0.7834428 0.4826464 0.7834428 0.4713214 0.8434591 0.4713214 0.7834428 0.4713214 0.7834428 0.4599964 0.8434591 0.4599964 0.7834428 0.4599964 0.7834428 0.4503955 0.8434591 0.4503955 0.7834428 0.4503955 0.7834428 0.4439803 0.8434591 0.4439804 0.8206122 0.4605329 0.8116856 0.4605329 0.8116856 0.4834584 0.8116856 0.4605329 0.8027592 0.4605329 0.8027592 0.4834584 0.7834428 0.4439803 0.7834428 0.4503955 0.8434591 0.4503955 0.7834428 0.4503955 0.7834428 0.4599964 0.8434591 0.4599964 0.7834428 0.4599964 0.7834428 0.4713214 0.8434591 0.4713214 0.7834428 0.4713214 0.7834428 0.4826464 0.8434591 0.4826464 0.7834428 0.4826464 0.7834428 0.4922473 0.8434591 0.4922473 0.8281798 0.4922473 0.8206122 0.4986624 0.8116856 0.5009151 0.8116856 0.5009151 0.8027592 0.4986624 0.7951918 0.4922473 0.7951918 0.4922473 0.7901352 0.4826464 0.7951918 0.4503955 0.7901352 0.4826464 0.7883597 0.4713214 0.7951918 0.4503955 0.7883597 0.4713214 0.7901352 0.4599964 0.7951918 0.4503955 0.7951918 0.4503955 0.8027592 0.4439803 0.8116856 0.4417277 0.8116856 0.4417277 0.8206122 0.4439803 0.7951918 0.4503955 0.8206122 0.4439803 0.8281798 0.4503955 0.7951918 0.4503955 0.8281798 0.4503955 0.8332363 0.4599964 0.8350119 0.4713214 0.8350119 0.4713214 0.8332363 0.4826464 0.8281798 0.4503955 0.8332363 0.4826464 0.8281798 0.4922473 0.8281798 0.4503955 0.8281798 0.4922473 0.8116856 0.5009151 0.7951918 0.4922473 0.8281798 0.4922473 0.7951918 0.4922473 0.7951918 0.4503955 0.7834428 0.4922473 0.7834428 0.4986624 0.8434591 0.4986624 0.8027592 0.4605329 0.8116856 0.4605329 0.8116856 0.4834584 0.6314322 0.5046326 0.635714 0.5023919 0.6426209 0.4751968 0.635714 0.5023919 0.6393439 0.4960111 0.6426209 0.4751968 0.6393439 0.4960111 0.6417694 0.4864614 0.6426209 0.4751968 0.6426209 0.4751968 0.6417694 0.4639323 0.6393439 0.4543827 0.6393439 0.4543827 0.635714 0.4480018 0.6426209 0.4751968 0.635714 0.4480018 0.6314322 0.4457612 0.6426209 0.4751968 0.6314322 0.4457612 0.6271505 0.4480018 0.6235206 0.4543827 0.6235206 0.4543827 0.6210952 0.4639323 0.6314322 0.4457612 0.6210952 0.4639323 0.6202434 0.4751968 0.6314322 0.4457612 0.6202434 0.4751968 0.6210952 0.4864614 0.6314322 0.5046326 0.6210952 0.4864614 0.6235206 0.4960111 0.6314322 0.5046326 0.6235206 0.4960111 0.6271505 0.5023919 0.6314322 0.5046326 0.6314322 0.5046326 0.6426209 0.4751968 0.6202434 0.4751968 0.8790521 0.08752107 0.8738288 0.09390193 0.8562828 0.08752107 0.8738288 0.09390193 0.8676673 0.09614259 0.8562828 0.08752107 0.8676673 0.09614259 0.8615061 0.09390193 0.8562828 0.08752107 0.8562828 0.08752107 0.8527926 0.07797145 0.8562828 0.04589271 0.8527926 0.07797145 0.851567 0.06670689 0.8562828 0.04589271 0.851567 0.06670689 0.8527926 0.05544233 0.8562828 0.04589271 0.8562828 0.04589271 0.8615061 0.03951185 0.8676673 0.0372712 0.8676673 0.0372712 0.8738288 0.03951185 0.8562828 0.04589271 0.8738288 0.03951185 0.8790521 0.04589271 0.8562828 0.04589271 0.8790521 0.04589271 0.8825424 0.05544233 0.8837677 0.06670689 0.8837677 0.06670689 0.8825424 0.07797145 0.8790521 0.08752107 0.8790521 0.04589271 0.8837677 0.06670689 0.8562828 0.04589271 0.8837677 0.06670689 0.8790521 0.08752107 0.8562828 0.04589271 0.7066031 0.4864614 0.5562613 0.4864614 0.5562613 0.4960111 0.7066031 0.4543827 0.5562613 0.4543827 0.5562613 0.4480018 0.7066031 0.4960111 0.5562613 0.4960111 0.5562613 0.5023919 0.635714 0.5347402 0.635714 0.4156536 0.6314322 0.4156536 0.6314322 0.5347402 0.6314322 0.4156536 0.635714 0.4156536 0.6271505 0.5347402 0.6271505 0.4156536 0.6314322 0.4156536 0.6314322 0.5347402 0.6314322 0.4156536 0.6271505 0.4156536 0.7066031 0.5023919 0.5562613 0.5023919 0.5562613 0.4960111 0.7066031 0.4480018 0.5562613 0.4480018 0.5562613 0.4543827 0.7066031 0.4960111 0.5562613 0.4960111 0.5562613 0.4864614 0.7066031 0.4543827 0.5562613 0.4543827 0.5562613 0.4639323 0.7066031 0.4864614 0.5562613 0.4864614 0.5562613 0.4751968 0.7066031 0.4639323 0.5562613 0.4639323 0.5562613 0.4751968 0.7066031 0.4751968 0.5562613 0.4751968 0.5562613 0.4639323 0.7066031 0.4751968 0.5562613 0.4751968 0.5562613 0.4864614 0.7066031 0.4639323 0.5562613 0.4639323 0.5562613 0.4543827 0.9700561 0.5189169 0.9604173 0.5209721 0.9522461 0.5268246 0.9522461 0.5268246 0.9467863 0.5355835 0.9700561 0.5189169 0.9467863 0.5355835 0.9448692 0.5459154 0.9700561 0.5189169 0.9448692 0.5459154 0.9467863 0.5562474 0.9700561 0.572914 0.9467863 0.5562474 0.9522461 0.5650063 0.9700561 0.572914 0.9522461 0.5650063 0.9604173 0.5708588 0.9700561 0.572914 0.9700561 0.572914 0.9796946 0.5708588 0.995243 0.5459154 0.9796946 0.5708588 0.9878661 0.5650063 0.995243 0.5459154 0.9878661 0.5650063 0.9933257 0.5562474 0.995243 0.5459154 0.995243 0.5459154 0.9933257 0.5355835 0.9700561 0.5189169 0.9933257 0.5355835 0.9878661 0.5268246 0.9700561 0.5189169 0.9878661 0.5268246 0.9796946 0.5209721 0.9700561 0.5189169 0.9700561 0.5189169 0.9448692 0.5459154 0.995243 0.5459154 0.9676692 0.5522292 0.9676692 0.5348131 0.9700561 0.5348131 0.9310783 0.5459154 0.9896187 0.5459154 0.9896187 0.5355835 0.9310783 0.5562474 0.9896187 0.5562474 0.9896187 0.5650063 0.9310783 0.5355835 0.9896187 0.5355835 0.9896187 0.5268246 0.9310783 0.5650063 0.9896187 0.5650063 0.9896187 0.5708588 0.9310783 0.5268246 0.9896187 0.5268246 0.9896187 0.5209721 0.9604173 0.5333356 0.9604173 0.5522292 0.9700561 0.5522292 0.9700561 0.5333356 0.9700561 0.5522292 0.9604173 0.5522292 0.9796946 0.5333356 0.9796946 0.5522292 0.9700561 0.5522292 0.9700561 0.5333356 0.9700561 0.5522292 0.9796946 0.5522292 0.9310783 0.5209721 0.9896187 0.5209721 0.9896187 0.5268246 0.9310783 0.5708588 0.9896187 0.5708588 0.9896187 0.5650063 0.9310783 0.5268246 0.9896187 0.5268246 0.9896187 0.5355835 0.9310783 0.5650063 0.9896187 0.5650063 0.9896187 0.5562474 0.9310783 0.5355835 0.9896187 0.5355835 0.9896187 0.5459154 0.9310783 0.5562474 0.9896187 0.5562474 0.9896187 0.5459154 0.9310783 0.5459154 0.9896187 0.5459154 0.9896187 0.5562474 0.8830367 0.536051 0.8800488 0.5308733 0.8840202 0.5293785 0.8802931 0.5387452 0.8766821 0.5351302 0.8800488 0.5308733 0.878179 0.5433948 0.8744325 0.5415009 0.8766821 0.5351302 0.8774182 0.5490158 0.8736426 0.5490158 0.8744325 0.5415009 0.8774182 0.5490158 0.878179 0.5546368 0.8744325 0.5565307 0.878179 0.5546368 0.8802931 0.5592865 0.8766821 0.5629015 0.8802931 0.5592865 0.8830367 0.5619807 0.8800488 0.5671584 0.8830367 0.5619807 0.8840202 0.5622681 0.8840202 0.5686532 0.8850036 0.5619807 0.8879915 0.5671584 0.8840202 0.5686532 0.8877473 0.5592865 0.8913583 0.5629015 0.8879915 0.5671584 0.8898614 0.5546368 0.8936077 0.5565307 0.8913583 0.5629015 0.8906221 0.5490158 0.8943977 0.5490158 0.8936077 0.5565307 0.8906221 0.5490158 0.8898614 0.5433948 0.8936077 0.5415009 0.8898614 0.5433948 0.8877473 0.5387452 0.8913583 0.5351302 0.8877473 0.5387452 0.8850036 0.536051 0.8879915 0.5308733 0.8850036 0.536051 0.8840202 0.5357635 0.8840202 0.5293785 0.9700561 0.5522292 0.9700561 0.5348131 0.9676692 0.5348131 0.9724429 0.5522292 0.9724429 0.5348131 0.9700561 0.5348131 0.9700561 0.5522292 0.9700561 0.5348131 0.9724429 0.5348131 0.9896187 0.5280906 0.935656 0.5280906 0.935656 0.5317948 0.9896187 0.5637403 0.935656 0.5637403 0.935656 0.5600361 0.9896187 0.5317948 0.935656 0.5317948 0.935656 0.5381873 0.9896187 0.5600361 0.935656 0.5600361 0.935656 0.5536435 0.9896187 0.5381873 0.935656 0.5381873 0.935656 0.5459154 0.9896187 0.5536435 0.935656 0.5536435 0.935656 0.5459154 0.9896187 0.5459154 0.935656 0.5459154 0.935656 0.5536435 0.9896187 0.5459154 0.935656 0.5459154 0.935656 0.5381873 0.9896187 0.5536435 0.935656 0.5536435 0.935656 0.5600361 0.9896187 0.5381873 0.935656 0.5381873 0.935656 0.5317948 0.9896187 0.5600361 0.935656 0.5600361 0.935656 0.5637403 0.9896187 0.5317948 0.935656 0.5317948 0.935656 0.5280906 0.4762769 0.7988094 0.5060855 0.7988094 0.5060855 0.7109833 0.5060855 0.7988094 0.5060855 0.7988093 0.5060856 0.7109833 0.5060855 0.7988094 0.4762769 0.7988094 0.4762768 0.7988093 0.4762769 0.6980095 0.4762769 0.6980095 0.4762768 0.7988093 0.4822373 0.8029117 0.4041545 0.8029121 0.4134949 0.6952403 0.5033172 0.7154842 0.4790452 0.7049201 0.4762769 0.6980095 0.4790452 0.7049201 0.4790452 0.7932323 0.4762768 0.7988093 0.5060856 0.7109833 0.5060855 0.7988093 0.5033172 0.7932322 0.5033172 0.7932322 0.5060855 0.7988093 0.4762768 0.7988093 0.5060855 0.7109833 0.5060856 0.7109833 0.4762769 0.6980095 0.8536949 0.6983998 0.8666988 0.6942523 0.877723 0.6824413 0.877723 0.6824413 0.8850892 0.664765 0.8876758 0.6439144 0.8876758 0.6439144 0.8850892 0.6230637 0.877723 0.6053874 0.877723 0.6053874 0.8666988 0.5935764 0.8536949 0.5894289 0.8536949 0.5894289 0.8406909 0.5935764 0.8296667 0.6053874 0.8296667 0.6053874 0.8223006 0.6230637 0.819714 0.6439144 0.819714 0.6439144 0.8223006 0.664765 0.8296667 0.6824413 0.8296667 0.6824413 0.8406909 0.6942523 0.8536949 0.6983998 0.8536949 0.6983998 0.877723 0.6824413 0.8876758 0.6439144 0.8876758 0.6439144 0.877723 0.6053874 0.8536949 0.6983998 0.877723 0.6053874 0.8536949 0.5894289 0.8536949 0.6983998 0.8536949 0.5894289 0.8296667 0.6053874 0.819714 0.6439144 0.819714 0.6439144 0.8296667 0.6824413 0.8536949 0.5894289 0.5922367 0.7148756 0.5922367 0.7148756 0.5777761 0.7192613 0.6066973 0.8257191 0.6066973 0.8257191 0.6189563 0.8132298 0.5777761 0.7192613 0.5777761 0.7192613 0.5655171 0.7317506 0.6271476 0.7945383 0.6189563 0.8132298 0.6189563 0.8132298 0.5573258 0.7504421 0.5655171 0.7317506 0.5655171 0.7317506 0.630024 0.7724902 0.6271476 0.7945383 0.6271476 0.7945383 0.5544494 0.7724902 0.5573258 0.7504421 0.5573258 0.7504421 0.630024 0.7724902 0.630024 0.7724902 0.6271476 0.7504421 0.5544494 0.7724902 0.5544494 0.7724902 0.5573258 0.7945383 0.6271476 0.7504421 0.6271476 0.7504421 0.6189563 0.7317506 0.5573258 0.7945383 0.5573258 0.7945383 0.5655171 0.8132298 0.6066973 0.7192613 0.6189563 0.7317506 0.6189563 0.7317506 0.5777761 0.8257191 0.5655171 0.8132298 0.5655171 0.8132298 0.5922367 0.7148756 0.6066973 0.7192613 0.6066973 0.7192613 0.6066973 0.8257191 0.5922367 0.8301048 0.5922367 0.8301048 0.5777761 0.8257191 0.5777761 0.8257191 0.5922367 0.8301048 0.3133434 0.422594 0.3267671 0.422594 0.3267671 0.4088425 0.3267671 0.4088425 0.3267671 0.422594 0.3133434 0.422594 0.3810726 0.4088425 0.5031072 0.4088425 0.5031072 0.422594 0.3810726 0.409719 0.5031072 0.409719 0.5031072 0.4217175 0.3810726 0.422594 0.5031072 0.422594 0.5031072 0.4088425 0.3810725 0.4217175 0.5031072 0.4217175 0.5031072 0.409719 0.1370033 0.4217175 0.2590379 0.4217175 0.2590379 0.409719 0.2590379 0.4217175 0.3810725 0.4217175 0.3810726 0.409719 0.1370033 0.422594 0.2590379 0.422594 0.2590379 0.4088425 0.2590379 0.4088425 0.2590379 0.422594 0.3810726 0.422594 0.1370033 0.409719 0.2590379 0.409719 0.2590379 0.4217175 0.2590379 0.4217175 0.2590379 0.409719 0.3810726 0.409719 0.1370033 0.4088425 0.2590379 0.4088425 0.2590379 0.422594 0.2590379 0.4088425 0.3810726 0.4088425 0.3810725 0.422594 0.3133434 0.422594 0.3267671 0.422594 0.3267671 0.4088425 0.3267671 0.4088425 0.3267671 0.422594 0.3133434 0.422594 0.3810726 0.4088425 0.5031072 0.4088425 0.5031072 0.422594 0.3810726 0.409719 0.5031072 0.409719 0.5031072 0.4217175 0.3810726 0.422594 0.5031072 0.422594 0.5031072 0.4088425 0.3810725 0.4217175 0.5031072 0.4217175 0.5031072 0.409719 0.1370033 0.4217175 0.2590379 0.4217175 0.2590379 0.409719 0.2590379 0.409719 0.2590379 0.4217175 0.3810725 0.4217175 0.1370033 0.422594 0.2590379 0.422594 0.2590379 0.4088425 0.2590379 0.4088425 0.2590379 0.422594 0.3810726 0.422594 0.1370033 0.409719 0.2590379 0.409719 0.2590379 0.4217175 0.2590379 0.409719 0.3810726 0.409719 0.3810726 0.4217175 0.1370033 0.4088425 0.2590379 0.4088425 0.2590379 0.422594 0.2590379 0.4088425 0.3810726 0.4088425 0.3810725 0.422594 0.4536978 0.7741639 0.4579796 0.7719232 0.4616095 0.7655423 0.4616095 0.7655423 0.464035 0.7559927 0.4536978 0.7741639 0.464035 0.7559927 0.4648866 0.7447281 0.4536978 0.7741639 0.4648866 0.7447281 0.464035 0.7334635 0.4536978 0.7152924 0.464035 0.7334635 0.4616095 0.7239139 0.4536978 0.7152924 0.4616095 0.7239139 0.4579796 0.7175331 0.4536978 0.7152924 0.4536978 0.7152924 0.4494162 0.7175331 0.4457862 0.7239139 0.4457862 0.7239139 0.4433608 0.7334635 0.4425091 0.7447281 0.4425091 0.7447281 0.4433608 0.7559927 0.4536978 0.7741639 0.4433608 0.7559927 0.4457862 0.7655423 0.4536978 0.7741639 0.4457862 0.7655423 0.4494162 0.7719232 0.4536978 0.7741639 0.4536978 0.7152924 0.4457862 0.7239139 0.4536978 0.7741639 0.4457862 0.7239139 0.4425091 0.7447281 0.4536978 0.7741639 0.2911615 0.5562711 0.2859383 0.5626519 0.2797768 0.5648925 0.2797768 0.5648925 0.2736155 0.5626519 0.2683922 0.5562711 0.2683922 0.5562711 0.2649021 0.5467214 0.2683922 0.5146427 0.2649021 0.5467214 0.2636764 0.5354568 0.2683922 0.5146427 0.2636764 0.5354568 0.2649021 0.5241923 0.2683922 0.5146427 0.2683922 0.5146427 0.2736155 0.5082618 0.2911615 0.5146427 0.2736155 0.5082618 0.2797768 0.5060212 0.2911615 0.5146427 0.2797768 0.5060212 0.2859383 0.5082618 0.2911615 0.5146427 0.2911615 0.5146427 0.2946518 0.5241923 0.2958771 0.5354568 0.2958771 0.5354568 0.2946518 0.5467214 0.2911615 0.5146427 0.2946518 0.5467214 0.2911615 0.5562711 0.2911615 0.5146427 0.2911615 0.5562711 0.2797768 0.5648925 0.2683922 0.5146427 0.2797768 0.5648925 0.2683922 0.5562711 0.2683922 0.5146427 0.5288687 0.7559927 0.3785269 0.7559927 0.3785269 0.7655423 0.5288687 0.7239139 0.3785269 0.7239139 0.3785269 0.7175331 0.5288687 0.7655423 0.3785269 0.7655423 0.3785269 0.7719232 0.4579796 0.8042713 0.4579796 0.6851848 0.4536978 0.6851848 0.4536978 0.8042713 0.4536978 0.6851848 0.4579796 0.6851848 0.4494162 0.8042713 0.4494162 0.6851848 0.4536978 0.6851848 0.4536978 0.8042713 0.4536978 0.6851848 0.4494162 0.6851848 0.5288687 0.7719232 0.3785269 0.7719232 0.3785269 0.7655423 0.5288687 0.7175331 0.3785269 0.7175331 0.3785269 0.7239139 0.5288687 0.7655423 0.3785269 0.7655423 0.3785269 0.7559927 0.5288687 0.7239139 0.3785269 0.7239139 0.3785269 0.7334635 0.5288687 0.7559927 0.3785269 0.7559927 0.3785269 0.7447281 0.5288687 0.7334635 0.3785269 0.7334635 0.3785269 0.7447281 0.5288687 0.7447281 0.3785269 0.7447281 0.3785269 0.7334635 0.5288687 0.7447281 0.3785269 0.7447281 0.3785269 0.7559927 0.5288687 0.7334635 0.3785269 0.7334635 0.3785269 0.7239139</float_array>
          <technique_common>
            <accessor source="#Cube_006-mesh-map-0-array" count="1530" stride="2">
              <param name="S" type="float"/>
              <param name="T" type="float"/>
            </accessor>
          </technique_common>
        </source>
        <vertices id="Cube_006-mesh-vertices">
          <input semantic="POSITION" source="#Cube_006-mesh-positions"/>
        </vertices>
        <triangles material="Material-material" count="510">
          <input semantic="VERTEX" source="#Cube_006-mesh-vertices" offset="0"/>
          <input semantic="NORMAL" source="#Cube_006-mesh-normals" offset="1"/>
          <input semantic="TEXCOORD" source="#Cube_006-mesh-map-0" offset="2" set="0"/>
          <p>17 0 0 29 1 1 41 2 2 57 3 3 7 4 4 30 5 5 27 6 6 31 7 7 36 8 8 56 9 9 1 10 10 28 11 11 55 12 12 4 13 13 44 14 14 50 15 15 1 16 16 45 17 17 3 18 18 46 19 19 43 20 20 17 21 21 47 22 22 46 19 23 16 23 24 48 24 25 47 22 26 15 25 27 49 26 28 48 24 29 49 26 30 13 27 31 50 15 32 6 28 33 51 29 34 42 30 35 22 31 36 52 32 37 51 29 38 21 33 39 53 34 40 52 32 41 20 35 42 54 36 43 53 34 44 54 36 45 18 37 46 55 12 47 30 38 48 23 39 49 32 40 50 32 40 51 24 41 52 33 42 53 33 42 54 25 43 55 34 44 56 34 44 57 26 45 58 35 46 59 26 45 60 36 8 61 35 46 62 28 47 63 13 48 64 37 49 65 37 49 66 14 50 67 38 51 68 14 50 69 39 52 70 38 51 71 15 53 72 40 54 73 39 52 74 16 55 75 41 2 76 40 54 77 9 56 78 41 57 79 8 58 80 10 59 81 40 60 82 9 56 83 11 61 84 39 62 85 10 59 86 37 63 87 11 61 88 12 64 89 28 65 90 12 64 91 0 66 92 19 67 93 36 68 94 18 69 95 34 70 96 19 67 97 20 71 98 33 72 99 20 71 100 21 73 101 32 74 102 21 73 103 22 75 104 30 76 105 22 75 106 6 77 107 56 78 108 0 79 109 44 80 110 18 69 111 31 81 112 4 82 113 57 3 114 6 83 115 42 84 116 8 58 117 29 85 118 2 86 119 2 87 120 57 3 121 42 84 122 4 88 123 56 78 124 44 80 125 54 36 126 12 89 127 11 90 128 10 91 129 54 36 130 11 90 131 9 92 132 53 34 133 10 91 134 8 93 135 52 32 136 9 92 137 2 28 138 51 29 139 8 93 140 49 26 141 27 94 142 26 95 143 25 96 144 49 26 145 26 95 146 24 97 147 48 24 148 25 96 149 23 98 150 47 22 151 24 97 152 7 99 153 46 19 154 23 98 155 50 15 156 5 100 157 27 94 158 55 12 159 0 101 160 12 89 161 5 102 162 56 9 163 31 102 164 3 103 165 57 3 166 29 104 167 59 105 168 60 106 169 58 107 170 61 108 171 62 109 172 60 106 173 63 110 174 64 111 175 62 109 176 65 112 177 66 113 178 64 111 179 67 114 180 68 115 181 66 113 182 69 116 183 70 117 184 68 115 185 71 118 186 72 119 187 70 117 188 73 120 189 74 121 190 72 119 191 75 122 192 76 123 193 74 121 194 77 124 195 78 125 196 76 123 197 79 126 198 80 127 199 78 125 200 81 128 201 82 129 202 80 127 203 83 130 204 84 131 205 82 129 206 85 132 207 86 133 208 84 131 209 79 134 210 71 135 211 63 136 212 87 137 213 88 138 214 86 133 215 89 139 216 58 107 217 88 138 218 94 140 219 98 141 220 102 142 221 108 143 222 120 144 223 116 145 224 103 146 225 120 147 226 104 148 227 96 149 228 113 150 229 97 151 230 104 148 231 121 152 232 105 153 233 97 151 234 114 154 235 98 155 236 90 156 237 106 157 238 91 158 239 105 153 240 107 159 241 90 156 242 98 155 243 115 160 244 99 161 245 91 158 246 108 162 247 92 163 248 99 161 249 116 164 250 100 165 251 92 163 252 109 166 253 93 167 254 100 165 255 117 168 256 101 169 257 93 167 258 110 170 259 94 171 260 101 169 261 118 172 262 102 173 263 94 171 264 111 174 265 95 175 266 102 173 267 119 176 268 103 146 269 95 175 270 112 177 271 96 149 272 126 178 273 130 179 274 134 180 275 145 181 276 178 182 277 146 183 278 134 184 279 167 185 280 135 186 281 127 187 282 160 188 283 128 189 284 135 186 285 168 190 286 136 191 287 128 189 288 161 192 289 129 193 290 136 191 291 169 194 292 137 195 293 129 193 294 162 196 295 130 197 296 123 198 297 154 199 298 122 200 299 137 195 300 155 201 301 123 198 302 130 197 303 163 202 304 131 203 305 122 200 306 156 204 307 124 205 308 131 203 309 164 206 310 132 207 311 124 205 312 157 208 313 125 209 314 132 207 315 165 210 316 133 211 317 125 209 318 158 212 319 126 213 320 133 211 321 166 214 322 134 184 323 126 213 324 159 215 325 127 187 326 138 216 327 155 217 328 139 218 329 140 219 330 154 220 331 138 216 332 141 219 333 156 219 334 140 219 335 142 221 336 157 222 337 141 219 338 142 221 339 159 223 340 158 224 341 143 219 342 160 219 343 159 223 344 144 219 345 161 219 346 160 219 347 145 219 348 162 219 349 161 219 350 147 225 351 162 219 352 146 219 353 148 226 354 163 227 355 147 225 356 149 219 357 164 219 358 148 226 359 150 221 360 165 223 361 149 219 362 150 221 363 167 222 364 166 224 365 151 219 366 168 228 367 167 222 368 152 229 369 169 230 370 168 228 371 153 231 372 155 217 373 169 230 374 139 232 375 170 233 376 138 234 377 153 235 378 171 236 379 139 232 380 146 183 381 179 237 382 147 238 383 138 234 384 172 239 385 140 240 386 147 238 387 180 241 388 148 242 389 140 240 390 173 243 391 141 244 392 148 242 393 181 245 394 149 246 395 141 244 396 174 247 397 142 248 398 149 246 399 182 249 400 150 250 401 142 248 402 175 251 403 143 252 404 150 250 405 183 253 406 151 254 407 143 252 408 176 255 409 144 256 410 151 254 411 184 257 412 152 258 413 144 256 414 177 259 415 145 181 416 152 258 417 185 260 418 153 235 419 188 261 420 186 262 421 187 263 422 189 264 423 190 265 424 186 266 425 189 267 426 195 268 427 196 269 428 187 270 429 195 271 430 188 272 431 194 273 432 191 274 433 197 275 434 191 276 435 193 277 436 190 278 437 192 279 438 195 280 439 193 281 440 190 282 441 197 275 442 191 274 443 197 283 444 195 284 445 194 285 446 186 286 447 193 287 448 187 288 449 212 289 450 199 290 451 206 291 452 206 292 453 223 293 454 207 294 455 198 295 456 216 296 457 200 297 458 207 294 459 224 298 460 208 299 461 201 300 462 216 296 463 217 301 464 209 302 465 224 298 466 225 303 467 202 304 468 217 301 469 218 305 470 210 306 471 225 303 472 226 307 473 202 304 474 219 308 475 203 309 476 210 306 477 227 310 478 211 311 479 203 309 480 220 312 481 204 313 482 211 311 483 228 314 484 212 315 485 205 316 486 220 312 487 221 317 488 213 318 489 228 314 490 229 319 491 206 292 492 221 317 493 222 320 494 198 295 495 215 321 496 214 322 497 213 318 498 215 321 499 199 323 500 233 324 501 230 324 502 231 324 503 234 325 504 237 325 505 235 325 506 239 326 507 237 219 508 240 327 509 243 328 510 235 329 511 239 330 512 245 331 513 234 332 514 243 333 515 240 334 516 236 269 517 245 335 518 233 269 519 244 336 520 232 269 521 241 337 522 245 335 523 244 336 524 232 332 525 242 338 526 230 332 527 242 338 528 245 331 529 243 333 530 230 329 531 238 339 532 231 329 533 238 339 534 243 328 535 239 330 536 231 219 537 241 340 538 233 219 539 238 341 540 240 327 541 241 340 542 249 324 543 246 324 544 247 324 545 250 325 546 253 325 547 251 325 548 255 342 549 253 219 550 256 343 551 259 344 552 251 329 553 255 345 554 261 346 555 250 332 556 259 347 557 256 348 558 252 269 559 261 349 560 249 269 561 260 350 562 248 269 563 260 350 564 256 348 565 261 349 566 248 332 567 258 351 568 246 332 569 258 351 570 261 346 571 259 347 572 246 329 573 254 352 574 247 329 575 258 353 576 255 345 577 254 352 578 247 219 579 257 354 580 249 219 581 254 355 582 256 343 583 257 354 584 262 356 585 266 332 586 270 357 587 288 358 588 284 219 589 280 359 590 275 360 591 292 361 592 276 362 593 268 363 594 285 364 595 269 365 596 276 362 597 293 366 598 277 367 599 269 365 600 286 368 601 270 369 602 262 370 603 278 371 604 263 372 605 277 367 606 279 373 607 262 370 608 270 369 609 287 374 610 271 375 611 263 372 612 280 376 613 264 377 614 271 375 615 288 378 616 272 379 617 264 377 618 281 380 619 265 381 620 272 379 621 289 382 622 273 383 623 265 381 624 282 384 625 266 385 626 273 383 627 290 386 628 274 387 629 266 385 630 283 388 631 267 389 632 274 387 633 291 390 634 275 360 635 267 389 636 284 391 637 268 363 638 17 0 639 3 392 640 29 1 641 57 3 642 43 393 643 7 4 644 27 6 645 5 394 646 31 7 647 56 9 648 45 102 649 1 10 650 55 12 651 18 37 652 4 13 653 50 15 654 13 27 655 1 16 656 3 18 657 17 21 658 46 19 659 17 21 660 16 23 661 47 22 662 16 23 663 15 25 664 48 24 665 15 25 666 14 395 667 49 26 668 49 26 669 14 395 670 13 27 671 6 28 672 22 31 673 51 29 674 22 31 675 21 33 676 52 32 677 21 33 678 20 35 679 53 34 680 20 35 681 19 396 682 54 36 683 54 36 684 19 396 685 18 37 686 30 38 687 7 397 688 23 39 689 32 40 690 23 39 691 24 41 692 33 42 693 24 41 694 25 43 695 34 44 696 25 43 697 26 45 698 26 45 699 27 6 700 36 8 701 28 47 702 1 398 703 13 48 704 37 49 705 13 48 706 14 50 707 14 50 708 15 53 709 39 52 710 15 53 711 16 55 712 40 54 713 16 55 714 17 0 715 41 2 716 9 56 717 40 60 718 41 57 719 10 59 720 39 62 721 40 60 722 11 61 723 38 399 724 39 62 725 37 63 726 38 399 727 11 61 728 28 65 729 37 63 730 12 64 731 19 67 732 35 400 733 36 68 734 34 70 735 35 400 736 19 67 737 33 72 738 34 70 739 20 71 740 32 74 741 33 72 742 21 73 743 30 76 744 32 74 745 22 75 746 56 78 747 28 401 748 0 79 749 18 69 750 36 68 751 31 81 752 57 3 753 30 5 754 6 83 755 8 58 756 41 57 757 29 85 758 2 87 759 29 104 760 57 3 761 4 88 762 31 402 763 56 78 764 54 36 765 55 12 766 12 89 767 10 91 768 53 34 769 54 36 770 9 92 771 52 32 772 53 34 773 8 93 774 51 29 775 52 32 776 2 28 777 42 30 778 51 29 779 49 26 780 50 15 781 27 94 782 25 96 783 48 24 784 49 26 785 24 97 786 47 22 787 48 24 788 23 98 789 46 19 790 47 22 791 7 99 792 43 20 793 46 19 794 50 15 795 45 17 796 5 100 797 55 12 798 44 14 799 0 101 800 5 102 801 45 102 802 56 9 803 3 103 804 43 393 805 57 3 806 59 105 807 61 108 808 60 106 809 61 108 810 63 110 811 62 109 812 63 110 813 65 112 814 64 111 815 65 112 816 67 114 817 66 113 818 67 114 819 69 116 820 68 115 821 69 116 822 71 118 823 70 117 824 71 118 825 73 120 826 72 119 827 73 120 828 75 122 829 74 121 830 75 122 831 77 124 832 76 123 833 77 124 834 79 126 835 78 125 836 79 126 837 81 128 838 80 127 839 81 128 840 83 130 841 82 129 842 83 130 843 85 132 844 84 131 845 85 132 846 87 137 847 86 133 848 63 136 849 61 219 850 59 403 851 59 403 852 89 219 853 87 404 854 87 404 855 85 405 856 79 134 857 85 405 858 83 406 859 79 134 860 83 406 861 81 407 862 79 134 863 79 134 864 77 408 865 75 409 866 75 409 867 73 410 868 79 134 869 73 410 870 71 135 871 79 134 872 71 135 873 69 411 874 67 412 875 67 412 876 65 219 877 71 135 878 65 219 879 63 136 880 71 135 881 63 136 882 59 403 883 87 404 884 63 136 885 87 404 886 79 134 887 87 137 888 89 139 889 88 138 890 89 139 891 59 105 892 58 107 893 90 413 894 91 332 895 94 140 896 91 332 897 92 332 898 94 140 899 92 332 900 93 332 901 94 140 902 94 140 903 95 414 904 96 415 905 96 415 906 97 416 907 94 140 908 97 416 909 98 141 910 94 140 911 98 141 912 99 332 913 100 417 914 100 417 915 101 418 916 98 141 917 101 418 918 102 142 919 98 141 920 102 142 921 103 419 922 90 413 923 103 419 924 104 332 925 90 413 926 104 332 927 105 332 928 90 413 929 90 413 930 94 140 931 102 142 932 108 143 933 106 219 934 120 144 935 106 219 936 107 420 937 120 144 938 107 420 939 121 421 940 120 144 941 120 144 942 119 219 943 116 145 944 119 219 945 118 422 946 116 145 947 118 422 948 117 423 949 116 145 950 116 145 951 115 219 952 114 219 953 114 219 954 113 219 955 116 145 956 113 219 957 112 424 958 116 145 959 112 424 960 111 425 961 110 426 962 110 426 963 109 427 964 108 143 965 112 424 966 110 426 967 116 145 968 110 426 969 108 143 970 116 145 971 103 146 972 119 176 973 120 147 974 96 149 975 112 177 976 113 150 977 104 148 978 120 147 979 121 152 980 97 151 981 113 150 982 114 154 983 90 156 984 107 159 985 106 157 986 105 153 987 121 152 988 107 159 989 98 155 990 114 154 991 115 160 992 91 158 993 106 157 994 108 162 995 99 161 996 115 160 997 116 164 998 92 163 999 108 162 1000 109 166 1001 100 165 1002 116 164 1003 117 168 1004 93 167 1005 109 166 1006 110 170 1007 101 169 1008 117 168 1009 118 172 1010 94 171 1011 110 170 1012 111 174 1013 102 173 1014 118 172 1015 119 176 1016 95 175 1017 111 174 1018 112 177 1019 123 428 1020 122 429 1021 124 430 1022 124 430 1023 125 332 1024 123 428 1025 125 332 1026 126 178 1027 123 428 1028 126 178 1029 127 431 1030 130 179 1031 127 431 1032 128 432 1033 130 179 1034 128 432 1035 129 433 1036 130 179 1037 130 179 1038 131 434 1039 134 180 1040 131 434 1041 132 435 1042 134 180 1043 132 435 1044 133 332 1045 134 180 1046 134 180 1047 135 436 1048 123 428 1049 135 436 1050 136 332 1051 123 428 1052 136 332 1053 137 332 1054 123 428 1055 123 428 1056 126 178 1057 134 180 1058 145 181 1059 177 259 1060 178 182 1061 134 184 1062 166 214 1063 167 185 1064 127 187 1065 159 215 1066 160 188 1067 135 186 1068 167 185 1069 168 190 1070 128 189 1071 160 188 1072 161 192 1073 136 191 1074 168 190 1075 169 194 1076 129 193 1077 161 192 1078 162 196 1079 123 198 1080 155 201 1081 154 199 1082 137 195 1083 169 194 1084 155 201 1085 130 197 1086 162 196 1087 163 202 1088 122 200 1089 154 199 1090 156 204 1091 131 203 1092 163 202 1093 164 206 1094 124 205 1095 156 204 1096 157 208 1097 132 207 1098 164 206 1099 165 210 1100 125 209 1101 157 208 1102 158 212 1103 133 211 1104 165 210 1105 166 214 1106 126 213 1107 158 212 1108 159 215 1109 138 216 1110 154 220 1111 155 217 1112 140 219 1113 156 219 1114 154 220 1115 141 219 1116 157 222 1117 156 219 1118 142 221 1119 158 224 1120 157 222 1121 142 221 1122 143 219 1123 159 223 1124 143 219 1125 144 219 1126 160 219 1127 144 219 1128 145 219 1129 161 219 1130 145 219 1131 146 219 1132 162 219 1133 147 225 1134 163 227 1135 162 219 1136 148 226 1137 164 219 1138 163 227 1139 149 219 1140 165 223 1141 164 219 1142 150 221 1143 166 224 1144 165 223 1145 150 221 1146 151 219 1147 167 222 1148 151 219 1149 152 229 1150 168 228 1151 152 229 1152 153 231 1153 169 230 1154 153 231 1155 139 218 1156 155 217 1157 139 232 1158 171 236 1159 170 233 1160 153 235 1161 185 260 1162 171 236 1163 146 183 1164 178 182 1165 179 237 1166 138 234 1167 170 233 1168 172 239 1169 147 238 1170 179 237 1171 180 241 1172 140 240 1173 172 239 1174 173 243 1175 148 242 1176 180 241 1177 181 245 1178 141 244 1179 173 243 1180 174 247 1181 149 246 1182 181 245 1183 182 249 1184 142 248 1185 174 247 1186 175 251 1187 150 250 1188 182 249 1189 183 253 1190 143 252 1191 175 251 1192 176 255 1193 151 254 1194 183 253 1195 184 257 1196 144 256 1197 176 255 1198 177 259 1199 152 258 1200 184 257 1201 185 260 1202 188 261 1203 189 437 1204 186 262 1205 189 264 1206 196 438 1207 190 265 1208 189 267 1209 188 439 1210 195 268 1211 187 270 1212 193 440 1213 195 271 1214 194 273 1215 192 441 1216 191 274 1217 191 276 1218 192 442 1219 193 277 1220 192 279 1221 194 443 1222 195 280 1223 190 282 1224 196 444 1225 197 275 1226 197 283 1227 196 445 1228 195 284 1229 186 286 1230 190 446 1231 193 287 1232 199 290 1233 198 447 1234 200 448 1235 200 448 1236 201 449 1237 202 450 1238 202 450 1239 203 451 1240 204 452 1241 204 452 1242 205 453 1243 206 291 1244 206 291 1245 207 454 1246 208 455 1247 208 455 1248 209 456 1249 210 457 1250 210 457 1251 211 458 1252 212 289 1253 212 289 1254 213 459 1255 199 290 1256 199 290 1257 200 448 1258 202 450 1259 202 450 1260 204 452 1261 199 290 1262 204 452 1263 206 291 1264 199 290 1265 206 291 1266 208 455 1267 210 457 1268 210 457 1269 212 289 1270 206 291 1271 206 292 1272 222 320 1273 223 293 1274 198 295 1275 214 322 1276 216 296 1277 207 294 1278 223 293 1279 224 298 1280 201 300 1281 200 297 1282 216 296 1283 209 302 1284 208 299 1285 224 298 1286 202 304 1287 201 300 1288 217 301 1289 210 306 1290 209 302 1291 225 303 1292 202 304 1293 218 305 1294 219 308 1295 210 306 1296 226 307 1297 227 310 1298 203 309 1299 219 308 1300 220 312 1301 211 311 1302 227 310 1303 228 314 1304 205 316 1305 204 313 1306 220 312 1307 213 318 1308 212 315 1309 228 314 1310 206 292 1311 205 316 1312 221 317 1313 198 295 1314 199 323 1315 215 321 1316 213 318 1317 229 319 1318 215 321 1319 233 324 1320 232 324 1321 230 324 1322 234 325 1323 236 325 1324 237 325 1325 239 326 1326 235 219 1327 237 219 1328 243 328 1329 234 329 1330 235 329 1331 245 331 1332 236 332 1333 234 332 1334 240 334 1335 237 269 1336 236 269 1337 233 269 1338 241 337 1339 244 336 1340 241 337 1341 240 334 1342 245 335 1343 232 332 1344 244 460 1345 242 338 1346 242 338 1347 244 460 1348 245 331 1349 230 329 1350 242 461 1351 238 339 1352 238 339 1353 242 461 1354 243 328 1355 231 219 1356 238 341 1357 241 340 1358 238 341 1359 239 326 1360 240 327 1361 249 324 1362 248 324 1363 246 324 1364 250 325 1365 252 325 1366 253 325 1367 255 342 1368 251 219 1369 253 219 1370 259 344 1371 250 329 1372 251 329 1373 261 346 1374 252 332 1375 250 332 1376 256 348 1377 253 269 1378 252 269 1379 249 269 1380 257 462 1381 260 350 1382 260 350 1383 257 462 1384 256 348 1385 248 332 1386 260 463 1387 258 351 1388 258 351 1389 260 463 1390 261 346 1391 246 329 1392 258 353 1393 254 352 1394 258 353 1395 259 344 1396 255 345 1397 247 219 1398 254 355 1399 257 354 1400 254 355 1401 255 342 1402 256 343 1403 262 356 1404 263 332 1405 264 332 1406 264 332 1407 265 332 1408 262 356 1409 265 332 1410 266 332 1411 262 356 1412 266 332 1413 267 464 1414 270 357 1415 267 464 1416 268 465 1417 270 357 1418 268 465 1419 269 466 1420 270 357 1421 270 357 1422 271 332 1423 272 332 1424 272 332 1425 273 332 1426 274 332 1427 274 332 1428 275 467 1429 262 356 1430 275 467 1431 276 468 1432 262 356 1433 276 468 1434 277 332 1435 262 356 1436 270 357 1437 272 332 1438 262 356 1439 272 332 1440 274 332 1441 262 356 1442 280 359 1443 278 469 1444 279 470 1445 279 470 1446 293 219 1447 292 471 1448 292 471 1449 291 472 1450 288 358 1451 291 472 1452 290 219 1453 288 358 1454 290 219 1455 289 219 1456 288 358 1457 288 358 1458 287 219 1459 284 219 1460 287 219 1461 286 219 1462 284 219 1463 286 219 1464 285 219 1465 284 219 1466 284 219 1467 283 219 1468 282 219 1469 282 219 1470 281 219 1471 284 219 1472 281 219 1473 280 359 1474 284 219 1475 280 359 1476 279 470 1477 288 358 1478 279 470 1479 292 471 1480 288 358 1481 275 360 1482 291 390 1483 292 361 1484 268 363 1485 284 391 1486 285 364 1487 276 362 1488 292 361 1489 293 366 1490 269 365 1491 285 364 1492 286 368 1493 262 370 1494 279 373 1495 278 371 1496 277 367 1497 293 366 1498 279 373 1499 270 369 1500 286 368 1501 287 374 1502 263 372 1503 278 371 1504 280 376 1505 271 375 1506 287 374 1507 288 378 1508 264 377 1509 280 376 1510 281 380 1511 272 379 1512 288 378 1513 289 382 1514 265 381 1515 281 380 1516 282 384 1517 273 383 1518 289 382 1519 290 386 1520 266 385 1521 282 384 1522 283 388 1523 274 387 1524 290 386 1525 291 390 1526 267 389 1527 283 388 1528 284 391 1529</p>
        </triangles>
      </mesh>
    </geometry>
  </library_geometries>
  <library_visual_scenes>
    <visual_scene id="Scene" name="Scene">
      <node id="mammoth_tower" name="mammoth_tower" type="NODE">
        <matrix sid="transform">1 0 0 0 0 1 0 0 0 0 1 0 0 0 0 1</matrix>
        <instance_geometry url="#Cube_006-mesh" name="mammoth_tower">
          <bind_material>
            <technique_common>
              <instance_material symbol="Material-material" target="#Material-material">
                <bind_vertex_input semantic="UVMap" input_semantic="TEXCOORD" input_set="0"/>
              </instance_material>
            </technique_common>
          </bind_material>
        </instance_geometry>
        <node id="prop_projectile" name="prop_projectile" type="NODE">
          <matrix sid="transform">2.105852 0 0 0 0 2.105852 0 -18.46402 0 0 2.105852 7.119083 0 0 0 1</matrix>
        </node>
      </node>
    </visual_scene>
  </library_visual_scenes>
  <scene>
    <instance_visual_scene url="#Scene"/>
  </scene>
</COLLADA>