<?xml version="1.0" encoding="utf-8"?>
<COLLADA xmlns="http://www.collada.org/2005/11/COLLADASchema" version="1.4.1" xmlns:xsi="http://www.w3.org/2001/XMLSchema-instance">
  <asset>
    <contributor>
      <author>Blender User</author>
      <authoring_tool>Blender 4.3.1 commit date:2024-12-10, commit time:07:46, hash:33d812126174</authoring_tool>
    </contributor>
    <created>2026-08-19T22:19:51</created>
    <modified>2026-08-19T22:19:51</modified>
    <unit name="inch" meter="0.0254"/>
    <up_axis>Z_UP</up_axis>
  </asset>
  <library_effects>
    <effect id="Material-effect">
      <profile_COMMON>
        <newparam sid="mla_a_png-surface">
          <surface type="2D">
            <init_from>mla_a_png</init_from>
          </surface>
        </newparam>
        <newparam sid="mla_a_png-sampler">
          <sampler2D>
            <source>mla_a_png-surface</source>
          </sampler2D>
        </newparam>
        <technique sid="common">
          <lambert>
            <emission>
              <color sid="emission">0 0 0 1</color>
            </emission>
            <diffuse>
              <texture texture="mla_a_png-sampler" texcoord="UVMap"/>
            </diffuse>
            <index_of_refraction>
              <float sid="ior">1.5</float>
            </index_of_refraction>
          </lambert>
        </technique>
      </profile_COMMON>
    </effect>
  </library_effects>
  <library_images>
    <image id="mla_a_png" name="mla_a_png">
      <init_from>/home/welton/Downloads/mla_a.png</init_from>
    </image>
  </library_images>
  <library_materials>
    <material id="Material-material" name="Material">
      <instance_effect url="#Material-effect"/>
    </material>
  </library_materials>
  <library_geometries>
    <geometry id="Cube_003-mesh" name="Cube.003">
      <mesh>
        <source id="Cube_003-mesh-positions">
          <float_array id="Cube_003-mesh-positions-array" count="396">-0.3263258 -6.662256 -0.2029703 -0.3263258 -6.662256 0.4075636 -9.25716 6.662256 -0.5510727 -9.25716 6.662256 0.3136516 0 5.945499 -0.5722563 0 -3.316099 -0.9805985 -0.360719 -7.364426 0 -9.959329 7.364426 0 0 5.648676 -0.842526 -0.1624268 -3.316099 -0.9805985 -2.354539 5.648676 -0.842526 -4.406361 5.945499 -0.5722563 -0.2385113 -4.869439 -0.2236424 0 6.662256 -0.5510727 0 6.662256 0.836189 0 -6.662256 -0.2029703 0 -6.662256 0.5374775 0 -7.364426 0 0 7.364426 0 0 -4.869439 -0.2236424 0.3263258 -6.662256 -0.2029703 0.3263258 -6.662256 0.4075636 9.25716 6.662256 -0.5510727 9.25716 6.662256 0.3136516 0.360719 -7.364426 0 9.959329 7.364426 0 0.1624268 -3.316099 -0.9805985 2.354539 5.648676 -0.842526 4.406361 5.945499 -0.5722563 0.2385113 -4.869439 -0.2236424 -0.0407809 -3.972744 -1.570016 -0.0407809 -3.972744 -1.069852 -1.156868 3.972744 -1.85519 -1.156868 3.972744 -1.146788 -0.04507905 -4.391451 -1.403738 -1.244619 4.391451 -1.403738 0 3.972744 -1.85519 0 3.972744 -1.029222 0 -3.972744 -1.570016 0 -3.972744 -0.9522866 0 -4.391451 -1.403738 0 4.391451 -1.403738 0.04078096 -3.972744 -1.570016 0.04078096 -3.972744 -1.069852 1.156868 3.972744 -1.85519 1.156868 3.972744 -1.146788 0.04507911 -4.391451 -1.403738 1.244619 4.391451 -1.403738 -4.110603 -3.972744 -0.9686149 -4.110603 -3.972744 -0.4684514 -5.22669 3.972744 -1.253788 -5.22669 3.972744 -0.5453864 -4.114901 -4.391451 -0.802337 -5.31444 4.391451 -0.802337 -4.069822 3.972744 -1.253788 -4.069822 3.972744 -0.4278203 -4.069822 -3.972744 -0.9686149 -4.069822 -3.972744 -0.3508855 -4.069822 -4.391451 -0.802337 -4.069822 4.391451 -0.802337 -4.029041 -3.972744 -0.9686149 -4.029041 -3.972744 -0.4684514 -2.912953 3.972744 -1.253788 -2.912953 3.972744 -0.5453864 -4.024743 -4.391451 -0.802337 -2.825203 4.391451 -0.802337 4.029055 -3.972744 -0.9686149 4.029055 -3.972744 -0.4684514 2.912967 3.972744 -1.253788 2.912967 3.972744 -0.5453864 4.024757 -4.391451 -0.802337 2.825218 4.391451 -0.802337 4.069836 3.972744 -1.253788 4.069836 3.972744 -0.4278203 4.069836 -3.972744 -0.9686149 4.069836 -3.972744 -0.3508855 4.069836 -4.391451 -0.802337 4.069836 4.391451 -0.802337 4.110617 -3.972744 -0.9686149 4.110617 -3.972744 -0.4684514 5.226705 3.972744 -1.253788 5.226705 3.972744 -0.5453864 4.114915 -4.391451 -0.802337 5.314455 4.391451 -0.802337 0 5.256165 -0.9805985 -3.316099 5.256165 -0.9805985 0 6.338009 -0.4341839 -7.464342 6.338009 -0.4341839 3.316099 5.256165 -0.9805985 7.464342 6.338009 -0.4341839 0 4.860312 -0.842526 0 5.628632 -0.5722563 -2.354539 4.860312 -0.842526 -4.406361 5.628632 -0.5722563 2.354539 4.860312 -0.842526 4.406361 5.628632 -0.5722563 -6.280215 2.220752 -0.4350386 -3.30327 -2.220752 -0.3190044 -3.30327 -2.220752 0.3762596 -6.280215 2.220752 0.3449556 -3.560256 -2.454808 0 -6.759793 2.454808 0 0 2.220752 0.867493 0 -2.220752 0.8987971 0 2.220752 -0.4350386 0 -2.220752 -0.3190044 6.280215 2.220752 -0.4350386 3.30327 -2.220752 -0.3190044 3.30327 -2.220752 0.3762596 6.280215 2.220752 0.3449556 3.560256 -2.454808 0 6.759793 2.454808 0 -4.62858 6.662256 -0.5510727 -0.1631629 -6.662256 0.4657229 -0.1803594 -7.364426 0 -4.62858 6.662256 0.7644345 -0.1631629 -6.662256 -0.2029703 -4.979664 7.364426 0 -3.140107 2.220752 -0.4350386 -1.651635 -2.220752 -0.3190044 -3.140107 2.220752 0.7957385 -1.651635 -2.220752 0.8270425 4.62858 6.662256 -0.5510727 0.1631629 -6.662256 0.4657229 0.1803594 -7.364426 0 4.62858 6.662256 0.7644345 0.1631629 -6.662256 -0.2029703 4.979664 7.364426 0 3.140107 2.220752 -0.4350386 1.651635 -2.220752 -0.3190044 3.140107 2.220752 0.7957385 1.651635 -2.220752 0.8270425</float_array>
          <technique_common>
            <accessor source="#Cube_003-mesh-positions-array" count="132" stride="3">
              <param name="X" type="float"/>
              <param name="Y" type="float"/>
              <param name="Z" type="float"/>
            </accessor>
          </technique_common>
        </source>
        <source id="Cube_003-mesh-normals">
          <float_array id="Cube_003-mesh-normals-array" count="717">-0.8294224 -0.5551977 0.06175923 -0.7000238 -0.4564464 0.5492027 -0.8377127 -0.5459269 0.01418685 -0.02308255 -0.9900717 -0.1386554 -0.2518243 -0.5244466 0.8133513 0 -0.9929672 -0.1183897 -0.2001524 -0.1227776 0.9720416 -0.3196062 -0.1831713 0.9296774 -0.333796 -0.1234472 0.9345272 0 -0.277693 -0.9606699 0 -0.2776929 -0.9606699 0 0 -1 0 0.01878249 0.9998236 0 0.01878249 0.9998236 0 0.01878249 0.9998236 -0.7825372 -0.5110573 -0.3556067 -0.7044364 -0.4671148 -0.5343905 -0.5578956 -0.2291959 -0.7976351 -0.1864414 -0.1294725 -0.9738976 -0.7318285 -0.2692342 -0.6260511 0 -0.4380632 -0.8989442 0 -0.4380633 -0.8989442 0 -0.4380634 -0.8989442 0 0.6173839 -0.7866621 0 0.9949705 -0.1001693 0 0.617384 -0.7866621 0 0 1 0 -0.02611601 -0.999659 0 -0.02611601 -0.999659 0 -0.02611601 -0.999659 -0.02641826 0.7325904 0.680157 -0.02788734 0.9975494 -0.06416702 0.8294224 -0.5551976 0.06175917 0.7000238 -0.4564464 0.5492027 0.6548579 -0.4288421 0.6222987 0.02308255 -0.9900717 -0.1386553 0.2518243 -0.5244466 0.8133513 0.2901918 -0.5536369 0.7805607 0.2001524 -0.1227776 0.9720416 0.3196062 -0.1831713 0.9296774 0.2376402 -0.1101714 0.9650853 0 -0.2776929 -0.96067 0.7825372 -0.5110574 -0.3556065 0.7044364 -0.4671148 -0.5343906 0.1864414 -0.1294725 -0.9738976 0.5578956 -0.2291959 -0.7976351 0.7318285 -0.2692342 -0.6260511 0 0.617384 -0.786662 0.02788734 0.9975494 -0.06416708 -0.1305936 0 0.991436 -0.1305937 0 0.9914361 -0.1305938 0 0.991436 0 -0.02611601 -0.999659 0.02641826 0.7325905 0.6801568 -0.5349016 -0.575986 0.618159 -0.8374726 -0.1103173 0.5352287 -0.9907787 -0.1353172 0.006844162 -0.09478992 -0.6262837 0.7738112 -0.9381736 -0.1778649 0.2969754 -0.1100838 -0.004517555 0.9939121 -0.9447697 0.003173232 0.3277199 0 -0.3690832 -0.9293965 0 -0.3690836 -0.9293963 0 -0.3690835 -0.9293963 -0.9883784 -0.1351352 -0.0696181 -0.9135249 -0.1420023 -0.3811923 0 0.733196 -0.6800174 0 0.9976215 0.06892973 0 0.7331963 -0.6800171 0 -0.03586816 -0.9993566 -0.01937645 0.5612877 0.8273941 0 0.9926782 0.1207903 0.5349016 -0.5759862 0.6181588 0.8374726 -0.1103173 0.5352289 0.9381736 -0.1778649 0.2969754 0.09478992 -0.626284 0.7738109 0.8907988 -0.3331629 0.3089984 0.1100838 -0.004517555 0.9939121 0 -0.3690835 -0.9293962 0.9883784 -0.1351352 -0.06961727 0.9135248 -0.1420024 -0.3811926 0 0.9926781 0.1207904 0 -0.03586816 -0.9993566 0.01937645 0.5612874 0.8273942 -0.5349007 -0.5759906 0.6181554 -0.8374729 -0.1103174 0.5352282 -0.9907787 -0.1353172 0.006844103 -0.09478992 -0.6262891 0.7738068 -0.9381738 -0.1778649 0.296975 -0.1100838 -0.004517555 0.9939121 -0.9447696 0.003173291 0.3277199 0 -0.3690858 -0.9293954 0 -0.369084 -0.9293962 0 -0.3690839 -0.9293961 -0.9883785 -0.1351351 -0.06961631 -0.9135253 -0.1420026 -0.3811913 0 0.7331959 -0.6800176 0 0.9976215 0.06892955 0 0.7331964 -0.680017 0 -0.03586816 -0.9993566 0 -0.03586858 -0.9993565 0 -0.03586816 -0.9993566 -0.01937645 0.5612875 0.8273941 0 0.9926782 0.1207902 0.5349016 -0.5759872 0.6181579 0.8374732 -0.1103174 0.5352277 0.9381736 -0.1778652 0.2969755 0.09478992 -0.6262851 0.77381 0.8907989 -0.3331633 0.308998 0.1100838 -0.004517555 0.9939121 0 -0.3690841 -0.929396 0.9883785 -0.1351352 -0.06961667 0.9135243 -0.1420025 -0.3811937 0 0.7331961 -0.6800173 0 0.9926782 0.1207901 0 -0.03586786 -0.9993566 0.01937645 0.5612878 0.8273938 -0.8374733 -0.1103174 0.5352276 -0.9907787 -0.1353173 0.006844043 -0.09478992 -0.6262891 0.7738067 -0.9381737 -0.1778652 0.296975 -0.1100838 -0.004517555 0.9939121 -0.9447696 0.003173232 0.3277199 -0.9883785 -0.1351353 -0.06961661 -0.9135253 -0.1420025 -0.3811914 0 0.9976215 0.06892955 -0.01937645 0.5612875 0.827394 0 0.9926781 0.1207904 0.5349016 -0.5759871 0.6181579 0.837473 -0.1103173 0.5352283 0.9381736 -0.1778648 0.2969756 0.09478998 -0.626285 0.7738102 0.8907992 -0.3331624 0.3089981 0.1100838 -0.004517555 0.9939121 0.9883785 -0.1351351 -0.06961679 0.9135243 -0.1420024 -0.3811936 0.01937645 0.5612877 0.827394 0 0.3318355 -0.9433373 -0.009495913 0.3524417 -0.9357857 0 0.3318356 -0.9433373 0.01021265 0.4363365 -0.8997257 0 0.331836 -0.9433372 0 0.3318361 -0.9433372 -0.03532749 0.4424914 -0.8960767 0.009495913 0.3524415 -0.9357857 -0.01021265 0.436336 -0.8997259 0.03532749 0.4424909 -0.8960769 0 0.3318353 -0.9433373 0 0.3318353 -0.9433373 0 0.3318354 -0.9433374 0 0.3318353 -0.9433375 0.1305937 0 0.9914361 0.1305936 0 0.991436 0.1305938 0 0.991436 0 -0.02611601 -0.999659 0 -0.02611601 -0.999659 0.3772762 -0.2469236 -0.8925757 0.8258775 -0.5622662 -0.04222726 0.836686 -0.5452579 -0.05148136 0.5550138 -0.3911802 -0.7341238 0.1131575 -0.05163258 0.9922346 0.1282327 -0.060696 0.989885 0.09677016 -0.05785763 0.9936237 0.1562409 -0.06838995 0.9853485 0.5901857 -0.3848912 0.7096053 0.6156573 -0.4078959 0.6742307 0 -0.02611601 -0.999659 -0.3772762 -0.2469236 -0.8925757 -0.8258775 -0.5622662 -0.04222732 -0.5550138 -0.3911802 -0.7341238 -0.1131575 -0.05163258 0.9922346 -0.1282327 -0.060696 0.989885 -0.1562409 -0.06838995 0.9853485 -0.2376402 -0.1101714 0.9650853 -0.5901856 -0.3848912 0.7096054 -0.836686 -0.5452579 -0.0514813 -0.6548579 -0.4288421 0.6222987 -0.02517706 0.0040856 0.9996747 -0.03602945 0.0042966 0.9993415 -0.04340261 0.007041215 0.9990329 -0.01837849 0.003887653 0.9998236 -0.02065014 0.00245434 0.9997838 0 -0.02611601 -0.999659 0 -0.02611601 -0.999659 -0.006719946 0.4416828 0.8971462 0 0.9986154 0.05260729 0 -0.02611607 -0.999659 0 -0.9877949 -0.1557607 0 -0.277693 -0.9606699 -0.05239713 -0.09500575 0.9940969 -0.4014523 -0.07426214 0.9128643 -0.2901918 -0.5536369 0.7805607 0.02517706 0.0040856 0.9996747 0.03602945 0.0042966 0.9993415 0.02065014 0.00245434 0.9997838 0.01837849 0.003887653 0.9998236 0.0155006 0.001852512 0.9998782 0.006719946 0.4416829 0.8971461 0 0.9986153 0.05260735 0 -0.02611607 -0.999659 0.05239713 -0.09500575 0.9940969 0.333796 -0.1234472 0.9345272 0.3296867 -0.5738412 0.7496753 0 0.01878249 0.9998236 -0.1608527 -0.122106 -0.9793961 0 -0.4380632 -0.8989443 0 -0.02611601 -0.999659 0 0.7658085 0.6430687 0.8377128 -0.5459268 0.01418703 0 -0.9929672 -0.1183897 0.1608527 -0.122106 -0.9793961 -0.1305935 0 0.991436 -0.8907988 -0.3331629 0.3089984 0 -0.3690831 -0.9293965 0 -0.03586816 -0.9993566 0 0.6666799 0.7453442 0.9907787 -0.1353172 0.006844162 0.9447697 0.003173232 0.3277198 0 -0.3690834 -0.9293964 -0.8907992 -0.3331624 0.3089981 0 -0.369085 -0.9293956 0 -0.03586822 -0.9993566 0 0.66668 0.7453441 0.9907787 -0.1353172 0.006844043 0.9447696 0.003173172 0.3277199 0 -0.3690867 -0.929395 -0.8907989 -0.3331633 0.308998 0 0.6666802 0.7453439 0.9907787 -0.1353171 0.006844103 0.9447696 0.003173291 0.3277199 0.01723581 0.4486084 -0.8935623 -0.01723581 0.4486079 -0.8935626 0.1305935 0 0.991436 -0.09677016 -0.05785763 0.9936237 -0.6156574 -0.4078959 0.6742306 -0.0155006 0.001852512 0.9998782 -0.3296867 -0.5738412 0.7496753 0.04340261 0.007041215 0.9990329 0.4014523 -0.07426214 0.9128643</float_array>
          <technique_common>
            <accessor source="#Cube_003-mesh-normals-array" count="239" stride="3">
              <param name="X" type="float"/>
              <param name="Y" type="float"/>
              <param name="Z" type="float"/>
            </accessor>
          </technique_common>
        </source>
        <source id="Cube_003-mesh-map-0">
          <float_array id="Cube_003-mesh-map-0-array" count="1464">0.3337423 0.5582324 0.2996606 0.6036746 0.3337423 0.6036746 0.3337423 0.533842 0.2996606 0.5321726 0.3337423 0.5321726 0.1243544 0.6151462 0.1840141 0.5911608 0.1840141 0.5867775 0.3337423 0.533842 0.3678238 0.5321726 0.3678238 0.533842 0.7176094 0.5576085 0.7161788 0.4407839 0.6884033 0.5576085 0.7155087 0.4134221 0.7176094 0.5849702 0.6747224 0.5849702 0.3337423 0.5582324 0.3678238 0.6036746 0.3678238 0.5582324 0.6633788 0.5910042 0.7354719 0.4298061 0.6770596 0.4298061 0.7176094 0.5910042 0.7161788 0.4298061 0.7176094 0.4298061 0.3678238 0.5014297 0.3337423 0.5355114 0.3678238 0.5355114 0.7176094 0.4592094 0.699468 0.4592095 0.7176094 0.4592094 0.3451028 0.5355114 0.3678238 0.533842 0.3451028 0.5230379 0.2996606 0.5014297 0.3337423 0.5355114 0.3337423 0.5014297 0.3337423 0.5582324 0.2996606 0.6036746 0.2996606 0.5582324 0.3337423 0.533842 0.2996606 0.5321726 0.2996606 0.533842 0.1243544 0.6151462 0.1840141 0.5911608 0.1243544 0.6478982 0.3678238 0.5321726 0.3337423 0.533842 0.3678238 0.533842 0.7161788 0.4407839 0.7176094 0.5576085 0.6884033 0.5576085 0.7176094 0.5849702 0.7155087 0.4134221 0.6747224 0.5849702 0.3678238 0.6036746 0.3337423 0.5582324 0.3678238 0.5582324 0.7354719 0.4298061 0.6633788 0.5910042 0.6770596 0.4298061 0.7161788 0.4298061 0.7176094 0.5910042 0.7176094 0.4298061 0.3678238 0.5014297 0.3337423 0.5355114 0.3337423 0.5014297 0.699468 0.4592095 0.690319 0.5167649 0.690319 0.5167649 0.3678238 0.533842 0.3451028 0.5355114 0.3451028 0.5230379 0.3337423 0.5355114 0.2996606 0.5014297 0.3337423 0.5014297 0.9432647 0.5114216 0.95398 0.4897054 0.9432647 0.4897054 0.9432647 0.5005635 0.95398 0.5010954 0.9432647 0.5010954 0.8816624 0.4988605 0.825391 0.497464 0.825391 0.4988605 0.9432647 0.5005635 0.9325494 0.5010954 0.9325494 0.5005635 0.9432647 0.5114216 0.9325494 0.4897054 0.9325494 0.5114216 0.9325494 0.5114216 0.9432647 0.5005635 0.9325494 0.5005635 0.95398 0.5005635 0.9325494 0.5010954 0.95398 0.5114216 0.95398 0.5114216 0.9432647 0.5005635 0.9432647 0.5114216 0.9432647 0.5114216 0.95398 0.4897054 0.95398 0.5114216 0.9432647 0.5005635 0.95398 0.5010954 0.95398 0.5005635 0.8816624 0.4988605 0.825391 0.497464 0.8816624 0.4703501 0.9325494 0.5010954 0.9432647 0.5005635 0.9325494 0.5005635 0.9325494 0.4897054 0.9432647 0.5114216 0.9325494 0.5114216 0.9325494 0.5114216 0.9432647 0.5005635 0.9432647 0.5114216 0.9325494 0.5010954 0.95398 0.5005635 0.95398 0.5114216 0.9432647 0.5005635 0.95398 0.5114216 0.9432647 0.5114216 0.9432647 0.5114216 0.95398 0.4897054 0.9432647 0.4897054 0.9432647 0.5005635 0.95398 0.5010954 0.9432647 0.5010954 0.8816624 0.4988605 0.825391 0.497464 0.825391 0.4988605 0.9432647 0.5005635 0.9325494 0.5010954 0.9325494 0.5005635 0.9432647 0.5114216 0.9325494 0.4897054 0.9325494 0.5114216 0.9325494 0.5114216 0.9432647 0.5005635 0.9325494 0.5005635 0.95398 0.5005635 0.9325494 0.5010954 0.95398 0.5114216 0.95398 0.5114216 0.9432647 0.5005635 0.9432647 0.5114216 0.9432647 0.5114216 0.95398 0.4897054 0.95398 0.5114216 0.9432647 0.5005635 0.95398 0.5010954 0.95398 0.5005635 0.8816624 0.4988605 0.825391 0.497464 0.8816624 0.4703501 0.9325494 0.5010954 0.9432647 0.5005635 0.9325494 0.5005635 0.9325494 0.4897054 0.9432647 0.5114216 0.9325494 0.5114216 0.9325494 0.5114216 0.9432647 0.5005635 0.9432647 0.5114216 0.9325494 0.5010954 0.95398 0.5005635 0.95398 0.5114216 0.9432647 0.5005635 0.95398 0.5114216 0.9432647 0.5114216 0.9432647 0.5114216 0.95398 0.4897054 0.9432647 0.4897054 0.9432647 0.5005635 0.95398 0.5010954 0.9432647 0.5010954 0.8816624 0.4988605 0.825391 0.497464 0.825391 0.4988605 0.9432647 0.5005635 0.9325494 0.5010954 0.9325494 0.5005635 0.9432647 0.5114216 0.9325494 0.4897054 0.9325494 0.5114216 0.9325494 0.5114216 0.9432647 0.5005635 0.9325494 0.5005635 0.95398 0.5005635 0.9325494 0.5010954 0.95398 0.5114216 0.95398 0.5114216 0.9432647 0.5005635 0.9432647 0.5114216 0.9432647 0.5114216 0.95398 0.4897054 0.95398 0.5114216 0.9432647 0.5005635 0.95398 0.5010954 0.95398 0.5005635 0.8816624 0.4988605 0.825391 0.497464 0.8816624 0.4703501 0.9325494 0.5010954 0.9432647 0.5005635 0.9325494 0.5005635 0.9325494 0.4897054 0.9432647 0.5114216 0.9325494 0.5114216 0.9325494 0.5114216 0.9432647 0.5005635 0.9432647 0.5114216 0.9325494 0.5010954 0.95398 0.5005635 0.95398 0.5114216 0.9432647 0.5005635 0.95398 0.5114216 0.9432647 0.5114216 0.7176094 0.4298061 0.699468 0.4592095 0.7176094 0.4592094 0.6903189 0.5167649 0.7176094 0.5461682 0.7176094 0.5167649 0.6884033 0.4298061 0.6903189 0.5167649 0.699468 0.4592095 0.699468 0.4592095 0.7176094 0.4298061 0.7176094 0.4592094 0.7176094 0.5461682 0.690319 0.5167649 0.7176094 0.5167649 0.690319 0.5167649 0.6884033 0.4298061 0.699468 0.4592095 0.8764765 0.6535963 0.8870609 0.6871766 0.8870609 0.6535962 0.8764765 0.6535963 0.8870609 0.6871766 0.8711385 0.6871766 0.7176094 0.5167649 0.6903189 0.5167649 0.7176094 0.5167649 0.690319 0.5167649 0.7176094 0.5167649 0.690319 0.5167649 0.6903189 0.5167649 0.699468 0.4592095 0.6903189 0.5167649 0.699468 0.4592095 0.7176094 0.4592094 0.699468 0.4592095 0.3223817 0.5122339 0.2996606 0.5355114 0.2996606 0.5014297 0.3451028 0.5230379 0.3223817 0.5355114 0.3223817 0.5122339 0.3678238 0.4673481 0.3337423 0.5127903 0.3337423 0.4673481 0.3678238 0.5582324 0.3337423 0.5127903 0.3678238 0.5127903 0.005035102 0.6718836 0.06469476 0.7046356 0.005035102 0.7613731 0.06469476 0.6435149 0.1243544 0.6478982 0.06469476 0.7046356 0.3337423 0.5127903 0.2996606 0.4673481 0.3337423 0.4673481 0.3337423 0.5127903 0.2996606 0.5582324 0.2996606 0.5127903 0.2996606 0.5355114 0.3223817 0.5122339 0.2996606 0.5014297 0.3223817 0.5355114 0.3451028 0.5230379 0.3223817 0.5122339 0.3678238 0.4673481 0.3337423 0.5127903 0.3678238 0.5127903 0.3337423 0.5127903 0.3678238 0.5582324 0.3678238 0.5127903 0.005035102 0.6718836 0.06469476 0.7046356 0.06469476 0.6435149 0.06469476 0.6435149 0.1243544 0.6478982 0.1243544 0.6151462 0.2996606 0.4673481 0.3337423 0.5127903 0.3337423 0.4673481 0.3337423 0.5127903 0.2996606 0.5582324 0.3337423 0.5582324 0.06469476 0.5823941 0.1243544 0.6151462 0.1243544 0.5823941 0.005035102 0.5823941 0.06469476 0.6435149 0.06469476 0.5823941 0.3223817 0.5122339 0.3451028 0.5105645 0.3223817 0.4889563 0.2996606 0.5014297 0.3223817 0.4889563 0.2996606 0.4673481 0.2996606 0.4673481 0.3337423 0.5014297 0.3337423 0.4673481 0.3451028 0.5230379 0.3678238 0.5321726 0.3451028 0.5105645 0.3678238 0.4673481 0.3337423 0.5014297 0.3678238 0.5014297 0.3337423 0.5355114 0.3678238 0.533842 0.3678238 0.5355114 0.1243544 0.5823941 0.1840141 0.5867775 0.1840141 0.5823941 0.3337423 0.5355114 0.2996606 0.533842 0.3337423 0.533842 0.06469476 0.5823941 0.1243544 0.6151462 0.06469476 0.6435149 0.005035102 0.5823941 0.06469476 0.6435149 0.005035102 0.6718836 0.3451028 0.5105645 0.3223817 0.5122339 0.3223817 0.4889563 0.3223817 0.4889563 0.2996606 0.5014297 0.2996606 0.4673481 0.3337423 0.5014297 0.2996606 0.4673481 0.3337423 0.4673481 0.3678238 0.5321726 0.3451028 0.5230379 0.3451028 0.5105645 0.3678238 0.4673481 0.3337423 0.5014297 0.3337423 0.4673481 0.3678238 0.533842 0.3337423 0.5355114 0.3678238 0.5355114 0.1243544 0.5823941 0.1840141 0.5867775 0.1243544 0.6151462 0.3337423 0.5355114 0.2996606 0.533842 0.2996606 0.5355114 0.3337423 0.5582324 0.2996606 0.5582324 0.2996606 0.6036746 0.3337423 0.533842 0.2996606 0.533842 0.2996606 0.5321726 0.1243544 0.6151462 0.1243544 0.6478982 0.1840141 0.5911608 0.3337423 0.533842 0.3337423 0.5321726 0.3678238 0.5321726 0.7176094 0.5576085 0.7176094 0.4407839 0.7161788 0.4407839 0.7155087 0.4134221 0.7176094 0.4134221 0.7176094 0.5849702 0.3337423 0.5582324 0.3337423 0.6036746 0.3678238 0.6036746 0.6633788 0.5910042 0.7491528 0.5461682 0.7354719 0.4298061 0.7176094 0.5910042 0.7155087 0.5910042 0.7161788 0.4298061 0.3678238 0.5014297 0.3337423 0.5014297 0.3337423 0.5355114 0.7176094 0.4592094 0.699468 0.4592095 0.699468 0.4592095 0.3451028 0.5355114 0.3678238 0.5355114 0.3678238 0.533842 0.2996606 0.5014297 0.2996606 0.5355114 0.3337423 0.5355114 0.3337423 0.5582324 0.3337423 0.6036746 0.2996606 0.6036746 0.3337423 0.533842 0.3337423 0.5321726 0.2996606 0.5321726 0.1243544 0.6151462 0.1840141 0.5867775 0.1840141 0.5911608 0.3678238 0.5321726 0.3337423 0.5321726 0.3337423 0.533842 0.7161788 0.4407839 0.7176094 0.4407839 0.7176094 0.5576085 0.7176094 0.5849702 0.7176094 0.4134221 0.7155087 0.4134221 0.3678238 0.6036746 0.3337423 0.6036746 0.3337423 0.5582324 0.7354719 0.4298061 0.7491528 0.5461682 0.6633788 0.5910042 0.7161788 0.4298061 0.7155087 0.5910042 0.7176094 0.5910042 0.3678238 0.5014297 0.3678238 0.5355114 0.3337423 0.5355114 0.699468 0.4592095 0.699468 0.4592095 0.690319 0.5167649 0.3678238 0.533842 0.3678238 0.5355114 0.3451028 0.5355114 0.3337423 0.5355114 0.2996606 0.5355114 0.2996606 0.5014297 0.9432647 0.5114216 0.95398 0.5114216 0.95398 0.4897054 0.9432647 0.5005635 0.95398 0.5005635 0.95398 0.5010954 0.8816624 0.4988605 0.8816624 0.4703501 0.825391 0.497464 0.9432647 0.5005635 0.9432647 0.5010954 0.9325494 0.5010954 0.9432647 0.5114216 0.9432647 0.4897054 0.9325494 0.4897054 0.9325494 0.5114216 0.9432647 0.5114216 0.9432647 0.5005635 0.95398 0.5005635 0.9325494 0.5005635 0.9325494 0.5010954 0.95398 0.5114216 0.95398 0.5005635 0.9432647 0.5005635 0.9432647 0.5114216 0.9432647 0.4897054 0.95398 0.4897054 0.9432647 0.5005635 0.9432647 0.5010954 0.95398 0.5010954 0.8816624 0.4988605 0.825391 0.4988605 0.825391 0.497464 0.9325494 0.5010954 0.9432647 0.5010954 0.9432647 0.5005635 0.9325494 0.4897054 0.9432647 0.4897054 0.9432647 0.5114216 0.9325494 0.5114216 0.9325494 0.5005635 0.9432647 0.5005635 0.9325494 0.5010954 0.9325494 0.5005635 0.95398 0.5005635 0.9432647 0.5005635 0.95398 0.5005635 0.95398 0.5114216 0.9432647 0.5114216 0.95398 0.5114216 0.95398 0.4897054 0.9432647 0.5005635 0.95398 0.5005635 0.95398 0.5010954 0.8816624 0.4988605 0.8816624 0.4703501 0.825391 0.497464 0.9432647 0.5005635 0.9432647 0.5010954 0.9325494 0.5010954 0.9432647 0.5114216 0.9432647 0.4897054 0.9325494 0.4897054 0.9325494 0.5114216 0.9432647 0.5114216 0.9432647 0.5005635 0.95398 0.5005635 0.9325494 0.5005635 0.9325494 0.5010954 0.95398 0.5114216 0.95398 0.5005635 0.9432647 0.5005635 0.9432647 0.5114216 0.9432647 0.4897054 0.95398 0.4897054 0.9432647 0.5005635 0.9432647 0.5010954 0.95398 0.5010954 0.8816624 0.4988605 0.825391 0.4988605 0.825391 0.497464 0.9325494 0.5010954 0.9432647 0.5010954 0.9432647 0.5005635 0.9325494 0.4897054 0.9432647 0.4897054 0.9432647 0.5114216 0.9325494 0.5114216 0.9325494 0.5005635 0.9432647 0.5005635 0.9325494 0.5010954 0.9325494 0.5005635 0.95398 0.5005635 0.9432647 0.5005635 0.95398 0.5005635 0.95398 0.5114216 0.9432647 0.5114216 0.95398 0.5114216 0.95398 0.4897054 0.9432647 0.5005635 0.95398 0.5005635 0.95398 0.5010954 0.8816624 0.4988605 0.8816624 0.4703501 0.825391 0.497464 0.9432647 0.5005635 0.9432647 0.5010954 0.9325494 0.5010954 0.9432647 0.5114216 0.9432647 0.4897054 0.9325494 0.4897054 0.9325494 0.5114216 0.9432647 0.5114216 0.9432647 0.5005635 0.95398 0.5005635 0.9325494 0.5005635 0.9325494 0.5010954 0.95398 0.5114216 0.95398 0.5005635 0.9432647 0.5005635 0.9432647 0.5114216 0.9432647 0.4897054 0.95398 0.4897054 0.9432647 0.5005635 0.9432647 0.5010954 0.95398 0.5010954 0.8816624 0.4988605 0.825391 0.4988605 0.825391 0.497464 0.9325494 0.5010954 0.9432647 0.5010954 0.9432647 0.5005635 0.9325494 0.4897054 0.9432647 0.4897054 0.9432647 0.5114216 0.9325494 0.5114216 0.9325494 0.5005635 0.9432647 0.5005635 0.9325494 0.5010954 0.9325494 0.5005635 0.95398 0.5005635 0.9432647 0.5005635 0.95398 0.5005635 0.95398 0.5114216 0.7176094 0.4298061 0.6884033 0.4298061 0.699468 0.4592095 0.6903189 0.5167649 0.6747224 0.5461682 0.7176094 0.5461682 0.6884033 0.4298061 0.6747224 0.5461682 0.6903189 0.5167649 0.699468 0.4592095 0.6884033 0.4298061 0.7176094 0.4298061 0.7176094 0.5461682 0.6747224 0.5461682 0.690319 0.5167649 0.690319 0.5167649 0.6747224 0.5461682 0.6884033 0.4298061 0.8764765 0.6535963 0.8711385 0.6871766 0.8870609 0.6871766 0.8764765 0.6535963 0.8870609 0.6535962 0.8870609 0.6871766 0.7176094 0.5167649 0.6903189 0.5167649 0.6903189 0.5167649 0.690319 0.5167649 0.7176094 0.5167649 0.7176094 0.5167649 0.6903189 0.5167649 0.699468 0.4592095 0.699468 0.4592095 0.699468 0.4592095 0.7176094 0.4592094 0.7176094 0.4592094 0.3223817 0.5122339 0.3223817 0.5355114 0.2996606 0.5355114 0.3451028 0.5230379 0.3451028 0.5355114 0.3223817 0.5355114 0.3678238 0.4673481 0.3678238 0.5127903 0.3337423 0.5127903 0.3678238 0.5582324 0.3337423 0.5582324 0.3337423 0.5127903 0.005035102 0.6718836 0.06469476 0.6435149 0.06469476 0.7046356 0.06469476 0.6435149 0.1243544 0.6151462 0.1243544 0.6478982 0.3337423 0.5127903 0.2996606 0.5127903 0.2996606 0.4673481 0.3337423 0.5127903 0.3337423 0.5582324 0.2996606 0.5582324 0.2996606 0.5355114 0.3223817 0.5355114 0.3223817 0.5122339 0.3223817 0.5355114 0.3451028 0.5355114 0.3451028 0.5230379 0.3678238 0.4673481 0.3337423 0.4673481 0.3337423 0.5127903 0.3337423 0.5127903 0.3337423 0.5582324 0.3678238 0.5582324 0.005035102 0.6718836 0.005035102 0.7613731 0.06469476 0.7046356 0.06469476 0.6435149 0.06469476 0.7046356 0.1243544 0.6478982 0.2996606 0.4673481 0.2996606 0.5127903 0.3337423 0.5127903 0.3337423 0.5127903 0.2996606 0.5127903 0.2996606 0.5582324 0.06469476 0.5823941 0.06469476 0.6435149 0.1243544 0.6151462 0.005035102 0.5823941 0.005035102 0.6718836 0.06469476 0.6435149 0.3223817 0.5122339 0.3451028 0.5230379 0.3451028 0.5105645 0.2996606 0.5014297 0.3223817 0.5122339 0.3223817 0.4889563 0.2996606 0.4673481 0.2996606 0.5014297 0.3337423 0.5014297 0.3451028 0.5230379 0.3678238 0.533842 0.3678238 0.5321726 0.3678238 0.4673481 0.3337423 0.4673481 0.3337423 0.5014297 0.3337423 0.5355114 0.3337423 0.533842 0.3678238 0.533842 0.1243544 0.5823941 0.1243544 0.6151462 0.1840141 0.5867775 0.3337423 0.5355114 0.2996606 0.5355114 0.2996606 0.533842 0.06469476 0.5823941 0.1243544 0.5823941 0.1243544 0.6151462 0.005035102 0.5823941 0.06469476 0.5823941 0.06469476 0.6435149 0.3451028 0.5105645 0.3451028 0.5230379 0.3223817 0.5122339 0.3223817 0.4889563 0.3223817 0.5122339 0.2996606 0.5014297 0.3337423 0.5014297 0.2996606 0.5014297 0.2996606 0.4673481 0.3678238 0.5321726 0.3678238 0.533842 0.3451028 0.5230379 0.3678238 0.4673481 0.3678238 0.5014297 0.3337423 0.5014297 0.3678238 0.533842 0.3337423 0.533842 0.3337423 0.5355114 0.1243544 0.5823941 0.1840141 0.5823941 0.1840141 0.5867775 0.3337423 0.5355114 0.3337423 0.533842 0.2996606 0.533842</float_array>
          <technique_common>
            <accessor source="#Cube_003-mesh-map-0-array" count="732" stride="2">
              <param name="S" type="float"/>
              <param name="T" type="float"/>
            </accessor>
          </technique_common>
        </source>
        <vertices id="Cube_003-mesh-vertices">
          <input semantic="POSITION" source="#Cube_003-mesh-positions"/>
        </vertices>
        <triangles material="Material-material" count="244">
          <input semantic="VERTEX" source="#Cube_003-mesh-vertices" offset="0"/>
          <input semantic="NORMAL" source="#Cube_003-mesh-normals" offset="1"/>
          <input semantic="TEXCOORD" source="#Cube_003-mesh-map-0" offset="2" set="0"/>
          <p>101 0 0 3 1 1 7 2 2 114 3 3 1 4 4 6 5 5 121 6 6 1 7 7 113 8 8 114 3 9 0 9 10 116 10 11 84 11 12 9 11 13 85 11 14 12 12 15 86 13 16 87 14 17 101 0 18 2 15 19 96 16 20 12 17 21 85 18 22 9 19 23 19 20 24 9 21 25 5 22 26 112 23 27 18 24 28 13 25 29 90 26 30 27 26 31 8 26 32 105 27 33 116 28 34 119 29 35 115 30 36 18 24 37 117 31 38 111 32 39 23 33 40 109 34 41 124 35 42 21 36 43 123 37 44 131 38 45 21 39 46 108 40 47 20 41 48 124 35 49 126 41 50 26 11 51 84 11 52 88 11 53 86 13 54 29 12 55 89 14 56 22 42 57 111 32 58 106 43 59 88 44 60 29 45 61 26 46 62 26 21 63 19 20 64 5 22 65 122 47 66 18 24 67 127 48 68 27 49 69 95 50 70 28 51 71 126 52 72 105 27 73 129 29 74 18 24 75 125 53 76 127 48 77 34 54 78 33 55 79 35 56 80 40 57 81 31 58 82 34 54 83 37 59 84 31 58 85 39 60 86 40 61 87 30 62 88 38 63 89 34 54 90 32 64 91 30 65 92 32 66 93 41 67 94 36 68 95 36 69 96 30 69 97 32 69 98 33 70 99 41 67 100 35 71 101 46 72 102 45 73 103 43 74 104 40 75 105 43 74 106 39 76 107 37 77 108 43 74 109 45 73 110 42 78 111 40 61 112 38 63 113 44 79 114 46 72 115 42 80 116 44 66 117 41 67 118 47 81 119 42 82 120 36 69 121 44 69 122 41 67 123 45 83 124 47 81 125 52 84 126 51 85 127 53 86 128 58 87 129 49 88 130 52 84 131 55 89 132 49 88 133 57 90 134 58 91 135 48 92 136 56 93 137 52 84 138 50 94 139 48 95 140 50 96 141 59 97 142 54 98 143 54 99 144 48 100 145 50 101 146 51 102 147 59 97 148 53 103 149 64 104 150 63 105 151 61 106 152 58 107 153 61 106 154 57 108 155 55 109 156 61 106 157 63 105 158 60 110 159 58 91 160 56 93 161 62 111 162 64 104 163 60 112 164 62 113 165 59 97 166 65 114 167 60 115 168 54 99 169 62 99 170 59 97 171 63 116 172 65 114 173 70 84 174 69 117 175 71 118 176 76 119 177 67 120 178 70 84 179 73 121 180 67 120 181 75 122 182 76 91 183 66 92 184 74 93 185 70 84 186 68 123 187 66 124 188 68 113 189 77 125 190 72 98 191 72 101 192 66 100 193 68 82 194 69 126 195 77 125 196 71 127 197 82 128 198 81 129 199 79 130 200 76 131 201 79 130 202 75 132 203 73 133 204 79 130 205 81 129 206 78 110 207 76 91 208 74 93 209 80 134 210 82 128 211 78 135 212 80 96 213 77 125 214 83 114 215 78 115 216 72 101 217 80 101 218 77 125 219 81 136 220 83 114 221 84 137 222 10 138 223 8 139 224 11 140 225 86 141 226 4 142 227 85 143 228 11 140 229 10 138 230 27 144 231 84 137 232 8 139 233 86 141 234 28 145 235 4 142 236 28 145 237 88 146 238 27 144 239 92 147 240 91 148 241 90 149 242 94 147 243 91 148 244 95 150 245 91 11 246 11 11 247 4 11 248 95 11 249 4 11 250 28 11 251 93 151 252 10 152 253 11 153 254 92 26 255 8 26 256 10 26 257 128 154 258 13 155 259 122 154 260 129 29 261 104 155 262 128 154 263 20 156 264 110 157 265 24 158 266 106 43 267 110 157 268 107 159 269 125 160 270 109 161 271 23 162 272 130 163 273 108 40 274 109 161 275 110 157 276 21 164 277 24 158 278 110 157 279 109 34 280 108 165 281 13 155 282 118 27 283 112 166 284 104 155 285 119 29 286 118 27 287 0 167 288 100 168 289 97 169 290 100 168 291 96 16 292 97 169 293 115 170 294 99 171 295 120 172 296 120 172 297 98 173 298 121 6 299 1 174 300 100 168 301 6 175 302 100 168 303 99 176 304 101 0 305 102 177 306 121 178 307 103 179 308 14 180 309 120 181 310 102 177 311 118 27 312 97 182 313 96 154 314 112 166 315 96 154 316 2 183 317 3 184 318 117 31 319 7 185 320 119 29 321 0 186 322 97 182 323 2 25 324 117 31 325 112 23 326 17 187 327 116 10 328 15 188 329 103 189 330 113 8 331 16 190 332 17 187 333 113 191 334 114 3 335 102 192 336 131 193 337 130 194 338 14 195 339 130 194 340 125 196 341 107 182 342 128 154 343 106 154 344 106 154 345 122 154 346 22 183 347 127 48 348 23 197 349 25 198 350 20 199 351 129 29 352 107 182 353 22 25 354 127 48 355 25 198 356 126 41 357 17 187 358 15 188 359 103 200 360 123 201 361 131 38 362 17 187 363 123 37 364 16 202 365 101 0 366 99 176 367 3 1 368 114 3 369 113 191 370 1 4 371 121 6 372 98 173 373 1 7 374 114 3 375 6 5 376 0 9 377 84 11 378 5 11 379 9 11 380 12 12 381 19 203 382 86 13 383 101 0 384 7 2 385 2 15 386 12 17 387 87 204 388 85 18 389 19 20 390 12 205 391 9 21 392 112 23 393 117 31 394 18 24 395 90 26 396 94 26 397 27 26 398 105 27 399 15 206 400 116 28 401 115 30 402 14 207 403 18 24 404 111 32 405 25 208 406 23 33 407 124 35 408 24 209 409 21 36 410 131 38 411 123 201 412 21 39 413 20 41 414 24 209 415 124 35 416 26 11 417 5 11 418 84 11 419 86 13 420 19 203 421 29 12 422 22 42 423 25 208 424 111 32 425 88 44 426 89 210 427 29 45 428 26 21 429 29 205 430 19 20 431 122 47 432 13 25 433 18 24 434 27 49 435 94 211 436 95 50 437 126 52 438 15 206 439 105 27 440 18 24 441 14 207 442 125 53 443 34 54 444 31 58 445 33 55 446 40 57 447 39 212 448 31 58 449 37 59 450 33 55 451 31 58 452 40 61 453 34 213 454 30 62 455 34 54 456 35 56 457 32 64 458 32 66 459 35 71 460 41 67 461 36 69 462 38 214 463 30 69 464 33 70 465 37 215 466 41 67 467 46 72 468 47 216 469 45 73 470 40 75 471 46 72 472 43 74 473 37 77 474 39 217 475 43 74 476 42 78 477 46 218 478 40 61 479 44 79 480 47 216 481 46 72 482 44 66 483 36 68 484 41 67 485 42 82 486 38 214 487 36 69 488 41 67 489 37 215 490 45 83 491 52 84 492 49 88 493 51 85 494 58 87 495 57 219 496 49 88 497 55 89 498 51 85 499 49 88 500 58 91 501 52 220 502 48 92 503 52 84 504 53 86 505 50 94 506 50 96 507 53 103 508 59 97 509 54 99 510 56 221 511 48 100 512 51 102 513 55 222 514 59 97 515 64 104 516 65 223 517 63 105 518 58 107 519 64 104 520 61 106 521 55 109 522 57 224 523 61 106 524 60 110 525 64 225 526 58 91 527 62 111 528 65 223 529 64 104 530 62 113 531 54 98 532 59 97 533 60 115 534 56 221 535 54 99 536 59 97 537 55 222 538 63 116 539 70 84 540 67 120 541 69 117 542 76 119 543 75 226 544 67 120 545 73 121 546 69 117 547 67 120 548 76 91 549 70 220 550 66 92 551 70 84 552 71 118 553 68 123 554 68 113 555 71 127 556 77 125 557 72 101 558 74 221 559 66 100 560 69 126 561 73 227 562 77 125 563 82 128 564 83 228 565 81 129 566 76 131 567 82 128 568 79 130 569 73 133 570 75 229 571 79 130 572 78 110 573 82 225 574 76 91 575 80 134 576 83 228 577 82 128 578 80 96 579 72 98 580 77 125 581 78 115 582 74 221 583 72 101 584 77 125 585 73 227 586 81 136 587 84 137 588 85 143 589 10 138 590 11 140 591 87 230 592 86 141 593 85 143 594 87 230 595 11 140 596 27 144 597 88 146 598 84 137 599 86 141 600 89 231 601 28 145 602 28 145 603 89 231 604 88 146 605 92 147 606 93 150 607 91 148 608 94 147 609 90 149 610 91 148 611 91 11 612 93 11 613 11 11 614 95 11 615 91 11 616 4 11 617 93 151 618 92 232 619 10 152 620 92 26 621 90 26 622 8 26 623 128 154 624 104 155 625 13 155 626 129 29 627 105 27 628 104 155 629 20 156 630 107 159 631 110 157 632 106 43 633 111 32 634 110 157 635 125 160 636 130 163 637 109 161 638 130 163 639 131 38 640 108 40 641 110 157 642 108 165 643 21 164 644 110 157 645 111 32 646 109 34 647 13 155 648 104 155 649 118 27 650 104 155 651 105 27 652 119 29 653 0 167 654 6 175 655 100 168 656 100 168 657 101 0 658 96 16 659 115 170 660 3 233 661 99 171 662 120 172 663 99 171 664 98 173 665 1 174 666 98 234 667 100 168 668 100 168 669 98 234 670 99 176 671 102 177 672 120 181 673 121 178 674 14 180 675 115 235 676 120 181 677 118 27 678 119 29 679 97 182 680 112 166 681 118 27 682 96 154 683 3 184 684 115 30 685 117 31 686 119 29 687 116 28 688 0 186 689 2 25 690 7 185 691 117 31 692 17 187 693 114 3 694 116 10 695 103 189 696 121 6 697 113 8 698 17 187 699 16 236 700 113 191 701 102 192 702 103 237 703 131 193 704 14 195 705 102 192 706 130 194 707 107 182 708 129 29 709 128 154 710 106 154 711 128 154 712 122 154 713 127 48 714 125 53 715 23 197 716 20 199 717 126 52 718 129 29 719 22 25 720 122 47 721 127 48 722 126 41 723 124 35 724 17 187 725 103 200 726 16 238 727 123 201 728 17 187 729 124 35 730 123 37 731</p>
        </triangles>
      </mesh>
    </geometry>
  </library_geometries>
  <library_visual_scenes>
    <visual_scene id="Scene" name="Scene">
      <node id="drone_v_01" name="drone_v_01" type="NODE">
        <matrix sid="transform">1 0 0 0 0 1 0 0 0 0 1 0 0 0 0 1</matrix>
        <instance_geometry url="#Cube_003-mesh" name="drone_v_01">
          <bind_material>
            <technique_common>
              <instance_material symbol="Material-material" target="#Material-material">
                <bind_vertex_input semantic="UVMap" input_semantic="TEXCOORD" input_set="0"/>
              </instance_material>
            </technique_common>
          </bind_material>
        </instance_geometry>
        <node id="Empty_002" name="Empty.002" type="NODE">
          <matrix sid="transform">1 0 0 0 0 1 0 6.061705 0 0 1 -0.847215 0 0 0 1</matrix>
        </node>
      </node>
    </visual_scene>
  </library_visual_scenes>
  <scene>
    <instance_visual_scene url="#Scene"/>
  </scene>
</COLLADA>