<?xml version="1.0" encoding="utf-8"?>
<COLLADA xmlns="http://www.collada.org/2005/11/COLLADASchema" version="1.4.1" xmlns:xsi="http://www.w3.org/2001/XMLSchema-instance">
  <asset>
    <contributor>
      <author>Blender User</author>
      <authoring_tool>Blender 4.3.1 commit date:2024-12-10, commit time:07:46, hash:33d812126174</authoring_tool>
    </contributor>
    <created>2026-08-18T21:32:33</created>
    <modified>2026-08-18T21:32:33</modified>
    <unit name="inch" meter="0.0254"/>
    <up_axis>Z_UP</up_axis>
  </asset>
  <library_effects>
    <effect id="Material_002-effect">
      <profile_COMMON>
        <newparam sid="mla_v_png-surface">
          <surface type="2D">
            <init_from>mla_v_png</init_from>
          </surface>
        </newparam>
        <newparam sid="mla_v_png-sampler">
          <sampler2D>
            <source>mla_v_png-surface</source>
          </sampler2D>
        </newparam>
        <technique sid="common">
          <lambert>
            <emission>
              <color sid="emission">0 0 0 1</color>
            </emission>
            <diffuse>
              <texture texture="mla_v_png-sampler" texcoord="UVMap"/>
            </diffuse>
            <index_of_refraction>
              <float sid="ior">1.5</float>
            </index_of_refraction>
          </lambert>
        </technique>
      </profile_COMMON>
    </effect>
  </library_effects>
  <library_images>
    <image id="mla_v_png" name="mla_v_png">
      <init_from>/home/welton/Downloads/mla_v.png</init_from>
    </image>
  </library_images>
  <library_materials>
    <material id="Material_002-material" name="Material.002">
      <instance_effect url="#Material_002-effect"/>
    </material>
  </library_materials>
  <library_geometries>
    <geometry id="Cube-mesh" name="Cube">
      <mesh>
        <source id="Cube-mesh-positions">
          <float_array id="Cube-mesh-positions-array" count="747">-1.551897 3.496738 0.9722663 -1.551897 3.496738 2.966731 -1.551897 3.942953 2.966731 -1.551897 3.942953 1.365779 -1.752709 1.310167 0.9722663 -1.752709 1.310167 2.863668 -1.551897 1.56314 0.9722663 -1.752709 1.56314 2.966731 -1.752709 -1.497971 0.9722664 -1.752709 -1.497971 3.133036 -1.551897 -2.777407 0.9722664 -1.551897 -2.777407 2.918322 -1.752709 -1.259573 0.9722664 -1.752709 -1.278649 2.25466 -1.752709 1.057195 0.9722664 -1.752709 1.057195 2.25466 -1.752709 1.057195 2.25466 -1.752709 1.057195 0.9722663 -1.551897 -4.29524 2.479525 -1.551897 -4.29524 0.9722663 0 3.496738 0.9722663 0 3.496738 2.966731 0 3.942953 2.966731 0 3.942953 1.365779 0 1.310167 0.9722663 0 1.310167 2.863668 0 1.56314 0.9722663 0 1.56314 2.966731 0 -1.497971 0.9722664 0 -1.497971 3.133036 0 -2.777407 0.9722664 0 -2.777407 2.918322 0 -1.259573 0.9722664 0 -1.278649 2.25466 0 1.057195 0.9722664 0 1.057195 2.25466 0 1.057195 2.25466 0 1.057195 0.9722663 0 -4.29524 2.479525 0 -4.29524 0.9722663 -1.551897 3.496738 1.969498 -1.551897 3.942953 2.166255 -1.752709 1.310167 1.917967 -1.551897 1.56314 1.969498 -1.688309 -1.434483 2.052651 -2.028479 -2.777407 1.945294 -1.752709 1.057195 1.613463 -1.752709 -1.259573 1.613463 -1.551897 -4.29524 1.725895 -1.752709 1.057195 1.613463 0 3.942953 2.166255 0 -4.29524 1.725895 -1.551897 3.496738 2.468114 -1.551897 3.942953 2.566493 -1.752709 1.310167 2.390817 -1.551897 1.56314 2.468114 -1.752709 1.057195 1.934062 -1.752709 -1.259573 1.934062 -1.578788 -4.396313 2.082812 -1.752709 1.057195 1.934062 0 3.942953 2.566493 0.134455 -4.396313 2.082812 -1.7152 -1.244732 2.623903 -2.05537 -2.720674 2.446125 -1.292854 1.210073 3.998345 -1.292854 -0.2525333 4.004318 0 1.56314 4.091046 0 -0.5219974 4.099561 -1.752709 -1.278649 2.25466 -1.752709 1.057195 2.25466 -1.292854 1.56314 4.091046 -1.752709 1.210073 2.975568 -1.292854 -0.5219974 4.099561 -1.752709 0.7647317 2.348792 -1.752709 -1.141785 3.123675 -1.752709 -0.9483039 2.348792 -1.159456 3.24575 2.966731 -1.308135 1.814127 2.966731 -0.01044112 3.24575 2.966731 -0.01044112 1.814127 2.966731 -1.159456 3.24575 3.575998 -1.308135 1.814127 3.575998 -0.01044112 3.24575 3.575998 -0.01044112 1.814127 3.575998 -1.683159 -1.941092 0.9722664 -1.683159 -1.941092 3.058672 0 -1.941092 0.9722664 0 -1.941092 3.058672 -2.159741 -1.941092 2.015469 -2.186632 -1.797411 2.562331 1.551897 3.496738 0.9722663 1.551897 3.496738 2.966731 1.551897 3.942953 2.966731 1.551897 3.942953 1.365779 1.752709 1.310167 0.9722663 1.752709 1.310167 2.863668 1.551897 1.56314 0.9722663 1.752709 1.56314 2.966731 1.752709 -1.497971 0.9722664 1.752709 -1.497971 3.133036 1.551897 -2.777407 0.9722664 1.551897 -2.777407 2.918322 1.752709 -1.259573 0.9722664 1.752709 -1.278649 2.25466 1.752709 1.057195 0.9722664 1.752709 1.057195 2.25466 1.752709 1.057195 2.25466 1.752709 1.057195 0.9722663 1.551897 -4.29524 2.479525 1.551897 -4.29524 0.9722663 1.551897 3.496738 1.969498 1.551897 3.942953 2.166255 1.752709 1.310167 1.917967 1.551897 1.56314 1.969498 1.688309 -1.434483 2.052651 2.028479 -2.777407 1.945294 1.752709 1.057195 1.613463 1.752709 -1.259573 1.613463 1.551897 -4.29524 1.725895 1.752709 1.057195 1.613463 1.551897 3.496738 2.468114 1.551897 3.942953 2.566493 1.752709 1.310167 2.390817 1.551897 1.56314 2.468114 1.752709 1.057195 1.934062 1.752709 -1.259573 1.934062 1.578788 -4.396313 2.082812 1.752709 1.057195 1.934062 -0.134455 -4.396313 2.082812 1.7152 -1.244732 2.623903 2.05537 -2.720674 2.446125 1.292854 1.210073 3.998345 1.292854 -0.2525333 4.004318 1.752709 -1.278649 2.25466 1.752709 1.057195 2.25466 1.292854 1.56314 4.091046 1.752709 1.210073 2.975568 1.292854 -0.5219974 4.099561 1.752709 0.7647317 2.348792 1.752709 -1.141785 3.123675 1.752709 -0.9483039 2.348792 1.159456 3.24575 2.966731 1.308135 1.814127 2.966731 0.01044112 3.24575 2.966731 0.01044112 1.814127 2.966731 1.159456 3.24575 3.575998 1.308135 1.814127 3.575998 0.01044112 3.24575 3.575998 0.01044112 1.814127 3.575998 1.683159 -1.941092 0.9722664 1.683159 -1.941092 3.058672 2.159741 -1.941092 2.015469 2.186632 -1.797411 2.562331 -1.675353 3.668812 1.040059 -2.490088 3.668812 1.040059 -2.490089 -1.900626 1.040059 -1.675353 -1.900626 1.040059 -2.490089 -2.20699 0.3004289 -1.675353 -2.20699 0.3004282 -2.490089 -2.946621 -0.005936622 -1.675353 -2.946621 -0.005936622 -2.490089 -3.686251 0.3004289 -1.675353 -3.686251 0.3004282 -2.490089 -3.992616 1.040059 -1.675353 -3.992616 1.040059 -2.490089 -3.686251 1.77969 -1.675353 -3.686251 1.77969 -2.490089 -2.946621 2.086055 -1.675353 -2.946621 2.086055 -2.490089 -2.20699 1.77969 -1.675353 -2.20699 1.77969 -2.490088 3.362447 0.3004289 -1.675353 3.362447 0.3004282 -2.490088 2.622816 -0.005936622 -1.675353 2.622816 -0.005936861 -2.490088 1.883186 0.3004289 -1.675353 1.883186 0.3004282 -2.490088 1.576821 1.040059 -1.675353 1.576821 1.040059 -2.490088 1.883186 1.77969 -1.675353 1.883186 1.77969 -2.490088 2.622816 2.086055 -1.675353 2.622816 2.086055 -2.490088 3.362447 1.77969 -1.675353 3.362447 1.77969 -2.479035 3.668811 1.040059 -2.479035 -1.900626 1.040059 -2.479035 -2.20699 0.3004285 -2.479035 -2.94662 -0.005936622 -2.479035 -3.686251 0.3004285 -2.479035 -3.992616 1.040059 -2.479035 -3.686251 1.77969 -2.479035 -2.94662 2.086055 -2.479035 -2.20699 1.77969 -2.479035 3.362447 0.3004285 -2.479035 2.622816 -0.005936622 -2.479035 1.883186 0.3004285 -2.479035 1.576821 1.040059 -2.479035 1.883186 1.77969 -2.479035 2.622816 2.086055 -2.479035 3.362447 1.77969 1.675353 3.668812 1.040059 2.490088 3.668812 1.040059 2.490089 -1.900626 1.040059 1.675353 -1.900626 1.040059 2.490089 -2.20699 0.3004289 1.675353 -2.20699 0.3004282 2.490089 -2.946621 -0.005936622 1.675353 -2.946621 -0.005936622 2.490089 -3.686251 0.3004289 1.675353 -3.686251 0.3004282 2.490089 -3.992616 1.040059 1.675353 -3.992616 1.040059 2.490089 -3.686251 1.77969 1.675353 -3.686251 1.77969 2.490089 -2.946621 2.086055 1.675353 -2.946621 2.086055 2.490089 -2.20699 1.77969 1.675353 -2.20699 1.77969 2.490088 3.362447 0.3004289 1.675353 3.362447 0.3004282 2.490088 2.622816 -0.005936622 1.675353 2.622816 -0.005936861 2.490088 1.883186 0.3004289 1.675353 1.883186 0.3004282 2.490088 1.576821 1.040059 1.675353 1.576821 1.040059 2.490088 1.883186 1.77969 1.675353 1.883186 1.77969 2.490088 2.622816 2.086055 1.675353 2.622816 2.086055 2.490088 3.362447 1.77969 1.675353 3.362447 1.77969 2.479035 3.668811 1.040059 2.479035 -1.900626 1.040059 2.479035 -2.20699 0.3004285 2.479035 -2.94662 -0.005936622 2.479035 -3.686251 0.3004285 2.479035 -3.992616 1.040059 2.479035 -3.686251 1.77969 2.479035 -2.94662 2.086055 2.479035 -2.20699 1.77969 2.479035 3.362447 0.3004285 2.479035 2.622816 -0.005936622 2.479035 1.883186 0.3004285 2.479035 1.576821 1.040059 2.479035 1.883186 1.77969 2.479035 2.622816 2.086055 2.479035 3.362447 1.77969</float_array>
          <technique_common>
            <accessor source="#Cube-mesh-positions-array" count="249" stride="3">
              <param name="X" type="float"/>
              <param name="Y" type="float"/>
              <param name="Z" type="float"/>
            </accessor>
          </technique_common>
        </source>
        <source id="Cube-mesh-normals">
          <float_array id="Cube-mesh-normals-array" count="885">-1 0 0 -1 0 0 -1 -1.93547e-7 0 -1 0 0 -0.7832292 0.621733 0 -0.7832296 0.6217327 0 -0.7832297 0.6217325 0 0.9534286 -0.2934076 -0.06989949 0.8469163 -0.5304158 -0.03730988 0.8298723 -0.5569685 -0.03313958 -0.7176625 -0.215226 0.6622977 -0.7019008 -0.201643 0.6831365 -0.7162045 -0.1864702 0.6725178 -0.995245 -0.09370213 0.02659296 0 0 1 0 -1 0 -0.9217651 -0.2892603 0.2582202 -0.680994 -0.2136394 0.7004324 0 0.6614266 -0.75001 0 0.6614263 -0.7500103 0 0.6614267 -0.75001 0 0 -1 0 1 0 0 0.9702132 0.2422528 0 0.9702132 0.2422528 0 0.9702132 0.2422528 0 -0.3772973 0.9260923 0 -0.3772969 0.9260924 0 -0.3772973 0.9260922 0 -0.9806878 0.1955803 0 -0.9806888 0.1955752 0 0 -1 0 0 -1 0 -0.9234968 0.3836063 0 -0.9234966 0.3836066 0 -0.277722 0.9606615 0 -0.2219828 0.9750506 0 -0.219362 0.9756435 0 -0.1655049 0.986209 0 -0.1655049 0.986209 0 -0.9884981 -0.1512334 0 -0.9900616 -0.1406352 0 -0.9621649 -0.2724677 0 -0.9621647 -0.2724691 -0.9151009 -0.1486448 -0.3748269 -0.9709551 -0.1789084 -0.1588649 -0.9532401 -0.1953209 -0.2306147 -0.9857358 -0.1680382 0.009382247 -0.8957763 -0.1260629 -0.4262546 -0.9727553 -0.1304473 -0.1916526 -0.9992051 -0.03736561 0.01389259 -0.9442546 0.3292161 0 -0.7832292 0.6217331 0 -1 0 0 -0.9462572 0.3004523 -0.11969 -0.9994463 0.008309066 -0.03222215 -0.9208899 0.120052 -0.3708766 -1 0 0 -0.9377405 0.2693977 -0.2192435 0 -0.9690441 0.2468877 0 -0.9690439 0.2468887 0 -0.9690442 0.2468875 -0.9530501 -0.2754232 -0.1258484 -0.9799945 -0.1974393 -0.02507185 -0.9901829 -0.1392523 -0.01210349 -0.953101 -0.2988544 0.04779827 0 1 0 0 1 0 0 -0.7036589 0.7105379 0 -0.7036589 0.710538 0 -0.7036589 0.710538 0 0.004083335 0.9999917 -0.9745184 0.03532624 0.221508 -0.980829 0.03971123 0.1907818 -0.9976793 -0.02333092 0.06396651 -0.9756485 -0.02333432 0.2180954 -0.9675251 -0.007007122 0.252678 -0.9774329 -0.04915279 0.2054483 -0.9442704 0.09809148 0.3142158 -0.9442098 -0.08363765 0.318548 -1 0 0 -1 -5.32693e-7 0 -1 -1.36146e-7 0 -0.9853107 0.004486441 0.1707127 1 0 0 -0.9946506 0.103298 0 -0.9946504 0.103298 0 -0.7695736 0.5926701 -0.2376949 -0.7147457 0.6611698 -0.22802 -0.7231974 0.6445268 -0.2481346 -0.9873552 0.1416667 -0.07113623 -0.9856299 -0.1546975 0.06784164 0 -0.1655051 0.986209 0 0 -1 -0.8293927 0.2742787 0.4867023 -0.8282837 0.2109884 0.5190666 -0.7503361 0.6122634 0.2492578 1 0 0 1 -1.93547e-7 0 0.7832292 0.621733 0 0.7832296 0.6217327 0 0.7832292 0.6217331 0 -0.8469141 -0.5304192 -0.03730976 -0.9534289 -0.2934066 -0.06989943 -0.8298698 -0.5569723 -0.03313946 0.701901 -0.2016429 0.6831363 0.7176626 -0.2152259 0.6622977 0.7162047 -0.18647 0.6725175 0.9952452 -0.09370195 0.02659296 0.9217651 -0.2892603 0.2582202 0.9439529 -0.2988599 0.1401275 0 -0.219362 0.9756435 0 -0.1655049 0.986209 0.9151009 -0.1486448 -0.3748269 0.9709551 -0.1789084 -0.1588649 0.9857358 -0.1680382 0.009382247 0.8957763 -0.1260629 -0.4262546 0.9532401 -0.1953209 -0.2306147 0.9992051 -0.03736549 0.01389259 0.9442546 0.3292161 0 0.9462572 0.3004523 -0.11969 1 0 0 1 0 0 0.9994463 0.008309066 -0.03222215 0.9208899 0.120052 -0.3708766 0.9377405 0.2693977 -0.2192435 0 -0.9690438 0.2468889 0 -0.9690441 0.2468879 0 -0.9690442 0.2468876 0.9530501 -0.2754232 -0.1258484 0.9727553 -0.1304473 -0.1916526 0.9799945 -0.1974393 -0.02507185 0.953101 -0.2988543 0.04779827 0 1 -1.20988e-7 0.9745185 0.03532618 0.2215081 1 0 0 0.9976793 -0.02333098 0.06396651 0.9675251 -0.007007062 0.252678 0.9756485 -0.02333438 0.2180954 0.9774329 -0.04915273 0.2054483 0.9442704 0.09809148 0.3142158 0.980829 0.03971123 0.1907818 1 -6.73548e-7 0 1 -1.36146e-7 0 0.9946506 0.103298 0 0.9946504 0.103298 0 0.7695736 0.5926701 -0.2376949 0.7147457 0.6611698 -0.22802 0.6968359 0.6676771 -0.2619676 0.9873552 0.1416667 -0.07113623 0.9856299 -0.1546975 0.06784164 0 -0.1655049 0.986209 0.8282837 0.2109882 0.5190666 0.8293927 0.2742785 0.4867023 0.7503362 0.6122632 0.2492578 -1.84806e-7 0.9238798 -0.382683 -1.80725e-7 0.9238798 -0.382683 0 0.9238796 -0.3826832 1.84806e-7 -0.3826836 0.9238795 1.80725e-7 -0.3826837 0.9238795 3.65531e-7 -0.3826839 0.9238794 -3.95336e-7 0.3826835 -0.9238795 -4.04262e-7 0.3826835 -0.9238795 -7.99598e-7 0.3826839 -0.9238793 0 -0.9238796 0.3826833 0 -0.9238798 0.3826832 -4.04263e-7 -0.3826836 -0.9238796 -3.95336e-7 -0.3826835 -0.9238795 -7.99598e-7 -0.3826841 -0.9238794 -1.58134e-7 -0.9238796 -0.3826836 -1.61705e-7 -0.9238795 -0.3826835 0 -0.9238796 -0.3826835 -1.58134e-7 -0.9238798 -0.3826832 -1.61705e-7 -0.9238798 -0.3826832 0 -0.9238795 -0.3826835 -5.39807e-7 -0.3826838 -0.9238795 -5.33941e-7 -0.3826838 -0.9238795 -7.99599e-7 -0.3826842 -0.9238792 0 -0.9238798 0.3826829 0 -0.9238796 0.3826833 0 0.92388 0.3826826 0 0.9238798 0.3826828 -5.45236e-7 0.3826835 -0.9238796 -5.51356e-7 0.3826835 -0.9238795 -8.22444e-7 0.3826839 -0.9238795 1.84806e-7 -0.3826835 0.9238795 1.80725e-7 -0.3826835 0.9238795 3.65531e-7 -0.3826836 0.9238795 1 0 0 1 0 0 -1.84806e-7 0.9238799 -0.3826828 -1.80725e-7 0.9238799 -0.3826828 0 0.9238799 -0.3826826 1.80725e-7 0.3826835 0.9238795 1.84806e-7 0.3826835 0.9238795 3.65531e-7 0.3826837 0.9238795 0 0.3826834 0.9238796 0 0.3826835 0.9238796 0 0.3826837 0.9238795 0 0.9238798 0.3826828 0 0.9238799 0.3826827 -1 0 0 -1 0 0 1.80725e-7 0.9238798 -0.382683 1.84806e-7 0.9238798 -0.382683 -1.84806e-7 -0.3826836 0.9238795 -1.80725e-7 -0.3826837 0.9238795 0 -0.3826835 0.9238796 4.04262e-7 0.3826835 -0.9238795 3.95336e-7 0.3826835 -0.9238795 7.99598e-7 0.3826839 -0.9238793 4.04263e-7 -0.3826836 -0.9238796 3.95336e-7 -0.3826835 -0.9238795 0 -0.3826831 -0.9238797 1.58134e-7 -0.9238796 -0.3826836 1.61705e-7 -0.9238795 -0.3826835 3.19839e-7 -0.9238795 -0.3826835 1.58134e-7 -0.9238798 -0.3826832 1.61705e-7 -0.9238798 -0.3826832 3.19839e-7 -0.9238798 -0.3826828 5.39807e-7 -0.3826838 -0.9238795 5.33941e-7 -0.3826838 -0.9238795 2.74148e-7 -0.3826833 -0.9238796 5.51356e-7 0.3826835 -0.9238795 5.45236e-7 0.3826835 -0.9238796 8.22444e-7 0.3826839 -0.9238795 -1.84806e-7 -0.3826835 0.9238795 -1.80725e-7 -0.3826835 0.9238795 0 -0.3826834 0.9238796 -1 0 0 -1 0 0 -1 0 0 1.80725e-7 0.9238799 -0.3826828 1.84806e-7 0.9238798 -0.3826828 -1.84806e-7 0.3826835 0.9238795 -1.80725e-7 0.3826835 0.9238795 -3.65531e-7 0.3826836 0.9238795 0 0.3826833 0.9238796 0 0.3826836 0.9238795 1 0 0 1 0 0 0.9560856 -0.2843577 -0.07100069 -0.9439529 -0.2988599 0.1401275 0 0.6614261 -0.7500104 0 -0.3772969 0.9260925 0 -0.9690438 0.2468889 -0.9489836 -0.3098958 0.05826532 -0.6968359 0.6676771 -0.2619676 -0.715891 -0.2233766 0.6615157 1 0 0 0.7832297 0.6217325 0 -0.956086 -0.2843565 -0.07100063 0.680994 -0.2136394 0.7004324 0 -0.9690439 0.2468891 0.9901829 -0.1392523 -0.01210349 0.9489836 -0.3098959 0.05826532 0.9442096 -0.08363783 0.318548 0.9853107 0.004486382 0.1707127 0.7231974 0.6445268 -0.2481346 0.7158908 -0.2233769 0.6615158 -3.65531e-7 0.9238798 -0.3826828 0 0.3826831 -0.9238797 0 -0.9238795 0.3826835 -3.19839e-7 -0.9238795 -0.3826835 -3.19839e-7 -0.9238798 -0.3826828 -2.74148e-7 -0.3826833 -0.9238796 0 -0.9238799 0.3826827 0 0.92388 0.3826823 -2.74148e-7 0.3826832 -0.9238797 1 0 0 1 -5.26084e-7 0 1 2.63042e-7 0 -3.65531e-7 0.9238798 -0.3826829 0 0.3826833 0.9238796 0 0.3826831 0.9238797 0 0.9238798 0.382683 -1 0 0 -1 0 0 -1 0 0 -1 0 0 -1 0 0 3.65531e-7 0.9238798 -0.3826828 -3.65531e-7 -0.3826839 0.9238794 7.99598e-7 -0.3826841 -0.9238794 7.99599e-7 -0.3826842 -0.9238792 2.74148e-7 0.3826831 -0.9238797 -3.65531e-7 -0.3826836 0.9238795 -1 -2.63042e-7 0 -1 5.26085e-7 0 3.65531e-7 0.9238798 -0.3826829 1 0 0 1 0 0 1 0 0 1 0 0 1 0 0</float_array>
          <technique_common>
            <accessor source="#Cube-mesh-normals-array" count="295" stride="3">
              <param name="X" type="float"/>
              <param name="Y" type="float"/>
              <param name="Z" type="float"/>
            </accessor>
          </technique_common>
        </source>
        <source id="Cube-mesh-map-0">
          <float_array id="Cube-mesh-map-0-array" count="2424">0.6471883 0.4797276 0.71428 0.6155355 0.6448584 0.6143339 0.6263756 0.4605622 0.6469177 0.3563166 0.6263756 0.288368 0.103531 0.8973984 0.04974722 0.9162157 0.04974722 0.8973984 0.6481409 0.6320065 0.71428 0.6155355 0.7139753 0.6331461 0.3964373 0.5681967 0.4074123 0.5098018 0.4074123 0.4544433 0.193823 0.559066 0.141456 0.6002128 0.1318044 0.566872 0.103531 0.8973984 0.04974722 0.7250633 0.103531 0.7250633 0.25 0.625 0.2415981 0.288368 0.25 0.625 0.193823 0.559066 0.299592 0.5613095 0.197634 0.590785 0.6080001 0.8205125 0.7318866 0.782899 0.6080001 0.782899 0.2415981 0.5351169 0.4653984 0.4284614 0.2415981 0.4284614 0.6080001 0.9735379 0.7318866 0.9352815 0.6080001 0.9352815 0.8440122 0.6802791 0.9121836 0.7127673 0.8440122 0.7127673 0.2415981 0.3970867 0.4653984 0.4174864 0.4653984 0.3970867 0.2415981 0.6614729 0.4653984 0.5098018 0.2415981 0.5098018 0.2415981 0.5467629 0.4653984 0.5351169 0.2415981 0.5351169 0.2415981 0.288368 0.4653984 0.288368 0.2415981 0.288368 0.8440122 0.7370882 0.9121836 0.742509 0.8440122 0.742509 0.2415981 0.5098018 0.4653984 0.5098018 0.2415981 0.5098018 0.2415981 0.6474246 0.4653984 0.5584088 0.2415981 0.5584088 0.2415981 0.3585858 0.4653984 0.2887103 0.2415981 0.2887103 0.8440122 0.705056 0.9121836 0.7370882 0.8440122 0.7370882 0.8013507 0.2197394 0.6705225 0.1204625 0.8013507 0.1204625 0.8013507 0.08835786 0.6705225 0.05917245 0.8013507 0.05917245 0.8013507 0.1204625 0.6705225 0.06576144 0.8013507 0.06576144 0.2415981 0.5584088 0.4653984 0.5467629 0.2415981 0.5467629 0.2415981 0.4284614 0.4653984 0.4174864 0.2415981 0.4174864 0.8013507 0.08835786 0.6705225 0.2148289 0.6705225 0.08835786 0.3334985 0.1597615 0.489717 0.2121685 0.3334985 0.2121685 0.5062597 0.1159666 0.6173676 0.08366423 0.6173676 0.1159666 0.6080001 0.8970251 0.7318866 0.8205125 0.6080001 0.8205125 0.3375368 0.288368 0.2676612 0.4184988 0.3375368 0.4563829 0.5140678 0.4544433 0.5140678 0.3990849 0.5140678 0.4544433 0.1304225 0.8973984 0.103531 0.7250633 0.1304225 0.7250633 0.1414559 0.4600619 0.197634 0.5254235 0.1414559 0.5301373 0.04974722 0.7073296 0.103531 0.7250633 0.04974722 0.7250633 0.6152236 0.6314368 0.6448584 0.6143339 0.6481409 0.6320065 0.1304225 0.8973984 0.1290724 0.9162157 0.103531 0.8973984 0.6263755 0.5466594 0.6469176 0.4945365 0.6263756 0.4605622 0.6124774 0.4791267 0.6448584 0.6143339 0.6101475 0.6137331 0.5777667 0.4785259 0.6101475 0.6137331 0.5754366 0.6131322 0.6263756 0.6327565 0.6469176 0.5636466 0.6263755 0.5466594 0.1573145 0.8973984 0.1687354 0.9162157 0.1304225 0.8973984 0.5823065 0.6308669 0.6101475 0.6137331 0.6152236 0.6314368 0.1573143 0.8973984 0.1304225 0.7250633 0.1573143 0.7236443 0.2415981 0.5098018 0.25 0.625 0.25 0.5 0.2415981 0.4835642 0.4653984 0.5486296 0.2415981 0.5486296 0.6080001 0.9352815 0.7318866 0.8970251 0.6080001 0.8970251 0.197634 0.5254235 0.3063814 0.534661 0.193823 0.559066 0.1414559 0.5301373 0.193823 0.559066 0.1318044 0.566872 0.1403701 0.7073296 0.1304225 0.7250633 0.103531 0.7250633 0.838098 0.05841803 0.7247616 0.1764318 0.838098 0.1764318 0.7770923 0.640398 0.7667759 0.6480913 0.7667759 0.640398 0.2848562 0.470339 0.07680219 0.5595774 0.07680219 0.470339 0.7746693 0.6403235 0.7765564 0.6473331 0.7787152 0.6341557 0.2427256 0.5968504 0.2611753 0.508682 0.2427256 0.5094373 0.1198294 0.5220956 0.1522163 0.6055009 0.1662971 0.5973607 0.2427256 0.5968504 0.1522163 0.6055009 0.2611753 0.6047733 0.1299396 0.455869 0.2347369 0.447824 0.1126774 0.447824 0.1157471 0.8501604 0.08689582 0.8447347 0.09066301 0.8343546 0.1216747 0.7666901 0.08689582 0.7618327 0.1220493 0.7540486 0.8347671 0.2362495 0.7694665 0.2993753 0.8347671 0.2993753 0.8347671 0.2362495 0.7694665 0.2993753 0.7694665 0.2362495 0.7878409 0.2347556 0.8833688 0.2954067 0.8833688 0.2347556 0.7694665 0.2362495 0.7694665 0.2993753 0.7694665 0.2993753 0.7694665 0.2993753 0.8347671 0.2993753 0.8347671 0.2993753 0.839501 0.2347556 0.877497 0.2954067 0.877497 0.2347556 0.1116899 0.532635 0.1318044 0.566872 0.09894376 0.5710079 0.1414559 0.4600619 0.1116899 0.532635 0.1116899 0.4600619 0.8013507 0.06576144 0.6705225 0.03677809 0.8013507 0.03677809 0.2415981 0.3585858 0.4653984 0.3970867 0.4653984 0.3585858 0.1318044 0.566872 0.1116899 0.6052081 0.09894376 0.5710079 0.71428 0.6155355 0.6471883 0.4797276 0.6448584 0.6143339 0.6263756 0.4605622 0.6469177 0.3563166 0.6469176 0.4945365 0.103531 0.8973984 0.04974722 0.9162157 0.1290724 0.9162157 0.6481409 0.6320065 0.71428 0.6155355 0.6448584 0.6143339 0.4074123 0.5098018 0.3964373 0.5681967 0.4074123 0.4544433 0.141456 0.6002128 0.193823 0.559066 0.1318044 0.566872 0.04974722 0.7250633 0.103531 0.8973984 0.103531 0.7250633 0.2415981 0.288368 0.25 0.625 0.25 0.625 0.193823 0.559066 0.299592 0.5613095 0.3063814 0.534661 0.7318866 0.782899 0.6080001 0.8205125 0.6080001 0.782899 0.4653984 0.4284614 0.2415981 0.5351169 0.2415981 0.4284614 0.7318866 0.9352815 0.6080001 0.9735379 0.6080001 0.9352815 0.9121836 0.7127673 0.8440122 0.6802791 0.8440122 0.7127673 0.2415981 0.3970867 0.4653984 0.4174864 0.2415981 0.4174864 0.4653984 0.5098018 0.2415981 0.6614729 0.2415981 0.5098018 0.4653984 0.5351169 0.2415981 0.5467629 0.2415981 0.5351169 0.4653984 0.288368 0.2415981 0.288368 0.2415981 0.288368 0.9121836 0.742509 0.8440122 0.7370882 0.8440122 0.742509 0.4653984 0.5098018 0.2415981 0.5098018 0.2415981 0.5098018 0.4653984 0.5584088 0.2415981 0.6474246 0.2415981 0.5584088 0.4653984 0.2887103 0.2415981 0.3585858 0.2415981 0.2887103 0.9121836 0.7370882 0.8440122 0.705056 0.8440122 0.7370882 0.6705225 0.1204625 0.8013507 0.2197394 0.8013507 0.1204625 0.6705225 0.05917245 0.8013507 0.08835786 0.8013507 0.05917245 0.6705225 0.06576144 0.8013507 0.1204625 0.8013507 0.06576144 0.4653984 0.5467629 0.2415981 0.5584088 0.2415981 0.5467629 0.4653984 0.4174864 0.2415981 0.4284614 0.2415981 0.4174864 0.8013507 0.08835786 0.6705225 0.2148289 0.8013507 0.2148289 0.489717 0.2121685 0.3334985 0.1597615 0.3334985 0.2121685 0.5062597 0.1159666 0.6173676 0.08366423 0.5062597 0.08366423 0.7318866 0.8205125 0.6080001 0.8970251 0.6080001 0.8205125 0.3375368 0.288368 0.2676612 0.4184988 0.2676612 0.288368 0.5140678 0.3990849 0.5140678 0.4544433 0.5140678 0.4544433 0.103531 0.7250633 0.1304225 0.8973984 0.1304225 0.7250633 0.1414559 0.4600619 0.197634 0.5254235 0.197634 0.4600619 0.103531 0.7250633 0.04974722 0.7073296 0.04974722 0.7250633 0.6152236 0.6314368 0.6448584 0.6143339 0.6101475 0.6137331 0.1304225 0.8973984 0.1290724 0.9162157 0.1687354 0.9162157 0.6263755 0.5466594 0.6469176 0.4945365 0.6469176 0.5636466 0.6448584 0.6143339 0.6124774 0.4791267 0.6101475 0.6137331 0.6101475 0.6137331 0.5777667 0.4785259 0.5754366 0.6131322 0.6263756 0.6327565 0.6469176 0.5636466 0.6469177 0.6327565 0.1573145 0.8973984 0.1687354 0.9162157 0.2083977 0.9162157 0.5823065 0.6308669 0.6101475 0.6137331 0.5754366 0.6131322 0.1304225 0.7250633 0.1573143 0.8973984 0.1573143 0.7236443 0.2415981 0.5098018 0.25 0.625 0.2415981 0.5098018 0.4653984 0.5486296 0.2415981 0.4835642 0.2415981 0.5486296 0.7318866 0.8970251 0.6080001 0.9352815 0.6080001 0.8970251 0.197634 0.5254235 0.3063814 0.534661 0.299592 0.5106857 0.1414559 0.5301373 0.193823 0.559066 0.197634 0.5254235 0.1304225 0.7250633 0.1403701 0.7073296 0.103531 0.7250633 0.838098 0.05841803 0.7247616 0.1764318 0.7020528 0.05841803 0.7667759 0.6480913 0.7770923 0.640398 0.7667759 0.640398 0.07680219 0.5595774 0.2848562 0.470339 0.07680219 0.470339 0.7746693 0.6403235 0.7750799 0.6341557 0.7787152 0.6341557 0.2611753 0.508682 0.2427256 0.5968504 0.2427256 0.5094373 0.1522163 0.6055009 0.1198294 0.5220956 0.1662971 0.5973607 0.2427256 0.5968504 0.1522163 0.6055009 0.1662971 0.5973607 0.1299396 0.455869 0.2347369 0.447824 0.2194544 0.455869 0.08689582 0.8447347 0.1157471 0.8501604 0.09066301 0.8343546 0.1216747 0.7666901 0.08689582 0.7618327 0.09066301 0.773557 0.8347671 0.2362495 0.7694665 0.2993753 0.7694665 0.2362495 0.8347671 0.2362495 0.7694665 0.2993753 0.8347671 0.2993753 0.8833688 0.2954067 0.7878409 0.2347556 0.8833688 0.2347556 0.7694665 0.2993753 0.7694665 0.2362495 0.7694665 0.2993753 0.8347671 0.2993753 0.7694665 0.2993753 0.8347671 0.2993753 0.877497 0.2954067 0.839501 0.2347556 0.877497 0.2347556 0.1116899 0.532635 0.1318044 0.566872 0.1414559 0.5301373 0.1116899 0.532635 0.1414559 0.4600619 0.1116899 0.4600619 0.6705225 0.03677809 0.8013507 0.06576144 0.8013507 0.03677809 0.2415981 0.3585858 0.4653984 0.3970867 0.2415981 0.3970867 0.1116899 0.6052081 0.1318044 0.566872 0.09894376 0.5710079 0.1896288 0.1658076 0.1083946 0.08457338 0.1896288 0.003339171 0.5913559 0.2028322 0.5636176 0.2061581 0.5636176 0.2028322 0.5636176 0.2067916 0.5913559 0.2101175 0.5636176 0.2101175 0.5913559 0.2061581 0.5636176 0.2094841 0.5636176 0.2061581 0.5913559 0.2034657 0.5636176 0.2067916 0.5636176 0.2034657 0.5636176 0.2026352 0.5913559 0.2059612 0.5636176 0.2059612 0.5636176 0.2059612 0.5913559 0.2092871 0.5636176 0.2092871 0.5636176 0.2059612 0.5913559 0.2092871 0.5636176 0.2092871 0.5636176 0.2026352 0.5913559 0.2059612 0.5636176 0.2059612 0.5913559 0.2034657 0.5636176 0.2067916 0.5636176 0.2034657 0.5913559 0.2065946 0.5636176 0.2099205 0.5636176 0.2065946 0.5913559 0.2061581 0.5636176 0.2094841 0.5636176 0.2061581 0.5636176 0.2067916 0.5913559 0.2101175 0.5636176 0.2101175 0.1896288 0.1658076 0.1083946 0.08457338 0.1896288 0.003339171 0.5913559 0.2028322 0.5636176 0.2061581 0.5636176 0.2028322 0.5913559 0.2032687 0.5636176 0.2065946 0.5636176 0.2032687 0.5913559 0.2032687 0.5636176 0.2065946 0.5636176 0.2032687 0.5913559 0.2065946 0.5636176 0.2099205 0.5636176 0.2065946 0.1338039 0.02917152 0.1108558 0.08457338 0.1338039 0.1399752 0.1338039 0.02917152 0.1108558 0.08457338 0.1338039 0.1399752 0.1896288 0.1658076 0.2708631 0.08457338 0.1896288 0.003339171 0.5636176 0.2061581 0.5913559 0.2028322 0.5636176 0.2028322 0.5636176 0.2067916 0.5913559 0.2101175 0.5913559 0.2067916 0.5636176 0.2094841 0.5913559 0.2061581 0.5636176 0.2061581 0.5636176 0.2067916 0.5913559 0.2034657 0.5636176 0.2034657 0.5636176 0.2026352 0.5913559 0.2059612 0.5913559 0.2026352 0.5636176 0.2059612 0.5913559 0.2092871 0.5913559 0.2059612 0.5636176 0.2059612 0.5913559 0.2092871 0.5913559 0.2059612 0.5636176 0.2026352 0.5913559 0.2059612 0.5913559 0.2026352 0.5636176 0.2067916 0.5913559 0.2034657 0.5636176 0.2034657 0.5636176 0.2099205 0.5913559 0.2065946 0.5636176 0.2065946 0.5636176 0.2094841 0.5913559 0.2061581 0.5636176 0.2061581 0.5636176 0.2067916 0.5913559 0.2101175 0.5913559 0.2067916 0.1896288 0.1658076 0.2708631 0.08457338 0.1896288 0.003339171 0.5636176 0.2061581 0.5913559 0.2028322 0.5636176 0.2028322 0.5636176 0.2065946 0.5913559 0.2032687 0.5636176 0.2032687 0.5636176 0.2065946 0.5913559 0.2032687 0.5636176 0.2032687 0.5636176 0.2099205 0.5913559 0.2065946 0.5636176 0.2065946 0.2446075 0.02917152 0.2675557 0.08457338 0.2446075 0.1399752 0.2446075 0.02917152 0.2675557 0.08457338 0.2446075 0.1399752 0.6471883 0.4797276 0.71661 0.4809292 0.71428 0.6155355 0.6263756 0.4605622 0.6469176 0.4945365 0.6469177 0.3563166 0.103531 0.8973984 0.1290724 0.9162157 0.04974722 0.9162157 0.6481409 0.6320065 0.6448584 0.6143339 0.71428 0.6155355 0.3964373 0.5681967 0.3964373 0.6614729 0.4074123 0.5098018 0.193823 0.559066 0.197634 0.590785 0.141456 0.6002128 0.103531 0.8973984 0.04974722 0.8973984 0.04974722 0.7250633 0.25 0.625 0.2415981 0.288368 0.2415981 0.288368 0.193823 0.559066 0.3063814 0.534661 0.299592 0.5613095 0.6080001 0.8205125 0.7318866 0.8205125 0.7318866 0.782899 0.2415981 0.5351169 0.4653984 0.5351169 0.4653984 0.4284614 0.6080001 0.9735379 0.7318866 0.9735379 0.7318866 0.9352815 0.8440122 0.6802791 0.9121836 0.6802791 0.9121836 0.7127673 0.2415981 0.3970867 0.2415981 0.4174864 0.4653984 0.4174864 0.2415981 0.6614729 0.4653984 0.6614729 0.4653984 0.5098018 0.2415981 0.5467629 0.4653984 0.5467629 0.4653984 0.5351169 0.2415981 0.288368 0.4653984 0.288368 0.4653984 0.288368 0.8440122 0.7370882 0.9121836 0.7370882 0.9121836 0.742509 0.2415981 0.5098018 0.4653984 0.5098018 0.4653984 0.5098018 0.2415981 0.6474246 0.4653984 0.6474246 0.4653984 0.5584088 0.2415981 0.3585858 0.4653984 0.3585858 0.4653984 0.2887103 0.8440122 0.705056 0.9121836 0.705056 0.9121836 0.7370882 0.8013507 0.2197394 0.6705225 0.2197394 0.6705225 0.1204625 0.8013507 0.08835786 0.6705225 0.08835786 0.6705225 0.05917245 0.8013507 0.1204625 0.6705225 0.1204625 0.6705225 0.06576144 0.2415981 0.5584088 0.4653984 0.5584088 0.4653984 0.5467629 0.2415981 0.4284614 0.4653984 0.4284614 0.4653984 0.4174864 0.8013507 0.08835786 0.8013507 0.2148289 0.6705225 0.2148289 0.3334985 0.1597615 0.489717 0.1597615 0.489717 0.2121685 0.5062597 0.1159666 0.5062597 0.08366423 0.6173676 0.08366423 0.6080001 0.8970251 0.7318866 0.8970251 0.7318866 0.8205125 0.3375368 0.288368 0.2676612 0.288368 0.2676612 0.4184988 0.5140678 0.4544433 0.5140678 0.3990849 0.5140678 0.3990849 0.1304225 0.8973984 0.103531 0.8973984 0.103531 0.7250633 0.1414559 0.4600619 0.197634 0.4600619 0.197634 0.5254235 0.04974722 0.7073296 0.1403701 0.7073296 0.103531 0.7250633 0.6152236 0.6314368 0.6101475 0.6137331 0.6448584 0.6143339 0.1304225 0.8973984 0.1687354 0.9162157 0.1290724 0.9162157 0.6263755 0.5466594 0.6469176 0.5636466 0.6469176 0.4945365 0.6124774 0.4791267 0.6471883 0.4797276 0.6448584 0.6143339 0.5777667 0.4785259 0.6124774 0.4791267 0.6101475 0.6137331 0.6263756 0.6327565 0.6469177 0.6327565 0.6469176 0.5636466 0.1573145 0.8973984 0.2083977 0.9162157 0.1687354 0.9162157 0.5823065 0.6308669 0.5754366 0.6131322 0.6101475 0.6137331 0.1573143 0.8973984 0.1304225 0.8973984 0.1304225 0.7250633 0.2415981 0.5098018 0.2415981 0.5098018 0.25 0.625 0.2415981 0.4835642 0.4653984 0.4835642 0.4653984 0.5486296 0.6080001 0.9352815 0.7318866 0.9352815 0.7318866 0.8970251 0.197634 0.5254235 0.299592 0.5106857 0.3063814 0.534661 0.1414559 0.5301373 0.197634 0.5254235 0.193823 0.559066 0.1403701 0.7073296 0.1882863 0.7214446 0.1304225 0.7250633 0.838098 0.05841803 0.7020528 0.05841803 0.7247616 0.1764318 0.7770923 0.640398 0.7770923 0.6480913 0.7667759 0.6480913 0.2848562 0.470339 0.2848562 0.5595774 0.07680219 0.5595774 0.7796603 0.6472855 0.7796603 0.6391446 0.7765564 0.6473331 0.7796603 0.6391446 0.7787152 0.6341557 0.7765564 0.6473331 0.7787152 0.6341557 0.7750799 0.6341557 0.7746693 0.6403235 0.2427256 0.5968504 0.2611753 0.6047733 0.2611753 0.508682 0.1198294 0.5220956 0.1012168 0.5228956 0.1522163 0.6055009 0.2427256 0.5968504 0.1662971 0.5973607 0.1522163 0.6055009 0.1299396 0.455869 0.2194544 0.455869 0.2347369 0.447824 0.1157471 0.8501604 0.1153936 0.8626913 0.08689582 0.8447347 0.1216747 0.7666901 0.09066301 0.773557 0.08689582 0.7618327 0.8347671 0.2362495 0.7694665 0.2362495 0.7694665 0.2993753 0.8347671 0.2362495 0.8347671 0.2993753 0.7694665 0.2993753 0.7878409 0.2347556 0.7878409 0.2954067 0.8833688 0.2954067 0.7694665 0.2362495 0.7694665 0.2362495 0.7694665 0.2993753 0.7694665 0.2993753 0.7694665 0.2993753 0.8347671 0.2993753 0.839501 0.2347556 0.839501 0.2954067 0.877497 0.2954067 0.1116899 0.532635 0.1414559 0.5301373 0.1318044 0.566872 0.1414559 0.4600619 0.1414559 0.5301373 0.1116899 0.532635 0.8013507 0.06576144 0.6705225 0.06576144 0.6705225 0.03677809 0.2415981 0.3585858 0.2415981 0.3970867 0.4653984 0.3970867 0.1318044 0.566872 0.141456 0.6002128 0.1116899 0.6052081 0.71428 0.6155355 0.71661 0.4809292 0.6471883 0.4797276 0.6263756 0.4605622 0.6263756 0.288368 0.6469177 0.3563166 0.103531 0.8973984 0.04974722 0.8973984 0.04974722 0.9162157 0.6481409 0.6320065 0.7139753 0.6331461 0.71428 0.6155355 0.4074123 0.5098018 0.3964373 0.6614729 0.3964373 0.5681967 0.141456 0.6002128 0.197634 0.590785 0.193823 0.559066 0.04974722 0.7250633 0.04974722 0.8973984 0.103531 0.8973984 0.2415981 0.288368 0.2415981 0.288368 0.25 0.625 0.193823 0.559066 0.197634 0.590785 0.299592 0.5613095 0.7318866 0.782899 0.7318866 0.8205125 0.6080001 0.8205125 0.4653984 0.4284614 0.4653984 0.5351169 0.2415981 0.5351169 0.7318866 0.9352815 0.7318866 0.9735379 0.6080001 0.9735379 0.9121836 0.7127673 0.9121836 0.6802791 0.8440122 0.6802791 0.2415981 0.3970867 0.4653984 0.3970867 0.4653984 0.4174864 0.4653984 0.5098018 0.4653984 0.6614729 0.2415981 0.6614729 0.4653984 0.5351169 0.4653984 0.5467629 0.2415981 0.5467629 0.4653984 0.288368 0.4653984 0.288368 0.2415981 0.288368 0.9121836 0.742509 0.9121836 0.7370882 0.8440122 0.7370882 0.4653984 0.5098018 0.4653984 0.5098018 0.2415981 0.5098018 0.4653984 0.5584088 0.4653984 0.6474246 0.2415981 0.6474246 0.4653984 0.2887103 0.4653984 0.3585858 0.2415981 0.3585858 0.9121836 0.7370882 0.9121836 0.705056 0.8440122 0.705056 0.6705225 0.1204625 0.6705225 0.2197394 0.8013507 0.2197394 0.6705225 0.05917245 0.6705225 0.08835786 0.8013507 0.08835786 0.6705225 0.06576144 0.6705225 0.1204625 0.8013507 0.1204625 0.4653984 0.5467629 0.4653984 0.5584088 0.2415981 0.5584088 0.4653984 0.4174864 0.4653984 0.4284614 0.2415981 0.4284614 0.8013507 0.08835786 0.6705225 0.08835786 0.6705225 0.2148289 0.489717 0.2121685 0.489717 0.1597615 0.3334985 0.1597615 0.5062597 0.1159666 0.6173676 0.1159666 0.6173676 0.08366423 0.7318866 0.8205125 0.7318866 0.8970251 0.6080001 0.8970251 0.3375368 0.288368 0.3375368 0.4563829 0.2676612 0.4184988 0.5140678 0.3990849 0.5140678 0.3990849 0.5140678 0.4544433 0.103531 0.7250633 0.103531 0.8973984 0.1304225 0.8973984 0.1414559 0.4600619 0.1414559 0.5301373 0.197634 0.5254235 0.103531 0.7250633 0.1403701 0.7073296 0.04974722 0.7073296 0.6152236 0.6314368 0.6481409 0.6320065 0.6448584 0.6143339 0.1304225 0.8973984 0.103531 0.8973984 0.1290724 0.9162157 0.6263755 0.5466594 0.6263756 0.4605622 0.6469176 0.4945365 0.6448584 0.6143339 0.6471883 0.4797276 0.6124774 0.4791267 0.6101475 0.6137331 0.6124774 0.4791267 0.5777667 0.4785259 0.6263756 0.6327565 0.6263755 0.5466594 0.6469176 0.5636466 0.1573145 0.8973984 0.1304225 0.8973984 0.1687354 0.9162157 0.5823065 0.6308669 0.6152236 0.6314368 0.6101475 0.6137331 0.1304225 0.7250633 0.1304225 0.8973984 0.1573143 0.8973984 0.2415981 0.5098018 0.25 0.5 0.25 0.625 0.4653984 0.5486296 0.4653984 0.4835642 0.2415981 0.4835642 0.7318866 0.8970251 0.7318866 0.9352815 0.6080001 0.9352815 0.197634 0.5254235 0.193823 0.559066 0.3063814 0.534661 0.1414559 0.5301373 0.1318044 0.566872 0.193823 0.559066 0.1304225 0.7250633 0.1882863 0.7214446 0.1403701 0.7073296 0.838098 0.05841803 0.838098 0.1764318 0.7247616 0.1764318 0.7667759 0.6480913 0.7770923 0.6480913 0.7770923 0.640398 0.07680219 0.5595774 0.2848562 0.5595774 0.2848562 0.470339 0.7787152 0.6341557 0.7796603 0.6391446 0.7765564 0.6473331 0.7796603 0.6391446 0.7796603 0.6472855 0.7765564 0.6473331 0.7765564 0.6473331 0.7746693 0.6403235 0.7787152 0.6341557 0.2611753 0.508682 0.2611753 0.6047733 0.2427256 0.5968504 0.1522163 0.6055009 0.1012168 0.5228956 0.1198294 0.5220956 0.2427256 0.5968504 0.2611753 0.6047733 0.1522163 0.6055009 0.1299396 0.455869 0.1126774 0.447824 0.2347369 0.447824 0.08689582 0.8447347 0.1153936 0.8626913 0.1157471 0.8501604 0.1216747 0.7666901 0.1220493 0.7540486 0.08689582 0.7618327 0.8347671 0.2362495 0.8347671 0.2993753 0.7694665 0.2993753 0.8347671 0.2362495 0.7694665 0.2362495 0.7694665 0.2993753 0.8833688 0.2954067 0.7878409 0.2954067 0.7878409 0.2347556 0.7694665 0.2993753 0.7694665 0.2362495 0.7694665 0.2362495 0.8347671 0.2993753 0.7694665 0.2993753 0.7694665 0.2993753 0.877497 0.2954067 0.839501 0.2954067 0.839501 0.2347556 0.1116899 0.532635 0.09894376 0.5710079 0.1318044 0.566872 0.1116899 0.532635 0.1414559 0.5301373 0.1414559 0.4600619 0.6705225 0.03677809 0.6705225 0.06576144 0.8013507 0.06576144 0.2415981 0.3585858 0.4653984 0.3585858 0.4653984 0.3970867 0.1116899 0.6052081 0.141456 0.6002128 0.1318044 0.566872 0.2708631 0.08457338 0.2470701 0.1420146 0.1896288 0.1658076 0.1896288 0.1658076 0.1321876 0.1420146 0.1083946 0.08457338 0.1083946 0.08457338 0.1321876 0.02713209 0.1896288 0.003339171 0.1896288 0.003339171 0.2470701 0.02713209 0.2708631 0.08457338 0.2708631 0.08457338 0.1896288 0.1658076 0.1896288 0.003339171 0.5913559 0.2028322 0.5913559 0.2061581 0.5636176 0.2061581 0.5636176 0.2067916 0.5913559 0.2067916 0.5913559 0.2101175 0.5913559 0.2061581 0.5913559 0.2094841 0.5636176 0.2094841 0.5913559 0.2034657 0.5913559 0.2067916 0.5636176 0.2067916 0.5636176 0.2026352 0.5913559 0.2026352 0.5913559 0.2059612 0.5636176 0.2059612 0.5913559 0.2059612 0.5913559 0.2092871 0.5636176 0.2059612 0.5913559 0.2059612 0.5913559 0.2092871 0.5636176 0.2026352 0.5913559 0.2026352 0.5913559 0.2059612 0.5913559 0.2034657 0.5913559 0.2067916 0.5636176 0.2067916 0.5913559 0.2065946 0.5913559 0.2099205 0.5636176 0.2099205 0.5913559 0.2061581 0.5913559 0.2094841 0.5636176 0.2094841 0.5636176 0.2067916 0.5913559 0.2067916 0.5913559 0.2101175 0.2708631 0.08457338 0.2470701 0.1420146 0.1896288 0.1658076 0.1896288 0.1658076 0.1321876 0.1420146 0.1083946 0.08457338 0.1083946 0.08457338 0.1321876 0.02713209 0.1896288 0.003339171 0.1896288 0.003339171 0.2470701 0.02713209 0.2708631 0.08457338 0.2708631 0.08457338 0.1896288 0.1658076 0.1896288 0.003339171 0.5913559 0.2028322 0.5913559 0.2061581 0.5636176 0.2061581 0.5913559 0.2032687 0.5913559 0.2065946 0.5636176 0.2065946 0.5913559 0.2032687 0.5913559 0.2065946 0.5636176 0.2065946 0.5913559 0.2065946 0.5913559 0.2099205 0.5636176 0.2099205 0.1338039 0.1399752 0.1892057 0.1629233 0.2446075 0.02917152 0.1892057 0.1629233 0.2446075 0.1399752 0.2446075 0.02917152 0.2446075 0.1399752 0.2675557 0.08457338 0.2446075 0.02917152 0.2446075 0.02917152 0.1892057 0.00622338 0.1338039 0.1399752 0.1892057 0.00622338 0.1338039 0.02917152 0.1338039 0.1399752 0.1338039 0.1399752 0.1892057 0.1629233 0.2446075 0.02917152 0.1892057 0.1629233 0.2446075 0.1399752 0.2446075 0.02917152 0.2446075 0.1399752 0.2675557 0.08457338 0.2446075 0.02917152 0.2446075 0.02917152 0.1892057 0.00622338 0.1338039 0.1399752 0.1892057 0.00622338 0.1338039 0.02917152 0.1338039 0.1399752 0.1896288 0.1658076 0.2470701 0.1420146 0.2708631 0.08457338 0.2708631 0.08457338 0.2470701 0.02713209 0.1896288 0.003339171 0.1896288 0.003339171 0.1321876 0.02713209 0.1896288 0.1658076 0.1321876 0.02713209 0.1083946 0.08457338 0.1896288 0.1658076 0.1083946 0.08457338 0.1321876 0.1420146 0.1896288 0.1658076 0.5636176 0.2061581 0.5913559 0.2061581 0.5913559 0.2028322 0.5636176 0.2067916 0.5636176 0.2101175 0.5913559 0.2101175 0.5636176 0.2094841 0.5913559 0.2094841 0.5913559 0.2061581 0.5636176 0.2067916 0.5913559 0.2067916 0.5913559 0.2034657 0.5636176 0.2026352 0.5636176 0.2059612 0.5913559 0.2059612 0.5636176 0.2059612 0.5636176 0.2092871 0.5913559 0.2092871 0.5636176 0.2059612 0.5636176 0.2092871 0.5913559 0.2092871 0.5636176 0.2026352 0.5636176 0.2059612 0.5913559 0.2059612 0.5636176 0.2067916 0.5913559 0.2067916 0.5913559 0.2034657 0.5636176 0.2099205 0.5913559 0.2099205 0.5913559 0.2065946 0.5636176 0.2094841 0.5913559 0.2094841 0.5913559 0.2061581 0.5636176 0.2067916 0.5636176 0.2101175 0.5913559 0.2101175 0.1896288 0.1658076 0.2470701 0.1420146 0.2708631 0.08457338 0.2708631 0.08457338 0.2470701 0.02713209 0.1896288 0.003339171 0.1896288 0.003339171 0.1321876 0.02713209 0.1896288 0.1658076 0.1321876 0.02713209 0.1083946 0.08457338 0.1896288 0.1658076 0.1083946 0.08457338 0.1321876 0.1420146 0.1896288 0.1658076 0.5636176 0.2061581 0.5913559 0.2061581 0.5913559 0.2028322 0.5636176 0.2065946 0.5913559 0.2065946 0.5913559 0.2032687 0.5636176 0.2065946 0.5913559 0.2065946 0.5913559 0.2032687 0.5636176 0.2099205 0.5913559 0.2099205 0.5913559 0.2065946 0.2446075 0.1399752 0.1892057 0.1629233 0.1338039 0.02917152 0.1892057 0.1629233 0.1338039 0.1399752 0.1338039 0.02917152 0.1338039 0.1399752 0.1108558 0.08457338 0.1338039 0.02917152 0.1338039 0.02917152 0.1892057 0.00622338 0.2446075 0.1399752 0.1892057 0.00622338 0.2446075 0.02917152 0.2446075 0.1399752 0.2446075 0.1399752 0.1892057 0.1629233 0.1338039 0.02917152 0.1892057 0.1629233 0.1338039 0.1399752 0.1338039 0.02917152 0.1338039 0.1399752 0.1108558 0.08457338 0.1338039 0.02917152 0.1338039 0.02917152 0.1892057 0.00622338 0.2446075 0.1399752 0.1892057 0.00622338 0.2446075 0.02917152 0.2446075 0.1399752</float_array>
          <technique_common>
            <accessor source="#Cube-mesh-map-0-array" count="1212" stride="2">
              <param name="S" type="float"/>
              <param name="T" type="float"/>
            </accessor>
          </technique_common>
        </source>
        <source id="Cube-mesh-map-1">
          <float_array id="Cube-mesh-map-1-array" count="2424">0.6471883 0.4797276 0.71428 0.6155355 0.6448584 0.6143339 0.6263756 0.4605622 0.6469177 0.3563166 0.6263756 0.288368 0.103531 0.8973984 0.04974722 0.9162157 0.04974722 0.8973984 0.6481409 0.6320065 0.71428 0.6155355 0.7139753 0.6331461 0.3964373 0.5681967 0.4074123 0.5098018 0.4074123 0.4544433 0.193823 0.559066 0.141456 0.6002128 0.1318044 0.566872 0.103531 0.8973984 0.04974722 0.7250633 0.103531 0.7250633 0.25 0.625 0.2415981 0.288368 0.25 0.625 0.193823 0.559066 0.299592 0.5613095 0.197634 0.590785 0.6080001 0.8205125 0.7318866 0.782899 0.6080001 0.782899 0.2415981 0.5351169 0.4653984 0.4284614 0.2415981 0.4284614 0.6080001 0.9735379 0.7318866 0.9352815 0.6080001 0.9352815 0.8440122 0.6802791 0.9121836 0.7127673 0.8440122 0.7127673 0.2415981 0.3970867 0.4653984 0.4174864 0.4653984 0.3970867 0.2415981 0.6614729 0.4653984 0.5098018 0.2415981 0.5098018 0.2415981 0.5467629 0.4653984 0.5351169 0.2415981 0.5351169 0.2415981 0.288368 0.4653984 0.288368 0.2415981 0.288368 0.8440122 0.7370882 0.9121836 0.742509 0.8440122 0.742509 0.2415981 0.5098018 0.4653984 0.5098018 0.2415981 0.5098018 0.2415981 0.6474246 0.4653984 0.5584088 0.2415981 0.5584088 0.2415981 0.3585858 0.4653984 0.2887103 0.2415981 0.2887103 0.8440122 0.705056 0.9121836 0.7370882 0.8440122 0.7370882 0.8013507 0.2197394 0.6705225 0.1204625 0.8013507 0.1204625 0.8013507 0.08835786 0.6705225 0.05917245 0.8013507 0.05917245 0.8013507 0.1204625 0.6705225 0.06576144 0.8013507 0.06576144 0.2415981 0.5584088 0.4653984 0.5467629 0.2415981 0.5467629 0.2415981 0.4284614 0.4653984 0.4174864 0.2415981 0.4174864 0.8013507 0.08835786 0.6705225 0.2148289 0.6705225 0.08835786 0.3334985 0.1597615 0.489717 0.2121685 0.3334985 0.2121685 0.5062597 0.1159666 0.6173676 0.08366423 0.6173676 0.1159666 0.6080001 0.8970251 0.7318866 0.8205125 0.6080001 0.8205125 0.3375368 0.288368 0.2676612 0.4184988 0.3375368 0.4563829 0.5140678 0.4544433 0.5140678 0.3990849 0.5140678 0.4544433 0.1304225 0.8973984 0.103531 0.7250633 0.1304225 0.7250633 0.1414559 0.4600619 0.197634 0.5254235 0.1414559 0.5301373 0.04974722 0.7073296 0.103531 0.7250633 0.04974722 0.7250633 0.6152236 0.6314368 0.6448584 0.6143339 0.6481409 0.6320065 0.1304225 0.8973984 0.1290724 0.9162157 0.103531 0.8973984 0.6263755 0.5466594 0.6469176 0.4945365 0.6263756 0.4605622 0.6124774 0.4791267 0.6448584 0.6143339 0.6101475 0.6137331 0.5777667 0.4785259 0.6101475 0.6137331 0.5754366 0.6131322 0.6263756 0.6327565 0.6469176 0.5636466 0.6263755 0.5466594 0.1573145 0.8973984 0.1687354 0.9162157 0.1304225 0.8973984 0.5823065 0.6308669 0.6101475 0.6137331 0.6152236 0.6314368 0.1573143 0.8973984 0.1304225 0.7250633 0.1573143 0.7236443 0.2415981 0.5098018 0.25 0.625 0.25 0.5 0.2415981 0.4835642 0.4653984 0.5486296 0.2415981 0.5486296 0.6080001 0.9352815 0.7318866 0.8970251 0.6080001 0.8970251 0.197634 0.5254235 0.3063814 0.534661 0.193823 0.559066 0.1414559 0.5301373 0.193823 0.559066 0.1318044 0.566872 0.1403701 0.7073296 0.1304225 0.7250633 0.103531 0.7250633 0.838098 0.05841803 0.7247616 0.1764318 0.838098 0.1764318 0.7770923 0.640398 0.7667759 0.6480913 0.7667759 0.640398 0.2848562 0.470339 0.07680219 0.5595774 0.07680219 0.470339 0.7746693 0.6403235 0.7765564 0.6473331 0.7787152 0.6341557 0.2427256 0.5968504 0.2611753 0.508682 0.2427256 0.5094373 0.1198294 0.5220956 0.1522163 0.6055009 0.1662971 0.5973607 0.2427256 0.5968504 0.1522163 0.6055009 0.2611753 0.6047733 0.1299396 0.455869 0.2347369 0.447824 0.1126774 0.447824 0.1157471 0.8501604 0.08689582 0.8447347 0.09066301 0.8343546 0.1216747 0.7666901 0.08689582 0.7618327 0.1220493 0.7540486 0.8347671 0.2362495 0.7694665 0.2993753 0.8347671 0.2993753 0.8347671 0.2362495 0.7694665 0.2993753 0.7694665 0.2362495 0.7878409 0.2347556 0.8833688 0.2954067 0.8833688 0.2347556 0.7694665 0.2362495 0.7694665 0.2993753 0.7694665 0.2993753 0.7694665 0.2993753 0.8347671 0.2993753 0.8347671 0.2993753 0.839501 0.2347556 0.877497 0.2954067 0.877497 0.2347556 0.1116899 0.532635 0.1318044 0.566872 0.09894376 0.5710079 0.1414559 0.4600619 0.1116899 0.532635 0.1116899 0.4600619 0.8013507 0.06576144 0.6705225 0.03677809 0.8013507 0.03677809 0.2415981 0.3585858 0.4653984 0.3970867 0.4653984 0.3585858 0.1318044 0.566872 0.1116899 0.6052081 0.09894376 0.5710079 0.71428 0.6155355 0.6471883 0.4797276 0.6448584 0.6143339 0.6263756 0.4605622 0.6469177 0.3563166 0.6469176 0.4945365 0.103531 0.8973984 0.04974722 0.9162157 0.1290724 0.9162157 0.6481409 0.6320065 0.71428 0.6155355 0.6448584 0.6143339 0.4074123 0.5098018 0.3964373 0.5681967 0.4074123 0.4544433 0.141456 0.6002128 0.193823 0.559066 0.1318044 0.566872 0.04974722 0.7250633 0.103531 0.8973984 0.103531 0.7250633 0.2415981 0.288368 0.25 0.625 0.25 0.625 0.193823 0.559066 0.299592 0.5613095 0.3063814 0.534661 0.7318866 0.782899 0.6080001 0.8205125 0.6080001 0.782899 0.4653984 0.4284614 0.2415981 0.5351169 0.2415981 0.4284614 0.7318866 0.9352815 0.6080001 0.9735379 0.6080001 0.9352815 0.9121836 0.7127673 0.8440122 0.6802791 0.8440122 0.7127673 0.2415981 0.3970867 0.4653984 0.4174864 0.2415981 0.4174864 0.4653984 0.5098018 0.2415981 0.6614729 0.2415981 0.5098018 0.4653984 0.5351169 0.2415981 0.5467629 0.2415981 0.5351169 0.4653984 0.288368 0.2415981 0.288368 0.2415981 0.288368 0.9121836 0.742509 0.8440122 0.7370882 0.8440122 0.742509 0.4653984 0.5098018 0.2415981 0.5098018 0.2415981 0.5098018 0.4653984 0.5584088 0.2415981 0.6474246 0.2415981 0.5584088 0.4653984 0.2887103 0.2415981 0.3585858 0.2415981 0.2887103 0.9121836 0.7370882 0.8440122 0.705056 0.8440122 0.7370882 0.6705225 0.1204625 0.8013507 0.2197394 0.8013507 0.1204625 0.6705225 0.05917245 0.8013507 0.08835786 0.8013507 0.05917245 0.6705225 0.06576144 0.8013507 0.1204625 0.8013507 0.06576144 0.4653984 0.5467629 0.2415981 0.5584088 0.2415981 0.5467629 0.4653984 0.4174864 0.2415981 0.4284614 0.2415981 0.4174864 0.8013507 0.08835786 0.6705225 0.2148289 0.8013507 0.2148289 0.489717 0.2121685 0.3334985 0.1597615 0.3334985 0.2121685 0.5062597 0.1159666 0.6173676 0.08366423 0.5062597 0.08366423 0.7318866 0.8205125 0.6080001 0.8970251 0.6080001 0.8205125 0.3375368 0.288368 0.2676612 0.4184988 0.2676612 0.288368 0.5140678 0.3990849 0.5140678 0.4544433 0.5140678 0.4544433 0.103531 0.7250633 0.1304225 0.8973984 0.1304225 0.7250633 0.1414559 0.4600619 0.197634 0.5254235 0.197634 0.4600619 0.103531 0.7250633 0.04974722 0.7073296 0.04974722 0.7250633 0.6152236 0.6314368 0.6448584 0.6143339 0.6101475 0.6137331 0.1304225 0.8973984 0.1290724 0.9162157 0.1687354 0.9162157 0.6263755 0.5466594 0.6469176 0.4945365 0.6469176 0.5636466 0.6448584 0.6143339 0.6124774 0.4791267 0.6101475 0.6137331 0.6101475 0.6137331 0.5777667 0.4785259 0.5754366 0.6131322 0.6263756 0.6327565 0.6469176 0.5636466 0.6469177 0.6327565 0.1573145 0.8973984 0.1687354 0.9162157 0.2083977 0.9162157 0.5823065 0.6308669 0.6101475 0.6137331 0.5754366 0.6131322 0.1304225 0.7250633 0.1573143 0.8973984 0.1573143 0.7236443 0.2415981 0.5098018 0.25 0.625 0.2415981 0.5098018 0.4653984 0.5486296 0.2415981 0.4835642 0.2415981 0.5486296 0.7318866 0.8970251 0.6080001 0.9352815 0.6080001 0.8970251 0.197634 0.5254235 0.3063814 0.534661 0.299592 0.5106857 0.1414559 0.5301373 0.193823 0.559066 0.197634 0.5254235 0.1304225 0.7250633 0.1403701 0.7073296 0.103531 0.7250633 0.838098 0.05841803 0.7247616 0.1764318 0.7020528 0.05841803 0.7667759 0.6480913 0.7770923 0.640398 0.7667759 0.640398 0.07680219 0.5595774 0.2848562 0.470339 0.07680219 0.470339 0.7746693 0.6403235 0.7750799 0.6341557 0.7787152 0.6341557 0.2611753 0.508682 0.2427256 0.5968504 0.2427256 0.5094373 0.1522163 0.6055009 0.1198294 0.5220956 0.1662971 0.5973607 0.2427256 0.5968504 0.1522163 0.6055009 0.1662971 0.5973607 0.1299396 0.455869 0.2347369 0.447824 0.2194544 0.455869 0.08689582 0.8447347 0.1157471 0.8501604 0.09066301 0.8343546 0.1216747 0.7666901 0.08689582 0.7618327 0.09066301 0.773557 0.8347671 0.2362495 0.7694665 0.2993753 0.7694665 0.2362495 0.8347671 0.2362495 0.7694665 0.2993753 0.8347671 0.2993753 0.8833688 0.2954067 0.7878409 0.2347556 0.8833688 0.2347556 0.7694665 0.2993753 0.7694665 0.2362495 0.7694665 0.2993753 0.8347671 0.2993753 0.7694665 0.2993753 0.8347671 0.2993753 0.877497 0.2954067 0.839501 0.2347556 0.877497 0.2347556 0.1116899 0.532635 0.1318044 0.566872 0.1414559 0.5301373 0.1116899 0.532635 0.1414559 0.4600619 0.1116899 0.4600619 0.6705225 0.03677809 0.8013507 0.06576144 0.8013507 0.03677809 0.2415981 0.3585858 0.4653984 0.3970867 0.2415981 0.3970867 0.1116899 0.6052081 0.1318044 0.566872 0.09894376 0.5710079 0.1896288 0.1658076 0.1083946 0.08457338 0.1896288 0.003339171 0.5913559 0.2028322 0.5636176 0.2061581 0.5636176 0.2028322 0.5636176 0.2067916 0.5913559 0.2101175 0.5636176 0.2101175 0.5913559 0.2061581 0.5636176 0.2094841 0.5636176 0.2061581 0.5913559 0.2034657 0.5636176 0.2067916 0.5636176 0.2034657 0.5636176 0.2026352 0.5913559 0.2059612 0.5636176 0.2059612 0.5636176 0.2059612 0.5913559 0.2092871 0.5636176 0.2092871 0.5636176 0.2059612 0.5913559 0.2092871 0.5636176 0.2092871 0.5636176 0.2026352 0.5913559 0.2059612 0.5636176 0.2059612 0.5913559 0.2034657 0.5636176 0.2067916 0.5636176 0.2034657 0.5913559 0.2065946 0.5636176 0.2099205 0.5636176 0.2065946 0.5913559 0.2061581 0.5636176 0.2094841 0.5636176 0.2061581 0.5636176 0.2067916 0.5913559 0.2101175 0.5636176 0.2101175 0.1896288 0.1658076 0.1083946 0.08457338 0.1896288 0.003339171 0.5913559 0.2028322 0.5636176 0.2061581 0.5636176 0.2028322 0.5913559 0.2032687 0.5636176 0.2065946 0.5636176 0.2032687 0.5913559 0.2032687 0.5636176 0.2065946 0.5636176 0.2032687 0.5913559 0.2065946 0.5636176 0.2099205 0.5636176 0.2065946 0.1338039 0.02917152 0.1108558 0.08457338 0.1338039 0.1399752 0.1338039 0.02917152 0.1108558 0.08457338 0.1338039 0.1399752 0.1896288 0.1658076 0.2708631 0.08457338 0.1896288 0.003339171 0.5636176 0.2061581 0.5913559 0.2028322 0.5636176 0.2028322 0.5636176 0.2067916 0.5913559 0.2101175 0.5913559 0.2067916 0.5636176 0.2094841 0.5913559 0.2061581 0.5636176 0.2061581 0.5636176 0.2067916 0.5913559 0.2034657 0.5636176 0.2034657 0.5636176 0.2026352 0.5913559 0.2059612 0.5913559 0.2026352 0.5636176 0.2059612 0.5913559 0.2092871 0.5913559 0.2059612 0.5636176 0.2059612 0.5913559 0.2092871 0.5913559 0.2059612 0.5636176 0.2026352 0.5913559 0.2059612 0.5913559 0.2026352 0.5636176 0.2067916 0.5913559 0.2034657 0.5636176 0.2034657 0.5636176 0.2099205 0.5913559 0.2065946 0.5636176 0.2065946 0.5636176 0.2094841 0.5913559 0.2061581 0.5636176 0.2061581 0.5636176 0.2067916 0.5913559 0.2101175 0.5913559 0.2067916 0.1896288 0.1658076 0.2708631 0.08457338 0.1896288 0.003339171 0.5636176 0.2061581 0.5913559 0.2028322 0.5636176 0.2028322 0.5636176 0.2065946 0.5913559 0.2032687 0.5636176 0.2032687 0.5636176 0.2065946 0.5913559 0.2032687 0.5636176 0.2032687 0.5636176 0.2099205 0.5913559 0.2065946 0.5636176 0.2065946 0.2446075 0.02917152 0.2675557 0.08457338 0.2446075 0.1399752 0.2446075 0.02917152 0.2675557 0.08457338 0.2446075 0.1399752 0.6471883 0.4797276 0.71661 0.4809292 0.71428 0.6155355 0.6263756 0.4605622 0.6469176 0.4945365 0.6469177 0.3563166 0.103531 0.8973984 0.1290724 0.9162157 0.04974722 0.9162157 0.6481409 0.6320065 0.6448584 0.6143339 0.71428 0.6155355 0.3964373 0.5681967 0.3964373 0.6614729 0.4074123 0.5098018 0.193823 0.559066 0.197634 0.590785 0.141456 0.6002128 0.103531 0.8973984 0.04974722 0.8973984 0.04974722 0.7250633 0.25 0.625 0.2415981 0.288368 0.2415981 0.288368 0.193823 0.559066 0.3063814 0.534661 0.299592 0.5613095 0.6080001 0.8205125 0.7318866 0.8205125 0.7318866 0.782899 0.2415981 0.5351169 0.4653984 0.5351169 0.4653984 0.4284614 0.6080001 0.9735379 0.7318866 0.9735379 0.7318866 0.9352815 0.8440122 0.6802791 0.9121836 0.6802791 0.9121836 0.7127673 0.2415981 0.3970867 0.2415981 0.4174864 0.4653984 0.4174864 0.2415981 0.6614729 0.4653984 0.6614729 0.4653984 0.5098018 0.2415981 0.5467629 0.4653984 0.5467629 0.4653984 0.5351169 0.2415981 0.288368 0.4653984 0.288368 0.4653984 0.288368 0.8440122 0.7370882 0.9121836 0.7370882 0.9121836 0.742509 0.2415981 0.5098018 0.4653984 0.5098018 0.4653984 0.5098018 0.2415981 0.6474246 0.4653984 0.6474246 0.4653984 0.5584088 0.2415981 0.3585858 0.4653984 0.3585858 0.4653984 0.2887103 0.8440122 0.705056 0.9121836 0.705056 0.9121836 0.7370882 0.8013507 0.2197394 0.6705225 0.2197394 0.6705225 0.1204625 0.8013507 0.08835786 0.6705225 0.08835786 0.6705225 0.05917245 0.8013507 0.1204625 0.6705225 0.1204625 0.6705225 0.06576144 0.2415981 0.5584088 0.4653984 0.5584088 0.4653984 0.5467629 0.2415981 0.4284614 0.4653984 0.4284614 0.4653984 0.4174864 0.8013507 0.08835786 0.8013507 0.2148289 0.6705225 0.2148289 0.3334985 0.1597615 0.489717 0.1597615 0.489717 0.2121685 0.5062597 0.1159666 0.5062597 0.08366423 0.6173676 0.08366423 0.6080001 0.8970251 0.7318866 0.8970251 0.7318866 0.8205125 0.3375368 0.288368 0.2676612 0.288368 0.2676612 0.4184988 0.5140678 0.4544433 0.5140678 0.3990849 0.5140678 0.3990849 0.1304225 0.8973984 0.103531 0.8973984 0.103531 0.7250633 0.1414559 0.4600619 0.197634 0.4600619 0.197634 0.5254235 0.04974722 0.7073296 0.1403701 0.7073296 0.103531 0.7250633 0.6152236 0.6314368 0.6101475 0.6137331 0.6448584 0.6143339 0.1304225 0.8973984 0.1687354 0.9162157 0.1290724 0.9162157 0.6263755 0.5466594 0.6469176 0.5636466 0.6469176 0.4945365 0.6124774 0.4791267 0.6471883 0.4797276 0.6448584 0.6143339 0.5777667 0.4785259 0.6124774 0.4791267 0.6101475 0.6137331 0.6263756 0.6327565 0.6469177 0.6327565 0.6469176 0.5636466 0.1573145 0.8973984 0.2083977 0.9162157 0.1687354 0.9162157 0.5823065 0.6308669 0.5754366 0.6131322 0.6101475 0.6137331 0.1573143 0.8973984 0.1304225 0.8973984 0.1304225 0.7250633 0.2415981 0.5098018 0.2415981 0.5098018 0.25 0.625 0.2415981 0.4835642 0.4653984 0.4835642 0.4653984 0.5486296 0.6080001 0.9352815 0.7318866 0.9352815 0.7318866 0.8970251 0.197634 0.5254235 0.299592 0.5106857 0.3063814 0.534661 0.1414559 0.5301373 0.197634 0.5254235 0.193823 0.559066 0.1403701 0.7073296 0.1882863 0.7214446 0.1304225 0.7250633 0.838098 0.05841803 0.7020528 0.05841803 0.7247616 0.1764318 0.7770923 0.640398 0.7770923 0.6480913 0.7667759 0.6480913 0.2848562 0.470339 0.2848562 0.5595774 0.07680219 0.5595774 0.7796603 0.6472855 0.7796603 0.6391446 0.7765564 0.6473331 0.7796603 0.6391446 0.7787152 0.6341557 0.7765564 0.6473331 0.7787152 0.6341557 0.7750799 0.6341557 0.7746693 0.6403235 0.2427256 0.5968504 0.2611753 0.6047733 0.2611753 0.508682 0.1198294 0.5220956 0.1012168 0.5228956 0.1522163 0.6055009 0.2427256 0.5968504 0.1662971 0.5973607 0.1522163 0.6055009 0.1299396 0.455869 0.2194544 0.455869 0.2347369 0.447824 0.1157471 0.8501604 0.1153936 0.8626913 0.08689582 0.8447347 0.1216747 0.7666901 0.09066301 0.773557 0.08689582 0.7618327 0.8347671 0.2362495 0.7694665 0.2362495 0.7694665 0.2993753 0.8347671 0.2362495 0.8347671 0.2993753 0.7694665 0.2993753 0.7878409 0.2347556 0.7878409 0.2954067 0.8833688 0.2954067 0.7694665 0.2362495 0.7694665 0.2362495 0.7694665 0.2993753 0.7694665 0.2993753 0.7694665 0.2993753 0.8347671 0.2993753 0.839501 0.2347556 0.839501 0.2954067 0.877497 0.2954067 0.1116899 0.532635 0.1414559 0.5301373 0.1318044 0.566872 0.1414559 0.4600619 0.1414559 0.5301373 0.1116899 0.532635 0.8013507 0.06576144 0.6705225 0.06576144 0.6705225 0.03677809 0.2415981 0.3585858 0.2415981 0.3970867 0.4653984 0.3970867 0.1318044 0.566872 0.141456 0.6002128 0.1116899 0.6052081 0.71428 0.6155355 0.71661 0.4809292 0.6471883 0.4797276 0.6263756 0.4605622 0.6263756 0.288368 0.6469177 0.3563166 0.103531 0.8973984 0.04974722 0.8973984 0.04974722 0.9162157 0.6481409 0.6320065 0.7139753 0.6331461 0.71428 0.6155355 0.4074123 0.5098018 0.3964373 0.6614729 0.3964373 0.5681967 0.141456 0.6002128 0.197634 0.590785 0.193823 0.559066 0.04974722 0.7250633 0.04974722 0.8973984 0.103531 0.8973984 0.2415981 0.288368 0.2415981 0.288368 0.25 0.625 0.193823 0.559066 0.197634 0.590785 0.299592 0.5613095 0.7318866 0.782899 0.7318866 0.8205125 0.6080001 0.8205125 0.4653984 0.4284614 0.4653984 0.5351169 0.2415981 0.5351169 0.7318866 0.9352815 0.7318866 0.9735379 0.6080001 0.9735379 0.9121836 0.7127673 0.9121836 0.6802791 0.8440122 0.6802791 0.2415981 0.3970867 0.4653984 0.3970867 0.4653984 0.4174864 0.4653984 0.5098018 0.4653984 0.6614729 0.2415981 0.6614729 0.4653984 0.5351169 0.4653984 0.5467629 0.2415981 0.5467629 0.4653984 0.288368 0.4653984 0.288368 0.2415981 0.288368 0.9121836 0.742509 0.9121836 0.7370882 0.8440122 0.7370882 0.4653984 0.5098018 0.4653984 0.5098018 0.2415981 0.5098018 0.4653984 0.5584088 0.4653984 0.6474246 0.2415981 0.6474246 0.4653984 0.2887103 0.4653984 0.3585858 0.2415981 0.3585858 0.9121836 0.7370882 0.9121836 0.705056 0.8440122 0.705056 0.6705225 0.1204625 0.6705225 0.2197394 0.8013507 0.2197394 0.6705225 0.05917245 0.6705225 0.08835786 0.8013507 0.08835786 0.6705225 0.06576144 0.6705225 0.1204625 0.8013507 0.1204625 0.4653984 0.5467629 0.4653984 0.5584088 0.2415981 0.5584088 0.4653984 0.4174864 0.4653984 0.4284614 0.2415981 0.4284614 0.8013507 0.08835786 0.6705225 0.08835786 0.6705225 0.2148289 0.489717 0.2121685 0.489717 0.1597615 0.3334985 0.1597615 0.5062597 0.1159666 0.6173676 0.1159666 0.6173676 0.08366423 0.7318866 0.8205125 0.7318866 0.8970251 0.6080001 0.8970251 0.3375368 0.288368 0.3375368 0.4563829 0.2676612 0.4184988 0.5140678 0.3990849 0.5140678 0.3990849 0.5140678 0.4544433 0.103531 0.7250633 0.103531 0.8973984 0.1304225 0.8973984 0.1414559 0.4600619 0.1414559 0.5301373 0.197634 0.5254235 0.103531 0.7250633 0.1403701 0.7073296 0.04974722 0.7073296 0.6152236 0.6314368 0.6481409 0.6320065 0.6448584 0.6143339 0.1304225 0.8973984 0.103531 0.8973984 0.1290724 0.9162157 0.6263755 0.5466594 0.6263756 0.4605622 0.6469176 0.4945365 0.6448584 0.6143339 0.6471883 0.4797276 0.6124774 0.4791267 0.6101475 0.6137331 0.6124774 0.4791267 0.5777667 0.4785259 0.6263756 0.6327565 0.6263755 0.5466594 0.6469176 0.5636466 0.1573145 0.8973984 0.1304225 0.8973984 0.1687354 0.9162157 0.5823065 0.6308669 0.6152236 0.6314368 0.6101475 0.6137331 0.1304225 0.7250633 0.1304225 0.8973984 0.1573143 0.8973984 0.2415981 0.5098018 0.25 0.5 0.25 0.625 0.4653984 0.5486296 0.4653984 0.4835642 0.2415981 0.4835642 0.7318866 0.8970251 0.7318866 0.9352815 0.6080001 0.9352815 0.197634 0.5254235 0.193823 0.559066 0.3063814 0.534661 0.1414559 0.5301373 0.1318044 0.566872 0.193823 0.559066 0.1304225 0.7250633 0.1882863 0.7214446 0.1403701 0.7073296 0.838098 0.05841803 0.838098 0.1764318 0.7247616 0.1764318 0.7667759 0.6480913 0.7770923 0.6480913 0.7770923 0.640398 0.07680219 0.5595774 0.2848562 0.5595774 0.2848562 0.470339 0.7787152 0.6341557 0.7796603 0.6391446 0.7765564 0.6473331 0.7796603 0.6391446 0.7796603 0.6472855 0.7765564 0.6473331 0.7765564 0.6473331 0.7746693 0.6403235 0.7787152 0.6341557 0.2611753 0.508682 0.2611753 0.6047733 0.2427256 0.5968504 0.1522163 0.6055009 0.1012168 0.5228956 0.1198294 0.5220956 0.2427256 0.5968504 0.2611753 0.6047733 0.1522163 0.6055009 0.1299396 0.455869 0.1126774 0.447824 0.2347369 0.447824 0.08689582 0.8447347 0.1153936 0.8626913 0.1157471 0.8501604 0.1216747 0.7666901 0.1220493 0.7540486 0.08689582 0.7618327 0.8347671 0.2362495 0.8347671 0.2993753 0.7694665 0.2993753 0.8347671 0.2362495 0.7694665 0.2362495 0.7694665 0.2993753 0.8833688 0.2954067 0.7878409 0.2954067 0.7878409 0.2347556 0.7694665 0.2993753 0.7694665 0.2362495 0.7694665 0.2362495 0.8347671 0.2993753 0.7694665 0.2993753 0.7694665 0.2993753 0.877497 0.2954067 0.839501 0.2954067 0.839501 0.2347556 0.1116899 0.532635 0.09894376 0.5710079 0.1318044 0.566872 0.1116899 0.532635 0.1414559 0.5301373 0.1414559 0.4600619 0.6705225 0.03677809 0.6705225 0.06576144 0.8013507 0.06576144 0.2415981 0.3585858 0.4653984 0.3585858 0.4653984 0.3970867 0.1116899 0.6052081 0.141456 0.6002128 0.1318044 0.566872 0.2708631 0.08457338 0.2470701 0.1420146 0.1896288 0.1658076 0.1896288 0.1658076 0.1321876 0.1420146 0.1083946 0.08457338 0.1083946 0.08457338 0.1321876 0.02713209 0.1896288 0.003339171 0.1896288 0.003339171 0.2470701 0.02713209 0.2708631 0.08457338 0.2708631 0.08457338 0.1896288 0.1658076 0.1896288 0.003339171 0.5913559 0.2028322 0.5913559 0.2061581 0.5636176 0.2061581 0.5636176 0.2067916 0.5913559 0.2067916 0.5913559 0.2101175 0.5913559 0.2061581 0.5913559 0.2094841 0.5636176 0.2094841 0.5913559 0.2034657 0.5913559 0.2067916 0.5636176 0.2067916 0.5636176 0.2026352 0.5913559 0.2026352 0.5913559 0.2059612 0.5636176 0.2059612 0.5913559 0.2059612 0.5913559 0.2092871 0.5636176 0.2059612 0.5913559 0.2059612 0.5913559 0.2092871 0.5636176 0.2026352 0.5913559 0.2026352 0.5913559 0.2059612 0.5913559 0.2034657 0.5913559 0.2067916 0.5636176 0.2067916 0.5913559 0.2065946 0.5913559 0.2099205 0.5636176 0.2099205 0.5913559 0.2061581 0.5913559 0.2094841 0.5636176 0.2094841 0.5636176 0.2067916 0.5913559 0.2067916 0.5913559 0.2101175 0.2708631 0.08457338 0.2470701 0.1420146 0.1896288 0.1658076 0.1896288 0.1658076 0.1321876 0.1420146 0.1083946 0.08457338 0.1083946 0.08457338 0.1321876 0.02713209 0.1896288 0.003339171 0.1896288 0.003339171 0.2470701 0.02713209 0.2708631 0.08457338 0.2708631 0.08457338 0.1896288 0.1658076 0.1896288 0.003339171 0.5913559 0.2028322 0.5913559 0.2061581 0.5636176 0.2061581 0.5913559 0.2032687 0.5913559 0.2065946 0.5636176 0.2065946 0.5913559 0.2032687 0.5913559 0.2065946 0.5636176 0.2065946 0.5913559 0.2065946 0.5913559 0.2099205 0.5636176 0.2099205 0.1338039 0.1399752 0.1892057 0.1629233 0.2446075 0.02917152 0.1892057 0.1629233 0.2446075 0.1399752 0.2446075 0.02917152 0.2446075 0.1399752 0.2675557 0.08457338 0.2446075 0.02917152 0.2446075 0.02917152 0.1892057 0.00622338 0.1338039 0.1399752 0.1892057 0.00622338 0.1338039 0.02917152 0.1338039 0.1399752 0.1338039 0.1399752 0.1892057 0.1629233 0.2446075 0.02917152 0.1892057 0.1629233 0.2446075 0.1399752 0.2446075 0.02917152 0.2446075 0.1399752 0.2675557 0.08457338 0.2446075 0.02917152 0.2446075 0.02917152 0.1892057 0.00622338 0.1338039 0.1399752 0.1892057 0.00622338 0.1338039 0.02917152 0.1338039 0.1399752 0.1896288 0.1658076 0.2470701 0.1420146 0.2708631 0.08457338 0.2708631 0.08457338 0.2470701 0.02713209 0.1896288 0.003339171 0.1896288 0.003339171 0.1321876 0.02713209 0.1896288 0.1658076 0.1321876 0.02713209 0.1083946 0.08457338 0.1896288 0.1658076 0.1083946 0.08457338 0.1321876 0.1420146 0.1896288 0.1658076 0.5636176 0.2061581 0.5913559 0.2061581 0.5913559 0.2028322 0.5636176 0.2067916 0.5636176 0.2101175 0.5913559 0.2101175 0.5636176 0.2094841 0.5913559 0.2094841 0.5913559 0.2061581 0.5636176 0.2067916 0.5913559 0.2067916 0.5913559 0.2034657 0.5636176 0.2026352 0.5636176 0.2059612 0.5913559 0.2059612 0.5636176 0.2059612 0.5636176 0.2092871 0.5913559 0.2092871 0.5636176 0.2059612 0.5636176 0.2092871 0.5913559 0.2092871 0.5636176 0.2026352 0.5636176 0.2059612 0.5913559 0.2059612 0.5636176 0.2067916 0.5913559 0.2067916 0.5913559 0.2034657 0.5636176 0.2099205 0.5913559 0.2099205 0.5913559 0.2065946 0.5636176 0.2094841 0.5913559 0.2094841 0.5913559 0.2061581 0.5636176 0.2067916 0.5636176 0.2101175 0.5913559 0.2101175 0.1896288 0.1658076 0.2470701 0.1420146 0.2708631 0.08457338 0.2708631 0.08457338 0.2470701 0.02713209 0.1896288 0.003339171 0.1896288 0.003339171 0.1321876 0.02713209 0.1896288 0.1658076 0.1321876 0.02713209 0.1083946 0.08457338 0.1896288 0.1658076 0.1083946 0.08457338 0.1321876 0.1420146 0.1896288 0.1658076 0.5636176 0.2061581 0.5913559 0.2061581 0.5913559 0.2028322 0.5636176 0.2065946 0.5913559 0.2065946 0.5913559 0.2032687 0.5636176 0.2065946 0.5913559 0.2065946 0.5913559 0.2032687 0.5636176 0.2099205 0.5913559 0.2099205 0.5913559 0.2065946 0.2446075 0.1399752 0.1892057 0.1629233 0.1338039 0.02917152 0.1892057 0.1629233 0.1338039 0.1399752 0.1338039 0.02917152 0.1338039 0.1399752 0.1108558 0.08457338 0.1338039 0.02917152 0.1338039 0.02917152 0.1892057 0.00622338 0.2446075 0.1399752 0.1892057 0.00622338 0.2446075 0.02917152 0.2446075 0.1399752 0.2446075 0.1399752 0.1892057 0.1629233 0.1338039 0.02917152 0.1892057 0.1629233 0.1338039 0.1399752 0.1338039 0.02917152 0.1338039 0.1399752 0.1108558 0.08457338 0.1338039 0.02917152 0.1338039 0.02917152 0.1892057 0.00622338 0.2446075 0.1399752 0.1892057 0.00622338 0.2446075 0.02917152 0.2446075 0.1399752</float_array>
          <technique_common>
            <accessor source="#Cube-mesh-map-1-array" count="1212" stride="2">
              <param name="S" type="float"/>
              <param name="T" type="float"/>
            </accessor>
          </technique_common>
        </source>
        <vertices id="Cube-mesh-vertices">
          <input semantic="POSITION" source="#Cube-mesh-positions"/>
        </vertices>
        <triangles material="Material_002-material" count="404">
          <input semantic="VERTEX" source="#Cube-mesh-vertices" offset="0"/>
          <input semantic="NORMAL" source="#Cube-mesh-normals" offset="1"/>
          <input semantic="TEXCOORD" source="#Cube-mesh-map-0" offset="2" set="0"/>
          <input semantic="TEXCOORD" source="#Cube-mesh-map-1" offset="2" set="1"/>
          <p>40 0 0 6 1 1 43 1 2 40 0 3 3 2 4 0 3 5 49 1 6 4 1 7 17 1 8 42 4 9 6 5 10 4 6 11 62 7 12 13 8 13 57 9 14 63 10 15 85 11 16 89 12 17 46 1 18 12 1 19 47 13 20 49 14 21 14 15 22 46 14 23 63 10 24 18 16 25 11 17 26 3 18 27 20 19 28 0 20 29 14 21 30 32 21 31 12 21 32 2 22 33 60 22 34 53 22 35 13 14 36 35 14 37 15 14 38 84 21 39 28 21 40 86 21 41 9 23 42 33 24 43 13 25 44 4 21 45 37 21 46 17 21 47 17 15 48 34 15 49 14 15 50 5 26 51 27 27 52 7 28 53 15 15 54 36 29 55 16 30 56 0 21 57 26 21 58 6 21 59 10 31 60 39 32 61 19 32 62 16 30 63 25 33 64 5 34 65 18 35 66 31 36 67 11 37 68 1 14 69 22 14 70 2 14 71 11 37 72 87 38 73 85 39 74 6 21 75 24 21 76 4 21 77 12 21 78 28 21 79 8 21 80 1 14 81 27 14 82 21 14 83 19 15 84 51 40 85 48 41 86 58 42 87 51 40 88 61 43 89 41 22 90 23 22 91 3 22 92 10 44 93 48 45 94 45 46 95 59 14 96 46 14 97 56 14 98 56 1 99 47 13 100 57 47 101 84 48 102 45 46 103 88 49 104 8 50 105 47 13 106 12 1 107 54 51 108 43 52 109 42 4 110 59 1 111 42 1 112 49 1 113 52 53 114 41 1 115 40 0 116 52 53 117 43 1 118 55 54 119 1 55 120 55 54 121 7 56 122 1 55 123 53 57 124 52 53 125 16 1 126 54 51 127 59 1 128 5 58 129 55 54 130 54 51 131 15 1 132 57 47 133 13 1 134 15 14 135 59 14 136 56 14 137 58 59 138 38 60 139 18 61 140 53 22 141 50 22 142 41 22 143 45 46 144 58 62 145 63 63 146 88 49 147 63 63 148 89 64 149 44 65 150 57 47 151 47 13 152 27 66 153 70 67 154 66 22 155 29 68 156 72 69 157 9 70 158 67 71 159 70 71 160 72 71 161 74 72 162 65 73 163 73 74 164 64 75 165 7 76 166 71 77 167 74 72 168 72 78 169 65 73 170 64 75 171 72 78 172 70 79 173 75 80 174 69 81 175 68 82 176 71 77 177 69 81 178 73 74 179 74 72 180 68 82 181 9 83 182 76 21 183 79 21 184 77 21 185 80 14 186 83 14 187 82 14 188 76 22 189 82 22 190 78 22 191 78 84 192 83 84 193 79 84 194 79 15 195 81 15 196 77 15 197 77 85 198 80 85 199 76 86 200 44 87 201 89 88 202 62 89 203 84 90 204 44 87 205 8 91 206 85 39 207 29 92 208 9 38 209 10 31 210 86 21 211 30 93 212 89 94 213 9 95 214 62 96 215 96 84 216 110 97 217 113 84 218 110 97 219 93 98 220 111 84 221 119 84 222 94 84 223 112 84 224 112 99 225 96 100 226 113 101 227 103 102 228 129 103 229 125 104 230 150 105 231 130 106 232 152 107 233 102 84 234 116 84 235 117 108 236 104 14 237 119 14 238 116 14 239 130 106 240 108 109 241 126 110 242 20 19 243 93 18 244 90 20 245 32 21 246 104 21 247 102 21 248 60 22 249 92 22 250 121 22 251 35 14 252 103 14 253 105 14 254 149 21 255 28 21 256 98 21 257 33 24 258 99 23 259 103 25 260 37 21 261 94 21 262 107 21 263 34 15 264 107 15 265 104 15 266 27 27 267 95 26 268 97 28 269 36 29 270 105 15 271 106 30 272 26 21 273 90 21 274 96 21 275 39 32 276 100 31 277 109 32 278 25 33 279 106 30 280 95 34 281 31 36 282 108 35 283 101 111 284 22 14 285 91 14 286 92 14 287 87 38 288 101 111 289 150 112 290 24 21 291 96 21 292 94 21 293 28 21 294 102 21 295 98 21 296 91 14 297 27 14 298 97 14 299 51 40 300 109 15 301 118 41 302 126 42 303 51 40 304 118 41 305 23 22 306 111 22 307 93 22 308 100 113 309 118 114 310 109 84 311 116 14 312 127 14 313 124 14 314 117 108 315 124 84 316 125 115 317 149 116 318 115 117 319 100 113 320 117 108 321 98 118 322 102 84 323 122 119 324 113 101 325 123 120 326 127 84 327 112 84 328 122 119 329 120 121 330 111 84 331 121 122 332 113 84 333 120 121 334 123 120 335 123 120 336 91 123 337 97 124 338 91 123 339 121 122 340 92 84 341 106 84 342 122 119 343 95 125 344 95 125 345 123 120 346 97 124 347 125 115 348 105 84 349 103 84 350 105 14 351 127 14 352 106 14 353 38 126 354 126 127 355 108 128 356 50 22 357 121 22 358 111 22 359 115 117 360 126 129 361 118 114 362 151 130 363 130 131 364 115 117 365 125 115 366 114 132 367 117 108 368 27 66 369 135 67 370 97 133 371 137 69 372 29 68 373 99 70 374 135 71 375 67 71 376 137 71 377 139 134 378 140 135 379 138 136 380 97 137 381 131 138 382 136 139 383 137 140 384 139 134 385 132 141 386 131 138 387 137 140 388 132 141 389 140 135 390 134 142 391 138 136 392 134 142 393 136 139 394 138 136 395 139 134 396 133 143 397 140 135 398 141 21 399 144 21 400 143 21 401 145 14 402 148 14 403 146 14 404 147 22 405 141 22 406 143 22 407 148 1 408 143 1 409 144 1 410 146 15 411 144 15 412 142 15 413 145 144 414 142 144 415 141 145 416 114 146 417 152 147 418 151 148 419 114 146 420 149 149 421 98 150 422 29 92 423 150 112 424 99 151 425 100 31 426 86 21 427 149 21 428 99 152 429 152 153 430 129 154 431 153 84 432 182 84 433 178 84 434 156 155 435 157 156 436 155 157 437 179 158 438 182 159 439 181 160 440 158 161 441 159 162 442 157 163 443 178 164 444 179 164 445 177 165 446 159 166 447 162 167 448 161 168 449 175 169 450 178 170 451 177 171 452 161 172 453 164 173 454 163 174 455 173 175 456 176 176 457 175 177 458 164 178 459 165 178 460 163 179 461 184 180 462 154 180 463 183 181 464 172 182 465 173 183 466 171 184 467 165 185 468 168 186 469 167 187 470 156 188 471 168 84 472 164 189 473 153 190 474 171 191 475 154 192 476 168 193 477 169 194 478 167 195 479 182 196 480 183 197 481 181 198 482 170 199 483 155 199 484 169 200 485 198 1 486 199 1 487 200 201 488 191 1 489 192 1 490 193 202 491 201 1 492 222 1 493 226 1 494 205 203 495 204 204 496 203 157 497 227 205 498 230 206 499 228 207 500 207 208 501 206 209 502 205 210 503 227 164 504 226 164 505 225 165 506 207 211 507 210 212 508 208 213 509 223 214 510 226 215 511 224 216 512 209 217 513 212 218 514 210 219 515 221 220 516 224 221 517 222 222 518 213 178 519 212 178 520 211 179 521 202 180 522 232 180 523 231 181 524 221 223 525 220 224 526 219 225 527 213 226 528 216 227 529 214 228 530 204 229 531 208 230 532 212 231 533 219 232 534 201 233 535 202 192 536 217 234 537 216 235 538 215 236 539 231 237 540 230 237 541 229 238 542 203 199 543 218 199 544 217 200 545 244 84 546 243 84 547 242 239 548 237 84 549 236 84 550 235 240 551 40 0 552 0 3 553 6 1 554 40 0 555 41 1 556 3 2 557 49 1 558 42 1 559 4 1 560 42 4 561 43 52 562 6 5 563 62 7 564 9 241 565 13 8 566 63 10 567 11 17 568 85 11 569 46 1 570 14 1 571 12 1 572 49 14 573 17 15 574 14 15 575 63 10 576 58 242 577 18 16 578 3 18 579 23 243 580 20 19 581 14 21 582 34 21 583 32 21 584 2 22 585 22 22 586 60 22 587 13 14 588 33 14 589 35 14 590 84 21 591 8 21 592 28 21 593 9 23 594 29 25 595 33 24 596 4 21 597 24 21 598 37 21 599 17 15 600 37 15 601 34 15 602 5 26 603 25 244 604 27 27 605 15 15 606 35 15 607 36 29 608 0 21 609 20 21 610 26 21 611 10 31 612 30 93 613 39 32 614 16 30 615 36 29 616 25 33 617 18 35 618 38 35 619 31 36 620 1 14 621 21 14 622 22 14 623 11 37 624 31 36 625 87 38 626 6 21 627 26 21 628 24 21 629 12 21 630 32 21 631 28 21 632 1 14 633 7 14 634 27 14 635 19 15 636 39 15 637 51 40 638 58 42 639 48 41 640 51 40 641 41 22 642 50 22 643 23 22 644 10 44 645 19 1 646 48 45 647 59 14 648 49 14 649 46 14 650 56 1 651 46 1 652 47 13 653 84 48 654 10 44 655 45 46 656 8 50 657 44 65 658 47 13 659 54 51 660 55 54 661 43 52 662 59 1 663 54 51 664 42 1 665 52 53 666 53 57 667 41 1 668 52 53 669 40 0 670 43 1 671 1 55 672 52 53 673 55 54 674 1 55 675 2 1 676 53 57 677 16 1 678 5 58 679 54 51 680 5 58 681 7 56 682 55 54 683 15 1 684 56 1 685 57 47 686 15 14 687 16 14 688 59 14 689 58 59 690 61 245 691 38 60 692 53 22 693 60 22 694 50 22 695 45 46 696 48 45 697 58 62 698 88 49 699 45 46 700 63 63 701 44 65 702 62 246 703 57 47 704 27 66 705 7 133 706 70 67 707 29 68 708 67 68 709 72 69 710 67 71 711 66 71 712 70 71 713 64 75 714 71 77 715 65 73 716 71 77 717 73 74 718 65 73 719 73 74 720 75 80 721 74 72 722 64 75 723 70 79 724 7 76 725 74 72 726 9 83 727 72 78 728 64 75 729 65 73 730 72 78 731 75 80 732 73 74 733 69 81 734 71 77 735 7 76 736 69 81 737 74 72 738 75 80 739 68 82 740 76 21 741 78 21 742 79 21 743 80 14 744 81 14 745 83 14 746 76 22 747 80 22 748 82 22 749 78 84 750 82 84 751 83 84 752 79 15 753 83 15 754 81 15 755 77 85 756 81 86 757 80 85 758 44 87 759 88 247 760 89 88 761 84 90 762 88 247 763 44 87 764 85 39 765 87 38 766 29 92 767 10 31 768 84 21 769 86 21 770 89 94 771 85 248 772 9 95 773 96 84 774 90 249 775 110 97 776 110 97 777 90 249 778 93 98 779 119 84 780 107 84 781 94 84 782 112 99 783 94 250 784 96 100 785 103 102 786 99 251 787 129 103 788 150 105 789 101 252 790 130 106 791 102 84 792 104 84 793 116 84 794 104 14 795 107 14 796 119 14 797 130 106 798 101 252 799 108 109 800 20 19 801 23 243 802 93 18 803 32 21 804 34 21 805 104 21 806 60 22 807 22 22 808 92 22 809 35 14 810 33 14 811 103 14 812 149 21 813 86 21 814 28 21 815 33 24 816 29 25 817 99 23 818 37 21 819 24 21 820 94 21 821 34 15 822 37 15 823 107 15 824 27 27 825 25 244 826 95 26 827 36 29 828 35 15 829 105 15 830 26 21 831 20 21 832 90 21 833 39 32 834 30 93 835 100 31 836 25 33 837 36 29 838 106 30 839 31 36 840 38 35 841 108 35 842 22 14 843 21 14 844 91 14 845 87 38 846 31 36 847 101 111 848 24 21 849 26 21 850 96 21 851 28 21 852 32 21 853 102 21 854 91 14 855 21 14 856 27 14 857 51 40 858 39 15 859 109 15 860 126 42 861 128 43 862 51 40 863 23 22 864 50 22 865 111 22 866 100 113 867 115 117 868 118 114 869 116 14 870 119 14 871 127 14 872 117 108 873 116 84 874 124 84 875 149 116 876 151 130 877 115 117 878 117 108 879 114 132 880 98 118 881 122 119 882 112 99 883 113 101 884 127 84 885 119 84 886 112 84 887 120 121 888 110 97 889 111 84 890 113 84 891 110 97 892 120 121 893 123 120 894 120 121 895 91 123 896 91 123 897 120 121 898 121 122 899 106 84 900 127 84 901 122 119 902 95 125 903 122 119 904 123 120 905 125 115 906 124 84 907 105 84 908 105 14 909 124 14 910 127 14 911 38 126 912 128 253 913 126 127 914 50 22 915 60 22 916 121 22 917 115 117 918 130 131 919 126 129 920 151 130 921 152 254 922 130 131 923 125 115 924 129 255 925 114 132 926 27 66 927 66 22 928 135 67 929 137 69 930 67 68 931 29 68 932 135 71 933 66 71 934 67 71 935 138 136 936 136 139 937 132 141 938 136 139 939 131 138 940 132 141 941 132 141 942 139 134 943 138 136 944 97 137 945 135 256 946 131 138 947 137 140 948 99 257 949 139 134 950 131 138 951 135 256 952 137 140 953 140 135 954 133 143 955 134 142 956 134 142 957 97 137 958 136 139 959 139 134 960 99 257 961 133 143 962 141 21 963 142 21 964 144 21 965 145 14 966 147 14 967 148 14 968 147 22 969 145 22 970 141 22 971 148 1 972 147 1 973 143 1 974 146 15 975 148 15 976 144 15 977 145 144 978 146 145 979 142 144 980 114 146 981 129 258 982 152 147 983 114 146 984 151 148 985 149 149 986 29 92 987 87 38 988 150 112 989 100 31 990 30 93 991 86 21 992 99 152 993 150 259 994 152 153 995 174 84 996 172 84 997 153 84 998 153 84 999 184 84 1000 182 84 1001 182 84 1002 180 84 1003 178 84 1004 178 84 1005 176 84 1006 174 84 1007 174 84 1008 153 84 1009 178 84 1010 156 155 1011 158 260 1012 157 156 1013 179 158 1014 180 207 1015 182 159 1016 158 161 1017 160 261 1018 159 162 1019 178 164 1020 180 262 1021 179 164 1022 159 166 1023 160 213 1024 162 167 1025 175 169 1026 176 263 1027 178 170 1028 161 172 1029 162 264 1030 164 173 1031 173 175 1032 174 265 1033 176 176 1034 164 178 1035 166 266 1036 165 178 1037 184 180 1038 153 267 1039 154 180 1040 172 182 1041 174 268 1042 173 183 1043 165 185 1044 166 228 1045 168 186 1046 160 269 1047 158 270 1048 156 188 1049 156 188 1050 170 84 1051 168 84 1052 168 84 1053 166 84 1054 164 189 1055 164 189 1056 162 271 1057 160 269 1058 160 269 1059 156 188 1060 164 189 1061 153 190 1062 172 272 1063 171 191 1064 168 193 1065 170 273 1066 169 194 1067 182 196 1068 184 274 1069 183 197 1070 170 199 1071 156 275 1072 155 199 1073 200 201 1074 185 276 1075 196 277 1076 185 276 1077 194 1 1078 196 277 1079 194 1 1080 195 1 1081 196 277 1082 196 277 1083 197 278 1084 200 201 1085 197 278 1086 198 1 1087 200 201 1088 193 202 1089 186 279 1090 189 280 1091 186 279 1092 187 1 1093 189 280 1094 187 1 1095 188 1 1096 189 280 1097 189 280 1098 190 278 1099 193 202 1100 190 278 1101 191 1 1102 193 202 1103 201 1 1104 220 1 1105 222 1 1106 222 1 1107 224 1 1108 226 1 1109 226 1 1110 228 1 1111 201 1 1112 228 1 1113 230 1 1114 201 1 1115 230 1 1116 232 1 1117 201 1 1118 205 203 1119 206 281 1120 204 204 1121 227 205 1122 229 282 1123 230 206 1124 207 208 1125 208 261 1126 206 209 1127 227 164 1128 228 262 1129 226 164 1130 207 211 1131 209 283 1132 210 212 1133 223 214 1134 225 171 1135 226 215 1136 209 217 1137 211 174 1138 212 218 1139 221 220 1140 223 284 1141 224 221 1142 213 178 1143 214 266 1144 212 178 1145 202 180 1146 201 267 1147 232 180 1148 221 223 1149 222 285 1150 220 224 1151 213 226 1152 215 286 1153 216 227 1154 204 229 1155 206 287 1156 208 230 1157 208 230 1158 210 288 1159 212 231 1160 212 231 1161 214 1 1162 204 229 1163 214 1 1164 216 1 1165 204 229 1166 216 1 1167 218 1 1168 204 229 1169 219 232 1170 220 289 1171 201 233 1172 217 234 1173 218 273 1174 216 235 1175 231 237 1176 232 274 1177 230 237 1178 203 199 1179 204 275 1180 218 199 1181 242 239 1182 233 290 1183 246 291 1184 233 290 1185 248 84 1186 246 291 1187 248 84 1188 247 84 1189 246 291 1190 246 291 1191 245 292 1192 242 239 1193 245 292 1194 244 84 1195 242 239 1196 235 240 1197 234 290 1198 239 293 1199 234 290 1200 241 84 1201 239 293 1202 241 84 1203 240 84 1204 239 293 1205 239 293 1206 238 294 1207 235 240 1208 238 294 1209 237 84 1210 235 240 1211</p>
        </triangles>
      </mesh>
    </geometry>
  </library_geometries>
  <library_visual_scenes>
    <visual_scene id="Scene" name="Scene">
      <node id="vl_01" name="vl_01" type="NODE">
        <matrix sid="transform">1 0 0 0 0 1 0 0 0 0 1 0 0 0 0 1</matrix>
        <instance_geometry url="#Cube-mesh" name="vl_01">
          <bind_material>
            <technique_common>
              <instance_material symbol="Material_002-material" target="#Material_002-material">
                <bind_vertex_input semantic="UVMap" input_semantic="TEXCOORD" input_set="0"/>
                <bind_vertex_input semantic="UVMap.001" input_semantic="TEXCOORD" input_set="1"/>
              </instance_material>
            </technique_common>
          </bind_material>
        </instance_geometry>
      </node>
    </visual_scene>
  </library_visual_scenes>
  <scene>
    <instance_visual_scene url="#Scene"/>
  </scene>
</COLLADA>