<?xml version="1.0" encoding="utf-8"?>
<COLLADA xmlns="http://www.collada.org/2005/11/COLLADASchema" version="1.4.1" xmlns:xsi="http://www.w3.org/2001/XMLSchema-instance">
  <asset>
    <contributor>
      <author>Blender User</author>
      <authoring_tool>Blender 4.3.1 commit date:2024-12-10, commit time:07:46, hash:33d812126174</authoring_tool>
    </contributor>
    <created>2026-08-16T20:57:11</created>
    <modified>2026-08-16T20:57:11</modified>
    <unit name="inch" meter="0.0254"/>
    <up_axis>Z_UP</up_axis>
  </asset>
  <library_effects>
    <effect id="Material_001-effect">
      <profile_COMMON>
        <technique sid="common">
          <lambert>
            <emission>
              <color sid="emission">0 0 0 1</color>
            </emission>
            <diffuse>
              <color sid="diffuse">0.8 0.8 0.8 1</color>
            </diffuse>
            <index_of_refraction>
              <float sid="ior">1.45</float>
            </index_of_refraction>
          </lambert>
        </technique>
      </profile_COMMON>
    </effect>
  </library_effects>
  <library_images/>
  <library_materials>
    <material id="Material_001-material" name="Material.001">
      <instance_effect url="#Material_001-effect"/>
    </material>
  </library_materials>
  <library_geometries>
    <geometry id="Cube_001-mesh" name="Cube.001">
      <mesh>
        <source id="Cube_001-mesh-positions">
          <float_array id="Cube_001-mesh-positions-array" count="63">-0.9530387 -0.2900648 8.297811 -0.7467542 -1.927883 7.346069 -0.7506963 -1.811838 7.612185 -0.9530387 -1.313799 7.500406 0.7467542 -1.927883 7.346069 0.9530387 -1.313799 7.500406 0.7506963 -1.811838 7.612185 -0.7506963 -1.19757 8.186032 -0.9530387 -0.4593017 8.297811 0.9530387 -0.4593017 8.297811 0.7506963 -1.19757 8.186032 -0.6974561 -1.882331 5.397314 -0.895932 -1.625267 5.242976 0.895932 -1.262057 5.242976 0.6974561 -1.882331 5.397314 0 -0.2900648 8.297811 0 -2.237563 7.346069 0 -2.121518 7.612185 0 -0.8225116 8.297811 0 -1.507251 8.186032 0 -2.19201 5.397314</float_array>
          <technique_common>
            <accessor source="#Cube_001-mesh-positions-array" count="21" stride="3">
              <param name="X" type="float"/>
              <param name="Y" type="float"/>
              <param name="Z" type="float"/>
            </accessor>
          </technique_common>
        </source>
        <source id="Cube_001-mesh-normals">
          <float_array id="Cube_001-mesh-normals-array" count="66">0 0 1 0 -0.4952374 0.8687577 -0.6543009 -0.6149537 0.4401389 0 -0.8321875 0.5544945 -0.6896489 -0.7109007 0.1378573 -0.9971151 -0.05797743 0.04898995 0.6995573 -0.7038441 0.1233817 0.9981936 -0.04004055 0.04479122 0.6543009 -0.6149537 0.4401389 0 -0.9837382 0.1796088 -0.5335987 -0.3792066 0.7559596 0.5335987 -0.3792066 0.7559596 0.7751835 0.1089488 0.6222707 1.74344e-6 -0.0512098 0.9986879 -0.8608062 -0.3570976 -0.362621 0.9437274 -0.06100255 -0.3250498 0.7596869 -0.6495748 -0.03047281 -0.6316337 -0.774663 -0.03059625 0 -0.999727 -0.02336883 -2.95641e-6 0 1 -0.7751536 0.1089908 0.6223005 9.39687e-7 0 1</float_array>
          <technique_common>
            <accessor source="#Cube_001-mesh-normals-array" count="22" stride="3">
              <param name="X" type="float"/>
              <param name="Y" type="float"/>
              <param name="Z" type="float"/>
            </accessor>
          </technique_common>
        </source>
        <source id="Cube_001-mesh-map-0">
          <float_array id="Cube_001-mesh-map-0-array" count="174">0.3827797 0.6819638 0.5122243 0.6819638 0.5122243 0.6819638 0.5695331 0.3560644 0.5758233 0.362531 0.5695331 0.362531 0.5757903 0.3640621 0.5758233 0.362531 0.5775188 0.3637906 0.5632759 0.3640621 0.5615475 0.3637906 0.5632429 0.362531 0.5632759 0.3640621 0.5695331 0.362531 0.5695331 0.3640621 0.5758233 0.3560644 0.5775188 0.3637906 0.5758233 0.362531 0.5632429 0.3560644 0.5615475 0.3637906 0.5615475 0.3548048 0.5695331 0.3548048 0.5758233 0.3560644 0.5695331 0.3560644 0.5770403 0.3677622 0.5757903 0.3640621 0.5775188 0.3637906 0.562026 0.3677622 0.5632759 0.3640621 0.5636891 0.3674906 0.5695331 0.3640621 0.5753772 0.3674906 0.5695331 0.3674906 0.5695331 0.3640621 0.5636891 0.3674906 0.5632759 0.3640621 0.5695331 0.3548048 0.5632429 0.3560644 0.5615475 0.3548048 0.5757903 0.3640621 0.5695331 0.362531 0.5758233 0.362531 0.5632429 0.362531 0.5695331 0.3560644 0.5695331 0.362531 0.3827797 0.6819638 0.3827797 0.6819638 0.5122243 0.6819638 0.5695331 0.3560644 0.5758233 0.3560644 0.5758233 0.362531 0.5632759 0.3640621 0.5632429 0.362531 0.5695331 0.362531 0.5758233 0.3560644 0.5775188 0.3548048 0.5775188 0.3637906 0.5632429 0.3560644 0.5632429 0.362531 0.5615475 0.3637906 0.5695331 0.3548048 0.5775188 0.3548048 0.5758233 0.3560644 0.5770403 0.3677622 0.5753772 0.3674906 0.5757903 0.3640621 0.562026 0.3677622 0.5615475 0.3637906 0.5632759 0.3640621 0.5695331 0.3640621 0.5757903 0.3640621 0.5753772 0.3674906 0.5695331 0.3640621 0.5695331 0.3674906 0.5636891 0.3674906 0.5695331 0.3548048 0.5695331 0.3560644 0.5632429 0.3560644 0.5757903 0.3640621 0.5695331 0.3640621 0.5695331 0.362531 0.5632429 0.362531 0.5632429 0.3560644 0.5695331 0.3560644 0.5122243 0.6819638 0.5122243 0.6819638 0.6416688 0.6819638</float_array>
          <technique_common>
            <accessor source="#Cube_001-mesh-map-0-array" count="87" stride="2">
              <param name="S" type="float"/>
              <param name="T" type="float"/>
            </accessor>
          </technique_common>
        </source>
        <source id="Cube_001-mesh-map-1">
          <float_array id="Cube_001-mesh-map-1-array" count="174">0.3827797 0.6819638 0.5122243 0.6819638 0.5122243 0.6819638 0.5695331 0.3560644 0.5758233 0.362531 0.5695331 0.362531 0.5757903 0.3640621 0.5758233 0.362531 0.5775188 0.3637906 0.5632759 0.3640621 0.5615475 0.3637906 0.5632429 0.362531 0.5632759 0.3640621 0.5695331 0.362531 0.5695331 0.3640621 0.5758233 0.3560644 0.5775188 0.3637906 0.5758233 0.362531 0.5632429 0.3560644 0.5615475 0.3637906 0.5615475 0.3548048 0.5695331 0.3548048 0.5758233 0.3560644 0.5695331 0.3560644 0.5770403 0.3677622 0.5757903 0.3640621 0.5775188 0.3637906 0.562026 0.3677622 0.5632759 0.3640621 0.5636891 0.3674906 0.5695331 0.3640621 0.5753772 0.3674906 0.5695331 0.3674906 0.5695331 0.3640621 0.5636891 0.3674906 0.5632759 0.3640621 0.5695331 0.3548048 0.5632429 0.3560644 0.5615475 0.3548048 0.5757903 0.3640621 0.5695331 0.362531 0.5758233 0.362531 0.5632429 0.362531 0.5695331 0.3560644 0.5695331 0.362531 0.3827797 0.6819638 0.3827797 0.6819638 0.5122243 0.6819638 0.5695331 0.3560644 0.5758233 0.3560644 0.5758233 0.362531 0.5632759 0.3640621 0.5632429 0.362531 0.5695331 0.362531 0.5758233 0.3560644 0.5775188 0.3548048 0.5775188 0.3637906 0.5632429 0.3560644 0.5632429 0.362531 0.5615475 0.3637906 0.5695331 0.3548048 0.5775188 0.3548048 0.5758233 0.3560644 0.5770403 0.3677622 0.5753772 0.3674906 0.5757903 0.3640621 0.562026 0.3677622 0.5615475 0.3637906 0.5632759 0.3640621 0.5695331 0.3640621 0.5757903 0.3640621 0.5753772 0.3674906 0.5695331 0.3640621 0.5695331 0.3674906 0.5636891 0.3674906 0.5695331 0.3548048 0.5695331 0.3560644 0.5632429 0.3560644 0.5757903 0.3640621 0.5695331 0.3640621 0.5695331 0.362531 0.5632429 0.362531 0.5632429 0.3560644 0.5695331 0.3560644 0.5122243 0.6819638 0.5122243 0.6819638 0.6416688 0.6819638</float_array>
          <technique_common>
            <accessor source="#Cube_001-mesh-map-1-array" count="87" stride="2">
              <param name="S" type="float"/>
              <param name="T" type="float"/>
            </accessor>
          </technique_common>
        </source>
        <vertices id="Cube_001-mesh-vertices">
          <input semantic="POSITION" source="#Cube_001-mesh-positions"/>
        </vertices>
        <triangles material="Material_001-material" count="29">
          <input semantic="VERTEX" source="#Cube_001-mesh-vertices" offset="0"/>
          <input semantic="NORMAL" source="#Cube_001-mesh-normals" offset="1"/>
          <input semantic="TEXCOORD" source="#Cube_001-mesh-map-0" offset="2" set="0"/>
          <input semantic="TEXCOORD" source="#Cube_001-mesh-map-1" offset="2" set="1"/>
          <p>0 0 0 18 0 1 15 0 2 19 1 3 2 2 4 17 3 5 1 4 6 2 2 7 3 5 8 4 6 9 5 7 10 6 8 11 4 6 12 17 3 13 16 9 14 7 10 15 3 5 16 2 2 17 10 11 18 5 7 19 9 12 20 18 13 21 7 10 22 19 1 23 12 14 24 1 4 25 3 5 26 13 15 27 4 6 28 14 16 29 16 9 30 11 17 31 20 18 32 16 9 33 14 16 34 4 6 35 18 13 36 10 11 37 9 12 38 1 4 39 17 3 40 2 2 41 6 8 42 19 1 43 17 3 44 0 19 45 8 19 46 18 19 47 19 1 48 7 10 49 2 2 50 4 6 51 6 8 52 17 3 53 7 10 54 8 20 55 3 5 56 10 11 57 6 8 58 5 7 59 18 13 60 8 20 61 7 10 62 12 14 63 11 17 64 1 4 65 13 15 66 5 7 67 4 6 68 16 9 69 1 4 70 11 17 71 16 9 72 20 18 73 14 16 74 18 13 75 19 1 76 10 11 77 1 4 78 16 9 79 17 3 80 6 8 81 10 11 82 19 1 83 15 21 84 18 21 85 9 21 86</p>
        </triangles>
      </mesh>
    </geometry>
  </library_geometries>
  <library_visual_scenes>
    <visual_scene id="Scene" name="Scene">
      <node id="drone_worker_glass" name="drone_worker_glass" type="NODE">
        <matrix sid="transform">1 0 0 0 0 1 0 0 0 0 1 0 0 0 0 1</matrix>
        <instance_geometry url="#Cube_001-mesh" name="drone_worker_glass">
          <bind_material>
            <technique_common>
              <instance_material symbol="Material_001-material" target="#Material_001-material">
                <bind_vertex_input semantic="Cube_008-mesh-map-0" input_semantic="TEXCOORD" input_set="0"/>
                <bind_vertex_input semantic="UVMap" input_semantic="TEXCOORD" input_set="1"/>
              </instance_material>
            </technique_common>
          </bind_material>
        </instance_geometry>
      </node>
    </visual_scene>
  </library_visual_scenes>
  <scene>
    <instance_visual_scene url="#Scene"/>
  </scene>
</COLLADA>