<?xml version="1.0" encoding="utf-8"?>
<COLLADA xmlns="http://www.collada.org/2005/11/COLLADASchema" version="1.4.1">
  <asset>
    <contributor><authoring_tool>mars_wars gen_art.py</authoring_tool></contributor>
    <unit name="meter" meter="1"/>
    <up_axis>Z_UP</up_axis>
  </asset>
  <library_effects>
    <effect id="aa_launcher-effect"><profile_COMMON><technique sid="common"><lambert><diffuse><color>1 1 1 1</color></diffuse></lambert></technique></profile_COMMON></effect>
  </library_effects>
  <library_materials>
    <material id="aa_launcher-material" name="aa_launcher"><instance_effect url="#aa_launcher-effect"/></material>
  </library_materials>
  <library_geometries>
    <geometry id="aa_launcher-mesh" name="aa_launcher">
      <mesh>
        <source id="aa_launcher-positions">
          <float_array id="aa_launcher-positions-array" count="1269">-2.8 -2.8 0.7 2.8 -2.8 0.7 2.8 2.8 0.7 -2.8 2.8 0.7 -2.8 2.8 0 2.8 2.8 0 2.8 -2.8 0 -2.8 -2.8 0 2.8 -2.8 0 2.8 2.8 0 2.8 2.8 0.7 2.8 -2.8 0.7 -2.8 2.8 0 -2.8 -2.8 0 -2.8 -2.8 0.7 -2.8 2.8 0.7 2.8 2.8 0 -2.8 2.8 0 -2.8 2.8 0.7 2.8 2.8 0.7 -2.8 -2.8 0 2.8 -2.8 0 2.8 -2.8 0.7 -2.8 -2.8 0.7 -2.2 -2.5 3.3 2.2 -2.5 3.3 2.2 1.1 3.3 -2.2 1.1 3.3 -2.2 1.1 0.7 2.2 1.1 0.7 2.2 -2.5 0.7 -2.2 -2.5 0.7 2.2 -2.5 0.7 2.2 1.1 0.7 2.2 1.1 3.3 2.2 -2.5 3.3 -2.2 1.1 0.7 -2.2 -2.5 0.7 -2.2 -2.5 3.3 -2.2 1.1 3.3 2.2 1.1 0.7 -2.2 1.1 0.7 -2.2 1.1 3.3 2.2 1.1 3.3 -2.2 -2.5 0.7 2.2 -2.5 0.7 2.2 -2.5 3.3 -2.2 -2.5 3.3 -0.85 -1.55 3.3 -0.95504 -1.2267 3.3 -0.95504 -1.2267 3.52 -0.85 -1.55 3.52 -0.95504 -1.2267 3.3 -1.23 -1.0269 3.3 -1.23 -1.0269 3.52 -0.95504 -1.2267 3.52 -1.23 -1.0269 3.3 -1.57 -1.0269 3.3 -1.57 -1.0269 3.52 -1.23 -1.0269 3.52 -1.57 -1.0269 3.3 -1.845 -1.2267 3.3 -1.845 -1.2267 3.52 -1.57 -1.0269 3.52 -1.845 -1.2267 3.3 -1.95 -1.55 3.3 -1.95 -1.55 3.52 -1.845 -1.2267 3.52 -1.95 -1.55 3.3 -1.845 -1.8733 3.3 -1.845 -1.8733 3.52 -1.95 -1.55 3.52 -1.845 -1.8733 3.3 -1.57 -2.0731 3.3 -1.57 -2.0731 3.52 -1.845 -1.8733 3.52 -1.57 -2.0731 3.3 -1.23 -2.0731 3.3 -1.23 -2.0731 3.52 -1.57 -2.0731 3.52 -1.23 -2.0731 3.3 -0.95504 -1.8733 3.3 -0.95504 -1.8733 3.52 -1.23 -2.0731 3.52 -0.95504 -1.8733 3.3 -0.85 -1.55 3.3 -0.85 -1.55 3.52 -0.95504 -1.8733 3.52 -1.4 -1.55 3.52 -0.85 -1.55 3.52 -0.95504 -1.2267 3.52 -1.23 -1.0269 3.52 -1.57 -1.0269 3.52 -1.845 -1.2267 3.52 -1.95 -1.55 3.52 -1.845 -1.8733 3.52 -1.57 -2.0731 3.52 -1.23 -2.0731 3.52 -0.95504 -1.8733 3.52 -0.85 0.15 3.3 -0.95504 0.47328 3.3 -0.95504 0.47328 3.52 -0.85 0.15 3.52 -0.95504 0.47328 3.3 -1.23 0.67308 3.3 -1.23 0.67308 3.52 -0.95504 0.47328 3.52 -1.23 0.67308 3.3 -1.57 0.67308 3.3 -1.57 0.67308 3.52 -1.23 0.67308 3.52 -1.57 0.67308 3.3 -1.845 0.47328 3.3 -1.845 0.47328 3.52 -1.57 0.67308 3.52 -1.845 0.47328 3.3 -1.95 0.15 3.3 -1.95 0.15 3.52 -1.845 0.47328 3.52 -1.95 0.15 3.3 -1.845 -0.17328 3.3 -1.845 -0.17328 3.52 -1.95 0.15 3.52 -1.845 -0.17328 3.3 -1.57 -0.37308 3.3 -1.57 -0.37308 3.52 -1.845 -0.17328 3.52 -1.57 -0.37308 3.3 -1.23 -0.37308 3.3 -1.23 -0.37308 3.52 -1.57 -0.37308 3.52 -1.23 -0.37308 3.3 -0.95504 -0.17328 3.3 -0.95504 -0.17328 3.52 -1.23 -0.37308 3.52 -0.95504 -0.17328 3.3 -0.85 0.15 3.3 -0.85 0.15 3.52 -0.95504 -0.17328 3.52 -1.4 0.15 3.52 -0.85 0.15 3.52 -0.95504 0.47328 3.52 -1.23 0.67308 3.52 -1.57 0.67308 3.52 -1.845 0.47328 3.52 -1.95 0.15 3.52 -1.845 -0.17328 3.52 -1.57 -0.37308 3.52 -1.23 -0.37308 3.52 -0.95504 -0.17328 3.52 0.55 -1.55 3.3 0.44496 -1.2267 3.3 0.44496 -1.2267 3.52 0.55 -1.55 3.52 0.44496 -1.2267 3.3 0.16996 -1.0269 3.3 0.16996 -1.0269 3.52 0.44496 -1.2267 3.52 0.16996 -1.0269 3.3 -0.16996 -1.0269 3.3 -0.16996 -1.0269 3.52 0.16996 -1.0269 3.52 -0.16996 -1.0269 3.3 -0.44496 -1.2267 3.3 -0.44496 -1.2267 3.52 -0.16996 -1.0269 3.52 -0.44496 -1.2267 3.3 -0.55 -1.55 3.3 -0.55 -1.55 3.52 -0.44496 -1.2267 3.52 -0.55 -1.55 3.3 -0.44496 -1.8733 3.3 -0.44496 -1.8733 3.52 -0.55 -1.55 3.52 -0.44496 -1.8733 3.3 -0.16996 -2.0731 3.3 -0.16996 -2.0731 3.52 -0.44496 -1.8733 3.52 -0.16996 -2.0731 3.3 0.16996 -2.0731 3.3 0.16996 -2.0731 3.52 -0.16996 -2.0731 3.52 0.16996 -2.0731 3.3 0.44496 -1.8733 3.3 0.44496 -1.8733 3.52 0.16996 -2.0731 3.52 0.44496 -1.8733 3.3 0.55 -1.55 3.3 0.55 -1.55 3.52 0.44496 -1.8733 3.52 0 -1.55 3.52 0.55 -1.55 3.52 0.44496 -1.2267 3.52 0.16996 -1.0269 3.52 -0.16996 -1.0269 3.52 -0.44496 -1.2267 3.52 -0.55 -1.55 3.52 -0.44496 -1.8733 3.52 -0.16996 -2.0731 3.52 0.16996 -2.0731 3.52 0.44496 -1.8733 3.52 0.55 0.15 3.3 0.44496 0.47328 3.3 0.44496 0.47328 3.52 0.55 0.15 3.52 0.44496 0.47328 3.3 0.16996 0.67308 3.3 0.16996 0.67308 3.52 0.44496 0.47328 3.52 0.16996 0.67308 3.3 -0.16996 0.67308 3.3 -0.16996 0.67308 3.52 0.16996 0.67308 3.52 -0.16996 0.67308 3.3 -0.44496 0.47328 3.3 -0.44496 0.47328 3.52 -0.16996 0.67308 3.52 -0.44496 0.47328 3.3 -0.55 0.15 3.3 -0.55 0.15 3.52 -0.44496 0.47328 3.52 -0.55 0.15 3.3 -0.44496 -0.17328 3.3 -0.44496 -0.17328 3.52 -0.55 0.15 3.52 -0.44496 -0.17328 3.3 -0.16996 -0.37308 3.3 -0.16996 -0.37308 3.52 -0.44496 -0.17328 3.52 -0.16996 -0.37308 3.3 0.16996 -0.37308 3.3 0.16996 -0.37308 3.52 -0.16996 -0.37308 3.52 0.16996 -0.37308 3.3 0.44496 -0.17328 3.3 0.44496 -0.17328 3.52 0.16996 -0.37308 3.52 0.44496 -0.17328 3.3 0.55 0.15 3.3 0.55 0.15 3.52 0.44496 -0.17328 3.52 0 0.15 3.52 0.55 0.15 3.52 0.44496 0.47328 3.52 0.16996 0.67308 3.52 -0.16996 0.67308 3.52 -0.44496 0.47328 3.52 -0.55 0.15 3.52 -0.44496 -0.17328 3.52 -0.16996 -0.37308 3.52 0.16996 -0.37308 3.52 0.44496 -0.17328 3.52 1.95 -1.55 3.3 1.845 -1.2267 3.3 1.845 -1.2267 3.52 1.95 -1.55 3.52 1.845 -1.2267 3.3 1.57 -1.0269 3.3 1.57 -1.0269 3.52 1.845 -1.2267 3.52 1.57 -1.0269 3.3 1.23 -1.0269 3.3 1.23 -1.0269 3.52 1.57 -1.0269 3.52 1.23 -1.0269 3.3 0.95504 -1.2267 3.3 0.95504 -1.2267 3.52 1.23 -1.0269 3.52 0.95504 -1.2267 3.3 0.85 -1.55 3.3 0.85 -1.55 3.52 0.95504 -1.2267 3.52 0.85 -1.55 3.3 0.95504 -1.8733 3.3 0.95504 -1.8733 3.52 0.85 -1.55 3.52 0.95504 -1.8733 3.3 1.23 -2.0731 3.3 1.23 -2.0731 3.52 0.95504 -1.8733 3.52 1.23 -2.0731 3.3 1.57 -2.0731 3.3 1.57 -2.0731 3.52 1.23 -2.0731 3.52 1.57 -2.0731 3.3 1.845 -1.8733 3.3 1.845 -1.8733 3.52 1.57 -2.0731 3.52 1.845 -1.8733 3.3 1.95 -1.55 3.3 1.95 -1.55 3.52 1.845 -1.8733 3.52 1.4 -1.55 3.52 1.95 -1.55 3.52 1.845 -1.2267 3.52 1.57 -1.0269 3.52 1.23 -1.0269 3.52 0.95504 -1.2267 3.52 0.85 -1.55 3.52 0.95504 -1.8733 3.52 1.23 -2.0731 3.52 1.57 -2.0731 3.52 1.845 -1.8733 3.52 1.95 0.15 3.3 1.845 0.47328 3.3 1.845 0.47328 3.52 1.95 0.15 3.52 1.845 0.47328 3.3 1.57 0.67308 3.3 1.57 0.67308 3.52 1.845 0.47328 3.52 1.57 0.67308 3.3 1.23 0.67308 3.3 1.23 0.67308 3.52 1.57 0.67308 3.52 1.23 0.67308 3.3 0.95504 0.47328 3.3 0.95504 0.47328 3.52 1.23 0.67308 3.52 0.95504 0.47328 3.3 0.85 0.15 3.3 0.85 0.15 3.52 0.95504 0.47328 3.52 0.85 0.15 3.3 0.95504 -0.17328 3.3 0.95504 -0.17328 3.52 0.85 0.15 3.52 0.95504 -0.17328 3.3 1.23 -0.37308 3.3 1.23 -0.37308 3.52 0.95504 -0.17328 3.52 1.23 -0.37308 3.3 1.57 -0.37308 3.3 1.57 -0.37308 3.52 1.23 -0.37308 3.52 1.57 -0.37308 3.3 1.845 -0.17328 3.3 1.845 -0.17328 3.52 1.57 -0.37308 3.52 1.845 -0.17328 3.3 1.95 0.15 3.3 1.95 0.15 3.52 1.845 -0.17328 3.52 1.4 0.15 3.52 1.95 0.15 3.52 1.845 0.47328 3.52 1.57 0.67308 3.52 1.23 0.67308 3.52 0.95504 0.47328 3.52 0.85 0.15 3.52 0.95504 -0.17328 3.52 1.23 -0.37308 3.52 1.57 -0.37308 3.52 1.845 -0.17328 3.52 0.28 1.9 0.7 0.19799 2.098 0.7 0.19799 2.098 5.7 0.28 1.9 5.7 0.19799 2.098 0.7 1.7145e-17 2.18 0.7 1.7145e-17 2.18 5.7 0.19799 2.098 5.7 1.7145e-17 2.18 0.7 -0.19799 2.098 0.7 -0.19799 2.098 5.7 1.7145e-17 2.18 5.7 -0.19799 2.098 0.7 -0.28 1.9 0.7 -0.28 1.9 5.7 -0.19799 2.098 5.7 -0.28 1.9 0.7 -0.19799 1.702 0.7 -0.19799 1.702 5.7 -0.28 1.9 5.7 -0.19799 1.702 0.7 -5.1435e-17 1.62 0.7 -5.1435e-17 1.62 5.7 -0.19799 1.702 5.7 -5.1435e-17 1.62 0.7 0.19799 1.702 0.7 0.19799 1.702 5.7 -5.1435e-17 1.62 5.7 0.19799 1.702 0.7 0.28 1.9 0.7 0.28 1.9 5.7 0.19799 1.702 5.7 0 1.9 5.7 0.28 1.9 5.7 0.19799 2.098 5.7 1.7145e-17 2.18 5.7 -0.19799 2.098 5.7 -0.28 1.9 5.7 -0.19799 1.702 5.7 -5.1435e-17 1.62 5.7 0.19799 1.702 5.7 -1.6 1.5328 7.2824 1.6 1.5328 7.2824 1.6 1.8147 7.385 -1.6 1.8147 7.385 -1.6 2.5672 5.3176 1.6 2.5672 5.3176 1.6 2.2853 5.215 -1.6 2.2853 5.215 1.6 2.2853 5.215 1.6 2.5672 5.3176 1.6 1.8147 7.385 1.6 1.5328 7.2824 -1.6 2.5672 5.3176 -1.6 2.2853 5.215 -1.6 1.5328 7.2824 -1.6 1.8147 7.385 1.6 2.5672 5.3176 -1.6 2.5672 5.3176 -1.6 1.8147 7.385 1.6 1.8147 7.385 -1.6 2.2853 5.215 1.6 2.2853 5.215 1.6 1.5328 7.2824 -1.6 1.5328 7.2824 -1.55 2.2491 5.3133 1.55 2.2491 5.3133 1.55 1.5309 7.2867 -1.55 1.5309 7.2867</float_array>
          <technique_common><accessor source="#aa_launcher-positions-array" count="423" stride="3"><param name="X" type="float"/><param name="Y" type="float"/><param name="Z" type="float"/></accessor></technique_common>
        </source>
        <source id="aa_launcher-normals">
          <float_array id="aa_launcher-normals-array" count="1269">0 0 1 0 0 1 0 0 1 0 0 1 0 0 -1 0 0 -1 0 0 -1 0 0 -1 1 0 0 1 0 0 1 0 0 1 0 0 -1 0 0 -1 0 0 -1 0 0 -1 0 0 0 1 0 0 1 0 0 1 0 0 1 0 0 -1 0 0 -1 0 0 -1 0 0 -1 0 0 0 1 0 0 1 0 0 1 0 0 1 0 0 -1 0 0 -1 0 0 -1 0 0 -1 1 0 0 1 0 0 1 0 0 1 0 0 -1 0 0 -1 0 0 -1 0 0 -1 0 0 0 1 0 0 1 0 0 1 0 0 1 0 0 -1 0 0 -1 0 0 -1 0 0 -1 0 0.95106 0.30902 0 0.95106 0.30902 0 0.95106 0.30902 0 0.95106 0.30902 0 0.58779 0.80902 0 0.58779 0.80902 0 0.58779 0.80902 0 0.58779 0.80902 0 6.1232e-17 1 0 6.1232e-17 1 0 6.1232e-17 1 0 6.1232e-17 1 0 -0.58779 0.80902 0 -0.58779 0.80902 0 -0.58779 0.80902 0 -0.58779 0.80902 0 -0.95106 0.30902 0 -0.95106 0.30902 0 -0.95106 0.30902 0 -0.95106 0.30902 0 -0.95106 -0.30902 0 -0.95106 -0.30902 0 -0.95106 -0.30902 0 -0.95106 -0.30902 0 -0.58779 -0.80902 0 -0.58779 -0.80902 0 -0.58779 -0.80902 0 -0.58779 -0.80902 0 -1.837e-16 -1 0 -1.837e-16 -1 0 -1.837e-16 -1 0 -1.837e-16 -1 0 0.58779 -0.80902 0 0.58779 -0.80902 0 0.58779 -0.80902 0 0.58779 -0.80902 0 0.95106 -0.30902 0 0.95106 -0.30902 0 0.95106 -0.30902 0 0.95106 -0.30902 0 0 0 1 0 0 1 0 0 1 0 0 1 0 0 1 0 0 1 0 0 1 0 0 1 0 0 1 0 0 1 0 0 1 0.95106 0.30902 0 0.95106 0.30902 0 0.95106 0.30902 0 0.95106 0.30902 0 0.58779 0.80902 0 0.58779 0.80902 0 0.58779 0.80902 0 0.58779 0.80902 0 6.1232e-17 1 0 6.1232e-17 1 0 6.1232e-17 1 0 6.1232e-17 1 0 -0.58779 0.80902 0 -0.58779 0.80902 0 -0.58779 0.80902 0 -0.58779 0.80902 0 -0.95106 0.30902 0 -0.95106 0.30902 0 -0.95106 0.30902 0 -0.95106 0.30902 0 -0.95106 -0.30902 0 -0.95106 -0.30902 0 -0.95106 -0.30902 0 -0.95106 -0.30902 0 -0.58779 -0.80902 0 -0.58779 -0.80902 0 -0.58779 -0.80902 0 -0.58779 -0.80902 0 -1.837e-16 -1 0 -1.837e-16 -1 0 -1.837e-16 -1 0 -1.837e-16 -1 0 0.58779 -0.80902 0 0.58779 -0.80902 0 0.58779 -0.80902 0 0.58779 -0.80902 0 0.95106 -0.30902 0 0.95106 -0.30902 0 0.95106 -0.30902 0 0.95106 -0.30902 0 0 0 1 0 0 1 0 0 1 0 0 1 0 0 1 0 0 1 0 0 1 0 0 1 0 0 1 0 0 1 0 0 1 0.95106 0.30902 0 0.95106 0.30902 0 0.95106 0.30902 0 0.95106 0.30902 0 0.58779 0.80902 0 0.58779 0.80902 0 0.58779 0.80902 0 0.58779 0.80902 0 6.1232e-17 1 0 6.1232e-17 1 0 6.1232e-17 1 0 6.1232e-17 1 0 -0.58779 0.80902 0 -0.58779 0.80902 0 -0.58779 0.80902 0 -0.58779 0.80902 0 -0.95106 0.30902 0 -0.95106 0.30902 0 -0.95106 0.30902 0 -0.95106 0.30902 0 -0.95106 -0.30902 0 -0.95106 -0.30902 0 -0.95106 -0.30902 0 -0.95106 -0.30902 0 -0.58779 -0.80902 0 -0.58779 -0.80902 0 -0.58779 -0.80902 0 -0.58779 -0.80902 0 -1.837e-16 -1 0 -1.837e-16 -1 0 -1.837e-16 -1 0 -1.837e-16 -1 0 0.58779 -0.80902 0 0.58779 -0.80902 0 0.58779 -0.80902 0 0.58779 -0.80902 0 0.95106 -0.30902 0 0.95106 -0.30902 0 0.95106 -0.30902 0 0.95106 -0.30902 0 0 0 1 0 0 1 0 0 1 0 0 1 0 0 1 0 0 1 0 0 1 0 0 1 0 0 1 0 0 1 0 0 1 0.95106 0.30902 0 0.95106 0.30902 0 0.95106 0.30902 0 0.95106 0.30902 0 0.58779 0.80902 0 0.58779 0.80902 0 0.58779 0.80902 0 0.58779 0.80902 0 6.1232e-17 1 0 6.1232e-17 1 0 6.1232e-17 1 0 6.1232e-17 1 0 -0.58779 0.80902 0 -0.58779 0.80902 0 -0.58779 0.80902 0 -0.58779 0.80902 0 -0.95106 0.30902 0 -0.95106 0.30902 0 -0.95106 0.30902 0 -0.95106 0.30902 0 -0.95106 -0.30902 0 -0.95106 -0.30902 0 -0.95106 -0.30902 0 -0.95106 -0.30902 0 -0.58779 -0.80902 0 -0.58779 -0.80902 0 -0.58779 -0.80902 0 -0.58779 -0.80902 0 -1.837e-16 -1 0 -1.837e-16 -1 0 -1.837e-16 -1 0 -1.837e-16 -1 0 0.58779 -0.80902 0 0.58779 -0.80902 0 0.58779 -0.80902 0 0.58779 -0.80902 0 0.95106 -0.30902 0 0.95106 -0.30902 0 0.95106 -0.30902 0 0.95106 -0.30902 0 0 0 1 0 0 1 0 0 1 0 0 1 0 0 1 0 0 1 0 0 1 0 0 1 0 0 1 0 0 1 0 0 1 0.95106 0.30902 0 0.95106 0.30902 0 0.95106 0.30902 0 0.95106 0.30902 0 0.58779 0.80902 0 0.58779 0.80902 0 0.58779 0.80902 0 0.58779 0.80902 0 6.1232e-17 1 0 6.1232e-17 1 0 6.1232e-17 1 0 6.1232e-17 1 0 -0.58779 0.80902 0 -0.58779 0.80902 0 -0.58779 0.80902 0 -0.58779 0.80902 0 -0.95106 0.30902 0 -0.95106 0.30902 0 -0.95106 0.30902 0 -0.95106 0.30902 0 -0.95106 -0.30902 0 -0.95106 -0.30902 0 -0.95106 -0.30902 0 -0.95106 -0.30902 0 -0.58779 -0.80902 0 -0.58779 -0.80902 0 -0.58779 -0.80902 0 -0.58779 -0.80902 0 -1.837e-16 -1 0 -1.837e-16 -1 0 -1.837e-16 -1 0 -1.837e-16 -1 0 0.58779 -0.80902 0 0.58779 -0.80902 0 0.58779 -0.80902 0 0.58779 -0.80902 0 0.95106 -0.30902 0 0.95106 -0.30902 0 0.95106 -0.30902 0 0.95106 -0.30902 0 0 0 1 0 0 1 0 0 1 0 0 1 0 0 1 0 0 1 0 0 1 0 0 1 0 0 1 0 0 1 0 0 1 0.95106 0.30902 0 0.95106 0.30902 0 0.95106 0.30902 0 0.95106 0.30902 0 0.58779 0.80902 0 0.58779 0.80902 0 0.58779 0.80902 0 0.58779 0.80902 0 6.1232e-17 1 0 6.1232e-17 1 0 6.1232e-17 1 0 6.1232e-17 1 0 -0.58779 0.80902 0 -0.58779 0.80902 0 -0.58779 0.80902 0 -0.58779 0.80902 0 -0.95106 0.30902 0 -0.95106 0.30902 0 -0.95106 0.30902 0 -0.95106 0.30902 0 -0.95106 -0.30902 0 -0.95106 -0.30902 0 -0.95106 -0.30902 0 -0.95106 -0.30902 0 -0.58779 -0.80902 0 -0.58779 -0.80902 0 -0.58779 -0.80902 0 -0.58779 -0.80902 0 -1.837e-16 -1 0 -1.837e-16 -1 0 -1.837e-16 -1 0 -1.837e-16 -1 0 0.58779 -0.80902 0 0.58779 -0.80902 0 0.58779 -0.80902 0 0.58779 -0.80902 0 0.95106 -0.30902 0 0.95106 -0.30902 0 0.95106 -0.30902 0 0.95106 -0.30902 0 0 0 1 0 0 1 0 0 1 0 0 1 0 0 1 0 0 1 0 0 1 0 0 1 0 0 1 0 0 1 0 0 1 0.92388 0.38268 0 0.92388 0.38268 0 0.92388 0.38268 0 0.92388 0.38268 0 0.38268 0.92388 0 0.38268 0.92388 0 0.38268 0.92388 0 0.38268 0.92388 0 -0.38268 0.92388 0 -0.38268 0.92388 0 -0.38268 0.92388 0 -0.38268 0.92388 0 -0.92388 0.38268 0 -0.92388 0.38268 0 -0.92388 0.38268 0 -0.92388 0.38268 0 -0.92388 -0.38268 0 -0.92388 -0.38268 0 -0.92388 -0.38268 0 -0.92388 -0.38268 0 -0.38268 -0.92388 0 -0.38268 -0.92388 0 -0.38268 -0.92388 0 -0.38268 -0.92388 0 0.38268 -0.92388 0 0.38268 -0.92388 0 0.38268 -0.92388 0 0.38268 -0.92388 0 0.92388 -0.38268 0 0.92388 -0.38268 0 0.92388 -0.38268 0 0.92388 -0.38268 0 0 0 1 0 0 1 0 0 1 0 0 1 0 0 1 0 0 1 0 0 1 0 0 1 0 0 1 0 -0.34202 0.93969 0 -0.34202 0.93969 0 -0.34202 0.93969 0 -0.34202 0.93969 0 0.34202 -0.93969 0 0.34202 -0.93969 0 0.34202 -0.93969 0 0.34202 -0.93969 1 0 0 1 0 0 1 0 0 1 0 0 -1 0 0 -1 0 0 -1 0 0 -1 0 0 0 0.93969 0.34202 0 0.93969 0.34202 0 0.93969 0.34202 0 0.93969 0.34202 0 -0.93969 -0.34202 0 -0.93969 -0.34202 0 -0.93969 -0.34202 0 -0.93969 -0.34202 0 -0.93969 -0.34202 0 -0.93969 -0.34202 0 -0.93969 -0.34202 0 -0.93969 -0.34202</float_array>
          <technique_common><accessor source="#aa_launcher-normals-array" count="423" stride="3"><param name="X" type="float"/><param name="Y" type="float"/><param name="Z" type="float"/></accessor></technique_common>
        </source>
        <source id="aa_launcher-map-0">
          <float_array id="aa_launcher-map-0-array" count="846">0 0.5 0.5 0.5 0.5 1 0 1 0 0.5 0.5 0.5 0.5 1 0 1 0 0.5 0.5 0.5 0.5 1 0 1 0 0.5 0.5 0.5 0.5 1 0 1 0 0.5 0.5 0.5 0.5 1 0 1 0 0.5 0.5 0.5 0.5 1 0 1 0 0.5 0.5 0.5 0.5 1 0 1 0.5 0.5 1 0.5 1 1 0.5 1 0.5 0.5 1 0.5 1 1 0.5 1 0.5 0.5 1 0.5 1 1 0.5 1 0.5 0.5 1 0.5 1 1 0.5 1 0.5 0.5 1 0.5 1 1 0.5 1 0 0.5 0.05 0.5 0.05 1 0 1 0.05 0.5 0.1 0.5 0.1 1 0.05 1 0.1 0.5 0.15 0.5 0.15 1 0.1 1 0.15 0.5 0.2 0.5 0.2 1 0.15 1 0.2 0.5 0.25 0.5 0.25 1 0.2 1 0.25 0.5 0.3 0.5 0.3 1 0.25 1 0.3 0.5 0.35 0.5 0.35 1 0.3 1 0.35 0.5 0.4 0.5 0.4 1 0.35 1 0.4 0.5 0.45 0.5 0.45 1 0.4 1 0.45 0.5 0.5 0.5 0.5 1 0.45 1 0.25 0.25 0.5 0.25 0.45225 0.39695 0.32725 0.48776 0.17275 0.48776 0.047746 0.39695 0 0.25 0.047746 0.10305 0.17275 0.012236 0.32725 0.012236 0.45225 0.10305 0 0.5 0.05 0.5 0.05 1 0 1 0.05 0.5 0.1 0.5 0.1 1 0.05 1 0.1 0.5 0.15 0.5 0.15 1 0.1 1 0.15 0.5 0.2 0.5 0.2 1 0.15 1 0.2 0.5 0.25 0.5 0.25 1 0.2 1 0.25 0.5 0.3 0.5 0.3 1 0.25 1 0.3 0.5 0.35 0.5 0.35 1 0.3 1 0.35 0.5 0.4 0.5 0.4 1 0.35 1 0.4 0.5 0.45 0.5 0.45 1 0.4 1 0.45 0.5 0.5 0.5 0.5 1 0.45 1 0.25 0.25 0.5 0.25 0.45225 0.39695 0.32725 0.48776 0.17275 0.48776 0.047746 0.39695 0 0.25 0.047746 0.10305 0.17275 0.012236 0.32725 0.012236 0.45225 0.10305 0 0.5 0.05 0.5 0.05 1 0 1 0.05 0.5 0.1 0.5 0.1 1 0.05 1 0.1 0.5 0.15 0.5 0.15 1 0.1 1 0.15 0.5 0.2 0.5 0.2 1 0.15 1 0.2 0.5 0.25 0.5 0.25 1 0.2 1 0.25 0.5 0.3 0.5 0.3 1 0.25 1 0.3 0.5 0.35 0.5 0.35 1 0.3 1 0.35 0.5 0.4 0.5 0.4 1 0.35 1 0.4 0.5 0.45 0.5 0.45 1 0.4 1 0.45 0.5 0.5 0.5 0.5 1 0.45 1 0.25 0.25 0.5 0.25 0.45225 0.39695 0.32725 0.48776 0.17275 0.48776 0.047746 0.39695 0 0.25 0.047746 0.10305 0.17275 0.012236 0.32725 0.012236 0.45225 0.10305 0 0.5 0.05 0.5 0.05 1 0 1 0.05 0.5 0.1 0.5 0.1 1 0.05 1 0.1 0.5 0.15 0.5 0.15 1 0.1 1 0.15 0.5 0.2 0.5 0.2 1 0.15 1 0.2 0.5 0.25 0.5 0.25 1 0.2 1 0.25 0.5 0.3 0.5 0.3 1 0.25 1 0.3 0.5 0.35 0.5 0.35 1 0.3 1 0.35 0.5 0.4 0.5 0.4 1 0.35 1 0.4 0.5 0.45 0.5 0.45 1 0.4 1 0.45 0.5 0.5 0.5 0.5 1 0.45 1 0.25 0.25 0.5 0.25 0.45225 0.39695 0.32725 0.48776 0.17275 0.48776 0.047746 0.39695 0 0.25 0.047746 0.10305 0.17275 0.012236 0.32725 0.012236 0.45225 0.10305 0 0.5 0.05 0.5 0.05 1 0 1 0.05 0.5 0.1 0.5 0.1 1 0.05 1 0.1 0.5 0.15 0.5 0.15 1 0.1 1 0.15 0.5 0.2 0.5 0.2 1 0.15 1 0.2 0.5 0.25 0.5 0.25 1 0.2 1 0.25 0.5 0.3 0.5 0.3 1 0.25 1 0.3 0.5 0.35 0.5 0.35 1 0.3 1 0.35 0.5 0.4 0.5 0.4 1 0.35 1 0.4 0.5 0.45 0.5 0.45 1 0.4 1 0.45 0.5 0.5 0.5 0.5 1 0.45 1 0.25 0.25 0.5 0.25 0.45225 0.39695 0.32725 0.48776 0.17275 0.48776 0.047746 0.39695 0 0.25 0.047746 0.10305 0.17275 0.012236 0.32725 0.012236 0.45225 0.10305 0 0.5 0.05 0.5 0.05 1 0 1 0.05 0.5 0.1 0.5 0.1 1 0.05 1 0.1 0.5 0.15 0.5 0.15 1 0.1 1 0.15 0.5 0.2 0.5 0.2 1 0.15 1 0.2 0.5 0.25 0.5 0.25 1 0.2 1 0.25 0.5 0.3 0.5 0.3 1 0.25 1 0.3 0.5 0.35 0.5 0.35 1 0.3 1 0.35 0.5 0.4 0.5 0.4 1 0.35 1 0.4 0.5 0.45 0.5 0.45 1 0.4 1 0.45 0.5 0.5 0.5 0.5 1 0.45 1 0.25 0.25 0.5 0.25 0.45225 0.39695 0.32725 0.48776 0.17275 0.48776 0.047746 0.39695 0 0.25 0.047746 0.10305 0.17275 0.012236 0.32725 0.012236 0.45225 0.10305 0 0.5 0.0625 0.5 0.0625 1 0 1 0.0625 0.5 0.125 0.5 0.125 1 0.0625 1 0.125 0.5 0.1875 0.5 0.1875 1 0.125 1 0.1875 0.5 0.25 0.5 0.25 1 0.1875 1 0.25 0.5 0.3125 0.5 0.3125 1 0.25 1 0.3125 0.5 0.375 0.5 0.375 1 0.3125 1 0.375 0.5 0.4375 0.5 0.4375 1 0.375 1 0.4375 0.5 0.5 0.5 0.5 1 0.4375 1 0.25 0.75 0.5 0.75 0.42678 0.92678 0.25 1 0.073223 0.92678 0 0.75 0.073223 0.57322 0.25 0.5 0.42678 0.57322 0 0.5 0.5 0.5 0.5 1 0 1 0 0.5 0.5 0.5 0.5 1 0 1 0 0.5 0.5 0.5 0.5 1 0 1 0 0.5 0.5 0.5 0.5 1 0 1 0 0.5 0.5 0.5 0.5 1 0 1 0 0.5 0.5 0.5 0.5 1 0 1 0.5 0 1 0 1 0.5 0.5 0.5</float_array>
          <technique_common><accessor source="#aa_launcher-map-0-array" count="423" stride="2"><param name="S" type="float"/><param name="T" type="float"/></accessor></technique_common>
        </source>
        <vertices id="aa_launcher-vertices"><input semantic="POSITION" source="#aa_launcher-positions"/></vertices>
        <triangles material="aa_launcher-material" count="242">
          <input semantic="VERTEX" source="#aa_launcher-vertices" offset="0"/>
          <input semantic="NORMAL" source="#aa_launcher-normals" offset="1"/>
          <input semantic="TEXCOORD" source="#aa_launcher-map-0" offset="2" set="0"/>
          <p>0 0 0 1 1 1 2 2 2 0 0 0 2 2 2 3 3 3 4 4 4 5 5 5 6 6 6 4 4 4 6 6 6 7 7 7 8 8 8 9 9 9 10 10 10 8 8 8 10 10 10 11 11 11 12 12 12 13 13 13 14 14 14 12 12 12 14 14 14 15 15 15 16 16 16 17 17 17 18 18 18 16 16 16 18 18 18 19 19 19 20 20 20 21 21 21 22 22 22 20 20 20 22 22 22 23 23 23 24 24 24 25 25 25 26 26 26 24 24 24 26 26 26 27 27 27 28 28 28 29 29 29 30 30 30 28 28 28 30 30 30 31 31 31 32 32 32 33 33 33 34 34 34 32 32 32 34 34 34 35 35 35 36 36 36 37 37 37 38 38 38 36 36 36 38 38 38 39 39 39 40 40 40 41 41 41 42 42 42 40 40 40 42 42 42 43 43 43 44 44 44 45 45 45 46 46 46 44 44 44 46 46 46 47 47 47 48 48 48 49 49 49 50 50 50 48 48 48 50 50 50 51 51 51 52 52 52 53 53 53 54 54 54 52 52 52 54 54 54 55 55 55 56 56 56 57 57 57 58 58 58 56 56 56 58 58 58 59 59 59 60 60 60 61 61 61 62 62 62 60 60 60 62 62 62 63 63 63 64 64 64 65 65 65 66 66 66 64 64 64 66 66 66 67 67 67 68 68 68 69 69 69 70 70 70 68 68 68 70 70 70 71 71 71 72 72 72 73 73 73 74 74 74 72 72 72 74 74 74 75 75 75 76 76 76 77 77 77 78 78 78 76 76 76 78 78 78 79 79 79 80 80 80 81 81 81 82 82 82 80 80 80 82 82 82 83 83 83 84 84 84 85 85 85 86 86 86 84 84 84 86 86 86 87 87 87 88 88 88 89 89 89 90 90 90 88 88 88 90 90 90 91 91 91 88 88 88 91 91 91 92 92 92 88 88 88 92 92 92 93 93 93 88 88 88 93 93 93 94 94 94 88 88 88 94 94 94 95 95 95 88 88 88 95 95 95 96 96 96 88 88 88 96 96 96 97 97 97 88 88 88 97 97 97 98 98 98 88 88 88 98 98 98 89 89 89 99 99 99 100 100 100 101 101 101 99 99 99 101 101 101 102 102 102 103 103 103 104 104 104 105 105 105 103 103 103 105 105 105 106 106 106 107 107 107 108 108 108 109 109 109 107 107 107 109 109 109 110 110 110 111 111 111 112 112 112 113 113 113 111 111 111 113 113 113 114 114 114 115 115 115 116 116 116 117 117 117 115 115 115 117 117 117 118 118 118 119 119 119 120 120 120 121 121 121 119 119 119 121 121 121 122 122 122 123 123 123 124 124 124 125 125 125 123 123 123 125 125 125 126 126 126 127 127 127 128 128 128 129 129 129 127 127 127 129 129 129 130 130 130 131 131 131 132 132 132 133 133 133 131 131 131 133 133 133 134 134 134 135 135 135 136 136 136 137 137 137 135 135 135 137 137 137 138 138 138 139 139 139 140 140 140 141 141 141 139 139 139 141 141 141 142 142 142 139 139 139 142 142 142 143 143 143 139 139 139 143 143 143 144 144 144 139 139 139 144 144 144 145 145 145 139 139 139 145 145 145 146 146 146 139 139 139 146 146 146 147 147 147 139 139 139 147 147 147 148 148 148 139 139 139 148 148 148 149 149 149 139 139 139 149 149 149 140 140 140 150 150 150 151 151 151 152 152 152 150 150 150 152 152 152 153 153 153 154 154 154 155 155 155 156 156 156 154 154 154 156 156 156 157 157 157 158 158 158 159 159 159 160 160 160 158 158 158 160 160 160 161 161 161 162 162 162 163 163 163 164 164 164 162 162 162 164 164 164 165 165 165 166 166 166 167 167 167 168 168 168 166 166 166 168 168 168 169 169 169 170 170 170 171 171 171 172 172 172 170 170 170 172 172 172 173 173 173 174 174 174 175 175 175 176 176 176 174 174 174 176 176 176 177 177 177 178 178 178 179 179 179 180 180 180 178 178 178 180 180 180 181 181 181 182 182 182 183 183 183 184 184 184 182 182 182 184 184 184 185 185 185 186 186 186 187 187 187 188 188 188 186 186 186 188 188 188 189 189 189 190 190 190 191 191 191 192 192 192 190 190 190 192 192 192 193 193 193 190 190 190 193 193 193 194 194 194 190 190 190 194 194 194 195 195 195 190 190 190 195 195 195 196 196 196 190 190 190 196 196 196 197 197 197 190 190 190 197 197 197 198 198 198 190 190 190 198 198 198 199 199 199 190 190 190 199 199 199 200 200 200 190 190 190 200 200 200 191 191 191 201 201 201 202 202 202 203 203 203 201 201 201 203 203 203 204 204 204 205 205 205 206 206 206 207 207 207 205 205 205 207 207 207 208 208 208 209 209 209 210 210 210 211 211 211 209 209 209 211 211 211 212 212 212 213 213 213 214 214 214 215 215 215 213 213 213 215 215 215 216 216 216 217 217 217 218 218 218 219 219 219 217 217 217 219 219 219 220 220 220 221 221 221 222 222 222 223 223 223 221 221 221 223 223 223 224 224 224 225 225 225 226 226 226 227 227 227 225 225 225 227 227 227 228 228 228 229 229 229 230 230 230 231 231 231 229 229 229 231 231 231 232 232 232 233 233 233 234 234 234 235 235 235 233 233 233 235 235 235 236 236 236 237 237 237 238 238 238 239 239 239 237 237 237 239 239 239 240 240 240 241 241 241 242 242 242 243 243 243 241 241 241 243 243 243 244 244 244 241 241 241 244 244 244 245 245 245 241 241 241 245 245 245 246 246 246 241 241 241 246 246 246 247 247 247 241 241 241 247 247 247 248 248 248 241 241 241 248 248 248 249 249 249 241 241 241 249 249 249 250 250 250 241 241 241 250 250 250 251 251 251 241 241 241 251 251 251 242 242 242 252 252 252 253 253 253 254 254 254 252 252 252 254 254 254 255 255 255 256 256 256 257 257 257 258 258 258 256 256 256 258 258 258 259 259 259 260 260 260 261 261 261 262 262 262 260 260 260 262 262 262 263 263 263 264 264 264 265 265 265 266 266 266 264 264 264 266 266 266 267 267 267 268 268 268 269 269 269 270 270 270 268 268 268 270 270 270 271 271 271 272 272 272 273 273 273 274 274 274 272 272 272 274 274 274 275 275 275 276 276 276 277 277 277 278 278 278 276 276 276 278 278 278 279 279 279 280 280 280 281 281 281 282 282 282 280 280 280 282 282 282 283 283 283 284 284 284 285 285 285 286 286 286 284 284 284 286 286 286 287 287 287 288 288 288 289 289 289 290 290 290 288 288 288 290 290 290 291 291 291 292 292 292 293 293 293 294 294 294 292 292 292 294 294 294 295 295 295 292 292 292 295 295 295 296 296 296 292 292 292 296 296 296 297 297 297 292 292 292 297 297 297 298 298 298 292 292 292 298 298 298 299 299 299 292 292 292 299 299 299 300 300 300 292 292 292 300 300 300 301 301 301 292 292 292 301 301 301 302 302 302 292 292 292 302 302 302 293 293 293 303 303 303 304 304 304 305 305 305 303 303 303 305 305 305 306 306 306 307 307 307 308 308 308 309 309 309 307 307 307 309 309 309 310 310 310 311 311 311 312 312 312 313 313 313 311 311 311 313 313 313 314 314 314 315 315 315 316 316 316 317 317 317 315 315 315 317 317 317 318 318 318 319 319 319 320 320 320 321 321 321 319 319 319 321 321 321 322 322 322 323 323 323 324 324 324 325 325 325 323 323 323 325 325 325 326 326 326 327 327 327 328 328 328 329 329 329 327 327 327 329 329 329 330 330 330 331 331 331 332 332 332 333 333 333 331 331 331 333 333 333 334 334 334 335 335 335 336 336 336 337 337 337 335 335 335 337 337 337 338 338 338 339 339 339 340 340 340 341 341 341 339 339 339 341 341 341 342 342 342 343 343 343 344 344 344 345 345 345 343 343 343 345 345 345 346 346 346 343 343 343 346 346 346 347 347 347 343 343 343 347 347 347 348 348 348 343 343 343 348 348 348 349 349 349 343 343 343 349 349 349 350 350 350 343 343 343 350 350 350 351 351 351 343 343 343 351 351 351 352 352 352 343 343 343 352 352 352 353 353 353 343 343 343 353 353 353 344 344 344 354 354 354 355 355 355 356 356 356 354 354 354 356 356 356 357 357 357 358 358 358 359 359 359 360 360 360 358 358 358 360 360 360 361 361 361 362 362 362 363 363 363 364 364 364 362 362 362 364 364 364 365 365 365 366 366 366 367 367 367 368 368 368 366 366 366 368 368 368 369 369 369 370 370 370 371 371 371 372 372 372 370 370 370 372 372 372 373 373 373 374 374 374 375 375 375 376 376 376 374 374 374 376 376 376 377 377 377 378 378 378 379 379 379 380 380 380 378 378 378 380 380 380 381 381 381 382 382 382 383 383 383 384 384 384 382 382 382 384 384 384 385 385 385 386 386 386 387 387 387 388 388 388 386 386 386 388 388 388 389 389 389 386 386 386 389 389 389 390 390 390 386 386 386 390 390 390 391 391 391 386 386 386 391 391 391 392 392 392 386 386 386 392 392 392 393 393 393 386 386 386 393 393 393 394 394 394 386 386 386 394 394 394 387 387 387 395 395 395 396 396 396 397 397 397 395 395 395 397 397 397 398 398 398 399 399 399 400 400 400 401 401 401 399 399 399 401 401 401 402 402 402 403 403 403 404 404 404 405 405 405 403 403 403 405 405 405 406 406 406 407 407 407 408 408 408 409 409 409 407 407 407 409 409 409 410 410 410 411 411 411 412 412 412 413 413 413 411 411 411 413 413 413 414 414 414 415 415 415 416 416 416 417 417 417 415 415 415 417 417 417 418 418 418 419 419 419 420 420 420 421 421 421 419 419 419 421 421 421 422 422 422</p>
        </triangles>
      </mesh>
    </geometry>
  </library_geometries>
  <library_visual_scenes>
    <visual_scene id="Scene" name="Scene">
      <node id="aa_launcher" name="aa_launcher" type="NODE">
        <matrix sid="transform">1 0 0 0 0 1 0 0 0 0 1 0 0 0 0 1</matrix>
        <instance_geometry url="#aa_launcher-mesh" name="aa_launcher">
          <bind_material><technique_common><instance_material symbol="aa_launcher-material" target="#aa_launcher-material"><bind_vertex_input semantic="aa_launcher-map-0" input_semantic="TEXCOORD" input_set="0"/></instance_material></technique_common></bind_material>
        </instance_geometry>
      </node>
      <node id="prop_projectile" name="prop_projectile" type="NODE"><matrix sid="transform">1 0 0 0 0 1 0 -0.7 0 0 1 3.6 0 0 0 1</matrix></node>
    </visual_scene>
  </library_visual_scenes>
  <scene><instance_visual_scene url="#Scene"/></scene>
</COLLADA>
