<?xml version="1.0" encoding="utf-8"?>
<COLLADA xmlns="http://www.collada.org/2005/11/COLLADASchema" version="1.4.1" xmlns:xsi="http://www.w3.org/2001/XMLSchema-instance">
  <asset>
    <contributor>
      <author>Blender User</author>
      <authoring_tool>Blender 4.3.1 commit date:2024-12-10, commit time:07:46, hash:33d812126174</authoring_tool>
    </contributor>
    <created>2026-08-28T12:06:28</created>
    <modified>2026-08-28T12:06:28</modified>
    <unit name="meter" meter="1"/>
    <up_axis>Z_UP</up_axis>
  </asset>
  <library_effects>
    <effect id="Material_007-effect">
      <profile_COMMON>
        <newparam sid="mla_struct_png-surface">
          <surface type="2D">
            <init_from>mla_struct_png</init_from>
          </surface>
        </newparam>
        <newparam sid="mla_struct_png-sampler">
          <sampler2D>
            <source>mla_struct_png-surface</source>
          </sampler2D>
        </newparam>
        <technique sid="common">
          <lambert>
            <emission>
              <color sid="emission">0 0 0 1</color>
            </emission>
            <diffuse>
              <texture texture="mla_struct_png-sampler" texcoord="Cylinder-mesh-map-0"/>
            </diffuse>
            <index_of_refraction>
              <float sid="ior">1.45</float>
            </index_of_refraction>
          </lambert>
        </technique>
      </profile_COMMON>
    </effect>
  </library_effects>
  <library_images>
    <image id="mla_struct_png" name="mla_struct_png">
      <init_from>/home/welton/snap/0ad/735/.local/share/0ad/mods/mars_wars/art/textures/skins/structural/mla_struct.png</init_from>
    </image>
  </library_images>
  <library_materials>
    <material id="Material_007-material" name="Material.007">
      <instance_effect url="#Material_007-effect"/>
    </material>
  </library_materials>
  <library_geometries>
    <geometry id="Cylinder-mesh" name="Cylinder">
      <mesh>
        <source id="Cylinder-mesh-positions">
          <float_array id="Cylinder-mesh-positions-array" count="516">0 -4.732381 1.824816 0 -6.522411 -9.000189 -3.346299 -3.346299 1.824816 -4.61204 -4.61204 -9.000189 -4.732381 2.25618e-7 1.824816 -6.522411 2.85104e-7 -9.000189 -3.346299 3.346299 1.824816 -4.61204 4.61204 -9.000189 4.18328e-7 4.732381 1.824816 5.57984e-7 6.522411 -9.000189 3.3463 3.346298 1.824816 4.612041 4.61204 -9.000189 4.732381 0 1.824816 6.522411 0 -9.000189 3.3463 -3.346298 1.824816 4.612041 -4.61204 -9.000189 0 -5.412502 1.824816 -3.827217 -3.827217 1.824816 -5.412502 2.36588e-7 1.824816 -3.827217 3.827217 1.824816 4.73176e-7 5.412502 1.824816 3.827218 3.827216 1.824816 5.412502 0 1.824816 3.827218 -3.827216 1.824816 0 -4.732381 0.858264 -3.346299 -3.346299 0.858264 -4.732381 2.25618e-7 0.858264 -3.346299 3.346299 0.858264 4.18328e-7 4.732381 0.858264 3.3463 3.346298 0.858264 4.732381 0 0.858264 3.3463 -3.346298 0.858264 -2.329037 -6.537612 -3.076627 -2.157 -5.392895 2.260308 -1.924236 -3.844101 2.260308 -3.142132 -6.286775 -3.076627 -2.970096 -5.142057 2.260308 -2.737332 -3.593265 2.260308 -1.924236 -3.844101 1.651802 -2.737332 -3.593265 1.651802 -2.911825 -4.754326 -3.076627 -2.739789 -3.609609 2.260308 -2.108135 -5.067752 -3.076627 -1.936099 -3.923034 2.260308 2.333022 -6.537612 -3.076627 2.160985 -5.392895 2.260308 1.928222 -3.844101 2.260308 3.146116 -6.286775 -3.076627 2.974081 -5.142057 2.260308 2.741317 -3.593265 2.260308 1.928222 -3.844101 1.651802 2.741317 -3.593265 1.651802 2.91581 -4.754326 -3.076627 2.743774 -3.609609 2.260308 2.11212 -5.067752 -3.076627 1.940085 -3.923034 2.260308 2.333022 6.675466 -3.076627 2.160985 5.530751 2.260308 1.928222 3.981956 2.260308 3.146116 6.42463 -3.076627 2.974082 5.279912 2.260308 2.741317 3.73112 2.260308 1.928222 3.981956 1.651802 2.741317 3.73112 1.651802 2.91581 4.892181 -3.076627 2.743774 3.747463 2.260308 2.11212 5.205607 -3.076627 1.940085 4.060889 2.260308 -2.329037 6.675466 -3.076627 -2.157 5.530751 2.260308 -1.924236 3.981956 2.260308 -3.142132 6.42463 -3.076627 -2.970096 5.279912 2.260308 -2.737331 3.73112 2.260308 -1.924236 3.981956 1.651802 -2.737331 3.73112 1.651802 -2.911824 4.892181 -3.076627 -2.739789 3.747463 2.260308 -2.108135 5.205607 -3.076627 -1.936099 4.060889 2.260308 6.604547 -2.399956 -3.076626 5.459831 -2.22792 2.260308 3.911036 -1.995156 2.260308 6.353711 -3.213051 -3.076626 5.208992 -3.041015 2.260308 3.6602 -2.808251 2.260308 3.911036 -1.995156 1.651802 3.6602 -2.808251 1.651802 4.821263 -2.982745 -3.076626 3.676544 -2.810708 2.260308 5.134687 -2.179053 -3.076626 3.98997 -2.007019 2.260308 6.604547 2.262101 -3.076626 5.459831 2.090064 2.260308 3.911036 1.857301 2.260308 6.353711 3.075197 -3.076626 5.208992 2.90316 2.260308 3.6602 2.670396 2.260308 3.911036 1.857301 1.651802 3.6602 2.670396 1.651802 4.821263 2.844889 -3.076626 3.676544 2.672853 2.260308 5.134687 2.0412 -3.076626 3.98997 1.869164 2.260308 -6.608533 2.2621 -3.076626 -5.463814 2.090063 2.260308 -3.915021 1.857301 2.260308 -6.357695 3.075195 -3.076626 -5.212976 2.90316 2.260308 -3.664185 2.670396 2.260308 -3.915021 1.857301 1.651802 -3.664185 2.670396 1.651802 -4.825247 2.844888 -3.076626 -3.680529 2.672853 2.260308 -5.138672 2.0412 -3.076626 -3.993956 1.869164 2.260308 -6.608533 -2.399956 -3.076626 -5.463814 -2.22792 2.260308 -3.915021 -1.995156 2.260308 -6.357695 -3.213051 -3.076626 -5.212976 -3.041015 2.260308 -3.664185 -2.80825 2.260308 -3.915021 -1.995156 1.651802 -3.664185 -2.80825 1.651802 -4.825247 -2.982745 -3.076626 -3.680529 -2.810708 2.260308 -5.138672 -2.179056 -3.076626 -3.993956 -2.007019 2.260308 -2.329037 -6.537612 -9.895051 -3.142132 -6.286775 -9.895051 -2.911825 -4.754326 -9.895051 -2.108135 -5.067752 -9.895051 2.333022 -6.537612 -9.895051 3.146116 -6.286775 -9.895051 2.91581 -4.754326 -9.895051 2.11212 -5.067752 -9.895051 2.333022 6.675466 -9.895051 3.146116 6.42463 -9.895051 2.91581 4.892181 -9.895051 2.11212 5.205607 -9.895051 -2.329037 6.675466 -9.895051 -3.142132 6.42463 -9.895051 -2.911824 4.892181 -9.895051 -2.108135 5.205607 -9.895051 6.604547 -2.399956 -9.895051 6.353711 -3.213051 -9.895051 4.821263 -2.982745 -9.895051 5.134687 -2.179053 -9.895051 6.604547 2.262101 -9.895051 6.353711 3.075197 -9.895051 4.821263 2.844889 -9.895051 5.134687 2.0412 -9.895051 -6.608533 2.2621 -9.895051 -6.357695 3.075195 -9.895051 -4.825247 2.844888 -9.895051 -5.138672 2.0412 -9.895051 -6.608533 -2.399956 -9.895051 -6.357695 -3.213051 -9.895051 -4.825247 -2.982745 -9.895051 -5.138672 -2.179056 -9.895051 -4.792631 1.585333 1.73136 -4.382897 1.585333 1.73136 -4.792631 1.298286 1.73136 -4.382897 1.298286 1.73136 -4.630903 1.472031 2.158376 -4.544625 1.472031 2.158376 -4.630903 1.411587 2.158376 -4.544625 1.411587 2.158376 -4.630903 1.472031 6.396945 -4.544625 1.472031 6.396945 -4.630903 1.411587 6.396945 -4.544625 1.411587 6.396945</float_array>
          <technique_common>
            <accessor source="#Cylinder-mesh-positions-array" count="172" stride="3">
              <param name="X" type="float"/>
              <param name="Y" type="float"/>
              <param name="Z" type="float"/>
            </accessor>
          </technique_common>
        </source>
        <source id="Cylinder-mesh-normals">
          <float_array id="Cylinder-mesh-normals-array" count="594">-0.3809779 -0.9197622 0.09430503 -0.9197622 -0.3809778 0.09430485 -0.9197623 0.3809777 0.09430503 -0.3809778 0.9197622 0.09430485 0.3809781 0.9197621 0.09430503 0.9197622 0.3809779 0.09430485 0.9197623 -0.3809778 0.09430503 0.3809781 -0.9197621 0.09430491 0.9238796 0.3826833 0 0 0 1 -4.19034e-7 0 1 -0.9238797 0.3826832 0 -0.3826835 -0.9238795 0 0.9238796 -0.3826833 0 0.3826834 0.9238796 0 -0.3826835 0.9238796 0 -0.9238796 -0.3826833 0 0.3826833 -0.9238796 0 -0.2882348 -0.9343178 0.2096928 0.2947863 0.9555633 0 -0.9888947 0.1486184 0 -0.9888879 0.1486636 0 0.9888946 -0.148619 0 0.9888943 -0.1486206 0 0.2882341 -0.934318 0.2096928 -0.2947869 0.9555631 0 0.9888947 0.1486178 0 0.988894 0.1486228 -1.20323e-6 -0.9888946 -0.148619 0 -0.9888936 -0.1486254 0 0.288235 0.9343178 0.2096925 -1.80934e-7 0 1 -0.2947871 -0.9555631 0 0.9888948 -0.1486177 -2.59451e-7 0.9888869 -0.1486701 0 -0.9888946 0.1486191 0 -0.9888935 0.1486258 0 -0.2882331 0.9343184 0.2096924 -3.6187e-7 0 1 0.2947871 -0.9555631 0 -0.9888948 -0.1486177 -2.01795e-7 -0.9888925 -0.1486328 -2.85768e-6 0.9888946 0.1486191 0 0.9888942 0.148621 0 0.9343177 -0.2882352 0.2096931 -0.955563 0.2947873 0 -0.1486174 -0.9888948 0 -0.1486688 -0.9888871 0 0.1486194 0.9888945 3.00554e-7 0.1486225 0.9888941 0 0.9343184 0.2882326 0.2096927 -0.955563 -0.2947873 0 -0.1486179 0.9888947 0 -0.1486219 0.9888941 -1.20323e-6 0.1486181 -0.9888947 -1.80332e-7 0.1486225 -0.9888941 0 -0.9343181 0.2882338 0.2096931 0.9555632 -0.2947864 0 0.1486181 0.9888948 -3.45935e-7 0.1486547 0.9888892 0 -0.1486173 -0.9888948 -1.80332e-7 -0.1486182 -0.9888947 0 -0.9343174 -0.2882359 0.2096929 0 0 1 0.9555631 0.2947868 0 0.1486179 -0.9888947 1.72967e-7 0.1486297 -0.9888929 -3.60966e-6 -0.1486173 0.9888948 0 -0.1486182 0.9888947 0 0.2947879 -0.9555628 0 0.9888947 0.1486188 0 -0.2947872 0.955563 0 -0.1486175 -0.9888948 0 -0.1486175 -0.9888948 0 -0.9555625 0.2947888 0 -0.9888947 0.1486179 0 0.9888948 -0.1486173 0 0.1486176 -0.9888948 0 0.1486193 0.9888945 0 0.9555632 -0.2947863 0 -0.1486186 0.9888946 0 0.9888946 -0.1486186 0 -0.2947875 -0.9555629 0 -0.9888947 0.1486188 0 0.2947875 0.9555629 0 -0.1486173 0.9888948 0 0.9888948 0.1486172 0 -0.9555625 -0.2947888 0 -0.9888947 -0.1486184 0 0.1486182 -0.9888947 0 0.9555634 0.294786 0 0.1486179 0.9888947 0 -0.9888946 -0.1486186 0 -0.2882336 -0.9343182 0.2096925 0.2947862 0.9555633 0 -0.9888947 0.1486178 0 -0.9888936 0.1486252 -1.20323e-6 0.9888948 -0.1486175 0 0.9888942 -0.1486217 6.32756e-7 0.288235 -0.9343177 0.2096929 -0.2947864 0.9555632 0 0.9888948 0.1486175 0 0.9888879 0.1486636 0 -0.9888948 -0.148617 0 -0.9888944 -0.14862 7.38215e-7 0.2882336 0.9343183 0.2096925 3.61871e-7 0 1 -0.2947867 -0.9555631 0 0.9888947 -0.1486184 -1.58553e-7 0.9888939 -0.1486234 -9.02425e-7 -0.9888949 0.1486169 0 -0.9888941 0.1486218 6.32756e-7 -0.2882353 0.9343176 0.2096928 1.80935e-7 0 1 0.2947867 -0.9555631 0 -0.9888946 -0.1486191 -1.72967e-7 -0.9888799 -0.1487165 0 0.9888948 0.1486174 0 0.9888942 0.1486218 5.27297e-7 0.9343184 -0.2882329 0.2096926 0 0 1 -0.9555631 0.2947867 0 -0.1486179 -0.9888947 2.88279e-7 -0.1486241 -0.9888938 -1.80484e-6 0.148618 0.9888947 3.60664e-7 0.1486176 0.9888948 8.43669e-7 0.9343177 0.2882348 0.209693 -0.9555631 -0.2947865 0 -0.1486186 0.9888947 0 -0.1486547 0.9888892 0 0.1486174 -0.9888948 -1.20221e-7 0.1486186 -0.9888946 4.21834e-7 -0.9343175 0.2882359 0.209693 0.9555631 -0.2947865 0 0.1486179 0.9888947 -1.72967e-7 0.1486204 0.9888944 -1.80483e-6 -0.148617 -0.9888949 -1.80333e-7 -0.1486186 -0.9888946 0 -0.9343178 -0.2882344 0.2096931 0.1486175 -0.9888948 0 0.1487253 -0.9888786 0 -0.1486183 0.9888947 -1.20222e-7 -0.1486191 0.9888946 0 0.294788 -0.9555628 0 0.9888946 0.1486188 0 -0.294787 0.9555631 0 -0.1486174 -0.9888948 0 -0.1486173 -0.9888948 0 -0.9888947 0.1486179 0 0.9888948 -0.1486173 0 0.1486173 -0.9888949 0 0.1486194 0.9888945 0 0.9555632 -0.2947864 0 -0.1486186 0.9888946 0 -0.2947877 -0.9555628 0 -0.9888946 0.1486188 0 0.2947874 0.955563 0 -0.1486174 0.9888948 0 0.9888949 0.1486172 0 -0.9888947 -0.1486186 0 0.1486181 -0.9888948 0 0.9555633 0.294786 0 0.1486182 0.9888947 0 0 0 -1 1 0 0 0.9351743 0 0.3541878 0 -0.9665555 0.2564579 -0.9351741 0 0.3541883 0 0.9665547 0.2564607 0 -1 0 -1 0 0 0 1 0 0.9351748 0 0.3541868 0 -0.9665553 0.2564587 -0.9351735 0 0.35419 0 0.9665557 0.2564567 -0.3809782 -0.9197621 0.09430485 -0.9197621 -0.3809781 0.09430497 -0.919762 0.3809783 0.09430485 -0.3809782 0.9197621 0.09430503 0.3809782 0.9197621 0.09430503 0.9197622 0.3809779 0.09430503 0.9197622 -0.3809781 0.09430491 0.3809782 -0.9197621 0.09430497 0.9238796 0.3826834 0 0 0 1 -2.28987e-7 0 1 0 0 1 -1.37392e-7 0 1 0 0 1 0 0 1 0 0 1 -0.9238796 0.3826833 0 -0.3826835 -0.9238795 0 0.9238795 -0.3826835 0 0.3826833 0.9238796 0 -0.9238797 -0.3826832 0 0.3826833 -0.9238796 0</float_array>
          <technique_common>
            <accessor source="#Cylinder-mesh-normals-array" count="198" stride="3">
              <param name="X" type="float"/>
              <param name="Y" type="float"/>
              <param name="Z" type="float"/>
            </accessor>
          </technique_common>
        </source>
        <source id="Cylinder-mesh-map-0">
          <float_array id="Cylinder-mesh-map-0-array" count="1404">0.06237399 0.3832424 0.08873844 0.3126013 0.08873844 0.3832424 0.08873844 0.3832424 0.05696761 0.3126013 0.06237399 0.3832424 0.1151028 0.3832424 0.08873844 0.3126013 0.08873844 0.3832424 0.08873844 0.3832424 0.05696761 0.3126013 0.06237399 0.3832424 0.1151028 0.3832424 0.08873844 0.3126013 0.08873844 0.3832424 0.08873844 0.3832424 0.1205093 0.3126013 0.1151028 0.3832424 0.06237399 0.3832424 0.08873844 0.3126013 0.08873844 0.3832424 0.08873844 0.3832424 0.1205093 0.3126013 0.1151028 0.3832424 0.1337032 0.3630602 0.08011192 0.3321014 0.1337032 0.3321014 0.04033839 0.4233207 0.08632081 0.4130185 0.04611641 0.4287943 0.02129179 0.4668805 0.04611641 0.4287943 0.02946317 0.4668805 0.04033839 0.5104404 0.02946317 0.4668805 0.04611641 0.5049667 0.08632081 0.5284835 0.04611641 0.5049667 0.08632081 0.5207426 0.1323032 0.5104404 0.08632081 0.5207426 0.1265252 0.5049667 0.1513499 0.4668805 0.1265252 0.5049667 0.1431785 0.4668805 0.1265252 0.4287943 0.1513499 0.4668805 0.1431785 0.4668805 0.08632081 0.4130185 0.1323032 0.4233207 0.1265252 0.4287943 0.04611641 0.5049667 0.02946317 0.4668805 0.04611641 0.4287943 0.08011192 0.3630602 0.1337032 0.3321014 0.08011192 0.3321014 0.08011192 0.3630602 0.02652049 0.3321014 0.08011192 0.3321014 0.08011192 0.3630602 0.02652049 0.3321014 0.08011192 0.3321014 0.08011192 0.3630602 0.1337032 0.3321014 0.08011192 0.3321014 0.02652049 0.3630602 0.08011192 0.3321014 0.02652049 0.3321014 0.02652049 0.3630602 0.08011192 0.3321014 0.02652049 0.3321014 0.1337032 0.3630602 0.08011192 0.3321014 0.1337032 0.3321014 0.5411146 0.7824342 0.5484049 0.8219295 0.5423877 0.8219295 0.5501275 0.7662982 0.5423877 0.7566929 0.5484049 0.7548366 0.5501275 0.8174263 0.5441103 0.8219295 0.5501275 0.8219295 0.5263145 0.8219295 0.5291838 0.7824342 0.5178431 0.7824342 0.5377761 0.8174263 0.5376552 0.8219295 0.5377761 0.8219295 0.5268644 0.7824342 0.5244582 0.8219295 0.5159869 0.7824342 0.5353357 0.8219295 0.5359198 0.8174263 0.5359198 0.8219295 0.5250086 0.7824342 0.5177183 0.8219295 0.5189914 0.7824342 0.5159958 0.7662982 0.5237355 0.7566929 0.522013 0.7681545 0.522013 0.8219295 0.5159958 0.8174263 0.5159958 0.8219295 0.5263145 0.8219295 0.5291838 0.7824342 0.5376552 0.8219295 0.5377761 0.8174263 0.5376552 0.8219295 0.5291838 0.7824342 0.5244582 0.8219295 0.5268644 0.7824342 0.5159869 0.7824342 0.5359198 0.8174263 0.5353357 0.8219295 0.5359198 0.8219295 0.5250086 0.7824342 0.5177183 0.8219295 0.5237355 0.8219295 0.5159958 0.8242138 0.5237355 0.8338192 0.5177183 0.8356754 0.5159958 0.8174263 0.522013 0.8219295 0.5159958 0.8219295 0.5407995 0.8219295 0.5379302 0.7824342 0.5492708 0.7824342 0.5293379 0.8174263 0.5294588 0.8219295 0.5293379 0.8219295 0.5402497 0.7824342 0.5426558 0.8219295 0.5511271 0.7824342 0.5317783 0.8219295 0.5311942 0.8174263 0.5311942 0.8219295 0.5411146 0.7824342 0.5484049 0.8219295 0.5471318 0.7824342 0.5501275 0.8242138 0.5423877 0.8338192 0.5441103 0.8223575 0.5441103 0.8219295 0.5501275 0.8174263 0.5501275 0.8219295 0.5407995 0.8219295 0.5379302 0.7824342 0.5294588 0.8219295 0.5293379 0.8174263 0.5294588 0.8219295 0.5379302 0.7824342 0.5426558 0.8219295 0.5402497 0.7824342 0.5511271 0.7824342 0.5311942 0.8174263 0.5317783 0.8219295 0.5311942 0.8219295 0.5405898 0.7824342 0.5478801 0.8219295 0.5418629 0.8219295 0.5306693 0.7799811 0.5402746 0.7722413 0.542131 0.7782585 0.5496027 0.8174263 0.5435855 0.8219295 0.5496027 0.8219295 0.5402746 0.8219295 0.5374053 0.7824342 0.548746 0.7824342 0.528813 0.8174263 0.528934 0.8219295 0.528813 0.8219295 0.5397248 0.7824342 0.542131 0.8219295 0.5506023 0.7824342 0.5312535 0.8219295 0.5306693 0.8174263 0.5306693 0.8219295 0.5244838 0.7824342 0.5171934 0.8219295 0.5184666 0.7824342 0.5306693 0.8084906 0.5402746 0.8162304 0.528813 0.8145079 0.5214881 0.8219295 0.515471 0.8174263 0.515471 0.8219295 0.5402746 0.8219295 0.5374053 0.7824342 0.528934 0.8219295 0.528813 0.8174263 0.528934 0.8219295 0.5374053 0.7824342 0.542131 0.8219295 0.5397248 0.7824342 0.5506023 0.7824342 0.5306693 0.8174263 0.5312535 0.8219295 0.5306693 0.8219295 0.5244838 0.7824342 0.5171934 0.8219295 0.5232107 0.8219295 0.535395 0.8084906 0.5257896 0.8162304 0.5239334 0.8102132 0.515471 0.8174263 0.5214881 0.8219295 0.515471 0.8219295 0.5257896 0.8219295 0.528659 0.7824342 0.5173183 0.7824342 0.5372512 0.8174263 0.5371303 0.8219295 0.5372512 0.8219295 0.5263395 0.7824342 0.5239334 0.8219295 0.5154621 0.7824342 0.5348109 0.8219295 0.535395 0.8174263 0.535395 0.8219295 0.5405898 0.7824342 0.5478801 0.8219295 0.546607 0.7824342 0.535395 0.7799811 0.5257896 0.7722413 0.5372512 0.7739639 0.5435855 0.8219295 0.5496027 0.8174263 0.5496027 0.8219295 0.5257896 0.8219295 0.528659 0.7824342 0.5371303 0.8219295 0.5372512 0.8174263 0.5371303 0.8219295 0.528659 0.7824342 0.5239334 0.8219295 0.5263395 0.7824342 0.5154621 0.7824342 0.535395 0.8174263 0.5348109 0.8219295 0.535395 0.8219295 0.5189914 0.7824342 0.5250086 0.7319755 0.5250086 0.7824342 0.5402497 0.7824342 0.5511271 0.7319755 0.5511271 0.7824342 0.5471318 0.7824342 0.5411146 0.7319755 0.5411146 0.7824342 0.5374053 0.7824342 0.548746 0.7319755 0.548746 0.7824342 0.5154621 0.7824342 0.5263395 0.7319755 0.5263395 0.7824342 0.5244838 0.7824342 0.5184666 0.7319755 0.5184666 0.7824342 0.5291838 0.7824342 0.5178431 0.7319755 0.5178431 0.7824342 0.5379302 0.7824342 0.5492708 0.7319755 0.5492708 0.7824342 0.5173183 0.7824342 0.528659 0.7319755 0.528659 0.7824342 0.5506023 0.7824342 0.5397248 0.7319755 0.5397248 0.7824342 0.5405898 0.7824342 0.546607 0.7319755 0.546607 0.7824342 0.548746 0.7824342 0.5374053 0.7319755 0.5374053 0.7824342 0.5159869 0.7824342 0.5268644 0.7319755 0.5268644 0.7824342 0.5411146 0.7824342 0.5471318 0.7319755 0.5471318 0.7824342 0.5511271 0.7824342 0.5402497 0.7319755 0.5402497 0.7824342 0.5250086 0.7824342 0.5189914 0.7319755 0.5189914 0.7824342 0.5263395 0.7824342 0.5154621 0.7319755 0.5154621 0.7824342 0.5178431 0.7824342 0.5291838 0.7319755 0.5291838 0.7824342 0.546607 0.7824342 0.5405898 0.7319755 0.5405898 0.7824342 0.5492708 0.7824342 0.5379302 0.7319755 0.5379302 0.7824342 0.5397248 0.7824342 0.5506023 0.7319755 0.5506023 0.7824342 0.5184666 0.7824342 0.5244838 0.7319755 0.5244838 0.7824342 0.528659 0.7824342 0.5173183 0.7319755 0.5173183 0.7824342 0.5268644 0.7824342 0.5159869 0.7319755 0.5159869 0.7824342 0.5411146 0.7824342 0.5471318 0.7824342 0.5484049 0.8219295 0.5501275 0.7662982 0.5441103 0.7681545 0.5423877 0.7566929 0.5501275 0.8174263 0.5441103 0.8174263 0.5441103 0.8219295 0.5263145 0.8219295 0.5376552 0.8219295 0.5291838 0.7824342 0.5377761 0.8174263 0.5291838 0.7824342 0.5376552 0.8219295 0.5268644 0.7824342 0.5353357 0.8219295 0.5244582 0.8219295 0.5353357 0.8219295 0.5268644 0.7824342 0.5359198 0.8174263 0.5250086 0.7824342 0.5237355 0.8219295 0.5177183 0.8219295 0.5159958 0.7662982 0.5177183 0.7548366 0.5237355 0.7566929 0.522013 0.8219295 0.522013 0.8174263 0.5159958 0.8174263 0.5263145 0.8219295 0.5178431 0.7824342 0.5291838 0.7824342 0.5377761 0.8174263 0.5377761 0.8219295 0.5376552 0.8219295 0.5244582 0.8219295 0.5353357 0.8219295 0.5268644 0.7824342 0.5359198 0.8174263 0.5268644 0.7824342 0.5353357 0.8219295 0.5250086 0.7824342 0.5189914 0.7824342 0.5177183 0.8219295 0.5159958 0.8242138 0.522013 0.8223575 0.5237355 0.8338192 0.5159958 0.8174263 0.522013 0.8174263 0.522013 0.8219295 0.5407995 0.8219295 0.5294588 0.8219295 0.5379302 0.7824342 0.5293379 0.8174263 0.5379302 0.7824342 0.5294588 0.8219295 0.5402497 0.7824342 0.5317783 0.8219295 0.5426558 0.8219295 0.5317783 0.8219295 0.5402497 0.7824342 0.5311942 0.8174263 0.5411146 0.7824342 0.5423877 0.8219295 0.5484049 0.8219295 0.5501275 0.8242138 0.5484049 0.8356754 0.5423877 0.8338192 0.5441103 0.8219295 0.5441103 0.8174263 0.5501275 0.8174263 0.5407995 0.8219295 0.5492708 0.7824342 0.5379302 0.7824342 0.5293379 0.8174263 0.5293379 0.8219295 0.5294588 0.8219295 0.5426558 0.8219295 0.5317783 0.8219295 0.5402497 0.7824342 0.5311942 0.8174263 0.5402497 0.7824342 0.5317783 0.8219295 0.5405898 0.7824342 0.546607 0.7824342 0.5478801 0.8219295 0.5306693 0.7799811 0.528813 0.7739639 0.5402746 0.7722413 0.5496027 0.8174263 0.5435855 0.8174263 0.5435855 0.8219295 0.5402746 0.8219295 0.528934 0.8219295 0.5374053 0.7824342 0.528813 0.8174263 0.5374053 0.7824342 0.528934 0.8219295 0.5397248 0.7824342 0.5312535 0.8219295 0.542131 0.8219295 0.5312535 0.8219295 0.5397248 0.7824342 0.5306693 0.8174263 0.5244838 0.7824342 0.5232107 0.8219295 0.5171934 0.8219295 0.5306693 0.8084906 0.542131 0.8102132 0.5402746 0.8162304 0.5214881 0.8219295 0.5214881 0.8174263 0.515471 0.8174263 0.5402746 0.8219295 0.548746 0.7824342 0.5374053 0.7824342 0.528813 0.8174263 0.528813 0.8219295 0.528934 0.8219295 0.542131 0.8219295 0.5312535 0.8219295 0.5397248 0.7824342 0.5306693 0.8174263 0.5397248 0.7824342 0.5312535 0.8219295 0.5244838 0.7824342 0.5184666 0.7824342 0.5171934 0.8219295 0.535395 0.8084906 0.5372512 0.8145079 0.5257896 0.8162304 0.515471 0.8174263 0.5214881 0.8174263 0.5214881 0.8219295 0.5257896 0.8219295 0.5371303 0.8219295 0.528659 0.7824342 0.5372512 0.8174263 0.528659 0.7824342 0.5371303 0.8219295 0.5263395 0.7824342 0.5348109 0.8219295 0.5239334 0.8219295 0.5348109 0.8219295 0.5263395 0.7824342 0.535395 0.8174263 0.5405898 0.7824342 0.5418629 0.8219295 0.5478801 0.8219295 0.535395 0.7799811 0.5239334 0.7782585 0.5257896 0.7722413 0.5435855 0.8219295 0.5435855 0.8174263 0.5496027 0.8174263 0.5257896 0.8219295 0.5173183 0.7824342 0.528659 0.7824342 0.5372512 0.8174263 0.5372512 0.8219295 0.5371303 0.8219295 0.5239334 0.8219295 0.5348109 0.8219295 0.5263395 0.7824342 0.535395 0.8174263 0.5263395 0.7824342 0.5348109 0.8219295 0.5189914 0.7824342 0.5189914 0.7319755 0.5250086 0.7319755 0.5402497 0.7824342 0.5402497 0.7319755 0.5511271 0.7319755 0.5471318 0.7824342 0.5471318 0.7319755 0.5411146 0.7319755 0.5374053 0.7824342 0.5374053 0.7319755 0.548746 0.7319755 0.5154621 0.7824342 0.5154621 0.7319755 0.5263395 0.7319755 0.5244838 0.7824342 0.5244838 0.7319755 0.5184666 0.7319755 0.5291838 0.7824342 0.5291838 0.7319755 0.5178431 0.7319755 0.5379302 0.7824342 0.5379302 0.7319755 0.5492708 0.7319755 0.5173183 0.7824342 0.5173183 0.7319755 0.528659 0.7319755 0.5506023 0.7824342 0.5506023 0.7319755 0.5397248 0.7319755 0.5405898 0.7824342 0.5405898 0.7319755 0.546607 0.7319755 0.548746 0.7824342 0.548746 0.7319755 0.5374053 0.7319755 0.5159869 0.7824342 0.5159869 0.7319755 0.5268644 0.7319755 0.5411146 0.7824342 0.5411146 0.7319755 0.5471318 0.7319755 0.5511271 0.7824342 0.5511271 0.7319755 0.5402497 0.7319755 0.5250086 0.7824342 0.5250086 0.7319755 0.5189914 0.7319755 0.5263395 0.7824342 0.5263395 0.7319755 0.5154621 0.7319755 0.5178431 0.7824342 0.5178431 0.7319755 0.5291838 0.7319755 0.546607 0.7824342 0.546607 0.7319755 0.5405898 0.7319755 0.5492708 0.7824342 0.5492708 0.7319755 0.5379302 0.7319755 0.5397248 0.7824342 0.5397248 0.7319755 0.5506023 0.7319755 0.5184666 0.7824342 0.5184666 0.7319755 0.5244838 0.7319755 0.528659 0.7824342 0.528659 0.7319755 0.5173183 0.7319755 0.5268644 0.7824342 0.5268644 0.7319755 0.5159869 0.7319755 0.8397889 0.9813992 0.8367329 0.9902627 0.8397889 0.9902627 0.799208 0.9851875 0.9439681 0.9864745 0.799208 0.9864745 0.7846241 0.9827749 0.799208 0.9864745 0.7846242 0.9888869 0.7846242 0.9813992 0.799208 0.9867641 0.7846242 0.9902627 0.7846242 0.9888869 0.799208 0.9851875 0.7846241 0.9827749 0.7846241 0.9902627 0.799208 0.9848978 0.7846241 0.9813992 0.8379391 0.9867641 0.8385826 0.9848978 0.8385826 0.9867641 0.799208 0.9848978 0.9439681 0.9867641 0.799208 0.9867641 0.799208 0.9864745 0.9439681 0.9851875 0.799208 0.9851875 0.799208 0.9867641 0.9439681 0.9848978 0.799208 0.9848978 0.8397889 0.9813992 0.8367329 0.9813992 0.8367329 0.9902627 0.799208 0.9851875 0.9439681 0.9851875 0.9439681 0.9864745 0.7846241 0.9827749 0.799208 0.9851875 0.799208 0.9864745 0.7846242 0.9813992 0.799208 0.9848978 0.799208 0.9867641 0.7846242 0.9888869 0.799208 0.9864745 0.799208 0.9851875 0.7846241 0.9902627 0.799208 0.9867641 0.799208 0.9848978 0.8379391 0.9867641 0.8379391 0.9848978 0.8385826 0.9848978 0.799208 0.9848978 0.9439681 0.9848978 0.9439681 0.9867641 0.799208 0.9864745 0.9439681 0.9864745 0.9439681 0.9851875 0.799208 0.9867641 0.9439681 0.9867641 0.9439681 0.9848978 0.06237399 0.3832424 0.05696761 0.3126013 0.08873844 0.3126013 0.08873844 0.3832424 0.08873844 0.3126013 0.05696761 0.3126013 0.1151028 0.3832424 0.1205093 0.3126013 0.08873844 0.3126013 0.08873844 0.3832424 0.08873844 0.3126013 0.05696761 0.3126013 0.1151028 0.3832424 0.1205093 0.3126013 0.08873844 0.3126013 0.08873844 0.3832424 0.08873844 0.3126013 0.1205093 0.3126013 0.06237399 0.3832424 0.05696761 0.3126013 0.08873844 0.3126013 0.08873844 0.3832424 0.08873844 0.3126013 0.1205093 0.3126013 0.1337032 0.3630602 0.08011192 0.3630602 0.08011192 0.3321014 0.04033839 0.4233207 0.08632081 0.4052776 0.08632081 0.4130185 0.02129179 0.4668805 0.04033839 0.4233207 0.04611641 0.4287943 0.04033839 0.5104404 0.02129179 0.4668805 0.02946317 0.4668805 0.08632081 0.5284835 0.04033839 0.5104404 0.04611641 0.5049667 0.1323032 0.5104404 0.08632081 0.5284835 0.08632081 0.5207426 0.1513499 0.4668805 0.1323032 0.5104404 0.1265252 0.5049667 0.1265252 0.4287943 0.1323032 0.4233207 0.1513499 0.4668805 0.08632081 0.4130185 0.08632081 0.4052776 0.1323032 0.4233207 0.04611641 0.4287943 0.08632081 0.4130185 0.1265252 0.5049667 0.08632081 0.4130185 0.1265252 0.4287943 0.1265252 0.5049667 0.1265252 0.4287943 0.1431785 0.4668805 0.1265252 0.5049667 0.1265252 0.5049667 0.08632081 0.5207426 0.04611641 0.4287943 0.08632081 0.5207426 0.04611641 0.5049667 0.04611641 0.4287943 0.08011192 0.3630602 0.1337032 0.3630602 0.1337032 0.3321014 0.08011192 0.3630602 0.02652049 0.3630602 0.02652049 0.3321014 0.08011192 0.3630602 0.02652049 0.3630602 0.02652049 0.3321014 0.08011192 0.3630602 0.1337032 0.3630602 0.1337032 0.3321014 0.02652049 0.3630602 0.08011192 0.3630602 0.08011192 0.3321014 0.02652049 0.3630602 0.08011192 0.3630602 0.08011192 0.3321014 0.1337032 0.3630602 0.08011192 0.3630602 0.08011192 0.3321014</float_array>
          <technique_common>
            <accessor source="#Cylinder-mesh-map-0-array" count="702" stride="2">
              <param name="S" type="float"/>
              <param name="T" type="float"/>
            </accessor>
          </technique_common>
        </source>
        <vertices id="Cylinder-mesh-vertices">
          <input semantic="POSITION" source="#Cylinder-mesh-positions"/>
        </vertices>
        <triangles material="Material_007-material" count="234">
          <input semantic="VERTEX" source="#Cylinder-mesh-vertices" offset="0"/>
          <input semantic="NORMAL" source="#Cylinder-mesh-normals" offset="1"/>
          <input semantic="TEXCOORD" source="#Cylinder-mesh-map-0" offset="2" set="0"/>
          <p>17 0 0 1 0 1 16 0 2 18 1 3 3 1 4 17 1 5 19 2 6 5 2 7 18 2 8 20 3 9 7 3 10 19 3 11 21 4 12 9 4 13 20 4 14 22 5 15 11 5 16 21 5 17 23 6 18 13 6 19 22 6 20 16 7 21 15 7 22 23 7 23 25 8 24 4 8 25 2 8 26 17 9 27 0 9 28 2 9 29 18 9 30 2 9 31 4 9 32 19 10 33 4 10 34 6 10 35 20 9 36 6 9 37 8 9 38 21 9 39 8 9 40 10 9 41 22 9 42 10 9 43 12 9 44 14 9 45 22 9 46 12 9 47 0 9 48 23 9 49 14 9 50 27 9 51 26 9 52 25 9 53 30 11 54 14 11 55 12 11 56 28 12 57 10 12 58 8 12 59 26 13 60 6 13 61 4 13 62 24 14 63 2 14 64 0 14 65 31 15 66 0 15 67 14 15 68 29 16 69 12 16 70 10 16 71 27 17 72 8 17 73 6 17 74 35 18 75 33 18 76 36 18 77 34 9 78 36 9 79 33 9 80 38 19 81 37 19 82 34 19 83 36 20 84 40 20 85 35 20 86 39 21 87 41 21 88 37 21 89 42 22 90 33 22 91 32 22 92 43 23 93 38 23 94 34 23 95 47 24 96 45 24 97 44 24 98 46 9 99 48 9 100 49 9 101 49 25 102 50 25 103 46 25 104 48 26 105 52 26 106 53 26 107 51 27 108 53 27 109 52 27 110 45 28 111 54 28 112 44 28 113 50 29 114 55 29 115 46 29 116 59 30 117 57 30 118 60 30 119 58 31 120 60 31 121 57 31 122 62 32 123 61 32 124 58 32 125 60 33 126 64 33 127 59 33 128 63 34 129 65 34 130 61 34 131 66 35 132 57 35 133 56 35 134 67 36 135 62 36 136 58 36 137 71 37 138 69 37 139 68 37 140 70 38 141 72 38 142 73 38 143 73 39 144 74 39 145 70 39 146 72 40 147 76 40 148 77 40 149 75 41 150 77 41 151 76 41 152 69 42 153 78 42 154 68 42 155 74 43 156 79 43 157 70 43 158 83 44 159 81 44 160 84 44 161 82 9 162 84 9 163 81 9 164 86 45 165 85 45 166 82 45 167 84 46 168 88 46 169 83 46 170 87 47 171 89 47 172 85 47 173 90 48 174 81 48 175 80 48 176 91 49 177 86 49 178 82 49 179 95 50 180 93 50 181 92 50 182 94 9 183 96 9 184 97 9 185 97 51 186 98 51 187 94 51 188 96 52 189 100 52 190 101 52 191 99 53 192 101 53 193 100 53 194 93 54 195 102 54 196 92 54 197 98 55 198 103 55 199 94 55 200 107 56 201 105 56 202 108 56 203 106 9 204 108 9 205 105 9 206 110 57 207 109 57 208 106 57 209 108 58 210 112 58 211 107 58 212 111 59 213 113 59 214 109 59 215 114 60 216 105 60 217 104 60 218 115 61 219 110 61 220 106 61 221 119 62 222 117 62 223 116 62 224 118 63 225 120 63 226 121 63 227 121 64 228 122 64 229 118 64 230 120 65 231 124 65 232 125 65 233 123 66 234 125 66 235 124 66 236 117 67 237 126 67 238 116 67 239 122 68 240 127 68 241 118 68 242 44 69 243 133 69 244 47 69 245 78 70 246 140 70 247 68 70 248 68 71 249 141 71 250 71 71 251 88 72 252 145 72 253 83 72 254 104 73 255 155 73 256 114 73 257 107 74 258 152 74 259 104 74 260 40 75 261 129 75 262 35 75 263 64 76 264 137 76 265 59 76 266 119 77 267 158 77 268 124 77 269 80 78 270 147 78 271 90 78 272 83 79 273 144 79 274 80 79 275 95 80 276 150 80 277 100 80 278 32 81 279 131 81 280 42 81 281 35 82 282 128 82 283 32 82 284 56 83 285 139 83 286 66 83 287 59 84 288 136 84 289 56 84 290 126 85 291 156 85 292 116 85 293 47 86 294 134 86 295 52 86 296 116 87 297 157 87 298 119 87 299 71 88 300 142 88 301 76 88 302 102 89 303 148 89 304 92 89 305 92 90 306 149 90 307 95 90 308 112 91 309 153 91 310 107 91 311 54 92 312 132 92 313 44 92 314 35 93 315 32 93 316 33 93 317 34 9 318 37 9 319 36 9 320 38 94 321 39 94 322 37 94 323 36 95 324 41 95 325 40 95 326 39 96 327 40 96 328 41 96 329 42 97 330 43 97 331 33 97 332 43 98 333 42 98 334 38 98 335 47 99 336 48 99 337 45 99 338 46 9 339 45 9 340 48 9 341 49 100 342 51 100 343 50 100 344 48 101 345 47 101 346 52 101 347 51 102 348 49 102 349 53 102 350 45 103 351 55 103 352 54 103 353 50 104 354 54 104 355 55 104 356 59 105 357 56 105 358 57 105 359 58 106 360 61 106 361 60 106 362 62 107 363 63 107 364 61 107 365 60 108 366 65 108 367 64 108 368 63 109 369 64 109 370 65 109 371 66 110 372 67 110 373 57 110 374 67 111 375 66 111 376 62 111 377 71 112 378 72 112 379 69 112 380 70 113 381 69 113 382 72 113 383 73 114 384 75 114 385 74 114 386 72 115 387 71 115 388 76 115 389 75 116 390 73 116 391 77 116 392 69 117 393 79 117 394 78 117 395 74 118 396 78 118 397 79 118 398 83 119 399 80 119 400 81 119 401 82 120 402 85 120 403 84 120 404 86 121 405 87 121 406 85 121 407 84 122 408 89 122 409 88 122 410 87 123 411 88 123 412 89 123 413 90 124 414 91 124 415 81 124 416 91 125 417 90 125 418 86 125 419 95 126 420 96 126 421 93 126 422 94 9 423 93 9 424 96 9 425 97 127 426 99 127 427 98 127 428 96 128 429 95 128 430 100 128 431 99 129 432 97 129 433 101 129 434 93 130 435 103 130 436 102 130 437 98 131 438 102 131 439 103 131 440 107 132 441 104 132 442 105 132 443 106 9 444 109 9 445 108 9 446 110 133 447 111 133 448 109 133 449 108 134 450 113 134 451 112 134 452 111 135 453 112 135 454 113 135 455 114 136 456 115 136 457 105 136 458 115 137 459 114 137 460 110 137 461 119 138 462 120 138 463 117 138 464 118 9 465 117 9 466 120 9 467 121 64 468 123 64 469 122 64 470 120 139 471 119 139 472 124 139 473 123 140 474 121 140 475 125 140 476 117 141 477 127 141 478 126 141 479 122 142 480 126 142 481 127 142 482 44 143 483 132 143 484 133 143 485 78 144 486 143 144 487 140 144 488 68 145 489 140 145 490 141 145 491 88 146 492 146 146 493 145 146 494 104 147 495 152 147 496 155 147 497 107 74 498 153 74 499 152 74 500 40 148 501 130 148 502 129 148 503 64 149 504 138 149 505 137 149 506 119 150 507 157 150 508 158 150 509 80 151 510 144 151 511 147 151 512 83 152 513 145 152 514 144 152 515 95 153 516 149 153 517 150 153 518 32 81 519 128 81 520 131 81 521 35 154 522 129 154 523 128 154 524 56 155 525 136 155 526 139 155 527 59 156 528 137 156 529 136 156 530 126 157 531 159 157 532 156 157 533 47 158 534 133 158 535 134 158 536 116 87 537 156 87 538 157 87 539 71 159 540 141 159 541 142 159 542 102 160 543 151 160 544 148 160 545 92 161 546 148 161 547 149 161 548 112 162 549 154 162 550 153 162 551 54 92 552 135 92 553 132 92 554 161 163 555 162 163 556 160 163 557 165 164 558 171 164 559 167 164 560 161 165 561 167 165 562 163 165 563 163 166 564 166 166 565 162 166 566 162 167 567 164 167 568 160 167 569 160 168 570 165 168 571 161 168 572 170 9 573 169 9 574 168 9 575 167 169 576 170 169 577 166 169 578 166 170 579 168 170 580 164 170 581 164 171 582 169 171 583 165 171 584 161 163 585 163 163 586 162 163 587 165 164 588 169 164 589 171 164 590 161 172 591 165 172 592 167 172 593 163 173 594 167 173 595 166 173 596 162 174 597 166 174 598 164 174 599 160 175 600 164 175 601 165 175 602 170 9 603 171 9 604 169 9 605 167 169 606 171 169 607 170 169 608 166 170 609 170 170 610 168 170 611 164 171 612 168 171 613 169 171 614 17 176 615 3 176 616 1 176 617 18 177 618 5 177 619 3 177 620 19 178 621 7 178 622 5 178 623 20 179 624 9 179 625 7 179 626 21 180 627 11 180 628 9 180 629 22 181 630 13 181 631 11 181 632 23 182 633 15 182 634 13 182 635 16 183 636 1 183 637 15 183 638 25 184 639 26 184 640 4 184 641 17 185 642 16 185 643 0 185 644 18 186 645 17 186 646 2 186 647 19 187 648 18 187 649 4 187 650 20 188 651 19 188 652 6 188 653 21 189 654 20 189 655 8 189 656 22 190 657 21 190 658 10 190 659 14 9 660 23 9 661 22 9 662 0 9 663 16 9 664 23 9 665 25 9 666 24 9 667 29 9 668 24 9 669 31 9 670 29 9 671 31 9 672 30 9 673 29 9 674 29 191 675 28 191 676 25 191 677 28 9 678 27 9 679 25 9 680 30 192 681 31 192 682 14 192 683 28 193 684 29 193 685 10 193 686 26 194 687 27 194 688 6 194 689 24 195 690 25 195 691 2 195 692 31 15 693 24 15 694 0 15 695 29 196 696 30 196 697 12 196 698 27 197 699 28 197 700 8 197 701</p>
        </triangles>
      </mesh>
    </geometry>
  </library_geometries>
  <library_visual_scenes>
    <visual_scene id="Scene" name="Scene">
      <node id="auto_tower" name="auto_tower" type="NODE">
        <matrix sid="transform">1 0 0 0 0 1 0 0 0 0 1 0 0 0 0 1</matrix>
        <instance_geometry url="#Cylinder-mesh" name="auto_tower">
          <bind_material>
            <technique_common>
              <instance_material symbol="Material_007-material" target="#Material_007-material">
                <bind_vertex_input semantic="Cylinder-mesh-map-0" input_semantic="TEXCOORD" input_set="0"/>
              </instance_material>
            </technique_common>
          </bind_material>
        </instance_geometry>
        <node id="prop_garrisoned" name="prop_garrisoned" type="NODE">
          <matrix sid="transform">2.316318 0 0 4.767303 0 2.316318 0 -2.638817 0 0 2.316318 2.171693 0 0 0 1</matrix>
        </node>
      </node>
    </visual_scene>
  </library_visual_scenes>
  <scene>
    <instance_visual_scene url="#Scene"/>
  </scene>
</COLLADA>