<?xml version="1.0" encoding="utf-8"?>
<COLLADA xmlns="http://www.collada.org/2005/11/COLLADASchema" version="1.4.1" xmlns:xsi="http://www.w3.org/2001/XMLSchema-instance">
  <asset>
    <contributor>
      <author>Blender User</author>
      <authoring_tool>Blender 4.3.1 commit date:2024-12-10, commit time:07:46, hash:33d812126174</authoring_tool>
    </contributor>
    <created>2026-09-20T15:59:15</created>
    <modified>2026-09-20T15:59:15</modified>
    <unit name="meter" meter="1"/>
    <up_axis>Z_UP</up_axis>
  </asset>
  <library_effects>
    <effect id="Material_008-effect">
      <profile_COMMON>
        <newparam sid="mla_struct_png-surface">
          <surface type="2D">
            <init_from>mla_struct_png</init_from>
          </surface>
        </newparam>
        <newparam sid="mla_struct_png-sampler">
          <sampler2D>
            <source>mla_struct_png-surface</source>
          </sampler2D>
        </newparam>
        <technique sid="common">
          <lambert>
            <emission>
              <color sid="emission">0 0 0 1</color>
            </emission>
            <diffuse>
              <texture texture="mla_struct_png-sampler" texcoord="Cylinder_001-mesh-map-0"/>
            </diffuse>
            <index_of_refraction>
              <float sid="ior">1.5</float>
            </index_of_refraction>
          </lambert>
        </technique>
      </profile_COMMON>
    </effect>
  </library_effects>
  <library_images>
    <image id="mla_struct_png" name="mla_struct_png">
      <init_from>/home/welton/snap/0ad/743/.local/share/0ad/mods/mars_wars/art/textures/skins/structural/mla_struct.png</init_from>
    </image>
  </library_images>
  <library_materials>
    <material id="Material_008-material" name="Material.008">
      <instance_effect url="#Material_008-effect"/>
    </material>
  </library_materials>
  <library_geometries>
    <geometry id="Cylinder_003-mesh" name="Cylinder.003">
      <mesh>
        <source id="Cylinder_003-mesh-positions">
          <float_array id="Cylinder_003-mesh-positions-array" count="852">-13.26388 13.26388 6.331559 -14.61582 10 6.331559 -13.26388 6.73612 6.331559 -10 5.384176 6.331559 -6.73612 6.73612 6.331559 -5.384176 10 6.331559 -10 14.61582 6.331559 -6.73612 13.26388 6.331559 -4.964915 10 5.747182 -6.439658 6.439658 5.747182 -10 4.964915 5.747182 -13.56034 6.439658 5.747182 -15.03508 10 5.747182 -13.56034 13.56034 5.747182 -6.439658 13.56034 5.747182 -10 15.03508 5.747182 -4.964915 10 -27.75934 -6.439658 6.439658 -27.75934 -10 4.964915 -27.75934 -13.56034 6.439658 -27.75934 -15.03508 10 -27.75934 -13.56034 13.56034 -27.75934 -6.439658 13.56034 -27.75934 -10 15.03508 -27.75934 13.26388 13.26388 6.331559 14.61582 10 6.331559 13.26388 6.73612 6.331559 10 5.384176 6.331559 6.73612 6.73612 6.331559 5.384176 10 6.331559 10 14.61582 6.331559 6.73612 13.26388 6.331559 4.964915 10 5.747182 6.439658 6.439658 5.747182 10 4.964915 5.747182 13.56034 6.439658 5.747182 15.03508 10 5.747182 13.56034 13.56034 5.747182 6.439658 13.56034 5.747182 10 15.03508 5.747182 4.964915 10 -27.75934 6.439658 6.439658 -27.75934 10 4.964915 -27.75934 13.56034 6.439658 -27.75934 15.03508 10 -27.75934 13.56034 13.56034 -27.75934 6.439658 13.56034 -27.75934 10 15.03508 -27.75934 -4.964915 -10 5.747182 -6.439658 -6.439658 5.747182 -10 -4.964915 5.747182 -13.56034 -6.439658 5.747182 -15.03508 -10 5.747182 -13.56034 -13.56034 5.747182 -6.439658 -13.56034 5.747182 -10 -15.03508 5.747182 -4.964915 -10 -27.75934 -6.439658 -6.439658 -27.75934 -10 -4.964915 -27.75934 -13.56034 -6.439658 -27.75934 -15.03508 -10 -27.75934 -13.56034 -13.56034 -27.75934 -6.439658 -13.56034 -27.75934 -10 -15.03508 -27.75934 13.26388 -13.26388 6.331559 14.61582 -10 6.331559 13.26388 -6.73612 6.331559 10 -5.384176 6.331559 6.73612 -6.73612 6.331559 5.384176 -10 6.331559 10 -14.61582 6.331559 6.73612 -13.26388 6.331559 4.964915 -10 5.747182 6.439658 -6.439658 5.747182 10 -4.964915 5.747182 13.56034 -6.439658 5.747182 15.03508 -10 5.747182 13.56034 -13.56034 5.747182 6.439658 -13.56034 5.747182 10 -15.03508 5.747182 4.964915 -10 -27.75934 6.439658 -6.439658 -27.75934 10 -4.964915 -27.75934 13.56034 -6.439658 -27.75934 15.03508 -10 -27.75934 13.56034 -13.56034 -27.75934 6.439658 -13.56034 -27.75934 10 -15.03508 -27.75934 -13.63688 -6.363121 5.747182 -10 -4.856676 5.747182 -10 -4.856676 -27.75934 -13.63688 -6.363121 -27.75934 -10 -15.14332 5.747182 -13.63688 -13.63688 5.747182 -13.63688 -13.63688 -27.75934 -10 -15.14332 -27.75934 -6.363121 -6.363121 5.747182 -6.363121 -6.363121 -27.75934 -15.14332 -10 5.747182 -15.14332 -10 -27.75934 -4.856676 -10 5.747182 -4.856676 -10 -27.75934 -6.363121 -13.63688 5.747182 -6.363121 -13.63688 -27.75934 -11.54909 -8.450911 3.753315 -10 -7.809256 3.753315 -10 -12.19074 3.753315 -11.54909 -11.54909 3.753315 -8.45091 -8.450911 3.753315 -12.19074 -10 3.753315 -7.809255 -10 3.753315 -8.45091 -11.54909 3.753315 -11.54909 -8.450911 -18.98883 -10 -7.809256 -18.98883 -10 -12.19074 -18.98883 -11.54909 -11.54909 -18.98883 -8.45091 -8.450911 -18.98883 -12.19074 -10 -18.98883 -7.809255 -10 -18.98883 -8.45091 -11.54909 -18.98883 -11.10982 -8.890186 6.827767 -10 -8.430483 6.827767 -10 -11.56952 6.827767 -11.10982 -11.10982 6.827767 -8.890185 -8.890186 6.827767 -11.56952 -10 6.827767 -8.430482 -10 6.827767 -8.890185 -11.10982 6.827767 -10.43087 -9.569131 8.604438 -10 -9.39066 8.604438 -10 -10.60934 8.604438 -10.43087 -10.43087 8.604438 -9.56913 -9.569131 8.604438 -10.60934 -10 8.604438 -9.39066 -10 8.604438 -9.56913 -10.43087 8.604438 -13.26388 -2.374852 12.88576 -14.61582 -3.459041 9.807209 -13.26388 -4.543228 6.728663 -10 -4.992314 5.453487 -6.73612 -4.543228 6.728663 -5.384176 -3.459041 9.807209 -10 -1.925765 14.16093 -6.73612 -2.374852 12.88576 -4.964915 -4.010234 10.00133 -6.439658 -5.1929 6.643152 -10 -5.682777 5.252151 -13.56034 -5.1929 6.643152 -15.03508 -4.010234 10.00133 -13.56034 -2.827566 13.3595 -6.439658 -2.827566 13.3595 -10 -2.337688 14.7505 -13.44725 -6.552746 2.056966 -13.44725 -13.44725 2.056966 -6.552746 -6.552746 2.056966 -6.552746 -13.44725 2.056966 -14.63296 -10 2.056966 -5.367037 -10 2.056966 -10 -5.367037 2.056966 -10 -14.63296 2.056966 -14.68251 3.8 -30.89378 -16.2 5.317486 -30.89378 -14.68251 3.8 3.027989 -14.68251 5.317486 4.545476 -16.2 5.317486 3.027989 -16.2 14.68251 -30.89378 -14.68251 16.2 -30.89378 -14.68251 14.68251 4.545476 -14.68251 16.2 3.027989 -16.2 14.68251 3.027989 -3.8 5.317486 -30.89378 -5.317486 3.8 -30.89378 -5.317486 5.317486 4.545476 -5.317486 3.8 3.027989 -3.8 5.317486 3.027989 -5.317486 16.2 -30.89378 -3.8 14.68251 -30.89378 -5.317486 14.68251 4.545476 -3.8 14.68251 3.027989 -5.317486 16.2 3.027989 16.2 5.317486 -30.89378 14.68251 3.8 -30.89378 14.68251 3.8 3.027989 16.2 5.317486 3.027989 14.68251 5.317486 4.545476 14.68251 16.2 -30.89378 16.2 14.68251 -30.89378 14.68251 14.68251 4.545476 16.2 14.68251 3.027989 14.68251 16.2 3.027989 5.317486 3.8 -30.89378 3.8 5.317486 -30.89378 5.317486 5.317486 4.545476 3.8 5.317486 3.027989 5.317486 3.8 3.027989 3.8 14.68251 -30.89378 5.317486 16.2 -30.89378 5.317486 14.68251 4.545476 5.317486 16.2 3.027989 3.8 14.68251 3.027989 -16.2 -5.317486 -30.89378 -14.68251 -3.8 -30.89378 -12.07277 -5.781175 4.545476 -14.21883 -7.927225 4.545476 -14.68251 -16.2 -30.89378 -16.2 -14.68251 -30.89378 -14.21883 -12.07278 4.545476 -12.07278 -14.21883 4.545476 -5.317486 -3.8 -30.89378 -3.8 -5.317486 -30.89378 -5.781175 -7.927226 4.545476 -7.927226 -5.781175 4.545476 -3.8 -14.68251 -30.89378 -5.317486 -16.2 -30.89378 -7.927225 -14.21883 4.545476 -5.781175 -12.07277 4.545476 14.68251 -3.8 -30.89378 16.2 -5.317486 -30.89378 14.68251 -3.8 3.027989 14.68251 -5.317486 4.545476 16.2 -5.317486 3.027989 16.2 -14.68251 -30.89378 14.68251 -16.2 -30.89378 14.68251 -14.68251 4.545476 14.68251 -16.2 3.027989 16.2 -14.68251 3.027989 3.8 -5.317486 -30.89378 5.317486 -3.8 -30.89378 5.317486 -5.317486 4.545476 5.317486 -3.8 3.027989 3.8 -5.317486 3.027989 5.317486 -16.2 -30.89378 3.8 -14.68251 -30.89378 5.317486 -14.68251 4.545476 3.8 -14.68251 3.027989 5.317486 -16.2 3.027989 -16.2 -5.317486 3.027989 -14.68251 -7.463536 4.545476 -12.53647 -5.317486 4.545476 -14.68251 -3.8 3.027989 -14.68251 -12.53646 4.545476 -16.2 -14.68251 3.027989 -14.68251 -16.2 3.027989 -12.53646 -14.68251 4.545476 -7.463537 -14.68251 4.545476 -5.317486 -16.2 3.027989 -3.8 -14.68251 3.027989 -5.317486 -12.53646 4.545476 -5.317486 -7.463536 4.545476 -3.8 -5.317486 3.027989 -5.317486 -3.8 3.027989 -7.463537 -5.317486 4.545476 -16.2 -11.51749 -30.89378 -16.2 -8.482515 -30.89378 -16.2 -11.51749 3.027989 -14.68251 -11.51749 4.545476 -14.68251 -8.482515 4.545476 -16.2 -8.482515 3.027989 -14.40982 -8.482515 4.545476 -14.40982 -11.51749 4.545476 -3.8 -8.482515 -30.89378 -3.8 -11.51749 -30.89378 -3.8 -8.482515 3.027989 -5.317486 -8.482515 4.545476 -5.317486 -11.51749 4.545476 -3.8 -11.51749 3.027989 -5.590179 -11.51749 4.545476 -5.59018 -8.482515 4.545476 -11.51749 -3.8 -30.89378 -8.482515 -3.8 -30.89378 -11.51749 -3.8 3.027989 -11.51749 -5.317486 4.545476 -8.482515 -5.317486 4.545476 -8.482515 -3.8 3.027989 -8.482515 -5.59018 4.545476 -11.51749 -5.590179 4.545476 -8.482515 -16.2 -30.89378 -11.51749 -16.2 -30.89378 -8.482515 -16.2 3.027989 -8.482515 -14.68251 4.545476 -11.51749 -14.68251 4.545476 -11.51749 -16.2 3.027989 -11.51749 -14.40982 4.545476 -8.482515 -14.40982 4.545476</float_array>
          <technique_common>
            <accessor source="#Cylinder_003-mesh-positions-array" count="284" stride="3">
              <param name="X" type="float"/>
              <param name="Y" type="float"/>
              <param name="Z" type="float"/>
            </accessor>
          </technique_common>
        </source>
        <source id="Cylinder_003-mesh-normals">
          <float_array id="Cylinder_003-mesh-normals-array" count="1479">0 0 1 -0.3826839 -0.9238794 0 -0.3826839 -0.9238794 0 -0.3826839 -0.9238793 0 0.3189744 0.7700744 0.552486 0.3189741 0.7700729 0.5524883 0.3189744 0.7700749 0.5524855 -0.7700738 -0.3189743 0.5524869 -0.7700747 -0.3189746 0.5524857 -0.7700748 -0.3189746 0.5524854 0.7700729 0.3189752 0.5524876 0.7700731 0.3189752 0.5524874 0.7700731 0.3189752 0.5524874 -0.3189753 -0.7700728 0.5524876 -0.3189751 -0.7700731 0.5524875 -0.3189755 -0.7700728 0.5524877 -0.3189743 0.7700728 0.5524882 -0.3189746 0.7700747 0.5524854 -0.3189747 0.7700751 0.5524849 0.3189752 -0.7700731 0.5524874 0.3189751 -0.7700733 0.5524872 0.3189751 -0.7700734 0.5524871 -0.7700745 0.3189751 0.5524855 -0.7700735 0.3189748 0.552487 -0.7700747 0.3189752 0.5524852 0.7700731 -0.3189748 0.5524876 0.7700732 -0.3189747 0.5524876 0.7700731 -0.3189749 0.5524876 -0.3826832 0.9238797 0 -0.3826831 0.9238797 0 -0.3826832 0.9238798 0 0.3826838 -0.9238795 0 0.3826839 -0.9238794 0 0.3826839 -0.9238793 0 -0.9238797 0.382683 0 -0.9238798 0.3826831 0 -0.9238798 0.3826831 0 0.9238794 -0.3826839 0 0.9238795 -0.3826838 0 0.9238795 -0.3826838 0 0.3826832 0.9238798 0 0.382683 0.9238798 0 0.3826829 0.9238797 0 -0.9238798 -0.3826829 0 0.9238794 0.3826839 0 0.9238793 0.3826841 0 0 -1 0 1 0 0 0 1 0 0.3826839 -0.9238794 0 -0.3189743 0.7700729 0.5524882 -0.3189744 0.770075 0.5524851 -0.3189745 0.7700754 0.5524846 0.7700738 -0.3189743 0.5524869 0.7700747 -0.3189746 0.5524857 0.7700737 -0.3189743 0.5524871 -0.7700729 0.3189752 0.5524876 -0.7700731 0.3189752 0.5524874 -0.7700729 0.3189751 0.5524876 0.3189752 -0.7700731 0.5524875 0.3189752 -0.770073 0.5524875 0.3189753 -0.7700731 0.5524876 0.3189743 0.7700728 0.5524882 0.3189746 0.7700747 0.5524854 0.3189743 0.7700726 0.5524886 -0.3189752 -0.7700731 0.5524874 -0.3189751 -0.7700733 0.5524872 -0.3189752 -0.7700731 0.5524874 0.7700738 0.3189749 0.5524866 0.7700745 0.3189749 0.5524856 0.7700747 0.3189749 0.5524854 -0.7700732 -0.3189747 0.5524876 -0.7700732 -0.3189749 0.5524874 -0.7700732 -0.3189749 0.5524874 0.3826831 0.9238797 0 0.3826832 0.9238797 0 0.3826832 0.9238798 0 -0.3826838 -0.9238795 0 0.9238798 0.3826831 0 0.9238797 0.382683 0 0.9238798 0.3826831 0 -0.9238795 -0.3826838 0 -0.9238794 -0.3826839 0 -0.9238795 -0.3826838 0 -0.382683 0.9238798 0 -0.3826832 0.9238798 0 -0.3826829 0.9238797 0 0.9238798 -0.3826829 0 -0.9238793 0.3826841 0 -0.9238794 0.3826839 0 -1 0 0 1.80982e-7 0 1 3.19456e-7 0 1 0 0 1 -1.59725e-7 0 1 -4.18668e-7 0 1 -4.87455e-7 0 1 0.3826839 0.9238794 0 0.3826839 0.9238794 0 0.3826839 0.9238793 0 -0.3189744 -0.7700744 0.552486 -0.3189741 -0.7700729 0.5524883 -0.3189744 -0.7700749 0.5524855 0.7700738 0.3189743 0.5524869 0.7700747 0.3189746 0.5524857 0.7700748 0.3189746 0.5524854 -0.7700729 -0.3189752 0.5524876 -0.7700731 -0.3189752 0.5524874 -0.7700731 -0.3189752 0.5524874 0.3189753 0.7700728 0.5524876 0.3189751 0.7700731 0.5524875 0.3189755 0.7700728 0.5524877 0.3189743 -0.7700728 0.5524882 0.3189746 -0.7700747 0.5524854 0.3189747 -0.7700751 0.5524849 -0.3189752 0.7700731 0.5524874 -0.3189751 0.7700733 0.5524872 -0.3189751 0.7700734 0.5524871 0.7700745 -0.3189751 0.5524855 0.7700735 -0.3189748 0.552487 0.7700747 -0.3189752 0.5524852 -0.7700731 0.3189748 0.5524876 -0.7700732 0.3189747 0.5524876 -0.7700731 0.3189749 0.5524876 0.3826832 -0.9238797 0 0.3826831 -0.9238797 0 0.3826832 -0.9238798 0 -0.3826838 0.9238795 0 -0.3826839 0.9238794 0 -0.3826839 0.9238793 0 0.9238797 -0.382683 0 0.9238798 -0.3826831 0 0.9238798 -0.3826831 0 -0.9238794 0.3826839 0 -0.9238795 0.3826838 0 -0.9238795 0.3826838 0 -0.3826832 -0.9238798 0 -0.382683 -0.9238798 0 -0.3826829 -0.9238797 0 0.9238798 0.3826829 0 -0.9238794 -0.3826839 0 -0.9238793 -0.3826841 0 -0.3826834 0.9238796 0 -0.3826834 0.9238796 0 -0.3826835 0.9238796 0 -0.3826824 -0.92388 0 -0.3826823 -0.92388 0 -0.3826825 -0.9238801 0 0.3826836 0.9238796 0 0.3826835 0.9238796 0 0.3826836 0.9238795 0 -0.9238799 -0.3826825 0 -0.9238801 -0.3826821 0 0.9238796 0.3826836 0 0.9238796 0.3826834 0 0.3826825 -0.9238799 0 0.3826825 -0.9238799 0 0.3826825 -0.9238799 0 -0.9238801 0.3826823 0 -0.9238799 0.3826826 0 -0.9238801 0.3826822 0 0.9238796 -0.3826833 0 0.9238796 -0.3826835 0 0.9238796 -0.3826833 0 4.00859e-6 0 1 0 0 1 0 0 1 7.42394e-6 0 -1 0 0 -1 7.05126e-6 0 -1 -4.71739e-6 0 1 6.91442e-7 0 -1 5.4467e-6 0 -1 5.56801e-6 0 -1 0 0 1 4.61455e-6 0 1 0 0 1 0 0 -1 -1.39266e-5 0 -1 -1.38863e-5 0 -1 -7.16042e-6 0 1 3.2776e-6 0 1 3.30882e-6 0 1 0 0 -1 -1.33215e-5 0 -1 4.1414e-6 0 1 -4.61461e-6 0 1 -1.31787e-5 0 -1 4.71721e-6 0 1 3.94126e-7 0 -1 -7.26754e-6 0 1 0 0 1 0 0 1 2.14765e-7 0 1 0.381133 -0.9201422 0.08986616 0.3826813 -0.9238805 0 0.3811334 -0.9201424 0.08986318 -0.9201422 -0.381133 0.08986616 -0.9238806 -0.3826809 0 -0.9201424 -0.3811335 0.08986312 -0.3811333 -0.9201425 0.08986234 -0.3826813 -0.9238805 0 -0.381133 -0.9201422 0.08986693 -0.9201426 0.381133 0.0898624 -0.9238802 0.3826822 0 -0.9201424 0.3811324 0.08986693 0.9201409 0.381136 0.08986693 0.9238795 0.3826836 0 0.9201412 0.3811362 0.08986395 0.3811354 0.9201415 0.0898633 0.3826838 0.9238795 0 0.3811351 0.9201412 0.08986783 -0.3811351 0.9201413 0.08986693 -0.3826838 0.9238795 0 -0.3811352 0.9201416 0.08986389 0.9201415 -0.3811358 0.08986318 0.9238792 -0.3826842 0 0.9201411 -0.3811357 0.08986771 0.3642238 -0.8793153 0.3068317 -0.8793139 -0.3642234 0.3068362 -0.3642223 -0.8793143 0.3068364 -0.3642228 -0.8793158 0.3068314 -0.8793134 0.3642245 0.3068362 -0.8793149 0.3642249 0.3068317 0.879313 0.364225 0.3068367 0.3642249 0.8793129 0.3068372 0.3642255 0.8793144 0.3068323 -0.3642236 0.8793137 0.3068366 0.879315 -0.3642246 0.3068316 0.8793135 -0.3642242 0.3068363 -0.8793155 -0.3642237 0.3068315 -0.8265768 -0.3423733 0.4467118 -0.3423753 -0.8265765 0.4467108 -0.3423744 -0.8265773 0.4467101 -0.8265767 0.342374 0.4467114 -0.826578 0.3423707 0.4467115 0.8793144 0.3642256 0.3068321 0.8265756 0.3423788 0.4467096 0.3423788 0.8265759 0.4467092 0.3423783 0.8265769 0.4467078 -0.3642241 0.8793151 0.3068317 -0.3423781 0.8265758 0.4467099 0.8265753 -0.3423769 0.4467117 0.342376 -0.8265749 0.4467132 0.3423746 -0.8265749 0.4467141 0 0.943217 -0.3321775 0 0.9432169 -0.3321775 0 0.9432168 -0.3321779 0.3189747 0.7769182 0.5428198 0.3189747 0.7769163 0.5428225 0.3189747 0.7769159 0.542823 -0.7700735 0.4151603 -0.4843851 -0.770075 0.4151565 -0.4843859 -0.7700732 0.4151608 -0.484385 0.7700731 0.6270721 0.1173382 0.7700718 0.6270737 0.1173372 0.7700716 0.6270741 0.117337 -0.3189744 0.2653148 -0.90987 -0.3189746 0.2653151 -0.9098699 -0.3189747 0.2653152 -0.9098699 -0.3189745 0.7769185 0.5428195 -0.3189749 0.7769162 0.5428227 -0.3189744 0.7769188 0.5428191 0.3189746 0.2653136 -0.9098703 0.3189745 0.2653149 -0.90987 0.3189746 0.2653135 -0.9098703 -0.7700725 0.6270728 0.1173381 -0.7700721 0.6270735 0.1173369 -0.7700726 0.6270727 0.1173382 0.7700741 0.4151574 -0.4843865 0.7700731 0.4151601 -0.484386 0.7700728 0.4151605 -0.4843859 2.72423e-7 -0.9432168 0.3321781 2.72433e-7 -0.9432168 0.3321779 -2.72423e-7 -0.9432168 0.3321779 0 0 1 0 0 1 0 0 1 -0.577349 -0.5773516 0.5773504 -0.5773492 0.5773499 0.5773518 0.5773507 -0.5773504 0.5773497 0.5773511 0.577349 0.5773509 0.577349 -0.5773516 0.5773504 0.5773492 0.5773499 0.5773518 -0.5773507 -0.5773504 0.5773497 -0.5773511 0.577349 0.5773509 0.577349 0.5773516 0.5773504 0.5773492 -0.5773499 0.5773518 -0.5773507 0.5773504 0.5773497 -0.5773511 -0.577349 0.5773509 -0.3574073 0.3574072 0.8628558 -0.3574074 0.357407 0.8628559 -0.3574072 0.3574082 0.8628554 -0.3574063 -0.3574066 0.8628565 -0.3574063 -0.3574066 0.8628565 -0.3574063 -0.3574065 0.8628566 0.3574069 -0.3574064 0.8628565 0.3574067 -0.3574063 0.8628565 0.3574061 -0.3574064 0.8628567 0.3574069 0.3574069 0.8628561 0.3574069 0.3574069 0.8628561 0.3574067 0.357407 0.8628562 -0.7071057 0 0.7071079 -0.7071058 0 0.7071078 0.7071071 0 0.7071065 0.707107 0 0.7071066 0 0.7071073 0.7071063 0 0.707107 0.7071066 0 0.7071069 0.7071067 0 -0.7071055 0.7071082 0 -0.7071058 0.7071078 0 -0.7071062 0.7071075 -0.7071058 -0.7071079 0 -0.7071053 -0.7071082 0 -0.7071053 -0.7071083 0 -0.7071058 0 0.7071078 -0.707107 0.7071066 0 -0.7071067 0.7071069 0 -0.7071067 0.707107 0 0 0.7071059 0.7071077 0 0.7071053 0.7071083 0 0.7071052 0.7071084 0.7071081 0.7071055 0 0.7071079 0.7071057 0 0.7071071 0 0.7071065 0.7071066 -0.707107 0 0.7071068 -0.7071068 0 0.7071069 -0.7071068 0 0 -0.707107 0.7071067 0 -0.7071072 0.7071064 0.7071054 -0.7071082 0 0.7071058 -0.7071079 0 0.7071058 -0.7071078 0 0.7071059 0 0.7071077 0.7071058 0 0.7071078 0.7071057 0 0.7071079 0.7071067 0.707107 0 0.7071071 0.7071065 0 0 0.7071059 0.7071078 -0.7071079 0.7071057 0 -0.7071081 0.7071055 0 -0.707107 0 0.7071066 -0.7071071 0 0.7071066 -0.7071068 -0.7071068 0 -0.7071066 -0.707107 0 -0.7071067 -0.707107 0 0 -0.7071071 0.7071065 0 -0.707107 0.7071066 -0.7071054 0.7071082 0 -0.7071058 0.7071079 0 -0.7071058 0.7071078 0 -0.7071056 0 0.707108 -0.7071071 -0.7071065 0 0 -0.7071058 0.7071078 0.7071079 -0.7071057 0 0.7071081 -0.7071055 0 0.7071071 0 0.7071066 0.7071068 0.7071068 0 0.7071066 0.707107 0 0 0.7071073 0.7071064 0.7071058 0.7071079 0 0.7071053 0.7071082 0 0.7071053 0.7071083 0 0.7071058 0 0.7071078 0.707107 -0.7071066 0 0.7071067 -0.7071069 0 0.7071067 -0.707107 0 0 -0.7071059 0.7071077 0 -0.7071053 0.7071083 0 -0.7071052 0.7071084 -0.7071081 -0.7071055 0 -0.7071079 -0.7071057 0 -0.7071071 0 0.7071065 -0.7071066 0.707107 0 -0.7071068 0.7071068 0 -0.7071069 0.7071068 0 0 0.707107 0.7071067 0 0.7071072 0.7071064 0 0 1 0 0 1 -0.7071059 0 0.7071077 -0.7071056 0 0.707108 0.7071068 0 0.7071068 0.7071072 0 0.7071065 0 0.7071071 0.7071065 0 0.7071071 0.7071065 0 0 1 -0.3826839 -0.9238795 0 0.3189741 0.7700726 0.5524886 -0.7700737 -0.3189743 0.5524871 0.7700729 0.3189751 0.5524876 -0.318975 -0.7700731 0.5524875 -0.3189743 0.7700726 0.5524886 0.3189752 -0.7700731 0.5524874 -0.7700734 0.3189747 0.5524873 0.7700732 -0.3189746 0.5524876 0.3826838 -0.9238795 0 -0.9238798 0.3826832 0 0.9238793 -0.3826839 0 0.9238793 0.3826839 0 0.3826839 -0.9238795 0 0.7700748 -0.3189746 0.5524854 -0.7700731 0.3189752 0.5524874 0.3189747 0.7700751 0.5524849 -0.3189751 -0.7700734 0.5524871 0.7700737 0.3189749 0.5524868 -0.7700732 -0.3189746 0.5524876 -0.3826838 -0.9238795 0 0.9238798 0.3826832 0 -0.9238793 -0.3826839 0 -0.9238793 0.3826839 0 0.3826839 0.9238795 0 -0.3189741 -0.7700726 0.5524886 0.7700737 0.3189743 0.5524871 -0.7700729 -0.3189751 0.5524876 0.318975 0.7700731 0.5524875 0.3189743 -0.7700726 0.5524886 -0.3189752 0.7700731 0.5524874 0.7700734 -0.3189747 0.5524873 -0.7700732 0.3189746 0.5524876 0.3826832 -0.9238798 0 -0.3826838 0.9238795 0 0.9238798 -0.3826832 0 -0.9238793 0.3826839 0 -0.9238793 -0.3826839 0 -0.3826824 -0.9238801 0 -0.9238802 -0.3826822 0 0.9238796 0.3826835 0 0.3826826 -0.92388 0 -0.9238799 0.3826826 0 0.9238795 -0.3826835 0 4.79185e-7 0 1 -0.9238807 -0.3826809 0 0.3826838 0.9238795 0 0.364224 -0.8793136 0.3068364 -0.8265779 -0.3423703 0.446712 0.8265762 0.3423782 0.446709 -0.342378 0.8265761 0.4467094 0.8265755 -0.3423756 0.4467124 0 0.9432168 -0.3321779 2.16126e-7 0.9432169 -0.3321775 0 0.9432169 -0.3321776 -2.16127e-7 0.943217 -0.3321774 0 0.9432161 -0.3321798 0.3189746 0.7769185 0.5428194 -0.7700753 0.4151558 -0.484386 0.7700731 0.6270718 0.1173383 -0.3189744 0.2653148 -0.90987 -0.3189749 0.7769157 0.5428233 0.3189744 0.2653151 -0.9098699 -0.770072 0.6270736 0.1173366 0.7700742 0.415157 -0.4843866 -1.63469e-6 -0.9432169 0.3321779 -2.72434e-7 -0.9432168 0.3321782 0 -0.9432164 0.3321793 1.63469e-6 -0.9432169 0.3321778 0 -0.9432166 0.3321785 0 0 1 0 0 1 0 0 1 0 0 1 -0.3574075 0.3574063 0.8628561 -0.3574063 -0.3574067 0.8628564 0.3574075 -0.3574063 0.8628562 0.357407 0.3574069 0.862856 -0.707106 0 0.7071077 0.7071068 0 0.7071068 0 0.7071071 0.7071066 0 -0.7071056 0.707108 -0.7071058 -0.7071078 0 -0.7071071 0.7071066 0 0 0.7071061 0.7071076 0.7071081 0.7071055 0 0 -0.7071069 0.7071067 0.7071053 -0.7071082 0 0.7071059 0 0.7071077 0 0.7071053 0.7071083 -0.7071079 0.7071057 0 -0.7071071 0 0.7071065 -0.7071068 -0.7071068 0 0 -0.7071071 0.7071065 -0.7071053 0.7071082 0 -0.7071058 0 0.7071079 0 -0.7071065 0.7071071 0.7071079 -0.7071057 0 0.707107 0 0.7071065 0.7071068 0.7071068 0 0 0.7071069 0.7071068 0.7071058 0.7071078 0 0.7071071 -0.7071066 0 0 -0.7071061 0.7071076 -0.7071081 -0.7071055 0 0 0.7071069 0.7071067</float_array>
          <technique_common>
            <accessor source="#Cylinder_003-mesh-normals-array" count="493" stride="3">
              <param name="X" type="float"/>
              <param name="Y" type="float"/>
              <param name="Z" type="float"/>
            </accessor>
          </technique_common>
        </source>
        <source id="Cylinder_003-mesh-map-0">
          <float_array id="Cylinder_003-mesh-map-0-array" count="2712">0.456941 0.4034867 0.456941 0.3549148 0.5055129 0.3549148 0.5196373 0.7315834 0.5311124 0.839576 0.5196373 0.839576 0.2588605 0.9414921 0.1972656 0.951602 0.2537316 0.951602 0.1972656 0.951602 0.1356707 0.9414921 0.1407996 0.951602 0.1972656 0.951602 0.2588605 0.9414921 0.2537316 0.951602 0.1356707 0.9414921 0.1972656 0.951602 0.1407996 0.951602 0.1972656 0.951602 0.1356707 0.9414921 0.1407996 0.951602 0.1972656 0.951602 0.2588605 0.9414921 0.2537316 0.951602 0.2588605 0.9414921 0.1972656 0.951602 0.2537316 0.951602 0.1356707 0.9414921 0.1972656 0.951602 0.1407996 0.951602 0.5311124 0.7315834 0.5196373 0.839576 0.5311124 0.839576 0.5311124 0.7315834 0.5425876 0.839576 0.5311124 0.839576 0.5425876 0.7315834 0.5311124 0.839576 0.5425876 0.839576 0.5196373 0.7315834 0.5311124 0.839576 0.5196373 0.839576 0.5425876 0.7315834 0.5311124 0.839576 0.5425876 0.839576 0.5311124 0.7315834 0.5196373 0.839576 0.5311124 0.839576 0.5311124 0.7315834 0.5425876 0.839576 0.5311124 0.839576 0.5446533 0.8355205 0.5151831 0.7287744 0.5446533 0.7287744 0.5446533 0.8355205 0.5151831 0.7287744 0.5446533 0.7287744 0.5446533 0.7287744 0.5151831 0.8355205 0.5151831 0.7287744 0.1447775 0.9249746 0.1949506 0.8748015 0.1949506 0.9249746 0.5151831 0.8355205 0.5446533 0.7287744 0.5151831 0.7287744 0.456941 0.3549148 0.456941 0.4034867 0.5055129 0.4034867 0.5311124 0.839576 0.5196373 0.7315834 0.5196373 0.839576 0.1972656 0.951602 0.2588605 0.9414921 0.2537316 0.951602 0.1972656 0.951602 0.1356707 0.9414921 0.1972656 0.9414921 0.1972656 0.951602 0.2588605 0.9414921 0.1972656 0.9414921 0.1972656 0.951602 0.1356707 0.9414921 0.1407996 0.951602 0.1972656 0.951602 0.1356707 0.9414921 0.1972656 0.9414921 0.1972656 0.951602 0.2588605 0.9414921 0.1972656 0.9414921 0.1972656 0.951602 0.2588605 0.9414921 0.2537316 0.951602 0.1972656 0.951602 0.1356707 0.9414921 0.1407996 0.951602 0.5196373 0.839576 0.5311124 0.7315834 0.5311124 0.839576 0.5425876 0.839576 0.5311124 0.7315834 0.5311124 0.839576 0.5311124 0.839576 0.5425876 0.7315834 0.5425876 0.839576 0.5311124 0.839576 0.5196373 0.7315834 0.5196373 0.839576 0.5311124 0.839576 0.5425876 0.7315834 0.5425876 0.839576 0.5196373 0.839576 0.5311124 0.7315834 0.5311124 0.839576 0.5425876 0.839576 0.5311124 0.7315834 0.5311124 0.839576 0.5151831 0.7287744 0.5446533 0.8355205 0.5446533 0.7287744 0.5151831 0.7287744 0.5446533 0.8355205 0.5446533 0.7287744 0.5251429 0.7287744 0.5151831 0.8355205 0.5151831 0.7287744 0.1949506 0.8748014 0.1447775 0.9249747 0.1949506 0.9249746 0.5446533 0.7287744 0.5151831 0.8355205 0.5151831 0.7287744 0.5196373 0.7315834 0.5311124 0.839576 0.5196373 0.839576 0.5311124 0.7315834 0.5196373 0.839576 0.5311124 0.839576 0.5311124 0.7315834 0.5425876 0.839576 0.5311124 0.839576 0.5425876 0.7315834 0.5311124 0.839576 0.5425876 0.839576 0.5196373 0.7315834 0.5311124 0.839576 0.5196373 0.839576 0.5425876 0.7315834 0.5311124 0.839576 0.5425876 0.839576 0.5311124 0.7315834 0.5196373 0.839576 0.5311124 0.839576 0.5311124 0.7315834 0.5425876 0.839576 0.5311124 0.839576 0.1502043 0.9109929 0.1482913 0.908018 0.1464782 0.9134771 0.1809689 0.9195478 0.177994 0.9214607 0.1834532 0.9232739 0.1895239 0.8887831 0.1914368 0.891758 0.19325 0.8862988 0.1587592 0.8802283 0.1617342 0.8783152 0.156275 0.8765022 0.1587592 0.9195478 0.1617342 0.9214608 0.1617342 0.9195477 0.456941 0.4034867 0.456941 0.3549148 0.5055129 0.3549148 0.5196373 0.7315834 0.5311124 0.839576 0.5196373 0.839576 0.2588605 0.9414921 0.1972656 0.951602 0.2537316 0.951602 0.1972656 0.951602 0.1356707 0.9414921 0.1407996 0.951602 0.1972656 0.951602 0.2588605 0.9414921 0.2537316 0.951602 0.1356707 0.9414921 0.1972656 0.951602 0.1407996 0.951602 0.1972656 0.951602 0.1356707 0.9414921 0.1407996 0.951602 0.1972656 0.951602 0.2588605 0.9414921 0.2537316 0.951602 0.2588605 0.9414921 0.1972656 0.951602 0.2537316 0.951602 0.1356707 0.9414921 0.1972656 0.951602 0.1407996 0.951602 0.5311124 0.7315834 0.5196373 0.839576 0.5311124 0.839576 0.5311124 0.7315834 0.5425876 0.839576 0.5311124 0.839576 0.5425876 0.7315834 0.5311124 0.839576 0.5425876 0.839576 0.5196373 0.7315834 0.5311124 0.839576 0.5196373 0.839576 0.5425876 0.7315834 0.5311124 0.839576 0.5425876 0.839576 0.5311124 0.7315834 0.5196373 0.839576 0.5311124 0.839576 0.5311124 0.7315834 0.5425876 0.839576 0.5311124 0.839576 0.5446533 0.8355205 0.5151831 0.7287744 0.5446533 0.7287744 0.5446533 0.8355205 0.5151831 0.7287744 0.5446533 0.7287744 0.1447775 0.9249746 0.1949506 0.8748015 0.1949506 0.9249746 0.5151831 0.8355205 0.5446533 0.7287744 0.5151831 0.7287744 0.5311124 0.839576 0.5196373 0.7315834 0.5196373 0.839576 0.5196373 0.839576 0.5311124 0.7315834 0.5311124 0.839576 0.5425876 0.839576 0.5311124 0.7315834 0.5311124 0.839576 0.5311124 0.839576 0.5425876 0.7315834 0.5425876 0.839576 0.5311124 0.839576 0.5196373 0.7315834 0.5196373 0.839576 0.5311124 0.839576 0.5425876 0.7315834 0.5425876 0.839576 0.5196373 0.839576 0.5311124 0.7315834 0.5311124 0.839576 0.5425876 0.839576 0.5311124 0.7315834 0.5311124 0.839576 0.5425876 0.839576 0.5311124 0.839576 0.5311124 0.839576 0.5425876 0.7315834 0.5311124 0.7315834 0.5425876 0.7315834 0.5425876 0.839576 0.5311124 0.839576 0.5311124 0.839576 0.5311124 0.7315834 0.5425876 0.7315834 0.5425876 0.7315834 0.5311124 0.839576 0.5196373 0.839576 0.5311124 0.839576 0.5311124 0.7315834 0.5196373 0.7315834 0.5196373 0.7315834 0.5196373 0.839576 0.5311124 0.839576 0.5311124 0.839576 0.5196373 0.7315834 0.5311124 0.7315834 0.5196373 0.7315834 0.5311124 0.839576 0.5425876 0.839576 0.5425876 0.839576 0.5311124 0.839576 0.5196373 0.839576 0.5196373 0.839576 0.5311124 0.7315834 0.5425876 0.7315834 0.5311124 0.7315834 0.5196373 0.7315834 0.5311124 0.7315834 0.5311124 0.7315834 0.5196373 0.839576 0.5311124 0.839576 0.5196373 0.839576 0.5196373 0.7315834 0.5311124 0.7315834 0.5311124 0.7315834 0.5425876 0.839576 0.5311124 0.839576 0.5425876 0.839576 0.5425876 0.7315834 0.5311124 0.7315834 0.5311124 0.7315834 0.5251429 0.7287744 0.5151831 0.8355205 0.5151831 0.7287744 0.5346935 0.7287744 0.5446533 0.8355205 0.5446533 0.7287744 0.5151831 0.8355205 0.5446533 0.7287744 0.5151831 0.7287744 0.5346935 0.7287744 0.5446533 0.8355205 0.5446533 0.7287744 0.5151831 0.7287744 0.5251429 0.8355205 0.5251429 0.7287744 0.1809689 0.8802282 0.177994 0.8783152 0.177994 0.8802282 0.5446533 0.7287744 0.5346935 0.8355205 0.5346935 0.7287744 0.1502043 0.8887832 0.1482913 0.891758 0.1502043 0.8917581 0.5151831 0.7287744 0.5251429 0.8355205 0.5251429 0.7287744 0.1895239 0.9109929 0.1914368 0.9080178 0.1895239 0.9080179 0.5446533 0.7287744 0.5346935 0.8355205 0.5346935 0.7287744 0.685478 0.4637051 0.6923469 0.3628649 0.6923469 0.4637051 0.685478 0.4637051 0.6786093 0.3628649 0.6786093 0.4637051 0.6786093 0.4637051 0.685478 0.3628649 0.685478 0.4637051 0.6923469 0.4637051 0.685478 0.3628649 0.685478 0.4637051 0.685478 0.4637051 0.6923469 0.3628649 0.6923469 0.4637051 0.6923469 0.4637051 0.685478 0.3628649 0.685478 0.4637051 0.685478 0.4637051 0.6786093 0.3628649 0.6786093 0.4637051 0.6786093 0.4637051 0.685478 0.3628649 0.685478 0.4637051 0.6655049 0.03875207 0.6190714 0.06049346 0.6190714 0.03875207 0.5726383 0.03875207 0.6190714 0.06049346 0.6190714 0.03875207 0.5726383 0.03875207 0.6190714 0.06049346 0.5858057 0.06049346 0.6655054 0.03875207 0.6190714 0.06049346 0.6523376 0.06049346 0.6655054 0.03875207 0.6190714 0.06049346 0.6190714 0.03875207 0.6655054 0.03875207 0.6190714 0.06049346 0.6523376 0.06049346 0.5726383 0.03875207 0.6190714 0.06049346 0.6190714 0.03875207 0.5726383 0.03875207 0.6190714 0.06049346 0.5858057 0.06049346 0.5586834 0.07498925 0.5932781 0.1023458 0.5932781 0.07498925 0.5586834 0.07498925 0.5932781 0.1023458 0.579847 0.1023458 0.6278731 0.07498925 0.5932781 0.1023458 0.6067096 0.1023458 0.6278731 0.07498925 0.5932781 0.1023458 0.5932781 0.07498925 0.6278731 0.07498925 0.5932781 0.1023458 0.6067096 0.1023458 0.5586834 0.07498925 0.5932781 0.1023458 0.5932781 0.07498925 0.5932781 0.07498925 0.579847 0.1023458 0.5586834 0.07498925 0.5932781 0.07498925 0.6067096 0.1023458 0.5932781 0.1023458 0.6881799 0.4562351 0.6873886 0.4581456 0.6835675 0.4543246 0.5055129 0.3549148 0.456941 0.3549148 0.456941 0.4034867 0.1972656 0.951602 0.2588605 0.9414921 0.2537316 0.951602 0.1972656 0.951602 0.1356707 0.9414921 0.1972656 0.9414921 0.2537316 0.951602 0.1972656 0.9414921 0.1972656 0.951602 0.1972656 0.951602 0.1356707 0.9414921 0.1407996 0.951602 0.1972656 0.951602 0.1356707 0.9414921 0.1972656 0.9414921 0.1972656 0.951602 0.2588605 0.9414921 0.1972656 0.9414921 0.2537316 0.951602 0.1972656 0.9414921 0.2588605 0.9414921 0.1972656 0.951602 0.1356707 0.9414921 0.1407996 0.951602 0.1516456 0.9198563 0.1516456 0.8769922 0.1970902 0.8769922 0.5214843 0.2984368 0.5214843 0.2816414 0.529882 0.2900391 0.5104078 0.8355205 0.5151831 0.8402958 0.5151831 0.8355205 0.5446533 0.8402958 0.5494286 0.8355205 0.5446532 0.8355205 0.5446533 0.8402958 0.5446533 0.8355205 0.5494286 0.8355205 0.5446533 0.8402958 0.5494286 0.8355205 0.5446532 0.8355205 0.5151831 0.8355205 0.5104078 0.8355205 0.5151831 0.8402958 0.5446533 0.8402958 0.5446533 0.8355205 0.5494286 0.8355205 0.5446533 0.8402958 0.5494286 0.8355205 0.5446533 0.8355205 0.5446533 0.8402958 0.5494286 0.8355205 0.5446533 0.8355205 0.5151831 0.8355205 0.5151831 0.8402958 0.5104078 0.8355205 0.5446533 0.8402958 0.5494286 0.8355205 0.5446532 0.8355205 0.5446533 0.8402958 0.5446533 0.8355205 0.5494286 0.8355205 0.5446533 0.8402958 0.5446533 0.8355205 0.5494286 0.8355205 0.5151831 0.8355205 0.5151831 0.8402958 0.5104078 0.8355205 0.5446534 0.8355205 0.5446533 0.8402958 0.5379 0.8402958 0.5446533 0.8355205 0.5446533 0.8402958 0.5379 0.8402958 0.5446533 0.8402958 0.5446533 0.8355205 0.5379 0.8402958 0.5346935 0.8402958 0.5299182 0.8355205 0.5346935 0.8355205 0.8713656 0.4415006 0.9026444 0.4136448 0.8713656 0.4136444 0.5251429 0.8402958 0.5299182 0.8355205 0.5251429 0.8355205 0.5299182 0.8402958 0.525143 0.8355205 0.5299182 0.8355205 0.5151831 0.8355205 0.5151831 0.7287744 0.5151831 0.7287744 0.5446533 0.8402958 0.5151831 0.8355205 0.5151831 0.8402958 0.5494286 0.7287744 0.5446532 0.8355205 0.5494286 0.8355205 0.5446533 0.8402958 0.5151831 0.8355205 0.5151831 0.8402958 0.5446533 0.7287744 0.5446532 0.8355205 0.5446533 0.8355205 0.5151831 0.8402958 0.5446533 0.8355205 0.5446533 0.8402958 0.5446533 0.7287744 0.5494286 0.8355205 0.5446533 0.8355205 0.5151831 0.8402958 0.5446533 0.8355205 0.5446533 0.8402958 0.5151831 0.8355205 0.5151831 0.7287744 0.5151831 0.7287744 0.5446533 0.8355205 0.5151831 0.8402958 0.5151831 0.8355205 0.5446533 0.7287744 0.5494286 0.8355205 0.5446533 0.8355205 0.5446533 0.8355205 0.5151831 0.8402958 0.5151831 0.8355205 0.5446533 0.7287744 0.5446533 0.8355205 0.5446533 0.8355205 0.5151831 0.8355205 0.5446533 0.8402958 0.5446533 0.8355205 0.5494286 0.7287744 0.5446533 0.8355205 0.5494286 0.8355205 0.5151831 0.8355205 0.5446533 0.8402958 0.5446533 0.8355205 0.5151831 0.8355205 0.5151831 0.7287744 0.5151831 0.7287744 0.5346935 0.8355205 0.5379 0.8402958 0.5346935 0.8402958 0.5446533 0.7287744 0.5494286 0.8355205 0.5446534 0.8355205 0.5346935 0.8355205 0.5379 0.8402958 0.5346935 0.8402958 0.5446533 0.7287744 0.5446533 0.8355205 0.5446533 0.8355205 0.5251429 0.8355205 0.5219364 0.8402958 0.5251429 0.8402958 0.5494286 0.7287744 0.5446533 0.8355205 0.5494286 0.8355205 0.5251429 0.8355205 0.5219364 0.8402958 0.5251429 0.8402958 0.5151831 0.8355205 0.5151831 0.7287744 0.5151831 0.7287744 0.8133649 0.4168632 0.8592066 0.3964489 0.8592066 0.4168632 0.5494286 0.7287744 0.5446532 0.8355205 0.5494286 0.8355205 0.5446533 0.8402958 0.5151831 0.8355205 0.5151831 0.8402958 0.5446533 0.7287744 0.5446532 0.8355205 0.5446533 0.8355205 0.5151831 0.8402958 0.5446533 0.8355205 0.5446533 0.8402958 0.5446533 0.7287744 0.5494286 0.8355205 0.5446533 0.8355205 0.5151831 0.8402958 0.5446533 0.8355205 0.5446533 0.8402958 0.1587592 0.9195478 0.1464782 0.9134771 0.156275 0.9232738 0.156275 0.8765022 0.1502043 0.8887832 0.1587592 0.8802283 0.19325 0.9134771 0.1809689 0.9195478 0.1834532 0.9232739 0.1834532 0.8765022 0.1895239 0.8887831 0.19325 0.8862988 0.5251429 0.8355205 0.5219363 0.8402958 0.5151831 0.8355205 0.1482913 0.891758 0.1502043 0.908018 0.1502043 0.8917581 0.5346935 0.8355205 0.5251429 0.7287744 0.5346935 0.7287744 0.5346935 0.8355205 0.5379 0.8402958 0.5446533 0.8355205 0.1914368 0.9080178 0.1895239 0.891758 0.1895239 0.9080179 0.5251429 0.8355205 0.5346935 0.7287744 0.5251429 0.7287744 0.5346935 0.8355205 0.5379 0.8402958 0.5446533 0.8355205 0.177994 0.8783152 0.1617342 0.8802282 0.177994 0.8802282 0.5251429 0.8355205 0.5346935 0.7287744 0.5251429 0.7287744 0.525143 0.8355205 0.5219364 0.8402958 0.5151831 0.8355205 0.1617342 0.9214608 0.177994 0.9195478 0.1617342 0.9195477 0.5346935 0.8355205 0.5251429 0.7287744 0.5346935 0.7287744 0.5151831 0.8355205 0.5446533 0.7287744 0.5151831 0.7287744 0.5055129 0.3549148 0.5155725 0.3792008 0.5055129 0.4034867 0.5055129 0.4034867 0.4812269 0.4135464 0.456941 0.4034867 0.456941 0.4034867 0.4468814 0.3792008 0.456941 0.3549148 0.456941 0.3549148 0.4812269 0.3448552 0.5055129 0.3549148 0.5055129 0.3549148 0.5055129 0.4034867 0.456941 0.4034867 0.5196373 0.7315834 0.5311124 0.7315834 0.5311124 0.839576 0.2588605 0.9414921 0.1972656 0.9414921 0.1972656 0.951602 0.1972656 0.951602 0.1972656 0.9414921 0.1356707 0.9414921 0.1972656 0.951602 0.1972656 0.9414921 0.2588605 0.9414921 0.1356707 0.9414921 0.1972656 0.9414921 0.1972656 0.951602 0.1972656 0.951602 0.1972656 0.9414921 0.1356707 0.9414921 0.1972656 0.951602 0.1972656 0.9414921 0.2588605 0.9414921 0.2588605 0.9414921 0.1972656 0.9414921 0.1972656 0.951602 0.1356707 0.9414921 0.1972656 0.9414921 0.1972656 0.951602 0.5311124 0.7315834 0.5196373 0.7315834 0.5196373 0.839576 0.5311124 0.7315834 0.5425876 0.7315834 0.5425876 0.839576 0.5425876 0.7315834 0.5311124 0.7315834 0.5311124 0.839576 0.5196373 0.7315834 0.5311124 0.7315834 0.5311124 0.839576 0.5425876 0.7315834 0.5311124 0.7315834 0.5311124 0.839576 0.5311124 0.7315834 0.5196373 0.7315834 0.5196373 0.839576 0.5311124 0.7315834 0.5425876 0.7315834 0.5425876 0.839576 0.5446533 0.8355205 0.5151831 0.8355205 0.5151831 0.7287744 0.5446533 0.8355205 0.5151831 0.8355205 0.5151831 0.7287744 0.5446533 0.7287744 0.5446533 0.8355205 0.5151831 0.8355205 0.1447775 0.9249746 0.1447775 0.8748014 0.1949506 0.8748015 0.5151831 0.8355205 0.5446532 0.8355205 0.5446533 0.7287744 0.5055129 0.4034867 0.5155725 0.3792008 0.5055129 0.3549148 0.5055129 0.3549148 0.4812269 0.3448552 0.456941 0.3549148 0.456941 0.3549148 0.4468814 0.3792008 0.456941 0.4034867 0.456941 0.4034867 0.4812269 0.4135464 0.5055129 0.4034867 0.5055129 0.4034867 0.5055129 0.3549148 0.456941 0.3549148 0.5311124 0.839576 0.5311124 0.7315834 0.5196373 0.7315834 0.1972656 0.951602 0.1972656 0.9414921 0.2588605 0.9414921 0.1972656 0.951602 0.1407996 0.951602 0.1356707 0.9414921 0.1972656 0.951602 0.2537316 0.951602 0.2588605 0.9414921 0.1972656 0.951602 0.1972656 0.9414921 0.1356707 0.9414921 0.1972656 0.951602 0.1407996 0.951602 0.1356707 0.9414921 0.1972656 0.951602 0.2537316 0.951602 0.2588605 0.9414921 0.1972656 0.951602 0.1972656 0.9414921 0.2588605 0.9414921 0.1972656 0.951602 0.1972656 0.9414921 0.1356707 0.9414921 0.5196373 0.839576 0.5196373 0.7315834 0.5311124 0.7315834 0.5425876 0.839576 0.5425876 0.7315834 0.5311124 0.7315834 0.5311124 0.839576 0.5311124 0.7315834 0.5425876 0.7315834 0.5311124 0.839576 0.5311124 0.7315834 0.5196373 0.7315834 0.5311124 0.839576 0.5311124 0.7315834 0.5425876 0.7315834 0.5196373 0.839576 0.5196373 0.7315834 0.5311124 0.7315834 0.5425876 0.839576 0.5425876 0.7315834 0.5311124 0.7315834 0.5151831 0.7287744 0.5151831 0.8355205 0.5446533 0.8355205 0.5151831 0.7287744 0.5151831 0.8355205 0.5446533 0.8355205 0.5251429 0.7287744 0.5251429 0.8355205 0.5151831 0.8355205 0.1949506 0.8748014 0.1447775 0.8748014 0.1447775 0.9249747 0.5446533 0.7287744 0.5446533 0.8355205 0.5151831 0.8355205 0.5196373 0.7315834 0.5311124 0.7315834 0.5311124 0.839576 0.5311124 0.7315834 0.5196373 0.7315834 0.5196373 0.839576 0.5311124 0.7315834 0.5425876 0.7315834 0.5425876 0.839576 0.5425876 0.7315834 0.5311124 0.7315834 0.5311124 0.839576 0.5196373 0.7315834 0.5311124 0.7315834 0.5311124 0.839576 0.5425876 0.7315834 0.5311124 0.7315834 0.5311124 0.839576 0.5311124 0.7315834 0.5196373 0.7315834 0.5196373 0.839576 0.5311124 0.7315834 0.5425876 0.7315834 0.5425876 0.839576 0.1502043 0.9109929 0.1502043 0.908018 0.1482913 0.908018 0.1809689 0.9195478 0.177994 0.9195478 0.177994 0.9214607 0.1895239 0.8887831 0.1895239 0.891758 0.1914368 0.891758 0.1587592 0.8802283 0.1617342 0.8802282 0.1617342 0.8783152 0.1587592 0.9195478 0.156275 0.9232738 0.1617342 0.9214608 0.5055129 0.3549148 0.5155725 0.3792008 0.5055129 0.4034867 0.5055129 0.4034867 0.4812269 0.4135464 0.456941 0.4034867 0.456941 0.4034867 0.4468814 0.3792008 0.456941 0.3549148 0.456941 0.3549148 0.4812269 0.3448552 0.5055129 0.3549148 0.5055129 0.3549148 0.5055129 0.4034867 0.456941 0.4034867 0.5196373 0.7315834 0.5311124 0.7315834 0.5311124 0.839576 0.2588605 0.9414921 0.1972656 0.9414921 0.1972656 0.951602 0.1972656 0.951602 0.1972656 0.9414921 0.1356707 0.9414921 0.1972656 0.951602 0.1972656 0.9414921 0.2588605 0.9414921 0.1356707 0.9414921 0.1972656 0.9414921 0.1972656 0.951602 0.1972656 0.951602 0.1972656 0.9414921 0.1356707 0.9414921 0.1972656 0.951602 0.1972656 0.9414921 0.2588605 0.9414921 0.2588605 0.9414921 0.1972656 0.9414921 0.1972656 0.951602 0.1356707 0.9414921 0.1972656 0.9414921 0.1972656 0.951602 0.5311124 0.7315834 0.5196373 0.7315834 0.5196373 0.839576 0.5311124 0.7315834 0.5425876 0.7315834 0.5425876 0.839576 0.5425876 0.7315834 0.5311124 0.7315834 0.5311124 0.839576 0.5196373 0.7315834 0.5311124 0.7315834 0.5311124 0.839576 0.5425876 0.7315834 0.5311124 0.7315834 0.5311124 0.839576 0.5311124 0.7315834 0.5196373 0.7315834 0.5196373 0.839576 0.5311124 0.7315834 0.5425876 0.7315834 0.5425876 0.839576 0.5446533 0.8355205 0.5151831 0.8355205 0.5151831 0.7287744 0.5446533 0.8355205 0.5151831 0.8355205 0.5151831 0.7287744 0.1447775 0.9249746 0.1447775 0.8748014 0.1949506 0.8748015 0.5151831 0.8355205 0.5446532 0.8355205 0.5446533 0.7287744 0.5311124 0.839576 0.5311124 0.7315834 0.5196373 0.7315834 0.5196373 0.839576 0.5196373 0.7315834 0.5311124 0.7315834 0.5425876 0.839576 0.5425876 0.7315834 0.5311124 0.7315834 0.5311124 0.839576 0.5311124 0.7315834 0.5425876 0.7315834 0.5311124 0.839576 0.5311124 0.7315834 0.5196373 0.7315834 0.5311124 0.839576 0.5311124 0.7315834 0.5425876 0.7315834 0.5196373 0.839576 0.5196373 0.7315834 0.5311124 0.7315834 0.5425876 0.839576 0.5425876 0.7315834 0.5311124 0.7315834 0.5425876 0.839576 0.5425876 0.839576 0.5311124 0.839576 0.5425876 0.7315834 0.5311124 0.7315834 0.5311124 0.7315834 0.5425876 0.839576 0.5425876 0.839576 0.5311124 0.839576 0.5311124 0.7315834 0.5311124 0.7315834 0.5425876 0.7315834 0.5311124 0.839576 0.5196373 0.839576 0.5196373 0.839576 0.5311124 0.7315834 0.5311124 0.7315834 0.5196373 0.7315834 0.5196373 0.839576 0.5196373 0.839576 0.5311124 0.839576 0.5196373 0.7315834 0.5311124 0.7315834 0.5311124 0.7315834 0.5311124 0.839576 0.5311124 0.839576 0.5425876 0.839576 0.5311124 0.839576 0.5311124 0.839576 0.5196373 0.839576 0.5311124 0.7315834 0.5425876 0.7315834 0.5425876 0.7315834 0.5196373 0.7315834 0.5196373 0.7315834 0.5311124 0.7315834 0.5196373 0.839576 0.5311124 0.839576 0.5311124 0.839576 0.5196373 0.7315834 0.5196373 0.7315834 0.5311124 0.7315834 0.5425876 0.839576 0.5311124 0.839576 0.5311124 0.839576 0.5425876 0.7315834 0.5425876 0.7315834 0.5311124 0.7315834 0.5251429 0.7287744 0.525143 0.8355205 0.5151831 0.8355205 0.5346935 0.7287744 0.5346935 0.8355205 0.5446533 0.8355205 0.5151831 0.8355205 0.5446532 0.8355205 0.5446533 0.7287744 0.5346935 0.7287744 0.5346935 0.8355205 0.5446533 0.8355205 0.5151831 0.7287744 0.5151832 0.8355205 0.5251429 0.8355205 0.1809689 0.8802282 0.1834532 0.8765022 0.177994 0.8783152 0.5446533 0.7287744 0.5446533 0.8355205 0.5346935 0.8355205 0.1502043 0.8887832 0.1464782 0.8862989 0.1482913 0.891758 0.5151831 0.7287744 0.5151831 0.8355205 0.5251429 0.8355205 0.1895239 0.9109929 0.19325 0.9134771 0.1914368 0.9080178 0.5446533 0.7287744 0.5446534 0.8355205 0.5346935 0.8355205 0.685478 0.4637051 0.685478 0.3628649 0.6923469 0.3628649 0.685478 0.4637051 0.685478 0.3628649 0.6786093 0.3628649 0.6786093 0.4637051 0.6786093 0.3628649 0.685478 0.3628649 0.6923469 0.4637051 0.6923469 0.3628649 0.685478 0.3628649 0.685478 0.4637051 0.685478 0.3628649 0.6923469 0.3628649 0.6923469 0.4637051 0.6923469 0.3628649 0.685478 0.3628649 0.685478 0.4637051 0.685478 0.3628649 0.6786093 0.3628649 0.6786093 0.4637051 0.6786093 0.3628649 0.685478 0.3628649 0.6655049 0.03875207 0.6523376 0.06049346 0.6190714 0.06049346 0.5726383 0.03875207 0.5858057 0.06049346 0.6190714 0.06049346 0.5726383 0.03875207 0.6190714 0.03875207 0.6190714 0.06049346 0.6655054 0.03875207 0.6190714 0.03875207 0.6190714 0.06049346 0.6655054 0.03875207 0.6523376 0.06049346 0.6190714 0.06049346 0.6655054 0.03875207 0.6190714 0.03875207 0.6190714 0.06049346 0.5726383 0.03875207 0.5858057 0.06049346 0.6190714 0.06049346 0.5726383 0.03875207 0.6190714 0.03875207 0.6190714 0.06049346 0.5586834 0.07498925 0.579847 0.1023458 0.5932781 0.1023458 0.5586834 0.07498925 0.5932781 0.07498925 0.5932781 0.1023458 0.6278731 0.07498925 0.5932781 0.07498925 0.5932781 0.1023458 0.6278731 0.07498925 0.6067096 0.1023458 0.5932781 0.1023458 0.6278731 0.07498925 0.5932781 0.07498925 0.5932781 0.1023458 0.5586834 0.07498925 0.579847 0.1023458 0.5932781 0.1023458 0.5932781 0.07498925 0.5932781 0.1023458 0.579847 0.1023458 0.5932781 0.07498925 0.6278731 0.07498925 0.6067096 0.1023458 0.6873886 0.4581456 0.685478 0.4589369 0.6835675 0.4581456 0.6835675 0.4581456 0.6827762 0.4562351 0.6873886 0.4581456 0.6827762 0.4562351 0.6835675 0.4543246 0.6873886 0.4581456 0.6835675 0.4543246 0.685478 0.4535332 0.6873886 0.4543246 0.6873886 0.4543246 0.6881799 0.4562351 0.6835675 0.4543246 0.5055129 0.4034867 0.5155725 0.3792008 0.5055129 0.3549148 0.5055129 0.3549148 0.4812269 0.3448552 0.456941 0.3549148 0.456941 0.3549148 0.4468814 0.3792008 0.456941 0.4034867 0.456941 0.4034867 0.4812269 0.4135464 0.5055129 0.4034867 0.5055129 0.4034867 0.5055129 0.3549148 0.456941 0.4034867 0.1972656 0.951602 0.1972656 0.9414921 0.2588605 0.9414921 0.1972656 0.951602 0.1407996 0.951602 0.1356707 0.9414921 0.2537316 0.951602 0.2588605 0.9414921 0.1972656 0.9414921 0.1972656 0.951602 0.1972656 0.9414921 0.1356707 0.9414921 0.1972656 0.951602 0.1407996 0.951602 0.1356707 0.9414921 0.1972656 0.951602 0.2537316 0.951602 0.2588605 0.9414921 0.2537316 0.951602 0.1972656 0.951602 0.1972656 0.9414921 0.1972656 0.951602 0.1972656 0.9414921 0.1356707 0.9414921 0.1970902 0.8769922 0.206502 0.8984242 0.1970902 0.9198563 0.1970902 0.9198563 0.1743679 0.9287337 0.1516456 0.9198563 0.1516456 0.9198563 0.1422337 0.8984242 0.1516456 0.8769922 0.1516456 0.8769922 0.1743679 0.8681147 0.1970902 0.8769922 0.1970902 0.8769922 0.1970902 0.9198563 0.1516456 0.9198563 0.5152359 0.2962875 0.5130866 0.2900391 0.5214843 0.2984368 0.5130866 0.2900391 0.5152359 0.2837906 0.5214843 0.2816414 0.5214843 0.2816414 0.5277328 0.2837906 0.529882 0.2900391 0.529882 0.2900391 0.5277328 0.2962875 0.5214843 0.2984368 0.5130866 0.2900391 0.5214843 0.2816414 0.5214843 0.2984368 0.5151831 0.8355205 0.5219363 0.8402958 0.5151831 0.8402958 0.5446534 0.8355205 0.5494286 0.8355205 0.5446533 0.8402958 0.5446533 0.8355205 0.5494286 0.8355205 0.5446533 0.8402958 0.5446533 0.8402958 0.5494286 0.8355205 0.5446533 0.8355205 0.5346935 0.8402958 0.5299182 0.8402958 0.5299182 0.8355205 0.8713656 0.4415006 0.9026444 0.4415006 0.9026444 0.4136448 0.5251429 0.8402958 0.5299182 0.8402958 0.5299182 0.8355205 0.5299182 0.8402958 0.5251429 0.8402958 0.525143 0.8355205 0.5151831 0.8355205 0.5151831 0.8355205 0.5151831 0.7287744 0.5446533 0.8402958 0.5446532 0.8355205 0.5151831 0.8355205 0.5494286 0.7287744 0.5446533 0.7287744 0.5446532 0.8355205 0.5446533 0.8402958 0.5446532 0.8355205 0.5151831 0.8355205 0.5446533 0.7287744 0.5446533 0.7287744 0.5446532 0.8355205 0.5151831 0.8402958 0.5151831 0.8355205 0.5446533 0.8355205 0.5446533 0.7287744 0.5494286 0.7287744 0.5494286 0.8355205 0.5151831 0.8402958 0.5151831 0.8355205 0.5446533 0.8355205 0.5151831 0.8355205 0.5151831 0.8355205 0.5151831 0.7287744 0.5446533 0.8355205 0.5446533 0.8402958 0.5151831 0.8402958 0.5446533 0.7287744 0.5494286 0.7287744 0.5494286 0.8355205 0.5446533 0.8355205 0.5446533 0.8402958 0.5151831 0.8402958 0.5446533 0.7287744 0.5446533 0.7287744 0.5446533 0.8355205 0.5151831 0.8355205 0.5151831 0.8402958 0.5446533 0.8402958 0.5494286 0.7287744 0.5446533 0.7287744 0.5446533 0.8355205 0.5151831 0.8355205 0.5151831 0.8402958 0.5446533 0.8402958 0.5151831 0.8355205 0.5151832 0.8355205 0.5151831 0.7287744 0.5346935 0.8355205 0.5446534 0.8355205 0.5379 0.8402958 0.5446533 0.7287744 0.5494286 0.7287744 0.5494286 0.8355205 0.5346935 0.8355205 0.5446533 0.8355205 0.5379 0.8402958 0.5446533 0.7287744 0.5446533 0.7287744 0.5446533 0.8355205 0.5251429 0.8355205 0.5151831 0.8355205 0.5219364 0.8402958 0.5494286 0.7287744 0.5446533 0.7287744 0.5446533 0.8355205 0.5251429 0.8355205 0.5151832 0.8355205 0.5219364 0.8402958 0.5151831 0.8355205 0.5151831 0.8355205 0.5151831 0.7287744 0.8133649 0.4168632 0.813365 0.3964489 0.8592066 0.3964489 0.5494286 0.7287744 0.5446533 0.7287744 0.5446532 0.8355205 0.5446533 0.8402958 0.5446532 0.8355205 0.5151831 0.8355205 0.5446533 0.7287744 0.5446533 0.7287744 0.5446532 0.8355205 0.5151831 0.8402958 0.5151831 0.8355205 0.5446533 0.8355205 0.5446533 0.7287744 0.5494286 0.7287744 0.5494286 0.8355205 0.5151831 0.8402958 0.5151831 0.8355205 0.5446533 0.8355205 0.1587592 0.9195478 0.1502043 0.9109929 0.1464782 0.9134771 0.156275 0.8765022 0.1464782 0.8862989 0.1502043 0.8887832 0.19325 0.9134771 0.1895239 0.9109929 0.1809689 0.9195478 0.1834532 0.8765022 0.1809689 0.8802282 0.1895239 0.8887831 0.5251429 0.8355205 0.5251429 0.8402958 0.5219363 0.8402958 0.1482913 0.891758 0.1482913 0.908018 0.1502043 0.908018 0.5346935 0.8355205 0.5251429 0.8355205 0.5251429 0.7287744 0.5346935 0.8355205 0.5346935 0.8402958 0.5379 0.8402958 0.1914368 0.9080178 0.1914368 0.891758 0.1895239 0.891758 0.5251429 0.8355205 0.5346935 0.8355205 0.5346935 0.7287744 0.5346935 0.8355205 0.5346935 0.8402958 0.5379 0.8402958 0.177994 0.8783152 0.1617342 0.8783152 0.1617342 0.8802282 0.5251429 0.8355205 0.5346935 0.8355205 0.5346935 0.7287744 0.525143 0.8355205 0.5251429 0.8402958 0.5219364 0.8402958 0.1617342 0.9214608 0.177994 0.9214607 0.177994 0.9195478 0.5346935 0.8355205 0.525143 0.8355205 0.5251429 0.7287744 0.5151831 0.8355205 0.5446532 0.8355205 0.5446533 0.7287744</float_array>
          <technique_common>
            <accessor source="#Cylinder_003-mesh-map-0-array" count="1356" stride="2">
              <param name="S" type="float"/>
              <param name="T" type="float"/>
            </accessor>
          </technique_common>
        </source>
        <source id="Cylinder_003-mesh-map-1">
          <float_array id="Cylinder_003-mesh-map-1-array" count="2712">0 0 0 0 0 0 0 0 0 0 0 0 0 0 0 0 0 0 0 0 0 0 0 0 0 0 0 0 0 0 0 0 0 0 0 0 0 0 0 0 0 0 0 0 0 0 0 0 0 0 0 0 0 0 0 0 0 0 0 0 0 0 0 0 0 0 0 0 0 0 0 0 0 0 0 0 0 0 0 0 0 0 0 0 0 0 0 0 0 0 0 0 0 0 0 0 0 0 0 0 0 0 0 0 0 0 0 0 0 0 0 0 0 0 0 0 0 0 0 0 0 0 0 0 0 0 0 0 0 0 0 0 0 0 0 0 0 0 0 0 0 0 0 0 0 0 0 0 0 0 0 0 0 0 0 0 0 0 0 0 0 0 0 0 0 0 0 0 0 0 0 0 0 0 0 0 0 0 0 0 0 0 0 0 0 0 0 0 0 0 0 0 0 0 0 0 0 0 0 0 0 0 0 0 0 0 0 0 0 0 0 0 0 0 0 0 0 0 0 0 0 0 0 0 0 0 0 0 0 0 0 0 0 0 0 0 0 0 0 0 0 0 0 0 0 0 0 0 0 0 0 0 0 0 0 0 0 0 0 0 0 0 0 0 0 0 0 0 0 0 0 0 0 0 0 0 0 0 0 0 0 0 0 0 0 0 0 0 0 0 0 0 0 0 0 0 0 0 0 0 0 0 0 0 0 0 0 0 0 0 0 0 0 0 0 0 0 0 0 0 0 0 0 0 0 0 0 0 0 0 0 0 0 0 0 0 0 0 0 0 0 0 0 0 0 0 0 0 0 0 0 0 0 0 0 0 0 0 0 0 0 0 0 0 0 0 0 0 0 0 0 0 0 0 0 0 0 0 0 0 0 0 0 0 0 0 0 0 0 0 0 0 0 0 0 0 0 0 0 0 0 0 0 0 0 0 0 0 0 0 0 0 0 0 0 0 0 0 0 0 0 0 0 0 0 0 0 0 0 0 0 0 0 0 0 0 0 0 0 0 0 0 0 0 0 0 0 0 0 0 0 0 0 0 0 0 0 0 0 0 0 0 0 0 0 0 0 0 0 0 0 0 0 0 0 0 0 0 0 0 0 0 0 0 0 0 0 0 0 0 0 0 0 0 0 0 0 0 0 0 0 0 0 0 0 0 0 0 0 0 0 0 0 0 0 0 0 0 0 0 0 0 0 0 0 0 0 0 0 0 0 0 0 0 0 0 0 0 0 0 0 0 0 0 0 0 0 0 0 0 0 0 0 0 0 0 0 0 0 0 0 0 0 0 0 0 0 0 0 0 0 0 0 0 0 0 0 0 0 0 0 0 0 0 0 0 0 0 0 0 0 0 0 0 0 0 0 0 0 0 0 0 0 0 0 0 0 0 0 0 0 0 0 0 0 0 0 0 0 0 0 0 0 0 0 0 0 0 0 0 0 0 0 0 0 0 0 0 0 0 0 0 0 0 0 0 0 0 0 0 0 0 0 0 0 0 0 0 0 0 0 0 0 0 0 0 0 0 0 0 0 0 0 0 0 0 0 0 0 0 0 0 0 0 0 0 0 0 0 0 0 0 0 0 0 0 0 0 0 0 0 0 0 0 0 0 0 0 0 0 0 0 0 0 0 0 0 0 0 0 0 0 0 0 0 0 0 0 0 0 0 0 0 0 0 0 0 0 0 0 0 0 0 0 0 0 0 0 0 0 0 0 0 0 0 0 0 0 0 0 0 0 0 0 0 0 0 0 0 0 0 0 0 0 0 0 0 0 0 0 0 0 0 0 0 0 0 0 0 0 0 0 0 0 0 0 0 0 0 0 0 0 0 0 0 0 0 0 0 0 0 0 0 0 0 0 0 0 0 0 0 0 0 0 0 0 0 0 0 0 0 0 0 0 0 0 0 0 0 0 0 0 0 0 0 0 0 0 0 0 0 0 0 0 0 0 0 0 0 0 0 0 0 0 0 0 0 0 0 0 0 0 0 0 0 0 0 0 0 0 0 0 0 0 0 0 0 0 0 0 0 0 0 0 0 0 0 0 0 0 0 0 0 0 0 0 0 0 0 0 0 0 0 0 0 0 0 0 0 0 0 0 0 0 0 0 0 0 0 0 0 0 0 0 0 0 0 0 0 0 0 0 0 0 0 0 0 0 0 0 0 0 0 0 0 0 0 0 0 0 0 0 0 0 0 0 0 0 0 0 0 0 0 0 0 0 0 0 0 0 0 0 0 0 0 0 0 0 0 0 0 0 0 0 0 0 0 0 0 0 0 0 0 0 0 0 0 0 0 0 0 0 0 0 0 0 0 0 0 0 0 0 0 0 0 0 0 0 0 0 0 0 0 0 0 0 0 0 0 0 0 0 0 0 0 0 0 0 0 0 0 0 0 0 0 0 0 0 0 0 0 0 0 0 0 0 0 0 0 0 0 0 0 0 0 0 0 0 0 0 0 0 0 0 0 0 0 0 0 0 0 0 0 0 0 0 0 0 0 0 0 0 0 0 0 0 0 0 0 0 0 0 0 0 0 0 0 0 0 0 0 0 0 0 0 0 0 0 0 0 0 0 0 0 0 0 0 0 0 0 0 0 0 0 0 0 0 0 0 0 0 0 0 0 0 0 0 0 0 0 0 0 0 0 0 0 0 0 0 0 0 0 0 0 0 0 0 0 0 0 0 0 0 0 0 0 0 0 0 0 0 0 0 0 0 0 0 0 0 0 0 0 0 0 0 0 0 0 0 0 0 0 0 0 0 0 0 0 0 0 0 0 0 0 0 0 0 0 0 0 0 0 0 0 0 0 0 0 0 0 0 0 0 0 0 0 0 0 0 0 0 0 0 0 0 0 0 0 0 0 0 0 0 0 0 0 0 0 0 0 0 0 0 0 0 0 0 0 0 0 0 0 0 0 0 0 0 0 0 0 0 0 0 0 0 0 0 0 0 0 0 0 0 0 0 0 0 0 0 0 0 0 0 0 0 0 0 0 0 0 0 0 0 0 0 0 0 0 0 0 0 0 0 0 0 0 0 0 0 0 0 0 0 0 0 0 0 0 0 0 0 0 0 0 0 0 0 0 0 0 0 0 0 0 0 0 0 0 0 0 0 0 0 0 0 0 0 0 0 0 0 0 0 0 0 0 0 0 0 0 0 0 0 0 0 0 0 0 0 0 0 0 0 0 0 0 0 0 0 0 0 0 0 0 0 0 0 0 0 0 0 0 0 0 0 0 0 0 0 0 0 0 0 0 0 0 0 0 0 0 0 0 0 0 0 0 0 0 0 0 0 0 0 0 0 0 0 0 0 0 0 0 0 0 0 0 0 0 0 0 0 0 0 0 0 0 0 0 0 0 0 0 0 0 0 0 0 0 0 0 0 0 0 0 0 0 0 0 0 0 0 0 0 0 0 0 0 0 0 0 0 0 0 0 0 0 0 0 0 0 0 0 0 0 0 0 0 0 0 0 0 0 0 0 0 0 0 0 0 0 0 0 0 0 0 0 0 0 0 0 0 0 0 0 0 0 0 0 0 0 0 0 0 0 0 0 0 0 0 0 0 0 0 0 0 0 0 0 0 0 0 0 0 0 0 0 0 0 0 0 0 0 0 0 0 0 0 0 0 0 0 0 0 0 0 0 0 0 0 0 0 0 0 0 0 0 0 0 0 0 0 0 0 0 0 0 0 0 0 0 0 0 0 0 0 0 0 0 0 0 0 0 0 0 0 0 0 0 0 0 0 0 0 0 0 0 0 0 0 0 0 0 0 0 0 0 0 0 0 0 0 0 0 0 0 0 0 0 0 0 0 0 0 0 0 0 0 0 0 0 0 0 0 0 0 0 0 0 0 0 0 0 0 0 0 0 0 0 0 0 0 0 0 0 0 0 0 0 0 0 0 0 0 0 0 0 0 0 0 0 0 0 0 0 0 0 0 0 0 0 0 0 0 0 0 0 0 0 0 0 0 0 0 0 0 0 0 0 0 0 0 0 0 0 0 0 0 0 0 0 0 0 0 0 0 0 0 0 0 0 0 0 0 0 0 0 0 0 0 0 0 0 0 0 0 0 0 0 0 0 0 0 0 0 0 0 0 0 0 0 0 0 0 0 0 0 0 0 0 0 0 0 0 0 0 0 0 0 0 0 0 0 0 0 0 0 0 0 0 0 0 0 0 0 0 0 0 0 0 0 0 0 0 0 0 0 0 0 0 0 0 0 0 0 0 0 0 0 0 0 0 0 0 0 0 0 0 0 0 0 0 0 0 0 0 0 0 0 0 0 0 0 0 0 0 0 0 0 0 0 0 0 0 0 0 0 0 0 0 0 0 0 0 0 0 0 0 0 0 0 0 0 0 0 0 0 0 0 0 0 0 0 0 0 0 0 0 0 0 0 0 0 0 0 0 0 0 0 0 0 0 0 0 0 0 0 0 0 0 0 0 0 0 0 0 0 0 0 0 0 0 0 0 0 0 0 0 0 0 0 0 0 0 0 0 0 0 0 0 0 0 0 0 0 0 0 0 0 0 0 0 0 0 0 0 0 0 0 0 0 0 0 0 0 0 0 0 0 0 0 0 0 0 0 0 0 0 0 0 0 0 0 0 0 0 0 0 0 0 0 0 0 0 0 0 0 0 0 0 0 0 0 0 0 0 0 0 0 0 0 0 0 0 0 0 0 0 0 0 0 0 0 0 0 0 0 0 0 0 0 0 0 0 0 0 0 0 0 0 0 0 0 0 0 0 0 0 0 0 0 0 0 0 0 0 0 0 0 0 0 0 0 0 0 0 0 0 0 0 0 0 0 0 0 0 0 0 0 0 0 0 0 0 0 0 0 0 0 0 0 0 0 0 0 0 0 0 0 0 0 0 0 0 0 0 0 0 0 0 0 0 0 0 0 0 0 0 0 0 0 0 0 0 0 0 0 0 0 0 0 0 0 0 0 0 0 0 0 0 0 0 0 0 0 0 0 0 0 0 0 0 0 0 0 0 0 0 0 0 0 0 0 0 0 0 0 0 0 0 0 0 0 0 0 0 0 0 0 0 0 0 0 0 0 0 0 0 0 0 0 0 0 0 0 0 0 0 0 0 0 0 0 0 0 0 0 0 0 0 0 0 0 0 0 0 0 0 0 0 0 0 0 0 0 0 0 0 0 0 0 0 0 0 0 0 0 0 0 0 0 0 0 0 0 0 0 0 0 0 0 0 0 0 0 0 0 0 0 0 0 0 0 0 0 0 0 0 0 0 0 0 0 0 0 0 0 0 0 0 0 0 0 0 0 0 0 0 0 0 0 0 0 0 0 0 0 0 0 0 0 0 0 0 0 0 0 0 0 0 0 0 0 0 0 0 0 0 0 0 0 0 0 0 0 0 0 0 0 0 0 0 0 0 0 0 0 0 0 0 0 0 0 0 0 0 0 0 0 0 0 0 0 0 0 0 0 0 0 0 0 0 0 0 0 0 0 0 0 0 0 0 0 0 0 0 0 0 0 0 0 0 0 0 0 0 0 0 0 0 0 0 0 0 0 0 0 0 0 0 0 0 0 0 0 0 0 0 0 0 0 0 0 0 0 0 0 0 0 0 0 0 0 0 0 0 0 0 0 0 0 0 0 0 0 0 0 0 0 0 0 0 0 0 0 0 0 0 0 0 0 0 0 0 0 0 0 0 0 0 0 0 0 0 0 0 0 0 0 0 0 0 0 0 0 0 0 0 0 0 0 0 0 0 0 0 0 0 0 0 0 0 0 0 0 0 0 0 0 0 0 0 0 0 0 0 0 0 0 0 0 0 0 0 0 0 0 0 0 0 0 0 0 0 0 0 0 0 0 0 0 0 0 0 0 0 0 0 0 0 0 0 0 0 0 0 0 0 0 0 0 0 0 0 0 0 0 0 0 0 0 0 0 0 0 0 0 0 0 0 0 0 0 0 0 0 0 0 0 0 0 0 0 0 0 0 0 0 0 0 0 0 0 0 0 0 0 0 0 0 0 0 0 0 0 0 0 0 0 0 0 0 0 0 0 0 0 0 0 0 0 0 0 0 0 0 0 0 0 0 0 0 0 0 0 0 0 0 0 0 0 0 0 0 0 0 0 0 0 0 0 0 0 0 0 0 0 0 0 0 0 0 0</float_array>
          <technique_common>
            <accessor source="#Cylinder_003-mesh-map-1-array" count="1356" stride="2">
              <param name="S" type="float"/>
              <param name="T" type="float"/>
            </accessor>
          </technique_common>
        </source>
        <vertices id="Cylinder_003-mesh-vertices">
          <input semantic="POSITION" source="#Cylinder_003-mesh-positions"/>
        </vertices>
        <triangles material="Material_008-material" count="452">
          <input semantic="VERTEX" source="#Cylinder_003-mesh-vertices" offset="0"/>
          <input semantic="NORMAL" source="#Cylinder_003-mesh-normals" offset="1"/>
          <input semantic="TEXCOORD" source="#Cylinder_003-mesh-map-0" offset="2" set="0"/>
          <input semantic="TEXCOORD" source="#Cylinder_003-mesh-map-1" offset="2" set="1"/>
          <p>0 0 0 2 0 1 4 0 2 19 1 3 10 2 4 11 3 5 14 4 6 6 5 7 7 6 8 1 7 9 11 8 10 2 9 11 5 10 12 14 11 13 7 12 14 11 13 15 3 14 16 2 15 17 6 16 18 13 17 19 0 18 20 3 19 21 9 20 22 4 21 23 13 22 24 1 23 25 0 24 26 9 25 27 5 26 28 4 27 29 23 28 30 13 29 31 15 30 32 18 31 33 9 32 34 10 33 35 21 34 36 12 35 37 13 36 38 17 37 39 8 38 40 9 39 41 22 40 42 15 41 43 14 42 44 20 43 45 11 43 46 12 43 47 16 44 48 14 45 49 8 45 50 173 46 51 160 46 52 171 46 53 178 47 54 170 47 55 176 47 56 186 47 57 183 47 58 180 47 59 167 0 60 172 0 61 177 0 62 168 48 63 175 48 64 166 48 65 26 0 66 24 0 67 31 0 68 34 49 69 43 32 70 35 33 71 30 50 72 38 51 73 31 52 74 25 53 75 35 54 76 36 55 77 29 56 78 38 57 79 32 58 80 27 59 81 35 60 82 26 61 83 30 62 84 37 63 85 39 64 86 27 65 87 33 66 88 34 67 89 25 68 90 37 69 91 24 70 92 29 71 93 33 72 94 28 73 95 37 74 96 47 75 97 39 76 98 33 1 99 42 77 100 34 3 101 36 78 102 45 79 103 37 80 104 32 81 105 41 82 106 33 83 107 39 84 108 46 85 109 38 86 110 35 87 111 44 87 112 36 87 113 38 88 114 40 89 115 32 88 116 181 46 117 194 46 118 190 46 119 191 90 120 199 90 121 195 90 122 253 90 123 236 90 124 200 90 125 192 0 126 187 0 127 197 0 128 196 48 129 189 48 130 185 48 131 59 32 132 50 49 133 51 33 134 63 75 135 53 74 136 55 76 137 58 77 138 49 1 139 50 3 140 61 79 141 52 78 142 53 80 143 57 82 144 48 81 145 49 83 146 62 85 147 55 84 148 54 86 149 60 87 150 51 87 151 52 87 152 56 89 153 54 88 154 48 88 155 206 0 156 255 0 157 240 0 158 214 91 159 279 0 160 244 92 161 210 93 162 263 0 163 248 94 164 202 95 165 271 0 166 238 96 167 207 0 168 280 0 169 282 0 170 64 0 171 66 0 172 68 0 173 83 97 174 74 98 175 75 99 176 78 100 177 70 101 178 71 102 179 65 103 180 75 104 181 66 105 182 69 106 183 78 107 184 71 108 185 75 109 186 67 110 187 66 111 188 70 112 189 77 113 190 64 114 191 67 115 192 73 116 193 68 117 194 77 118 195 65 119 196 64 120 197 73 121 198 69 122 199 68 123 200 87 124 201 77 125 202 79 126 203 82 127 204 73 128 205 74 129 206 85 130 207 76 131 208 77 132 209 81 133 210 72 134 211 73 135 212 86 136 213 79 137 214 78 138 215 84 139 216 75 139 217 76 139 218 80 140 219 78 141 220 72 141 221 229 48 222 216 48 223 227 48 224 234 90 225 226 90 226 232 90 227 223 0 228 228 0 229 233 0 230 224 46 231 231 46 232 222 46 233 89 142 234 91 143 235 88 144 236 93 145 237 95 146 238 92 147 239 96 148 240 90 149 241 89 150 242 98 151 243 94 152 244 93 151 245 100 153 246 97 154 247 96 153 248 92 155 249 103 156 250 102 157 251 88 158 252 99 159 253 98 160 254 102 161 255 101 162 256 100 163 257 54 164 258 100 165 259 48 166 260 62 167 261 101 168 262 103 169 263 49 170 264 89 0 265 50 0 266 58 171 267 97 172 268 57 173 269 52 174 270 88 175 271 98 176 272 60 177 273 91 178 274 59 179 275 53 180 276 92 181 277 55 182 278 61 183 279 95 184 280 94 168 281 55 182 282 102 185 283 54 164 284 48 166 285 96 186 286 49 170 287 63 187 288 103 169 289 95 184 290 57 173 291 101 168 292 56 168 293 51 188 294 89 0 295 88 175 296 59 179 297 90 189 298 58 171 299 53 180 300 98 176 301 93 190 302 61 183 303 99 168 304 60 177 305 277 46 306 242 46 307 204 46 308 269 48 309 250 48 310 208 48 311 220 47 312 221 47 313 217 47 314 261 47 315 246 47 316 212 47 317 201 48 318 270 48 319 268 48 320 211 0 321 272 191 322 274 192 323 213 46 324 278 46 325 276 46 326 203 193 327 256 0 328 258 0 329 209 47 330 262 47 331 260 47 332 215 0 333 264 0 334 266 0 335 205 90 336 254 90 337 252 90 338 106 194 339 119 195 340 111 196 341 109 197 342 115 198 343 107 199 344 107 200 345 114 201 346 106 202 347 104 203 348 117 204 349 109 205 350 110 206 351 116 207 352 108 208 353 108 209 354 113 210 355 105 211 356 105 212 357 112 213 358 104 214 359 111 215 360 118 216 361 110 217 362 111 196 363 122 218 364 106 194 365 107 199 366 125 219 367 109 197 368 107 200 369 122 220 370 123 221 371 104 203 372 125 222 373 120 223 374 108 208 375 126 224 376 110 206 377 108 209 378 121 225 379 124 226 380 104 214 381 121 227 382 105 212 383 111 215 384 126 228 385 127 229 386 123 230 387 133 231 388 125 219 389 123 221 390 130 232 391 131 233 392 120 223 393 133 234 394 128 235 395 124 236 396 134 237 397 126 224 398 124 226 399 129 238 400 132 239 401 120 240 402 129 241 403 121 227 404 126 228 405 135 242 406 127 229 407 122 218 408 135 243 409 130 244 410 134 0 411 132 0 412 131 0 413 140 245 414 138 246 415 136 247 416 142 248 417 150 249 418 143 250 419 137 251 420 147 252 421 148 253 422 143 254 423 144 255 424 141 256 425 139 257 426 147 258 427 138 259 428 142 260 429 149 261 430 151 262 431 139 263 432 145 264 433 146 265 434 136 266 435 148 267 436 149 268 437 141 269 438 145 270 439 140 271 440 149 272 441 147 273 442 145 274 443 158 275 444 159 276 445 157 277 446 162 278 447 163 278 448 164 278 449 167 279 450 168 279 451 169 279 452 172 280 453 173 280 454 174 280 455 177 281 456 178 281 457 179 281 458 182 282 459 183 282 460 184 282 461 187 283 462 188 283 463 189 283 464 192 284 465 193 284 466 194 284 467 197 285 468 198 285 469 199 285 470 218 286 471 219 286 472 220 286 473 223 287 474 224 287 475 225 287 476 228 288 477 229 288 478 230 288 479 233 289 480 234 289 481 235 289 482 236 290 483 238 291 484 239 292 485 241 293 486 243 294 487 240 295 488 245 296 489 247 297 490 244 298 491 248 299 492 250 300 493 251 301 494 255 302 495 257 303 496 254 303 497 263 304 498 265 305 499 262 304 500 271 306 501 273 307 502 270 308 503 279 309 504 281 310 505 278 311 506 162 312 507 161 313 508 160 314 509 167 303 510 164 315 511 163 315 512 166 316 513 169 317 514 168 318 515 177 319 516 168 320 517 167 321 518 176 322 519 179 323 520 178 323 521 172 305 522 178 324 523 177 324 524 171 325 525 174 326 526 173 327 527 163 328 528 173 329 529 172 329 530 183 330 531 181 331 532 180 332 533 188 333 534 184 334 535 183 335 536 186 336 537 189 337 538 188 337 539 198 320 540 187 338 541 189 319 542 196 339 543 199 340 544 198 340 545 193 341 546 197 341 547 199 342 548 191 343 549 194 344 550 193 345 551 182 346 552 192 347 553 194 347 554 236 348 555 201 349 556 200 350 557 254 303 558 240 351 559 255 302 560 205 345 561 242 352 562 241 352 563 278 311 564 244 353 565 279 309 566 213 354 567 246 355 568 245 355 569 262 304 570 248 356 571 263 304 572 209 357 573 250 358 574 249 336 575 270 308 576 238 359 577 271 306 578 218 360 579 217 361 580 216 362 581 223 334 582 220 363 583 219 363 584 222 364 585 225 365 586 224 366 587 233 367 588 224 368 589 223 369 590 232 370 591 235 371 592 234 371 593 228 341 594 234 372 595 233 372 596 227 373 597 230 374 598 229 375 599 219 376 600 229 377 601 228 377 602 207 0 603 240 0 604 243 0 605 238 96 606 203 193 607 202 95 608 247 378 609 214 91 610 244 92 611 251 379 612 210 93 613 248 94 614 257 303 615 237 380 616 236 381 617 256 0 618 259 0 619 258 0 620 254 90 621 253 90 622 252 90 623 265 305 624 247 382 625 246 383 626 264 0 627 267 0 628 266 0 629 262 47 630 261 47 631 260 47 632 273 307 633 251 384 634 250 385 635 272 191 636 275 386 637 274 192 638 270 48 639 269 48 640 268 48 641 281 310 642 243 367 643 242 367 644 280 0 645 283 0 646 282 0 647 278 46 648 277 46 649 276 46 650 164 90 651 165 90 652 161 90 653 4 0 654 5 0 655 7 0 656 7 0 657 6 0 658 0 0 659 0 0 660 1 0 661 2 0 662 2 0 663 3 0 664 4 0 665 4 0 666 7 0 667 0 0 668 19 1 669 18 387 670 10 2 671 14 4 672 15 388 673 6 5 674 1 7 675 12 389 676 11 8 677 5 10 678 8 390 679 14 11 680 11 13 681 10 391 682 3 14 683 6 16 684 15 392 685 13 17 686 3 19 687 10 393 688 9 20 689 13 22 690 12 394 691 1 23 692 9 25 693 8 395 694 5 26 695 23 28 696 21 85 697 13 29 698 18 31 699 17 396 700 9 32 701 21 34 702 20 397 703 12 35 704 17 37 705 16 398 706 8 38 707 22 40 708 23 40 709 15 41 710 20 43 711 19 43 712 11 43 713 16 44 714 22 399 715 14 45 716 173 46 717 162 46 718 160 46 719 178 47 720 174 47 721 170 47 722 186 47 723 188 47 724 183 47 725 167 0 726 163 0 727 172 0 728 168 48 729 179 48 730 175 48 731 31 0 732 29 0 733 28 0 734 28 0 735 27 0 736 26 0 737 26 0 738 25 0 739 24 0 740 24 0 741 30 0 742 31 0 743 31 0 744 28 0 745 26 0 746 34 49 747 42 400 748 43 32 749 30 50 750 39 392 751 38 51 752 25 53 753 26 401 754 35 54 755 29 56 756 31 402 757 38 57 758 27 59 759 34 393 760 35 60 761 30 62 762 24 403 763 37 63 764 27 65 765 28 404 766 33 66 767 25 68 768 36 405 769 37 69 770 29 71 771 32 406 772 33 72 773 37 74 774 45 40 775 47 75 776 33 1 777 41 407 778 42 77 779 36 78 780 44 408 781 45 79 782 32 81 783 40 409 784 41 82 785 39 84 786 47 85 787 46 85 788 35 87 789 43 87 790 44 87 791 38 88 792 46 410 793 40 89 794 181 46 795 182 46 796 194 46 797 191 90 798 193 90 799 199 90 800 253 90 801 257 90 802 236 90 803 192 0 804 184 0 805 187 0 806 196 48 807 198 48 808 189 48 809 59 32 810 58 400 811 50 49 812 63 75 813 61 40 814 53 74 815 58 77 816 57 407 817 49 1 818 61 79 819 60 408 820 52 78 821 57 82 822 56 409 823 48 81 824 62 85 825 63 85 826 55 84 827 60 87 828 59 87 829 51 87 830 56 89 831 62 410 832 54 88 833 206 0 834 259 0 835 255 0 836 214 91 837 283 0 838 279 0 839 210 93 840 267 0 841 263 0 842 202 95 843 275 386 844 271 0 845 207 0 846 243 0 847 280 0 848 68 0 849 69 0 850 71 0 851 71 0 852 70 0 853 64 0 854 64 0 855 65 0 856 66 0 857 66 0 858 67 0 859 68 0 860 68 0 861 71 0 862 64 0 863 83 97 864 82 411 865 74 98 866 78 100 867 79 412 868 70 101 869 65 103 870 76 413 871 75 104 872 69 106 873 72 414 874 78 107 875 75 109 876 74 415 877 67 110 878 70 112 879 79 416 880 77 113 881 67 115 882 74 417 883 73 116 884 77 118 885 76 418 886 65 119 887 73 121 888 72 419 889 69 122 890 87 124 891 85 420 892 77 125 893 82 127 894 81 421 895 73 128 896 85 130 897 84 422 898 76 131 899 81 133 900 80 423 901 72 134 902 86 136 903 87 136 904 79 137 905 84 139 906 83 139 907 75 139 908 80 140 909 86 424 910 78 141 911 229 48 912 218 48 913 216 48 914 234 90 915 230 90 916 226 90 917 223 0 918 219 0 919 228 0 920 224 46 921 235 46 922 231 46 923 89 142 924 90 143 925 91 143 926 93 145 927 94 425 928 95 146 929 96 148 930 97 149 931 90 149 932 98 151 933 99 426 934 94 152 935 100 153 936 101 427 937 97 154 938 92 155 939 95 428 940 103 156 941 88 158 942 91 429 943 99 159 944 102 161 945 103 430 946 101 162 947 54 164 948 102 185 949 100 165 950 62 167 951 56 168 952 101 168 953 49 170 954 96 186 955 89 0 956 58 171 957 90 189 958 97 172 959 52 174 960 51 188 961 88 175 962 60 177 963 99 168 964 91 178 965 53 180 966 93 190 967 92 181 968 61 183 969 63 187 970 95 184 971 55 182 972 92 181 973 102 185 974 48 166 975 100 165 976 96 186 977 63 187 978 62 167 979 103 169 980 57 173 981 97 172 982 101 168 983 51 188 984 50 0 985 89 0 986 59 179 987 91 178 988 90 189 989 53 180 990 52 174 991 98 176 992 61 183 993 94 168 994 99 168 995 277 46 996 281 46 997 242 46 998 269 48 999 273 48 1000 250 48 1001 220 47 1002 225 47 1003 221 47 1004 261 47 1005 265 47 1006 246 47 1007 201 48 1008 239 48 1009 270 48 1010 211 0 1011 251 379 1012 272 191 1013 213 46 1014 245 46 1015 278 46 1016 203 193 1017 237 431 1018 256 0 1019 209 47 1020 249 47 1021 262 47 1022 215 0 1023 247 378 1024 264 0 1025 205 90 1026 241 90 1027 254 90 1028 106 194 1029 114 195 1030 119 195 1031 109 197 1032 117 432 1033 115 198 1034 107 200 1035 115 201 1036 114 201 1037 104 203 1038 112 160 1039 117 204 1040 110 206 1041 118 153 1042 116 207 1043 108 209 1044 116 433 1045 113 210 1046 105 212 1047 113 127 1048 112 213 1049 111 215 1050 119 216 1051 118 216 1052 111 196 1053 127 434 1054 122 218 1055 107 199 1056 123 230 1057 125 219 1058 107 200 1059 106 202 1060 122 220 1061 104 203 1062 109 205 1063 125 222 1064 108 208 1065 124 236 1066 126 224 1067 108 209 1068 105 211 1069 121 225 1070 104 214 1071 120 240 1072 121 227 1073 111 215 1074 110 217 1075 126 228 1076 123 230 1077 131 435 1078 133 231 1079 123 221 1080 122 220 1081 130 232 1082 120 223 1083 125 222 1084 133 234 1085 124 236 1086 132 436 1087 134 237 1088 124 226 1089 121 225 1090 129 238 1091 120 240 1092 128 437 1093 129 241 1094 126 228 1095 134 438 1096 135 242 1097 122 218 1098 127 434 1099 135 243 1100 132 0 1101 129 0 1102 128 0 1103 128 0 1104 133 0 1105 132 0 1106 133 0 1107 131 0 1108 132 0 1109 131 0 1110 130 0 1111 135 0 1112 135 0 1113 134 0 1114 131 0 1115 143 439 1116 141 440 1117 140 245 1118 140 245 1119 139 441 1120 138 246 1121 138 246 1122 137 442 1123 136 247 1124 136 247 1125 142 443 1126 143 439 1127 143 439 1128 140 245 1129 136 247 1130 142 248 1131 151 444 1132 150 249 1133 137 251 1134 138 445 1135 147 252 1136 143 254 1137 150 446 1138 144 255 1139 139 257 1140 146 447 1141 147 258 1142 142 260 1143 136 448 1144 149 261 1145 139 263 1146 140 449 1147 145 264 1148 136 266 1149 137 450 1150 148 267 1151 141 269 1152 144 451 1153 145 270 1154 145 274 1155 144 452 1156 150 453 1157 150 453 1158 151 454 1159 149 272 1160 149 272 1161 148 455 1162 147 273 1163 147 273 1164 146 456 1165 145 274 1166 145 274 1167 150 453 1168 149 272 1169 152 0 1170 156 457 1171 158 275 1172 156 457 1173 153 458 1174 159 276 1175 159 276 1176 155 459 1177 157 277 1178 157 277 1179 154 460 1180 158 275 1181 156 457 1182 159 276 1183 158 275 1184 236 290 1185 237 461 1186 238 291 1187 241 293 1188 242 462 1189 243 294 1190 245 296 1191 246 463 1192 247 297 1193 248 299 1194 249 464 1195 250 300 1196 255 302 1197 256 465 1198 257 303 1199 263 304 1200 264 466 1201 265 305 1202 271 306 1203 272 467 1204 273 307 1205 279 309 1206 280 468 1207 281 310 1208 162 312 1209 164 469 1210 161 313 1211 167 303 1212 169 303 1213 164 315 1214 166 316 1215 165 470 1216 169 317 1217 177 319 1218 179 471 1219 168 320 1220 176 322 1221 175 472 1222 179 323 1223 172 305 1224 174 305 1225 178 324 1226 171 325 1227 170 325 1228 174 326 1229 163 328 1230 162 473 1231 173 329 1232 183 330 1233 182 474 1234 181 331 1235 188 333 1236 187 475 1237 184 334 1238 186 336 1239 185 358 1240 189 337 1241 198 320 1242 197 476 1243 187 338 1244 196 339 1245 195 477 1246 199 340 1247 193 341 1248 192 478 1249 197 341 1250 191 343 1251 190 479 1252 194 344 1253 182 346 1254 184 480 1255 192 347 1256 236 348 1257 239 481 1258 201 349 1259 254 303 1260 241 482 1261 240 351 1262 205 345 1263 204 344 1264 242 352 1265 278 311 1266 245 483 1267 244 353 1268 213 354 1269 212 484 1270 246 355 1271 262 304 1272 249 485 1273 248 356 1274 209 357 1275 208 486 1276 250 358 1277 270 308 1278 239 487 1279 238 359 1280 218 360 1281 220 488 1282 217 361 1283 223 334 1284 225 334 1285 220 363 1286 222 364 1287 221 489 1288 225 365 1289 233 367 1290 235 490 1291 224 368 1292 232 370 1293 231 491 1294 235 371 1295 228 341 1296 230 341 1297 234 372 1298 227 373 1299 226 373 1300 230 374 1301 219 376 1302 218 492 1303 229 377 1304 207 0 1305 206 0 1306 240 0 1307 238 96 1308 237 431 1309 203 193 1310 247 378 1311 215 0 1312 214 91 1313 251 379 1314 211 0 1315 210 93 1316 257 303 1317 256 465 1318 237 380 1319 256 0 1320 255 0 1321 259 0 1322 254 90 1323 257 90 1324 253 90 1325 265 305 1326 264 466 1327 247 382 1328 264 0 1329 263 0 1330 267 0 1331 262 47 1332 265 47 1333 261 47 1334 273 307 1335 272 467 1336 251 384 1337 272 191 1338 271 0 1339 275 386 1340 270 48 1341 273 48 1342 269 48 1343 281 310 1344 280 468 1345 243 367 1346 280 0 1347 279 0 1348 283 0 1349 278 46 1350 281 46 1351 277 46 1352 164 90 1353 169 90 1354 165 90 1355</p>
        </triangles>
      </mesh>
    </geometry>
  </library_geometries>
  <library_visual_scenes>
    <visual_scene id="Scene" name="Scene">
      <node id="silos" name="silos" type="NODE">
        <matrix sid="transform">1 0 0 0 0 1 0 0 0 0 1 0 0 0 0 1</matrix>
        <instance_geometry url="#Cylinder_003-mesh" name="silos">
          <bind_material>
            <technique_common>
              <instance_material symbol="Material_008-material" target="#Material_008-material">
                <bind_vertex_input semantic="Cylinder_001-mesh-map-0" input_semantic="TEXCOORD" input_set="0"/>
                <bind_vertex_input semantic="Cylinder_001-mesh-map-1" input_semantic="TEXCOORD" input_set="1"/>
              </instance_material>
            </technique_common>
          </bind_material>
        </instance_geometry>
        <node id="prop_projectile" name="prop_projectile" type="NODE">
          <matrix sid="transform">1 0 0 -9.82911 0 1 0 -9.946179 0 0 1 6.281468 0 0 0 1</matrix>
        </node>
      </node>
    </visual_scene>
  </library_visual_scenes>
  <scene>
    <instance_visual_scene url="#Scene"/>
  </scene>
</COLLADA>