<?xml version="1.0" encoding="utf-8"?>
<COLLADA xmlns="http://www.collada.org/2005/11/COLLADASchema" version="1.4.1" xmlns:xsi="http://www.w3.org/2001/XMLSchema-instance">
  <asset>
    <contributor>
      <author>Blender User</author>
      <authoring_tool>Blender 4.3.1 commit date:2024-12-10, commit time:07:46, hash:33d812126174</authoring_tool>
    </contributor>
    <created>2026-08-29T18:49:28</created>
    <modified>2026-08-29T18:49:28</modified>
    <unit name="meter" meter="1"/>
    <up_axis>Z_UP</up_axis>
  </asset>
  <library_effects>
    <effect id="Material_006-effect">
      <profile_COMMON>
        <newparam sid="mars_generic_png_001-surface">
          <surface type="2D">
            <init_from>mars_generic_png_001</init_from>
          </surface>
        </newparam>
        <newparam sid="mars_generic_png_001-sampler">
          <sampler2D>
            <source>mars_generic_png_001-surface</source>
          </sampler2D>
        </newparam>
        <technique sid="common">
          <lambert>
            <emission>
              <color sid="emission">0 0 0 1</color>
            </emission>
            <diffuse>
              <texture texture="mars_generic_png_001-sampler" texcoord="Cylinder_004-mesh-map-0"/>
            </diffuse>
            <index_of_refraction>
              <float sid="ior">1.5</float>
            </index_of_refraction>
          </lambert>
        </technique>
      </profile_COMMON>
    </effect>
  </library_effects>
  <library_images>
    <image id="mars_generic_png_001" name="mars_generic_png_001">
      <init_from>/home/welton/Downloads/mars_generic.png</init_from>
    </image>
  </library_images>
  <library_materials>
    <material id="Material_006-material" name="Material.006">
      <instance_effect url="#Material_006-effect"/>
    </material>
  </library_materials>
  <library_geometries>
    <geometry id="Cube_002-mesh" name="Cube.002">
      <mesh>
        <source id="Cube_002-mesh-positions">
          <float_array id="Cube_002-mesh-positions-array" count="960">-14.4684 23.83618 2.83661 -14.4684 23.99161 3.094938 -7.065077 23.83618 2.83661 -7.065077 23.99161 3.094938 -14.46839 14.51955 8.442158 -14.46839 14.67498 8.700489 -7.065074 14.51955 8.442158 -7.065074 14.67498 8.700489 -10.76673 18.12578 -5.941305 -11.56563 18.45669 -5.941303 -11.89654 19.25558 -5.941305 -11.56563 20.05447 -5.941305 -10.76674 20.38539 -5.941305 -9.967843 20.05447 -5.941305 -9.63693 19.25558 -5.941305 -9.967843 18.45669 -5.941303 -11.56563 18.45669 5.202025 -10.76673 18.12578 5.202025 -11.89654 19.25558 5.202025 -11.56563 20.05447 5.202025 -10.76674 20.38539 5.202025 -9.967843 20.05447 5.202025 -9.63693 19.25558 5.202025 -9.967843 18.45669 5.202025 -11.56563 18.45669 5.202025 -10.76673 18.12578 5.202025 -11.89654 19.25558 5.202025 -11.56563 20.05447 5.202025 -10.76674 20.38539 5.202025 -9.967843 20.05447 5.202025 -9.63693 19.25558 5.202025 -9.967843 18.45669 5.202025 -11.56563 18.45669 6.340719 -10.76673 18.12578 6.340719 -11.89654 19.25558 5.591107 -11.56563 20.05447 4.959323 -10.76674 20.38539 4.959323 -9.967843 20.05447 4.959323 -9.63693 19.25558 5.591107 -9.967843 18.45669 6.340719 -10.17503 18.02985 0.6947489 -10.17373 18.0725 0.6947489 -10.17503 18.02985 1.742749 -10.17373 18.0725 1.742749 -11.71218 18.11931 1.742749 -11.71348 18.07665 1.742749 -11.71218 18.11931 0.6947484 -11.71347 18.07665 0.6947484 13.26142 24.18244 9.560515 14.22519 24.34338 8.460473 15.25977 24.13434 7.435398 16.29466 23.56954 6.555147 17.25934 22.68748 5.879706 18.08806 21.54828 5.455107 18.72434 20.22956 5.310282 19.12483 18.82121 5.455107 19.26223 17.41918 5.879706 19.12718 16.11903 6.555147 18.72888 15.00936 7.435398 18.09448 14.16581 8.460473 17.26721 13.64583 9.560515 16.30343 13.48489 10.66056 15.26885 13.69394 11.68563 14.23396 14.25874 12.56588 13.26928 15.14079 13.24132 12.44057 16.28 13.66592 11.80428 17.59871 13.81074 11.40379 19.00707 13.66592 11.26639 20.4091 13.24132 11.40144 21.70924 12.56588 11.79974 22.81891 11.68563 12.43414 23.66247 10.66056 14.12375 19.30176 8.47921 13.98785 19.27907 8.634314 14.26963 19.27228 8.33467 14.41555 19.19264 8.210551 14.55157 19.06827 8.115313 14.66842 18.90764 8.055445 14.75813 18.7217 8.035025 14.8146 18.52312 8.055445 14.83398 18.32543 8.115313 14.81494 18.14211 8.210551 14.75877 17.98564 8.33467 14.66932 17.8667 8.47921 14.55268 17.79338 8.634314 14.41678 17.77069 8.78942 14.2709 17.80017 8.93396 14.12498 17.8798 9.058079 13.98896 18.00418 9.153317 13.87211 18.16481 9.213185 13.78239 18.35075 9.233605 13.72592 18.54933 9.213185 13.70655 18.74702 9.153317 13.72559 18.93034 9.058079 13.78175 19.08681 8.93396 13.87121 19.20575 8.78942 13.98291 21.60147 8.294711 13.45761 21.51375 8.894284 14.5468 21.48753 7.736001 15.11086 21.17969 7.256229 15.63665 20.69893 6.888087 16.08834 20.07802 6.656662 16.43514 19.35926 6.577725 16.65342 18.59165 6.656662 16.72831 17.82748 6.888087 16.6547 17.11884 7.256229 16.43762 16.51403 7.736001 16.09184 16.05425 8.294711 15.64094 15.77085 8.894284 15.11564 15.68312 9.493851 14.55175 15.79707 10.05256 13.98769 16.1049 10.53234 13.4619 16.58566 10.90048 13.01021 17.20658 11.1319 12.66341 17.92533 11.21084 12.44513 18.69295 11.1319 12.37024 19.45711 10.90048 12.44385 20.16575 10.53234 12.66094 20.77057 10.05256 13.00671 21.23034 9.493851 14.12375 19.30176 8.47921 13.98785 19.27907 8.634314 14.26963 19.27228 8.33467 14.41555 19.19264 8.210551 14.55157 19.06827 8.115313 14.66842 18.90764 8.055445 14.75813 18.7217 8.035025 14.8146 18.52312 8.055445 14.83398 18.32543 8.115313 14.81494 18.14211 8.210551 14.75877 17.98564 8.33467 14.66932 17.8667 8.47921 14.55268 17.79338 8.634314 14.41678 17.77069 8.78942 14.2709 17.80017 8.93396 14.12498 17.8798 9.058079 13.98896 18.00418 9.153317 13.87211 18.16481 9.213185 13.78239 18.35075 9.233605 13.72592 18.54933 9.213185 13.70655 18.74702 9.153317 13.72559 18.93034 9.058079 13.78175 19.08681 8.93396 13.87121 19.20575 8.78942 13.96646 19.24196 8.332655 14.11234 19.21249 8.188122 14.25826 19.13285 8.064003 14.39428 19.00848 7.968765 14.51113 18.84785 7.908897 14.60085 18.6619 7.888477 14.65732 18.46332 7.908897 14.67669 18.26563 7.968765 14.65765 18.08231 8.064003 14.60149 17.92585 8.188122 14.51204 17.8069 8.332661 14.39539 17.73359 8.487767 14.2595 17.71089 8.642872 14.11362 17.74037 8.787411 13.9677 17.82001 8.911532 13.83168 17.94438 9.00677 13.71482 18.10501 9.066637 13.62511 18.29095 9.087058 13.56864 18.48953 9.066637 13.54926 18.68722 9.00677 13.56831 18.87055 8.911532 13.62447 19.02701 8.787411 13.71392 19.14595 8.642872 13.83057 19.21927 8.487767 13.28338 21.51478 8.752758 13.08579 24.20359 9.42408 14.06361 24.36688 8.308001 13.81942 21.60429 8.140919 15.11328 24.15478 7.267977 14.39486 21.48802 7.57077 16.16326 23.58175 6.374894 14.97047 21.17388 7.081174 17.142 22.68683 5.689604 15.50702 20.68328 6.705499 17.9828 21.53102 5.258812 15.96795 20.04966 6.469336 18.62837 20.19308 5.111879 16.32185 19.31619 6.388786 19.03469 18.76418 5.258812 16.5446 18.53286 6.469336 19.1741 17.34171 5.689604 16.62102 17.75306 6.705499 19.03708 16.02261 6.374894 16.54591 17.02992 7.081174 18.63297 14.89676 7.267977 16.32437 16.41272 7.57077 17.98932 14.0409 8.308001 15.97152 15.94353 8.140919 17.14998 13.51335 9.42408 15.51139 15.65433 8.752758 16.17216 13.35006 10.54016 14.97534 15.56481 9.3646 15.12249 13.56216 11.58018 14.39991 15.68108 9.934748 14.07251 14.13519 12.47327 13.8243 15.99522 10.42434 13.09377 15.03011 13.15856 13.28775 16.48582 10.80002 12.25297 16.18592 13.58935 12.82682 17.11945 11.03618 11.60741 17.52386 13.73629 12.47292 17.85291 11.11674 11.20108 18.95276 13.58935 12.25017 18.63624 11.03618 11.06167 20.37523 13.15856 12.17375 19.41605 10.80002 11.19869 21.69433 12.47327 12.24886 20.13919 10.42434 11.6028 22.82018 11.58018 12.47039 20.75638 9.934748 12.24645 23.67604 10.54016 12.82325 21.22557 9.3646 13.81929 19.25587 8.489914 13.96172 19.27965 8.327349 14.11462 19.24876 8.175862 14.26755 19.16529 8.045773 14.41012 19.03494 7.945957 14.53258 18.86658 7.883207 14.62662 18.6717 7.861804 14.6858 18.46357 7.883207 14.70611 18.25638 7.945957 14.68615 18.06424 8.045773 14.62729 17.90025 8.175862 14.53353 17.77558 8.327349 14.41128 17.69874 8.489914 14.26885 17.67496 8.65248 14.11595 17.70585 8.803973 13.96302 17.78932 8.934056 13.82045 17.91967 9.033871 13.69798 18.08802 9.096621 13.60395 18.28291 9.118025 13.54477 18.49104 9.096621 13.52446 18.69824 9.033871 13.54442 18.89037 8.934056 13.60328 19.05436 8.803973 13.69704 19.17903 8.65248 13.48466 18.90629 6.616033 13.96287 18.89223 6.616033 14.29108 18.54413 6.616033 14.27701 18.06592 6.616033 13.92892 17.73772 6.616033 13.45071 17.75178 6.616033 13.12251 18.09988 6.616033 13.13657 18.57808 6.616033 13.2453 19.53589 -5.801921 14.23881 19.50667 -5.801921 14.92068 18.7835 -5.801921 14.89146 17.78998 -5.801921 14.16828 17.10812 -5.801921 13.17477 17.13733 -5.801921 12.49291 17.86051 -5.801921 12.52212 18.85403 -5.801921 13.57388 18.67161 6.567395 13.86002 18.6632 6.567395 14.0564 18.45492 6.567395 14.04798 18.16878 6.567395 13.8397 17.9724 6.567395 13.55356 17.98081 6.567395 13.35718 18.18909 6.567395 13.3656 18.47523 6.567395 13.86002 18.6632 8.762572 13.57388 18.67161 8.762572 14.0564 18.45492 8.762572 14.04798 18.16878 8.762572 13.8397 17.9724 8.762572 13.55356 17.98081 9.470318 13.35718 18.18909 9.470318 13.3656 18.47523 9.470318 -23.1497 23.83618 2.83661 -23.1497 23.99161 3.094938 -15.74638 23.83618 2.83661 -15.74638 23.99161 3.094938 -23.1497 14.51955 8.442158 -23.1497 14.67498 8.700489 -15.74638 14.51955 8.442158 -15.74638 14.67498 8.700489 -19.44804 18.12578 -5.941305 -20.24693 18.45669 -5.941303 -20.57785 19.25558 -5.941305 -20.24694 20.05448 -5.941305 -19.44804 20.38539 -5.941305 -18.64915 20.05448 -5.941305 -18.31823 19.25558 -5.941305 -18.64915 18.45669 -5.941303 -20.24693 18.45669 5.202025 -19.44804 18.12578 5.202025 -20.57785 19.25558 5.202025 -20.24694 20.05448 5.202025 -19.44804 20.38539 5.202025 -18.64915 20.05448 5.202025 -18.31823 19.25558 5.202025 -18.64915 18.45669 5.202025 -20.24693 18.45669 5.202025 -19.44804 18.12578 5.202025 -20.57785 19.25558 5.202025 -20.24694 20.05448 5.202025 -19.44804 20.38539 5.202025 -18.64915 20.05448 5.202025 -18.31823 19.25558 5.202025 -18.64915 18.45669 5.202025 -20.24693 18.45669 6.340719 -19.44804 18.12578 6.340719 -20.57785 19.25558 5.591107 -20.24694 20.05448 4.959323 -19.44804 20.38539 4.959323 -18.64915 20.05448 4.959323 -18.31823 19.25558 5.591107 -18.64915 18.45669 6.340719 -18.85633 18.02985 0.6947489 -18.85503 18.0725 0.6947489 -18.85633 18.02985 1.742749 -18.85503 18.0725 1.742749 -20.39348 18.11931 1.742749 -20.39478 18.07665 1.742749 -20.39348 18.11931 0.6947484 -20.39478 18.07665 0.6947484</float_array>
          <technique_common>
            <accessor source="#Cube_002-mesh-positions-array" count="320" stride="3">
              <param name="X" type="float"/>
              <param name="Y" type="float"/>
              <param name="Z" type="float"/>
            </accessor>
          </technique_common>
        </source>
        <source id="Cube_002-mesh-normals">
          <float_array id="Cube_002-mesh-normals-array" count="1455">-1.99139e-7 0.8568651 -0.5155408 1 -2.32744e-6 -1.35656e-7 2.55108e-7 -0.8568639 0.5155428 -1 -2.9093e-7 1.80881e-7 0 -0.5155482 -0.8568607 -1.27976e-7 0.5155484 0.8568606 -0.9238795 0.3826839 0 -0.3826852 -0.9238789 1.97944e-7 0.3826841 -0.9238793 0 0.9238799 0.3826825 0 -0.3826846 0.9238791 0 -0.9238795 -0.3826838 0 0.9238795 -0.3826839 0 0.3826846 0.9238791 0 0.3826845 -0.9238792 0 0.9238795 0.3826836 0 -0.923879 -0.3826847 0 -0.9238789 -0.3826851 0 0.3826839 -0.9238794 0 -0.9238794 -0.3826841 0 0.9238798 -0.3826828 0 -0.382685 -0.9238789 0 -0.9238794 0.3826839 0 -0.9238794 0.3826838 0 0.92388 -0.3826824 0 -0.3826845 -0.9238792 0 0.9995377 -0.03040593 9.26289e-7 3.40266e-7 0 -1 -0.9995364 0.03044849 0 0 0 1 0.03040778 0.9995376 0 -0.03040778 -0.9995376 0 -2.40342e-7 0.856853 -0.5155609 1 2.2547e-6 -1.35658e-7 2.13638e-7 -0.8568609 0.5155478 -1 0 1.80871e-7 2.2099e-7 -0.5155484 -0.8568605 0 0.5155484 0.8568605 -0.9238805 0.3826811 0 -0.3826852 -0.9238788 0 0.3826846 -0.9238791 0 0.9238789 0.3826851 0 -0.3826841 0.9238793 0 -0.9238783 -0.3826866 0 0.92388 -0.3826825 0 0.3826841 0.9238793 0 0.9238794 0.3826838 0 0.382685 -0.9238789 0 -0.9238789 -0.3826852 0 0.9238794 -0.3826841 0 -0.3826839 -0.9238794 0 -0.3826838 -0.9238794 0 0.9995363 -0.03044849 0 2.83561e-7 0 -1 -0.9995377 0.03040587 -8.95949e-7 0.03040778 0.9995376 0 -0.03040784 -0.9995377 0 0.7048751 0.2679768 0.6567646 0.755558 -0.1058435 0.6464746 0.6892897 -0.1042495 0.7169462 0.6206644 -0.07858663 0.7801281 0.5543583 -0.0306077 0.8317152 0.4948865 0.03641974 0.8681941 0.4463102 0.1179213 0.8870748 0.4119264 0.2083581 0.887076 0.394091 0.3015519 0.8681928 0.3940125 0.3911576 0.8317152 0.4116984 0.4710692 0.7801271 0.445944 0.5358405 0.7169443 0.4944141 0.5810571 0.6464729 0.553806 0.6036361 0.5735177 0.6200725 0.6020407 0.503048 0.6887015 0.5763781 0.4398623 0.7550041 0.5284015 0.3882792 0.8144766 0.4613731 0.3517992 0.8630571 0.3798674 0.3329162 0.897438 0.2894337 0.3329161 0.9152744 0.1962422 0.351798 0.9153531 0.106634 0.3882755 0.8976664 0.02672231 0.4398649 0.8634213 -0.03804886 0.5030469 0.8149487 -0.08326536 0.5735203 0.7412922 0.09865856 0.6638919 0.7104126 0.0994029 0.6967303 0.6784495 0.1113569 0.7261584 0.647539 0.1337147 0.750209 0.6198195 0.1649488 0.767213 0.5971882 0.2029185 0.7760094 0.5811729 0.2450646 0.7760035 0.5728623 0.288488 0.767205 0.5728217 0.3302466 0.7502083 0.5810672 0.3674774 0.726169 0.5970321 0.3976644 0.6967179 0.6196006 0.4187182 0.6639054 0.6472814 0.4292462 0.6299005 0.6781672 0.4285011 0.5970562 0.710139 0.416544 0.5676211 0.7410318 0.39419 0.5435864 0.768744 0.3629538 0.5265903 0.7913793 0.3249787 0.5177912 0.8073962 0.2828392 0.5177966 0.8157126 0.2394173 0.5265855 0.8157539 0.1976683 0.5435739 0.8075065 0.1604296 0.5676228 0.7915541 0.1302565 0.5970557 0.7689616 0.1091766 0.6299037 -0.7048752 -0.2679777 -0.656764 -0.7555561 0.1058817 -0.6464707 -0.6892856 0.1042884 -0.7169445 -0.6206513 0.07862317 -0.780135 -0.5543373 0.03063565 -0.8317282 -0.4948642 -0.03639101 -0.868208 -0.4462733 -0.1179097 -0.8870949 -0.4118942 -0.2083465 -0.8870936 -0.394056 -0.3015553 -0.8682076 -0.3939758 -0.3911637 -0.8317296 -0.411664 -0.4710879 -0.780134 -0.4459136 -0.5358663 -0.7169439 -0.4943889 -0.5810836 -0.6464685 -0.5537851 -0.6036655 -0.5735067 -0.6200634 -0.6020701 -0.503024 -0.6886909 -0.5764074 -0.4398403 -0.7550057 -0.5284242 -0.3882451 -0.8144817 -0.461391 -0.351764 -0.8630684 -0.3798742 -0.3328794 -0.8974511 -0.2894372 -0.3328779 -0.9152887 -0.1962293 -0.3517681 -0.9153679 -0.1066135 -0.3882464 -0.8976803 -0.02669721 -0.4398379 -0.8634313 0.0380786 -0.5030273 -0.8149566 0.08330065 -0.573504 -0.7412869 -0.09861654 -0.6639041 -0.7104105 -0.09936308 -0.696738 -0.6784355 -0.1113134 -0.7261781 -0.6475207 -0.1336861 -0.75023 -0.6198153 -0.1649171 -0.7672231 -0.5971668 -0.2029052 -0.7760293 -0.581145 -0.2450589 -0.7760262 -0.5728326 -0.2885025 -0.7672218 -0.5727914 -0.3302461 -0.7502317 -0.581037 -0.3674979 -0.7261827 -0.5970005 -0.3976855 -0.6967328 -0.6195815 -0.4187574 -0.6638984 -0.6472615 -0.4292796 -0.6298981 -0.6781609 -0.4285345 -0.5970394 -0.710135 -0.4165795 -0.5676001 -0.7410359 -0.3942212 -0.5435581 -0.768754 -0.3629849 -0.5265542 -0.7914047 -0.324983 -0.5177499 -0.8074219 -0.2828447 -0.5177537 -0.8157364 -0.2394071 -0.5265534 -0.8157706 -0.1976463 -0.5435571 -0.8075228 -0.1603907 -0.5676106 -0.7915716 -0.1302266 -0.5970389 -0.768976 -0.1091405 -0.6298925 -0.7257149 -0.1845581 -0.6627791 -0.7102688 -0.1849631 -0.6791958 -0.6943441 -0.190944 -0.6938492 -0.6789835 -0.2021025 -0.7057875 -0.6651778 -0.2176793 -0.7142509 -0.6539084 -0.2365851 -0.7186315 -0.6459231 -0.2575724 -0.7186375 -0.6417667 -0.2791998 -0.714271 -0.6417163 -0.3000378 -0.7058169 -0.6458529 -0.3185788 -0.6938167 -0.6538279 -0.3335922 -0.6791357 -0.6650322 -0.3440982 -0.6628188 -0.6788452 -0.3492683 -0.6458955 -0.6942122 -0.3489758 -0.629512 -0.710146 -0.3430396 -0.6148304 -0.7255117 -0.3317928 -0.602948 -0.739342 -0.3162823 -0.5944233 -0.7506424 -0.2973862 -0.589998 -0.7586075 -0.2763943 -0.5900179 -0.7627569 -0.2547711 -0.5943852 -0.7627358 -0.2339766 -0.6029006 -0.75869 -0.2153948 -0.6148127 -0.7507106 -0.2003607 -0.6295151 -0.739461 -0.1899005 -0.6458601 0.912177 -0.2595177 -0.3171495 -0.1452267 0.9322323 0.3314395 0.1704436 0.9849451 -0.02884721 -0.1440324 -0.4358972 0.8883965 0.867752 -0.4602473 -0.1875606 0.3428293 0.9204833 -0.1875597 -0.2660591 -0.2311506 0.9358323 0.7817275 -0.622953 -0.0288425 0.5093832 0.7999597 -0.3171645 -0.352403 -0.003975272 0.93584 0.659965 -0.7365407 0.1481685 0.6587811 0.6315932 -0.4087756 -0.3972204 0.2301201 0.8884035 0.5107673 -0.7932647 0.3314332 0.7808138 0.4268437 -0.4562176 -0.3974325 0.4552043 0.7967662 0.3443042 -0.7892584 0.5084544 0.8671767 0.19968 -0.4562155 -0.3530052 0.6559448 0.6671759 0.171922 -0.7247925 0.6671721 0.9119846 -0.03442418 -0.4087778 -0.2669762 0.8186542 0.5084577 0.003972351 0.9889531 0.1481754 0.005353748 -0.6042649 0.7967656 2.94627e-6 0 1 1.36518e-6 0 -1 0.3548403 -0.9333568 0.05416172 -0.4090719 -0.9108934 0.05416172 0.3548414 -0.9333565 0.05416142 0.933358 0.3548373 0.05416154 0.910893 -0.4090729 0.05416154 0.9333565 0.354841 0.05416166 -0.3548431 0.9333558 0.05416178 0.4090721 0.9108933 0.05416172 -0.3548412 0.9333565 0.0541616 -0.9108937 0.4090711 0.05416154 -0.9108937 0.4090712 0.05416178 -0.9333561 -0.3548424 0.0541616 -0.4090715 -0.9108935 0.05416166 0.9108922 -0.4090745 0.0541616 0.4090725 0.9108932 0.05416142 -0.9333564 -0.3548413 0.05416172 0.5619547 0.157075 0.8121172 0.8747398 0.3325534 0.3524749 0.5243741 0.2559221 0.8121181 -0.9122322 0.4096736 0 -0.4585502 0.8886687 0 -0.3553617 0.9347289 0 -0.4096745 -0.9122318 0 -0.9347283 -0.3553633 0 -0.93473 -0.3553588 0 0.912231 -0.4096763 0 0.2476403 -0.9688521 0 0.355365 -0.9347276 0 0.4096709 0.9122334 0 0.9347288 0.355362 0 0.9347282 0.3553637 0 -0.9845825 0.1749209 0 -0.6197054 -0.7848346 0 0.9122295 -0.4096796 0 0.4096701 0.9122339 0 0.7048771 0.2679936 0.6567555 0.7048092 0.2680625 0.6568002 0.7048637 0.2679997 0.6567674 0.7048755 0.2679884 0.6567594 0.7049148 0.2679978 0.6567133 0.7048873 0.2679965 0.6567434 0.7048937 0.2679357 0.6567614 0.7048878 0.2679641 0.6567561 0.7048666 0.2679966 0.6567655 0.7048614 0.268004 0.6567682 0.7048466 0.2679693 0.6567981 0.704809 0.2679443 0.6568487 0.7049054 0.2680196 0.6567145 0.7048738 0.2679727 0.6567676 0.7048869 0.2679752 0.6567525 0.7048757 0.267981 0.6567621 0.7048807 0.2679716 0.6567606 0.7048838 0.2679705 0.6567577 0.7048735 0.2679806 0.6567646 0.7048804 0.2679785 0.6567581 0.7048764 0.2679762 0.6567633 0.7555601 -0.1058447 0.6464719 0.6892915 -0.1042487 0.7169446 0.6206651 -0.07858705 0.7801277 0.5543589 -0.03060877 0.8317148 0.4948874 0.03641945 0.8681936 0.4463074 0.1179233 0.887076 0.4119257 0.2083564 0.8870766 0.3940895 0.3015491 0.8681945 0.3940114 0.3911566 0.831716 0.4116969 0.4710682 0.7801285 0.445943 0.5358409 0.7169445 0.494414 0.5810562 0.646474 0.5538055 0.6036347 0.5735196 0.6200742 0.602041 0.5030454 0.6886988 0.5763791 0.4398648 0.7550064 0.5284005 0.3882761 0.8144761 0.4613757 0.3517971 0.863057 0.3798679 0.3329161 0.8974379 0.2894321 0.3329181 0.915275 0.1962379 0.3517987 0.9153529 0.1066325 0.3882765 0.8976666 0.0267226 0.4398643 0.863421 -0.03804832 0.5030472 0.8149509 -0.08326369 0.5735176 0.7412828 0.09865969 0.6639021 0.7104141 0.09940034 0.6967291 0.6784341 0.1113584 0.7261725 0.6475421 0.1337167 0.7502061 0.619829 0.1649468 0.7672057 0.5971947 0.2029229 0.7760032 0.5811634 0.2450606 0.7760118 0.5728653 0.2884732 0.7672083 0.5728236 0.330237 0.7502112 0.5810703 0.3674756 0.7261674 0.5970229 0.3976554 0.6967309 0.6196078 0.4187259 0.6638938 0.6472758 0.4292483 0.6299047 0.678161 0.4285021 0.5970626 0.7101388 0.4165456 0.5676203 0.741033 0.3941887 0.5435857 0.7687437 0.3629577 0.526588 0.7913861 0.3249781 0.5177814 0.8073999 0.2828416 0.5177896 0.8157065 0.2394138 0.5265966 0.815747 0.1976625 0.5435866 0.8075082 0.1604291 0.5676205 0.7915502 0.1302468 0.597063 0.7689623 0.1091776 0.6299028 -0.7048631 -0.2680003 -0.6567678 -0.7048655 -0.2679702 -0.6567775 -0.7049044 -0.2679683 -0.6567364 -0.7048555 -0.267978 -0.656785 -0.7048953 -0.2679786 -0.656742 -0.7048622 -0.2679699 -0.6567811 -0.7048513 -0.267995 -0.6567826 -0.7048883 -0.2679744 -0.6567513 -0.7048883 -0.2680111 -0.6567364 -0.7049009 -0.268073 -0.6566975 -0.7048587 -0.2679685 -0.6567854 -0.7048704 -0.2679784 -0.6567689 -0.7048599 -0.2679662 -0.6567852 -0.7049075 -0.2679706 -0.6567323 -0.7048298 -0.2680031 -0.6568024 -0.7048717 -0.2679794 -0.6567671 -0.7048815 -0.2679496 -0.6567687 -0.7048786 -0.2679784 -0.6567602 -0.7048732 -0.2679794 -0.6567654 -0.7048769 -0.2679775 -0.6567622 -0.7048785 -0.2679781 -0.6567602 -0.755558 0.1058818 -0.6464682 -0.6892843 0.1042857 -0.716946 -0.6206519 0.07862287 -0.7801344 -0.5543385 0.03064024 -0.8317272 -0.4948614 -0.03639376 -0.8682096 -0.4462773 -0.1179087 -0.8870931 -0.4118943 -0.2083482 -0.8870931 -0.3940536 -0.3015527 -0.8682095 -0.393976 -0.3911677 -0.8317276 -0.4116636 -0.4710877 -0.7801343 -0.4459141 -0.5358637 -0.7169455 -0.4943884 -0.5810835 -0.6464689 -0.553786 -0.6036666 -0.5735049 -0.620062 -0.6020694 -0.5030265 -0.6886923 -0.5764062 -0.4398396 -0.7550057 -0.5284234 -0.3882462 -0.8144826 -0.46139 -0.3517633 -0.8630683 -0.3798742 -0.3328796 -0.8974506 -0.2894367 -0.33288 -0.9152899 -0.1962299 -0.3517644 -0.9153677 -0.1066161 -0.3882461 -0.8976793 -0.02669751 -0.4398398 -0.8634318 0.03807932 -0.5030266 -0.814956 0.08330053 -0.5735049 -0.7412952 -0.09861958 -0.6638944 -0.7104145 -0.0993629 -0.696734 -0.6784265 -0.1113239 -0.7261849 -0.6475207 -0.1336876 -0.7502297 -0.6198076 -0.1649174 -0.7672293 -0.5971636 -0.2029126 -0.7760298 -0.5811403 -0.2450535 -0.7760315 -0.5728273 -0.2884917 -0.7672297 -0.5727934 -0.3302501 -0.7502284 -0.581036 -0.3674972 -0.7261838 -0.596998 -0.3976867 -0.6967344 -0.6195856 -0.4187578 -0.6638944 -0.6472643 -0.4292821 -0.6298936 -0.6781551 -0.4285392 -0.5970426 -0.7101341 -0.4165804 -0.5676006 -0.7410377 -0.3942178 -0.5435582 -0.7687563 -0.3629783 -0.5265555 -0.7913995 -0.3249895 -0.5177535 -0.8074191 -0.2828455 -0.5177574 -0.8157345 -0.239409 -0.5265554 -0.8157722 -0.1976456 -0.5435551 -0.8075283 -0.1604025 -0.5675996 -0.7915692 -0.1302175 -0.5970441 -0.7689765 -0.1091418 -0.6298915 -0.7256702 -0.1846441 -0.6628043 -0.7102852 -0.1848655 -0.6792052 -0.6943485 -0.1909469 -0.693844 -0.6789922 -0.2020822 -0.705785 -0.6651731 -0.2176206 -0.7142732 -0.6539257 -0.2365967 -0.718612 -0.6459533 -0.2575914 -0.7186036 -0.6417458 -0.279205 -0.7142878 -0.6417974 -0.2999774 -0.7057688 -0.6458687 -0.318552 -0.6938143 -0.6537747 -0.3336191 -0.6791738 -0.6651072 -0.3440439 -0.6627717 -0.6788504 -0.3493255 -0.645859 -0.6942683 -0.3489326 -0.6294742 -0.7101817 -0.3429559 -0.614836 -0.7255492 -0.3318082 -0.6028944 -0.7393402 -0.3162814 -0.5944259 -0.7506266 -0.2973759 -0.5900232 -0.7586285 -0.2764027 -0.5899868 -0.7627091 -0.254765 -0.5944492 -0.7627233 -0.2339932 -0.6029099 -0.7586131 -0.2154656 -0.6148828 -0.7507362 -0.2003844 -0.629477 -0.7394774 -0.1898897 -0.6458444 0.9121789 -0.2595098 -0.3171505 -0.1452257 0.9322363 0.331429 0.1704405 0.9849457 -0.02884393 -0.1440315 -0.4358937 0.8883985 0.8677549 -0.4602442 -0.187555 0.3428187 0.9204845 -0.1875733 -0.2660453 -0.2311477 0.9358369 0.7817178 -0.6229648 -0.02884697 0.5093895 0.7999617 -0.3171492 -0.3524183 -0.00398451 0.9358341 0.6599663 -0.7365394 0.1481702 0.6587766 0.6315928 -0.4087837 -0.3972301 0.2301197 0.8883993 0.5107707 -0.7932597 0.33144 0.7808136 0.4268485 -0.4562134 -0.3974294 0.4552161 0.7967612 0.3443081 -0.7892544 0.5084578 0.8671759 0.1996806 -0.4562167 -0.3530005 0.6559503 0.6671732 0.1719217 -0.7247872 0.6671781 0.9119814 -0.03442251 -0.4087851 -0.2669885 0.8186473 0.5084623 0.003984868 0.9889512 0.1481884 0.005354821 -0.6042697 0.7967619 -4.6035e-7 0 1 2.28817e-7 0 1 8.62944e-7 0 1 0 0 -1 -1.13096e-6 0 -1 5.14291e-7 0 1 3.08591e-6 0 1 0.9610348 -0.02825838 0.2749794 0.6995425 0.6595634 0.2749848 -2.25843e-7 0.856859 -0.515551 1 -4.6549e-6 -1.35657e-7 2.05677e-7 -0.8568608 0.5155479 -1 2.32745e-6 1.80873e-7 0 -0.5155484 -0.8568605 -1.44574e-7 0.5155485 0.8568605 -0.9238798 0.3826831 0 -0.3826833 -0.9238796 0 0.3826822 -0.9238801 0 0.9238795 0.3826839 0 -0.3826822 0.9238801 0 -0.9238783 -0.3826865 0 0.9238798 -0.3826832 0 0.3826833 0.9238796 0 0.3826829 -0.9238798 0 0.9238796 0.3826832 0 -0.9238782 -0.3826866 0 -0.9238778 -0.3826878 0 0.3826822 -0.9238801 0 -0.9238786 -0.3826857 0 0.9238793 -0.3826842 0 -0.3826822 -0.9238801 0 -0.9238827 0.3826759 0 -0.9238823 0.3826769 0 0.9238789 -0.382685 0 -0.3826827 -0.9238799 0 2.26844e-7 0 -1 -0.9995389 0.03036463 0 0.03040653 0.9995376 0 -0.03040659 -0.9995377 4.54856e-6 -2.13639e-7 0.8568591 -0.5155507 1 2.61836e-6 -1.35658e-7 4.27277e-7 -0.856864 0.5155428 -1 0 1.80876e-7 2.10513e-7 -0.5155483 -0.8568606 -0.9238809 0.3826804 0 -0.3826833 -0.9238796 0 0.3826821 -0.9238801 0 0.9238783 0.3826865 0 -0.3826822 0.9238801 0 -0.9238795 -0.3826839 0 0.9238798 -0.3826831 0 0.3826822 0.9238801 0 0.3826827 -0.9238799 0 0.9238798 -0.382683 0 -0.3826837 -0.9238795 0 -0.3826829 -0.9238798 0 3.96962e-7 0 -1 -0.9995364 0.03044849 -1.79173e-6 0.03040659 0.9995377 0</float_array>
          <technique_common>
            <accessor source="#Cube_002-mesh-normals-array" count="485" stride="3">
              <param name="X" type="float"/>
              <param name="Y" type="float"/>
              <param name="Z" type="float"/>
            </accessor>
          </technique_common>
        </source>
        <source id="Cube_002-mesh-map-0">
          <float_array id="Cube_002-mesh-map-0-array" count="3252">0.1616219 0.01892691 0.05015242 0.145105 0.1616219 0.145105 0.1616219 0.01892691 0.05015242 0.145105 0.1616219 0.145105 0.05015242 0.01892691 0.1616219 0.145105 0.05015242 0.145105 0.05015242 0.145105 0.1616219 0.01892691 0.1616219 0.145105 0.1616219 0.02737498 0.05015242 0.1366568 0.1616219 0.1366568 0.4069096 0.9860387 0.3522686 0.7630998 0.4069096 0.7630998 0.0140115 0.07877796 0.2657409 0.1352986 0.0140115 0.1352986 0.0140115 0.02225726 0.2657409 0.07877796 0.2657409 0.0222572 0.0140115 0.1352986 0.2657409 0.07877796 0.0140115 0.07877796 0.0140115 0.1352986 0.2657409 0.07877796 0.0140115 0.07877796 0.0140115 0.02225726 0.2657409 0.07877796 0.0140115 0.07877796 0.0140115 0.02225726 0.2657409 0.07877796 0.0140115 0.07877796 0.0140115 0.02225726 0.2657409 0.07877796 0.2657409 0.0222572 0.0140115 0.07877796 0.2657409 0.1352986 0.0140115 0.1352986 0 0 0 0 0 0 0 0 0 0 0 0 0 0 0 0 0 0 0 0 0 0 0 0 0 0 0 0 0 0 0 0 0 0 0 0 0 0 0 0 0 0 0 0 0 0 0 0 0.1616219 0.01892691 0.05015242 0.145105 0.1616219 0.145105 0.1616219 0.01892691 0.05015242 0.145105 0.1616219 0.145105 0.05015242 0.145105 0.1616219 0.01892691 0.1616219 0.145105 0.05015242 0.01892691 0.1616219 0.145105 0.05015242 0.145105 0.05015242 0.02737498 0.1616219 0.1366568 0.1616219 0.02737498 0.7873939 0.1383323 0.7064543 0.2142086 0.707141 0.1355306 0.1616219 0.01892691 0.05015242 0.01892691 0.05015242 0.145105 0.1616219 0.01892691 0.05015242 0.01892691 0.05015242 0.145105 0.05015242 0.01892691 0.1616219 0.01892691 0.1616219 0.145105 0.05015242 0.145105 0.05015242 0.01892691 0.1616219 0.01892691 0.1616219 0.02737498 0.05015242 0.02737498 0.05015242 0.1366568 0.4069096 0.9860387 0.3522686 0.9860387 0.3522686 0.7630998 0.0140115 0.07877796 0.2657409 0.07877796 0.2657409 0.1352986 0.0140115 0.02225726 0.0140115 0.07877796 0.2657409 0.07877796 0.0140115 0.1352986 0.2657409 0.1352986 0.2657409 0.07877796 0.0140115 0.1352986 0.2657409 0.1352986 0.2657409 0.07877796 0.0140115 0.02225726 0.2657409 0.0222572 0.2657409 0.07877796 0.0140115 0.02225726 0.2657409 0.0222572 0.2657409 0.07877796 0.0140115 0.02225726 0.0140115 0.07877796 0.2657409 0.07877796 0.0140115 0.07877796 0.2657409 0.07877796 0.2657409 0.1352986 0 0 0 0 0 0 0 0 0 0 0 0 0 0 0 0 0 0 0 0 0 0 0 0 0 0 0 0 0 0 0 0 0 0 0 0 0 0 0 0 0 0 0 0 0 0 0 0 0.1616219 0.01892691 0.05015242 0.01892691 0.05015242 0.145105 0.1616219 0.01892691 0.05015242 0.01892691 0.05015242 0.145105 0.05015242 0.145105 0.05015242 0.01892691 0.1616219 0.01892691 0.05015242 0.01892691 0.1616219 0.01892691 0.1616219 0.145105 0.05015242 0.02737498 0.05015242 0.1366568 0.1616219 0.1366568 0.7873939 0.1383323 0.7867072 0.2170102 0.7064543 0.2142086 0.4068787 0.4998194 0.3985404 0.4736794 0.4235545 0.4475396 0.4152167 0.5202457 0.4274339 0.5562044 0.4152167 0.5591156 0.4280806 0.514007 0.4274339 0.5562044 0.4218756 0.518659 0.4334091 0.5066068 0.4388185 0.5476693 0.4280806 0.514007 0.4334091 0.5066068 0.4560962 0.5163974 0.4485946 0.5340919 0.440068 0.4857315 0.4560962 0.5163974 0.4374977 0.4969624 0.4409446 0.4736793 0.4608119 0.4957918 0.440068 0.4857315 0.4409446 0.4736793 0.4608119 0.4515666 0.4624202 0.4736792 0.440068 0.4616269 0.4560962 0.430961 0.4608119 0.4515666 0.4334091 0.4407517 0.4560962 0.430961 0.4374977 0.450396 0.4334091 0.4407517 0.4388185 0.3996891 0.4485946 0.4132665 0.4218756 0.4286994 0.4388185 0.3996891 0.4280806 0.4333514 0.4152166 0.4271127 0.4274339 0.391154 0.4218756 0.4286994 0.4152166 0.4271127 0.4029995 0.391154 0.4152167 0.3882428 0.4023528 0.4333515 0.4029995 0.391154 0.4085578 0.4286994 0.3970243 0.4407517 0.3916149 0.3996891 0.4023528 0.4333515 0.3929356 0.450396 0.3818387 0.4132665 0.3970243 0.4407517 0.3929356 0.450396 0.3696215 0.4515666 0.3743372 0.430961 0.3894887 0.4736792 0.3696215 0.4515666 0.3903654 0.461627 0.3894887 0.4736792 0.3696215 0.4957918 0.3680131 0.4736792 0.3929356 0.4969624 0.3696215 0.4957918 0.3903654 0.4857315 0.3929356 0.4969624 0.3818387 0.5340919 0.3743372 0.5163974 0.3970244 0.5066069 0.3916149 0.5476693 0.3818387 0.5340919 0.4023527 0.514007 0.4029995 0.5562044 0.3916149 0.5476693 0.4152167 0.5202457 0.4029995 0.5562044 0.4085579 0.518659 0.4152167 0.4857832 0.4219073 0.518873 0.4152167 0.5204672 0.4169476 0.4853709 0.4281418 0.5141988 0.4219073 0.518873 0.4199454 0.4822381 0.4281418 0.5141988 0.4185605 0.4841617 0.4199454 0.4822381 0.4376038 0.4970732 0.4334957 0.5067634 0.4216762 0.476812 0.4376038 0.4970732 0.4210082 0.4797313 0.4219042 0.4736792 0.4401862 0.4857888 0.4216762 0.476812 0.4219042 0.4736792 0.4401863 0.4615696 0.441067 0.4736793 0.4216763 0.4705466 0.4376037 0.4502851 0.4401863 0.4615696 0.4199455 0.4651206 0.4376037 0.4502851 0.4210082 0.4676272 0.4199455 0.4651206 0.4281418 0.4331595 0.4334957 0.440595 0.4169475 0.4619876 0.4281418 0.4331595 0.4185603 0.4631968 0.4152167 0.4615752 0.4219073 0.4284854 0.4169475 0.4619876 0.4152167 0.4615752 0.4085262 0.4284854 0.4152166 0.4268912 0.4118729 0.4631968 0.4085262 0.4284854 0.4134857 0.4619876 0.4104881 0.4651205 0.4022916 0.4331597 0.4118729 0.4631968 0.4104881 0.4651205 0.3928296 0.4502853 0.3969377 0.440595 0.4087572 0.4705464 0.3928296 0.4502853 0.4094253 0.4676272 0.4087572 0.4705464 0.3893663 0.4736792 0.3902472 0.4615696 0.4087571 0.476812 0.3893663 0.4736792 0.4085293 0.4736793 0.4087571 0.476812 0.3928296 0.4970732 0.3902471 0.4857888 0.410488 0.4822381 0.3928296 0.4970732 0.4094253 0.4797313 0.410488 0.4822381 0.4022915 0.5141988 0.3969379 0.5067635 0.4134859 0.4853708 0.4022915 0.5141988 0.4118731 0.4841618 0.4152167 0.4857832 0.4085262 0.518873 0.4134859 0.4853708 0.4169394 0.4853156 0.4152167 0.4857259 0.4152167 0.4857259 0.4185446 0.484112 0.4169394 0.4853156 0.4169394 0.4853156 0.419923 0.4821975 0.4185446 0.484112 0.4185446 0.484112 0.4209808 0.4797026 0.419923 0.4821975 0.419923 0.4821975 0.4216457 0.4767972 0.4209808 0.4797026 0.4209808 0.4797026 0.4218725 0.4736792 0.4216457 0.4767972 0.4216457 0.4767972 0.4216458 0.4705615 0.4218725 0.4736792 0.4218725 0.4736792 0.4209808 0.4676558 0.4216458 0.4705615 0.4216458 0.4705615 0.4199231 0.4651611 0.4209808 0.4676558 0.4209808 0.4676558 0.4185445 0.4632465 0.4199231 0.4651611 0.4199231 0.4651611 0.4169393 0.462043 0.4185445 0.4632465 0.4185445 0.4632465 0.4152167 0.4616325 0.4169393 0.462043 0.4169393 0.462043 0.4134939 0.462043 0.4152167 0.4616325 0.4152167 0.4616325 0.4118888 0.4632465 0.4134939 0.462043 0.4134939 0.462043 0.4105105 0.465161 0.4118888 0.4632465 0.4118888 0.4632465 0.4094527 0.4676559 0.4105105 0.465161 0.4105105 0.465161 0.4087877 0.4705613 0.4094527 0.4676559 0.4094527 0.4676559 0.4085609 0.4736793 0.4087877 0.4705613 0.4087877 0.4705613 0.4087877 0.4767972 0.4085609 0.4736793 0.4085609 0.4736793 0.4094527 0.4797027 0.4087877 0.4767972 0.4087877 0.4767972 0.4105103 0.4821976 0.4094527 0.4797027 0.4094527 0.4797027 0.4118889 0.4841122 0.4105103 0.4821976 0.4105103 0.4821976 0.4134941 0.4853155 0.4118889 0.4841122 0.4118889 0.4841122 0.4152167 0.4857259 0.4134941 0.4853155 0.4134941 0.4853155 0.4152166 0.4434957 0.4007747 0.4585876 0.4152167 0.5038627 0.4152167 0.5202457 0.4274339 0.5562044 0.4218756 0.518659 0.4218756 0.518659 0.4388185 0.5476693 0.4280806 0.514007 0.4388185 0.5476693 0.4334091 0.5066068 0.4280806 0.514007 0.4334091 0.5066068 0.4560962 0.5163974 0.4374977 0.4969624 0.4560962 0.5163974 0.440068 0.4857315 0.4374977 0.4969624 0.440068 0.4857315 0.4624202 0.4736792 0.4409446 0.4736793 0.4624202 0.4736792 0.440068 0.4616269 0.4409446 0.4736793 0.440068 0.4616269 0.4560962 0.430961 0.4374977 0.450396 0.4560962 0.430961 0.4334091 0.4407517 0.4374977 0.450396 0.4334091 0.4407517 0.4388185 0.3996891 0.4280806 0.4333514 0.4388185 0.3996891 0.4218756 0.4286994 0.4280806 0.4333514 0.4274339 0.391154 0.4152166 0.4271127 0.4218756 0.4286994 0.4152167 0.3882428 0.4085578 0.4286994 0.4152166 0.4271127 0.4029995 0.391154 0.4023528 0.4333515 0.4085578 0.4286994 0.3916149 0.3996891 0.3970243 0.4407517 0.4023528 0.4333515 0.3970243 0.4407517 0.3743372 0.430961 0.3929356 0.450396 0.3743372 0.430961 0.3903654 0.461627 0.3929356 0.450396 0.3696215 0.4515666 0.3894887 0.4736792 0.3903654 0.461627 0.3894887 0.4736792 0.3696215 0.4957918 0.3903654 0.4857315 0.3903654 0.4857315 0.3743372 0.5163974 0.3929356 0.4969624 0.3743372 0.5163974 0.3970244 0.5066069 0.3929356 0.4969624 0.3970244 0.5066069 0.3916149 0.5476693 0.4023527 0.514007 0.3916149 0.5476693 0.4085579 0.518659 0.4023527 0.514007 0.4085579 0.518659 0.4152167 0.5591156 0.4152167 0.5202457 0.4152167 0.5204672 0.4169476 0.4853709 0.4152167 0.4857832 0.4219073 0.518873 0.4185605 0.4841617 0.4169476 0.4853709 0.4185605 0.4841617 0.4334957 0.5067634 0.4199454 0.4822381 0.4334957 0.5067634 0.4210082 0.4797313 0.4199454 0.4822381 0.4210082 0.4797313 0.4401862 0.4857888 0.4216762 0.476812 0.4401862 0.4857888 0.4219042 0.4736792 0.4216762 0.476812 0.4219042 0.4736792 0.4401863 0.4615696 0.4216763 0.4705466 0.4401863 0.4615696 0.4210082 0.4676272 0.4216763 0.4705466 0.4210082 0.4676272 0.4334957 0.440595 0.4199455 0.4651206 0.4199455 0.4651206 0.4281418 0.4331595 0.4185603 0.4631968 0.4281418 0.4331595 0.4169475 0.4619876 0.4185603 0.4631968 0.4169475 0.4619876 0.4152166 0.4268912 0.4152167 0.4615752 0.4152166 0.4268912 0.4134857 0.4619876 0.4152167 0.4615752 0.4134857 0.4619876 0.4022916 0.4331597 0.4118729 0.4631968 0.4022916 0.4331597 0.4104881 0.4651205 0.4118729 0.4631968 0.4104881 0.4651205 0.3928296 0.4502853 0.4094253 0.4676272 0.3928296 0.4502853 0.4087572 0.4705464 0.4094253 0.4676272 0.4087572 0.4705464 0.3893663 0.4736792 0.4085293 0.4736793 0.4085293 0.4736793 0.3902471 0.4857888 0.4087571 0.476812 0.4087571 0.476812 0.3928296 0.4970732 0.4094253 0.4797313 0.3928296 0.4970732 0.410488 0.4822381 0.4094253 0.4797313 0.410488 0.4822381 0.4022915 0.5141988 0.4118731 0.4841618 0.4022915 0.5141988 0.4134859 0.4853708 0.4118731 0.4841618 0.4134859 0.4853708 0.4152167 0.5204672 0.4152167 0.4857832 0.4152167 0.4857259 0.4169394 0.4853156 0.4169394 0.4853156 0.4169394 0.4853156 0.4185446 0.484112 0.4185446 0.484112 0.4185446 0.484112 0.419923 0.4821975 0.419923 0.4821975 0.419923 0.4821975 0.4209808 0.4797026 0.419923 0.4821975 0.4209808 0.4797026 0.4216457 0.4767972 0.4216457 0.4767972 0.4216457 0.4767972 0.4218725 0.4736792 0.4216457 0.4767972 0.4218725 0.4736792 0.4216458 0.4705615 0.4216458 0.4705615 0.4216458 0.4705615 0.4209808 0.4676558 0.4216458 0.4705615 0.4209808 0.4676558 0.4199231 0.4651611 0.4209808 0.4676558 0.4199231 0.4651611 0.4185445 0.4632465 0.4185445 0.4632465 0.4185445 0.4632465 0.4169393 0.462043 0.4169393 0.462043 0.4169393 0.462043 0.4152167 0.4616325 0.4152167 0.4616325 0.4152167 0.4616325 0.4134939 0.462043 0.4152167 0.4616325 0.4134939 0.462043 0.4118888 0.4632465 0.4118888 0.4632465 0.4118888 0.4632465 0.4105105 0.465161 0.4118888 0.4632465 0.4105105 0.465161 0.4094527 0.4676559 0.4094527 0.4676559 0.4094527 0.4676559 0.4087877 0.4705613 0.4094527 0.4676559 0.4087877 0.4705613 0.4085609 0.4736793 0.4085609 0.4736793 0.4085609 0.4736793 0.4087877 0.4767972 0.4085609 0.4736793 0.4087877 0.4767972 0.4094527 0.4797027 0.4087877 0.4767972 0.4094527 0.4797027 0.4105103 0.4821976 0.4094527 0.4797027 0.4105103 0.4821976 0.4118889 0.4841122 0.4118889 0.4841122 0.4118889 0.4841122 0.4134941 0.4853155 0.4118889 0.4841122 0.4134941 0.4853155 0.4152167 0.4857259 0.4152167 0.4857259 0.4560962 0.430961 0.4485946 0.4132665 0.4560962 0.430961 0.4029995 0.5562044 0.4152167 0.5591156 0.4029995 0.5562044 0.4274339 0.5562044 0.4388185 0.5476693 0.4274339 0.5562044 0.3696215 0.4515666 0.3743372 0.430961 0.3743372 0.430961 0.4388185 0.3996891 0.4485946 0.4132665 0.4485946 0.4132665 0.4388185 0.5476693 0.4485946 0.5340919 0.4388185 0.5476693 0.3680131 0.4736792 0.3696215 0.4515666 0.3696215 0.4515666 0.4274339 0.391154 0.4388185 0.3996891 0.4388185 0.3996891 0.4560962 0.5163974 0.4485946 0.5340919 0.4485946 0.5340919 0.3680131 0.4736792 0.3696215 0.4957918 0.3680131 0.4736792 0.4152167 0.3882428 0.4274339 0.391154 0.4274339 0.391154 0.4608119 0.4957918 0.4560962 0.5163974 0.4560962 0.5163974 0.3696215 0.4957918 0.3743372 0.5163974 0.3696215 0.4957918 0.4029995 0.391154 0.4152167 0.3882428 0.4152167 0.3882428 0.4608119 0.4957918 0.4624202 0.4736792 0.4608119 0.4957918 0.3818387 0.5340919 0.3743372 0.5163974 0.3743372 0.5163974 0.4029995 0.391154 0.3916149 0.3996891 0.4029995 0.391154 0.4608119 0.4515666 0.4624202 0.4736792 0.4624202 0.4736792 0.3916149 0.5476693 0.3818387 0.5340919 0.3818387 0.5340919 0.3916149 0.3996891 0.3818387 0.4132665 0.3916149 0.3996891 0.4608119 0.4515666 0.4560962 0.430961 0.4608119 0.4515666 0.4029995 0.5562044 0.3916149 0.5476693 0.3916149 0.5476693 0.4152167 0.5591156 0.4274339 0.5562044 0.4152167 0.5591156 0.3818387 0.4132665 0.3743372 0.430961 0.3818387 0.4132665 0.1226042 0.07920604 0.1286326 0.05009841 0.1431864 0.03804159 0.1431864 0.1295457 0.1609842 0.1148016 0.1683562 0.07920604 0.2528581 0.07920604 0.03351479 0.1396791 0.03351479 0.07920604 0.2528581 0.07920604 0.03351479 0.1396791 0.03351479 0.07920604 0.2528581 0.07920604 0.03351479 0.01873302 0.03351479 0.07920604 0.2528581 0.07920604 0.03351479 0.1396791 0.2528581 0.1083137 0.2528581 0.07920604 0.03351479 0.1396791 0.2528581 0.1083137 0.2528581 0.07920604 0.03351479 0.01873302 0.2528581 0.05009841 0.2528581 0.07920604 0.03351479 0.01873302 0.2528581 0.05009841 0.2528581 0.07920604 0.03351479 0.01873302 0.03351479 0.07920604 0.7207317 0.7621061 0.7066283 0.8154805 0.692525 0.7621061 0.6966558 0.7309569 0.7066283 0.7621061 0.7066283 0.7309569 0.6966558 0.7309569 0.7066283 0.8154805 0.7066283 0.7309569 0.7166008 0.7309569 0.7066283 0.7621061 0.7066283 0.7309569 0.7166008 0.7309569 0.7066283 0.7621061 0.7066283 0.7309569 0.7066283 0.7309569 0.7166008 0.8154805 0.7166008 0.7309569 0.6966558 0.7309569 0.7066283 0.7621061 0.6966558 0.8154805 0.7066283 0.7309569 0.6966558 0.7621061 0.6966558 0.7309569 0.7066283 0.7309569 0.7166008 0.7621061 0.7166008 0.7309569 0.4235549 0.499819 0.419533 0.5028345 0.4152167 0.5038627 0.4152167 0.5038627 0.4109005 0.5028343 0.4068787 0.4998194 0.4068787 0.4998194 0.4034247 0.4950223 0.4007747 0.4887712 0.4007747 0.4887712 0.3991085 0.4814913 0.3985404 0.4736794 0.3985404 0.4736794 0.3991087 0.4658671 0.4007747 0.4585876 0.4007747 0.4585876 0.403425 0.4523365 0.4068784 0.4475396 0.4068784 0.4475396 0.4109001 0.4445241 0.4152166 0.4434957 0.4152166 0.4434957 0.4195327 0.4445241 0.4068784 0.4475396 0.4195327 0.4445241 0.4235545 0.4475396 0.4068784 0.4475396 0.4235545 0.4475396 0.4270088 0.4523366 0.4296588 0.4585874 0.4296588 0.4585874 0.431325 0.4658675 0.431893 0.4736791 0.431893 0.4736791 0.4313247 0.4814914 0.4296588 0.4887711 0.4296588 0.4887711 0.4270085 0.4950221 0.4235549 0.499819 0.4235549 0.499819 0.4152167 0.5038627 0.4068787 0.4998194 0.4068787 0.4998194 0.4007747 0.4887712 0.3985404 0.4736794 0.3985404 0.4736794 0.4007747 0.4585876 0.4235545 0.4475396 0.4007747 0.4585876 0.4068784 0.4475396 0.4235545 0.4475396 0.4235545 0.4475396 0.4296588 0.4585874 0.431893 0.4736791 0.431893 0.4736791 0.4296588 0.4887711 0.4235545 0.4475396 0.4296588 0.4887711 0.4235549 0.499819 0.4235545 0.4475396 0.4235549 0.499819 0.4068787 0.4998194 0.4235545 0.4475396 0.4152167 0.5202457 0.4218756 0.518659 0.4274339 0.5562044 0.4280806 0.514007 0.4388185 0.5476693 0.4274339 0.5562044 0.4334091 0.5066068 0.4485946 0.5340919 0.4388185 0.5476693 0.4334091 0.5066068 0.4374977 0.4969624 0.4560962 0.5163974 0.440068 0.4857315 0.4608119 0.4957918 0.4560962 0.5163974 0.4409446 0.4736793 0.4624202 0.4736792 0.4608119 0.4957918 0.4409446 0.4736793 0.440068 0.4616269 0.4608119 0.4515666 0.440068 0.4616269 0.4374977 0.450396 0.4560962 0.430961 0.4334091 0.4407517 0.4485946 0.4132665 0.4560962 0.430961 0.4334091 0.4407517 0.4280806 0.4333514 0.4388185 0.3996891 0.4218756 0.4286994 0.4274339 0.391154 0.4388185 0.3996891 0.4152166 0.4271127 0.4152167 0.3882428 0.4274339 0.391154 0.4152166 0.4271127 0.4085578 0.4286994 0.4029995 0.391154 0.4023528 0.4333515 0.3916149 0.3996891 0.4029995 0.391154 0.3970243 0.4407517 0.3818387 0.4132665 0.3916149 0.3996891 0.3929356 0.450396 0.3743372 0.430961 0.3818387 0.4132665 0.3929356 0.450396 0.3903654 0.461627 0.3696215 0.4515666 0.3894887 0.4736792 0.3680131 0.4736792 0.3696215 0.4515666 0.3894887 0.4736792 0.3903654 0.4857315 0.3696215 0.4957918 0.3929356 0.4969624 0.3743372 0.5163974 0.3696215 0.4957918 0.3929356 0.4969624 0.3970244 0.5066069 0.3818387 0.5340919 0.3970244 0.5066069 0.4023527 0.514007 0.3916149 0.5476693 0.4023527 0.514007 0.4085579 0.518659 0.4029995 0.5562044 0.4152167 0.5202457 0.4152167 0.5591156 0.4029995 0.5562044 0.4152167 0.4857832 0.4169476 0.4853709 0.4219073 0.518873 0.4169476 0.4853709 0.4185605 0.4841617 0.4281418 0.5141988 0.4199454 0.4822381 0.4334957 0.5067634 0.4281418 0.5141988 0.4199454 0.4822381 0.4210082 0.4797313 0.4376038 0.4970732 0.4216762 0.476812 0.4401862 0.4857888 0.4376038 0.4970732 0.4219042 0.4736792 0.441067 0.4736793 0.4401862 0.4857888 0.4219042 0.4736792 0.4216763 0.4705466 0.4401863 0.4615696 0.4216763 0.4705466 0.4210082 0.4676272 0.4376037 0.4502851 0.4199455 0.4651206 0.4334957 0.440595 0.4376037 0.4502851 0.4199455 0.4651206 0.4185603 0.4631968 0.4281418 0.4331595 0.4169475 0.4619876 0.4219073 0.4284854 0.4281418 0.4331595 0.4152167 0.4615752 0.4152166 0.4268912 0.4219073 0.4284854 0.4152167 0.4615752 0.4134857 0.4619876 0.4085262 0.4284854 0.4118729 0.4631968 0.4022916 0.4331597 0.4085262 0.4284854 0.4104881 0.4651205 0.3969377 0.440595 0.4022916 0.4331597 0.4104881 0.4651205 0.4094253 0.4676272 0.3928296 0.4502853 0.4087572 0.4705464 0.3902472 0.4615696 0.3928296 0.4502853 0.4087572 0.4705464 0.4085293 0.4736793 0.3893663 0.4736792 0.4087571 0.476812 0.3902471 0.4857888 0.3893663 0.4736792 0.4087571 0.476812 0.4094253 0.4797313 0.3928296 0.4970732 0.410488 0.4822381 0.3969379 0.5067635 0.3928296 0.4970732 0.410488 0.4822381 0.4118731 0.4841618 0.4022915 0.5141988 0.4134859 0.4853708 0.4085262 0.518873 0.4022915 0.5141988 0.4152167 0.4857832 0.4152167 0.5204672 0.4085262 0.518873 0.4169394 0.4853156 0.4169394 0.4853156 0.4152167 0.4857259 0.4185446 0.484112 0.4185446 0.484112 0.4169394 0.4853156 0.419923 0.4821975 0.419923 0.4821975 0.4185446 0.484112 0.4209808 0.4797026 0.4209808 0.4797026 0.419923 0.4821975 0.4216457 0.4767972 0.4216457 0.4767972 0.4209808 0.4797026 0.4218725 0.4736792 0.4218725 0.4736792 0.4216457 0.4767972 0.4216458 0.4705615 0.4216458 0.4705615 0.4218725 0.4736792 0.4209808 0.4676558 0.4209808 0.4676558 0.4216458 0.4705615 0.4199231 0.4651611 0.4199231 0.4651611 0.4209808 0.4676558 0.4185445 0.4632465 0.4185445 0.4632465 0.4199231 0.4651611 0.4169393 0.462043 0.4169393 0.462043 0.4185445 0.4632465 0.4152167 0.4616325 0.4152167 0.4616325 0.4169393 0.462043 0.4134939 0.462043 0.4134939 0.462043 0.4152167 0.4616325 0.4118888 0.4632465 0.4118888 0.4632465 0.4134939 0.462043 0.4105105 0.465161 0.4105105 0.465161 0.4118888 0.4632465 0.4094527 0.4676559 0.4094527 0.4676559 0.4105105 0.465161 0.4087877 0.4705613 0.4087877 0.4705613 0.4094527 0.4676559 0.4085609 0.4736793 0.4085609 0.4736793 0.4087877 0.4705613 0.4087877 0.4767972 0.4087877 0.4767972 0.4085609 0.4736793 0.4094527 0.4797027 0.4094527 0.4797027 0.4087877 0.4767972 0.4105103 0.4821976 0.4105103 0.4821976 0.4094527 0.4797027 0.4118889 0.4841122 0.4118889 0.4841122 0.4105103 0.4821976 0.4134941 0.4853155 0.4134941 0.4853155 0.4118889 0.4841122 0.4152167 0.4857259 0.4152167 0.4857259 0.4134941 0.4853155 0.4152167 0.5038627 0.419533 0.5028345 0.4296588 0.4887711 0.419533 0.5028345 0.4235549 0.499819 0.4296588 0.4887711 0.4235549 0.499819 0.4270085 0.4950221 0.4296588 0.4887711 0.4296588 0.4887711 0.4313247 0.4814914 0.431893 0.4736791 0.431893 0.4736791 0.431325 0.4658675 0.4296588 0.4887711 0.431325 0.4658675 0.4296588 0.4585874 0.4296588 0.4887711 0.4296588 0.4585874 0.4270088 0.4523366 0.4235545 0.4475396 0.4235545 0.4475396 0.4195327 0.4445241 0.4152166 0.4434957 0.4152166 0.4434957 0.4109001 0.4445241 0.4068784 0.4475396 0.4068784 0.4475396 0.403425 0.4523365 0.4007747 0.4585876 0.4007747 0.4585876 0.3991087 0.4658671 0.4007747 0.4887712 0.3991087 0.4658671 0.3985404 0.4736794 0.4007747 0.4887712 0.3985404 0.4736794 0.3991085 0.4814913 0.4007747 0.4887712 0.4007747 0.4887712 0.4034247 0.4950223 0.4068787 0.4998194 0.4068787 0.4998194 0.4109005 0.5028343 0.4152167 0.5038627 0.4296588 0.4585874 0.4235545 0.4475396 0.4152166 0.4434957 0.4152166 0.4434957 0.4068784 0.4475396 0.4007747 0.4585876 0.4007747 0.4887712 0.4068787 0.4998194 0.4007747 0.4585876 0.4068787 0.4998194 0.4152167 0.5038627 0.4007747 0.4585876 0.4152167 0.5038627 0.4296588 0.4887711 0.4296588 0.4585874 0.4296588 0.4585874 0.4152166 0.4434957 0.4152167 0.5038627 0.4152167 0.5202457 0.4152167 0.5591156 0.4274339 0.5562044 0.4218756 0.518659 0.4274339 0.5562044 0.4388185 0.5476693 0.4388185 0.5476693 0.4485946 0.5340919 0.4334091 0.5066068 0.4334091 0.5066068 0.4485946 0.5340919 0.4560962 0.5163974 0.4560962 0.5163974 0.4608119 0.4957918 0.440068 0.4857315 0.440068 0.4857315 0.4608119 0.4957918 0.4624202 0.4736792 0.4624202 0.4736792 0.4608119 0.4515666 0.440068 0.4616269 0.440068 0.4616269 0.4608119 0.4515666 0.4560962 0.430961 0.4560962 0.430961 0.4485946 0.4132665 0.4334091 0.4407517 0.4334091 0.4407517 0.4485946 0.4132665 0.4388185 0.3996891 0.4388185 0.3996891 0.4274339 0.391154 0.4218756 0.4286994 0.4274339 0.391154 0.4152167 0.3882428 0.4152166 0.4271127 0.4152167 0.3882428 0.4029995 0.391154 0.4085578 0.4286994 0.4029995 0.391154 0.3916149 0.3996891 0.4023528 0.4333515 0.3916149 0.3996891 0.3818387 0.4132665 0.3970243 0.4407517 0.3970243 0.4407517 0.3818387 0.4132665 0.3743372 0.430961 0.3743372 0.430961 0.3696215 0.4515666 0.3903654 0.461627 0.3696215 0.4515666 0.3680131 0.4736792 0.3894887 0.4736792 0.3894887 0.4736792 0.3680131 0.4736792 0.3696215 0.4957918 0.3903654 0.4857315 0.3696215 0.4957918 0.3743372 0.5163974 0.3743372 0.5163974 0.3818387 0.5340919 0.3970244 0.5066069 0.3970244 0.5066069 0.3818387 0.5340919 0.3916149 0.5476693 0.3916149 0.5476693 0.4029995 0.5562044 0.4085579 0.518659 0.4085579 0.518659 0.4029995 0.5562044 0.4152167 0.5591156 0.4152167 0.5204672 0.4219073 0.518873 0.4169476 0.4853709 0.4219073 0.518873 0.4281418 0.5141988 0.4185605 0.4841617 0.4185605 0.4841617 0.4281418 0.5141988 0.4334957 0.5067634 0.4334957 0.5067634 0.4376038 0.4970732 0.4210082 0.4797313 0.4210082 0.4797313 0.4376038 0.4970732 0.4401862 0.4857888 0.4401862 0.4857888 0.441067 0.4736793 0.4219042 0.4736792 0.4219042 0.4736792 0.441067 0.4736793 0.4401863 0.4615696 0.4401863 0.4615696 0.4376037 0.4502851 0.4210082 0.4676272 0.4210082 0.4676272 0.4376037 0.4502851 0.4334957 0.440595 0.4199455 0.4651206 0.4334957 0.440595 0.4281418 0.4331595 0.4281418 0.4331595 0.4219073 0.4284854 0.4169475 0.4619876 0.4169475 0.4619876 0.4219073 0.4284854 0.4152166 0.4268912 0.4152166 0.4268912 0.4085262 0.4284854 0.4134857 0.4619876 0.4134857 0.4619876 0.4085262 0.4284854 0.4022916 0.4331597 0.4022916 0.4331597 0.3969377 0.440595 0.4104881 0.4651205 0.4104881 0.4651205 0.3969377 0.440595 0.3928296 0.4502853 0.3928296 0.4502853 0.3902472 0.4615696 0.4087572 0.4705464 0.4087572 0.4705464 0.3902472 0.4615696 0.3893663 0.4736792 0.4085293 0.4736793 0.3893663 0.4736792 0.3902471 0.4857888 0.4087571 0.476812 0.3902471 0.4857888 0.3928296 0.4970732 0.3928296 0.4970732 0.3969379 0.5067635 0.410488 0.4822381 0.410488 0.4822381 0.3969379 0.5067635 0.4022915 0.5141988 0.4022915 0.5141988 0.4085262 0.518873 0.4134859 0.4853708 0.4134859 0.4853708 0.4085262 0.518873 0.4152167 0.5204672 0.4152167 0.4857259 0.4152167 0.4857259 0.4169394 0.4853156 0.4169394 0.4853156 0.4169394 0.4853156 0.4185446 0.484112 0.4185446 0.484112 0.4185446 0.484112 0.419923 0.4821975 0.419923 0.4821975 0.4209808 0.4797026 0.4209808 0.4797026 0.4209808 0.4797026 0.4209808 0.4797026 0.4216457 0.4767972 0.4216457 0.4767972 0.4218725 0.4736792 0.4218725 0.4736792 0.4218725 0.4736792 0.4218725 0.4736792 0.4216458 0.4705615 0.4216458 0.4705615 0.4209808 0.4676558 0.4209808 0.4676558 0.4209808 0.4676558 0.4199231 0.4651611 0.4199231 0.4651611 0.4199231 0.4651611 0.4199231 0.4651611 0.4185445 0.4632465 0.4185445 0.4632465 0.4185445 0.4632465 0.4169393 0.462043 0.4169393 0.462043 0.4169393 0.462043 0.4152167 0.4616325 0.4152167 0.4616325 0.4134939 0.462043 0.4134939 0.462043 0.4134939 0.462043 0.4134939 0.462043 0.4118888 0.4632465 0.4118888 0.4632465 0.4105105 0.465161 0.4105105 0.465161 0.4105105 0.465161 0.4105105 0.465161 0.4094527 0.4676559 0.4094527 0.4676559 0.4087877 0.4705613 0.4087877 0.4705613 0.4087877 0.4705613 0.4087877 0.4705613 0.4085609 0.4736793 0.4085609 0.4736793 0.4087877 0.4767972 0.4087877 0.4767972 0.4087877 0.4767972 0.4094527 0.4797027 0.4094527 0.4797027 0.4094527 0.4797027 0.4105103 0.4821976 0.4105103 0.4821976 0.4105103 0.4821976 0.4105103 0.4821976 0.4118889 0.4841122 0.4118889 0.4841122 0.4134941 0.4853155 0.4134941 0.4853155 0.4134941 0.4853155 0.4134941 0.4853155 0.4152167 0.4857259 0.4560962 0.430961 0.4485946 0.4132665 0.4485946 0.4132665 0.4029995 0.5562044 0.4152167 0.5591156 0.4152167 0.5591156 0.4274339 0.5562044 0.4388185 0.5476693 0.4388185 0.5476693 0.3696215 0.4515666 0.3696215 0.4515666 0.3743372 0.430961 0.4388185 0.3996891 0.4388185 0.3996891 0.4485946 0.4132665 0.4388185 0.5476693 0.4485946 0.5340919 0.4485946 0.5340919 0.3680131 0.4736792 0.3680131 0.4736792 0.3696215 0.4515666 0.4274339 0.391154 0.4274339 0.391154 0.4388185 0.3996891 0.4560962 0.5163974 0.4560962 0.5163974 0.4485946 0.5340919 0.3680131 0.4736792 0.3696215 0.4957918 0.3696215 0.4957918 0.4152167 0.3882428 0.4152167 0.3882428 0.4274339 0.391154 0.4608119 0.4957918 0.4608119 0.4957918 0.4560962 0.5163974 0.3696215 0.4957918 0.3743372 0.5163974 0.3743372 0.5163974 0.4029995 0.391154 0.4029995 0.391154 0.4152167 0.3882428 0.4608119 0.4957918 0.4624202 0.4736792 0.4624202 0.4736792 0.3818387 0.5340919 0.3818387 0.5340919 0.3743372 0.5163974 0.4029995 0.391154 0.3916149 0.3996891 0.3916149 0.3996891 0.4608119 0.4515666 0.4608119 0.4515666 0.4624202 0.4736792 0.3916149 0.5476693 0.3916149 0.5476693 0.3818387 0.5340919 0.3916149 0.3996891 0.3818387 0.4132665 0.3818387 0.4132665 0.4608119 0.4515666 0.4560962 0.430961 0.4560962 0.430961 0.4029995 0.5562044 0.4029995 0.5562044 0.3916149 0.5476693 0.4152167 0.5591156 0.4274339 0.5562044 0.4274339 0.5562044 0.3818387 0.4132665 0.3743372 0.430961 0.3743372 0.430961 0.1431864 0.03804159 0.1577402 0.05009841 0.1637687 0.07920604 0.1637687 0.07920604 0.1577402 0.1083137 0.1431864 0.03804159 0.1577402 0.1083137 0.1431864 0.1203705 0.1431864 0.03804159 0.1431864 0.1203705 0.1286326 0.1083137 0.1431864 0.03804159 0.1286326 0.1083137 0.1226042 0.07920604 0.1431864 0.03804159 0.1683562 0.07920604 0.1609842 0.04361051 0.1180166 0.07920604 0.1609842 0.04361051 0.1431864 0.02886635 0.1180166 0.07920604 0.1431864 0.02886635 0.1253886 0.04361051 0.1180166 0.07920604 0.1180166 0.07920604 0.1253886 0.1148016 0.1683562 0.07920604 0.1253886 0.1148016 0.1431864 0.1295457 0.1683562 0.07920604 0.2528581 0.07920604 0.2528581 0.1083137 0.03351479 0.1396791 0.2528581 0.07920604 0.2528581 0.1083137 0.03351479 0.1396791 0.2528581 0.07920604 0.2528581 0.05009841 0.03351479 0.01873302 0.2528581 0.07920604 0.03351479 0.07920604 0.03351479 0.1396791 0.2528581 0.07920604 0.03351479 0.07920604 0.03351479 0.1396791 0.2528581 0.07920604 0.03351479 0.07920604 0.03351479 0.01873302 0.2528581 0.07920604 0.03351479 0.07920604 0.03351479 0.01873302 0.2528581 0.07920604 0.2528581 0.05009841 0.03351479 0.01873302 0.7066283 0.7621061 0.7166008 0.7621061 0.7207317 0.7621061 0.7207317 0.7621061 0.7166008 0.8154805 0.7066283 0.8154805 0.7066283 0.8154805 0.6966558 0.8154805 0.692525 0.7621061 0.692525 0.7621061 0.6966558 0.7621061 0.7066283 0.7621061 0.7066283 0.7621061 0.7207317 0.7621061 0.692525 0.7621061 0.6966558 0.7309569 0.6966558 0.8154805 0.7066283 0.7621061 0.6966558 0.7309569 0.6966558 0.8154805 0.7066283 0.8154805 0.7166008 0.7309569 0.7166008 0.7621061 0.7066283 0.7621061 0.7166008 0.7309569 0.7166008 0.7621061 0.7066283 0.7621061 0.7066283 0.7309569 0.7066283 0.8154805 0.7166008 0.8154805 0.6966558 0.7309569 0.7066283 0.7309569 0.7066283 0.7621061 0.7066283 0.7309569 0.7066283 0.7621061 0.6966558 0.7621061 0.7066283 0.7309569 0.7066283 0.7621061 0.7166008 0.7621061 0.1616219 0.01892691 0.05015242 0.145105 0.1616219 0.145105 0.1616219 0.01892691 0.05015242 0.145105 0.1616219 0.145105 0.05015242 0.01892691 0.1616219 0.145105 0.05015242 0.145105 0.05015242 0.145105 0.1616219 0.01892691 0.1616219 0.145105 0.1616219 0.02737498 0.05015242 0.1366568 0.1616219 0.1366568 0.4069096 0.9860387 0.3522686 0.7630998 0.4069096 0.7630998 0.0140115 0.07877796 0.2657409 0.1352986 0.0140115 0.1352986 0.0140115 0.02225726 0.2657409 0.07877796 0.2657409 0.0222572 0.0140115 0.1352986 0.2657409 0.07877796 0.0140115 0.07877796 0.0140115 0.1352986 0.2657409 0.07877796 0.0140115 0.07877796 0.0140115 0.02225726 0.2657409 0.07877796 0.0140115 0.07877796 0.0140115 0.02225726 0.2657409 0.07877796 0.0140115 0.07877796 0.0140115 0.02225726 0.2657409 0.07877796 0.2657409 0.0222572 0.0140115 0.07877796 0.2657409 0.1352986 0.0140115 0.1352986 0 0 0 0 0 0 0 0 0 0 0 0 0 0 0 0 0 0 0 0 0 0 0 0 0 0 0 0 0 0 0 0 0 0 0 0 0 0 0 0 0 0 0 0 0 0 0 0 0.1616219 0.01892691 0.05015242 0.145105 0.1616219 0.145105 0.1616219 0.01892691 0.05015242 0.145105 0.1616219 0.145105 0.05015242 0.145105 0.1616219 0.01892691 0.1616219 0.145105 0.05015242 0.01892691 0.1616219 0.145105 0.05015242 0.145105 0.05015242 0.02737498 0.1616219 0.1366568 0.1616219 0.02737498 0.7873939 0.1383323 0.7064543 0.2142086 0.707141 0.1355306 0.1616219 0.01892691 0.05015242 0.01892691 0.05015242 0.145105 0.1616219 0.01892691 0.05015242 0.01892691 0.05015242 0.145105 0.05015242 0.01892691 0.1616219 0.01892691 0.1616219 0.145105 0.05015242 0.145105 0.05015242 0.01892691 0.1616219 0.01892691 0.1616219 0.02737498 0.05015242 0.02737498 0.05015242 0.1366568 0.4069096 0.9860387 0.3522686 0.9860387 0.3522686 0.7630998 0.0140115 0.07877796 0.2657409 0.07877796 0.2657409 0.1352986 0.0140115 0.02225726 0.0140115 0.07877796 0.2657409 0.07877796 0.0140115 0.1352986 0.2657409 0.1352986 0.2657409 0.07877796 0.0140115 0.1352986 0.2657409 0.1352986 0.2657409 0.07877796 0.0140115 0.02225726 0.2657409 0.0222572 0.2657409 0.07877796 0.0140115 0.02225726 0.2657409 0.0222572 0.2657409 0.07877796 0.0140115 0.02225726 0.0140115 0.07877796 0.2657409 0.07877796 0.0140115 0.07877796 0.2657409 0.07877796 0.2657409 0.1352986 0 0 0 0 0 0 0 0 0 0 0 0 0 0 0 0 0 0 0 0 0 0 0 0 0 0 0 0 0 0 0 0 0 0 0 0 0 0 0 0 0 0 0 0 0 0 0 0 0.1616219 0.01892691 0.05015242 0.01892691 0.05015242 0.145105 0.1616219 0.01892691 0.05015242 0.01892691 0.05015242 0.145105 0.05015242 0.145105 0.05015242 0.01892691 0.1616219 0.01892691 0.05015242 0.01892691 0.1616219 0.01892691 0.1616219 0.145105 0.05015242 0.02737498 0.05015242 0.1366568 0.1616219 0.1366568 0.7873939 0.1383323 0.7867072 0.2170102 0.7064543 0.2142086</float_array>
          <technique_common>
            <accessor source="#Cube_002-mesh-map-0-array" count="1626" stride="2">
              <param name="S" type="float"/>
              <param name="T" type="float"/>
            </accessor>
          </technique_common>
        </source>
        <source id="Cube_002-mesh-map-1">
          <float_array id="Cube_002-mesh-map-1-array" count="3252">0.1616219 0.01892691 0.05015242 0.145105 0.1616219 0.145105 0.1616219 0.01892691 0.05015242 0.145105 0.1616219 0.145105 0.05015242 0.01892691 0.1616219 0.145105 0.05015242 0.145105 0.05015242 0.145105 0.1616219 0.01892691 0.1616219 0.145105 0.1616219 0.02737498 0.05015242 0.1366568 0.1616219 0.1366568 0.4069096 0.9860387 0.3522686 0.7630998 0.4069096 0.7630998 0.0140115 0.07877796 0.2657409 0.1352986 0.0140115 0.1352986 0.0140115 0.02225726 0.2657409 0.07877796 0.2657409 0.0222572 0.0140115 0.1352986 0.2657409 0.07877796 0.0140115 0.07877796 0.0140115 0.1352986 0.2657409 0.07877796 0.0140115 0.07877796 0.0140115 0.02225726 0.2657409 0.07877796 0.0140115 0.07877796 0.0140115 0.02225726 0.2657409 0.07877796 0.0140115 0.07877796 0.0140115 0.02225726 0.2657409 0.07877796 0.2657409 0.0222572 0.0140115 0.07877796 0.2657409 0.1352986 0.0140115 0.1352986 0 0 0 0 0 0 0 0 0 0 0 0 0 0 0 0 0 0 0 0 0 0 0 0 0 0 0 0 0 0 0 0 0 0 0 0 0 0 0 0 0 0 0 0 0 0 0 0 0.1616219 0.01892691 0.05015242 0.145105 0.1616219 0.145105 0.1616219 0.01892691 0.05015242 0.145105 0.1616219 0.145105 0.05015242 0.145105 0.1616219 0.01892691 0.1616219 0.145105 0.05015242 0.01892691 0.1616219 0.145105 0.05015242 0.145105 0.05015242 0.02737498 0.1616219 0.1366568 0.1616219 0.02737498 0.7873939 0.1383323 0.7064543 0.2142086 0.707141 0.1355306 0.1616219 0.01892691 0.05015242 0.01892691 0.05015242 0.145105 0.1616219 0.01892691 0.05015242 0.01892691 0.05015242 0.145105 0.05015242 0.01892691 0.1616219 0.01892691 0.1616219 0.145105 0.05015242 0.145105 0.05015242 0.01892691 0.1616219 0.01892691 0.1616219 0.02737498 0.05015242 0.02737498 0.05015242 0.1366568 0.4069096 0.9860387 0.3522686 0.9860387 0.3522686 0.7630998 0.0140115 0.07877796 0.2657409 0.07877796 0.2657409 0.1352986 0.0140115 0.02225726 0.0140115 0.07877796 0.2657409 0.07877796 0.0140115 0.1352986 0.2657409 0.1352986 0.2657409 0.07877796 0.0140115 0.1352986 0.2657409 0.1352986 0.2657409 0.07877796 0.0140115 0.02225726 0.2657409 0.0222572 0.2657409 0.07877796 0.0140115 0.02225726 0.2657409 0.0222572 0.2657409 0.07877796 0.0140115 0.02225726 0.0140115 0.07877796 0.2657409 0.07877796 0.0140115 0.07877796 0.2657409 0.07877796 0.2657409 0.1352986 0 0 0 0 0 0 0 0 0 0 0 0 0 0 0 0 0 0 0 0 0 0 0 0 0 0 0 0 0 0 0 0 0 0 0 0 0 0 0 0 0 0 0 0 0 0 0 0 0.1616219 0.01892691 0.05015242 0.01892691 0.05015242 0.145105 0.1616219 0.01892691 0.05015242 0.01892691 0.05015242 0.145105 0.05015242 0.145105 0.05015242 0.01892691 0.1616219 0.01892691 0.05015242 0.01892691 0.1616219 0.01892691 0.1616219 0.145105 0.05015242 0.02737498 0.05015242 0.1366568 0.1616219 0.1366568 0.7873939 0.1383323 0.7867072 0.2170102 0.7064543 0.2142086 0 0 0 0 0 0 0 0 0 0 0 0 0 0 0 0 0 0 0 0 0 0 0 0 0 0 0 0 0 0 0 0 0 0 0 0 0 0 0 0 0 0 0 0 0 0 0 0 0 0 0 0 0 0 0 0 0 0 0 0 0 0 0 0 0 0 0 0 0 0 0 0 0 0 0 0 0 0 0 0 0 0 0 0 0 0 0 0 0 0 0 0 0 0 0 0 0 0 0 0 0 0 0 0 0 0 0 0 0 0 0 0 0 0 0 0 0 0 0 0 0 0 0 0 0 0 0 0 0 0 0 0 0 0 0 0 0 0 0 0 0 0 0 0 0 0 0 0 0 0 0 0 0 0 0 0 0 0 0 0 0 0 0 0 0 0 0 0 0 0 0 0 0 0 0 0 0 0 0 0 0 0 0 0 0 0 0 0 0 0 0 0 0 0 0 0 0 0 0 0 0 0 0 0 0 0 0 0 0 0 0 0 0 0 0 0 0 0 0 0 0 0 0 0 0 0 0 0 0 0 0 0 0 0 0 0 0 0 0 0 0 0 0 0 0 0 0 0 0 0 0 0 0 0 0 0 0 0 0 0 0 0 0 0 0 0 0 0 0 0 0 0 0 0 0 0 0 0 0 0 0 0 0 0 0 0 0 0 0 0 0 0 0 0 0 0 0 0 0 0 0 0 0 0 0 0 0 0 0 0 0 0 0 0 0 0 0 0 0 0 0 0 0 0 0 0 0 0 0 0 0 0 0 0 0 0 0 0 0 0 0 0 0 0 0 0 0 0 0 0 0 0 0 0 0 0 0 0 0 0 0 0 0 0 0 0 0 0 0 0 0 0 0 0 0 0 0 0 0 0 0 0 0 0 0 0 0 0 0 0 0 0 0 0 0 0 0 0 0 0 0 0 0 0 0 0 0 0 0 0 0 0 0 0 0 0 0 0 0 0 0 0 0 0 0 0 0 0 0 0 0 0 0 0 0 0 0 0 0 0 0 0 0 0 0 0 0 0 0 0 0 0 0 0 0 0 0 0 0 0 0 0 0 0 0 0 0 0 0 0 0 0 0 0 0 0 0 0 0 0 0 0 0 0 0 0 0 0 0 0 0 0 0 0 0 0 0 0 0 0 0 0 0 0 0 0 0 0 0 0 0 0 0 0 0 0 0 0 0 0 0 0 0 0 0 0 0 0 0 0 0 0 0 0 0 0 0 0 0 0 0 0 0 0 0 0 0 0 0 0 0 0 0 0 0 0 0 0 0 0 0 0 0 0 0 0 0 0 0 0 0 0 0 0 0 0 0 0 0 0 0 0 0 0 0 0 0 0 0 0 0 0 0 0 0 0 0 0 0 0 0 0 0 0 0 0 0 0 0 0 0 0 0 0 0 0 0 0 0 0 0 0 0 0 0 0 0 0 0 0 0 0 0 0 0 0 0 0 0 0 0 0 0 0 0 0 0 0 0 0 0 0 0 0 0 0 0 0 0 0 0 0 0 0 0 0 0 0 0 0 0 0 0 0 0 0 0 0 0 0 0 0 0 0 0 0 0 0 0 0 0 0 0 0 0 0 0 0 0 0 0 0 0 0 0 0 0 0 0 0 0 0 0 0 0 0 0 0 0 0 0 0 0 0 0 0 0 0 0 0 0 0 0 0 0 0 0 0 0 0 0 0 0 0 0 0 0 0 0 0 0 0 0 0 0 0 0 0 0 0 0 0 0 0 0 0 0 0 0 0 0 0 0 0 0 0 0 0 0 0 0 0 0 0 0 0 0 0 0 0 0 0 0 0 0 0 0 0 0 0 0 0 0 0 0 0 0 0 0 0 0 0 0 0 0 0 0 0 0 0 0 0 0 0 0 0 0 0 0 0 0 0 0 0 0 0 0 0 0 0 0 0 0 0 0 0 0 0 0 0 0 0 0 0 0 0 0 0 0 0 0 0 0 0 0 0 0 0 0 0 0 0 0 0 0 0 0 0 0 0 0 0 0 0 0 0 0 0 0 0 0 0 0 0 0 0 0 0 0 0 0 0 0 0 0 0 0 0 0 0 0 0 0 0 0 0 0 0 0 0 0 0 0 0 0 0 0 0 0 0 0 0 0 0 0 0 0 0 0 0 0 0 0 0 0 0 0 0 0 0 0 0 0 0 0 0 0 0 0 0 0 0 0 0 0 0 0 0 0 0 0 0 0 0 0 0 0 0 0 0 0 0 0 0 0 0 0 0 0 0 0 0 0 0 0 0 0 0 0 0 0 0 0 0 0 0 0 0 0 0 0 0 0 0 0 0 0 0 0 0 0 0 0 0 0 0 0 0 0 0 0 0 0 0 0 0 0 0 0 0 0 0 0 0 0 0 0 0 0 0 0 0 0 0 0 0 0 0 0 0 0 0 0 0 0 0 0 0 0 0 0 0 0 0 0 0 0 0 0 0 0 0 0 0 0 0 0 0 0 0 0 0 0 0 0 0 0 0 0 0 0 0 0 0 0 0 0 0 0 0 0 0 0 0 0 0 0 0 0 0 0 0 0 0 0 0 0 0 0 0 0 0 0 0 0 0 0 0 0 0 0 0 0 0 0 0 0 0 0 0 0 0 0 0 0 0 0 0 0 0 0 0 0 0 0 0 0 0 0 0 0 0 0 0 0 0 0 0 0 0 0 0 0 0 0 0 0 0 0 0 0 0 0 0 0 0 0 0 0 0 0 0 0 0 0 0 0 0 0 0 0 0 0 0 0 0 0 0 0 0 0 0 0 0 0 0 0 0 0 0 0 0 0 0 0 0 0 0 0 0 0 0 0 0 0 0 0 0 0 0 0 0 0 0 0 0 0 0 0 0 0 0 0 0 0 0 0 0 0 0 0 0 0 0 0 0 0 0 0 0 0 0 0 0 0 0 0 0 0 0 0 0 0 0 0 0 0 0 0 0 0 0 0 0 0 0 0 0 0 0 0 0 0 0 0 0 0 0 0 0 0 0 0 0 0 0 0 0 0 0 0 0 0 0 0 0 0 0 0 0 0 0 0 0 0 0 0 0 0 0 0 0 0 0 0 0 0 0 0 0 0 0 0 0 0 0 0 0 0 0 0 0 0 0 0 0 0 0 0 0 0 0 0 0 0 0 0 0 0 0 0 0 0 0 0 0 0 0 0 0 0 0 0 0 0 0 0 0 0 0 0 0 0 0 0 0 0 0 0 0 0 0 0 0 0 0 0 0 0 0 0 0 0 0 0 0 0 0 0 0 0 0 0 0 0 0 0 0 0 0 0 0 0 0 0 0 0 0 0 0 0 0 0 0 0 0 0 0 0 0 0 0 0 0 0 0 0 0 0 0 0 0 0 0 0 0 0 0 0 0 0 0 0 0 0 0 0 0 0 0 0 0 0 0 0 0 0 0 0 0 0 0 0 0 0 0 0 0 0 0 0 0 0 0 0 0 0 0 0 0 0 0 0 0 0 0 0 0 0 0 0 0 0 0 0 0 0 0 0 0 0 0 0 0 0 0 0 0 0 0 0 0 0 0 0 0 0 0 0 0 0 0 0 0 0 0 0 0 0 0 0 0 0 0 0 0 0 0 0 0 0 0 0 0 0 0 0 0 0 0 0 0 0 0 0 0 0 0 0 0 0 0 0 0 0 0 0 0 0 0 0 0 0 0 0 0 0 0 0 0 0 0 0 0 0 0 0 0 0 0 0 0 0 0 0 0 0 0 0 0 0 0 0 0 0 0 0 0 0 0 0 0 0 0 0 0 0 0 0 0 0 0 0 0 0 0 0 0 0 0 0 0 0 0 0 0 0 0 0 0 0 0 0 0 0 0 0 0 0 0 0 0 0 0 0 0 0 0 0 0 0 0 0 0 0 0 0 0 0 0 0 0 0 0 0 0 0 0 0 0 0 0 0 0 0 0 0 0 0 0 0 0 0 0 0 0 0 0 0 0 0 0 0 0 0 0 0 0 0 0 0 0 0 0 0 0 0 0 0 0 0 0 0 0 0 0 0 0 0 0 0 0 0 0 0 0 0 0 0 0 0 0 0 0 0 0 0 0 0 0 0 0 0 0 0 0 0 0 0 0 0 0 0 0 0 0 0 0 0 0 0 0 0 0 0 0 0 0 0 0 0 0 0 0 0 0 0 0 0 0 0 0 0 0 0 0 0 0 0 0 0 0 0 0 0 0 0 0 0 0 0 0 0 0 0 0 0 0 0 0 0 0 0 0 0 0 0 0 0 0 0 0 0 0 0 0 0 0 0 0 0 0 0 0 0 0 0 0 0 0 0 0 0 0 0 0 0 0 0 0 0 0 0 0 0 0 0 0 0 0 0 0 0 0 0 0 0 0 0 0 0 0 0 0 0 0 0 0 0 0 0 0 0 0 0 0 0 0 0 0 0 0 0 0 0 0 0 0 0 0 0 0 0 0 0 0 0 0 0 0 0 0 0 0 0 0 0 0 0 0 0 0 0 0 0 0 0 0 0 0 0 0 0 0 0 0 0 0 0 0 0 0 0 0 0 0 0 0 0 0 0 0 0 0 0 0 0 0 0 0 0 0 0 0 0 0 0 0 0 0 0 0 0 0 0 0 0 0 0 0 0 0 0 0 0 0 0 0 0 0 0 0 0 0 0 0 0 0 0 0 0 0 0 0 0 0 0 0 0 0 0 0 0 0 0 0 0 0 0 0 0 0 0 0 0 0 0 0 0 0 0 0 0 0 0 0 0 0 0 0 0 0 0 0 0 0 0 0 0 0 0 0 0 0 0 0 0 0 0 0 0 0 0 0 0 0 0 0 0 0 0 0 0 0 0 0 0 0 0 0 0 0 0 0 0 0 0 0 0 0 0 0 0 0 0 0 0 0 0 0 0 0 0 0 0 0 0 0 0 0 0 0 0 0 0 0 0 0 0 0 0 0 0 0 0 0 0 0 0 0 0 0 0 0 0 0 0 0 0 0 0 0 0 0 0 0 0 0 0 0 0 0 0 0 0 0 0 0 0 0 0 0 0 0 0 0 0 0 0 0 0 0 0 0 0 0 0 0 0 0 0 0 0 0 0 0 0 0 0 0 0 0 0 0 0 0 0 0 0 0 0 0 0 0 0 0 0 0 0 0 0 0 0 0 0 0 0 0 0 0 0 0 0 0 0 0 0 0 0 0 0 0 0 0 0 0 0 0 0 0 0 0 0 0 0 0 0 0 0 0 0 0 0 0 0 0 0 0 0 0 0 0 0 0 0 0 0 0 0 0 0 0 0 0 0 0 0 0 0 0 0 0 0 0 0 0 0 0 0 0 0 0 0 0 0 0 0 0 0 0 0 0 0 0 0 0 0 0 0 0 0 0 0 0 0 0 0 0 0 0 0 0 0 0 0 0 0 0 0 0 0 0 0 0 0 0 0 0 0 0 0 0 0 0 0 0 0 0 0 0 0 0 0 0 0 0 0 0 0 0 0 0 0 0 0 0 0 0 0 0 0 0 0 0 0 0 0 0 0 0 0 0 0 0 0 0 0 0 0 0 0 0 0 0 0 0 0 0 0 0 0 0 0 0 0 0 0 0 0 0 0 0 0 0 0 0 0 0 0 0 0 0 0 0 0 0 0 0 0 0 0 0 0 0 0 0 0 0 0 0 0 0 0 0 0 0 0 0 0 0 0 0 0 0 0 0 0 0 0 0 0 0 0 0 0 0 0 0 0 0 0 0 0 0 0 0 0 0 0 0 0 0 0 0 0 0 0 0 0 0 0 0 0 0 0 0 0 0 0 0 0 0 0 0 0 0 0 0 0 0 0 0 0 0 0 0 0 0 0 0 0.1616219 0.01892691 0.05015242 0.145105 0.1616219 0.145105 0.1616219 0.01892691 0.05015242 0.145105 0.1616219 0.145105 0.05015242 0.01892691 0.1616219 0.145105 0.05015242 0.145105 0.05015242 0.145105 0.1616219 0.01892691 0.1616219 0.145105 0.1616219 0.02737498 0.05015242 0.1366568 0.1616219 0.1366568 0.4069096 0.9860387 0.3522686 0.7630998 0.4069096 0.7630998 0.0140115 0.07877796 0.2657409 0.1352986 0.0140115 0.1352986 0.0140115 0.02225726 0.2657409 0.07877796 0.2657409 0.0222572 0.0140115 0.1352986 0.2657409 0.07877796 0.0140115 0.07877796 0.0140115 0.1352986 0.2657409 0.07877796 0.0140115 0.07877796 0.0140115 0.02225726 0.2657409 0.07877796 0.0140115 0.07877796 0.0140115 0.02225726 0.2657409 0.07877796 0.0140115 0.07877796 0.0140115 0.02225726 0.2657409 0.07877796 0.2657409 0.0222572 0.0140115 0.07877796 0.2657409 0.1352986 0.0140115 0.1352986 0 0 0 0 0 0 0 0 0 0 0 0 0 0 0 0 0 0 0 0 0 0 0 0 0 0 0 0 0 0 0 0 0 0 0 0 0 0 0 0 0 0 0 0 0 0 0 0 0.1616219 0.01892691 0.05015242 0.145105 0.1616219 0.145105 0.1616219 0.01892691 0.05015242 0.145105 0.1616219 0.145105 0.05015242 0.145105 0.1616219 0.01892691 0.1616219 0.145105 0.05015242 0.01892691 0.1616219 0.145105 0.05015242 0.145105 0.05015242 0.02737498 0.1616219 0.1366568 0.1616219 0.02737498 0.7873939 0.1383323 0.7064543 0.2142086 0.707141 0.1355306 0.1616219 0.01892691 0.05015242 0.01892691 0.05015242 0.145105 0.1616219 0.01892691 0.05015242 0.01892691 0.05015242 0.145105 0.05015242 0.01892691 0.1616219 0.01892691 0.1616219 0.145105 0.05015242 0.145105 0.05015242 0.01892691 0.1616219 0.01892691 0.1616219 0.02737498 0.05015242 0.02737498 0.05015242 0.1366568 0.4069096 0.9860387 0.3522686 0.9860387 0.3522686 0.7630998 0.0140115 0.07877796 0.2657409 0.07877796 0.2657409 0.1352986 0.0140115 0.02225726 0.0140115 0.07877796 0.2657409 0.07877796 0.0140115 0.1352986 0.2657409 0.1352986 0.2657409 0.07877796 0.0140115 0.1352986 0.2657409 0.1352986 0.2657409 0.07877796 0.0140115 0.02225726 0.2657409 0.0222572 0.2657409 0.07877796 0.0140115 0.02225726 0.2657409 0.0222572 0.2657409 0.07877796 0.0140115 0.02225726 0.0140115 0.07877796 0.2657409 0.07877796 0.0140115 0.07877796 0.2657409 0.07877796 0.2657409 0.1352986 0 0 0 0 0 0 0 0 0 0 0 0 0 0 0 0 0 0 0 0 0 0 0 0 0 0 0 0 0 0 0 0 0 0 0 0 0 0 0 0 0 0 0 0 0 0 0 0 0.1616219 0.01892691 0.05015242 0.01892691 0.05015242 0.145105 0.1616219 0.01892691 0.05015242 0.01892691 0.05015242 0.145105 0.05015242 0.145105 0.05015242 0.01892691 0.1616219 0.01892691 0.05015242 0.01892691 0.1616219 0.01892691 0.1616219 0.145105 0.05015242 0.02737498 0.05015242 0.1366568 0.1616219 0.1366568 0.7873939 0.1383323 0.7867072 0.2170102 0.7064543 0.2142086</float_array>
          <technique_common>
            <accessor source="#Cube_002-mesh-map-1-array" count="1626" stride="2">
              <param name="S" type="float"/>
              <param name="T" type="float"/>
            </accessor>
          </technique_common>
        </source>
        <source id="Cube_002-mesh-map-2">
          <float_array id="Cube_002-mesh-map-2-array" count="3252">0 0 0 0 0 0 0 0 0 0 0 0 0 0 0 0 0 0 0 0 0 0 0 0 0 0 0 0 0 0 0 0 0 0 0 0 0 0 0 0 0 0 0 0 0 0 0 0 0 0 0 0 0 0 0 0 0 0 0 0 0 0 0 0 0 0 0 0 0 0 0 0 0 0 0 0 0 0 0 0 0 0 0 0 0 0 0 0 0 0 0 0 0 0 0 0 0 0 0 0 0 0 0 0 0 0 0 0 0 0 0 0 0 0 0 0 0 0 0 0 0 0 0 0 0 0 0 0 0 0 0 0 0 0 0 0 0 0 0 0 0 0 0 0 0 0 0 0 0 0 0 0 0 0 0 0 0 0 0 0 0 0 0 0 0 0 0 0 0 0 0 0 0 0 0 0 0 0 0 0 0 0 0 0 0 0 0 0 0 0 0 0 0 0 0 0 0 0 0 0 0 0 0 0 0 0 0 0 0 0 0 0 0 0 0 0 0 0 0 0 0 0 0 0 0 0 0 0 0 0 0 0 0 0 0 0 0 0 0 0 0 0 0 0 0 0 0 0 0 0 0 0 0 0 0 0 0 0 0 0 0 0 0 0 0 0 0 0 0 0 0 0 0 0 0 0 0 0 0 0 0 0 0 0 0 0 0 0 0 0 0 0 0 0 0 0 0 0 0 0 0 0 0 0 0 0 0 0 0 0 0 0 0 0 0 0 0 0 0 0 0 0 0 0 0 0 0 0 0 0 0 0 0 0 0 0 0 0 0 0 0 0 0 0 0 0 0 0 0 0 0 0 0 0 0 0 0 0 0 0 0 0 0 0 0 0 0 0 0 0 0 0 0 0 0 0 0 0 0 0 0 0 0 0 0 0 0 0 0 0 0 0 0 0 0 0 0 0 0 0 0 0 0 0 0 0 0 0 0 0 0 0 0 0 0 0 0 0 0 0 0 0 0 0 0 0 0 0 0 0 0 0 0 0 0 0 0 0 0 0 0 0 0 0 0 0 0 0 0 0 0 0 0 0 0 0 0 0 0 0 0 0 0 0 0 0 0 0 0 0 0 0 0 0 0 0 0 0 0 0 0 0 0 0 0 0 0 0 0 0 0 0 0 0 0 0 0 0 0 0 0 0 0 0 0 0 0 0 0 0 0 0 0 0 0 0 0 0 0 0 0 0 0 0 0 0 0 0 0 0 0 0 0 0 0 0 0 0 0 0 0 0 0 0 0 0 0 0 0 0 0 0 0 0 0 0 0 0 0 0 0 0 0 0 0 0 0 0 0 0 0 0 0 0 0 0 0 0 0 0 0 0 0 0 0 0 0 0 0 0 0 0 0 0 0 0 0 0 0 0 0 0 0 0 0 0 0 0 0 0 0 0 0 0 0 0 0 0 0 0 0 0 0 0 0 0 0 0 0 0 0 0 0 0 0 0 0 0 0 0 0 0 0 0 0 0 0 0 0 0 0 0 0 0 0 0 0 0 0 0 0 0 0 0 0 0 0 0 0 0 0 0 0 0 0 0 0 0 0 0 0 0 0 0 0 0 0 0 0 0 0 0 0 0 0 0 0 0 0 0 0 0 0 0 0 0 0 0 0 0 0 0 0 0 0 0 0 0 0 0 0 0 0 0 0 0 0 0 0 0 0 0 0 0 0 0 0 0 0 0 0 0 0 0 0 0 0 0 0 0 0 0 0 0 0 0 0 0 0 0 0 0 0 0 0 0 0 0 0 0 0 0 0 0 0 0 0 0 0 0 0 0 0 0 0 0 0 0 0 0 0 0 0 0 0 0 0 0 0 0 0 0 0 0 0 0 0 0 0 0 0 0 0 0 0 0 0 0 0 0 0 0 0 0 0 0 0 0 0 0 0 0 0 0 0 0 0 0 0 0 0 0 0 0 0 0 0 0 0 0 0 0 0 0 0 0 0 0 0 0 0 0 0 0 0 0 0 0 0 0 0 0 0 0 0 0 0 0 0 0 0 0 0 0 0 0 0 0 0 0 0 0 0 0 0 0 0 0 0 0 0 0 0 0 0 0 0 0 0 0 0 0 0 0 0 0 0 0 0 0 0 0 0 0 0 0 0 0 0 0 0 0 0 0 0 0 0 0 0 0 0 0 0 0 0 0 0 0 0 0 0 0 0 0 0 0 0 0 0 0 0 0 0 0 0 0 0 0 0 0 0 0 0 0 0 0 0 0 0 0 0 0 0 0 0 0 0 0 0 0 0 0 0 0 0 0 0 0 0 0 0 0 0 0 0 0 0 0 0 0 0 0 0 0 0 0 0 0 0 0 0 0 0 0 0 0 0 0 0 0 0 0 0 0 0 0 0 0 0 0 0 0 0 0 0 0 0 0 0 0 0 0 0 0 0 0 0 0 0 0 0 0 0 0 0 0 0 0 0 0 0 0 0 0 0 0 0 0 0 0 0 0 0 0 0 0 0 0 0 0 0 0 0 0 0 0 0 0 0 0 0 0 0 0 0 0 0 0 0 0 0 0 0 0 0 0 0 0 0 0 0 0 0 0 0 0 0 0 0 0 0 0 0 0 0 0 0 0 0 0 0 0 0 0 0 0 0 0 0 0 0 0 0 0 0 0 0 0 0 0 0 0 0 0 0 0 0 0 0 0 0 0 0 0 0 0 0 0 0 0 0 0 0 0 0 0 0 0 0 0 0 0 0 0 0 0 0 0 0 0 0 0 0 0 0 0 0 0 0 0 0 0 0 0 0 0 0 0 0 0 0 0 0 0 0 0 0 0 0 0 0 0 0 0 0 0 0 0 0 0 0 0 0 0 0 0 0 0 0 0 0 0 0 0 0 0 0 0 0 0 0 0 0 0 0 0 0 0 0 0 0 0 0 0 0 0 0 0 0 0 0 0 0 0 0 0 0 0 0 0 0 0 0 0 0 0 0 0 0 0 0 0 0 0 0 0 0 0 0 0 0 0 0 0 0 0 0 0 0 0 0 0 0 0 0 0 0 0 0 0 0 0 0 0 0 0 0 0 0 0 0 0 0 0 0 0 0 0 0 0 0 0 0 0 0 0 0.0859251 0.07877796 0.09763091 0.02225726 0.1258912 -0.001154184 0.1258912 0.1587101 0.1541514 0.1352986 0.1658573 0.07877796 0.0859251 0.07877796 0.09763091 0.1352986 0.0859251 0.07877796 0.1258912 -0.001154184 0.09763091 0.02225726 0.1258912 -0.001154184 0.1658573 0.07877796 0.1541514 0.02225726 0.1658573 0.07877796 0.1658573 0.07877796 0.1541514 0.1352986 0.1541514 0.1352986 0.1258912 0.1587101 0.09763091 0.1352986 0.09763091 0.1352986 0.0859251 0.07877796 0.09763091 0.02225726 0.09763091 0.02225726 0.1258912 -0.001154184 0.1541514 0.02225726 0.1541514 0.02225726 0.1258912 0.1587101 0.1541514 0.1352986 0.1258912 0.1587101 0.1658573 0.07877796 0.1258912 0.1587101 0.0859251 0.07877796 0.1541514 0.1352986 0.1658573 0.07877796 0.1658573 0.07877796 0.09763091 0.1352986 0.1258912 0.1587101 0.1258912 0.1587101 0.09763091 0.02225726 0.0859251 0.07877796 0.0859251 0.07877796 0.1541514 0.02225726 0.1258912 -0.001154184 0.1258912 -0.001154184 0.1258912 0.1587101 0.1541514 0.1352986 0.1541514 0.1352986 0.09763091 0.1352986 0.0859251 0.07877796 0.09763091 0.1352986 0.1258912 -0.001154184 0.09763091 0.02225726 0.09763091 0.02225726 0.1658573 0.07877796 0.1541514 0.02225726 0.1541514 0.02225726 0 0 0 0 0 0 0 0 0 0 0 0 0 0 0 0 0 0 0 0 0 0 0 0 0 0 0 0 0 0 0 0 0 0 0 0 0 0 0 0 0 0 0 0 0 0 0 0 0 0 0 0 0 0 0 0 0 0 0 0 0 0 0 0 0 0 0 0 0 0 0 0 0 0 0 0 0 0 0 0 0 0 0 0 0 0 0 0 0 0 0 0 0 0 0 0 0 0 0 0 0 0 0 0 0 0 0 0 0 0 0 0 0 0 0 0 0 0 0 0 0 0 0 0 0 0 0 0 0 0 0 0 0 0 0 0 0 0 0 0 0 0 0 0 0 0 0 0 0 0 0 0 0 0 0 0 0 0 0 0 0 0 0 0 0 0 0 0 0 0 0 0 0 0 0 0 0 0 0 0 0 0 0 0 0 0 0 0 0 0 0 0 0 0 0 0 0 0 0 0 0 0 0 0 0 0 0 0 0 0 0 0 0 0 0 0 0 0 0 0 0 0 0 0 0 0 0 0 0 0 0 0 0 0 0 0 0 0 0 0 0 0 0 0 0 0 0 0 0 0 0 0 0 0 0 0 0 0 0 0 0 0 0 0 0 0 0 0 0 0 0 0 0 0 0 0 0 0 0 0 0 0 0 0 0 0 0 0 0 0 0 0 0 0 0 0 0 0 0 0 0 0 0 0 0 0 0 0 0 0 0 0 0 0 0 0 0 0 0 0 0 0 0 0 0 0 0 0 0 0 0 0 0 0 0 0 0 0 0 0 0 0 0 0 0 0 0 0 0 0 0 0 0 0 0 0 0 0 0 0 0 0 0 0 0 0 0 0 0 0 0 0 0 0 0 0 0 0 0 0 0 0 0 0 0 0 0 0 0 0 0 0 0 0 0 0 0 0 0 0 0 0 0 0 0 0 0 0 0 0 0 0 0 0 0 0 0 0 0 0 0 0 0 0 0 0 0 0 0 0 0 0 0 0 0 0 0 0 0 0 0 0 0 0 0 0 0 0 0 0 0 0 0 0 0 0 0 0 0 0 0 0 0 0 0 0 0 0 0 0 0 0 0 0 0 0 0 0 0 0 0 0 0 0 0 0 0 0 0 0 0 0 0 0 0 0 0 0 0 0 0 0 0 0 0 0 0 0 0 0 0 0 0 0 0 0 0 0 0 0 0 0 0 0 0 0 0 0 0 0 0 0 0 0 0 0 0 0 0 0 0 0 0 0 0 0 0 0 0 0 0 0 0 0 0 0 0 0 0 0 0 0 0 0 0 0 0 0 0 0 0 0 0 0 0 0 0 0 0 0 0 0 0 0 0 0 0 0 0 0 0 0 0 0 0 0 0 0 0 0 0 0 0 0 0 0 0 0 0 0 0 0 0 0 0 0 0 0 0 0 0 0 0 0 0 0 0 0 0 0 0 0 0 0 0 0 0 0 0 0 0 0 0 0 0 0 0 0 0 0 0 0 0 0 0 0 0 0 0 0 0 0 0 0 0 0 0 0 0 0 0 0 0 0 0 0 0 0 0 0 0 0 0 0 0 0 0 0 0 0 0 0 0 0 0 0 0 0 0 0 0 0 0 0 0 0 0 0 0 0 0 0 0 0 0 0 0 0 0 0 0 0 0 0 0 0 0 0 0 0 0 0 0 0 0 0 0 0 0 0 0 0 0 0 0 0 0 0 0 0 0 0 0 0 0 0 0 0 0 0 0 0 0 0 0 0 0 0 0 0 0 0 0 0 0 0 0 0 0 0 0 0 0 0 0 0 0 0 0 0 0 0 0 0 0 0 0 0 0 0 0 0 0 0 0 0 0 0 0 0 0 0 0 0 0 0 0 0 0 0 0 0 0 0 0 0 0 0 0 0 0 0 0 0 0 0 0 0 0 0 0 0 0 0 0 0 0 0 0 0 0 0 0 0 0 0 0 0 0 0 0 0 0 0 0 0 0 0 0 0 0 0 0 0 0 0 0 0 0 0 0 0 0 0 0 0 0 0 0 0 0 0 0 0 0 0 0 0 0 0 0 0 0 0 0 0 0 0 0 0 0 0 0 0 0 0 0 0 0 0 0 0 0 0 0 0 0 0 0 0 0 0 0 0 0 0 0 0 0 0 0 0 0 0 0 0 0 0 0 0 0 0 0 0 0 0 0 0 0 0 0 0 0 0 0 0 0 0 0 0 0 0 0 0 0 0 0 0 0 0 0 0 0 0 0 0 0 0 0 0 0 0 0 0 0 0 0 0 0 0 0 0 0 0 0 0 0 0 0 0 0 0 0 0 0 0 0 0 0 0 0 0 0 0 0 0 0 0 0 0 0 0 0 0 0 0 0 0 0 0 0 0 0 0 0 0 0 0 0 0 0 0 0 0 0 0 0 0 0 0 0 0 0 0 0 0 0 0 0 0 0 0 0 0 0 0 0 0 0 0 0 0 0 0 0 0 0 0 0 0 0 0 0 0 0 0 0 0 0 0 0 0 0 0 0 0 0 0 0 0 0 0 0 0 0 0 0 0 0 0 0 0 0 0 0 0 0 0 0 0 0 0 0 0 0 0 0 0 0 0 0 0 0 0 0 0 0 0 0 0 0 0 0 0 0 0 0 0 0 0 0 0 0 0 0 0 0 0 0 0 0 0 0 0 0 0 0 0 0 0 0 0 0 0 0 0 0 0 0 0 0 0 0 0 0 0 0 0 0 0 0 0 0 0 0 0 0 0 0 0 0 0 0 0 0 0 0 0 0 0 0 0 0 0 0 0 0 0 0 0 0 0 0 0 0 0 0 0 0 0 0 0 0 0 0 0 0 0 0 0 0 0 0 0 0 0 0 0 0 0 0.1258912 -0.001154184 0.1541514 0.02225726 0.1658573 0.07877796 0.1658573 0.07877796 0.1541514 0.1352986 0.1258912 -0.001154184 0.1541514 0.1352986 0.1258912 0.1587101 0.1258912 -0.001154184 0.1258912 0.1587101 0.09763091 0.1352986 0.1258912 -0.001154184 0.09763091 0.1352986 0.0859251 0.07877796 0.1258912 -0.001154184 0.1658573 0.07877796 0.1541514 0.02225726 0.0859251 0.07877796 0.1541514 0.02225726 0.1258912 -0.001154184 0.0859251 0.07877796 0.1258912 -0.001154184 0.09763091 0.02225726 0.0859251 0.07877796 0.0859251 0.07877796 0.09763091 0.1352986 0.1658573 0.07877796 0.09763091 0.1352986 0.1258912 0.1587101 0.1658573 0.07877796 0.0859251 0.07877796 0.09763091 0.1352986 0.09763091 0.1352986 0.1258912 -0.001154184 0.09763091 0.02225726 0.09763091 0.02225726 0.1658573 0.07877796 0.1541514 0.02225726 0.1541514 0.02225726 0.1658573 0.07877796 0.1658573 0.07877796 0.1541514 0.1352986 0.1258912 0.1587101 0.1258912 0.1587101 0.09763091 0.1352986 0.0859251 0.07877796 0.0859251 0.07877796 0.09763091 0.02225726 0.1258912 -0.001154184 0.1258912 -0.001154184 0.1541514 0.02225726 0.1258912 0.1587101 0.1541514 0.1352986 0.1541514 0.1352986 0.1258912 -0.001154184 0.1541514 0.02225726 0.1658573 0.07877796 0.1658573 0.07877796 0.1541514 0.1352986 0.1258912 0.1587101 0.1258912 0.1587101 0.09763091 0.1352986 0.0859251 0.07877796 0.0859251 0.07877796 0.09763091 0.02225726 0.1258912 -0.001154184 0.1258912 -0.001154184 0.1658573 0.07877796 0.0859251 0.07877796 0.1541514 0.1352986 0.1541514 0.1352986 0.1658573 0.07877796 0.09763091 0.1352986 0.09763091 0.1352986 0.1258912 0.1587101 0.09763091 0.02225726 0.09763091 0.02225726 0.0859251 0.07877796 0.1541514 0.02225726 0.1541514 0.02225726 0.1258912 -0.001154184 0.1258912 0.1587101 0.1258912 0.1587101 0.1541514 0.1352986 0.09763091 0.1352986 0.0859251 0.07877796 0.0859251 0.07877796 0.1258912 -0.001154184 0.1258912 -0.001154184 0.09763091 0.02225726 0.1658573 0.07877796 0.1658573 0.07877796 0.1541514 0.02225726 0 0 0 0 0 0 0 0 0 0 0 0 0 0 0 0 0 0 0 0 0 0 0 0 0 0 0 0 0 0 0 0 0 0 0 0 0 0 0 0 0 0 0 0 0 0 0 0 0 0 0 0 0 0 0 0 0 0 0 0 0 0 0 0 0 0 0 0 0 0 0 0 0 0 0 0 0 0 0 0 0 0 0 0 0 0 0 0 0 0 0 0 0 0 0 0 0 0 0 0 0 0 0 0 0 0 0 0 0 0 0 0 0 0 0 0 0 0 0 0 0 0 0 0 0 0 0 0 0 0 0 0 0 0 0 0 0 0 0 0 0 0 0 0 0 0 0 0 0 0 0 0 0 0 0 0 0 0 0 0 0 0 0 0 0 0 0 0 0 0 0 0 0 0 0 0 0 0 0 0 0 0 0 0 0 0 0 0 0 0 0 0 0 0 0 0 0 0 0 0 0 0 0 0 0 0 0 0 0 0 0 0 0 0 0 0 0 0 0 0 0 0 0 0 0 0 0 0 0 0 0 0 0 0 0 0 0 0 0 0 0 0 0 0 0 0 0 0 0 0 0 0 0 0 0 0 0 0 0 0 0 0 0 0 0 0 0 0 0 0 0 0 0 0 0 0 0 0 0 0 0 0 0 0 0 0 0 0 0 0 0 0 0 0 0 0 0 0 0 0 0 0 0 0 0 0 0 0 0 0 0 0 0 0 0 0 0 0 0 0 0 0 0 0 0 0 0 0 0 0 0 0 0 0 0 0</float_array>
          <technique_common>
            <accessor source="#Cube_002-mesh-map-2-array" count="1626" stride="2">
              <param name="S" type="float"/>
              <param name="T" type="float"/>
            </accessor>
          </technique_common>
        </source>
        <vertices id="Cube_002-mesh-vertices">
          <input semantic="POSITION" source="#Cube_002-mesh-positions"/>
        </vertices>
        <triangles material="Material_006-material" count="542">
          <input semantic="VERTEX" source="#Cube_002-mesh-vertices" offset="0"/>
          <input semantic="NORMAL" source="#Cube_002-mesh-normals" offset="1"/>
          <input semantic="TEXCOORD" source="#Cube_002-mesh-map-0" offset="2" set="0"/>
          <input semantic="TEXCOORD" source="#Cube_002-mesh-map-1" offset="2" set="1"/>
          <input semantic="TEXCOORD" source="#Cube_002-mesh-map-2" offset="2" set="2"/>
          <p>1 0 0 2 0 1 0 0 2 3 1 3 6 1 4 2 1 5 7 2 6 4 2 7 6 2 8 4 3 9 1 3 10 0 3 11 2 4 12 4 4 13 0 4 14 3 5 15 5 5 16 7 5 17 10 6 18 19 6 19 11 6 20 9 7 21 17 7 22 16 7 23 15 8 24 17 8 25 8 8 26 13 9 27 22 9 28 14 9 29 11 10 30 20 10 31 12 10 32 9 11 33 18 11 34 10 11 35 15 12 36 22 12 37 23 12 38 12 13 39 21 13 40 13 13 41 31 14 42 39 14 43 33 14 44 30 15 45 29 16 46 37 17 47 28 18 48 27 18 49 35 18 50 24 19 51 32 19 52 34 19 53 31 20 54 30 20 55 38 20 56 28 21 57 36 21 58 37 21 59 26 22 60 34 23 61 35 24 62 24 25 63 25 25 64 33 25 65 42 26 66 41 26 67 43 26 68 40 27 69 46 27 70 41 27 71 46 28 72 45 28 73 44 28 74 45 29 75 43 29 76 44 29 77 46 30 78 43 30 79 41 30 80 40 31 81 45 31 82 47 31 83 1 32 84 3 32 85 2 32 86 3 33 87 7 33 88 6 33 89 7 34 90 5 34 91 4 34 92 4 35 93 5 35 94 1 35 95 2 36 96 6 36 97 4 36 98 3 37 99 1 37 100 5 37 101 10 38 102 18 38 103 19 38 104 9 39 105 8 39 106 17 39 107 15 40 108 23 40 109 17 40 110 13 41 111 21 41 112 22 41 113 11 42 114 19 42 115 20 42 116 9 43 117 16 43 118 18 43 119 15 44 120 14 44 121 22 44 122 12 45 123 20 45 124 21 45 125 31 14 126 33 14 127 25 14 128 30 15 129 37 17 130 38 46 131 28 47 132 35 47 133 36 47 134 24 48 135 34 48 136 26 48 137 31 49 138 38 49 139 39 49 140 28 50 141 37 50 142 29 50 143 26 22 144 35 24 145 27 20 146 24 51 147 33 51 148 32 51 149 42 52 150 40 52 151 41 52 152 40 53 153 47 53 154 46 53 155 46 54 156 47 54 157 45 54 158 45 29 159 42 29 160 43 29 161 46 55 162 44 55 163 43 55 164 40 56 165 42 56 166 45 56 167 94 57 168 90 57 169 82 57 170 97 58 171 49 58 172 48 58 173 98 59 174 49 59 175 96 59 176 99 60 177 50 60 178 98 60 179 99 61 180 52 61 181 51 61 182 101 62 183 52 62 184 100 62 185 102 63 186 53 63 187 101 63 188 102 64 189 55 64 190 54 64 191 103 65 192 56 65 193 55 65 194 105 66 195 56 66 196 104 66 197 105 67 198 58 67 199 57 67 200 107 68 201 58 68 202 106 68 203 108 69 204 59 69 205 107 69 206 108 70 207 61 70 208 60 70 209 110 71 210 61 71 211 109 71 212 111 72 213 62 72 214 110 72 215 112 73 216 63 73 217 111 73 218 112 74 219 65 74 220 64 74 221 114 75 222 65 75 223 113 75 224 114 76 225 67 76 226 66 76 227 116 77 228 67 77 229 115 77 230 116 78 231 69 78 232 68 78 233 117 79 234 70 79 235 69 79 236 118 80 237 71 80 238 70 80 239 97 81 240 71 81 241 119 81 242 121 82 243 96 82 244 97 82 245 120 83 246 98 83 247 96 83 248 123 84 249 98 84 250 122 84 251 123 85 252 100 85 253 99 85 254 125 86 255 100 86 256 124 86 257 126 87 258 101 87 259 125 87 260 126 88 261 103 88 262 102 88 263 127 89 264 104 89 265 103 89 266 129 90 267 104 90 268 128 90 269 129 91 270 106 91 271 105 91 272 131 92 273 106 92 274 130 92 275 132 93 276 107 93 277 131 93 278 132 94 279 109 94 280 108 94 281 134 95 282 109 95 283 133 95 284 135 96 285 110 96 286 134 96 287 135 97 288 112 97 289 111 97 290 137 98 291 112 98 292 136 98 293 137 99 294 114 99 295 113 99 296 139 100 297 114 100 298 138 100 299 139 101 300 116 101 301 115 101 302 141 102 303 116 102 304 140 102 305 141 103 306 118 103 307 117 103 308 143 104 309 118 104 310 142 104 311 121 105 312 119 105 313 143 105 314 72 29 315 121 29 316 73 29 317 74 29 318 120 29 319 72 29 320 75 29 321 122 29 322 74 29 323 76 29 324 123 29 325 75 29 326 77 29 327 124 29 328 76 29 329 78 29 330 125 29 331 77 29 332 79 29 333 126 29 334 78 29 335 80 29 336 127 29 337 79 29 338 81 29 339 128 29 340 80 29 341 82 29 342 129 29 343 81 29 344 83 29 345 130 29 346 82 29 347 84 29 348 131 29 349 83 29 350 85 29 351 132 29 352 84 29 353 86 29 354 133 29 355 85 29 356 87 29 357 134 29 358 86 29 359 88 29 360 135 29 361 87 29 362 89 29 363 136 29 364 88 29 365 90 29 366 137 29 367 89 29 368 91 29 369 138 29 370 90 29 371 92 29 372 139 29 373 91 29 374 93 29 375 140 29 376 92 29 377 94 29 378 141 29 379 93 29 380 95 29 381 142 29 382 94 29 383 73 29 384 143 29 385 95 29 386 155 106 387 159 106 388 167 106 389 168 107 390 170 107 391 171 107 392 171 108 393 172 108 394 173 108 395 172 109 396 175 109 397 173 109 398 175 110 399 176 110 400 177 110 401 176 111 402 179 111 403 177 111 404 179 112 405 180 112 406 181 112 407 180 113 408 183 113 409 181 113 410 183 114 411 184 114 412 185 114 413 184 115 414 187 115 415 185 115 416 187 116 417 188 116 418 189 116 419 188 117 420 191 117 421 189 117 422 190 118 423 193 118 424 191 118 425 192 119 426 195 119 427 193 119 428 194 120 429 197 120 430 195 120 431 196 121 432 199 121 433 197 121 434 199 122 435 200 122 436 201 122 437 200 123 438 203 123 439 201 123 440 202 124 441 205 124 442 203 124 443 205 125 444 206 125 445 207 125 446 207 126 447 208 126 448 209 126 449 208 127 450 211 127 451 209 127 452 211 128 453 212 128 454 213 128 455 212 129 456 215 129 457 213 129 458 215 130 459 169 130 460 168 130 461 168 131 462 217 131 463 216 131 464 171 132 465 218 132 466 217 132 467 218 133 468 175 133 469 219 133 470 175 134 471 220 134 472 219 134 473 220 135 474 179 135 475 221 135 476 179 136 477 222 136 478 221 136 479 222 137 480 183 137 481 223 137 482 183 138 483 224 138 484 223 138 485 224 139 486 187 139 487 225 139 488 225 140 489 189 140 490 226 140 491 189 141 492 227 141 493 226 141 494 227 142 495 193 142 496 228 142 497 193 143 498 229 143 499 228 143 500 229 144 501 197 144 502 230 144 503 197 145 504 231 145 505 230 145 506 231 146 507 201 146 508 232 146 509 201 147 510 233 147 511 232 147 512 233 148 513 205 148 514 234 148 515 234 149 516 207 149 517 235 149 518 235 150 519 209 150 520 236 150 521 209 151 522 237 151 523 236 151 524 237 152 525 213 152 526 238 152 527 213 153 528 239 153 529 238 153 530 239 154 531 168 154 532 216 154 533 167 155 534 217 155 535 144 155 536 144 156 537 218 156 538 145 156 539 145 157 540 219 157 541 146 157 542 219 158 543 147 158 544 146 158 545 147 159 546 221 159 547 148 159 548 221 160 549 149 160 550 148 160 551 149 161 552 223 161 553 150 161 554 223 162 555 151 162 556 150 162 557 224 163 558 152 163 559 151 163 560 152 164 561 226 164 562 153 164 563 153 165 564 227 165 565 154 165 566 154 166 567 228 166 568 155 166 569 228 167 570 156 167 571 155 167 572 156 168 573 230 168 574 157 168 575 230 169 576 158 169 577 157 169 578 158 170 579 232 170 580 159 170 581 232 171 582 160 171 583 159 171 584 160 172 585 234 172 586 161 172 587 234 173 588 162 173 589 161 173 590 235 174 591 163 174 592 162 174 593 236 175 594 164 175 595 163 175 596 164 176 597 238 176 598 165 176 599 238 177 600 166 177 601 165 177 602 166 178 603 216 178 604 167 178 605 56 179 606 186 179 607 184 179 608 71 180 609 169 180 610 214 180 611 49 181 612 172 181 613 170 181 614 65 182 615 200 182 616 64 182 617 58 183 618 186 183 619 57 183 620 50 184 621 174 184 622 172 184 623 66 185 624 202 185 625 65 185 626 59 186 627 188 186 628 58 186 629 52 187 630 174 187 631 51 187 632 66 188 633 206 188 634 204 188 635 60 189 636 190 189 637 59 189 638 53 190 639 176 190 640 52 190 641 67 191 642 208 191 643 206 191 644 61 192 645 192 192 646 60 192 647 53 193 648 180 193 649 178 193 650 69 194 651 208 194 652 68 194 653 61 195 654 196 195 655 194 195 656 55 196 657 180 196 658 54 196 659 70 197 660 210 197 661 69 197 662 62 198 663 198 198 664 196 198 665 55 199 666 184 199 667 182 199 668 71 200 669 212 200 670 70 200 671 48 201 672 170 201 673 169 201 674 63 202 675 200 202 676 198 202 677 244 203 678 243 203 679 242 203 680 254 204 681 255 204 682 248 204 683 244 205 684 253 206 685 252 207 686 242 208 687 251 209 688 250 210 689 240 211 690 249 212 691 248 213 692 240 211 693 255 214 694 247 215 695 246 216 696 253 206 697 245 217 698 244 205 699 251 209 700 243 218 701 242 208 702 249 212 703 241 219 704 246 216 705 255 214 706 254 220 707 265 221 708 270 222 709 268 223 710 263 224 711 265 225 712 256 226 713 261 227 714 270 228 715 262 229 716 259 230 717 268 231 718 260 232 719 257 233 720 266 234 721 258 235 722 262 229 723 271 236 724 263 224 725 261 227 726 268 231 727 269 237 728 258 235 729 267 238 730 259 230 731 256 226 732 264 239 733 257 233 734 74 240 735 72 240 736 73 240 737 73 241 738 95 241 739 94 241 740 94 242 741 93 242 742 92 242 743 92 243 744 91 243 745 90 243 746 90 244 747 89 244 748 88 244 749 88 245 750 87 245 751 86 245 752 86 246 753 85 246 754 84 246 755 84 247 756 83 247 757 86 247 758 83 248 759 82 248 760 86 248 761 82 249 762 81 249 763 80 249 764 80 250 765 79 250 766 78 250 767 78 251 768 77 251 769 76 251 770 76 252 771 75 252 772 74 252 773 74 253 774 73 253 775 94 253 776 94 254 777 92 254 778 90 254 779 90 255 780 88 255 781 82 255 782 88 256 783 86 256 784 82 256 785 82 257 786 80 257 787 78 257 788 78 258 789 76 258 790 82 258 791 76 259 792 74 259 793 82 259 794 74 260 795 94 260 796 82 260 797 97 261 798 96 261 799 49 261 800 98 262 801 50 262 802 49 262 803 99 263 804 51 263 805 50 263 806 99 264 807 100 264 808 52 264 809 101 265 810 53 265 811 52 265 812 102 266 813 54 266 814 53 266 815 102 267 816 103 267 817 55 267 818 103 268 819 104 268 820 56 268 821 105 269 822 57 269 823 56 269 824 105 270 825 106 270 826 58 270 827 107 271 828 59 271 829 58 271 830 108 272 831 60 272 832 59 272 833 108 273 834 109 273 835 61 273 836 110 274 837 62 274 838 61 274 839 111 275 840 63 275 841 62 275 842 112 276 843 64 276 844 63 276 845 112 277 846 113 277 847 65 277 848 114 278 849 66 278 850 65 278 851 114 279 852 115 279 853 67 279 854 116 280 855 68 280 856 67 280 857 116 281 858 117 281 859 69 281 860 117 282 861 118 282 862 70 282 863 118 283 864 119 283 865 71 283 866 97 284 867 48 284 868 71 284 869 121 285 870 120 285 871 96 285 872 120 286 873 122 286 874 98 286 875 123 287 876 99 287 877 98 287 878 123 288 879 124 288 880 100 288 881 125 289 882 101 289 883 100 289 884 126 290 885 102 290 886 101 290 887 126 291 888 127 291 889 103 291 890 127 292 891 128 292 892 104 292 893 129 293 894 105 293 895 104 293 896 129 294 897 130 294 898 106 294 899 131 295 900 107 295 901 106 295 902 132 296 903 108 296 904 107 296 905 132 297 906 133 297 907 109 297 908 134 298 909 110 298 910 109 298 911 135 299 912 111 299 913 110 299 914 135 300 915 136 300 916 112 300 917 137 301 918 113 301 919 112 301 920 137 302 921 138 302 922 114 302 923 139 303 924 115 303 925 114 303 926 139 304 927 140 304 928 116 304 929 141 305 930 117 305 931 116 305 932 141 306 933 142 306 934 118 306 935 143 307 936 119 307 937 118 307 938 121 308 939 97 308 940 119 308 941 72 29 942 120 29 943 121 29 944 74 29 945 122 29 946 120 29 947 75 29 948 123 29 949 122 29 950 76 29 951 124 29 952 123 29 953 77 29 954 125 29 955 124 29 956 78 29 957 126 29 958 125 29 959 79 29 960 127 29 961 126 29 962 80 29 963 128 29 964 127 29 965 81 29 966 129 29 967 128 29 968 82 29 969 130 29 970 129 29 971 83 29 972 131 29 973 130 29 974 84 29 975 132 29 976 131 29 977 85 29 978 133 29 979 132 29 980 86 29 981 134 29 982 133 29 983 87 29 984 135 29 985 134 29 986 88 29 987 136 29 988 135 29 989 89 29 990 137 29 991 136 29 992 90 29 993 138 29 994 137 29 995 91 29 996 139 29 997 138 29 998 92 29 999 140 29 1000 139 29 1001 93 29 1002 141 29 1003 140 29 1004 94 29 1005 142 29 1006 141 29 1007 95 29 1008 143 29 1009 142 29 1010 73 29 1011 121 29 1012 143 29 1013 167 309 1014 144 309 1015 147 309 1016 144 310 1017 145 310 1018 147 310 1019 145 311 1020 146 311 1021 147 311 1022 147 312 1023 148 312 1024 149 312 1025 149 313 1026 150 313 1027 147 313 1028 150 314 1029 151 314 1030 147 314 1031 151 315 1032 152 315 1033 153 315 1034 153 316 1035 154 316 1036 155 316 1037 155 317 1038 156 317 1039 157 317 1040 157 318 1041 158 318 1042 159 318 1043 159 319 1044 160 319 1045 163 319 1046 160 320 1047 161 320 1048 163 320 1049 161 321 1050 162 321 1051 163 321 1052 163 322 1053 164 322 1054 165 322 1055 165 323 1056 166 323 1057 167 323 1058 151 324 1059 153 324 1060 155 324 1061 155 325 1062 157 325 1063 159 325 1064 163 326 1065 165 326 1066 159 326 1067 165 327 1068 167 327 1069 159 327 1070 167 328 1071 147 328 1072 151 328 1073 151 329 1074 155 329 1075 167 329 1076 168 330 1077 169 330 1078 170 330 1079 171 331 1080 170 331 1081 172 331 1082 172 332 1083 174 332 1084 175 332 1085 175 333 1086 174 333 1087 176 333 1088 176 334 1089 178 334 1090 179 334 1091 179 335 1092 178 335 1093 180 335 1094 180 336 1095 182 336 1096 183 336 1097 183 337 1098 182 337 1099 184 337 1100 184 338 1101 186 338 1102 187 338 1103 187 339 1104 186 339 1105 188 339 1106 188 340 1107 190 340 1108 191 340 1109 190 341 1110 192 341 1111 193 341 1112 192 342 1113 194 342 1114 195 342 1115 194 343 1116 196 343 1117 197 343 1118 196 344 1119 198 344 1120 199 344 1121 199 345 1122 198 345 1123 200 345 1124 200 346 1125 202 346 1126 203 346 1127 202 347 1128 204 347 1129 205 347 1130 205 348 1131 204 348 1132 206 348 1133 207 349 1134 206 349 1135 208 349 1136 208 350 1137 210 350 1138 211 350 1139 211 351 1140 210 351 1141 212 351 1142 212 352 1143 214 352 1144 215 352 1145 215 353 1146 214 353 1147 169 353 1148 168 354 1149 171 354 1150 217 354 1151 171 355 1152 173 355 1153 218 355 1154 218 356 1155 173 356 1156 175 356 1157 175 357 1158 177 357 1159 220 357 1160 220 358 1161 177 358 1162 179 358 1163 179 359 1164 181 359 1165 222 359 1166 222 360 1167 181 360 1168 183 360 1169 183 361 1170 185 361 1171 224 361 1172 224 362 1173 185 362 1174 187 362 1175 225 363 1176 187 363 1177 189 363 1178 189 364 1179 191 364 1180 227 364 1181 227 365 1182 191 365 1183 193 365 1184 193 366 1185 195 366 1186 229 366 1187 229 367 1188 195 367 1189 197 367 1190 197 368 1191 199 368 1192 231 368 1193 231 369 1194 199 369 1195 201 369 1196 201 370 1197 203 370 1198 233 370 1199 233 371 1200 203 371 1201 205 371 1202 234 372 1203 205 372 1204 207 372 1205 235 373 1206 207 373 1207 209 373 1208 209 374 1209 211 374 1210 237 374 1211 237 375 1212 211 375 1213 213 375 1214 213 376 1215 215 376 1216 239 376 1217 239 377 1218 215 377 1219 168 377 1220 167 378 1221 216 378 1222 217 378 1223 144 379 1224 217 379 1225 218 379 1226 145 380 1227 218 380 1228 219 380 1229 219 381 1230 220 381 1231 147 381 1232 147 382 1233 220 382 1234 221 382 1235 221 383 1236 222 383 1237 149 383 1238 149 384 1239 222 384 1240 223 384 1241 223 385 1242 224 385 1243 151 385 1244 224 386 1245 225 386 1246 152 386 1247 152 387 1248 225 387 1249 226 387 1250 153 388 1251 226 388 1252 227 388 1253 154 389 1254 227 389 1255 228 389 1256 228 390 1257 229 390 1258 156 390 1259 156 391 1260 229 391 1261 230 391 1262 230 392 1263 231 392 1264 158 392 1265 158 393 1266 231 393 1267 232 393 1268 232 394 1269 233 394 1270 160 394 1271 160 395 1272 233 395 1273 234 395 1274 234 396 1275 235 396 1276 162 396 1277 235 397 1278 236 397 1279 163 397 1280 236 398 1281 237 398 1282 164 398 1283 164 399 1284 237 399 1285 238 399 1286 238 400 1287 239 400 1288 166 400 1289 166 401 1290 239 401 1291 216 401 1292 56 402 1293 57 402 1294 186 402 1295 71 403 1296 48 403 1297 169 403 1298 49 404 1299 50 404 1300 172 404 1301 65 405 1302 202 405 1303 200 405 1304 58 406 1305 188 406 1306 186 406 1307 50 407 1308 51 407 1309 174 407 1310 66 408 1311 204 408 1312 202 408 1313 59 409 1314 190 409 1315 188 409 1316 52 410 1317 176 410 1318 174 410 1319 66 411 1320 67 411 1321 206 411 1322 60 412 1323 192 412 1324 190 412 1325 53 413 1326 178 413 1327 176 413 1328 67 414 1329 68 414 1330 208 414 1331 61 415 1332 194 415 1333 192 415 1334 53 416 1335 54 416 1336 180 416 1337 69 417 1338 210 417 1339 208 417 1340 61 418 1341 62 418 1342 196 418 1343 55 419 1344 182 419 1345 180 419 1346 70 420 1347 212 420 1348 210 420 1349 62 421 1350 63 421 1351 198 421 1352 55 422 1353 56 422 1354 184 422 1355 71 423 1356 214 423 1357 212 423 1358 48 424 1359 49 424 1360 170 424 1361 63 425 1362 64 425 1363 200 425 1364 242 426 1365 241 426 1366 240 426 1367 240 427 1368 247 427 1369 242 427 1370 247 428 1371 246 428 1372 242 428 1373 246 29 1374 245 29 1375 242 29 1376 245 29 1377 244 29 1378 242 29 1379 248 429 1380 249 429 1381 252 429 1382 249 429 1383 250 429 1384 252 429 1385 250 429 1386 251 429 1387 252 429 1388 252 429 1389 253 429 1390 248 429 1391 253 430 1392 254 430 1393 248 430 1394 244 205 1395 245 217 1396 253 206 1397 242 208 1398 243 218 1399 251 209 1400 240 211 1401 241 219 1402 249 212 1403 240 211 1404 248 213 1405 255 214 1406 246 216 1407 254 220 1408 253 206 1409 244 205 1410 252 207 1411 251 209 1412 242 208 1413 250 210 1414 249 212 1415 246 216 1416 247 215 1417 255 214 1418 266 431 1419 264 432 1420 265 221 1421 265 221 1422 271 433 1423 270 222 1424 270 222 1425 269 434 1426 268 223 1427 268 223 1428 267 29 1429 266 431 1430 266 431 1431 265 221 1432 268 223 1433 263 224 1434 271 236 1435 265 225 1436 261 227 1437 269 237 1438 270 228 1439 259 230 1440 267 238 1441 268 231 1442 257 233 1443 264 239 1444 266 234 1445 262 229 1446 270 228 1447 271 236 1448 261 227 1449 260 232 1450 268 231 1451 258 235 1452 266 234 1453 267 238 1454 256 226 1455 265 225 1456 264 239 1457 273 435 1458 274 435 1459 272 435 1460 275 436 1461 278 436 1462 274 436 1463 279 437 1464 276 437 1465 278 437 1466 276 438 1467 273 438 1468 272 438 1469 274 439 1470 276 439 1471 272 439 1472 275 440 1473 277 440 1474 279 440 1475 282 441 1476 291 441 1477 283 441 1478 281 442 1479 289 442 1480 288 442 1481 287 443 1482 289 443 1483 280 443 1484 285 444 1485 294 444 1486 286 444 1487 283 445 1488 292 445 1489 284 445 1490 281 446 1491 290 446 1492 282 446 1493 287 447 1494 294 447 1495 295 447 1496 284 448 1497 293 448 1498 285 448 1499 303 449 1500 311 449 1501 305 449 1502 302 450 1503 301 451 1504 309 452 1505 300 453 1506 299 453 1507 307 453 1508 296 454 1509 304 454 1510 306 454 1511 303 455 1512 302 455 1513 310 455 1514 300 456 1515 308 456 1516 309 456 1517 298 457 1518 306 458 1519 307 459 1520 296 460 1521 297 460 1522 305 460 1523 314 52 1524 313 52 1525 315 52 1526 312 461 1527 318 461 1528 313 461 1529 318 462 1530 317 462 1531 316 462 1532 317 29 1533 315 29 1534 316 29 1535 318 463 1536 315 463 1537 313 463 1538 312 464 1539 317 464 1540 319 464 1541 273 465 1542 275 465 1543 274 465 1544 275 466 1545 279 466 1546 278 466 1547 279 467 1548 277 467 1549 276 467 1550 276 468 1551 277 468 1552 273 468 1553 274 469 1554 278 469 1555 276 469 1556 275 37 1557 273 37 1558 277 37 1559 282 470 1560 290 470 1561 291 470 1562 281 471 1563 280 471 1564 289 471 1565 287 472 1566 295 472 1567 289 472 1568 285 473 1569 293 473 1570 294 473 1571 283 474 1572 291 474 1573 292 474 1574 281 475 1575 288 475 1576 290 475 1577 287 476 1578 286 476 1579 294 476 1580 284 477 1581 292 477 1582 293 477 1583 303 478 1584 305 478 1585 297 478 1586 302 450 1587 309 452 1588 310 46 1589 300 453 1590 307 453 1591 308 453 1592 296 48 1593 306 48 1594 298 48 1595 303 479 1596 310 479 1597 311 479 1598 300 480 1599 309 480 1600 301 480 1601 298 457 1602 307 459 1603 299 20 1604 296 481 1605 305 481 1606 304 481 1607 314 52 1608 312 52 1609 313 52 1610 312 482 1611 319 482 1612 318 482 1613 318 483 1614 319 483 1615 317 483 1616 317 29 1617 314 29 1618 315 29 1619 318 484 1620 316 484 1621 315 484 1622 312 56 1623 314 56 1624 317 56 1625</p>
        </triangles>
      </mesh>
    </geometry>
  </library_geometries>
  <library_visual_scenes>
    <visual_scene id="Scene" name="Scene">
      <node id="prop_lab" name="prop_lab" type="NODE">
        <matrix sid="transform">1 0 0 0 0 1 0 0 0 0 1 0 0 0 0 1</matrix>
        <instance_geometry url="#Cube_002-mesh" name="prop_lab">
          <bind_material>
            <technique_common>
              <instance_material symbol="Material_006-material" target="#Material_006-material">
                <bind_vertex_input semantic="Cylinder_004-mesh-map-0" input_semantic="TEXCOORD" input_set="0"/>
                <bind_vertex_input semantic="Cube_001-mesh-map-1" input_semantic="TEXCOORD" input_set="1"/>
                <bind_vertex_input semantic="Cylinder_004-mesh-map-1" input_semantic="TEXCOORD" input_set="2"/>
              </instance_material>
            </technique_common>
          </bind_material>
        </instance_geometry>
      </node>
    </visual_scene>
  </library_visual_scenes>
  <scene>
    <instance_visual_scene url="#Scene"/>
  </scene>
</COLLADA>