<?xml version="1.0" encoding="utf-8"?>
<COLLADA xmlns="http://www.collada.org/2005/11/COLLADASchema" version="1.4.1" xmlns:xsi="http://www.w3.org/2001/XMLSchema-instance">
  <asset>
    <contributor>
      <author>Blender User</author>
      <authoring_tool>Blender 4.3.1 commit date:2024-12-10, commit time:07:46, hash:33d812126174</authoring_tool>
    </contributor>
    <created>2026-09-25T12:47:02</created>
    <modified>2026-09-25T12:47:02</modified>
    <unit name="meter" meter="1"/>
    <up_axis>Z_UP</up_axis>
  </asset>
  <library_effects>
    <effect id="Material_006-effect">
      <profile_COMMON>
        <newparam sid="mla_struct_png-surface">
          <surface type="2D">
            <init_from>mla_struct_png</init_from>
          </surface>
        </newparam>
        <newparam sid="mla_struct_png-sampler">
          <sampler2D>
            <source>mla_struct_png-surface</source>
          </sampler2D>
        </newparam>
        <technique sid="common">
          <lambert>
            <emission>
              <color sid="emission">0 0 0 1</color>
            </emission>
            <diffuse>
              <texture texture="mla_struct_png-sampler" texcoord="Cylinder_001-mesh-map-0"/>
            </diffuse>
            <index_of_refraction>
              <float sid="ior">1.5</float>
            </index_of_refraction>
          </lambert>
        </technique>
      </profile_COMMON>
    </effect>
  </library_effects>
  <library_images>
    <image id="mla_struct_png" name="mla_struct_png">
      <init_from>/home/welton/snap/0ad/743/.local/share/0ad/mods/mars_wars/art/textures/skins/structural/mla_struct.png</init_from>
    </image>
  </library_images>
  <library_materials>
    <material id="Material_006-material" name="Material.006">
      <instance_effect url="#Material_006-effect"/>
    </material>
  </library_materials>
  <library_geometries>
    <geometry id="Cylinder_001-mesh" name="Cylinder.001">
      <mesh>
        <source id="Cylinder_001-mesh-positions">
          <float_array id="Cylinder_001-mesh-positions-array" count="456">5.044839 0.009753823 4.838159 3.570096 3.570096 4.838159 0.00975418 5.044839 4.838159 -3.550586 3.570096 4.838159 -5.025326 0.009753823 4.838159 -3.550586 -3.550586 4.838159 3.570096 -3.550586 4.838159 0.00975418 -5.025326 4.838159 5.044839 0.009753823 -28.66836 3.570096 3.570096 -28.66836 0.00975418 5.044839 -28.66836 -3.550586 3.570096 -28.66836 -5.025326 0.009753823 -28.66836 -3.550586 -3.550586 -28.66836 3.570096 -3.550586 -28.66836 0.00975418 -5.025326 -28.66836 -3.627126 3.646633 4.838159 0.00975418 5.153078 4.838159 0.00975418 5.153078 -28.66836 -3.627126 3.646633 -28.66836 0.00975418 -5.133566 4.838159 -3.627126 -3.627126 4.838159 -3.627126 -3.627126 -28.66836 0.00975418 -5.133566 -28.66836 3.646633 3.646633 4.838159 3.646633 3.646633 -28.66836 -5.133566 0.009753823 4.838159 -5.133566 0.009753823 -28.66836 5.153078 0.009753823 4.838159 5.153078 0.009753823 -28.66836 3.646633 -3.627126 4.838159 3.646633 -3.627126 -28.66836 -1.539335 1.558843 2.844292 0.00975418 2.200498 2.844292 0.00975418 -2.180986 2.844292 -1.539335 -1.539336 2.844292 1.558845 1.558843 2.844292 -2.180985 0.009753823 2.844292 2.200499 0.009753823 2.844292 1.558845 -1.539336 2.844292 -1.539335 1.558843 -19.89785 0.00975418 2.200498 -19.89785 0.00975418 -2.180986 -19.89785 -1.539335 -1.539336 -19.89785 1.558845 1.558843 -19.89785 -2.180985 0.009753823 -19.89785 2.200499 0.009753823 -19.89785 1.558845 -1.539336 -19.89785 -1.100065 1.119568 5.918744 0.00975418 1.579271 5.918744 0.00975418 -1.559766 5.918744 -1.100065 -1.100066 5.918744 1.11957 1.119568 5.918744 -1.559766 0.009753823 5.918744 1.579272 0.009753823 5.918744 1.11957 -1.100066 5.918744 -0.4211159 0.4406229 7.695415 0.00975418 0.6190945 7.695415 0.00975418 -0.5995859 7.695415 -0.4211159 -0.4211162 7.695415 0.4406242 0.4406229 7.695415 -0.5995855 0.009753823 7.695415 0.6190949 0.009753823 7.695415 0.4406242 -0.4211162 7.695415 -3.254126 7.634902 11.97674 -4.606066 6.550713 8.898186 -3.254126 5.466526 5.81964 0.00975418 5.01744 4.544464 3.273634 5.466526 5.81964 4.625578 6.550713 8.898186 0.00975418 8.08399 13.25191 3.273634 7.634902 11.97674 5.044839 5.99952 9.092307 3.570096 4.816854 5.734129 0.00975418 4.326977 4.343128 -3.550586 4.816854 5.734129 -5.025326 5.99952 9.092307 -3.550586 7.182188 12.45048 3.570096 7.182188 12.45048 0.00975418 7.672066 13.84148 -3.437495 3.457008 1.147943 -3.437495 -3.437496 1.147943 3.457008 3.457008 1.147943 3.457008 -3.437496 1.147943 -4.623205 0.009753823 1.147943 4.642717 0.009753823 1.147943 0.00975418 4.642717 1.147943 0.00975418 -4.623206 1.147943 -6.190247 4.692268 -31.80281 -4.672755 6.209753 -31.80281 -2.063016 4.228579 3.636453 -4.209076 2.082529 3.636453 -4.672755 -6.190247 -31.80281 -6.190247 -4.672756 -31.80281 -4.209076 -2.063026 3.636453 -2.063025 -4.209076 3.636453 4.692268 6.209753 -31.80281 6.209754 4.692268 -31.80281 4.228579 2.082528 3.636453 2.082528 4.228579 3.636453 6.209754 -4.672756 -31.80281 4.692268 -6.190247 -31.80281 2.082529 -4.209076 3.636453 4.228579 -2.063016 3.636453 -6.190247 4.692268 2.118966 -4.672755 2.546218 3.636453 -2.526715 4.692268 3.636453 -4.672755 6.209753 2.118966 -4.672755 -2.526706 3.636453 -6.190247 -4.672756 2.118966 -4.672755 -6.190247 2.118966 -2.526706 -4.672756 3.636453 2.546217 -4.672756 3.636453 4.692268 -6.190247 2.118966 6.209754 -4.672756 2.118966 4.692268 -2.526706 3.636453 4.692268 2.546218 3.636453 6.209754 4.692268 2.118966 4.692268 6.209753 2.118966 2.546217 4.692268 3.636453 -6.190247 -1.507736 -31.80281 -6.190247 1.527239 -31.80281 -6.190247 -1.507736 2.118966 -4.672755 -1.507736 3.636453 -4.672755 1.527239 3.636453 -6.190247 1.527239 2.118966 -4.400065 1.527239 3.636453 -4.400065 -1.507736 3.636453 6.209754 1.527239 -31.80281 6.209754 -1.507736 -31.80281 6.209754 1.527239 2.118966 4.692268 1.527239 3.636453 4.692268 -1.507736 3.636453 6.209754 -1.507736 2.118966 4.419575 -1.507736 3.636453 4.419574 1.527239 3.636453 -1.507735 6.209753 -31.80281 1.52724 6.209753 -31.80281 -1.507735 6.209753 2.118966 -1.507735 4.692268 3.636453 1.52724 4.692268 3.636453 1.52724 6.209753 2.118966 1.52724 4.419574 3.636453 -1.507735 4.419575 3.636453 1.52724 -6.190247 -31.80281 -1.507735 -6.190247 -31.80281 1.52724 -6.190247 2.118966 1.52724 -4.672756 3.636453 -1.507735 -4.672756 3.636453 -1.507735 -6.190247 2.118966 -1.507735 -4.400066 3.636453 1.52724 -4.400066 3.636453</float_array>
          <technique_common>
            <accessor source="#Cylinder_001-mesh-positions-array" count="152" stride="3">
              <param name="X" type="float"/>
              <param name="Y" type="float"/>
              <param name="Z" type="float"/>
            </accessor>
          </technique_common>
        </source>
        <source id="Cylinder_001-mesh-normals">
          <float_array id="Cylinder_001-mesh-normals-array" count="552">-1 0 0 -0.8218371 0.3680765 0.4348603 -0.9238792 0.3826842 0 0.7071062 -0.7071074 0 1.54019e-6 -1 0 0.7071083 -0.7071053 0 1.58126e-6 1 0 0.7071058 0.7071078 0 -1.47858e-6 1 0 -1.51965e-6 -1 0 -0.7071056 -0.7071079 0 0.7071078 0.7071058 0 1 1.47858e-6 0 -0.707108 -0.7071056 0 -1 -1.51965e-6 0 -0.7071053 0.7071083 0 -0.7071075 0.7071062 0 1 -1.39644e-6 0 -1 1.51966e-6 0 -5.18385e-7 0 1 -0.3826807 0 0.9238807 -0.3811531 -0.08918339 0.9202004 -1.70283e-7 0 1 0 -0.3826805 0.9238808 0.08918255 -0.3811502 0.9202016 1.80981e-7 0 1 0.3826814 0 0.9238804 0.381151 0.0891838 0.9202013 0 0 1 0 0.3826815 0.9238804 -0.08918476 0.3811537 0.9201999 0 0 1 0 -0.382677 0.9238822 4.31185e-7 0 1 -1.25269e-6 1 0 -0.7071062 0.7071074 0 -0.7071082 0.7071055 0 -0.7071059 -0.7071077 0 -1.27322e-6 -1 0 1.33483e-6 -1 0 0.7071059 0.7071077 0 1.35537e-6 1 0 -1 -1.35537e-6 0 -0.7071078 -0.7071058 0 1 1.3143e-6 0 0.7071077 0.7071059 0 0.7071055 -0.7071081 0 0.7071074 -0.7071063 0 -1 1.39644e-6 0 1 -1.19108e-6 0 -5.86453e-6 0 1 0 0 1 0 0 1 6.80518e-6 0 -1 0 0 -1 6.44597e-6 0 -1 -1.88101e-7 0 1 0 0 1 0 0 1 3.11768e-6 0 -1 1.8156e-6 0 -1 1.85604e-6 0 -1 0 0 1 2.27838e-7 0 1 0 0 1 0 0 -1 -7.86745e-6 0 -1 -8.00205e-6 0 -1 4.78779e-6 0 1 1.6652e-6 0 1 1.64533e-6 0 1 0 0 -1 -1.39268e-5 0 -1 -5.87779e-6 0 1 -2.27859e-7 0 1 -1.38055e-5 0 -1 1.88135e-7 0 1 3.02603e-6 0 -1 4.84505e-6 0 1 0 -1 0 -0.3680745 -0.8218438 0.4348496 -0.3826833 -0.9238796 0 0 1 0 0.368076 0.8218374 0.4348604 0.3826834 0.9238796 0 1 0 0 0.8218442 -0.3680738 0.4348492 0.9238799 -0.3826826 0 -0.3826833 0.9238796 0 0 0.9238823 0.3826769 0 0 1 0 0.3826779 0.923882 3.7797e-7 0 1 0.3826851 -0.9238789 0 0 -0.9238819 0.3826779 -5.11299e-7 0 1 -0.3826771 0 0.9238823 0.9238793 0.3826843 0 0.9238823 0 0.3826771 0.3826779 0 0.923882 -0.9238792 -0.3826843 0 -0.9238819 0 0.3826779 1.63606e-6 -0.9952645 0.09720337 0.7071036 -0.7071101 0 0.7037591 -0.7037581 0.09719991 -0.9952647 -1.77465e-6 0.09720337 -0.7071092 -0.7071044 0 -0.7037574 -0.7037598 0.09719944 -3.49108e-6 -1 0 -0.7037604 0.7037567 0.09719985 -1 3.45001e-6 0 0.9952645 1.68985e-6 0.09720438 0.707109 0.7071046 0 0.7037572 0.7037599 0.09720033 3.20358e-6 1 0 -1.83735e-6 0.9952645 0.09720438 -0.7071052 0.7071084 0 1 -3.28573e-6 0 -5.72605e-6 -0.944168 0.3294644 -0.9441671 5.80316e-7 0.3294671 -0.6676282 -0.6676282 0.3294622 -0.6676284 0.6676279 0.3294622 0.9441679 6.72964e-6 0.3294648 4.36568e-7 0.9441671 0.3294673 0.6676281 0.6676282 0.3294623 0.6676267 -0.6676273 0.3294669 -0.879745 6.1495e-7 0.4754461 9.40508e-7 -0.8797446 0.4754466 -0.6220731 -0.6220734 0.4754469 -0.6220744 0.6220729 0.4754459 0.8797451 -4.25037e-7 0.4754457 2.07998e-7 0.8797455 0.4754451 0.6220744 0.6220737 0.4754449 0.6220729 -0.6220733 0.4754473 0 0.943217 -0.3321775 0 0.9432169 -0.3321776 0 0.9432168 -0.332178 0 0.8197387 0.5727377 0.5745431 0.7406829 0.3482658 0.5745298 0.7406873 0.3482785 -0.8125167 0.5498391 -0.1936329 -0.574536 0.3589888 -0.7355512 -0.8125168 0.549834 -0.193647 0.8125165 0.5498341 -0.1936478 0.8125163 0.5498395 -0.1936336 -2.62669e-7 0.2799375 -0.9600183 -0.5745365 0.3589891 -0.7355507 -0.574543 0.7406825 0.3482668 0 0.8197392 0.5727372 0.5745354 0.3589901 -0.7355509 -2.3365e-7 0.2799374 -0.9600183 -0.5745303 0.7406866 0.3482791 0.5745353 0.3589904 -0.7355509 2.11885e-7 -0.9432167 0.3321782 2.11893e-7 -0.9432169 0.3321779 -2.11885e-7 -0.9432168 0.3321779 0 0 1 0 0 1 0 0 1 -0.3680728 0.8218429 0.4348526 -0.8218358 -0.3680748 0.4348644 -0.08918368 -0.38115 0.9202015 0.3680755 -0.8218356 0.4348642 0.3811537 -0.08918434 0.9202 0.08918333 0.3811537 0.9202001 -0.9238798 0 0.3826828 0.9238802 0 0.3826819 0 0.9238802 0.382682 0 -0.9238799 0.3826828 0.8218423 0.3680736 0.434853 -0.3811504 0.08918243 0.9202015 0 0 1 -4.31184e-7 0 1 0 0.9432168 -0.332178 0 0.943217 -0.3321774 0 0.9432169 -0.3321775 2.16127e-7 0.943217 -0.3321775 0 0.943216 -0.3321802 -1.27142e-6 -0.9432167 0.3321781 -2.11893e-7 -0.9432166 0.3321782 0 -0.9432162 0.3321797 1.27143e-6 -0.9432169 0.3321779 0 -0.9432167 0.3321781 0 0 1</float_array>
          <technique_common>
            <accessor source="#Cylinder_001-mesh-normals-array" count="184" stride="3">
              <param name="X" type="float"/>
              <param name="Y" type="float"/>
              <param name="Z" type="float"/>
            </accessor>
          </technique_common>
        </source>
        <source id="Cylinder_001-mesh-map-0">
          <float_array id="Cylinder_001-mesh-map-0-array" count="1488">0.5251429 0.7287744 0.5151831 0.8355205 0.5151831 0.7287744 0.5196373 0.7315834 0.5311124 0.839576 0.5196373 0.839576 0.5311124 0.7315834 0.5196373 0.839576 0.5311124 0.839576 0.5311124 0.7315834 0.5425876 0.839576 0.5311124 0.839576 0.5425876 0.7315834 0.5311124 0.839576 0.5425876 0.839576 0.5196373 0.7315834 0.5311124 0.839576 0.5196373 0.839576 0.5425876 0.7315834 0.5311124 0.839576 0.5425876 0.839576 0.5311124 0.7315834 0.5196373 0.839576 0.5311124 0.839576 0.5311124 0.7315834 0.5425876 0.839576 0.5311124 0.839576 0.1502043 0.9109929 0.1482913 0.908018 0.1464782 0.9134771 0.1809689 0.9195478 0.177994 0.9214607 0.1834532 0.9232739 0.1895239 0.8887831 0.1914368 0.891758 0.19325 0.8862988 0.1587592 0.8802283 0.1617342 0.8783152 0.156275 0.8765022 0.1587592 0.9195478 0.1617342 0.9214608 0.1617342 0.9195477 0.5311124 0.839576 0.5196373 0.7315834 0.5196373 0.839576 0.5196373 0.839576 0.5311124 0.7315834 0.5311124 0.839576 0.5425876 0.839576 0.5311124 0.7315834 0.5311124 0.839576 0.5311124 0.839576 0.5425876 0.7315834 0.5425876 0.839576 0.5311124 0.839576 0.5196373 0.7315834 0.5196373 0.839576 0.5311124 0.839576 0.5425876 0.7315834 0.5425876 0.839576 0.5196373 0.839576 0.5311124 0.7315834 0.5311124 0.839576 0.5425876 0.839576 0.5311124 0.7315834 0.5311124 0.839576 0.5425876 0.839576 0.5311124 0.839576 0.5311124 0.839576 0.5425876 0.7315834 0.5311124 0.7315834 0.5425876 0.7315834 0.5425876 0.839576 0.5311124 0.839576 0.5311124 0.839576 0.5311124 0.7315834 0.5425876 0.7315834 0.5425876 0.7315834 0.5311124 0.839576 0.5196373 0.839576 0.5311124 0.839576 0.5311124 0.7315834 0.5196373 0.7315834 0.5196373 0.7315834 0.5196373 0.839576 0.5311124 0.839576 0.5311124 0.839576 0.5196373 0.7315834 0.5311124 0.7315834 0.5196373 0.7315834 0.5311124 0.839576 0.5425876 0.839576 0.5425876 0.839576 0.5311124 0.839576 0.5196373 0.839576 0.5196373 0.839576 0.5311124 0.7315834 0.5425876 0.7315834 0.5311124 0.7315834 0.5196373 0.7315834 0.5311124 0.7315834 0.5311124 0.7315834 0.5196373 0.839576 0.5311124 0.839576 0.5196373 0.839576 0.5196373 0.7315834 0.5311124 0.7315834 0.5311124 0.7315834 0.5425876 0.839576 0.5311124 0.839576 0.5425876 0.839576 0.5425876 0.7315834 0.5311124 0.7315834 0.5311124 0.7315834 0.5251429 0.7287744 0.5151831 0.8355205 0.5151831 0.7287744 0.5346935 0.7287744 0.5446533 0.8355205 0.5446533 0.7287744 0.5346935 0.7287744 0.5446533 0.8355205 0.5446533 0.7287744 0.5151831 0.7287744 0.5251429 0.8355205 0.5251429 0.7287744 0.1809689 0.8802282 0.177994 0.8783152 0.177994 0.8802282 0.5446533 0.7287744 0.5346935 0.8355205 0.5346935 0.7287744 0.1502043 0.8887832 0.1482913 0.891758 0.1502043 0.8917581 0.5151831 0.7287744 0.5251429 0.8355205 0.5251429 0.7287744 0.1895239 0.9109929 0.1914368 0.9080178 0.1895239 0.9080179 0.5446533 0.7287744 0.5346935 0.8355205 0.5346935 0.7287744 0.685478 0.4637051 0.6923469 0.3628649 0.6923469 0.4637051 0.685478 0.4637051 0.6786093 0.3628649 0.6786093 0.4637051 0.6786093 0.4637051 0.685478 0.3628649 0.685478 0.4637051 0.6923469 0.4637051 0.685478 0.3628649 0.685478 0.4637051 0.685478 0.4637051 0.6923469 0.3628649 0.6923469 0.4637051 0.6923469 0.4637051 0.685478 0.3628649 0.685478 0.4637051 0.685478 0.4637051 0.6786093 0.3628649 0.6786093 0.4637051 0.6786093 0.4637051 0.685478 0.3628649 0.685478 0.4637051 0.6655049 0.03875207 0.6190714 0.06049346 0.6190714 0.03875207 0.5726383 0.03875207 0.6190714 0.06049346 0.6190714 0.03875207 0.5726383 0.03875207 0.6190714 0.06049346 0.5858057 0.06049346 0.6655054 0.03875207 0.6190714 0.06049346 0.6523376 0.06049346 0.6655054 0.03875207 0.6190714 0.06049346 0.6190714 0.03875207 0.6655054 0.03875207 0.6190714 0.06049346 0.6523376 0.06049346 0.5726383 0.03875207 0.6190714 0.06049346 0.6190714 0.03875207 0.5726383 0.03875207 0.6190714 0.06049346 0.5858057 0.06049346 0.5586834 0.07498925 0.5932781 0.1023458 0.5932781 0.07498925 0.5586834 0.07498925 0.5932781 0.1023458 0.579847 0.1023458 0.6278731 0.07498925 0.5932781 0.1023458 0.6067096 0.1023458 0.6278731 0.07498925 0.5932781 0.1023458 0.5932781 0.07498925 0.6278731 0.07498925 0.5932781 0.1023458 0.6067096 0.1023458 0.5586834 0.07498925 0.5932781 0.1023458 0.5932781 0.07498925 0.5932781 0.07498925 0.579847 0.1023458 0.5586834 0.07498925 0.5932781 0.07498925 0.6067096 0.1023458 0.5932781 0.1023458 0.6881799 0.4562351 0.6873886 0.4581456 0.6835675 0.4543246 0.5055129 0.3549148 0.456941 0.3549148 0.456941 0.4034867 0.1972656 0.951602 0.2588605 0.9414921 0.2537316 0.951602 0.1972656 0.951602 0.1356707 0.9414921 0.1972656 0.9414921 0.2537316 0.951602 0.1972656 0.9414921 0.1972656 0.951602 0.1972656 0.951602 0.1356707 0.9414921 0.1407996 0.951602 0.1972656 0.951602 0.1356707 0.9414921 0.1972656 0.9414921 0.1972656 0.951602 0.2588605 0.9414921 0.1972656 0.9414921 0.2537316 0.951602 0.1972656 0.9414921 0.2588605 0.9414921 0.1972656 0.951602 0.1356707 0.9414921 0.1407996 0.951602 0.1516456 0.9198563 0.1516456 0.8769922 0.1970902 0.8769922 0.5214843 0.2984368 0.5214843 0.2816414 0.529882 0.2900391 0.5151831 0.8355205 0.5151831 0.8402958 0.5104078 0.8355205 0.5446534 0.8355205 0.5446533 0.8402958 0.5379 0.8402958 0.5446533 0.8355205 0.5446533 0.8402958 0.5379 0.8402958 0.5446533 0.8402958 0.5446533 0.8355205 0.5379 0.8402958 0.5346935 0.8402958 0.5299182 0.8355205 0.5346935 0.8355205 0.8713656 0.4415006 0.9026444 0.4136448 0.8713656 0.4136444 0.5251429 0.8402958 0.5299182 0.8355205 0.5251429 0.8355205 0.5299182 0.8402958 0.525143 0.8355205 0.5299182 0.8355205 0.5151831 0.8355205 0.5151831 0.7287744 0.5151831 0.7287744 0.5346935 0.8355205 0.5379 0.8402958 0.5346935 0.8402958 0.5446533 0.7287744 0.5494286 0.8355205 0.5446534 0.8355205 0.5346935 0.8355205 0.5379 0.8402958 0.5346935 0.8402958 0.5446533 0.7287744 0.5446533 0.8355205 0.5446533 0.8355205 0.5251429 0.8355205 0.5219364 0.8402958 0.5251429 0.8402958 0.5494286 0.7287744 0.5446533 0.8355205 0.5494286 0.8355205 0.5251429 0.8355205 0.5219364 0.8402958 0.5251429 0.8402958 0.1587592 0.9195478 0.1464782 0.9134771 0.156275 0.9232738 0.156275 0.8765022 0.1502043 0.8887832 0.1587592 0.8802283 0.19325 0.9134771 0.1809689 0.9195478 0.1834532 0.9232739 0.1834532 0.8765022 0.1895239 0.8887831 0.19325 0.8862988 0.5251429 0.8355205 0.5219363 0.8402958 0.5151831 0.8355205 0.1482913 0.891758 0.1502043 0.908018 0.1502043 0.8917581 0.5346935 0.8355205 0.5251429 0.7287744 0.5346935 0.7287744 0.5346935 0.8355205 0.5379 0.8402958 0.5446533 0.8355205 0.1914368 0.9080178 0.1895239 0.891758 0.1895239 0.9080179 0.5251429 0.8355205 0.5346935 0.7287744 0.5251429 0.7287744 0.5346935 0.8355205 0.5379 0.8402958 0.5446533 0.8355205 0.177994 0.8783152 0.1617342 0.8802282 0.177994 0.8802282 0.5251429 0.8355205 0.5346935 0.7287744 0.5251429 0.7287744 0.525143 0.8355205 0.5219364 0.8402958 0.5151831 0.8355205 0.1617342 0.9214608 0.177994 0.9195478 0.1617342 0.9195477 0.5346935 0.8355205 0.5251429 0.7287744 0.5346935 0.7287744 0.5251429 0.7287744 0.5251429 0.8355205 0.5151831 0.8355205 0.5196373 0.7315834 0.5311124 0.7315834 0.5311124 0.839576 0.5311124 0.7315834 0.5196373 0.7315834 0.5196373 0.839576 0.5311124 0.7315834 0.5425876 0.7315834 0.5425876 0.839576 0.5425876 0.7315834 0.5311124 0.7315834 0.5311124 0.839576 0.5196373 0.7315834 0.5311124 0.7315834 0.5311124 0.839576 0.5425876 0.7315834 0.5311124 0.7315834 0.5311124 0.839576 0.5311124 0.7315834 0.5196373 0.7315834 0.5196373 0.839576 0.5311124 0.7315834 0.5425876 0.7315834 0.5425876 0.839576 0.1502043 0.9109929 0.1502043 0.908018 0.1482913 0.908018 0.1809689 0.9195478 0.177994 0.9195478 0.177994 0.9214607 0.1895239 0.8887831 0.1895239 0.891758 0.1914368 0.891758 0.1587592 0.8802283 0.1617342 0.8802282 0.1617342 0.8783152 0.1587592 0.9195478 0.156275 0.9232738 0.1617342 0.9214608 0.5311124 0.839576 0.5311124 0.7315834 0.5196373 0.7315834 0.5196373 0.839576 0.5196373 0.7315834 0.5311124 0.7315834 0.5425876 0.839576 0.5425876 0.7315834 0.5311124 0.7315834 0.5311124 0.839576 0.5311124 0.7315834 0.5425876 0.7315834 0.5311124 0.839576 0.5311124 0.7315834 0.5196373 0.7315834 0.5311124 0.839576 0.5311124 0.7315834 0.5425876 0.7315834 0.5196373 0.839576 0.5196373 0.7315834 0.5311124 0.7315834 0.5425876 0.839576 0.5425876 0.7315834 0.5311124 0.7315834 0.5425876 0.839576 0.5425876 0.839576 0.5311124 0.839576 0.5425876 0.7315834 0.5311124 0.7315834 0.5311124 0.7315834 0.5425876 0.839576 0.5425876 0.839576 0.5311124 0.839576 0.5311124 0.7315834 0.5311124 0.7315834 0.5425876 0.7315834 0.5311124 0.839576 0.5196373 0.839576 0.5196373 0.839576 0.5311124 0.7315834 0.5311124 0.7315834 0.5196373 0.7315834 0.5196373 0.839576 0.5196373 0.839576 0.5311124 0.839576 0.5196373 0.7315834 0.5311124 0.7315834 0.5311124 0.7315834 0.5311124 0.839576 0.5311124 0.839576 0.5425876 0.839576 0.5311124 0.839576 0.5311124 0.839576 0.5196373 0.839576 0.5311124 0.7315834 0.5425876 0.7315834 0.5425876 0.7315834 0.5196373 0.7315834 0.5196373 0.7315834 0.5311124 0.7315834 0.5196373 0.839576 0.5311124 0.839576 0.5311124 0.839576 0.5196373 0.7315834 0.5196373 0.7315834 0.5311124 0.7315834 0.5425876 0.839576 0.5311124 0.839576 0.5311124 0.839576 0.5425876 0.7315834 0.5425876 0.7315834 0.5311124 0.7315834 0.5251429 0.7287744 0.525143 0.8355205 0.5151831 0.8355205 0.5346935 0.7287744 0.5346935 0.8355205 0.5446533 0.8355205 0.5346935 0.7287744 0.5346935 0.8355205 0.5446533 0.8355205 0.5151831 0.7287744 0.5151832 0.8355205 0.5251429 0.8355205 0.1809689 0.8802282 0.1834532 0.8765022 0.177994 0.8783152 0.5446533 0.7287744 0.5446533 0.8355205 0.5346935 0.8355205 0.1502043 0.8887832 0.1464782 0.8862989 0.1482913 0.891758 0.5151831 0.7287744 0.5151831 0.8355205 0.5251429 0.8355205 0.1895239 0.9109929 0.19325 0.9134771 0.1914368 0.9080178 0.5446533 0.7287744 0.5446534 0.8355205 0.5346935 0.8355205 0.685478 0.4637051 0.685478 0.3628649 0.6923469 0.3628649 0.685478 0.4637051 0.685478 0.3628649 0.6786093 0.3628649 0.6786093 0.4637051 0.6786093 0.3628649 0.685478 0.3628649 0.6923469 0.4637051 0.6923469 0.3628649 0.685478 0.3628649 0.685478 0.4637051 0.685478 0.3628649 0.6923469 0.3628649 0.6923469 0.4637051 0.6923469 0.3628649 0.685478 0.3628649 0.685478 0.4637051 0.685478 0.3628649 0.6786093 0.3628649 0.6786093 0.4637051 0.6786093 0.3628649 0.685478 0.3628649 0.6655049 0.03875207 0.6523376 0.06049346 0.6190714 0.06049346 0.5726383 0.03875207 0.5858057 0.06049346 0.6190714 0.06049346 0.5726383 0.03875207 0.6190714 0.03875207 0.6190714 0.06049346 0.6655054 0.03875207 0.6190714 0.03875207 0.6190714 0.06049346 0.6655054 0.03875207 0.6523376 0.06049346 0.6190714 0.06049346 0.6655054 0.03875207 0.6190714 0.03875207 0.6190714 0.06049346 0.5726383 0.03875207 0.5858057 0.06049346 0.6190714 0.06049346 0.5726383 0.03875207 0.6190714 0.03875207 0.6190714 0.06049346 0.5586834 0.07498925 0.579847 0.1023458 0.5932781 0.1023458 0.5586834 0.07498925 0.5932781 0.07498925 0.5932781 0.1023458 0.6278731 0.07498925 0.5932781 0.07498925 0.5932781 0.1023458 0.6278731 0.07498925 0.6067096 0.1023458 0.5932781 0.1023458 0.6278731 0.07498925 0.5932781 0.07498925 0.5932781 0.1023458 0.5586834 0.07498925 0.579847 0.1023458 0.5932781 0.1023458 0.5932781 0.07498925 0.5932781 0.1023458 0.579847 0.1023458 0.5932781 0.07498925 0.6278731 0.07498925 0.6067096 0.1023458 0.6873886 0.4581456 0.685478 0.4589369 0.6835675 0.4581456 0.6835675 0.4581456 0.6827762 0.4562351 0.6873886 0.4581456 0.6827762 0.4562351 0.6835675 0.4543246 0.6873886 0.4581456 0.6835675 0.4543246 0.685478 0.4535332 0.6873886 0.4543246 0.6873886 0.4543246 0.6881799 0.4562351 0.6835675 0.4543246 0.5055129 0.4034867 0.5155725 0.3792008 0.5055129 0.3549148 0.5055129 0.3549148 0.4812269 0.3448552 0.456941 0.3549148 0.456941 0.3549148 0.4468814 0.3792008 0.456941 0.4034867 0.456941 0.4034867 0.4812269 0.4135464 0.5055129 0.4034867 0.5055129 0.4034867 0.5055129 0.3549148 0.456941 0.4034867 0.1972656 0.951602 0.1972656 0.9414921 0.2588605 0.9414921 0.1972656 0.951602 0.1407996 0.951602 0.1356707 0.9414921 0.2537316 0.951602 0.2588605 0.9414921 0.1972656 0.9414921 0.1972656 0.951602 0.1972656 0.9414921 0.1356707 0.9414921 0.1972656 0.951602 0.1407996 0.951602 0.1356707 0.9414921 0.1972656 0.951602 0.2537316 0.951602 0.2588605 0.9414921 0.2537316 0.951602 0.1972656 0.951602 0.1972656 0.9414921 0.1972656 0.951602 0.1972656 0.9414921 0.1356707 0.9414921 0.1970902 0.8769922 0.206502 0.8984242 0.1970902 0.9198563 0.1970902 0.9198563 0.1743679 0.9287337 0.1516456 0.9198563 0.1516456 0.9198563 0.1422337 0.8984242 0.1516456 0.8769922 0.1516456 0.8769922 0.1743679 0.8681147 0.1970902 0.8769922 0.1970902 0.8769922 0.1970902 0.9198563 0.1516456 0.9198563 0.5152359 0.2962875 0.5130866 0.2900391 0.5214843 0.2984368 0.5130866 0.2900391 0.5152359 0.2837906 0.5214843 0.2816414 0.5214843 0.2816414 0.5277328 0.2837906 0.529882 0.2900391 0.529882 0.2900391 0.5277328 0.2962875 0.5214843 0.2984368 0.5130866 0.2900391 0.5214843 0.2816414 0.5214843 0.2984368 0.5151831 0.8355205 0.5219363 0.8402958 0.5151831 0.8402958 0.5446534 0.8355205 0.5494286 0.8355205 0.5446533 0.8402958 0.5446533 0.8355205 0.5494286 0.8355205 0.5446533 0.8402958 0.5446533 0.8402958 0.5494286 0.8355205 0.5446533 0.8355205 0.5346935 0.8402958 0.5299182 0.8402958 0.5299182 0.8355205 0.8713656 0.4415006 0.9026444 0.4415006 0.9026444 0.4136448 0.5251429 0.8402958 0.5299182 0.8402958 0.5299182 0.8355205 0.5299182 0.8402958 0.5251429 0.8402958 0.525143 0.8355205 0.5151831 0.8355205 0.5151832 0.8355205 0.5151831 0.7287744 0.5346935 0.8355205 0.5446534 0.8355205 0.5379 0.8402958 0.5446533 0.7287744 0.5494286 0.7287744 0.5494286 0.8355205 0.5346935 0.8355205 0.5446533 0.8355205 0.5379 0.8402958 0.5446533 0.7287744 0.5446533 0.7287744 0.5446533 0.8355205 0.5251429 0.8355205 0.5151831 0.8355205 0.5219364 0.8402958 0.5494286 0.7287744 0.5446533 0.7287744 0.5446533 0.8355205 0.5251429 0.8355205 0.5151832 0.8355205 0.5219364 0.8402958 0.1587592 0.9195478 0.1502043 0.9109929 0.1464782 0.9134771 0.156275 0.8765022 0.1464782 0.8862989 0.1502043 0.8887832 0.19325 0.9134771 0.1895239 0.9109929 0.1809689 0.9195478 0.1834532 0.8765022 0.1809689 0.8802282 0.1895239 0.8887831 0.5251429 0.8355205 0.5251429 0.8402958 0.5219363 0.8402958 0.1482913 0.891758 0.1482913 0.908018 0.1502043 0.908018 0.5346935 0.8355205 0.5251429 0.8355205 0.5251429 0.7287744 0.5346935 0.8355205 0.5346935 0.8402958 0.5379 0.8402958 0.1914368 0.9080178 0.1914368 0.891758 0.1895239 0.891758 0.5251429 0.8355205 0.5346935 0.8355205 0.5346935 0.7287744 0.5346935 0.8355205 0.5346935 0.8402958 0.5379 0.8402958 0.177994 0.8783152 0.1617342 0.8783152 0.1617342 0.8802282 0.5251429 0.8355205 0.5346935 0.8355205 0.5346935 0.7287744 0.525143 0.8355205 0.5251429 0.8402958 0.5219364 0.8402958 0.1617342 0.9214608 0.177994 0.9214607 0.177994 0.9195478 0.5346935 0.8355205 0.525143 0.8355205 0.5251429 0.7287744</float_array>
          <technique_common>
            <accessor source="#Cylinder_001-mesh-map-0-array" count="744" stride="2">
              <param name="S" type="float"/>
              <param name="T" type="float"/>
            </accessor>
          </technique_common>
        </source>
        <source id="Cylinder_001-mesh-map-1">
          <float_array id="Cylinder_001-mesh-map-1-array" count="1488">0 0 0 0 0 0 0 0 0 0 0 0 0 0 0 0 0 0 0 0 0 0 0 0 0 0 0 0 0 0 0 0 0 0 0 0 0 0 0 0 0 0 0 0 0 0 0 0 0 0 0 0 0 0 0 0 0 0 0 0 0 0 0 0 0 0 0 0 0 0 0 0 0 0 0 0 0 0 0 0 0 0 0 0 0 0 0 0 0 0 0 0 0 0 0 0 0 0 0 0 0 0 0 0 0 0 0 0 0 0 0 0 0 0 0 0 0 0 0 0 0 0 0 0 0 0 0 0 0 0 0 0 0 0 0 0 0 0 0 0 0 0 0 0 0 0 0 0 0 0 0 0 0 0 0 0 0 0 0 0 0 0 0 0 0 0 0 0 0 0 0 0 0 0 0 0 0 0 0 0 0 0 0 0 0 0 0 0 0 0 0 0 0 0 0 0 0 0 0 0 0 0 0 0 0 0 0 0 0 0 0 0 0 0 0 0 0 0 0 0 0 0 0 0 0 0 0 0 0 0 0 0 0 0 0 0 0 0 0 0 0 0 0 0 0 0 0 0 0 0 0 0 0 0 0 0 0 0 0 0 0 0 0 0 0 0 0 0 0 0 0 0 0 0 0 0 0 0 0 0 0 0 0 0 0 0 0 0 0 0 0 0 0 0 0 0 0 0 0 0 0 0 0 0 0 0 0 0 0 0 0 0 0 0 0 0 0 0 0 0 0 0 0 0 0 0 0 0 0 0 0 0 0 0 0 0 0 0 0 0 0 0 0 0 0 0 0 0 0 0 0 0 0 0 0 0 0 0 0 0 0 0 0 0 0 0 0 0 0 0 0 0 0 0 0 0 0 0 0 0 0 0 0 0 0 0 0 0 0 0 0 0 0 0 0 0 0 0 0 0 0 0 0 0 0 0 0 0 0 0 0 0 0 0 0 0 0 0 0 0 0 0 0 0 0 0 0 0 0 0 0 0 0 0 0 0 0 0 0 0 0 0 0 0 0 0 0 0 0 0 0 0 0 0 0 0 0 0 0 0 0 0 0 0 0 0 0 0 0 0 0 0 0 0 0 0 0 0 0 0 0 0 0 0 0 0 0 0 0 0 0 0 0 0 0 0 0 0 0 0 0 0 0 0 0 0 0 0 0 0 0 0 0 0 0 0 0 0 0 0 0 0 0 0 0 0 0 0 0 0 0 0 0 0 0 0 0 0 0 0 0 0 0 0 0 0 0 0 0 0 0 0 0 0 0 0 0 0 0 0 0 0 0 0 0 0 0 0 0 0 0 0 0 0 0 0 0 0 0 0 0 0 0 0 0 0 0 0 0 0 0 0 0 0 0 0 0 0 0 0 0 0 0 0 0 0 0 0 0 0 0 0 0 0 0 0 0 0 0 0 0 0 0 0 0 0 0 0 0 0 0 0 0 0 0 0 0 0 0 0 0 0 0 0 0 0 0 0 0 0 0 0 0 0 0 0 0 0 0 0 0 0 0 0 0 0 0 0 0 0 0 0 0 0 0 0 0 0 0 0 0 0 0 0 0 0 0 0 0 0 0 0 0 0 0 0 0 0 0 0 0 0 0 0 0 0 0 0 0 0 0 0 0 0 0 0 0 0 0 0 0 0 0 0 0 0 0 0 0 0 0 0 0 0 0 0 0 0 0 0 0 0 0 0 0 0 0 0 0 0 0 0 0 0 0 0 0 0 0 0 0 0 0 0 0 0 0 0 0 0 0 0 0 0 0 0 0 0 0 0 0 0 0 0 0 0 0 0 0 0 0 0 0 0 0 0 0 0 0 0 0 0 0 0 0 0 0 0 0 0 0 0 0 0 0 0 0 0 0 0 0 0 0 0 0 0 0 0 0 0 0 0 0 0 0 0 0 0 0 0 0 0 0 0 0 0 0 0 0 0 0 0 0 0 0 0 0 0 0 0 0 0 0 0 0 0 0 0 0 0 0 0 0 0 0 0 0 0 0 0 0 0 0 0 0 0 0 0 0 0 0 0 0 0 0 0 0 0 0 0 0 0 0 0 0 0 0 0 0 0 0 0 0 0 0 0 0 0 0 0 0 0 0 0 0 0 0 0 0 0 0 0 0 0 0 0 0 0 0 0 0 0 0 0 0 0 0 0 0 0 0 0 0 0 0 0 0 0 0 0 0 0 0 0 0 0 0 0 0 0 0 0 0 0 0 0 0 0 0 0 0 0 0 0 0 0 0 0 0 0 0 0 0 0 0 0 0 0 0 0 0 0 0 0 0 0 0 0 0 0 0 0 0 0 0 0 0 0 0 0 0 0 0 0 0 0 0 0 0 0 0 0 0 0 0 0 0 0 0 0 0 0 0 0 0 0 0 0 0 0 0 0 0 0 0 0 0 0 0 0 0 0 0 0 0 0 0 0 0 0 0 0 0 0 0 0 0 0 0 0 0 0 0 0 0 0 0 0 0 0 0 0 0 0 0 0 0 0 0 0 0 0 0 0 0 0 0 0 0 0 0 0 0 0 0 0 0 0 0 0 0 0 0 0 0 0 0 0 0 0 0 0 0 0 0 0 0 0 0 0 0 0 0 0 0 0 0 0 0 0 0 0 0 0 0 0 0 0 0 0 0 0 0 0 0 0 0 0 0 0 0 0 0 0 0 0 0 0 0 0 0 0 0 0 0 0 0 0 0 0 0 0 0 0 0 0 0 0 0 0 0 0 0 0 0 0 0 0 0 0 0 0 0 0 0 0 0 0 0 0 0 0 0 0 0 0 0 0 0 0 0 0 0 0 0 0 0 0 0 0 0 0 0 0 0 0 0 0 0 0 0 0 0 0 0 0 0 0 0 0 0 0 0 0 0 0 0 0 0 0 0 0 0 0 0 0 0 0 0 0 0 0 0 0 0 0 0 0 0 0 0 0 0 0 0 0 0 0 0 0 0 0 0 0 0 0 0 0 0 0 0 0 0 0 0 0 0 0 0 0 0 0 0 0 0 0 0 0 0 0 0 0 0 0 0 0 0 0 0 0 0 0 0 0 0 0 0 0 0 0 0 0 0 0 0 0 0 0 0 0 0 0 0 0 0 0 0 0 0 0 0 0 0 0 0 0 0 0 0 0 0 0 0 0 0 0 0 0 0 0 0 0 0 0 0 0 0 0 0 0 0 0 0 0 0 0 0 0 0 0 0 0 0 0 0 0 0 0 0 0 0 0 0 0 0 0 0 0 0 0 0 0 0 0 0 0 0 0 0 0 0 0 0 0 0 0 0 0 0 0 0 0 0 0 0 0 0 0 0 0 0 0 0 0 0 0 0 0 0 0 0 0 0 0 0 0 0 0 0 0 0 0 0 0 0 0 0 0</float_array>
          <technique_common>
            <accessor source="#Cylinder_001-mesh-map-1-array" count="744" stride="2">
              <param name="S" type="float"/>
              <param name="T" type="float"/>
            </accessor>
          </technique_common>
        </source>
        <vertices id="Cylinder_001-mesh-vertices">
          <input semantic="POSITION" source="#Cylinder_001-mesh-positions"/>
        </vertices>
        <triangles material="Material_006-material" count="248">
          <input semantic="VERTEX" source="#Cylinder_001-mesh-vertices" offset="0"/>
          <input semantic="NORMAL" source="#Cylinder_001-mesh-normals" offset="1"/>
          <input semantic="TEXCOORD" source="#Cylinder_001-mesh-map-0" offset="2" set="0"/>
          <input semantic="TEXCOORD" source="#Cylinder_001-mesh-map-1" offset="2" set="1"/>
          <p>121 0 0 104 1 1 88 2 2 11 3 3 2 4 4 3 5 5 15 6 6 5 7 7 7 8 8 10 9 9 1 10 10 2 4 11 13 11 12 4 12 13 5 7 14 9 13 15 0 14 16 1 10 17 14 15 18 7 8 19 6 16 20 12 17 21 3 5 22 4 12 23 8 18 24 6 16 25 0 14 26 94 19 27 123 20 28 108 21 29 102 22 30 147 23 31 112 24 32 98 25 33 131 26 34 116 27 35 90 28 36 139 29 37 106 30 38 95 31 39 148 32 40 150 33 41 17 34 42 19 35 43 16 36 44 21 37 45 23 38 46 20 39 47 24 40 48 18 41 49 17 34 50 26 42 51 22 43 52 21 37 53 28 44 54 25 45 55 24 40 56 20 39 57 31 46 58 30 47 59 16 36 60 27 48 61 26 42 62 30 47 63 29 49 64 28 44 65 6 50 66 28 51 67 0 52 68 14 53 69 29 54 70 31 55 71 1 56 72 17 57 73 2 58 74 10 59 75 25 60 76 9 61 77 4 62 78 16 63 79 26 64 80 12 65 81 19 66 82 11 67 83 5 68 84 20 69 85 7 70 86 13 71 87 23 72 88 22 54 89 7 70 90 30 73 91 6 50 92 0 52 93 24 74 94 1 56 95 15 75 96 31 55 97 23 72 98 9 61 99 29 54 100 8 54 101 3 76 102 17 57 103 16 63 104 11 67 105 18 77 106 10 59 107 5 68 108 26 64 109 21 78 110 13 71 111 27 54 112 12 65 113 145 79 114 110 80 115 92 81 116 137 82 117 118 83 118 96 84 119 129 85 120 114 86 121 100 87 122 89 88 123 138 89 124 136 82 125 99 90 126 140 91 127 142 92 128 101 93 129 146 94 130 144 79 131 91 95 132 124 96 133 126 28 134 97 97 135 130 98 136 128 85 137 103 28 138 132 99 139 134 28 140 93 100 141 122 101 142 120 0 143 34 102 144 47 103 145 39 104 146 37 105 147 43 106 148 35 107 149 35 107 150 42 108 151 34 102 152 32 109 153 45 110 154 37 105 155 38 111 156 44 112 157 36 113 158 36 113 159 41 114 160 33 115 161 33 115 162 40 116 163 32 109 164 39 104 165 46 117 166 38 111 167 39 104 168 50 118 169 34 102 170 35 107 171 53 119 172 37 105 173 35 107 174 50 118 175 51 120 176 32 109 177 53 119 178 48 121 179 36 113 180 54 122 181 38 111 182 36 113 183 49 123 184 52 124 185 32 109 186 49 123 187 33 115 188 39 104 189 54 122 190 55 125 191 51 120 192 61 126 193 53 119 194 51 120 195 58 127 196 59 128 197 48 121 198 61 126 199 56 129 200 52 124 201 62 130 202 54 122 203 52 124 204 57 131 205 60 132 206 48 121 207 57 131 208 49 123 209 54 122 210 63 133 211 55 125 212 50 118 213 63 133 214 58 127 215 62 28 216 60 28 217 59 28 218 68 134 219 66 135 220 64 136 221 70 137 222 78 138 223 71 139 224 65 140 225 75 141 226 76 142 227 71 139 228 72 143 229 69 144 230 67 145 231 75 141 232 66 146 233 70 137 234 77 147 235 79 148 236 67 145 237 73 149 238 74 150 239 64 151 240 76 142 241 77 147 242 69 144 243 73 149 244 68 152 245 77 153 246 75 154 247 73 155 248 86 156 249 87 157 250 85 158 251 104 1 252 106 30 253 107 159 254 109 160 255 111 161 256 108 21 257 113 162 258 115 163 259 112 24 260 116 27 261 118 83 262 119 164 263 123 20 264 125 165 265 122 101 266 131 26 267 133 166 268 130 98 269 139 29 270 141 167 271 138 89 272 147 23 273 149 168 274 146 94 275 104 1 276 89 88 277 88 2 278 122 101 279 108 21 280 123 20 281 93 100 282 110 80 283 109 160 284 146 94 285 112 24 286 147 23 287 101 93 288 114 86 289 113 162 290 130 98 291 116 27 292 131 26 293 97 97 294 118 83 295 117 169 296 138 89 297 106 30 298 139 29 299 95 31 300 108 21 301 111 161 302 106 30 303 91 95 304 90 28 305 115 163 306 102 22 307 112 24 308 119 164 309 98 25 310 116 27 311 125 165 312 105 170 313 104 1 314 124 96 315 127 28 316 126 28 317 122 101 318 121 0 319 120 0 320 133 166 321 115 163 322 114 86 323 132 99 324 135 28 325 134 28 326 130 98 327 129 85 328 128 85 329 141 167 330 119 164 331 118 83 332 140 91 333 143 171 334 142 92 335 138 89 336 137 82 337 136 82 338 149 168 339 111 161 340 110 80 341 148 32 342 151 172 343 150 33 344 146 94 345 145 79 346 144 79 347 121 0 348 125 165 349 104 1 350 11 3 351 10 9 352 2 4 353 15 6 354 13 11 355 5 7 356 10 9 357 9 13 358 1 10 359 13 11 360 12 17 361 4 12 362 9 13 363 8 18 364 0 14 365 14 15 366 15 6 367 7 8 368 12 17 369 11 3 370 3 5 371 8 18 372 14 15 373 6 16 374 94 19 375 127 28 376 123 20 377 102 22 378 151 172 379 147 23 380 98 25 381 135 28 382 131 26 383 90 28 384 143 171 385 139 29 386 95 31 387 111 161 388 148 32 389 17 34 390 18 41 391 19 35 392 21 37 393 22 43 394 23 38 395 24 40 396 25 45 397 18 41 398 26 42 399 27 48 400 22 43 401 28 44 402 29 49 403 25 45 404 20 39 405 23 38 406 31 46 407 16 36 408 19 35 409 27 48 410 30 47 411 31 46 412 29 49 413 6 50 414 30 73 415 28 51 416 14 53 417 8 54 418 29 54 419 1 56 420 24 74 421 17 57 422 10 59 423 18 77 424 25 60 425 4 62 426 3 76 427 16 63 428 12 65 429 27 54 430 19 66 431 5 68 432 21 78 433 20 69 434 13 71 435 15 75 436 23 72 437 7 70 438 20 69 439 30 73 440 0 52 441 28 51 442 24 74 443 15 75 444 14 53 445 31 55 446 9 61 447 25 60 448 29 54 449 3 76 450 2 58 451 17 57 452 11 67 453 19 66 454 18 77 455 5 68 456 4 62 457 26 64 458 13 71 459 22 54 460 27 54 461 145 79 462 149 168 463 110 80 464 137 82 465 141 167 466 118 83 467 129 85 468 133 166 469 114 86 470 89 88 471 107 159 472 138 89 473 99 90 474 119 164 475 140 91 476 101 93 477 113 162 478 146 94 479 91 95 480 105 170 481 124 96 482 97 97 483 117 169 484 130 98 485 103 28 486 115 163 487 132 99 488 93 100 489 109 160 490 122 101 491 34 102 492 42 108 493 47 103 494 37 105 495 45 110 496 43 106 497 35 107 498 43 106 499 42 108 500 32 109 501 40 116 502 45 110 503 38 111 504 46 117 505 44 112 506 36 113 507 44 112 508 41 114 509 33 115 510 41 114 511 40 116 512 39 104 513 47 103 514 46 117 515 39 104 516 55 125 517 50 118 518 35 107 519 51 120 520 53 119 521 35 107 522 34 102 523 50 118 524 32 109 525 37 105 526 53 119 527 36 113 528 52 124 529 54 122 530 36 113 531 33 115 532 49 123 533 32 109 534 48 121 535 49 123 536 39 104 537 38 111 538 54 122 539 51 120 540 59 128 541 61 126 542 51 120 543 50 118 544 58 127 545 48 121 546 53 119 547 61 126 548 52 124 549 60 132 550 62 130 551 52 124 552 49 123 553 57 131 554 48 121 555 56 129 556 57 131 557 54 122 558 62 130 559 63 133 560 50 118 561 55 125 562 63 133 563 60 28 564 57 28 565 56 28 566 56 28 567 61 28 568 60 28 569 61 28 570 59 28 571 60 28 572 59 28 573 58 28 574 63 28 575 63 28 576 62 28 577 59 28 578 71 173 579 69 174 580 68 134 581 68 134 582 67 175 583 66 135 584 66 135 585 65 176 586 64 136 587 64 136 588 70 177 589 71 173 590 71 173 591 68 134 592 64 136 593 70 137 594 79 148 595 78 138 596 65 140 597 66 146 598 75 141 599 71 139 600 78 138 601 72 143 602 67 145 603 74 150 604 75 141 605 70 137 606 64 151 607 77 147 608 67 145 609 68 152 610 73 149 611 64 151 612 65 140 613 76 142 614 69 144 615 72 143 616 73 149 617 73 155 618 72 178 619 78 179 620 78 179 621 79 180 622 77 153 623 77 153 624 76 181 625 75 154 626 75 154 627 74 182 628 73 155 629 73 155 630 78 179 631 77 153 632 80 28 633 84 28 634 86 156 635 84 28 636 81 28 637 87 157 638 87 157 639 83 28 640 85 158 641 85 158 642 82 183 643 86 156 644 84 28 645 87 157 646 86 156 647 104 1 648 105 170 649 106 30 650 109 160 651 110 80 652 111 161 653 113 162 654 114 86 655 115 163 656 116 27 657 117 169 658 118 83 659 123 20 660 124 96 661 125 165 662 131 26 663 132 99 664 133 166 665 139 29 666 140 91 667 141 167 668 147 23 669 148 32 670 149 168 671 104 1 672 107 159 673 89 88 674 122 101 675 109 160 676 108 21 677 93 100 678 92 81 679 110 80 680 146 94 681 113 162 682 112 24 683 101 93 684 100 87 685 114 86 686 130 98 687 117 169 688 116 27 689 97 97 690 96 84 691 118 83 692 138 89 693 107 159 694 106 30 695 95 31 696 94 19 697 108 21 698 106 30 699 105 170 700 91 95 701 115 163 702 103 28 703 102 22 704 119 164 705 99 90 706 98 25 707 125 165 708 124 96 709 105 170 710 124 96 711 123 20 712 127 28 713 122 101 714 125 165 715 121 0 716 133 166 717 132 99 718 115 163 719 132 99 720 131 26 721 135 28 722 130 98 723 133 166 724 129 85 725 141 167 726 140 91 727 119 164 728 140 91 729 139 29 730 143 171 731 138 89 732 141 167 733 137 82 734 149 168 735 148 32 736 111 161 737 148 32 738 147 23 739 151 172 740 146 94 741 149 168 742 145 79 743</p>
        </triangles>
      </mesh>
    </geometry>
  </library_geometries>
  <library_visual_scenes>
    <visual_scene id="Scene" name="Scene">
      <node id="silos" name="silos" type="NODE">
        <matrix sid="transform">1 0 0 0 0 1 0 0 0 0 1 0 0 0 0 1</matrix>
        <instance_geometry url="#Cylinder_001-mesh" name="silos">
          <bind_material>
            <technique_common>
              <instance_material symbol="Material_006-material" target="#Material_006-material">
                <bind_vertex_input semantic="Cylinder_001-mesh-map-0" input_semantic="TEXCOORD" input_set="0"/>
                <bind_vertex_input semantic="Cylinder_001-mesh-map-1" input_semantic="TEXCOORD" input_set="1"/>
              </instance_material>
            </technique_common>
          </bind_material>
        </instance_geometry>
        <node id="prop_projectile" name="prop_projectile" type="NODE">
          <matrix sid="transform">1 0 0 0 0 1 0 0 0 0 1 4.015889 0 0 0 1</matrix>
        </node>
      </node>
    </visual_scene>
  </library_visual_scenes>
  <scene>
    <instance_visual_scene url="#Scene"/>
  </scene>
</COLLADA>