<?xml version="1.0" encoding="utf-8"?>
<COLLADA xmlns="http://www.collada.org/2005/11/COLLADASchema" version="1.4.1" xmlns:xsi="http://www.w3.org/2001/XMLSchema-instance">
  <asset>
    <contributor>
      <author>Blender User</author>
      <authoring_tool>Blender 4.3.1 commit date:2024-12-10, commit time:07:46, hash:33d812126174</authoring_tool>
    </contributor>
    <created>2026-09-20T13:28:30</created>
    <modified>2026-09-20T13:28:30</modified>
    <unit name="meter" meter="1"/>
    <up_axis>Z_UP</up_axis>
  </asset>
  <library_effects>
    <effect id="Material_006-effect">
      <profile_COMMON>
        <newparam sid="mla_struct_png-surface">
          <surface type="2D">
            <init_from>mla_struct_png</init_from>
          </surface>
        </newparam>
        <newparam sid="mla_struct_png-sampler">
          <sampler2D>
            <source>mla_struct_png-surface</source>
          </sampler2D>
        </newparam>
        <technique sid="common">
          <lambert>
            <emission>
              <color sid="emission">0 0 0 1</color>
            </emission>
            <diffuse>
              <texture texture="mla_struct_png-sampler" texcoord="UVMap"/>
            </diffuse>
            <index_of_refraction>
              <float sid="ior">1.5</float>
            </index_of_refraction>
          </lambert>
        </technique>
      </profile_COMMON>
    </effect>
  </library_effects>
  <library_images>
    <image id="mla_struct_png" name="mla_struct_png">
      <init_from>/home/welton/snap/0ad/743/.local/share/0ad/mods/mars_wars/art/textures/skins/structural/mla_struct.png</init_from>
    </image>
  </library_images>
  <library_materials>
    <material id="Material_006-material" name="Material.006">
      <instance_effect url="#Material_006-effect"/>
    </material>
  </library_materials>
  <library_geometries>
    <geometry id="Cylinder_001-mesh" name="Cylinder.001">
      <mesh>
        <source id="Cylinder_001-mesh-positions">
          <float_array id="Cylinder_001-mesh-positions-array" count="852">-13.26388 13.26388 6.331559 -14.61582 10 6.331559 -13.26388 6.73612 6.331559 -10 5.384176 6.331559 -6.73612 6.73612 6.331559 -5.384176 10 6.331559 -10 14.61582 6.331559 -6.73612 13.26388 6.331559 -4.964915 10 5.747182 -6.439658 6.439658 5.747182 -10 4.964915 5.747182 -13.56034 6.439658 5.747182 -15.03508 10 5.747182 -13.56034 13.56034 5.747182 -6.439658 13.56034 5.747182 -10 15.03508 5.747182 -4.964915 10 -27.75934 -6.439658 6.439658 -27.75934 -10 4.964915 -27.75934 -13.56034 6.439658 -27.75934 -15.03508 10 -27.75934 -13.56034 13.56034 -27.75934 -6.439658 13.56034 -27.75934 -10 15.03508 -27.75934 13.26388 13.26388 6.331559 14.61582 10 6.331559 13.26388 6.73612 6.331559 10 5.384176 6.331559 6.73612 6.73612 6.331559 5.384176 10 6.331559 10 14.61582 6.331559 6.73612 13.26388 6.331559 4.964915 10 5.747182 6.439658 6.439658 5.747182 10 4.964915 5.747182 13.56034 6.439658 5.747182 15.03508 10 5.747182 13.56034 13.56034 5.747182 6.439658 13.56034 5.747182 10 15.03508 5.747182 4.964915 10 -27.75934 6.439658 6.439658 -27.75934 10 4.964915 -27.75934 13.56034 6.439658 -27.75934 15.03508 10 -27.75934 13.56034 13.56034 -27.75934 6.439658 13.56034 -27.75934 10 15.03508 -27.75934 -4.964915 -10 5.747182 -6.439658 -6.439658 5.747182 -10 -4.964915 5.747182 -13.56034 -6.439658 5.747182 -15.03508 -10 5.747182 -13.56034 -13.56034 5.747182 -6.439658 -13.56034 5.747182 -10 -15.03508 5.747182 -4.964915 -10 -27.75934 -6.439658 -6.439658 -27.75934 -10 -4.964915 -27.75934 -13.56034 -6.439658 -27.75934 -15.03508 -10 -27.75934 -13.56034 -13.56034 -27.75934 -6.439658 -13.56034 -27.75934 -10 -15.03508 -27.75934 13.26388 -13.26388 6.331559 14.61582 -10 6.331559 13.26388 -6.73612 6.331559 10 -5.384176 6.331559 6.73612 -6.73612 6.331559 5.384176 -10 6.331559 10 -14.61582 6.331559 6.73612 -13.26388 6.331559 4.964915 -10 5.747182 6.439658 -6.439658 5.747182 10 -4.964915 5.747182 13.56034 -6.439658 5.747182 15.03508 -10 5.747182 13.56034 -13.56034 5.747182 6.439658 -13.56034 5.747182 10 -15.03508 5.747182 4.964915 -10 -27.75934 6.439658 -6.439658 -27.75934 10 -4.964915 -27.75934 13.56034 -6.439658 -27.75934 15.03508 -10 -27.75934 13.56034 -13.56034 -27.75934 6.439658 -13.56034 -27.75934 10 -15.03508 -27.75934 -13.63688 -6.363121 5.747182 -10 -4.856676 5.747182 -10 -4.856676 -27.75934 -13.63688 -6.363121 -27.75934 -10 -15.14332 5.747182 -13.63688 -13.63688 5.747182 -13.63688 -13.63688 -27.75934 -10 -15.14332 -27.75934 -6.363121 -6.363121 5.747182 -6.363121 -6.363121 -27.75934 -15.14332 -10 5.747182 -15.14332 -10 -27.75934 -4.856676 -10 5.747182 -4.856676 -10 -27.75934 -6.363121 -13.63688 5.747182 -6.363121 -13.63688 -27.75934 -11.54909 -8.450911 3.753315 -10 -7.809256 3.753315 -10 -12.19074 3.753315 -11.54909 -11.54909 3.753315 -8.45091 -8.450911 3.753315 -12.19074 -10 3.753315 -7.809255 -10 3.753315 -8.45091 -11.54909 3.753315 -11.54909 -8.450911 -18.98883 -10 -7.809256 -18.98883 -10 -12.19074 -18.98883 -11.54909 -11.54909 -18.98883 -8.45091 -8.450911 -18.98883 -12.19074 -10 -18.98883 -7.809255 -10 -18.98883 -8.45091 -11.54909 -18.98883 -11.10982 -8.890185 6.827767 -10 -8.430483 6.827767 -10 -11.56952 6.827767 -11.10982 -11.10982 6.827767 -8.890184 -8.890185 6.827767 -11.56952 -10 6.827767 -8.430482 -10 6.827767 -8.890184 -11.10982 6.827767 -10.43087 -9.569131 8.604438 -10 -9.39066 8.604438 -10 -10.60934 8.604438 -10.43087 -10.43087 8.604438 -9.56913 -9.569131 8.604438 -10.60934 -10 8.604438 -9.39066 -10 8.604438 -9.56913 -10.43087 8.604438 -13.26388 -2.374852 12.88576 -14.61582 -3.459041 9.807209 -13.26388 -4.543228 6.728663 -10 -4.992314 5.453487 -6.73612 -4.543228 6.728663 -5.384176 -3.459041 9.807209 -10 -1.925765 14.16093 -6.73612 -2.374852 12.88576 -4.964915 -4.010234 10.00133 -6.439658 -5.1929 6.643152 -10 -5.682777 5.252151 -13.56034 -5.1929 6.643152 -15.03508 -4.010234 10.00133 -13.56034 -2.827566 13.3595 -6.439658 -2.827566 13.3595 -10 -2.337688 14.7505 -13.44725 -6.552746 2.056966 -13.44725 -13.44725 2.056966 -6.552746 -6.552746 2.056966 -6.552746 -13.44725 2.056966 -14.63296 -10 2.056966 -5.367037 -10 2.056966 -10 -5.367037 2.056966 -10 -14.63296 2.056966 -14.68251 3.8 -30.89378 -16.2 5.317486 -30.89378 -14.68251 3.8 3.027989 -14.68251 5.317486 4.545476 -16.2 5.317486 3.027989 -16.2 14.68251 -30.89378 -14.68251 16.2 -30.89378 -14.68251 14.68251 4.545476 -14.68251 16.2 3.027989 -16.2 14.68251 3.027989 -3.8 5.317486 -30.89378 -5.317486 3.8 -30.89378 -5.317486 5.317486 4.545476 -5.317486 3.8 3.027989 -3.8 5.317486 3.027989 -5.317486 16.2 -30.89378 -3.8 14.68251 -30.89378 -5.317486 14.68251 4.545476 -3.8 14.68251 3.027989 -5.317486 16.2 3.027989 16.2 5.317486 -30.89378 14.68251 3.8 -30.89378 14.68251 3.8 3.027989 16.2 5.317486 3.027989 14.68251 5.317486 4.545476 14.68251 16.2 -30.89378 16.2 14.68251 -30.89378 14.68251 14.68251 4.545476 16.2 14.68251 3.027989 14.68251 16.2 3.027989 5.317486 3.8 -30.89378 3.8 5.317486 -30.89378 5.317486 5.317486 4.545476 3.8 5.317486 3.027989 5.317486 3.8 3.027989 3.8 14.68251 -30.89378 5.317486 16.2 -30.89378 5.317486 14.68251 4.545476 5.317486 16.2 3.027989 3.8 14.68251 3.027989 -16.2 -5.317486 -30.89378 -14.68251 -3.8 -30.89378 -12.07277 -5.781175 4.545476 -14.21883 -7.927225 4.545476 -14.68251 -16.2 -30.89378 -16.2 -14.68251 -30.89378 -14.21883 -12.07278 4.545476 -12.07278 -14.21883 4.545476 -5.317486 -3.8 -30.89378 -3.8 -5.317486 -30.89378 -5.781175 -7.927226 4.545476 -7.927226 -5.781175 4.545476 -3.8 -14.68251 -30.89378 -5.317486 -16.2 -30.89378 -7.927225 -14.21883 4.545476 -5.781175 -12.07277 4.545476 14.68251 -3.8 -30.89378 16.2 -5.317486 -30.89378 14.68251 -3.8 3.027989 14.68251 -5.317486 4.545476 16.2 -5.317486 3.027989 16.2 -14.68251 -30.89378 14.68251 -16.2 -30.89378 14.68251 -14.68251 4.545476 14.68251 -16.2 3.027989 16.2 -14.68251 3.027989 3.8 -5.317486 -30.89378 5.317486 -3.8 -30.89378 5.317486 -5.317486 4.545476 5.317486 -3.8 3.027989 3.8 -5.317486 3.027989 5.317486 -16.2 -30.89378 3.8 -14.68251 -30.89378 5.317486 -14.68251 4.545476 3.8 -14.68251 3.027989 5.317486 -16.2 3.027989 -16.2 -5.317486 3.027989 -14.68251 -7.463536 4.545476 -12.53647 -5.317486 4.545476 -14.68251 -3.8 3.027989 -14.68251 -12.53646 4.545476 -16.2 -14.68251 3.027989 -14.68251 -16.2 3.027989 -12.53646 -14.68251 4.545476 -7.463537 -14.68251 4.545476 -5.317486 -16.2 3.027989 -3.8 -14.68251 3.027989 -5.317486 -12.53646 4.545476 -5.317486 -7.463536 4.545476 -3.8 -5.317486 3.027989 -5.317486 -3.8 3.027989 -7.463537 -5.317486 4.545476 -16.2 -11.51749 -30.89378 -16.2 -8.482514 -30.89378 -16.2 -11.51749 3.027989 -14.68251 -11.51749 4.545476 -14.68251 -8.482514 4.545476 -16.2 -8.482514 3.027989 -14.40982 -8.482514 4.545476 -14.40982 -11.51749 4.545476 -3.8 -8.482514 -30.89378 -3.8 -11.51749 -30.89378 -3.8 -8.482514 3.027989 -5.317486 -8.482514 4.545476 -5.317486 -11.51749 4.545476 -3.8 -11.51749 3.027989 -5.590179 -11.51749 4.545476 -5.59018 -8.482514 4.545476 -11.51749 -3.8 -30.89378 -8.482514 -3.8 -30.89378 -11.51749 -3.8 3.027989 -11.51749 -5.317486 4.545476 -8.482514 -5.317486 4.545476 -8.482514 -3.8 3.027989 -8.482514 -5.59018 4.545476 -11.51749 -5.590179 4.545476 -8.482514 -16.2 -30.89378 -11.51749 -16.2 -30.89378 -8.482514 -16.2 3.027989 -8.482514 -14.68251 4.545476 -11.51749 -14.68251 4.545476 -11.51749 -16.2 3.027989 -11.51749 -14.40982 4.545476 -8.482514 -14.40982 4.545476</float_array>
          <technique_common>
            <accessor source="#Cylinder_001-mesh-positions-array" count="284" stride="3">
              <param name="X" type="float"/>
              <param name="Y" type="float"/>
              <param name="Z" type="float"/>
            </accessor>
          </technique_common>
        </source>
        <source id="Cylinder_001-mesh-normals">
          <float_array id="Cylinder_001-mesh-normals-array" count="1221">0 0 1 -0.3826838 -0.9238795 0 -0.3826835 -0.9238796 0 -0.3826834 -0.9238795 0 0.3189744 0.7700717 0.5524898 0.3189749 0.7700732 0.5524876 0.3189743 0.7700714 0.5524902 -0.7700728 -0.3189745 0.5524882 -0.7700728 -0.3189745 0.5524881 0.7700731 0.3189745 0.5524878 0.7700728 0.3189748 0.5524882 0.7700726 0.3189749 0.5524882 -0.3189749 -0.7700728 0.552488 -0.3189747 -0.7700727 0.5524882 -0.318975 0.7700731 0.5524874 -0.3189743 0.7700722 0.5524892 -0.3189742 0.770072 0.5524895 0.3189749 -0.7700726 0.5524882 0.3189746 -0.7700725 0.5524885 0.3189745 -0.7700725 0.5524886 -0.7700727 0.3189747 0.5524883 -0.7700727 0.3189745 0.5524882 -0.7700726 0.3189747 0.5524884 0.7700726 -0.318975 0.5524882 0.7700731 -0.3189745 0.5524879 0.7700725 -0.318975 0.5524883 -0.3826835 0.9238796 0 -0.3826838 0.9238795 0 -0.3826838 0.9238794 0 0.3826836 -0.9238795 0 0.3826838 -0.9238795 0 0.3826838 -0.9238794 0 -0.9238796 0.3826833 0 -0.9238795 0.3826837 0 -0.9238795 0.3826838 0 0.9238795 -0.3826837 0 0.9238795 -0.3826838 0 0.3826838 0.9238795 0 0.3826836 0.9238795 0 -0.9238795 -0.3826837 0 -0.9238796 -0.3826833 0 0.9238795 0.3826837 0 0.9238795 0.3826838 0 0 -1 0 1 0 0 0 1 0 0.3826835 -0.9238796 0 0.3826834 -0.9238795 0 -0.3189744 0.7700721 0.5524893 -0.3189743 0.7700719 0.5524896 0.7700728 -0.3189745 0.5524882 0.7700728 -0.3189745 0.5524881 0.7700728 -0.3189745 0.5524882 -0.7700731 0.3189745 0.5524878 -0.7700728 0.3189748 0.5524882 -0.7700731 0.3189745 0.5524878 0.3189745 -0.7700725 0.5524885 0.3189744 -0.7700725 0.5524886 0.318975 0.7700731 0.5524874 0.3189743 0.7700722 0.5524892 0.3189752 0.7700732 0.5524872 -0.3189749 -0.7700726 0.5524882 -0.3189746 -0.7700725 0.5524885 -0.3189749 -0.7700727 0.5524882 0.7700725 0.3189744 0.5524886 0.7700727 0.3189744 0.5524883 0.7700728 0.3189745 0.5524883 -0.7700731 -0.3189745 0.5524877 -0.7700729 -0.3189749 0.552488 -0.7700728 -0.3189749 0.552488 0.3826835 0.9238796 0 0.3826838 0.9238794 0 -0.3826836 -0.9238795 0 -0.3826838 -0.9238794 0 0.9238795 0.3826837 0 0.9238796 0.3826833 0 -0.9238795 -0.3826837 0 -0.9238795 -0.3826838 0 -0.3826836 0.9238795 0 0.9238796 -0.3826833 0 0.9238795 -0.3826837 0 -0.9238795 0.3826837 0 -1 0 0 2.09338e-7 0 1 2.76179e-7 0 1 -2.14765e-7 0 1 -4.79176e-7 0 1 -4.18675e-7 0 1 -5.0909e-7 0 1 0 0 1 0.3826834 0.9238795 0 -0.3189744 -0.7700717 0.5524898 -0.3189749 -0.7700732 0.5524876 -0.3189743 -0.7700714 0.5524902 0.7700728 0.3189745 0.5524882 0.7700728 0.3189745 0.5524881 -0.7700731 -0.3189745 0.5524878 -0.7700728 -0.3189748 0.5524882 -0.7700726 -0.3189749 0.5524882 0.3189749 0.7700728 0.552488 0.3189747 0.7700727 0.5524882 0.318975 -0.7700731 0.5524874 0.3189743 -0.7700722 0.5524892 0.3189742 -0.770072 0.5524895 -0.3189749 0.7700726 0.5524882 -0.3189746 0.7700725 0.5524885 -0.3189745 0.7700725 0.5524886 0.7700727 -0.3189747 0.5524883 0.7700727 -0.3189745 0.5524882 0.7700726 -0.3189747 0.5524884 -0.7700726 0.318975 0.5524882 -0.7700731 0.3189745 0.5524879 -0.7700725 0.318975 0.5524883 0.9238796 -0.3826833 0 0.9238796 0.3826833 0 -0.3826837 0.9238795 0 -0.3826836 0.9238796 0 -0.3826837 0.9238795 0 -0.3826834 -0.9238796 0 -0.3826836 -0.9238796 0 -0.3826835 -0.9238796 0 0.3826838 0.9238795 0 0.3826837 0.9238795 0 -0.9238796 -0.3826834 0 -0.9238796 -0.3826835 0 0.9238794 0.3826838 0 0.9238796 0.3826834 0 0.9238794 0.3826838 0 0.3826836 -0.9238796 0 -0.9238794 0.3826838 0 -0.9238796 0.3826834 0 -0.9238794 0.3826838 0 0.9238796 -0.3826834 0 0.9238796 -0.3826835 0 0 0 -1 0 0 1 -3.026e-7 0 1 -3.09339e-7 0 1 -1.91113e-5 0 -1 7.88264e-7 0 -1 1.23736e-6 0 -1 0 0 1 3.63116e-6 0 1 2.74888e-7 0 -1 2.05766e-5 0 -1 2.10348e-5 0 -1 0 0 1 3.026e-7 0 1 3.09339e-7 0 1 -1.89821e-5 0 -1 1.04714e-5 0 -1 -1.9381e-5 0 -1 0 0 1 -6.05206e-7 0 1 -6.18682e-7 0 1 0 0 1 -3.6312e-6 0 1 -3.71205e-6 0 1 0 0 -1 -8.47289e-6 0 -1 -3.82552e-5 0 -1 -8.44376e-7 0 -1 0 0 1 3.02601e-7 0 1 1.45544e-7 0 -1 1.08936e-5 0 -1 1.11362e-5 0 -1 4.18676e-7 0 1 0 0 1 0 0 1 1.24274e-7 0 1 0.3826835 -0.9238796 0 0.3826832 -0.9238798 0 0.3826835 -0.9238795 0 -0.9238796 -0.3826834 0 -0.9238796 -0.3826834 0 -0.3826835 -0.9238795 0 -0.9238795 0.3826836 0 -0.9238795 0.3826836 0 0.9238792 0.3826843 0 0.9238795 0.3826836 0 0.9238792 0.3826843 0 0.3826838 0.9238795 0 0.3826839 0.9238793 0 -0.3826839 0.9238793 0 -0.382684 0.9238794 0 0.9238796 -0.3826835 0 0.9238794 -0.3826841 0 0.9238796 -0.3826834 0 0.3761847 -0.9081903 0.1835093 0.376185 -0.9081901 0.1835096 0.3761844 -0.9081904 0.1835091 -0.9081899 -0.3761854 0.1835098 -0.90819 -0.3761851 0.1835097 -0.9081898 -0.3761855 0.18351 -0.3761849 -0.9081901 0.1835095 -0.3761853 -0.9081899 0.1835101 -0.3761855 -0.9081897 0.1835104 -0.9081897 0.3761855 0.1835099 -0.9081898 0.3761852 0.1835098 -0.90819 0.3761851 0.1835097 0.9081898 0.3761855 0.1835097 0.9081898 0.3761852 0.1835097 0.9081897 0.3761857 0.1835097 0.3761849 0.90819 0.1835098 0.3761851 0.90819 0.1835098 0.3761852 0.90819 0.1835098 -0.3761852 0.90819 0.1835097 -0.3761854 0.9081899 0.1835098 -0.3761851 0.90819 0.1835096 0.9081898 -0.3761854 0.1835097 0.90819 -0.3761851 0.1835097 0.9081901 -0.3761848 0.1835096 -0.8265749 -0.3423792 0.4467107 -0.8265749 -0.3423805 0.4467098 -0.8265749 -0.3423788 0.4467109 -0.3423789 -0.8265748 0.4467111 -0.3423774 -0.8265751 0.4467118 -0.3423765 -0.8265752 0.4467122 -0.8265747 0.3423796 0.4467108 -0.826575 0.342381 0.4467091 -0.8265752 0.342382 0.446708 0.8265751 0.3423784 0.446711 0.8265761 0.3423784 0.4467093 0.8265749 0.3423784 0.4467115 0.3423785 0.8265751 0.4467109 0.3423776 0.8265756 0.4467106 0.342377 0.8265761 0.4467105 -0.3423791 0.8265746 0.4467115 -0.3423786 0.8265749 0.4467112 -0.3423793 0.8265745 0.4467115 0.8265752 -0.3423784 0.4467109 0.8265753 -0.3423767 0.4467118 0.8265751 -0.3423789 0.4467106 0.3423784 -0.8265755 0.4467104 0.3423767 -0.8265755 0.4467115 0.3423755 -0.8265756 0.4467123 0 0.9432169 -0.3321777 0 0.9432169 -0.3321777 0 0.9432169 -0.3321778 0.3189746 0.7769187 0.5428191 0.3189739 0.7769185 0.5428197 0.3189738 0.7769185 0.5428199 -0.7700729 0.4151591 -0.4843872 -0.7700721 0.4151607 -0.4843869 -0.7700729 0.4151589 -0.4843871 0.7700723 0.6270731 0.1173371 0.7700719 0.6270736 0.1173377 0.7700719 0.6270737 0.1173377 -0.3189749 0.2653136 -0.9098702 -0.3189748 0.265315 -0.9098698 -0.3189747 0.2653153 -0.9098698 -0.3189747 0.7769185 0.5428194 -0.3189738 0.7769187 0.5428197 -0.3189749 0.7769185 0.5428193 0.3189747 0.2653148 -0.9098699 0.3189747 0.2653152 -0.9098698 0.3189747 0.2653148 -0.9098699 -0.7700724 0.6270732 0.1173371 -0.7700713 0.6270743 0.1173371 -0.7700724 0.6270731 0.1173371 0.7700724 0.4151602 -0.4843868 0.7700721 0.415161 -0.4843869 0.7700719 0.4151611 -0.4843869 0 -0.9432168 0.332178 0 -0.9432168 0.3321779 0 -0.9432168 0.3321779 -0.5773504 -0.5773502 0.5773502 -0.5773504 0.5773502 0.5773502 0.5773504 -0.5773502 0.5773502 0.5773504 0.5773502 0.5773502 -0.3574069 0.3574067 0.8628562 -0.357407 0.3574067 0.8628562 -0.357407 0.3574069 0.8628561 -0.3574069 -0.3574067 0.8628562 -0.3574069 -0.3574067 0.8628562 -0.3574068 -0.3574066 0.8628562 0.3574069 -0.3574067 0.8628563 0.3574069 -0.3574067 0.8628562 0.3574067 -0.3574067 0.8628563 0.3574067 0.3574068 0.8628563 0.3574068 0.3574068 0.8628563 0.3574067 0.357407 0.8628562 -0.7071066 0 0.707107 -0.7071068 0 0.7071068 -0.7071068 0 0.7071068 0.7071069 -4.36105e-7 0.7071067 0.7071067 0 0.7071068 0.7071068 -1.23072e-7 0.7071067 0 0.7071068 0.7071068 0 0.7071067 0.7071069 0 0.7071067 0.7071068 0 -0.7071067 0.707107 0 -0.7071068 0.7071068 0 -0.7071066 0.7071071 -0.7071067 -0.7071069 0 -0.7071072 -0.7071065 0 -0.7071069 0 0.7071067 -0.7071067 0.7071069 0 -0.7071072 0.7071065 0 0.707107 0.7071067 0 0.7071067 0.7071069 0 0.7071067 0.7071068 0 0.7071069 0 0.7071067 0.7071068 0 0.7071068 0.7071068 0 0.7071068 0.7071067 -0.7071069 0 0.707107 -0.7071067 0 0.7071072 -0.7071065 0 0.7071067 -0.7071068 0 0.7071072 0.7071065 0 -0.707107 0.7071067 0 -0.707107 -0.7071067 0 -0.7071067 -0.7071068 0 -0.7071067 0.7071068 0 0.7071069 -4.17379e-7 0.7071067 4.87457e-7 0 1 -0.7071068 0 0.7071067 0.7071064 0 0.7071072 0 0.7071066 0.707107 0 0.7071068 0.7071067 0 0 1 0 -0.707107 0.7071066 0.318975 0.7700734 0.5524873 -0.7700728 -0.3189745 0.5524882 0.7700731 0.3189745 0.5524878 -0.3189747 -0.7700727 0.5524882 -0.3189752 0.7700732 0.5524872 0.3189749 -0.7700727 0.5524882 -0.7700728 0.3189745 0.5524882 0.7700731 -0.3189745 0.5524878 -0.3826834 0.9238795 0 -0.9238796 0.3826833 0 0.9238795 -0.3826838 0 -0.9238795 -0.3826838 0 0.9238795 0.3826838 0 -0.7700726 0.3189749 0.5524882 0.3189742 0.770072 0.5524895 -0.3189745 -0.7700725 0.5524886 0.7700725 0.3189744 0.5524888 -0.7700731 -0.3189745 0.5524878 0.9238796 0.3826833 0 -0.9238795 0.3826838 0 -0.318975 -0.7700734 0.5524873 0.7700728 0.3189745 0.5524882 0.3189747 0.7700727 0.5524882 0.3189752 -0.7700732 0.5524872 -0.3189749 0.7700727 0.5524882 0.9238796 -0.3826833 0 -0.3826835 0.9238795 0 -0.9238794 -0.3826838 0 0.9238796 0.3826835 0 -0.9238796 0.3826835 0 0.9238794 -0.3826838 0 -1.93808e-5 0 -1 3.71202e-6 0 1 -8.66155e-6 0 -1 -3.87618e-5 0 -1 3.19451e-7 0 1 0.3826832 -0.9238798 0 0.9238795 0.3826836 0 0.382684 0.9238794 0 -0.382684 0.9238794 0 0.9238793 -0.3826841 0 0.3761852 -0.90819 0.1835098 -0.9081901 -0.3761848 0.1835096 -0.3761847 -0.9081902 0.1835092 -0.9081897 0.3761857 0.18351 0.90819 0.3761851 0.1835097 0.3761849 0.9081901 0.1835098 -0.3761855 0.9081898 0.18351 0.9081898 -0.3761856 0.1835098 -0.8265748 -0.3423813 0.4467092 -0.3423794 -0.8265748 0.4467109 -0.8265746 0.3423791 0.4467114 0.8265766 0.3423784 0.4467082 0.3423788 0.8265749 0.4467109 -0.3423783 0.8265752 0.4467111 0.8265755 -0.3423756 0.4467124 0.342379 -0.8265755 0.44671 0 0.9432169 -0.3321779 6.48379e-7 0.9432168 -0.3321779 0 0.9432169 -0.3321776 -6.48378e-7 0.9432169 -0.3321776 0 0.9432165 -0.3321788 0.3189747 0.7769188 0.542819 -0.7700719 0.415161 -0.4843869 0.7700724 0.6270731 0.1173371 -0.3189749 0.2653135 -0.9098702 -0.3189737 0.7769186 0.5428197 0.3189747 0.2653152 -0.9098698 -0.7700712 0.6270745 0.1173371 0.7700725 0.4151601 -0.4843868 -5.44896e-7 -0.9432168 0.332178 0 -0.9432168 0.3321779 0 -0.9432166 0.3321785 5.44895e-7 -0.9432168 0.3321778 0 -0.9432168 0.3321781 -0.3574069 0.3574064 0.8628563 -0.357407 -0.3574068 0.8628561 0.3574071 -0.3574068 0.862856 0.3574068 0.3574066 0.8628563 -0.7071069 0 0.7071068 0.7071065 0 0.7071071 0 0.7071067 0.707107 0 -0.7071071 0.7071066 0.707107 0 0.7071067</float_array>
          <technique_common>
            <accessor source="#Cylinder_001-mesh-normals-array" count="407" stride="3">
              <param name="X" type="float"/>
              <param name="Y" type="float"/>
              <param name="Z" type="float"/>
            </accessor>
          </technique_common>
        </source>
        <source id="Cylinder_001-mesh-map-0">
          <float_array id="Cylinder_001-mesh-map-0-array" count="2712">0.456941 0.4034867 0.456941 0.3549148 0.5055129 0.3549148 0.5196373 0.7315834 0.5311124 0.839576 0.5196373 0.839576 0.2588605 0.9414921 0.1972656 0.951602 0.2537316 0.951602 0.1972656 0.951602 0.1356707 0.9414921 0.1407996 0.951602 0.1972656 0.951602 0.2588605 0.9414921 0.2537316 0.951602 0.1356707 0.9414921 0.1972656 0.951602 0.1407996 0.951602 0.1972656 0.951602 0.1356707 0.9414921 0.1407996 0.951602 0.1972656 0.951602 0.2588605 0.9414921 0.2537316 0.951602 0.2588605 0.9414921 0.1972656 0.951602 0.2537316 0.951602 0.1356707 0.9414921 0.1972656 0.951602 0.1407996 0.951602 0.5311124 0.7315834 0.5196373 0.839576 0.5311124 0.839576 0.5311124 0.7315834 0.5425876 0.839576 0.5311124 0.839576 0.5425876 0.7315834 0.5311124 0.839576 0.5425876 0.839576 0.5196373 0.7315834 0.5311124 0.839576 0.5196373 0.839576 0.5425876 0.7315834 0.5311124 0.839576 0.5425876 0.839576 0.5311124 0.7315834 0.5196373 0.839576 0.5311124 0.839576 0.5311124 0.7315834 0.5425876 0.839576 0.5311124 0.839576 0.5446533 0.8355205 0.5151831 0.7287744 0.5446533 0.7287744 0.5446533 0.8355205 0.5151831 0.7287744 0.5446533 0.7287744 0.5446533 0.7287744 0.5151831 0.8355205 0.5151831 0.7287744 0.1447775 0.9249746 0.1949506 0.8748015 0.1949506 0.9249746 0.5151831 0.8355205 0.5446533 0.7287744 0.5151831 0.7287744 0.456941 0.3549148 0.456941 0.4034867 0.5055129 0.4034867 0.5311124 0.839576 0.5196373 0.7315834 0.5196373 0.839576 0.1972656 0.951602 0.2588605 0.9414921 0.2537316 0.951602 0.1972656 0.951602 0.1356707 0.9414921 0.1972656 0.9414921 0.1972656 0.951602 0.2588605 0.9414921 0.1972656 0.9414921 0.1972656 0.951602 0.1356707 0.9414921 0.1407996 0.951602 0.1972656 0.951602 0.1356707 0.9414921 0.1972656 0.9414921 0.1972656 0.951602 0.2588605 0.9414921 0.1972656 0.9414921 0.1972656 0.951602 0.2588605 0.9414921 0.2537316 0.951602 0.1972656 0.951602 0.1356707 0.9414921 0.1407996 0.951602 0.5196373 0.839576 0.5311124 0.7315834 0.5311124 0.839576 0.5425876 0.839576 0.5311124 0.7315834 0.5311124 0.839576 0.5311124 0.839576 0.5425876 0.7315834 0.5425876 0.839576 0.5311124 0.839576 0.5196373 0.7315834 0.5196373 0.839576 0.5311124 0.839576 0.5425876 0.7315834 0.5425876 0.839576 0.5196373 0.839576 0.5311124 0.7315834 0.5311124 0.839576 0.5425876 0.839576 0.5311124 0.7315834 0.5311124 0.839576 0.5151831 0.7287744 0.5446533 0.8355205 0.5446533 0.7287744 0.5151831 0.7287744 0.5446533 0.8355205 0.5446533 0.7287744 0.5251429 0.7287744 0.5151831 0.8355205 0.5151831 0.7287744 0.1949506 0.8748014 0.1447775 0.9249747 0.1949506 0.9249746 0.5446533 0.7287744 0.5151831 0.8355205 0.5151831 0.7287744 0.5196373 0.7315834 0.5311124 0.839576 0.5196373 0.839576 0.5311124 0.7315834 0.5196373 0.839576 0.5311124 0.839576 0.5311124 0.7315834 0.5425876 0.839576 0.5311124 0.839576 0.5425876 0.7315834 0.5311124 0.839576 0.5425876 0.839576 0.5196373 0.7315834 0.5311124 0.839576 0.5196373 0.839576 0.5425876 0.7315834 0.5311124 0.839576 0.5425876 0.839576 0.5311124 0.7315834 0.5196373 0.839576 0.5311124 0.839576 0.5311124 0.7315834 0.5425876 0.839576 0.5311124 0.839576 0.1502043 0.9109929 0.1482913 0.908018 0.1464782 0.9134771 0.1809689 0.9195478 0.177994 0.9214607 0.1834532 0.9232739 0.1895239 0.8887831 0.1914368 0.891758 0.19325 0.8862988 0.1587592 0.8802283 0.1617342 0.8783152 0.156275 0.8765022 0.1587592 0.9195478 0.1617342 0.9214608 0.1617342 0.9195477 0.456941 0.4034867 0.456941 0.3549148 0.5055129 0.3549148 0.5196373 0.7315834 0.5311124 0.839576 0.5196373 0.839576 0.2588605 0.9414921 0.1972656 0.951602 0.2537316 0.951602 0.1972656 0.951602 0.1356707 0.9414921 0.1407996 0.951602 0.1972656 0.951602 0.2588605 0.9414921 0.2537316 0.951602 0.1356707 0.9414921 0.1972656 0.951602 0.1407996 0.951602 0.1972656 0.951602 0.1356707 0.9414921 0.1407996 0.951602 0.1972656 0.951602 0.2588605 0.9414921 0.2537316 0.951602 0.2588605 0.9414921 0.1972656 0.951602 0.2537316 0.951602 0.1356707 0.9414921 0.1972656 0.951602 0.1407996 0.951602 0.5311124 0.7315834 0.5196373 0.839576 0.5311124 0.839576 0.5311124 0.7315834 0.5425876 0.839576 0.5311124 0.839576 0.5425876 0.7315834 0.5311124 0.839576 0.5425876 0.839576 0.5196373 0.7315834 0.5311124 0.839576 0.5196373 0.839576 0.5425876 0.7315834 0.5311124 0.839576 0.5425876 0.839576 0.5311124 0.7315834 0.5196373 0.839576 0.5311124 0.839576 0.5311124 0.7315834 0.5425876 0.839576 0.5311124 0.839576 0.5446533 0.8355205 0.5151831 0.7287744 0.5446533 0.7287744 0.5446533 0.8355205 0.5151831 0.7287744 0.5446533 0.7287744 0.1447775 0.9249746 0.1949506 0.8748015 0.1949506 0.9249746 0.5151831 0.8355205 0.5446533 0.7287744 0.5151831 0.7287744 0.5311124 0.839576 0.5196373 0.7315834 0.5196373 0.839576 0.5196373 0.839576 0.5311124 0.7315834 0.5311124 0.839576 0.5425876 0.839576 0.5311124 0.7315834 0.5311124 0.839576 0.5311124 0.839576 0.5425876 0.7315834 0.5425876 0.839576 0.5311124 0.839576 0.5196373 0.7315834 0.5196373 0.839576 0.5311124 0.839576 0.5425876 0.7315834 0.5425876 0.839576 0.5196373 0.839576 0.5311124 0.7315834 0.5311124 0.839576 0.5425876 0.839576 0.5311124 0.7315834 0.5311124 0.839576 0.5425876 0.839576 0.5311124 0.839576 0.5311124 0.839576 0.5425876 0.7315834 0.5311124 0.7315834 0.5425876 0.7315834 0.5425876 0.839576 0.5311124 0.839576 0.5311124 0.839576 0.5311124 0.7315834 0.5425876 0.7315834 0.5425876 0.7315834 0.5311124 0.839576 0.5196373 0.839576 0.5311124 0.839576 0.5311124 0.7315834 0.5196373 0.7315834 0.5196373 0.7315834 0.5196373 0.839576 0.5311124 0.839576 0.5311124 0.839576 0.5196373 0.7315834 0.5311124 0.7315834 0.5196373 0.7315834 0.5311124 0.839576 0.5425876 0.839576 0.5425876 0.839576 0.5311124 0.839576 0.5196373 0.839576 0.5196373 0.839576 0.5311124 0.7315834 0.5425876 0.7315834 0.5311124 0.7315834 0.5196373 0.7315834 0.5311124 0.7315834 0.5311124 0.7315834 0.5196373 0.839576 0.5311124 0.839576 0.5196373 0.839576 0.5196373 0.7315834 0.5311124 0.7315834 0.5311124 0.7315834 0.5425876 0.839576 0.5311124 0.839576 0.5425876 0.839576 0.5425876 0.7315834 0.5311124 0.7315834 0.5311124 0.7315834 0.5251429 0.7287744 0.5151831 0.8355205 0.5151831 0.7287744 0.5346935 0.7287744 0.5446533 0.8355205 0.5446533 0.7287744 0.5151831 0.8355205 0.5446533 0.7287744 0.5151831 0.7287744 0.5346935 0.7287744 0.5446533 0.8355205 0.5446533 0.7287744 0.5151831 0.7287744 0.5251429 0.8355205 0.5251429 0.7287744 0.1809689 0.8802282 0.177994 0.8783152 0.177994 0.8802282 0.5446533 0.7287744 0.5346935 0.8355205 0.5346935 0.7287744 0.1502043 0.8887832 0.1482913 0.891758 0.1502043 0.8917581 0.5151831 0.7287744 0.5251429 0.8355205 0.5251429 0.7287744 0.1895239 0.9109929 0.1914368 0.9080178 0.1895239 0.9080179 0.5446533 0.7287744 0.5346935 0.8355205 0.5346935 0.7287744 0.685478 0.4637051 0.6923469 0.3628649 0.6923469 0.4637051 0.685478 0.4637051 0.6786093 0.3628649 0.6786093 0.4637051 0.6786093 0.4637051 0.685478 0.3628649 0.685478 0.4637051 0.6923469 0.4637051 0.685478 0.3628649 0.685478 0.4637051 0.685478 0.4637051 0.6923469 0.3628649 0.6923469 0.4637051 0.6923469 0.4637051 0.685478 0.3628649 0.685478 0.4637051 0.685478 0.4637051 0.6786093 0.3628649 0.6786093 0.4637051 0.6786093 0.4637051 0.685478 0.3628649 0.685478 0.4637051 0.6655049 0.03875213 0.6190714 0.06049352 0.6190714 0.03875213 0.5726383 0.03875213 0.6190714 0.06049352 0.6190714 0.03875213 0.5726383 0.03875213 0.6190714 0.06049352 0.5858057 0.06049352 0.6655054 0.03875213 0.6190714 0.06049352 0.6523376 0.06049352 0.6655054 0.03875213 0.6190714 0.06049352 0.6190714 0.03875213 0.6655054 0.03875213 0.6190714 0.06049352 0.6523376 0.06049352 0.5726383 0.03875213 0.6190714 0.06049352 0.6190714 0.03875213 0.5726383 0.03875213 0.6190714 0.06049352 0.5858057 0.06049352 0.5586834 0.07498925 0.5932781 0.1023458 0.5932781 0.07498925 0.5586834 0.07498925 0.5932781 0.1023458 0.579847 0.1023458 0.6278731 0.07498925 0.5932781 0.1023458 0.6067096 0.1023458 0.6278731 0.07498925 0.5932781 0.1023458 0.5932781 0.07498925 0.6278731 0.07498925 0.5932781 0.1023458 0.6067096 0.1023458 0.5586834 0.07498925 0.5932781 0.1023458 0.5932781 0.07498925 0.5932781 0.07498925 0.579847 0.1023458 0.5586834 0.07498925 0.5932781 0.07498925 0.6067096 0.1023458 0.5932781 0.1023458 0.6881799 0.4562351 0.6873886 0.4581456 0.6835675 0.4543246 0.5055129 0.3549148 0.456941 0.3549148 0.456941 0.4034867 0.1972656 0.951602 0.2588605 0.9414921 0.2537316 0.951602 0.1972656 0.951602 0.1356707 0.9414921 0.1972656 0.9414921 0.2537316 0.951602 0.1972656 0.9414921 0.1972656 0.951602 0.1972656 0.951602 0.1356707 0.9414921 0.1407996 0.951602 0.1972656 0.951602 0.1356707 0.9414921 0.1972656 0.9414921 0.1972656 0.951602 0.2588605 0.9414921 0.1972656 0.9414921 0.2537316 0.951602 0.1972656 0.9414921 0.2588605 0.9414921 0.1972656 0.951602 0.1356707 0.9414921 0.1407996 0.951602 0.1516456 0.9198563 0.1516456 0.8769922 0.1970902 0.8769922 0.5214843 0.2984368 0.5214843 0.2816414 0.529882 0.2900391 0.5104078 0.8355205 0.5151831 0.8402958 0.5151831 0.8355205 0.5446533 0.8402958 0.5494286 0.8355205 0.5446532 0.8355205 0.5446533 0.8402958 0.5446533 0.8355205 0.5494286 0.8355205 0.5446533 0.8402958 0.5494286 0.8355205 0.5446532 0.8355205 0.5151831 0.8355205 0.5104078 0.8355205 0.5151831 0.8402958 0.5446533 0.8402958 0.5446533 0.8355205 0.5494286 0.8355205 0.5446533 0.8402958 0.5494286 0.8355205 0.5446533 0.8355205 0.5446533 0.8402958 0.5494286 0.8355205 0.5446533 0.8355205 0.5151831 0.8355205 0.5151831 0.8402958 0.5104078 0.8355205 0.5446533 0.8402958 0.5494286 0.8355205 0.5446532 0.8355205 0.5446533 0.8402958 0.5446533 0.8355205 0.5494286 0.8355205 0.5446533 0.8402958 0.5446533 0.8355205 0.5494286 0.8355205 0.5151831 0.8355205 0.5151831 0.8402958 0.5104078 0.8355205 0.5446534 0.8355205 0.5446533 0.8402958 0.5379 0.8402958 0.5446533 0.8355205 0.5446533 0.8402958 0.5379 0.8402958 0.5446533 0.8402958 0.5446533 0.8355205 0.5379 0.8402958 0.5346935 0.8402958 0.5299182 0.8355205 0.5346935 0.8355205 0.8713656 0.4415006 0.9026444 0.4136448 0.8713656 0.4136444 0.5251429 0.8402958 0.5299182 0.8355205 0.5251429 0.8355205 0.5299182 0.8402958 0.525143 0.8355205 0.5299182 0.8355205 0.5151831 0.8355205 0.5151831 0.7287744 0.5151831 0.7287744 0.5446533 0.8402958 0.5151831 0.8355205 0.5151831 0.8402958 0.5494286 0.7287744 0.5446532 0.8355205 0.5494286 0.8355205 0.5446533 0.8402958 0.5151831 0.8355205 0.5151831 0.8402958 0.5446533 0.7287744 0.5446532 0.8355205 0.5446533 0.8355205 0.5151831 0.8402958 0.5446533 0.8355205 0.5446533 0.8402958 0.5446533 0.7287744 0.5494286 0.8355205 0.5446533 0.8355205 0.5151831 0.8402958 0.5446533 0.8355205 0.5446533 0.8402958 0.5151831 0.8355205 0.5151831 0.7287744 0.5151831 0.7287744 0.5446533 0.8355205 0.5151831 0.8402958 0.5151831 0.8355205 0.5446533 0.7287744 0.5494286 0.8355205 0.5446533 0.8355205 0.5446533 0.8355205 0.5151831 0.8402958 0.5151831 0.8355205 0.5446533 0.7287744 0.5446533 0.8355205 0.5446533 0.8355205 0.5151831 0.8355205 0.5446533 0.8402958 0.5446533 0.8355205 0.5494286 0.7287744 0.5446533 0.8355205 0.5494286 0.8355205 0.5151831 0.8355205 0.5446533 0.8402958 0.5446533 0.8355205 0.5151831 0.8355205 0.5151831 0.7287744 0.5151831 0.7287744 0.5346935 0.8355205 0.5379 0.8402958 0.5346935 0.8402958 0.5446533 0.7287744 0.5494286 0.8355205 0.5446534 0.8355205 0.5346935 0.8355205 0.5379 0.8402958 0.5346935 0.8402958 0.5446533 0.7287744 0.5446533 0.8355205 0.5446533 0.8355205 0.5251429 0.8355205 0.5219364 0.8402958 0.5251429 0.8402958 0.5494286 0.7287744 0.5446533 0.8355205 0.5494286 0.8355205 0.5251429 0.8355205 0.5219364 0.8402958 0.5251429 0.8402958 0.5151831 0.8355205 0.5151831 0.7287744 0.5151831 0.7287744 0.8133649 0.4168632 0.8592066 0.3964489 0.8592066 0.4168632 0.5494286 0.7287744 0.5446532 0.8355205 0.5494286 0.8355205 0.5446533 0.8402958 0.5151831 0.8355205 0.5151831 0.8402958 0.5446533 0.7287744 0.5446532 0.8355205 0.5446533 0.8355205 0.5151831 0.8402958 0.5446533 0.8355205 0.5446533 0.8402958 0.5446533 0.7287744 0.5494286 0.8355205 0.5446533 0.8355205 0.5151831 0.8402958 0.5446533 0.8355205 0.5446533 0.8402958 0.1587592 0.9195478 0.1464782 0.9134771 0.156275 0.9232738 0.156275 0.8765022 0.1502043 0.8887832 0.1587592 0.8802283 0.19325 0.9134771 0.1809689 0.9195478 0.1834532 0.9232739 0.1834532 0.8765022 0.1895239 0.8887831 0.19325 0.8862988 0.5251429 0.8355205 0.5219363 0.8402958 0.5151831 0.8355205 0.1482913 0.891758 0.1502043 0.908018 0.1502043 0.8917581 0.5346935 0.8355205 0.5251429 0.7287744 0.5346935 0.7287744 0.5346935 0.8355205 0.5379 0.8402958 0.5446533 0.8355205 0.1914368 0.9080178 0.1895239 0.891758 0.1895239 0.9080179 0.5251429 0.8355205 0.5346935 0.7287744 0.5251429 0.7287744 0.5346935 0.8355205 0.5379 0.8402958 0.5446533 0.8355205 0.177994 0.8783152 0.1617342 0.8802282 0.177994 0.8802282 0.5251429 0.8355205 0.5346935 0.7287744 0.5251429 0.7287744 0.525143 0.8355205 0.5219364 0.8402958 0.5151831 0.8355205 0.1617342 0.9214608 0.177994 0.9195478 0.1617342 0.9195477 0.5346935 0.8355205 0.5251429 0.7287744 0.5346935 0.7287744 0.5151831 0.8355205 0.5446533 0.7287744 0.5151831 0.7287744 0.5055129 0.3549148 0.5155725 0.3792008 0.5055129 0.4034867 0.5055129 0.4034867 0.4812269 0.4135464 0.456941 0.4034867 0.456941 0.4034867 0.4468814 0.3792008 0.456941 0.3549148 0.456941 0.3549148 0.4812269 0.3448552 0.5055129 0.3549148 0.5055129 0.3549148 0.5055129 0.4034867 0.456941 0.4034867 0.5196373 0.7315834 0.5311124 0.7315834 0.5311124 0.839576 0.2588605 0.9414921 0.1972656 0.9414921 0.1972656 0.951602 0.1972656 0.951602 0.1972656 0.9414921 0.1356707 0.9414921 0.1972656 0.951602 0.1972656 0.9414921 0.2588605 0.9414921 0.1356707 0.9414921 0.1972656 0.9414921 0.1972656 0.951602 0.1972656 0.951602 0.1972656 0.9414921 0.1356707 0.9414921 0.1972656 0.951602 0.1972656 0.9414921 0.2588605 0.9414921 0.2588605 0.9414921 0.1972656 0.9414921 0.1972656 0.951602 0.1356707 0.9414921 0.1972656 0.9414921 0.1972656 0.951602 0.5311124 0.7315834 0.5196373 0.7315834 0.5196373 0.839576 0.5311124 0.7315834 0.5425876 0.7315834 0.5425876 0.839576 0.5425876 0.7315834 0.5311124 0.7315834 0.5311124 0.839576 0.5196373 0.7315834 0.5311124 0.7315834 0.5311124 0.839576 0.5425876 0.7315834 0.5311124 0.7315834 0.5311124 0.839576 0.5311124 0.7315834 0.5196373 0.7315834 0.5196373 0.839576 0.5311124 0.7315834 0.5425876 0.7315834 0.5425876 0.839576 0.5446533 0.8355205 0.5151831 0.8355205 0.5151831 0.7287744 0.5446533 0.8355205 0.5151831 0.8355205 0.5151831 0.7287744 0.5446533 0.7287744 0.5446533 0.8355205 0.5151831 0.8355205 0.1447775 0.9249746 0.1447775 0.8748014 0.1949506 0.8748015 0.5151831 0.8355205 0.5446532 0.8355205 0.5446533 0.7287744 0.5055129 0.4034867 0.5155725 0.3792008 0.5055129 0.3549148 0.5055129 0.3549148 0.4812269 0.3448552 0.456941 0.3549148 0.456941 0.3549148 0.4468814 0.3792008 0.456941 0.4034867 0.456941 0.4034867 0.4812269 0.4135464 0.5055129 0.4034867 0.5055129 0.4034867 0.5055129 0.3549148 0.456941 0.3549148 0.5311124 0.839576 0.5311124 0.7315834 0.5196373 0.7315834 0.1972656 0.951602 0.1972656 0.9414921 0.2588605 0.9414921 0.1972656 0.951602 0.1407996 0.951602 0.1356707 0.9414921 0.1972656 0.951602 0.2537316 0.951602 0.2588605 0.9414921 0.1972656 0.951602 0.1972656 0.9414921 0.1356707 0.9414921 0.1972656 0.951602 0.1407996 0.951602 0.1356707 0.9414921 0.1972656 0.951602 0.2537316 0.951602 0.2588605 0.9414921 0.1972656 0.951602 0.1972656 0.9414921 0.2588605 0.9414921 0.1972656 0.951602 0.1972656 0.9414921 0.1356707 0.9414921 0.5196373 0.839576 0.5196373 0.7315834 0.5311124 0.7315834 0.5425876 0.839576 0.5425876 0.7315834 0.5311124 0.7315834 0.5311124 0.839576 0.5311124 0.7315834 0.5425876 0.7315834 0.5311124 0.839576 0.5311124 0.7315834 0.5196373 0.7315834 0.5311124 0.839576 0.5311124 0.7315834 0.5425876 0.7315834 0.5196373 0.839576 0.5196373 0.7315834 0.5311124 0.7315834 0.5425876 0.839576 0.5425876 0.7315834 0.5311124 0.7315834 0.5151831 0.7287744 0.5151831 0.8355205 0.5446533 0.8355205 0.5151831 0.7287744 0.5151831 0.8355205 0.5446533 0.8355205 0.5251429 0.7287744 0.5251429 0.8355205 0.5151831 0.8355205 0.1949506 0.8748014 0.1447775 0.8748014 0.1447775 0.9249747 0.5446533 0.7287744 0.5446533 0.8355205 0.5151831 0.8355205 0.5196373 0.7315834 0.5311124 0.7315834 0.5311124 0.839576 0.5311124 0.7315834 0.5196373 0.7315834 0.5196373 0.839576 0.5311124 0.7315834 0.5425876 0.7315834 0.5425876 0.839576 0.5425876 0.7315834 0.5311124 0.7315834 0.5311124 0.839576 0.5196373 0.7315834 0.5311124 0.7315834 0.5311124 0.839576 0.5425876 0.7315834 0.5311124 0.7315834 0.5311124 0.839576 0.5311124 0.7315834 0.5196373 0.7315834 0.5196373 0.839576 0.5311124 0.7315834 0.5425876 0.7315834 0.5425876 0.839576 0.1502043 0.9109929 0.1502043 0.908018 0.1482913 0.908018 0.1809689 0.9195478 0.177994 0.9195478 0.177994 0.9214607 0.1895239 0.8887831 0.1895239 0.891758 0.1914368 0.891758 0.1587592 0.8802283 0.1617342 0.8802282 0.1617342 0.8783152 0.1587592 0.9195478 0.156275 0.9232738 0.1617342 0.9214608 0.5055129 0.3549148 0.5155725 0.3792008 0.5055129 0.4034867 0.5055129 0.4034867 0.4812269 0.4135464 0.456941 0.4034867 0.456941 0.4034867 0.4468814 0.3792008 0.456941 0.3549148 0.456941 0.3549148 0.4812269 0.3448552 0.5055129 0.3549148 0.5055129 0.3549148 0.5055129 0.4034867 0.456941 0.4034867 0.5196373 0.7315834 0.5311124 0.7315834 0.5311124 0.839576 0.2588605 0.9414921 0.1972656 0.9414921 0.1972656 0.951602 0.1972656 0.951602 0.1972656 0.9414921 0.1356707 0.9414921 0.1972656 0.951602 0.1972656 0.9414921 0.2588605 0.9414921 0.1356707 0.9414921 0.1972656 0.9414921 0.1972656 0.951602 0.1972656 0.951602 0.1972656 0.9414921 0.1356707 0.9414921 0.1972656 0.951602 0.1972656 0.9414921 0.2588605 0.9414921 0.2588605 0.9414921 0.1972656 0.9414921 0.1972656 0.951602 0.1356707 0.9414921 0.1972656 0.9414921 0.1972656 0.951602 0.5311124 0.7315834 0.5196373 0.7315834 0.5196373 0.839576 0.5311124 0.7315834 0.5425876 0.7315834 0.5425876 0.839576 0.5425876 0.7315834 0.5311124 0.7315834 0.5311124 0.839576 0.5196373 0.7315834 0.5311124 0.7315834 0.5311124 0.839576 0.5425876 0.7315834 0.5311124 0.7315834 0.5311124 0.839576 0.5311124 0.7315834 0.5196373 0.7315834 0.5196373 0.839576 0.5311124 0.7315834 0.5425876 0.7315834 0.5425876 0.839576 0.5446533 0.8355205 0.5151831 0.8355205 0.5151831 0.7287744 0.5446533 0.8355205 0.5151831 0.8355205 0.5151831 0.7287744 0.1447775 0.9249746 0.1447775 0.8748014 0.1949506 0.8748015 0.5151831 0.8355205 0.5446532 0.8355205 0.5446533 0.7287744 0.5311124 0.839576 0.5311124 0.7315834 0.5196373 0.7315834 0.5196373 0.839576 0.5196373 0.7315834 0.5311124 0.7315834 0.5425876 0.839576 0.5425876 0.7315834 0.5311124 0.7315834 0.5311124 0.839576 0.5311124 0.7315834 0.5425876 0.7315834 0.5311124 0.839576 0.5311124 0.7315834 0.5196373 0.7315834 0.5311124 0.839576 0.5311124 0.7315834 0.5425876 0.7315834 0.5196373 0.839576 0.5196373 0.7315834 0.5311124 0.7315834 0.5425876 0.839576 0.5425876 0.7315834 0.5311124 0.7315834 0.5425876 0.839576 0.5425876 0.839576 0.5311124 0.839576 0.5425876 0.7315834 0.5311124 0.7315834 0.5311124 0.7315834 0.5425876 0.839576 0.5425876 0.839576 0.5311124 0.839576 0.5311124 0.7315834 0.5311124 0.7315834 0.5425876 0.7315834 0.5311124 0.839576 0.5196373 0.839576 0.5196373 0.839576 0.5311124 0.7315834 0.5311124 0.7315834 0.5196373 0.7315834 0.5196373 0.839576 0.5196373 0.839576 0.5311124 0.839576 0.5196373 0.7315834 0.5311124 0.7315834 0.5311124 0.7315834 0.5311124 0.839576 0.5311124 0.839576 0.5425876 0.839576 0.5311124 0.839576 0.5311124 0.839576 0.5196373 0.839576 0.5311124 0.7315834 0.5425876 0.7315834 0.5425876 0.7315834 0.5196373 0.7315834 0.5196373 0.7315834 0.5311124 0.7315834 0.5196373 0.839576 0.5311124 0.839576 0.5311124 0.839576 0.5196373 0.7315834 0.5196373 0.7315834 0.5311124 0.7315834 0.5425876 0.839576 0.5311124 0.839576 0.5311124 0.839576 0.5425876 0.7315834 0.5425876 0.7315834 0.5311124 0.7315834 0.5251429 0.7287744 0.525143 0.8355205 0.5151831 0.8355205 0.5346935 0.7287744 0.5346935 0.8355205 0.5446533 0.8355205 0.5151831 0.8355205 0.5446532 0.8355205 0.5446533 0.7287744 0.5346935 0.7287744 0.5346935 0.8355205 0.5446533 0.8355205 0.5151831 0.7287744 0.5151832 0.8355205 0.5251429 0.8355205 0.1809689 0.8802282 0.1834532 0.8765022 0.177994 0.8783152 0.5446533 0.7287744 0.5446533 0.8355205 0.5346935 0.8355205 0.1502043 0.8887832 0.1464782 0.8862989 0.1482913 0.891758 0.5151831 0.7287744 0.5151831 0.8355205 0.5251429 0.8355205 0.1895239 0.9109929 0.19325 0.9134771 0.1914368 0.9080178 0.5446533 0.7287744 0.5446534 0.8355205 0.5346935 0.8355205 0.685478 0.4637051 0.685478 0.3628649 0.6923469 0.3628649 0.685478 0.4637051 0.685478 0.3628649 0.6786093 0.3628649 0.6786093 0.4637051 0.6786093 0.3628649 0.685478 0.3628649 0.6923469 0.4637051 0.6923469 0.3628649 0.685478 0.3628649 0.685478 0.4637051 0.685478 0.3628649 0.6923469 0.3628649 0.6923469 0.4637051 0.6923469 0.3628649 0.685478 0.3628649 0.685478 0.4637051 0.685478 0.3628649 0.6786093 0.3628649 0.6786093 0.4637051 0.6786093 0.3628649 0.685478 0.3628649 0.6655049 0.03875213 0.6523376 0.06049352 0.6190714 0.06049352 0.5726383 0.03875213 0.5858057 0.06049352 0.6190714 0.06049352 0.5726383 0.03875213 0.6190714 0.03875213 0.6190714 0.06049352 0.6655054 0.03875213 0.6190714 0.03875213 0.6190714 0.06049352 0.6655054 0.03875213 0.6523376 0.06049352 0.6190714 0.06049352 0.6655054 0.03875213 0.6190714 0.03875213 0.6190714 0.06049352 0.5726383 0.03875213 0.5858057 0.06049352 0.6190714 0.06049352 0.5726383 0.03875213 0.6190714 0.03875213 0.6190714 0.06049352 0.5586834 0.07498925 0.579847 0.1023458 0.5932781 0.1023458 0.5586834 0.07498925 0.5932781 0.07498925 0.5932781 0.1023458 0.6278731 0.07498925 0.5932781 0.07498925 0.5932781 0.1023458 0.6278731 0.07498925 0.6067096 0.1023458 0.5932781 0.1023458 0.6278731 0.07498925 0.5932781 0.07498925 0.5932781 0.1023458 0.5586834 0.07498925 0.579847 0.1023458 0.5932781 0.1023458 0.5932781 0.07498925 0.5932781 0.1023458 0.579847 0.1023458 0.5932781 0.07498925 0.6278731 0.07498925 0.6067096 0.1023458 0.6873886 0.4581456 0.685478 0.4589369 0.6835675 0.4581456 0.6835675 0.4581456 0.6827762 0.4562351 0.6873886 0.4581456 0.6827762 0.4562351 0.6835675 0.4543246 0.6873886 0.4581456 0.6835675 0.4543246 0.685478 0.4535332 0.6873886 0.4543246 0.6873886 0.4543246 0.6881799 0.4562351 0.6835675 0.4543246 0.5055129 0.4034867 0.5155725 0.3792008 0.5055129 0.3549148 0.5055129 0.3549148 0.4812269 0.3448552 0.456941 0.3549148 0.456941 0.3549148 0.4468814 0.3792008 0.456941 0.4034867 0.456941 0.4034867 0.4812269 0.4135464 0.5055129 0.4034867 0.5055129 0.4034867 0.5055129 0.3549148 0.456941 0.4034867 0.1972656 0.951602 0.1972656 0.9414921 0.2588605 0.9414921 0.1972656 0.951602 0.1407996 0.951602 0.1356707 0.9414921 0.2537316 0.951602 0.2588605 0.9414921 0.1972656 0.9414921 0.1972656 0.951602 0.1972656 0.9414921 0.1356707 0.9414921 0.1972656 0.951602 0.1407996 0.951602 0.1356707 0.9414921 0.1972656 0.951602 0.2537316 0.951602 0.2588605 0.9414921 0.2537316 0.951602 0.1972656 0.951602 0.1972656 0.9414921 0.1972656 0.951602 0.1972656 0.9414921 0.1356707 0.9414921 0.1970902 0.8769922 0.206502 0.8984242 0.1970902 0.9198563 0.1970902 0.9198563 0.1743679 0.9287337 0.1516456 0.9198563 0.1516456 0.9198563 0.1422337 0.8984242 0.1516456 0.8769922 0.1516456 0.8769922 0.1743679 0.8681147 0.1970902 0.8769922 0.1970902 0.8769922 0.1970902 0.9198563 0.1516456 0.9198563 0.5152359 0.2962875 0.5130866 0.2900391 0.5214843 0.2984368 0.5130866 0.2900391 0.5152359 0.2837906 0.5214843 0.2816414 0.5214843 0.2816414 0.5277328 0.2837906 0.529882 0.2900391 0.529882 0.2900391 0.5277328 0.2962875 0.5214843 0.2984368 0.5130866 0.2900391 0.5214843 0.2816414 0.5214843 0.2984368 0.5151831 0.8355205 0.5219363 0.8402958 0.5151831 0.8402958 0.5446534 0.8355205 0.5494286 0.8355205 0.5446533 0.8402958 0.5446533 0.8355205 0.5494286 0.8355205 0.5446533 0.8402958 0.5446533 0.8402958 0.5494286 0.8355205 0.5446533 0.8355205 0.5346935 0.8402958 0.5299182 0.8402958 0.5299182 0.8355205 0.8713656 0.4415006 0.9026444 0.4415006 0.9026444 0.4136448 0.5251429 0.8402958 0.5299182 0.8402958 0.5299182 0.8355205 0.5299182 0.8402958 0.5251429 0.8402958 0.525143 0.8355205 0.5151831 0.8355205 0.5151831 0.8355205 0.5151831 0.7287744 0.5446533 0.8402958 0.5446532 0.8355205 0.5151831 0.8355205 0.5494286 0.7287744 0.5446533 0.7287744 0.5446532 0.8355205 0.5446533 0.8402958 0.5446532 0.8355205 0.5151831 0.8355205 0.5446533 0.7287744 0.5446533 0.7287744 0.5446532 0.8355205 0.5151831 0.8402958 0.5151831 0.8355205 0.5446533 0.8355205 0.5446533 0.7287744 0.5494286 0.7287744 0.5494286 0.8355205 0.5151831 0.8402958 0.5151831 0.8355205 0.5446533 0.8355205 0.5151831 0.8355205 0.5151831 0.8355205 0.5151831 0.7287744 0.5446533 0.8355205 0.5446533 0.8402958 0.5151831 0.8402958 0.5446533 0.7287744 0.5494286 0.7287744 0.5494286 0.8355205 0.5446533 0.8355205 0.5446533 0.8402958 0.5151831 0.8402958 0.5446533 0.7287744 0.5446533 0.7287744 0.5446533 0.8355205 0.5151831 0.8355205 0.5151831 0.8402958 0.5446533 0.8402958 0.5494286 0.7287744 0.5446533 0.7287744 0.5446533 0.8355205 0.5151831 0.8355205 0.5151831 0.8402958 0.5446533 0.8402958 0.5151831 0.8355205 0.5151832 0.8355205 0.5151831 0.7287744 0.5346935 0.8355205 0.5446534 0.8355205 0.5379 0.8402958 0.5446533 0.7287744 0.5494286 0.7287744 0.5494286 0.8355205 0.5346935 0.8355205 0.5446533 0.8355205 0.5379 0.8402958 0.5446533 0.7287744 0.5446533 0.7287744 0.5446533 0.8355205 0.5251429 0.8355205 0.5151831 0.8355205 0.5219364 0.8402958 0.5494286 0.7287744 0.5446533 0.7287744 0.5446533 0.8355205 0.5251429 0.8355205 0.5151832 0.8355205 0.5219364 0.8402958 0.5151831 0.8355205 0.5151831 0.8355205 0.5151831 0.7287744 0.8133649 0.4168632 0.813365 0.3964489 0.8592066 0.3964489 0.5494286 0.7287744 0.5446533 0.7287744 0.5446532 0.8355205 0.5446533 0.8402958 0.5446532 0.8355205 0.5151831 0.8355205 0.5446533 0.7287744 0.5446533 0.7287744 0.5446532 0.8355205 0.5151831 0.8402958 0.5151831 0.8355205 0.5446533 0.8355205 0.5446533 0.7287744 0.5494286 0.7287744 0.5494286 0.8355205 0.5151831 0.8402958 0.5151831 0.8355205 0.5446533 0.8355205 0.1587592 0.9195478 0.1502043 0.9109929 0.1464782 0.9134771 0.156275 0.8765022 0.1464782 0.8862989 0.1502043 0.8887832 0.19325 0.9134771 0.1895239 0.9109929 0.1809689 0.9195478 0.1834532 0.8765022 0.1809689 0.8802282 0.1895239 0.8887831 0.5251429 0.8355205 0.5251429 0.8402958 0.5219363 0.8402958 0.1482913 0.891758 0.1482913 0.908018 0.1502043 0.908018 0.5346935 0.8355205 0.5251429 0.8355205 0.5251429 0.7287744 0.5346935 0.8355205 0.5346935 0.8402958 0.5379 0.8402958 0.1914368 0.9080178 0.1914368 0.891758 0.1895239 0.891758 0.5251429 0.8355205 0.5346935 0.8355205 0.5346935 0.7287744 0.5346935 0.8355205 0.5346935 0.8402958 0.5379 0.8402958 0.177994 0.8783152 0.1617342 0.8783152 0.1617342 0.8802282 0.5251429 0.8355205 0.5346935 0.8355205 0.5346935 0.7287744 0.525143 0.8355205 0.5251429 0.8402958 0.5219364 0.8402958 0.1617342 0.9214608 0.177994 0.9214607 0.177994 0.9195478 0.5346935 0.8355205 0.525143 0.8355205 0.5251429 0.7287744 0.5151831 0.8355205 0.5446532 0.8355205 0.5446533 0.7287744</float_array>
          <technique_common>
            <accessor source="#Cylinder_001-mesh-map-0-array" count="1356" stride="2">
              <param name="S" type="float"/>
              <param name="T" type="float"/>
            </accessor>
          </technique_common>
        </source>
        <source id="Cylinder_001-mesh-map-1">
          <float_array id="Cylinder_001-mesh-map-1-array" count="2712">0 0 0 0 0 0 0 0 0 0 0 0 0 0 0 0 0 0 0 0 0 0 0 0 0 0 0 0 0 0 0 0 0 0 0 0 0 0 0 0 0 0 0 0 0 0 0 0 0 0 0 0 0 0 0 0 0 0 0 0 0 0 0 0 0 0 0 0 0 0 0 0 0 0 0 0 0 0 0 0 0 0 0 0 0 0 0 0 0 0 0 0 0 0 0 0 0 0 0 0 0 0 0 0 0 0 0 0 0 0 0 0 0 0 0 0 0 0 0 0 0 0 0 0 0 0 0 0 0 0 0 0 0 0 0 0 0 0 0 0 0 0 0 0 0 0 0 0 0 0 0 0 0 0 0 0 0 0 0 0 0 0 0 0 0 0 0 0 0 0 0 0 0 0 0 0 0 0 0 0 0 0 0 0 0 0 0 0 0 0 0 0 0 0 0 0 0 0 0 0 0 0 0 0 0 0 0 0 0 0 0 0 0 0 0 0 0 0 0 0 0 0 0 0 0 0 0 0 0 0 0 0 0 0 0 0 0 0 0 0 0 0 0 0 0 0 0 0 0 0 0 0 0 0 0 0 0 0 0 0 0 0 0 0 0 0 0 0 0 0 0 0 0 0 0 0 0 0 0 0 0 0 0 0 0 0 0 0 0 0 0 0 0 0 0 0 0 0 0 0 0 0 0 0 0 0 0 0 0 0 0 0 0 0 0 0 0 0 0 0 0 0 0 0 0 0 0 0 0 0 0 0 0 0 0 0 0 0 0 0 0 0 0 0 0 0 0 0 0 0 0 0 0 0 0 0 0 0 0 0 0 0 0 0 0 0 0 0 0 0 0 0 0 0 0 0 0 0 0 0 0 0 0 0 0 0 0 0 0 0 0 0 0 0 0 0 0 0 0 0 0 0 0 0 0 0 0 0 0 0 0 0 0 0 0 0 0 0 0 0 0 0 0 0 0 0 0 0 0 0 0 0 0 0 0 0 0 0 0 0 0 0 0 0 0 0 0 0 0 0 0 0 0 0 0 0 0 0 0 0 0 0 0 0 0 0 0 0 0 0 0 0 0 0 0 0 0 0 0 0 0 0 0 0 0 0 0 0 0 0 0 0 0 0 0 0 0 0 0 0 0 0 0 0 0 0 0 0 0 0 0 0 0 0 0 0 0 0 0 0 0 0 0 0 0 0 0 0 0 0 0 0 0 0 0 0 0 0 0 0 0 0 0 0 0 0 0 0 0 0 0 0 0 0 0 0 0 0 0 0 0 0 0 0 0 0 0 0 0 0 0 0 0 0 0 0 0 0 0 0 0 0 0 0 0 0 0 0 0 0 0 0 0 0 0 0 0 0 0 0 0 0 0 0 0 0 0 0 0 0 0 0 0 0 0 0 0 0 0 0 0 0 0 0 0 0 0 0 0 0 0 0 0 0 0 0 0 0 0 0 0 0 0 0 0 0 0 0 0 0 0 0 0 0 0 0 0 0 0 0 0 0 0 0 0 0 0 0 0 0 0 0 0 0 0 0 0 0 0 0 0 0 0 0 0 0 0 0 0 0 0 0 0 0 0 0 0 0 0 0 0 0 0 0 0 0 0 0 0 0 0 0 0 0 0 0 0 0 0 0 0 0 0 0 0 0 0 0 0 0 0 0 0 0 0 0 0 0 0 0 0 0 0 0 0 0 0 0 0 0 0 0 0 0 0 0 0 0 0 0 0 0 0 0 0 0 0 0 0 0 0 0 0 0 0 0 0 0 0 0 0 0 0 0 0 0 0 0 0 0 0 0 0 0 0 0 0 0 0 0 0 0 0 0 0 0 0 0 0 0 0 0 0 0 0 0 0 0 0 0 0 0 0 0 0 0 0 0 0 0 0 0 0 0 0 0 0 0 0 0 0 0 0 0 0 0 0 0 0 0 0 0 0 0 0 0 0 0 0 0 0 0 0 0 0 0 0 0 0 0 0 0 0 0 0 0 0 0 0 0 0 0 0 0 0 0 0 0 0 0 0 0 0 0 0 0 0 0 0 0 0 0 0 0 0 0 0 0 0 0 0 0 0 0 0 0 0 0 0 0 0 0 0 0 0 0 0 0 0 0 0 0 0 0 0 0 0 0 0 0 0 0 0 0 0 0 0 0 0 0 0 0 0 0 0 0 0 0 0 0 0 0 0 0 0 0 0 0 0 0 0 0 0 0 0 0 0 0 0 0 0 0 0 0 0 0 0 0 0 0 0 0 0 0 0 0 0 0 0 0 0 0 0 0 0 0 0 0 0 0 0 0 0 0 0 0 0 0 0 0 0 0 0 0 0 0 0 0 0 0 0 0 0 0 0 0 0 0 0 0 0 0 0 0 0 0 0 0 0 0 0 0 0 0 0 0 0 0 0 0 0 0 0 0 0 0 0 0 0 0 0 0 0 0 0 0 0 0 0 0 0 0 0 0 0 0 0 0 0 0 0 0 0 0 0 0 0 0 0 0 0 0 0 0 0 0 0 0 0 0 0 0 0 0 0 0 0 0 0 0 0 0 0 0 0 0 0 0 0 0 0 0 0 0 0 0 0 0 0 0 0 0 0 0 0 0 0 0 0 0 0 0 0 0 0 0 0 0 0 0 0 0 0 0 0 0 0 0 0 0 0 0 0 0 0 0 0 0 0 0 0 0 0 0 0 0 0 0 0 0 0 0 0 0 0 0 0 0 0 0 0 0 0 0 0 0 0 0 0 0 0 0 0 0 0 0 0 0 0 0 0 0 0 0 0 0 0 0 0 0 0 0 0 0 0 0 0 0 0 0 0 0 0 0 0 0 0 0 0 0 0 0 0 0 0 0 0 0 0 0 0 0 0 0 0 0 0 0 0 0 0 0 0 0 0 0 0 0 0 0 0 0 0 0 0 0 0 0 0 0 0 0 0 0 0 0 0 0 0 0 0 0 0 0 0 0 0 0 0 0 0 0 0 0 0 0 0 0 0 0 0 0 0 0 0 0 0 0 0 0 0 0 0 0 0 0 0 0 0 0 0 0 0 0 0 0 0 0 0 0 0 0 0 0 0 0 0 0 0 0 0 0 0 0 0 0 0 0 0 0 0 0 0 0 0 0 0 0 0 0 0 0 0 0 0 0 0 0 0 0 0 0 0 0 0 0 0 0 0 0 0 0 0 0 0 0 0 0 0 0 0 0 0 0 0 0 0 0 0 0 0 0 0 0 0 0 0 0 0 0 0 0 0 0 0 0 0 0 0 0 0 0 0 0 0 0 0 0 0 0 0 0 0 0 0 0 0 0 0 0 0 0 0 0 0 0 0 0 0 0 0 0 0 0 0 0 0 0 0 0 0 0 0 0 0 0 0 0 0 0 0 0 0 0 0 0 0 0 0 0 0 0 0 0 0 0 0 0 0 0 0 0 0 0 0 0 0 0 0 0 0 0 0 0 0 0 0 0 0 0 0 0 0 0 0 0 0 0 0 0 0 0 0 0 0 0 0 0 0 0 0 0 0 0 0 0 0 0 0 0 0 0 0 0 0 0 0 0 0 0 0 0 0 0 0 0 0 0 0 0 0 0 0 0 0 0 0 0 0 0 0 0 0 0 0 0 0 0 0 0 0 0 0 0 0 0 0 0 0 0 0 0 0 0 0 0 0 0 0 0 0 0 0 0 0 0 0 0 0 0 0 0 0 0 0 0 0 0 0 0 0 0 0 0 0 0 0 0 0 0 0 0 0 0 0 0 0 0 0 0 0 0 0 0 0 0 0 0 0 0 0 0 0 0 0 0 0 0 0 0 0 0 0 0 0 0 0 0 0 0 0 0 0 0 0 0 0 0 0 0 0 0 0 0 0 0 0 0 0 0 0 0 0 0 0 0 0 0 0 0 0 0 0 0 0 0 0 0 0 0 0 0 0 0 0 0 0 0 0 0 0 0 0 0 0 0 0 0 0 0 0 0 0 0 0 0 0 0 0 0 0 0 0 0 0 0 0 0 0 0 0 0 0 0 0 0 0 0 0 0 0 0 0 0 0 0 0 0 0 0 0 0 0 0 0 0 0 0 0 0 0 0 0 0 0 0 0 0 0 0 0 0 0 0 0 0 0 0 0 0 0 0 0 0 0 0 0 0 0 0 0 0 0 0 0 0 0 0 0 0 0 0 0 0 0 0 0 0 0 0 0 0 0 0 0 0 0 0 0 0 0 0 0 0 0 0 0 0 0 0 0 0 0 0 0 0 0 0 0 0 0 0 0 0 0 0 0 0 0 0 0 0 0 0 0 0 0 0 0 0 0 0 0 0 0 0 0 0 0 0 0 0 0 0 0 0 0 0 0 0 0 0 0 0 0 0 0 0 0 0 0 0 0 0 0 0 0 0 0 0 0 0 0 0 0 0 0 0 0 0 0 0 0 0 0 0 0 0 0 0 0 0 0 0 0 0 0 0 0 0 0 0 0 0 0 0 0 0 0 0 0 0 0 0 0 0 0 0 0 0 0 0 0 0 0 0 0 0 0 0 0 0 0 0 0 0 0 0 0 0 0 0 0 0 0 0 0 0 0 0 0 0 0 0 0 0 0 0 0 0 0 0 0 0 0 0 0 0 0 0 0 0 0 0 0 0 0 0 0 0 0 0 0 0 0 0 0 0 0 0 0 0 0 0 0 0 0 0 0 0 0 0 0 0 0 0 0 0 0 0 0 0 0 0 0 0 0 0 0 0 0 0 0 0 0 0 0 0 0 0 0 0 0 0 0 0 0 0 0 0 0 0 0 0 0 0 0 0 0 0 0 0 0 0 0 0 0 0 0 0 0 0 0 0 0 0 0 0 0 0 0 0 0 0 0 0 0 0 0 0 0 0 0 0 0 0 0 0 0 0 0 0 0 0 0 0 0 0 0 0 0 0 0 0 0 0 0 0 0 0 0 0 0 0 0 0 0 0 0 0 0 0 0 0 0 0 0 0 0 0 0 0 0 0 0 0 0 0 0 0 0 0 0 0 0 0 0 0 0 0 0 0 0 0 0 0 0 0 0 0 0 0 0 0 0 0 0 0 0 0 0 0 0 0 0 0 0 0 0 0 0 0 0 0 0 0 0 0 0 0 0 0 0 0 0 0 0 0 0 0 0 0 0 0 0 0 0 0 0 0 0 0 0 0 0 0 0 0 0 0 0 0 0 0 0 0 0 0 0 0 0 0 0 0 0 0 0 0 0 0 0 0 0 0 0 0 0 0 0 0 0 0 0 0 0 0 0 0 0 0 0 0 0 0 0 0 0 0 0 0 0 0 0 0 0 0 0 0 0 0 0 0 0 0 0 0 0 0 0 0 0 0 0 0 0 0 0 0 0 0 0 0 0 0 0 0 0 0 0 0 0 0 0 0 0 0 0 0 0 0 0 0 0 0 0 0 0 0 0 0 0 0 0 0 0 0 0 0 0 0 0 0 0 0 0 0 0 0 0 0 0 0 0 0 0 0 0 0 0 0 0 0 0 0 0 0 0 0 0 0 0 0 0 0 0 0 0 0 0 0 0 0 0 0 0 0 0 0 0 0 0 0 0 0 0 0 0 0 0 0 0 0 0 0 0 0 0 0 0 0 0 0 0 0 0 0 0 0 0 0 0 0 0 0 0 0 0 0 0 0 0 0 0 0 0 0 0 0 0 0 0 0 0 0 0 0 0 0 0 0 0 0 0 0 0 0 0 0 0 0 0 0 0 0 0 0 0 0 0 0 0 0 0 0 0 0 0 0 0 0 0 0 0 0 0 0 0 0 0 0 0 0 0 0 0 0 0 0 0 0 0 0 0 0 0 0 0 0 0 0 0 0 0 0 0 0 0 0 0 0 0 0 0 0 0 0 0 0 0 0 0 0 0 0 0 0 0 0 0 0 0 0 0 0 0 0 0 0 0 0 0 0 0 0 0 0 0 0 0 0 0 0 0 0 0 0 0 0 0 0 0 0 0 0 0 0 0 0 0 0 0 0 0 0 0 0 0 0 0 0 0 0 0 0 0 0 0 0 0 0 0 0 0 0 0 0 0 0 0 0 0 0 0 0 0 0 0 0 0 0 0 0 0 0 0 0 0 0 0 0 0 0 0 0 0 0 0 0 0 0 0 0</float_array>
          <technique_common>
            <accessor source="#Cylinder_001-mesh-map-1-array" count="1356" stride="2">
              <param name="S" type="float"/>
              <param name="T" type="float"/>
            </accessor>
          </technique_common>
        </source>
        <vertices id="Cylinder_001-mesh-vertices">
          <input semantic="POSITION" source="#Cylinder_001-mesh-positions"/>
        </vertices>
        <triangles material="Material_006-material" count="452">
          <input semantic="VERTEX" source="#Cylinder_001-mesh-vertices" offset="0"/>
          <input semantic="NORMAL" source="#Cylinder_001-mesh-normals" offset="1"/>
          <input semantic="TEXCOORD" source="#Cylinder_001-mesh-map-0" offset="2" set="0"/>
          <input semantic="TEXCOORD" source="#Cylinder_001-mesh-map-1" offset="2" set="1"/>
          <p>0 0 0 2 0 1 4 0 2 19 1 3 10 2 4 11 3 5 14 4 6 6 5 7 7 6 8 1 7 9 11 8 10 2 8 11 5 9 12 14 10 13 7 11 14 11 12 15 3 13 16 2 12 17 6 14 18 13 15 19 0 16 20 3 17 21 9 18 22 4 19 23 13 20 24 1 21 25 0 22 26 9 23 27 5 24 28 4 25 29 23 26 30 13 27 31 15 28 32 18 29 33 9 30 34 10 31 35 21 32 36 12 33 37 13 34 38 17 35 39 8 35 40 9 36 41 22 37 42 15 38 43 14 38 44 20 39 45 11 40 46 12 40 47 16 41 48 14 41 49 8 42 50 173 43 51 160 43 52 171 43 53 178 44 54 170 44 55 176 44 56 186 44 57 183 44 58 180 44 59 167 0 60 172 0 61 177 0 62 168 45 63 175 45 64 166 45 65 26 0 66 24 0 67 31 0 68 34 46 69 43 30 70 35 47 71 30 14 72 38 48 73 31 49 74 25 50 75 35 51 76 36 52 77 29 53 78 38 54 79 32 55 80 27 17 81 35 56 82 26 57 83 30 58 84 37 59 85 39 60 86 27 61 87 33 62 88 34 63 89 25 64 90 37 65 91 24 66 92 29 67 93 33 68 94 28 69 95 37 37 96 47 70 97 39 71 98 33 1 99 42 72 100 34 73 101 36 74 102 45 75 103 37 42 104 32 76 105 41 76 106 33 77 107 39 78 108 46 27 109 38 78 110 35 79 111 44 80 112 36 79 113 38 81 114 40 81 115 32 34 116 181 43 117 194 43 118 190 43 119 191 82 120 199 82 121 195 82 122 253 82 123 236 82 124 200 82 125 192 0 126 187 0 127 197 0 128 196 45 129 189 45 130 185 45 131 59 30 132 50 46 133 51 47 134 63 70 135 53 37 136 55 71 137 58 72 138 49 1 139 50 73 140 61 75 141 52 74 142 53 42 143 57 76 144 48 76 145 49 77 146 62 27 147 55 78 148 54 78 149 60 80 150 51 79 151 52 79 152 56 81 153 54 81 154 48 34 155 206 83 156 255 0 157 240 84 158 214 0 159 279 0 160 244 0 161 210 85 162 263 0 163 248 86 164 202 87 165 271 0 166 238 88 167 207 89 168 280 0 169 282 0 170 64 0 171 66 0 172 68 0 173 83 37 174 74 70 175 75 90 176 78 91 177 70 92 178 71 93 179 65 94 180 75 95 181 66 95 182 69 96 183 78 97 184 71 98 185 75 99 186 67 100 187 66 99 188 70 101 189 77 102 190 64 103 191 67 104 192 73 105 193 68 106 194 77 107 195 65 108 196 64 109 197 73 110 198 69 111 199 68 112 200 87 46 201 77 30 202 79 31 203 82 78 204 73 27 205 74 28 206 85 113 207 76 80 208 77 36 209 81 81 210 72 81 211 73 34 212 86 1 213 79 72 214 78 72 215 84 74 216 75 114 217 76 114 218 80 76 219 78 76 220 72 77 221 229 45 222 216 45 223 227 45 224 234 82 225 226 82 226 232 82 227 223 0 228 228 0 229 233 0 230 224 43 231 231 43 232 222 43 233 89 115 234 91 116 235 88 117 236 93 118 237 95 119 238 92 120 239 96 121 240 90 121 241 89 122 242 98 123 243 94 77 244 93 124 245 100 125 246 97 126 247 96 127 248 92 128 249 103 128 250 102 128 251 88 129 252 99 130 253 98 131 254 102 132 255 101 36 256 100 133 257 54 0 258 100 0 259 48 0 260 62 134 261 101 134 262 103 134 263 49 135 264 89 136 265 50 137 266 58 138 267 97 139 268 57 140 269 52 141 270 88 142 271 98 0 272 60 143 273 91 144 274 59 145 275 53 146 276 92 147 277 55 148 278 61 149 279 95 150 280 94 151 281 55 152 282 102 153 283 54 154 284 48 155 285 96 156 286 49 157 287 63 158 288 103 159 289 95 134 290 57 160 291 101 161 292 56 134 293 51 162 294 89 163 295 88 0 296 59 164 297 90 165 298 58 166 299 53 0 300 98 0 301 93 0 302 61 134 303 99 134 304 60 134 305 277 43 306 242 43 307 204 43 308 269 45 309 250 45 310 208 45 311 220 44 312 221 44 313 217 44 314 261 44 315 246 44 316 212 44 317 201 45 318 270 45 319 268 45 320 211 167 321 272 168 322 274 169 323 213 43 324 278 43 325 276 43 326 203 170 327 256 0 328 258 0 329 209 44 330 262 44 331 260 44 332 215 0 333 264 0 334 266 0 335 205 82 336 254 82 337 252 82 338 106 171 339 119 172 340 111 173 341 109 174 342 115 174 343 107 175 344 107 176 345 114 176 346 106 176 347 104 177 348 117 177 349 109 178 350 110 179 351 116 180 352 108 181 353 108 182 354 113 183 355 105 121 356 105 184 357 112 184 358 104 185 359 111 186 360 118 187 361 110 188 362 111 189 363 122 190 364 106 191 365 107 192 366 125 193 367 109 194 368 107 195 369 122 196 370 123 197 371 104 198 372 125 199 373 120 200 374 108 201 375 126 202 376 110 203 377 108 204 378 121 205 379 124 206 380 104 207 381 121 208 382 105 209 383 111 210 384 126 211 385 127 212 386 123 213 387 133 214 388 125 215 389 123 216 390 130 217 391 131 218 392 120 219 393 133 220 394 128 221 395 124 222 396 134 223 397 126 224 398 124 225 399 129 226 400 132 227 401 120 228 402 129 229 403 121 230 404 126 231 405 135 232 406 127 233 407 122 234 408 135 235 409 130 236 410 134 0 411 132 0 412 131 0 413 140 237 414 138 238 415 136 239 416 142 240 417 150 241 418 143 242 419 137 243 420 147 244 421 148 245 422 143 246 423 144 247 424 141 248 425 139 249 426 147 250 427 138 251 428 142 252 429 149 253 430 151 254 431 139 255 432 145 256 433 146 257 434 136 258 435 148 259 436 149 260 437 141 261 438 145 262 439 140 263 440 149 264 441 147 265 442 145 266 443 158 0 444 159 0 445 157 0 446 162 267 447 163 267 448 164 267 449 167 268 450 168 268 451 169 268 452 172 269 453 173 269 454 174 269 455 177 270 456 178 270 457 179 270 458 182 269 459 183 269 460 184 269 461 187 270 462 188 270 463 189 270 464 192 267 465 193 267 466 194 267 467 197 268 468 198 268 469 199 268 470 218 270 471 219 270 472 220 270 473 223 269 474 224 269 475 225 269 476 228 268 477 229 268 478 230 268 479 233 267 480 234 267 481 235 267 482 236 271 483 238 272 484 239 273 485 241 274 486 243 275 487 240 276 488 245 277 489 247 278 490 244 279 491 248 280 492 250 281 493 251 282 494 255 283 495 257 284 496 254 285 497 263 286 498 265 287 499 262 288 500 271 289 501 273 290 502 270 291 503 279 292 504 281 293 505 278 294 506 162 295 507 161 296 508 160 296 509 167 297 510 164 284 511 163 285 512 166 298 513 169 299 514 168 299 515 177 289 516 168 289 517 167 289 518 176 300 519 179 301 520 178 302 521 172 303 522 178 304 523 177 305 524 171 306 525 174 307 526 173 307 527 163 293 528 173 293 529 172 293 530 183 308 531 181 306 532 180 309 533 188 304 534 184 303 535 183 303 536 186 310 537 189 301 538 188 302 539 198 289 540 187 289 541 189 289 542 196 298 543 199 311 544 198 311 545 193 284 546 197 297 547 199 297 548 191 312 549 194 295 550 193 313 551 182 293 552 192 293 553 194 293 554 236 299 555 201 298 556 200 314 557 254 285 558 240 283 559 255 283 560 205 296 561 242 295 562 241 313 563 278 294 564 244 293 565 279 292 566 213 306 567 246 307 568 245 307 569 262 288 570 248 315 571 263 286 572 209 300 573 250 301 574 249 302 575 270 291 576 238 289 577 271 289 578 218 301 579 217 310 580 216 310 581 223 303 582 220 304 583 219 305 584 222 306 585 225 308 586 224 308 587 233 293 588 224 293 589 223 293 590 232 312 591 235 295 592 234 313 593 228 297 594 234 284 595 233 285 596 227 298 597 230 311 598 229 311 599 219 289 600 229 289 601 228 289 602 207 89 603 240 84 604 243 0 605 238 88 606 203 170 607 202 87 608 247 0 609 214 0 610 244 0 611 251 316 612 210 85 613 248 86 614 257 284 615 237 317 616 236 285 617 256 0 618 259 0 619 258 0 620 254 82 621 253 82 622 252 82 623 265 287 624 247 318 625 246 305 626 264 0 627 267 0 628 266 0 629 262 44 630 261 44 631 260 44 632 273 290 633 251 319 634 250 320 635 272 168 636 275 321 637 274 169 638 270 45 639 269 45 640 268 45 641 281 293 642 243 322 643 242 293 644 280 0 645 283 0 646 282 0 647 278 43 648 277 43 649 276 43 650 164 82 651 165 82 652 161 82 653 4 0 654 5 0 655 7 0 656 7 0 657 6 0 658 0 0 659 0 0 660 1 0 661 2 0 662 2 0 663 3 0 664 4 0 665 4 0 666 7 0 667 0 0 668 19 1 669 18 73 670 10 2 671 14 4 672 15 323 673 6 5 674 1 7 675 12 324 676 11 8 677 5 9 678 8 325 679 14 10 680 11 12 681 10 326 682 3 13 683 6 14 684 15 327 685 13 15 686 3 17 687 10 328 688 9 18 689 13 20 690 12 329 691 1 21 692 9 23 693 8 330 694 5 24 695 23 26 696 21 331 697 13 27 698 18 29 699 17 29 700 9 30 701 21 32 702 20 332 703 12 33 704 17 35 705 16 333 706 8 35 707 22 37 708 23 71 709 15 38 710 20 39 711 19 334 712 11 40 713 16 41 714 22 335 715 14 41 716 173 43 717 162 43 718 160 43 719 178 44 720 174 44 721 170 44 722 186 44 723 188 44 724 183 44 725 167 0 726 163 0 727 172 0 728 168 45 729 179 45 730 175 45 731 31 0 732 29 0 733 28 0 734 28 0 735 27 0 736 26 0 737 26 0 738 25 0 739 24 0 740 24 0 741 30 0 742 31 0 743 31 0 744 28 0 745 26 0 746 34 46 747 42 31 748 43 30 749 30 14 750 39 327 751 38 48 752 25 50 753 26 51 754 35 51 755 29 53 756 31 336 757 38 54 758 27 17 759 34 328 760 35 56 761 30 58 762 24 337 763 37 59 764 27 61 765 28 338 766 33 62 767 25 64 768 36 339 769 37 65 770 29 67 771 32 340 772 33 68 773 37 37 774 45 90 775 47 70 776 33 1 777 41 72 778 42 72 779 36 74 780 44 341 781 45 75 782 32 76 783 40 334 784 41 76 785 39 78 786 47 28 787 46 27 788 35 79 789 43 333 790 44 80 791 38 81 792 46 342 793 40 81 794 181 43 795 182 43 796 194 43 797 191 82 798 193 82 799 199 82 800 253 82 801 257 82 802 236 82 803 192 0 804 184 0 805 187 0 806 196 45 807 198 45 808 189 45 809 59 30 810 58 31 811 50 46 812 63 70 813 61 90 814 53 37 815 58 72 816 57 72 817 49 1 818 61 75 819 60 341 820 52 74 821 57 76 822 56 334 823 48 76 824 62 27 825 63 28 826 55 78 827 60 80 828 59 333 829 51 79 830 56 81 831 62 342 832 54 81 833 206 83 834 259 0 835 255 0 836 214 0 837 283 0 838 279 0 839 210 85 840 267 0 841 263 0 842 202 87 843 275 321 844 271 0 845 207 89 846 243 0 847 280 0 848 68 0 849 69 0 850 71 0 851 71 0 852 70 0 853 64 0 854 64 0 855 65 0 856 66 0 857 66 0 858 67 0 859 68 0 860 68 0 861 71 0 862 64 0 863 83 37 864 82 71 865 74 70 866 78 91 867 79 343 868 70 92 869 65 94 870 76 344 871 75 95 872 69 96 873 72 340 874 78 97 875 75 99 876 74 345 877 67 100 878 70 101 879 79 346 880 77 102 881 67 104 882 74 347 883 73 105 884 77 107 885 76 52 886 65 108 887 73 110 888 72 55 889 69 111 890 87 46 891 85 47 892 77 30 893 82 78 894 81 78 895 73 27 896 85 113 897 84 348 898 76 80 899 81 81 900 80 342 901 72 81 902 86 1 903 87 73 904 79 72 905 84 74 906 83 335 907 75 114 908 80 76 909 86 334 910 78 76 911 229 45 912 218 45 913 216 45 914 234 82 915 230 82 916 226 82 917 223 0 918 219 0 919 228 0 920 224 43 921 235 43 922 231 43 923 89 115 924 90 349 925 91 116 926 93 118 927 94 119 928 95 119 929 96 121 930 97 122 931 90 121 932 98 123 933 99 350 934 94 77 935 100 125 936 101 351 937 97 126 938 92 128 939 95 128 940 103 128 941 88 129 942 91 352 943 99 130 944 102 132 945 103 353 946 101 36 947 54 0 948 102 0 949 100 0 950 62 134 951 56 134 952 101 134 953 49 135 954 96 0 955 89 136 956 58 138 957 90 354 958 97 139 959 52 141 960 51 355 961 88 142 962 60 143 963 99 134 964 91 144 965 53 146 966 93 0 967 92 147 968 61 149 969 63 166 970 95 150 971 55 152 972 92 0 973 102 153 974 48 155 975 100 0 976 96 156 977 63 158 978 62 356 979 103 159 980 57 160 981 97 357 982 101 161 983 51 162 984 50 148 985 89 163 986 59 164 987 91 134 988 90 165 989 53 0 990 52 0 991 98 0 992 61 134 993 94 134 994 99 134 995 277 43 996 281 43 997 242 43 998 269 45 999 273 45 1000 250 45 1001 220 44 1002 225 44 1003 221 44 1004 261 44 1005 265 44 1006 246 44 1007 201 45 1008 239 45 1009 270 45 1010 211 167 1011 251 316 1012 272 168 1013 213 43 1014 245 43 1015 278 43 1016 203 170 1017 237 358 1018 256 0 1019 209 44 1020 249 44 1021 262 44 1022 215 0 1023 247 0 1024 264 0 1025 205 82 1026 241 82 1027 254 82 1028 106 171 1029 114 359 1030 119 172 1031 109 174 1032 117 175 1033 115 174 1034 107 176 1035 115 176 1036 114 176 1037 104 177 1038 112 178 1039 117 177 1040 110 179 1041 118 360 1042 116 180 1043 108 182 1044 116 361 1045 113 183 1046 105 184 1047 113 362 1048 112 184 1049 111 186 1050 119 363 1051 118 187 1052 111 189 1053 127 364 1054 122 190 1055 107 192 1056 123 365 1057 125 193 1058 107 195 1059 106 366 1060 122 196 1061 104 198 1062 109 367 1063 125 199 1064 108 201 1065 124 368 1066 126 202 1067 108 204 1068 105 369 1069 121 205 1070 104 207 1071 120 370 1072 121 208 1073 111 210 1074 110 371 1075 126 211 1076 123 213 1077 131 372 1078 133 214 1079 123 216 1080 122 373 1081 130 217 1082 120 219 1083 125 374 1084 133 220 1085 124 222 1086 132 375 1087 134 223 1088 124 225 1089 121 376 1090 129 226 1091 120 228 1092 128 377 1093 129 229 1094 126 231 1095 134 378 1096 135 232 1097 122 234 1098 127 379 1099 135 235 1100 132 0 1101 129 0 1102 128 0 1103 128 0 1104 133 0 1105 132 0 1106 133 0 1107 131 0 1108 132 0 1109 131 0 1110 130 0 1111 135 0 1112 135 0 1113 134 0 1114 131 0 1115 143 380 1116 141 381 1117 140 237 1118 140 237 1119 139 382 1120 138 238 1121 138 238 1122 137 383 1123 136 239 1124 136 239 1125 142 384 1126 143 380 1127 143 380 1128 140 237 1129 136 239 1130 142 240 1131 151 385 1132 150 241 1133 137 243 1134 138 386 1135 147 244 1136 143 246 1137 150 387 1138 144 247 1139 139 249 1140 146 388 1141 147 250 1142 142 252 1143 136 389 1144 149 253 1145 139 255 1146 140 390 1147 145 256 1148 136 258 1149 137 391 1150 148 259 1151 141 261 1152 144 392 1153 145 262 1154 145 266 1155 144 393 1156 150 394 1157 150 394 1158 151 395 1159 149 264 1160 149 264 1161 148 396 1162 147 265 1163 147 265 1164 146 397 1165 145 266 1166 145 266 1167 150 394 1168 149 264 1169 152 0 1170 156 0 1171 158 0 1172 156 0 1173 153 0 1174 159 0 1175 159 0 1176 155 0 1177 157 0 1178 157 0 1179 154 0 1180 158 0 1181 156 0 1182 159 0 1183 158 0 1184 236 271 1185 237 398 1186 238 272 1187 241 274 1188 242 399 1189 243 275 1190 245 277 1191 246 400 1192 247 278 1193 248 280 1194 249 401 1195 250 281 1196 255 283 1197 256 402 1198 257 284 1199 263 286 1200 264 403 1201 265 287 1202 271 289 1203 272 404 1204 273 290 1205 279 292 1206 280 405 1207 281 293 1208 162 295 1209 164 313 1210 161 296 1211 167 297 1212 169 297 1213 164 284 1214 166 298 1215 165 314 1216 169 299 1217 177 289 1218 179 289 1219 168 289 1220 176 300 1221 175 300 1222 179 301 1223 172 303 1224 174 303 1225 178 304 1226 171 306 1227 170 309 1228 174 307 1229 163 293 1230 162 293 1231 173 293 1232 183 308 1233 182 308 1234 181 306 1235 188 304 1236 187 305 1237 184 303 1238 186 310 1239 185 310 1240 189 301 1241 198 289 1242 197 289 1243 187 289 1244 196 298 1245 195 314 1246 199 311 1247 193 284 1248 192 285 1249 197 297 1250 191 312 1251 190 312 1252 194 295 1253 182 293 1254 184 293 1255 192 293 1256 236 299 1257 239 299 1258 201 298 1259 254 285 1260 241 285 1261 240 283 1262 205 296 1263 204 296 1264 242 295 1265 278 294 1266 245 293 1267 244 293 1268 213 306 1269 212 309 1270 246 307 1271 262 288 1272 249 406 1273 248 315 1274 209 300 1275 208 300 1276 250 301 1277 270 291 1278 239 289 1279 238 289 1280 218 301 1281 220 302 1282 217 310 1283 223 303 1284 225 303 1285 220 304 1286 222 306 1287 221 309 1288 225 308 1289 233 293 1290 235 293 1291 224 293 1292 232 312 1293 231 312 1294 235 295 1295 228 297 1296 230 297 1297 234 284 1298 227 298 1299 226 314 1300 230 311 1301 219 289 1302 218 289 1303 229 289 1304 207 89 1305 206 83 1306 240 84 1307 238 88 1308 237 358 1309 203 170 1310 247 0 1311 215 0 1312 214 0 1313 251 316 1314 211 167 1315 210 85 1316 257 284 1317 256 402 1318 237 317 1319 256 0 1320 255 0 1321 259 0 1322 254 82 1323 257 82 1324 253 82 1325 265 287 1326 264 403 1327 247 318 1328 264 0 1329 263 0 1330 267 0 1331 262 44 1332 265 44 1333 261 44 1334 273 290 1335 272 404 1336 251 319 1337 272 168 1338 271 0 1339 275 321 1340 270 45 1341 273 45 1342 269 45 1343 281 293 1344 280 405 1345 243 322 1346 280 0 1347 279 0 1348 283 0 1349 278 43 1350 281 43 1351 277 43 1352 164 82 1353 169 82 1354 165 82 1355</p>
        </triangles>
      </mesh>
    </geometry>
  </library_geometries>
  <library_visual_scenes>
    <visual_scene id="Scene" name="Scene">
      <node id="silos" name="silos" type="NODE">
        <matrix sid="transform">1 0 0 0 0 1 0 0 0 0 1 0 0 0 0 1</matrix>
        <instance_geometry url="#Cylinder_001-mesh" name="silos">
          <bind_material>
            <technique_common>
              <instance_material symbol="Material_006-material" target="#Material_006-material">
                <bind_vertex_input semantic="UVMap" input_semantic="TEXCOORD" input_set="0"/>
                <bind_vertex_input semantic="Cylinder_004-mesh-map-1" input_semantic="TEXCOORD" input_set="1"/>
              </instance_material>
            </technique_common>
          </bind_material>
        </instance_geometry>
        <node id="prop_projectile" name="prop_projectile" type="NODE">
          <matrix sid="transform">1 0 0 -9.82911 0 1 0 -9.946179 0 0 1 6.281468 0 0 0 1</matrix>
        </node>
      </node>
    </visual_scene>
  </library_visual_scenes>
  <scene>
    <instance_visual_scene url="#Scene"/>
  </scene>
</COLLADA>