<?xml version="1.0" encoding="utf-8"?>
<COLLADA xmlns="http://www.collada.org/2005/11/COLLADASchema" version="1.4.1" xmlns:xsi="http://www.w3.org/2001/XMLSchema-instance">
  <asset>
    <contributor>
      <author>Blender User</author>
      <authoring_tool>Blender 4.3.1 commit date:2024-12-10, commit time:07:46, hash:33d812126174</authoring_tool>
    </contributor>
    <created>2026-07-13T21:41:16</created>
    <modified>2026-07-13T21:41:16</modified>
    <unit name="meter" meter="1"/>
    <up_axis>Z_UP</up_axis>
  </asset>
  <library_effects>
    <effect id="Material_001-effect">
      <profile_COMMON>
        <newparam sid="mla_struct_png-surface">
          <surface type="2D">
            <init_from>mla_struct_png</init_from>
          </surface>
        </newparam>
        <newparam sid="mla_struct_png-sampler">
          <sampler2D>
            <source>mla_struct_png-surface</source>
          </sampler2D>
        </newparam>
        <technique sid="common">
          <lambert>
            <emission>
              <color sid="emission">0 0 0 1</color>
            </emission>
            <diffuse>
              <texture texture="mla_struct_png-sampler" texcoord="Cubo_007-mesh-map-0"/>
            </diffuse>
            <index_of_refraction>
              <float sid="ior">1.5</float>
            </index_of_refraction>
          </lambert>
        </technique>
      </profile_COMMON>
    </effect>
  </library_effects>
  <library_images>
    <image id="mla_struct_png" name="mla_struct_png">
      <init_from>/home/welton/snap/0ad/735/.local/share/0ad/mods/mars_wars/art/textures/skins/structural/mla_struct.png</init_from>
    </image>
  </library_images>
  <library_materials>
    <material id="Material_001-material" name="Material.001">
      <instance_effect url="#Material_001-effect"/>
    </material>
  </library_materials>
  <library_geometries>
    <geometry id="Cubo_002-mesh" name="Cubo.002">
      <mesh>
        <source id="Cubo_002-mesh-positions">
          <float_array id="Cubo_002-mesh-positions-array" count="912">-5.551526 -4.76837e-7 1.082504 4.205594 0 1.082504 4.205594 -4.487092 1.082504 3.814129 -4.878556 1.082504 -5.160061 -4.878556 1.082504 -5.551526 -4.487092 1.082504 -5.215935 -4.76837e-7 9.072765 3.870002 0 9.072765 3.870002 -4.17843 9.072765 3.505466 -4.542965 9.072765 -4.851398 -4.542965 9.072765 -5.215935 -4.17843 9.072765 -0.6729661 -4.878556 1.082504 -0.6729661 -4.542965 9.072765 4.205594 -2.243546 1.082504 3.870002 -2.089214 9.072765 4.205594 4.487092 1.082504 3.814129 4.878556 1.082504 -5.160061 4.878556 1.082504 -5.551526 4.487092 1.082504 3.870002 4.17843 9.072765 3.505466 4.542965 9.072765 -4.851398 4.542965 9.072765 -5.215935 4.17843 9.072765 -0.6729666 4.878556 1.082504 -0.6729666 4.542965 9.072765 4.205594 2.243546 1.082504 3.870002 2.089215 9.072765 -7.216984 -5.73908e-7 -6.62989 5.467273 0 -6.62989 5.467273 -5.83322 -6.62989 4.958368 -6.342123 -6.62989 -6.708079 -6.342123 -6.62989 -7.216984 -5.83322 -6.62989 -6.780716 -5.73908e-7 3.757449 5.031002 0 3.757449 5.031002 -5.431959 3.757449 4.557106 -5.905855 3.757449 -6.306818 -5.905855 3.757449 -6.780716 -5.431959 3.757449 -0.8748561 -6.342123 -6.62989 -0.8748561 -5.905855 3.757449 5.467273 -2.91661 -6.62989 5.031002 -2.715979 3.757449 5.467273 5.83322 -6.62989 4.958368 6.342123 -6.62989 -6.708079 6.342123 -6.62989 -7.216984 5.83322 -6.62989 5.031002 5.431959 3.757449 4.557106 5.905855 3.757449 -6.306818 5.905855 3.757449 -6.780716 5.431959 3.757449 -0.8748567 6.342123 -6.62989 -0.8748567 5.905855 3.757449 5.467273 2.91661 -6.62989 5.031002 2.71598 3.757449 -5.56452e-7 -0.827198 8.614965 0 -3.167082 8.614965 -2.315876 -3.167082 8.614965 -2.517919 -3.073202 8.614965 -2.517919 -0.9210763 8.614965 -2.315876 -0.827198 8.614965 -5.56452e-7 -0.9076771 9.394241 0 -3.086602 9.394241 -2.15657 -3.086602 9.394241 -2.344714 -2.999181 9.394241 -2.344714 -0.9950976 9.394241 -2.15657 -0.9076771 9.394241 -2.517919 -1.997141 8.614965 -2.344714 -1.997141 9.394241 -1.157938 -3.167082 8.614965 -1.078285 -3.086602 9.394241 2.315877 -3.167082 8.614965 2.517919 -3.073204 8.614965 2.517919 -0.9210763 8.614965 2.315877 -0.827198 8.614965 2.156571 -3.086602 9.394241 2.344715 -2.999182 9.394241 2.344715 -0.9950976 9.394241 2.156571 -0.9076771 9.394241 2.517919 -1.997139 8.614965 2.344715 -1.997139 9.394241 1.157939 -3.167082 8.614965 1.078285 -3.086602 9.394241 -5.56452e-7 2.98135 8.614965 0 0.6414666 8.614965 -2.315876 0.6414666 8.614965 -2.517919 0.7353459 8.614965 -2.517919 2.887472 8.614965 -2.315876 2.98135 8.614965 -5.56452e-7 2.900871 9.394241 0 0.7219458 9.394241 -2.15657 0.7219458 9.394241 -2.344714 0.8093672 9.394241 -2.344714 2.813451 9.394241 -2.15657 2.900871 9.394241 -2.517919 1.811408 8.614965 -2.344714 1.811408 9.394241 -1.157938 0.6414666 8.614965 -1.078285 0.7219458 9.394241 2.315877 0.6414659 8.614965 2.517919 0.7353447 8.614965 2.517919 2.887472 8.614965 2.315877 2.98135 8.614965 2.156571 0.7219458 9.394241 2.344715 0.809366 9.394241 2.344715 2.813451 9.394241 2.156571 2.900871 9.394241 2.517919 1.811409 8.614965 2.344715 1.811409 9.394241 1.157939 0.6414659 8.614965 1.078285 0.7219458 9.394241 -2.014028 9.478601 4.281588 -1.768459 10.07145 4.281588 -1.1756 10.31702 4.281588 -0.5827404 10.07145 4.281588 -0.3371722 9.478601 4.281588 -0.5827404 8.885746 4.281588 -1.1756 8.640173 4.281588 -1.768459 8.885746 4.281588 -2.014028 7.550968 5.958444 -1.768459 7.550968 5.365584 -1.1756 7.550968 5.120016 -0.5827404 7.550971 5.365584 -0.3371722 7.550971 5.958444 -0.5827404 7.550971 6.551302 -1.1756 7.550968 6.796872 -1.768459 7.550968 6.551302 -1.768459 9.013069 6.458376 -1.768459 9.876265 5.760058 -1.1756 10.0912 5.878819 -1.1756 9.098122 6.688746 -0.5827404 9.876265 5.760058 -0.5827404 9.013069 6.458376 -0.3371722 9.357351 5.473341 -0.3371722 8.80774 5.902209 -0.5827404 8.838435 5.186624 -0.5827404 8.60241 5.346044 -1.1756 8.623494 5.067861 -1.1756 8.517355 5.115673 -1.768459 8.838435 5.186624 -1.768459 8.60241 5.346044 -2.014028 9.357351 5.473341 -2.014028 8.80774 5.902209 -2.014028 9.478601 -6.185383 -1.768459 10.07145 -6.185383 -1.1756 10.31702 -6.185383 -0.5827404 10.07145 -6.185383 -0.3371722 9.478601 -6.185383 -0.5827404 8.885746 -6.185383 -1.1756 8.640173 -6.185383 -1.768459 8.885746 -6.185383 -2.014028 2.724815 5.958444 -1.768459 2.724815 5.365584 -1.1756 2.724815 5.120016 -0.5827404 2.724815 5.365584 -0.3371722 2.724815 5.958444 -0.5827404 2.724815 6.551302 -1.1756 2.724815 6.796872 -1.768459 2.724815 6.551302 0.3371728 9.478601 4.281588 0.5827412 10.07145 4.281588 1.175601 10.31702 4.281588 1.76846 10.07145 4.281588 2.014029 9.478601 4.281588 1.76846 8.885746 4.281588 1.175601 8.640173 4.281588 0.5827412 8.885746 4.281588 0.3371728 7.550968 5.958444 0.5827412 7.550968 5.365584 1.175601 7.550968 5.120016 1.76846 7.550971 5.365584 2.014029 7.550971 5.958444 1.76846 7.550971 6.551302 1.175601 7.550968 6.796872 0.5827412 7.550968 6.551302 0.5827412 9.013069 6.458376 0.5827412 9.876265 5.760058 1.175601 10.0912 5.878819 1.175601 9.098122 6.688746 1.76846 9.876265 5.760058 1.76846 9.013069 6.458376 2.014029 9.357351 5.473341 2.014029 8.80774 5.902209 1.76846 8.838435 5.186624 1.76846 8.60241 5.346044 1.175601 8.623494 5.067861 1.175601 8.517355 5.115673 0.5827412 8.838435 5.186624 0.5827412 8.60241 5.346044 0.3371728 9.357351 5.473341 0.3371728 8.80774 5.902209 0.3371728 9.478601 -6.185383 0.5827412 10.07145 -6.185383 1.175601 10.31702 -6.185383 1.76846 10.07145 -6.185383 2.014029 9.478601 -6.185383 1.76846 8.885746 -6.185383 1.175601 8.640173 -6.185383 0.5827412 8.885746 -6.185383 0.3371728 2.724815 5.958444 0.5827412 2.724815 5.365584 1.175601 2.724815 5.120016 1.76846 2.724815 5.365584 2.014029 2.724815 5.958444 1.76846 2.724815 6.551302 1.175601 2.724815 6.796872 0.5827412 2.724815 6.551302 -2.014028 -9.478601 4.281588 -1.768459 -10.07145 4.281588 -1.1756 -10.31702 4.281588 -0.5827404 -10.07145 4.281588 -0.3371722 -9.478601 4.281588 -0.5827404 -8.885746 4.281588 -1.1756 -8.640173 4.281588 -1.768459 -8.885746 4.281588 -2.014028 -7.550968 5.958444 -1.768459 -7.550968 5.365584 -1.1756 -7.550968 5.120016 -0.5827404 -7.550971 5.365584 -0.3371722 -7.550971 5.958444 -0.5827404 -7.550971 6.551302 -1.1756 -7.550968 6.796872 -1.768459 -7.550968 6.551302 -1.768459 -9.013069 6.458376 -1.768459 -9.876265 5.760058 -1.1756 -10.0912 5.878819 -1.1756 -9.098122 6.688746 -0.5827404 -9.876265 5.760058 -0.5827404 -9.013069 6.458376 -0.3371722 -9.357351 5.473341 -0.3371722 -8.80774 5.902209 -0.5827404 -8.838435 5.186624 -0.5827404 -8.60241 5.346044 -1.1756 -8.623494 5.067861 -1.1756 -8.517355 5.115673 -1.768459 -8.838435 5.186624 -1.768459 -8.60241 5.346044 -2.014028 -9.357351 5.473341 -2.014028 -8.80774 5.902209 -2.014028 -9.478601 -6.185383 -1.768459 -10.07145 -6.185383 -1.1756 -10.31702 -6.185383 -0.5827404 -10.07145 -6.185383 -0.3371722 -9.478601 -6.185383 -0.5827404 -8.885746 -6.185383 -1.1756 -8.640173 -6.185383 -1.768459 -8.885746 -6.185383 -2.014028 -2.724815 5.958444 -1.768459 -2.724815 5.365584 -1.1756 -2.724815 5.120016 -0.5827404 -2.724815 5.365584 -0.3371722 -2.724815 5.958444 -0.5827404 -2.724815 6.551302 -1.1756 -2.724815 6.796872 -1.768459 -2.724815 6.551302 0.3371728 -9.478601 4.281588 0.5827412 -10.07145 4.281588 1.175601 -10.31702 4.281588 1.76846 -10.07145 4.281588 2.014029 -9.478601 4.281588 1.76846 -8.885746 4.281588 1.175601 -8.640173 4.281588 0.5827412 -8.885746 4.281588 0.3371728 -7.550968 5.958444 0.5827412 -7.550968 5.365584 1.175601 -7.550968 5.120016 1.76846 -7.550971 5.365584 2.014029 -7.550971 5.958444 1.76846 -7.550971 6.551302 1.175601 -7.550968 6.796872 0.5827412 -7.550968 6.551302 0.5827412 -9.013069 6.458376 0.5827412 -9.876265 5.760058 1.175601 -10.0912 5.878819 1.175601 -9.098122 6.688746 1.76846 -9.876265 5.760058 1.76846 -9.013069 6.458376 2.014029 -9.357351 5.473341 2.014029 -8.80774 5.902209 1.76846 -8.838435 5.186624 1.76846 -8.60241 5.346044 1.175601 -8.623494 5.067861 1.175601 -8.517355 5.115673 0.5827412 -8.838435 5.186624 0.5827412 -8.60241 5.346044 0.3371728 -9.357351 5.473341 0.3371728 -8.80774 5.902209 0.3371728 -9.478601 -6.185383 0.5827412 -10.07145 -6.185383 1.175601 -10.31702 -6.185383 1.76846 -10.07145 -6.185383 2.014029 -9.478601 -6.185383 1.76846 -8.885746 -6.185383 1.175601 -8.640173 -6.185383 0.5827412 -8.885746 -6.185383 0.3371728 -2.724815 5.958444 0.5827412 -2.724815 5.365584 1.175601 -2.724815 5.120016 1.76846 -2.724815 5.365584 2.014029 -2.724815 5.958444 1.76846 -2.724815 6.551302 1.175601 -2.724815 6.796872 0.5827412 -2.724815 6.551302</float_array>
          <technique_common>
            <accessor source="#Cubo_002-mesh-positions-array" count="304" stride="3">
              <param name="X" type="float"/>
              <param name="Y" type="float"/>
              <param name="Z" type="float"/>
            </accessor>
          </technique_common>
        </source>
        <source id="Cubo_002-mesh-normals">
          <float_array id="Cubo_002-mesh-normals-array" count="1206">0.9991192 0 0.04196316 0 0 1 0.9991192 0 0.04196316 -0.9991192 0 0.04196298 0.7059605 -0.7059602 0.05692148 0 -0.9991192 0.0419631 -0.7059584 -0.7059623 0.05692142 0 -0.9991192 0.04196286 0.9991192 0 0.04196316 -0.9991192 0 0.04196298 0.7059589 0.7059618 0.05692148 0 0.9991192 0.04196298 -0.7059589 0.7059619 0.05692142 0 0.9991192 0.0419631 0.9991192 0 0.04196316 1.25599e-7 0 1 0.9991192 0 0.04196316 -0.9991192 0 0.04196298 0.7059584 -0.7059623 0.05692154 0 -0.9991192 0.04196286 -0.7059596 -0.7059611 0.05692154 0 -0.9991192 0.0419631 0.9991192 0 0.04196316 -1.87831e-6 0 1 -0.9991192 0 0.04196298 0.70596 0.7059606 0.05692148 0 0.9991192 0.0419631 -0.7059592 0.7059616 0.05692154 0 0.9991192 0.04196298 0.9991192 0 0.04196316 0.9991192 0 0.04196316 -0.9991192 0 0.04196298 0.7059604 -0.7059603 0.05692142 0 -0.9991192 0.04196304 -0.7059593 -0.7059614 0.05692154 0 -0.9991192 0.04196298 0.9991192 0 0.04196316 -0.9991192 0 0.04196298 0.7059592 0.7059615 0.05692154 0 0.9991192 0.0419631 -0.7059597 0.705961 0.05692148 0 0.9991192 0.04196304 0 0 1 0.9991192 0 0.04196316 -0.9991192 0 0.04196298 0.7059589 -0.7059619 0.05692166 0 -0.9991192 0.04196298 -0.7059587 -0.705962 0.05692142 0 -0.9991192 0.04196292 7.40952e-7 0 1 0 0 1 0.70596 0.7059607 0.05692154 0 0.9991192 0.04196304 -0.7059584 0.7059623 0.05692154 0 0.9991192 0.04196304 0 -0.9947095 0.102728 -2.4072e-6 0 1 0 -0.9947096 0.1027281 0 0.9947096 0.1027277 -0.4147325 -0.8925698 0.1769636 -0.9761785 0 0.216969 -0.4147304 0.8925711 0.1769624 -0.9761785 0 0.2169692 0 -0.9947095 0.1027282 2.4072e-6 0 1 -6.07171e-7 -0.9947094 0.1027287 0 0.9947096 0.1027278 0.4147304 -0.892571 0.1769623 0.9761787 0 0.2169683 0.4147288 0.8925719 0.1769616 0.9761788 0 0.2169682 0 -0.9947096 0.1027275 2.52926e-6 0 1 0 -0.9947096 0.1027275 0 0.9947095 0.1027278 -0.4147338 -0.8925692 0.1769635 -0.9761785 0 0.2169691 -0.4147292 0.8925716 0.1769625 -0.9761785 0 0.2169691 0 -0.9947094 0.1027288 1.0117e-5 0 1 0 -0.9947095 0.102728 0 0.9947095 0.1027277 0.4147291 -0.8925715 0.1769629 0.9761787 0 0.2169687 0.4147304 0.8925711 0.1769624 0.9761787 0 0.2169685 0 -0.9947095 0.1027278 -1.2036e-6 0 1 0 -0.9947096 0.1027278 0 0.9947096 0.1027269 -0.4147325 -0.8925699 0.1769632 -0.4147309 0.8925707 0.1769624 -0.9761784 0 0.2169693 0 -0.9947094 0.1027287 1.2036e-6 0 1 0 0.9947096 0.1027278 0.4147304 -0.8925712 0.1769621 0.9761787 0 0.2169683 0.4147288 0.8925719 0.1769621 0.9761788 0 0.2169682 0 -0.9947096 0.1027279 2.52926e-6 0 1 0 -0.9947096 0.1027279 0 0.9947095 0.1027281 -0.4147339 -0.8925693 0.1769632 -0.9761785 0 0.2169691 -0.4147292 0.8925716 0.176962 -0.9761786 0 0.216969 0 -0.9947094 0.1027289 1.0117e-5 0 1 -1.89694e-6 0 1 0 -0.9947095 0.1027279 0 0.9947096 0.1027274 0.4147291 -0.8925715 0.1769632 0.9761786 0 0.2169686 0.414731 0.892571 0.1769617 0.9761787 0 0.2169685 0.3826881 0.9238777 0 0.9238803 0 0.3826818 -0.3820258 0.05861759 0.9222908 0.3694918 0.06478327 0.9269731 0.9179067 0.02516824 0.3959977 0.917065 -0.01782399 -0.3983393 0.3642942 -0.0173043 -0.9311233 -0.3826778 -0.00415194 -0.9238726 -0.9238569 -0.007111668 -0.382672 -0.9237442 0.01712083 0.3826273 -0.3652259 0.5854995 0.7237405 -0.3798737 0.9170812 0.1210712 0.3587819 0.5899448 0.7233539 0.3609302 0.9234097 0.1305537 0.912918 0.2567004 0.3173103 0.913661 0.4029808 0.05320072 0.9117986 -0.2526177 -0.3237403 0.9117989 -0.408528 -0.04156392 0.3461279 -0.525126 -0.7774564 0.3490794 -0.9358153 -0.04892116 -0.3818966 -0.3795958 -0.8426518 -0.3826124 -0.9237013 -0.019593 -0.9198413 -0.2195741 -0.3250834 -0.9236946 -0.3826075 -0.02000004 -0.9170647 0.245298 0.3143585 -0.9231786 0.3823972 0.03890585 0.9238799 -0.3826828 0 -0.382686 -0.9238785 0 -0.3826888 0.9238774 0 0.9238785 0.382686 0 0.3826856 -0.9238787 0 -0.3826832 0 0.9238797 -0.3826811 0 -0.9238806 0.9238811 0 -0.3826801 0.3826826 0 0.9238799 -0.92388 0 0.3826826 -0.3694921 0.06478321 0.9269729 0.3820262 0.05861771 0.9222906 0.9237449 0.01712095 0.3826258 0.9238575 -0.007111728 -0.3826706 0.3826778 -0.00415194 -0.9238726 -0.3642937 -0.01730436 -0.9311234 -0.9170646 -0.01782411 -0.3983403 -0.9179058 0.02516829 0.3959995 -0.3587824 0.5899447 0.7233537 -0.3609305 0.9234095 0.1305539 0.3652253 0.5854996 0.7237408 0.379873 0.9170815 0.121071 0.9170652 0.2452972 0.3143575 0.9231792 0.3823961 0.03890526 0.9198425 -0.2195727 -0.3250812 0.9236952 -0.382606 -0.02000087 0.3818924 -0.3795925 -0.8426552 0.382612 -0.9237014 -0.019593 -0.3461267 -0.525123 -0.7774589 -0.34908 -0.9358151 -0.04892122 -0.9117981 -0.2526183 -0.3237412 -0.9117984 -0.4085292 -0.04156458 -0.9129174 0.2567014 0.3173108 -0.9136601 0.4029828 0.05320066 -0.923878 0.3826872 0 -0.9238791 -0.3826845 0 0.3826802 0 -0.9238809 -0.9238801 0 -0.3826822 0.3826886 0.9238775 0 0.9238799 0 0.3826826 -0.3820255 0.05861759 0.922291 0.3694918 0.06478309 0.9269731 0.9179063 0.02516835 0.3959985 0.9170646 -0.01782417 -0.3983404 0.3642947 -0.0173043 -0.931123 -0.3826773 -0.00415194 -0.9238728 -0.9238575 -0.007111668 -0.3826705 -0.9237449 0.01712089 0.3826258 -0.3652253 0.5854996 0.7237408 -0.379873 0.9170815 0.121071 0.3587824 0.5899448 0.7233536 0.3609304 0.9234095 0.1305538 0.9129175 0.2567011 0.3173109 0.9136605 0.4029819 0.05320066 0.9117984 -0.2526181 -0.3237402 0.9117987 -0.4085286 -0.04156392 0.3461281 -0.5251256 -0.7774565 0.3490797 -0.9358153 -0.04892116 -0.3818925 -0.3795924 -0.8426553 -0.382612 -0.9237014 -0.019593 -0.9198416 -0.2195726 -0.3250836 -0.9236952 -0.3826062 -0.0200001 -0.9170652 0.2452971 0.3143575 -0.9231791 0.3823962 0.03890526 0.9238796 -0.3826836 0 -0.3826857 -0.9238786 0 -0.3826881 0.9238777 0 0.9238782 0.3826867 0 0.3826858 -0.9238786 0 -0.3826827 0 0.9238799 -0.3826806 0 -0.9238807 0.9238806 0 -0.3826808 0.3826831 0 0.9238798 -0.9238805 0 0.3826814 -0.3694915 0.06478315 0.9269732 0.3820266 0.05861771 0.9222905 0.9237444 0.01712095 0.3826268 0.9238572 -0.007111608 -0.3826711 0.3826778 -0.00415194 -0.9238726 -0.3642932 -0.01730424 -0.9311236 -0.9170651 -0.01782399 -0.398339 -0.9179064 0.02516824 0.3959982 -0.358782 0.5899446 0.7233539 -0.36093 0.9234096 0.1305537 0.3652258 0.5854998 0.7237404 0.3798735 0.9170812 0.1210711 0.9170652 0.2452973 0.3143575 0.9231789 0.3823966 0.03890526 0.9198414 -0.2195738 -0.3250834 0.9236948 -0.3826068 -0.02000087 0.3818926 -0.3795915 -0.8426556 0.3826125 -0.9237012 -0.019593 -0.3461279 -0.5251259 -0.7774563 -0.3490794 -0.9358153 -0.04892116 -0.9117985 -0.2526178 -0.3237403 -0.911799 -0.4085282 -0.04156392 -0.9129179 0.2567005 0.3173103 -0.9136608 0.402981 0.05320072 -0.9238785 0.3826861 0 -0.9238798 -0.382683 0 0.3826807 0 -0.9238808 -0.9238806 0 -0.3826809 0.3826882 0.9238777 0 0.9238804 0 0.3826814 0.9238799 -0.3826829 0 -0.3826862 -0.9238784 0 -0.3826885 0.9238775 0 0.9238786 0.3826859 0 0.3826856 -0.9238787 0 -0.3826832 0 0.9238798 -0.3826811 0 -0.9238805 0.9238807 0 -0.3826805 0.3826834 0 0.9238796 -0.9238798 0 0.382683 -0.9238778 0.3826877 0 -0.9238794 -0.3826841 0 0.3826805 0 -0.9238808 -0.9238803 0 -0.3826817 0.3826883 0.9238776 0 0.9238802 0 0.3826822 -0.3826856 -0.9238787 0 -0.3826882 0.9238776 0 0.382686 -0.9238785 0 -0.3826826 0 0.9238799 -0.3826805 0 -0.9238808 0.9238805 0 -0.3826813 0.3826838 0 0.9238794 -0.9238803 0 0.3826818 -0.9238785 0.3826861 0 -0.9238798 -0.3826829 0 0.382681 0 -0.9238806 -0.9238808 0 -0.3826805 0.3826881 -0.9238777 0 -0.3820258 -0.05861759 0.9222908 0.3694918 -0.06478327 0.9269731 0.9179067 -0.02516824 0.3959977 0.917065 0.01782399 -0.3983393 0.3642942 0.0173043 -0.9311233 -0.3826778 0.00415194 -0.9238726 -0.9238569 0.007111668 -0.382672 -0.9237442 -0.01712083 0.3826273 -0.3652259 -0.5854995 0.7237405 -0.3798737 -0.9170812 0.1210712 0.3587819 -0.5899448 0.7233539 0.3609302 -0.9234097 0.1305537 0.912918 -0.2567004 0.3173103 0.913661 -0.4029808 0.05320072 0.9117986 0.2526177 -0.3237403 0.9117989 0.408528 -0.04156392 0.3461279 0.525126 -0.7774564 0.3490794 0.9358153 -0.04892116 -0.3818966 0.3795958 -0.8426518 -0.3826124 0.9237013 -0.019593 -0.9198413 0.2195741 -0.3250834 -0.9236946 0.3826075 -0.02000004 -0.9170647 -0.245298 0.3143585 -0.9231786 -0.3823972 0.03890585 0.9238799 0.3826828 0 -0.382686 0.9238785 0 -0.3826888 -0.9238774 0 0.9238785 -0.382686 0 0.3826856 0.9238787 0 -0.3694921 -0.06478321 0.9269729 0.3820262 -0.05861771 0.9222906 0.9237449 -0.01712095 0.3826258 0.9238575 0.007111728 -0.3826706 0.3826778 0.00415194 -0.9238726 -0.3642937 0.01730436 -0.9311234 -0.9170646 0.01782411 -0.3983403 -0.9179058 -0.02516829 0.3959995 -0.3587824 -0.5899447 0.7233537 -0.3609305 -0.9234095 0.1305539 0.3652253 -0.5854996 0.7237408 0.379873 -0.9170815 0.121071 0.9170652 -0.2452972 0.3143575 0.9231792 -0.3823961 0.03890526 0.9198425 0.2195727 -0.3250812 0.9236952 0.382606 -0.02000087 0.3818924 0.3795925 -0.8426552 0.382612 0.9237014 -0.019593 -0.3461267 0.525123 -0.7774589 -0.34908 0.9358151 -0.04892122 -0.9117981 0.2526183 -0.3237412 -0.9117984 0.4085292 -0.04156458 -0.9129174 -0.2567014 0.3173108 -0.9136601 -0.4029828 0.05320066 -0.923878 -0.3826872 0 -0.9238791 0.3826845 0 0.3826886 -0.9238775 0 -0.3820255 -0.05861759 0.922291 0.3694918 -0.06478309 0.9269731 0.9179063 -0.02516835 0.3959985 0.9170646 0.01782417 -0.3983404 0.3642947 0.0173043 -0.931123 -0.3826773 0.00415194 -0.9238728 -0.9238575 0.007111668 -0.3826705 -0.9237449 -0.01712089 0.3826258 -0.3652253 -0.5854996 0.7237408 -0.379873 -0.9170815 0.121071 0.3587824 -0.5899448 0.7233536 0.3609304 -0.9234095 0.1305538 0.9129175 -0.2567011 0.3173109 0.9136605 -0.4029819 0.05320066 0.9117984 0.2526181 -0.3237402 0.9117987 0.4085286 -0.04156392 0.3461281 0.5251256 -0.7774565 0.3490797 0.9358153 -0.04892116 -0.3818925 0.3795924 -0.8426553 -0.382612 0.9237014 -0.019593 -0.9198416 0.2195726 -0.3250836 -0.9236952 0.3826062 -0.0200001 -0.9170652 -0.2452971 0.3143575 -0.9231791 -0.3823962 0.03890526 0.9238796 0.3826836 0 -0.3826857 0.9238786 0 -0.3826881 -0.9238777 0 0.9238782 -0.3826867 0 0.3826858 0.9238786 0 -0.3694915 -0.06478315 0.9269732 0.3820266 -0.05861771 0.9222905 0.9237444 -0.01712095 0.3826268 0.9238572 0.007111608 -0.3826711 0.3826778 0.00415194 -0.9238726 -0.3642932 0.01730424 -0.9311236 -0.9170651 0.01782399 -0.398339 -0.9179064 -0.02516824 0.3959982 -0.358782 -0.5899446 0.7233539 -0.36093 -0.9234096 0.1305537 0.3652258 -0.5854998 0.7237404 0.3798735 -0.9170812 0.1210711 0.9170652 -0.2452973 0.3143575 0.9231789 -0.3823966 0.03890526 0.9198414 0.2195738 -0.3250834 0.9236948 0.3826068 -0.02000087 0.3818926 0.3795915 -0.8426556 0.3826125 0.9237012 -0.019593 -0.3461279 0.5251259 -0.7774563 -0.3490794 0.9358153 -0.04892116 -0.9117985 0.2526178 -0.3237403 -0.911799 0.4085282 -0.04156392 -0.9129179 -0.2567005 0.3173103 -0.9136608 -0.402981 0.05320072 -0.9238785 -0.3826861 0 -0.9238798 0.382683 0 0.3826882 -0.9238777 0 0.9238799 0.3826829 0 -0.3826862 0.9238784 0 -0.3826885 -0.9238775 0 0.9238786 -0.3826859 0 0.3826856 0.9238787 0 -0.9238778 -0.3826877 0 -0.9238794 0.3826841 0 0.3826883 -0.9238776 0 -0.3826856 0.9238787 0 -0.3826882 -0.9238776 0 0.382686 0.9238785 0 -0.9238785 -0.3826861 0 -0.9238798 0.3826829 0</float_array>
          <technique_common>
            <accessor source="#Cubo_002-mesh-normals-array" count="402" stride="3">
              <param name="X" type="float"/>
              <param name="Y" type="float"/>
              <param name="Z" type="float"/>
            </accessor>
          </technique_common>
        </source>
        <source id="Cubo_002-mesh-map-0">
          <float_array id="Cubo_002-mesh-map-0-array" count="2880">0.08347672 0.9026711 0.03367072 0.9758687 0.02572542 0.9026711 0.01239192 0.346674 0.01239192 0.3161702 0.08230799 0.3825002 0.1412279 0.9026711 0.08744943 0.9758687 0.08347672 0.9026711 0.1412279 0.9026711 0.03367072 0.9758687 0.1412279 0.9758687 0.01564872 0.9026711 0.03367072 0.9758687 0.02428722 0.9758687 0.1412279 0.9026711 0.03367054 0.9758687 0.1412279 0.9758687 0.01564872 0.9026711 0.03367072 0.9758687 0.02572542 0.9026711 0.1412279 0.9026711 0.2487851 0.9758687 0.2567304 0.9026711 0.03367072 0.9758687 0.08347672 0.9026711 0.02572542 0.9026711 0.01239192 0.346674 0.01800221 0.3825002 0.08230799 0.3825002 0.08744943 0.9758687 0.1412279 0.9026711 0.08347672 0.9026711 0.1412279 0.9026711 0.03367072 0.9758687 0.02572542 0.9026711 0.01564872 0.9026711 0.03367072 0.9758687 0.02572542 0.9026711 0.1412279 0.9026711 0.03367054 0.9758687 0.02572518 0.9026711 0.03367072 0.9758687 0.01564872 0.9026711 0.02572542 0.9026711 0.2487851 0.9758687 0.1412279 0.9026711 0.2567304 0.9026711 0.08347672 0.9026711 0.08744943 0.9758687 0.03367072 0.9758687 0.01239192 0.3161702 0.152224 0.3161702 0.08230799 0.3825002 0.152224 0.3161702 0.152224 0.3771777 0.08230799 0.3825002 0.152224 0.3771777 0.1466138 0.3825002 0.08230799 0.3825002 0.08230799 0.3825002 0.01800221 0.3825002 0.01239192 0.346674 0.01800221 0.3825002 0.01239192 0.3771777 0.01239192 0.346674 0.1412279 0.9026711 0.1412279 0.9758687 0.08744943 0.9758687 0.1412279 0.9026711 0.02572542 0.9026711 0.03367072 0.9758687 0.01564872 0.9026711 0.02572542 0.9026711 0.03367072 0.9758687 0.1412279 0.9026711 0.02572518 0.9026711 0.03367054 0.9758687 0.01564872 0.9026711 0.02428722 0.9758687 0.03367072 0.9758687 0.1412279 0.9026711 0.1412279 0.9758687 0.2487851 0.9758687 0.03367072 0.9758687 0.08744943 0.9758687 0.08347672 0.9026711 0.152224 0.3771777 0.152224 0.3161702 0.08230799 0.3825002 0.152224 0.3161702 0.01239192 0.3161702 0.08230799 0.3825002 0.01239192 0.346674 0.01239192 0.3771777 0.01800221 0.3825002 0.01239192 0.3161702 0.01239192 0.346674 0.08230799 0.3825002 0.08230799 0.3825002 0.1466138 0.3825002 0.152224 0.3771777 0.08744943 0.9758687 0.1412279 0.9758687 0.1412279 0.9026711 0.1412279 0.9026711 0.1412279 0.9758687 0.03367072 0.9758687 0.01564872 0.9026711 0.02428722 0.9758687 0.03367072 0.9758687 0.1412279 0.9026711 0.1412279 0.9758687 0.03367054 0.9758687 0.03367072 0.9758687 0.02428722 0.9758687 0.01564872 0.9026711 0.2487851 0.9758687 0.1412279 0.9758687 0.1412279 0.9026711 0.08347672 0.9026711 0.03367072 0.9758687 0.02572542 0.9026711 0.01239198 0.3647333 0.01239198 0.3437875 0.08230799 0.3893339 0.1412279 0.9026711 0.08744943 0.9758687 0.08347672 0.9026711 0.1412279 0.9026711 0.03367072 0.9758687 0.1412279 0.9758687 0.01564872 0.9026711 0.03367072 0.9758687 0.02428722 0.9758687 0.1412279 0.9026711 0.03367054 0.9758687 0.1412279 0.9758687 0.01564872 0.9026711 0.03367072 0.9758687 0.02572542 0.9026711 0.1412279 0.9026711 0.2487851 0.9758687 0.2567304 0.9026711 0.03367072 0.9758687 0.08347672 0.9026711 0.02572542 0.9026711 0.01239198 0.3647333 0.01800221 0.3893339 0.08230799 0.3893339 0.08744943 0.9758687 0.1412279 0.9026711 0.08347672 0.9026711 0.1412279 0.9026711 0.03367072 0.9758687 0.02572542 0.9026711 0.01564872 0.9026711 0.03367072 0.9758687 0.02572542 0.9026711 0.1412279 0.9026711 0.03367054 0.9758687 0.02572518 0.9026711 0.03367072 0.9758687 0.01564872 0.9026711 0.02572542 0.9026711 0.2487851 0.9758687 0.1412279 0.9026711 0.2567304 0.9026711 0.08347672 0.9026711 0.08744943 0.9758687 0.03367072 0.9758687 0.01239198 0.3437875 0.152224 0.3437875 0.08230799 0.3893339 0.152224 0.3437875 0.152224 0.3856791 0.08230799 0.3893339 0.152224 0.3856791 0.1466138 0.3893339 0.08230799 0.3893339 0.08230799 0.3893339 0.01800221 0.3893339 0.01239198 0.3647333 0.01800221 0.3893339 0.01239198 0.3856791 0.01239198 0.3647333 0.1412279 0.9026711 0.1412279 0.9758687 0.08744943 0.9758687 0.1412279 0.9026711 0.02572542 0.9026711 0.03367072 0.9758687 0.01564872 0.9026711 0.02572542 0.9026711 0.03367072 0.9758687 0.1412279 0.9026711 0.02572518 0.9026711 0.03367054 0.9758687 0.01564872 0.9026711 0.02428722 0.9758687 0.03367072 0.9758687 0.1412279 0.9026711 0.1412279 0.9758687 0.2487851 0.9758687 0.03367072 0.9758687 0.08744943 0.9758687 0.08347672 0.9026711 0.152224 0.3856791 0.152224 0.3437875 0.08230799 0.3893339 0.152224 0.3437875 0.01239198 0.3437875 0.08230799 0.3893339 0.01239198 0.3647333 0.01239198 0.3856791 0.01800221 0.3893339 0.01239198 0.3437875 0.01239198 0.3647333 0.08230799 0.3893339 0.08230799 0.3893339 0.1466138 0.3893339 0.152224 0.3856791 0.08744943 0.9758687 0.1412279 0.9758687 0.1412279 0.9026711 0.1412279 0.9026711 0.1412279 0.9758687 0.03367072 0.9758687 0.01564872 0.9026711 0.02428722 0.9758687 0.03367072 0.9758687 0.1412279 0.9026711 0.1412279 0.9758687 0.03367054 0.9758687 0.03367072 0.9758687 0.02428722 0.9758687 0.01564872 0.9026711 0.2487851 0.9758687 0.1412279 0.9758687 0.1412279 0.9026711 0.08347672 0.9026711 0.03367072 0.9758687 0.02572542 0.9026711 0.662037 0.3113207 0.6556395 0.2796629 0.6987017 0.2480052 0.1412279 0.9026711 0.08744943 0.9758687 0.08347672 0.9026711 0.1412279 0.9026711 0.03367072 0.9758687 0.1412279 0.9758687 0.02572542 0.9026711 0.02428722 0.9758687 0.01564872 0.9026711 0.1412279 0.9026711 0.03367054 0.9758687 0.1412279 0.9758687 0.02572542 0.9026711 0.02428722 0.9758687 0.03367072 0.9758687 0.1412279 0.9026711 0.2487851 0.9758687 0.2567304 0.9026711 0.03367072 0.9758687 0.08347672 0.9026711 0.02572542 0.9026711 0.7720311 0.2480052 0.8150932 0.2796629 0.8086958 0.3113207 0.08744943 0.9758687 0.1412279 0.9026711 0.08347672 0.9026711 0.1412279 0.9026711 0.03367072 0.9758687 0.02572542 0.9026711 0.02428722 0.9758687 0.02572542 0.9026711 0.01564872 0.9026711 0.1412279 0.9026711 0.03367054 0.9758687 0.02572518 0.9026711 0.02572542 0.9026711 0.02428722 0.9758687 0.01564872 0.9026711 0.2487851 0.9758687 0.1412279 0.9026711 0.2567304 0.9026711 0.08347672 0.9026711 0.08744943 0.9758687 0.03367072 0.9758687 0.7353664 0.2480052 0.7353665 0.3113207 0.6987017 0.2480052 0.7353665 0.3113207 0.662037 0.3113207 0.6987017 0.2480052 0.662037 0.3113207 0.6556395 0.3087802 0.6556395 0.2796629 0.6556395 0.2796629 0.6556395 0.2505456 0.662037 0.2480052 0.6556395 0.2796629 0.662037 0.2480052 0.6987017 0.2480052 0.1412279 0.9026711 0.1412279 0.9758687 0.08744943 0.9758687 0.1412279 0.9026711 0.02572542 0.9026711 0.03367072 0.9758687 0.02572542 0.9026711 0.03367072 0.9758687 0.02428722 0.9758687 0.1412279 0.9026711 0.02572518 0.9026711 0.03367054 0.9758687 0.02572542 0.9026711 0.01564872 0.9026711 0.02428722 0.9758687 0.1412279 0.9026711 0.1412279 0.9758687 0.2487851 0.9758687 0.03367072 0.9758687 0.08744943 0.9758687 0.08347672 0.9026711 0.8086958 0.3113207 0.7353665 0.3113207 0.7720311 0.2480052 0.7353665 0.3113207 0.7353664 0.2480052 0.7720311 0.2480052 0.7720311 0.2480052 0.8086958 0.2480052 0.8150932 0.2796629 0.8086958 0.2480052 0.8150932 0.2505456 0.8150932 0.2796629 0.8150932 0.2796629 0.8150932 0.3087802 0.8086958 0.3113207 0.08744943 0.9758687 0.1412279 0.9758687 0.1412279 0.9026711 0.1412279 0.9026711 0.1412279 0.9758687 0.03367072 0.9758687 0.02428722 0.9758687 0.03367072 0.9758687 0.02572542 0.9026711 0.1412279 0.9026711 0.1412279 0.9758687 0.03367054 0.9758687 0.02572542 0.9026711 0.03367072 0.9758687 0.02428722 0.9758687 0.2487851 0.9758687 0.1412279 0.9758687 0.1412279 0.9026711 0.08347672 0.9026711 0.03367072 0.9758687 0.02572542 0.9026711 0.662037 0.3113207 0.6556395 0.2796629 0.6987017 0.2480052 0.1412279 0.9026711 0.08744943 0.9758687 0.08347672 0.9026711 0.1412279 0.9026711 0.03367072 0.9758687 0.1412279 0.9758687 0.02572542 0.9026711 0.02428722 0.9758687 0.01564872 0.9026711 0.1412279 0.9026711 0.03367054 0.9758687 0.1412279 0.9758687 0.02572542 0.9026711 0.02428722 0.9758687 0.03367072 0.9758687 0.1412279 0.9026711 0.2487851 0.9758687 0.2567304 0.9026711 0.03367072 0.9758687 0.08347672 0.9026711 0.02572542 0.9026711 0.7720311 0.2480052 0.8150932 0.2796629 0.8086958 0.3113207 0.08744943 0.9758687 0.1412279 0.9026711 0.08347672 0.9026711 0.1412279 0.9026711 0.03367072 0.9758687 0.02572542 0.9026711 0.02428722 0.9758687 0.02572542 0.9026711 0.01564872 0.9026711 0.1412279 0.9026711 0.03367054 0.9758687 0.02572518 0.9026711 0.02572542 0.9026711 0.02428722 0.9758687 0.01564872 0.9026711 0.2487851 0.9758687 0.1412279 0.9026711 0.2567304 0.9026711 0.08347672 0.9026711 0.08744943 0.9758687 0.03367072 0.9758687 0.7353664 0.2480052 0.7353665 0.3113207 0.6987017 0.2480052 0.7353665 0.3113207 0.662037 0.3113207 0.6987017 0.2480052 0.662037 0.3113207 0.6556395 0.3087802 0.6556395 0.2796629 0.6556395 0.2796629 0.6556395 0.2505456 0.662037 0.2480052 0.6556395 0.2796629 0.662037 0.2480052 0.6987017 0.2480052 0.1412279 0.9026711 0.1412279 0.9758687 0.08744943 0.9758687 0.1412279 0.9026711 0.02572542 0.9026711 0.03367072 0.9758687 0.02572542 0.9026711 0.03367072 0.9758687 0.02428722 0.9758687 0.1412279 0.9026711 0.02572518 0.9026711 0.03367054 0.9758687 0.02572542 0.9026711 0.01564872 0.9026711 0.02428722 0.9758687 0.1412279 0.9026711 0.1412279 0.9758687 0.2487851 0.9758687 0.03367072 0.9758687 0.08744943 0.9758687 0.08347672 0.9026711 0.8086958 0.3113207 0.7353665 0.3113207 0.7720311 0.2480052 0.7353665 0.3113207 0.7353664 0.2480052 0.7720311 0.2480052 0.7720311 0.2480052 0.8086958 0.2480052 0.8150932 0.2796629 0.8086958 0.2480052 0.8150932 0.2505456 0.8150932 0.2796629 0.8150932 0.2796629 0.8150932 0.3087802 0.8086958 0.3113207 0.08744943 0.9758687 0.1412279 0.9758687 0.1412279 0.9026711 0.1412279 0.9026711 0.1412279 0.9758687 0.03367072 0.9758687 0.02428722 0.9758687 0.03367072 0.9758687 0.02572542 0.9026711 0.1412279 0.9026711 0.1412279 0.9758687 0.03367054 0.9758687 0.02572542 0.9026711 0.03367072 0.9758687 0.02428722 0.9758687 0.2487851 0.9758687 0.1412279 0.9758687 0.1412279 0.9026711 0.5412646 0.5328386 0.5449799 0.4560675 0.5449799 0.5328386 0.5455121 0.4604063 0.5492274 0.4604063 0.5492274 0.5275632 0.5771816 0.5224866 0.5679216 0.5263917 0.5771816 0.5263917 0.5771816 0.5224866 0.5679216 0.5185815 0.5673829 0.5224866 0.5771816 0.5299177 0.5692221 0.5256422 0.5679216 0.5293056 0.5771816 0.5260127 0.5705225 0.5219789 0.5692221 0.5256422 0.5771816 0.5185815 0.5710611 0.5224866 0.5705225 0.5185815 0.5771816 0.5263917 0.5710611 0.5224866 0.5771816 0.5224866 0.5771816 0.5260127 0.5705225 0.5219789 0.5771816 0.5221076 0.5771816 0.5299177 0.5692221 0.5256422 0.5771816 0.5260127 0.5673829 0.5224866 0.5624547 0.5263917 0.5679216 0.5263917 0.5654491 0.5247058 0.5692039 0.5149674 0.5654491 0.5149674 0.5673829 0.5224866 0.5624547 0.5185815 0.5610933 0.5224866 0.5729587 0.5247058 0.5692039 0.5149674 0.5692039 0.5254881 0.5679216 0.5293056 0.5657411 0.5228173 0.5624547 0.5247058 0.5657411 0.5228173 0.5612184 0.5149674 0.5624547 0.5247058 0.5692221 0.5256422 0.5690277 0.5209288 0.5657411 0.5228173 0.5690277 0.5209288 0.5649732 0.5149674 0.5657411 0.5228173 0.5705225 0.5185815 0.5703889 0.5224866 0.5690277 0.5185815 0.5692039 0.5201465 0.5729587 0.5149674 0.5729587 0.5209288 0.5705225 0.5263917 0.5703889 0.5224866 0.5710611 0.5224866 0.5692039 0.5201465 0.5654491 0.5149674 0.5692039 0.5149674 0.5692221 0.5256422 0.5690277 0.5209288 0.5705225 0.5219789 0.5690277 0.5209288 0.5649732 0.5149674 0.568728 0.5149674 0.5679216 0.5293056 0.5657411 0.5228173 0.5692221 0.5256422 0.5657411 0.5228173 0.5612184 0.5149674 0.5649732 0.5149674 0.5412402 0.5328386 0.5449555 0.4560675 0.5449555 0.5328386 0.5486953 0.5328386 0.5449799 0.4560675 0.5449799 0.5328386 0.5449799 0.5328386 0.5486953 0.4560675 0.5486953 0.5328386 0.5449555 0.5328386 0.5486708 0.4560675 0.5486708 0.5328386 0.5449799 0.5328386 0.5412646 0.4560675 0.5412646 0.5328386 0.5452398 0.4604063 0.5489552 0.4604063 0.5489552 0.5275632 0.5489552 0.4604063 0.5452398 0.4604063 0.5452398 0.5275632 0.5417968 0.4604063 0.5455121 0.4604063 0.5455121 0.5275632 0.5452398 0.4604063 0.5452398 0.5275632 0.5415245 0.5275632 0.5492274 0.4604063 0.5455121 0.4604063 0.5455121 0.5275632 0.5771816 0.5224866 0.5673829 0.5224866 0.5679216 0.5263917 0.5771816 0.5224866 0.5771816 0.5185815 0.5679216 0.5185815 0.5771816 0.5299177 0.5771816 0.5260127 0.5692221 0.5256422 0.5771816 0.5260127 0.5771816 0.5221076 0.5705225 0.5219789 0.5771816 0.5185815 0.5771816 0.5224866 0.5710611 0.5224866 0.5771816 0.5263917 0.5705225 0.5263917 0.5710611 0.5224866 0.5771816 0.5260127 0.5692221 0.5256422 0.5705225 0.5219789 0.5771816 0.5299177 0.5679216 0.5293056 0.5692221 0.5256422 0.5673829 0.5224866 0.5610933 0.5224866 0.5624547 0.5263917 0.5654491 0.5247058 0.5692039 0.5254881 0.5692039 0.5149674 0.5673829 0.5224866 0.5679216 0.5185815 0.5624547 0.5185815 0.5729587 0.5247058 0.5729587 0.5149674 0.5692039 0.5149674 0.5679216 0.5293056 0.5692221 0.5256422 0.5657411 0.5228173 0.5657411 0.5228173 0.5649732 0.5149674 0.5612184 0.5149674 0.5692221 0.5256422 0.5705225 0.5219789 0.5690277 0.5209288 0.5690277 0.5209288 0.568728 0.5149674 0.5649732 0.5149674 0.5705225 0.5185815 0.5710611 0.5224866 0.5703889 0.5224866 0.5692039 0.5201465 0.5692039 0.5149674 0.5729587 0.5149674 0.5705225 0.5263917 0.5690277 0.5263917 0.5703889 0.5224866 0.5692039 0.5201465 0.5654491 0.5209288 0.5654491 0.5149674 0.5692221 0.5256422 0.5657411 0.5228173 0.5690277 0.5209288 0.5690277 0.5209288 0.5657411 0.5228173 0.5649732 0.5149674 0.5679216 0.5293056 0.5624547 0.5247058 0.5657411 0.5228173 0.5657411 0.5228173 0.5624547 0.5247058 0.5612184 0.5149674 0.5486708 0.5328386 0.5449555 0.4560675 0.5449555 0.5328386 0.5449555 0.5328386 0.5412402 0.4560675 0.5412402 0.5328386 0.5452398 0.4604063 0.5415245 0.4604063 0.5415245 0.5275632 0.5455121 0.4604063 0.5417968 0.4604063 0.5417968 0.5275632 0.5412646 0.5328386 0.5449799 0.4560675 0.5449799 0.5328386 0.5455121 0.4604063 0.5492274 0.4604063 0.5492274 0.5275632 0.5771816 0.5224866 0.5679216 0.5263917 0.5771816 0.5263917 0.5771816 0.5224866 0.5679216 0.5185815 0.5673829 0.5224866 0.5771816 0.5299177 0.5692221 0.5256422 0.5679216 0.5293056 0.5771816 0.5260127 0.5705225 0.5219789 0.5692221 0.5256422 0.5771816 0.5185815 0.5710611 0.5224866 0.5705225 0.5185815 0.5771816 0.5263917 0.5710611 0.5224866 0.5771816 0.5224866 0.5771816 0.5260127 0.5705225 0.5219789 0.5771816 0.5221076 0.5771816 0.5299177 0.5692221 0.5256422 0.5771816 0.5260127 0.5673829 0.5224866 0.5624547 0.5263917 0.5679216 0.5263917 0.5654491 0.5247058 0.5692039 0.5149674 0.5654491 0.5149674 0.5673829 0.5224866 0.5624547 0.5185815 0.5610933 0.5224866 0.5729587 0.5247058 0.5692039 0.5149674 0.5692039 0.5254881 0.5679216 0.5293056 0.5657411 0.5228173 0.5624547 0.5247058 0.5657411 0.5228173 0.5612184 0.5149674 0.5624547 0.5247058 0.5692221 0.5256422 0.5690277 0.5209288 0.5657411 0.5228173 0.5690277 0.5209288 0.5649732 0.5149674 0.5657411 0.5228173 0.5705225 0.5185815 0.5703889 0.5224866 0.5690277 0.5185815 0.5692039 0.5201465 0.5729587 0.5149674 0.5729587 0.5209288 0.5705225 0.5263917 0.5703889 0.5224866 0.5710611 0.5224866 0.5692039 0.5201465 0.5654491 0.5149674 0.5692039 0.5149674 0.5692221 0.5256422 0.5690277 0.5209288 0.5705225 0.5219789 0.5690277 0.5209288 0.5649732 0.5149674 0.568728 0.5149674 0.5679216 0.5293056 0.5657411 0.5228173 0.5692221 0.5256422 0.5657411 0.5228173 0.5612184 0.5149674 0.5649732 0.5149674 0.5412402 0.5328386 0.5449555 0.4560675 0.5449555 0.5328386 0.5486953 0.5328386 0.5449799 0.4560675 0.5449799 0.5328386 0.5449799 0.5328386 0.5486953 0.4560675 0.5486953 0.5328386 0.5449555 0.5328386 0.5486708 0.4560675 0.5486708 0.5328386 0.5449799 0.5328386 0.5412646 0.4560675 0.5412646 0.5328386 0.5452398 0.4604063 0.5489552 0.4604063 0.5489552 0.5275632 0.5489552 0.4604063 0.5452398 0.4604063 0.5452398 0.5275632 0.5417968 0.4604063 0.5455121 0.4604063 0.5455121 0.5275632 0.5452398 0.4604063 0.5452398 0.5275632 0.5415245 0.5275632 0.5492274 0.4604063 0.5455121 0.4604063 0.5455121 0.5275632 0.5771816 0.5224866 0.5673829 0.5224866 0.5679216 0.5263917 0.5771816 0.5224866 0.5771816 0.5185815 0.5679216 0.5185815 0.5771816 0.5299177 0.5771816 0.5260127 0.5692221 0.5256422 0.5771816 0.5260127 0.5771816 0.5221076 0.5705225 0.5219789 0.5771816 0.5185815 0.5771816 0.5224866 0.5710611 0.5224866 0.5771816 0.5263917 0.5705225 0.5263917 0.5710611 0.5224866 0.5771816 0.5260127 0.5692221 0.5256422 0.5705225 0.5219789 0.5771816 0.5299177 0.5679216 0.5293056 0.5692221 0.5256422 0.5673829 0.5224866 0.5610933 0.5224866 0.5624547 0.5263917 0.5654491 0.5247058 0.5692039 0.5254881 0.5692039 0.5149674 0.5673829 0.5224866 0.5679216 0.5185815 0.5624547 0.5185815 0.5729587 0.5247058 0.5729587 0.5149674 0.5692039 0.5149674 0.5679216 0.5293056 0.5692221 0.5256422 0.5657411 0.5228173 0.5657411 0.5228173 0.5649732 0.5149674 0.5612184 0.5149674 0.5692221 0.5256422 0.5705225 0.5219789 0.5690277 0.5209288 0.5690277 0.5209288 0.568728 0.5149674 0.5649732 0.5149674 0.5705225 0.5185815 0.5710611 0.5224866 0.5703889 0.5224866 0.5692039 0.5201465 0.5692039 0.5149674 0.5729587 0.5149674 0.5705225 0.5263917 0.5690277 0.5263917 0.5703889 0.5224866 0.5692039 0.5201465 0.5654491 0.5209288 0.5654491 0.5149674 0.5692221 0.5256422 0.5657411 0.5228173 0.5690277 0.5209288 0.5690277 0.5209288 0.5657411 0.5228173 0.5649732 0.5149674 0.5679216 0.5293056 0.5624547 0.5247058 0.5657411 0.5228173 0.5657411 0.5228173 0.5624547 0.5247058 0.5612184 0.5149674 0.5486708 0.5328386 0.5449555 0.4560675 0.5449555 0.5328386 0.5449555 0.5328386 0.5412402 0.4560675 0.5412402 0.5328386 0.5452398 0.4604063 0.5415245 0.4604063 0.5415245 0.5275632 0.5455121 0.4604063 0.5417968 0.4604063 0.5417968 0.5275632 0.5412646 0.5328386 0.5412646 0.4560675 0.5449799 0.4560675 0.5455121 0.4604063 0.5492274 0.5275632 0.5455121 0.5275632 0.5412402 0.5328386 0.5412402 0.4560675 0.5449555 0.4560675 0.5486953 0.5328386 0.5486953 0.4560675 0.5449799 0.4560675 0.5449799 0.5328386 0.5449799 0.4560675 0.5486953 0.4560675 0.5449555 0.5328386 0.5449555 0.4560675 0.5486708 0.4560675 0.5449799 0.5328386 0.5449799 0.4560675 0.5412646 0.4560675 0.5452398 0.4604063 0.5489552 0.5275632 0.5452398 0.5275632 0.5489552 0.4604063 0.5452398 0.5275632 0.5489552 0.5275632 0.5417968 0.4604063 0.5455121 0.5275632 0.5417968 0.5275632 0.5452398 0.4604063 0.5415245 0.5275632 0.5415245 0.4604063 0.5492274 0.4604063 0.5455121 0.5275632 0.5492274 0.5275632 0.5486708 0.5328386 0.5486708 0.4560675 0.5449555 0.4560675 0.5449555 0.5328386 0.5449555 0.4560675 0.5412402 0.4560675 0.5452398 0.4604063 0.5415245 0.5275632 0.5452398 0.5275632 0.5455121 0.4604063 0.5417968 0.5275632 0.5455121 0.5275632 0.5412646 0.5328386 0.5412646 0.4560675 0.5449799 0.4560675 0.5455121 0.4604063 0.5492274 0.5275632 0.5455121 0.5275632 0.5412402 0.5328386 0.5412402 0.4560675 0.5449555 0.4560675 0.5486953 0.5328386 0.5486953 0.4560675 0.5449799 0.4560675 0.5449799 0.5328386 0.5449799 0.4560675 0.5486953 0.4560675 0.5449555 0.5328386 0.5449555 0.4560675 0.5486708 0.4560675 0.5449799 0.5328386 0.5449799 0.4560675 0.5412646 0.4560675 0.5452398 0.4604063 0.5489552 0.5275632 0.5452398 0.5275632 0.5489552 0.4604063 0.5452398 0.5275632 0.5489552 0.5275632 0.5417968 0.4604063 0.5455121 0.5275632 0.5417968 0.5275632 0.5452398 0.4604063 0.5415245 0.5275632 0.5415245 0.4604063 0.5492274 0.4604063 0.5455121 0.5275632 0.5492274 0.5275632 0.5486708 0.5328386 0.5486708 0.4560675 0.5449555 0.4560675 0.5449555 0.5328386 0.5449555 0.4560675 0.5412402 0.4560675 0.5452398 0.4604063 0.5415245 0.5275632 0.5452398 0.5275632 0.5455121 0.4604063 0.5417968 0.5275632 0.5455121 0.5275632 0.5412646 0.5328386 0.5449799 0.5328386 0.5449799 0.4560675 0.5455121 0.4604063 0.5492274 0.5275632 0.5492274 0.4604063 0.5771816 0.5224866 0.5771816 0.5263917 0.5679216 0.5263917 0.5771816 0.5224866 0.5673829 0.5224866 0.5679216 0.5185815 0.5771816 0.5299177 0.5679216 0.5293056 0.5692221 0.5256422 0.5771816 0.5260127 0.5692221 0.5256422 0.5705225 0.5219789 0.5771816 0.5185815 0.5705225 0.5185815 0.5710611 0.5224866 0.5771816 0.5263917 0.5771816 0.5224866 0.5710611 0.5224866 0.5771816 0.5260127 0.5771816 0.5221076 0.5705225 0.5219789 0.5771816 0.5299177 0.5771816 0.5260127 0.5692221 0.5256422 0.5673829 0.5224866 0.5679216 0.5263917 0.5624547 0.5263917 0.5654491 0.5247058 0.5654491 0.5149674 0.5692039 0.5149674 0.5673829 0.5224866 0.5610933 0.5224866 0.5624547 0.5185815 0.5729587 0.5247058 0.5692039 0.5254881 0.5692039 0.5149674 0.5679216 0.5293056 0.5624547 0.5247058 0.5657411 0.5228173 0.5657411 0.5228173 0.5624547 0.5247058 0.5612184 0.5149674 0.5692221 0.5256422 0.5657411 0.5228173 0.5690277 0.5209288 0.5690277 0.5209288 0.5657411 0.5228173 0.5649732 0.5149674 0.5705225 0.5185815 0.5690277 0.5185815 0.5703889 0.5224866 0.5692039 0.5201465 0.5729587 0.5209288 0.5729587 0.5149674 0.5705225 0.5263917 0.5710611 0.5224866 0.5703889 0.5224866 0.5692039 0.5201465 0.5692039 0.5149674 0.5654491 0.5149674 0.5692221 0.5256422 0.5705225 0.5219789 0.5690277 0.5209288 0.5690277 0.5209288 0.568728 0.5149674 0.5649732 0.5149674 0.5679216 0.5293056 0.5692221 0.5256422 0.5657411 0.5228173 0.5657411 0.5228173 0.5649732 0.5149674 0.5612184 0.5149674 0.5412402 0.5328386 0.5449555 0.5328386 0.5449555 0.4560675 0.5486953 0.5328386 0.5449799 0.5328386 0.5449799 0.4560675 0.5449799 0.5328386 0.5486953 0.5328386 0.5486953 0.4560675 0.5449555 0.5328386 0.5486708 0.5328386 0.5486708 0.4560675 0.5449799 0.5328386 0.5412646 0.5328386 0.5412646 0.4560675 0.5452398 0.4604063 0.5489552 0.5275632 0.5489552 0.4604063 0.5489552 0.4604063 0.5452398 0.5275632 0.5452398 0.4604063 0.5417968 0.4604063 0.5455121 0.5275632 0.5455121 0.4604063 0.5452398 0.4604063 0.5415245 0.5275632 0.5452398 0.5275632 0.5492274 0.4604063 0.5455121 0.5275632 0.5455121 0.4604063 0.5771816 0.5224866 0.5679216 0.5263917 0.5673829 0.5224866 0.5771816 0.5224866 0.5679216 0.5185815 0.5771816 0.5185815 0.5771816 0.5299177 0.5692221 0.5256422 0.5771816 0.5260127 0.5771816 0.5260127 0.5705225 0.5219789 0.5771816 0.5221076 0.5771816 0.5185815 0.5710611 0.5224866 0.5771816 0.5224866 0.5771816 0.5263917 0.5710611 0.5224866 0.5705225 0.5263917 0.5771816 0.5260127 0.5705225 0.5219789 0.5692221 0.5256422 0.5771816 0.5299177 0.5692221 0.5256422 0.5679216 0.5293056 0.5673829 0.5224866 0.5624547 0.5263917 0.5610933 0.5224866 0.5654491 0.5247058 0.5692039 0.5149674 0.5692039 0.5254881 0.5673829 0.5224866 0.5624547 0.5185815 0.5679216 0.5185815 0.5729587 0.5247058 0.5692039 0.5149674 0.5729587 0.5149674 0.5679216 0.5293056 0.5657411 0.5228173 0.5692221 0.5256422 0.5657411 0.5228173 0.5612184 0.5149674 0.5649732 0.5149674 0.5692221 0.5256422 0.5690277 0.5209288 0.5705225 0.5219789 0.5690277 0.5209288 0.5649732 0.5149674 0.568728 0.5149674 0.5705225 0.5185815 0.5703889 0.5224866 0.5710611 0.5224866 0.5692039 0.5201465 0.5729587 0.5149674 0.5692039 0.5149674 0.5705225 0.5263917 0.5703889 0.5224866 0.5690277 0.5263917 0.5692039 0.5201465 0.5654491 0.5149674 0.5654491 0.5209288 0.5692221 0.5256422 0.5690277 0.5209288 0.5657411 0.5228173 0.5690277 0.5209288 0.5649732 0.5149674 0.5657411 0.5228173 0.5679216 0.5293056 0.5657411 0.5228173 0.5624547 0.5247058 0.5657411 0.5228173 0.5612184 0.5149674 0.5624547 0.5247058 0.5486708 0.5328386 0.5449555 0.5328386 0.5449555 0.4560675 0.5449555 0.5328386 0.5412402 0.5328386 0.5412402 0.4560675 0.5452398 0.4604063 0.5415245 0.5275632 0.5415245 0.4604063 0.5455121 0.4604063 0.5417968 0.5275632 0.5417968 0.4604063 0.5412646 0.5328386 0.5449799 0.5328386 0.5449799 0.4560675 0.5455121 0.4604063 0.5492274 0.5275632 0.5492274 0.4604063 0.5771816 0.5224866 0.5771816 0.5263917 0.5679216 0.5263917 0.5771816 0.5224866 0.5673829 0.5224866 0.5679216 0.5185815 0.5771816 0.5299177 0.5679216 0.5293056 0.5692221 0.5256422 0.5771816 0.5260127 0.5692221 0.5256422 0.5705225 0.5219789 0.5771816 0.5185815 0.5705225 0.5185815 0.5710611 0.5224866 0.5771816 0.5263917 0.5771816 0.5224866 0.5710611 0.5224866 0.5771816 0.5260127 0.5771816 0.5221076 0.5705225 0.5219789 0.5771816 0.5299177 0.5771816 0.5260127 0.5692221 0.5256422 0.5673829 0.5224866 0.5679216 0.5263917 0.5624547 0.5263917 0.5654491 0.5247058 0.5654491 0.5149674 0.5692039 0.5149674 0.5673829 0.5224866 0.5610933 0.5224866 0.5624547 0.5185815 0.5729587 0.5247058 0.5692039 0.5254881 0.5692039 0.5149674 0.5679216 0.5293056 0.5624547 0.5247058 0.5657411 0.5228173 0.5657411 0.5228173 0.5624547 0.5247058 0.5612184 0.5149674 0.5692221 0.5256422 0.5657411 0.5228173 0.5690277 0.5209288 0.5690277 0.5209288 0.5657411 0.5228173 0.5649732 0.5149674 0.5705225 0.5185815 0.5690277 0.5185815 0.5703889 0.5224866 0.5692039 0.5201465 0.5729587 0.5209288 0.5729587 0.5149674 0.5705225 0.5263917 0.5710611 0.5224866 0.5703889 0.5224866 0.5692039 0.5201465 0.5692039 0.5149674 0.5654491 0.5149674 0.5692221 0.5256422 0.5705225 0.5219789 0.5690277 0.5209288 0.5690277 0.5209288 0.568728 0.5149674 0.5649732 0.5149674 0.5679216 0.5293056 0.5692221 0.5256422 0.5657411 0.5228173 0.5657411 0.5228173 0.5649732 0.5149674 0.5612184 0.5149674 0.5412402 0.5328386 0.5449555 0.5328386 0.5449555 0.4560675 0.5486953 0.5328386 0.5449799 0.5328386 0.5449799 0.4560675 0.5449799 0.5328386 0.5486953 0.5328386 0.5486953 0.4560675 0.5449555 0.5328386 0.5486708 0.5328386 0.5486708 0.4560675 0.5449799 0.5328386 0.5412646 0.5328386 0.5412646 0.4560675 0.5452398 0.4604063 0.5489552 0.5275632 0.5489552 0.4604063 0.5489552 0.4604063 0.5452398 0.5275632 0.5452398 0.4604063 0.5417968 0.4604063 0.5455121 0.5275632 0.5455121 0.4604063 0.5452398 0.4604063 0.5415245 0.5275632 0.5452398 0.5275632 0.5492274 0.4604063 0.5455121 0.5275632 0.5455121 0.4604063 0.5771816 0.5224866 0.5679216 0.5263917 0.5673829 0.5224866 0.5771816 0.5224866 0.5679216 0.5185815 0.5771816 0.5185815 0.5771816 0.5299177 0.5692221 0.5256422 0.5771816 0.5260127 0.5771816 0.5260127 0.5705225 0.5219789 0.5771816 0.5221076 0.5771816 0.5185815 0.5710611 0.5224866 0.5771816 0.5224866 0.5771816 0.5263917 0.5710611 0.5224866 0.5705225 0.5263917 0.5771816 0.5260127 0.5705225 0.5219789 0.5692221 0.5256422 0.5771816 0.5299177 0.5692221 0.5256422 0.5679216 0.5293056 0.5673829 0.5224866 0.5624547 0.5263917 0.5610933 0.5224866 0.5654491 0.5247058 0.5692039 0.5149674 0.5692039 0.5254881 0.5673829 0.5224866 0.5624547 0.5185815 0.5679216 0.5185815 0.5729587 0.5247058 0.5692039 0.5149674 0.5729587 0.5149674 0.5679216 0.5293056 0.5657411 0.5228173 0.5692221 0.5256422 0.5657411 0.5228173 0.5612184 0.5149674 0.5649732 0.5149674 0.5692221 0.5256422 0.5690277 0.5209288 0.5705225 0.5219789 0.5690277 0.5209288 0.5649732 0.5149674 0.568728 0.5149674 0.5705225 0.5185815 0.5703889 0.5224866 0.5710611 0.5224866 0.5692039 0.5201465 0.5729587 0.5149674 0.5692039 0.5149674 0.5705225 0.5263917 0.5703889 0.5224866 0.5690277 0.5263917 0.5692039 0.5201465 0.5654491 0.5149674 0.5654491 0.5209288 0.5692221 0.5256422 0.5690277 0.5209288 0.5657411 0.5228173 0.5690277 0.5209288 0.5649732 0.5149674 0.5657411 0.5228173 0.5679216 0.5293056 0.5657411 0.5228173 0.5624547 0.5247058 0.5657411 0.5228173 0.5612184 0.5149674 0.5624547 0.5247058 0.5486708 0.5328386 0.5449555 0.5328386 0.5449555 0.4560675 0.5449555 0.5328386 0.5412402 0.5328386 0.5412402 0.4560675 0.5452398 0.4604063 0.5415245 0.5275632 0.5415245 0.4604063 0.5455121 0.4604063 0.5417968 0.5275632 0.5417968 0.4604063 0.5412646 0.5328386 0.5449799 0.4560675 0.5412646 0.4560675 0.5455121 0.4604063 0.5455121 0.5275632 0.5492274 0.5275632 0.5412402 0.5328386 0.5449555 0.4560675 0.5412402 0.4560675 0.5486953 0.5328386 0.5449799 0.4560675 0.5486953 0.4560675 0.5449799 0.5328386 0.5486953 0.4560675 0.5449799 0.4560675 0.5449555 0.5328386 0.5486708 0.4560675 0.5449555 0.4560675 0.5449799 0.5328386 0.5412646 0.4560675 0.5449799 0.4560675 0.5452398 0.4604063 0.5452398 0.5275632 0.5489552 0.5275632 0.5489552 0.4604063 0.5489552 0.5275632 0.5452398 0.5275632 0.5417968 0.4604063 0.5417968 0.5275632 0.5455121 0.5275632 0.5452398 0.4604063 0.5415245 0.4604063 0.5415245 0.5275632 0.5492274 0.4604063 0.5492274 0.5275632 0.5455121 0.5275632 0.5486708 0.5328386 0.5449555 0.4560675 0.5486708 0.4560675 0.5449555 0.5328386 0.5412402 0.4560675 0.5449555 0.4560675 0.5452398 0.4604063 0.5452398 0.5275632 0.5415245 0.5275632 0.5455121 0.4604063 0.5455121 0.5275632 0.5417968 0.5275632 0.5412646 0.5328386 0.5449799 0.4560675 0.5412646 0.4560675 0.5455121 0.4604063 0.5455121 0.5275632 0.5492274 0.5275632 0.5412402 0.5328386 0.5449555 0.4560675 0.5412402 0.4560675 0.5486953 0.5328386 0.5449799 0.4560675 0.5486953 0.4560675 0.5449799 0.5328386 0.5486953 0.4560675 0.5449799 0.4560675 0.5449555 0.5328386 0.5486708 0.4560675 0.5449555 0.4560675 0.5449799 0.5328386 0.5412646 0.4560675 0.5449799 0.4560675 0.5452398 0.4604063 0.5452398 0.5275632 0.5489552 0.5275632 0.5489552 0.4604063 0.5489552 0.5275632 0.5452398 0.5275632 0.5417968 0.4604063 0.5417968 0.5275632 0.5455121 0.5275632 0.5452398 0.4604063 0.5415245 0.4604063 0.5415245 0.5275632 0.5492274 0.4604063 0.5492274 0.5275632 0.5455121 0.5275632 0.5486708 0.5328386 0.5449555 0.4560675 0.5486708 0.4560675 0.5449555 0.5328386 0.5412402 0.4560675 0.5449555 0.4560675 0.5452398 0.4604063 0.5452398 0.5275632 0.5415245 0.5275632 0.5455121 0.4604063 0.5455121 0.5275632 0.5417968 0.5275632</float_array>
          <technique_common>
            <accessor source="#Cubo_002-mesh-map-0-array" count="1440" stride="2">
              <param name="S" type="float"/>
              <param name="T" type="float"/>
            </accessor>
          </technique_common>
        </source>
        <source id="Cubo_002-mesh-map-1">
          <float_array id="Cubo_002-mesh-map-1-array" count="2880">0 0 0 0 0 0 0 0 0 0 0 0 0 0 0 0 0 0 0 0 0 0 0 0 0 0 0 0 0 0 0 0 0 0 0 0 0 0 0 0 0 0 0 0 0 0 0 0 0 0 0 0 0 0 0 0 0 0 0 0 0 0 0 0 0 0 0 0 0 0 0 0 0 0 0 0 0 0 0 0 0 0 0 0 0 0 0 0 0 0 0 0 0 0 0 0 0 0 0 0 0 0 0 0 0 0 0 0 0 0 0 0 0 0 0 0 0 0 0 0 0 0 0 0 0 0 0 0 0 0 0 0 0 0 0 0 0 0 0 0 0 0 0 0 0 0 0 0 0 0 0 0 0 0 0 0 0 0 0 0 0 0 0 0 0 0 0 0 0 0 0 0 0 0 0 0 0 0 0 0 0 0 0 0 0 0 0 0 0 0 0 0 0 0 0 0 0 0 0 0 0 0 0 0 0 0 0 0 0 0 0 0 0 0 0 0 0 0 0 0 0 0 0 0 0 0 0 0 0 0 0 0 0 0 0 0 0 0 0 0 0 0 0 0 0 0 0 0 0 0 0 0 0 0 0 0 0 0 0 0 0 0 0 0 0 0 0 0 0 0 0 0 0 0 0 0 0 0 0 0 0 0 0 0 0 0 0 0 0 0 0 0 0 0 0 0 0 0 0 0 0 0 0 0 0 0 0 0 0 0 0 0 0 0 0 0 0 0 0 0 0 0 0 0 0 0 0 0 0 0 0 0 0 0 0 0 0 0 0 0 0 0 0 0 0 0 0 0 0 0 0 0 0 0 0 0 0 0 0 0 0 0 0 0 0 0 0 0 0 0 0 0 0 0 0 0 0 0 0 0 0 0 0 0 0 0 0 0 0 0 0 0 0 0 0 0 0 0 0 0 0 0 0 0 0 0 0 0 0 0 0 0 0 0 0 0 0 0 0 0 0 0 0 0 0 0 0 0 0 0 0 0 0 0 0 0 0 0 0 0 0 0 0 0 0 0 0 0 0 0 0 0 0 0 0 0 0 0 0 0 0 0 0 0 0 0 0 0 0 0 0 0 0 0 0 0 0 0 0 0 0 0 0 0 0 0 0 0 0 0 0 0 0 0 0 0 0 0 0 0 0 0 0 0 0 0 0 0 0 0 0 0 0 0 0 0 0 0 0 0 0 0 0 0 0 0 0 0 0 0 0 0 0 0 0 0 0 0 0 0 0 0 0 0 0 0 0 0 0 0 0 0 0 0 0 0 0 0 0 0 0 0 0 0 0 0 0 0 0 0 0 0 0 0 0 0 0 0 0 0 0 0 0 0 0 0 0 0 0 0 0 0 0 0 0 0 0 0 0 0 0 0 0 0 0 0 0 0 0 0 0 0 0 0 0 0 0 0 0 0 0 0 0 0 0 0 0 0 0 0 0 0 0 0 0 0 0 0 0 0 0 0 0 0 0 0 0 0 0 0 0 0 0 0 0 0 0 0 0 0 0 0 0 0 0 0 0 0 0 0 0 0 0 0 0 0 0 0 0 0 0 0 0 0 0 0 0 0 0 0 0 0 0 0 0 0 0 0 0 0 0 0 0 0 0 0 0 0 0 0 0 0 0 0 0 0 0 0 0 0 0 0 0 0 0 0 0 0 0 0 0 0 0 0 0 0 0 0 0 0 0 0 0 0 0 0 0 0 0 0 0 0 0 0 0 0 0 0 0 0 0 0 0 0 0 0 0 0 0 0 0 0 0 0 0 0 0 0 0 0 0 0 0 0 0 0 0 0 0 0 0 0 0 0 0 0 0 0 0 0 0 0 0 0 0 0 0 0 0 0 0 0 0 0 0 0 0 0 0 0 0 0 0 0 0 0 0 0 0 0 0 0 0 0 0 0 0 0 0 0 0 0 0 0 0 0 0 0 0 0 0 0 0 0 0 0 0 0 0 0 0 0 0 0 0 0 0 0 0 0 0 0 0 0 0 0 0 0 0 0 0 0 0 0 0 0 0 0 0 0 0 0 0 0 0 0 0 0 0 0 0 0 0 0 0 0 0 0 0 0 0 0 0 0 0 0 0 0 0 0 0 0 0 0 0 0 0 0 0 0 0 0 0 0 0 0 0 0 0 0 0 0 0 0 0 0 0 0 0 0 0 0 0 0 0 0 0 0 0 0 0 0 0 0 0 0 0 0 0 0 0 0 0 0 0 0 0 0 0 0 0 0 0 0 0 0 0 0 0 0 0 0 0 0 0 0 0 0 0 0 0 0 0 0 0 0 0 0 0 0 0 0 0 0 0 0 0 0 0 0 0 0 0 0 0 0 0 0 0 0 0 0 0 0 0 0 0 0 0 0 0 0 0 0 0 0 0 0 0 0 0 0 0 0 0 0 0 0 0 0 0 0 0 0 0 0 0 0 0 0 0 0 0 0 0 0 0 0 0 0 0 0 0 0 0 0 0 0 0 0 0 0 0 0 0 0 0 0 0 0 0 0 0 0 0 0 0 0 0 0 0 0 0 0 0 0 0 0 0 0 0 0 0 0 0 0 0 0 0 0 0 0 0 0 0 0 0 0 0 0 0 0 0 0 0 0 0 0 0 0 0 0 0 0 0 0 0 0 0 0 0 0 0 0 0 0 0 0 0 0 0 0 0 0 0 0 0 0 0 0 0 0 0 0 0 0 0 0 0 0 0 0 0 0 0 0 0 0 0 0 0 0 0 0 0 0 0 0 0 0 0 0 0 0 0 0 0 0 0 0 0 0 0 0 0 0 0 0 0 0 0 0 0 0 0 0 0 0 0 0 0 0 0 0 0 0 0 0 0 0 0 0 0 0 0 0 0 0 0 0 0 0 0 0 0 0 0 0 0 0 0 0 0 0 0 0 0 0 0 0 0 0 0 0 0 0 0 0 0 0 0 0 0 0 0 0 0 0 0 0 0 0 0 0 0 0 0 0 0 0 0 0 0 0 0 0 0 0 0 0 0 0 0 0 0 0 0 0 0 0 0 0 0 0 0 0 0 0 0 0 0 0 0 0 0 0 0 0 0 0 0 0 0 0 0 0 0 0 0 0 0 0 0 0 0 0 0 0 0 0 0 0 0 0 0 0 0 0 0 0 0 0 0 0 0 0 0 0 0 0 0 0 0 0 0 0 0 0 0 0 0 0 0 0 0 0 0 0 0 0 0 0 0 0 0 0 0 0 0 0 0 0 0 0 0 0 0 0 0 0 0 0 0 0 0 0 0 0 0 0 0 0 0 0 0 0 0 0 0 0 0 0 0 0 0 0 0 0 0 0 0 0 0 0 0 0 0 0 0 0 0 0 0 0 0 0 0 0 0 0 0 0 0 0 0 0 0 0 0 0 0 0 0 0 0 0 0 0 0 0 0 0 0 0 0 0 0 0 0 0 0 0 0 0 0 0 0 0 0 0 0 0 0 0 0 0 0 0 0 0 0 0 0 0 0 0 0 0 0 0 0 0 0 0 0 0 0 0 0 0 0 0 0 0 0 0 0 0 0 0 0 0 0 0 0 0 0 0 0 0 0 0 0 0 0 0 0 0 0 0 0 0 0 0 0 0 0 0 0 0 0 0 0 0 0 0 0 0 0 0 0 0 0 0 0 0 0 0 0 0 0 0 0 0 0 0 0 0 0 0 0 0 0 0 0 0 0 0 0 0 0 0 0 0 0 0 0 0 0 0 0 0 0 0 0 0 0 0 0 0 0 0 0 0 0 0 0 0 0 0 0 0 0 0 0 0 0 0 0 0 0 0 0 0 0 0 0 0 0 0 0 0 0 0 0 0 0 0 0 0 0 0 0 0 0 0 0 0 0 0 0 0 0 0 0 0 0 0 0 0 0 0 0 0 0 0 0 0 0 0 0 0 0 0 0 0 0 0 0 0 0 0 0 0 0 0 0 0 0 0 0 0 0 0 0 0 0 0 0 0 0 0 0 0 0 0 0 0 0 0 0 0 0 0 0 0 0 0 0 0 0 0 0 0 0 0 0 0 0 0 0 0 0 0 0 0 0 0 0 0 0 0 0 0 0 0 0 0 0 0 0 0 0 0 0 0 0 0 0 0 0 0 0 0 0 0 0 0 0 0 0 0 0 0 0 0 0 0 0 0 0 0 0 0 0 0 0 0 0 0 0 0 0 0 0 0 0 0 0 0 0 0 0 0 0 0 0 0 0 0 0 0 0 0 0 0 0 0 0 0 0 0 0 0 0 0 0 0 0 0 0 0 0 0 0 0 0 0 0 0 0 0 0 0 0 0 0 0 0 0 0 0 0 0 0 0 0 0 0 0 0 0 0 0 0 0 0 0 0 0 0 0 0 0 0 0 0 0 0 0 0 0 0 0 0 0 0 0 0 0 0 0 0 0 0 0 0 0 0 0 0 0 0 0 0 0 0 0 0 0 0 0 0 0 0 0 0 0 0 0 0 0 0 0 0 0 0 0 0 0 0 0 0 0 0 0 0 0 0 0 0 0 0 0 0 0 0 0 0 0 0 0 0 0 0 0 0 0 0 0 0 0 0 0 0 0 0 0 0 0 0 0 0 0 0 0 0 0 0 0 0 0 0 0 0 0 0 0 0 0 0 0 0 0 0 0 0 0 0 0 0 0 0 0 0 0 0 0 0 0 0 0 0 0 0 0 0 0 0 0 0 0 0 0 0 0 0 0 0 0 0 0 0 0 0 0 0 0 0 0 0 0 0 0 0 0 0 0 0 0 0 0 0 0 0 0 0 0 0 0 0 0 0 0 0 0 0 0 0 0 0 0 0 0 0 0 0 0 0 0 0 0 0 0 0 0 0 0 0 0 0 0 0 0 0 0 0 0 0 0 0 0 0 0 0 0 0 0 0 0 0 0 0 0 0 0 0 0 0 0 0 0 0 0 0 0 0 0 0 0 0 0 0 0 0 0 0 0 0 0 0 0 0 0 0 0 0 0 0 0 0 0 0 0 0 0 0 0 0 0 0 0 0 0 0 0 0 0 0 0 0 0 0 0 0 0 0 0 0 0 0 0 0 0 0 0 0 0 0 0 0 0 0 0 0 0 0 0 0 0 0 0 0 0 0 0 0 0 0 0 0 0 0 0 0 0 0 0 0 0 0 0 0 0 0 0 0 0 0 0 0 0 0 0 0 0 0 0 0 0 0 0 0 0 0 0 0 0 0 0 0 0 0 0 0 0 0 0 0 0 0 0 0 0 0 0 0 0 0 0 0 0 0 0 0 0 0 0 0 0 0 0 0 0 0 0 0 0 0 0 0 0 0 0 0 0 0 0 0 0 0 0 0 0 0 0 0 0 0 0 0 0 0 0 0 0 0 0 0 0 0 0 0 0 0 0 0 0 0 0 0 0 0 0 0 0 0 0 0 0 0 0 0 0 0 0 0 0 0 0 0 0 0 0 0 0 0 0 0 0 0 0 0 0 0 0 0 0 0 0 0 0 0 0 0 0 0 0 0 0 0 0 0 0 0 0 0 0 0 0 0 0 0 0 0 0 0 0 0 0 0 0 0 0 0 0 0 0 0 0 0 0 0 0 0 0 0 0 0 0 0 0 0 0 0 0 0 0 0 0 0 0 0 0 0 0 0 0 0 0 0 0 0 0 0 0 0 0 0 0 0 0 0 0 0 0 0 0 0 0 0 0 0 0 0 0 0 0 0 0 0 0 0 0 0 0 0 0 0 0 0 0 0 0 0 0 0 0 0 0 0 0 0 0 0 0 0 0 0 0 0 0 0 0 0 0 0 0 0 0 0 0 0 0 0 0 0 0 0 0 0 0 0 0 0 0 0 0 0 0 0 0 0 0 0 0 0 0 0 0 0 0 0 0 0 0 0 0 0 0 0 0 0 0 0 0 0 0 0 0 0 0 0 0 0 0 0 0 0 0 0 0 0 0 0 0 0 0 0 0 0 0 0 0 0 0 0 0 0 0 0 0 0 0 0 0 0 0 0 0 0 0 0 0 0 0 0 0 0 0 0 0 0 0 0 0 0 0 0 0 0 0 0 0 0 0 0 0 0 0 0 0 0 0 0 0 0 0 0 0 0 0 0 0 0 0 0 0 0 0 0 0 0 0 0 0 0 0 0 0 0 0 0 0 0 0 0 0 0 0 0 0 0 0 0 0 0 0 0 0 0 0 0 0 0 0 0 0 0 0 0 0 0 0 0 0 0 0 0 0 0 0 0 0 0 0 0 0 0 0 0 0 0 0 0 0 0 0 0 0 0 0 0 0 0 0 0 0 0 0 0 0 0 0 0 0 0 0 0 0 0 0 0 0 0 0 0 0 0 0 0 0 0 0 0 0 0 0 0 0 0 0 0 0 0 0 0 0 0 0 0 0 0 0 0 0 0 0 0 0 0 0 0 0 0 0 0 0 0 0 0 0 0 0 0 0 0 0 0 0 0 0 0 0 0 0 0 0 0 0 0 0 0 0 0 0 0 0 0 0 0 0 0 0 0 0 0 0 0 0</float_array>
          <technique_common>
            <accessor source="#Cubo_002-mesh-map-1-array" count="1440" stride="2">
              <param name="S" type="float"/>
              <param name="T" type="float"/>
            </accessor>
          </technique_common>
        </source>
        <vertices id="Cubo_002-mesh-vertices">
          <input semantic="POSITION" source="#Cubo_002-mesh-positions"/>
        </vertices>
        <triangles material="Material_001-material" count="480">
          <input semantic="VERTEX" source="#Cubo_002-mesh-vertices" offset="0"/>
          <input semantic="NORMAL" source="#Cubo_002-mesh-normals" offset="1"/>
          <input semantic="TEXCOORD" source="#Cubo_002-mesh-map-0" offset="2" set="0"/>
          <input semantic="TEXCOORD" source="#Cubo_002-mesh-map-1" offset="2" set="1"/>
          <p>14 0 0 8 0 1 2 0 2 15 1 3 7 1 4 13 1 5 1 2 6 15 2 7 14 2 8 0 3 9 11 3 10 6 3 11 3 4 12 8 4 13 9 4 14 12 5 15 9 5 16 13 5 17 4 6 18 11 6 19 5 6 20 12 7 21 10 7 22 4 7 23 20 8 24 26 8 25 16 8 26 27 1 27 21 1 28 25 1 29 27 2 30 1 2 31 26 2 32 0 9 33 23 9 34 19 9 35 17 10 36 20 10 37 16 10 38 24 11 39 21 11 40 17 11 41 23 12 42 18 12 43 19 12 44 22 13 45 24 13 46 18 13 47 14 14 48 15 14 49 8 14 50 7 1 51 6 1 52 13 1 53 6 15 54 11 15 55 13 15 56 11 1 57 10 1 58 13 1 59 13 1 60 9 1 61 15 1 62 9 1 63 8 1 64 15 1 65 1 16 66 7 16 67 15 16 68 0 17 69 5 17 70 11 17 71 3 18 72 2 18 73 8 18 74 12 19 75 3 19 76 9 19 77 4 20 78 10 20 79 11 20 80 12 21 81 13 21 82 10 21 83 20 22 84 27 22 85 26 22 86 23 1 87 6 1 88 25 1 89 6 1 90 7 1 91 25 1 92 27 23 93 20 23 94 21 23 95 7 1 96 27 1 97 25 1 98 25 1 99 22 1 100 23 1 101 27 8 102 7 8 103 1 8 104 0 24 105 6 24 106 23 24 107 17 25 108 21 25 109 20 25 110 24 26 111 25 26 112 21 26 113 23 27 114 22 27 115 18 27 116 22 28 117 25 28 118 24 28 119 42 29 120 36 29 121 30 29 122 43 1 123 35 1 124 41 1 125 29 30 126 43 30 127 42 30 128 28 31 129 39 31 130 34 31 131 31 32 132 36 32 133 37 32 134 40 33 135 37 33 136 41 33 137 32 34 138 39 34 139 33 34 140 40 35 141 38 35 142 32 35 143 48 30 144 54 30 145 44 30 146 55 1 147 49 1 148 53 1 149 55 36 150 29 36 151 54 36 152 28 37 153 51 37 154 47 37 155 45 38 156 48 38 157 44 38 158 52 39 159 49 39 160 45 39 161 51 40 162 46 40 163 47 40 164 50 41 165 52 41 166 46 41 167 42 36 168 43 36 169 36 36 170 35 1 171 34 1 172 41 1 173 34 42 174 39 42 175 41 42 176 39 1 177 38 1 178 41 1 179 41 1 180 37 1 181 43 1 182 37 1 183 36 1 184 43 1 185 29 43 186 35 43 187 43 43 188 28 44 189 33 44 190 39 44 191 31 45 192 30 45 193 36 45 194 40 46 195 31 46 196 37 46 197 32 47 198 38 47 199 39 47 200 40 48 201 41 48 202 38 48 203 48 43 204 55 43 205 54 43 206 51 1 207 34 1 208 53 1 209 34 1 210 35 1 211 53 1 212 55 49 213 48 49 214 49 49 215 35 50 216 55 50 217 53 50 218 53 1 219 50 1 220 51 1 221 55 36 222 35 36 223 29 36 224 28 31 225 34 31 226 51 31 227 45 51 228 49 51 229 48 51 230 52 52 231 53 52 232 49 52 233 51 53 234 50 53 235 46 53 236 50 54 237 53 54 238 52 54 239 70 55 240 64 55 241 58 55 242 67 56 243 69 56 244 71 56 245 57 57 246 71 57 247 70 57 248 56 58 249 67 58 250 62 58 251 58 59 252 65 59 253 59 59 254 68 60 255 65 60 256 69 60 257 61 61 258 66 61 259 67 61 260 68 62 261 66 62 262 60 62 263 76 63 264 82 63 265 72 63 266 83 64 267 81 64 268 79 64 269 83 65 270 57 65 271 82 65 272 56 66 273 79 66 274 75 66 275 77 67 276 72 67 277 73 67 278 80 68 279 77 68 280 73 68 281 75 69 282 78 69 283 74 69 284 78 70 285 80 70 286 74 70 287 70 71 288 71 71 289 64 71 290 63 1 291 62 1 292 71 1 293 62 1 294 67 1 295 71 1 296 67 1 297 66 1 298 69 1 299 69 72 300 65 72 301 64 72 302 69 1 303 64 1 304 71 1 305 57 73 306 63 73 307 71 73 308 56 74 309 61 74 310 67 74 311 58 75 312 64 75 313 65 75 314 68 76 315 59 76 316 65 76 317 61 77 318 60 77 319 66 77 320 68 78 321 69 78 322 66 78 323 76 79 324 83 79 325 82 79 326 79 1 327 62 1 328 83 1 329 62 1 330 63 1 331 83 1 332 83 1 333 76 1 334 81 1 335 76 80 336 77 80 337 81 80 338 81 1 339 78 1 340 79 1 341 83 81 342 63 81 343 57 81 344 56 82 345 62 82 346 79 82 347 77 83 348 76 83 349 72 83 350 80 84 351 81 84 352 77 84 353 75 85 354 79 85 355 78 85 356 78 86 357 81 86 358 80 86 359 98 87 360 92 87 361 86 87 362 95 88 363 97 88 364 99 88 365 85 89 366 99 89 367 98 89 368 84 90 369 95 90 370 90 90 371 86 91 372 93 91 373 87 91 374 96 60 375 93 60 376 97 60 377 89 92 378 94 92 379 95 92 380 96 93 381 94 93 382 88 93 383 104 94 384 110 94 385 100 94 386 111 95 387 109 95 388 107 95 389 111 65 390 85 65 391 110 65 392 84 96 393 107 96 394 103 96 395 105 97 396 100 97 397 101 97 398 108 98 399 105 98 400 101 98 401 103 99 402 106 99 403 102 99 404 106 100 405 108 100 406 102 100 407 98 101 408 99 101 409 92 101 410 91 1 411 90 1 412 99 1 413 90 1 414 95 1 415 99 1 416 95 1 417 94 1 418 97 1 419 97 102 420 93 102 421 92 102 422 97 1 423 92 1 424 99 1 425 85 103 426 91 103 427 99 103 428 84 104 429 89 104 430 95 104 431 86 105 432 92 105 433 93 105 434 96 106 435 87 106 436 93 106 437 89 107 438 88 107 439 94 107 440 96 108 441 97 108 442 94 108 443 104 109 444 111 109 445 110 109 446 107 1 447 90 1 448 111 1 449 90 1 450 91 1 451 111 1 452 111 1 453 104 1 454 109 1 455 104 110 456 105 110 457 109 110 458 109 111 459 106 111 460 107 111 461 111 112 462 91 112 463 85 112 464 84 113 465 90 113 466 107 113 467 105 114 468 104 114 469 100 114 470 108 115 471 109 115 472 105 115 473 103 116 474 107 116 475 106 116 476 106 117 477 109 117 478 108 117 479 115 118 480 146 118 481 114 118 482 124 119 483 125 119 484 157 119 485 126 120 486 128 120 487 127 120 488 126 121 489 133 121 490 131 121 491 125 122 492 135 122 493 133 122 494 124 123 495 137 123 496 135 123 497 123 124 498 139 124 499 137 124 500 121 125 501 139 125 502 122 125 503 120 126 504 141 126 505 121 126 506 127 127 507 143 127 508 120 127 509 131 128 510 129 128 511 128 128 512 129 129 513 114 129 514 113 129 515 131 130 516 132 130 517 130 130 518 132 131 519 114 131 520 130 131 521 133 132 522 134 132 523 132 132 524 134 133 525 115 133 526 132 133 527 135 134 528 136 134 529 134 134 530 136 135 531 116 135 532 134 135 533 137 136 534 138 136 535 136 136 536 138 137 537 117 137 538 136 137 539 141 138 540 138 138 541 139 138 542 138 139 543 119 139 544 118 139 545 143 140 546 140 140 547 141 140 548 140 141 549 112 141 550 119 141 551 128 142 552 142 142 553 143 142 554 142 143 555 113 143 556 112 143 557 117 144 558 148 144 559 116 144 560 119 145 561 150 145 562 118 145 563 114 146 564 145 146 565 113 146 566 116 147 567 147 147 568 115 147 569 118 148 570 149 148 571 117 148 572 126 149 573 127 149 574 159 149 575 121 150 576 122 150 577 154 150 578 123 151 579 124 151 580 156 151 581 126 152 582 158 152 583 157 152 584 127 153 585 120 153 586 152 153 587 126 154 588 131 154 589 128 154 590 126 155 591 125 155 592 133 155 593 125 156 594 124 156 595 135 156 596 124 157 597 123 157 598 137 157 599 123 158 600 122 158 601 139 158 602 121 159 603 141 159 604 139 159 605 120 160 606 143 160 607 141 160 608 127 161 609 128 161 610 143 161 611 131 162 612 130 162 613 129 162 614 129 163 615 130 163 616 114 163 617 131 164 618 133 164 619 132 164 620 132 165 621 115 165 622 114 165 623 133 166 624 135 166 625 134 166 626 134 167 627 116 167 628 115 167 629 135 168 630 137 168 631 136 168 632 136 169 633 117 169 634 116 169 635 137 170 636 139 170 637 138 170 638 138 171 639 118 171 640 117 171 641 141 172 642 140 172 643 138 172 644 138 173 645 140 173 646 119 173 647 143 174 648 142 174 649 140 174 650 140 175 651 142 175 652 112 175 653 128 176 654 129 176 655 142 176 656 142 177 657 129 177 658 113 177 659 113 178 660 144 178 661 112 178 662 112 179 663 151 179 664 119 179 665 122 180 666 123 180 667 155 180 668 120 181 669 121 181 670 153 181 671 163 182 672 194 182 673 162 182 674 172 183 675 173 183 676 205 183 677 174 184 678 176 184 679 175 184 680 174 185 681 181 185 682 179 185 683 173 186 684 183 186 685 181 186 686 172 187 687 185 187 688 183 187 689 171 188 690 187 188 691 185 188 692 169 189 693 187 189 694 170 189 695 168 190 696 189 190 697 169 190 698 175 191 699 191 191 700 168 191 701 179 192 702 177 192 703 176 192 704 177 193 705 162 193 706 161 193 707 179 194 708 180 194 709 178 194 710 180 195 711 162 195 712 178 195 713 181 196 714 182 196 715 180 196 716 182 197 717 163 197 718 180 197 719 183 198 720 184 198 721 182 198 722 184 199 723 164 199 724 182 199 725 185 200 726 186 200 727 184 200 728 186 201 729 165 201 730 184 201 731 189 202 732 186 202 733 187 202 734 186 203 735 167 203 736 166 203 737 191 204 738 188 204 739 189 204 740 188 205 741 160 205 742 167 205 743 176 206 744 190 206 745 191 206 746 190 207 747 161 207 748 160 207 749 165 208 750 196 208 751 164 208 752 167 209 753 198 209 754 166 209 755 162 210 756 193 210 757 161 210 758 164 211 759 195 211 760 163 211 761 166 212 762 197 212 763 165 212 764 174 213 765 175 213 766 207 213 767 169 214 768 170 214 769 202 214 770 171 215 771 172 215 772 204 215 773 174 216 774 206 216 775 205 216 776 175 217 777 168 217 778 200 217 779 174 218 780 179 218 781 176 218 782 174 219 783 173 219 784 181 219 785 173 220 786 172 220 787 183 220 788 172 221 789 171 221 790 185 221 791 171 222 792 170 222 793 187 222 794 169 223 795 189 223 796 187 223 797 168 224 798 191 224 799 189 224 800 175 225 801 176 225 802 191 225 803 179 226 804 178 226 805 177 226 806 177 227 807 178 227 808 162 227 809 179 228 810 181 228 811 180 228 812 180 229 813 163 229 814 162 229 815 181 230 816 183 230 817 182 230 818 182 231 819 164 231 820 163 231 821 183 232 822 185 232 823 184 232 824 184 233 825 165 233 826 164 233 827 185 234 828 187 234 829 186 234 830 186 235 831 166 235 832 165 235 833 189 236 834 188 236 835 186 236 836 186 237 837 188 237 838 167 237 839 191 238 840 190 238 841 188 238 842 188 239 843 190 239 844 160 239 845 176 240 846 177 240 847 190 240 848 190 241 849 177 241 850 161 241 851 161 242 852 192 242 853 160 242 854 160 243 855 199 243 856 167 243 857 170 244 858 171 244 859 203 244 860 168 245 861 169 245 862 201 245 863 115 246 864 147 246 865 146 246 866 124 247 867 157 247 868 156 247 869 117 248 870 149 248 871 148 248 872 119 249 873 151 249 874 150 249 875 114 250 876 146 250 877 145 250 878 116 251 879 148 251 880 147 251 881 118 252 882 150 252 883 149 252 884 126 253 885 159 253 886 158 253 887 121 254 888 154 254 889 153 254 890 123 255 891 156 255 892 155 255 893 126 256 894 157 256 895 125 256 896 127 257 897 152 257 898 159 257 899 113 258 900 145 258 901 144 258 902 112 259 903 144 259 904 151 259 905 122 260 906 155 260 907 154 260 908 120 261 909 153 261 910 152 261 911 163 262 912 195 262 913 194 262 914 172 263 915 205 263 916 204 263 917 165 208 918 197 208 919 196 208 920 167 264 921 199 264 922 198 264 923 162 265 924 194 265 925 193 265 926 164 211 927 196 211 928 195 211 929 166 266 930 198 266 931 197 266 932 174 267 933 207 267 934 206 267 935 169 268 936 202 268 937 201 268 938 171 269 939 204 269 940 203 269 941 174 270 942 205 270 943 173 270 944 175 271 945 200 271 946 207 271 947 161 272 948 193 272 949 192 272 950 160 273 951 192 273 952 199 273 953 170 274 954 203 274 955 202 274 956 168 275 957 201 275 958 200 275 959 211 276 960 210 276 961 242 276 962 220 119 963 253 119 964 221 119 965 222 277 966 223 277 967 224 277 968 222 278 969 227 278 970 229 278 971 221 279 972 229 279 973 231 279 974 220 280 975 231 280 976 233 280 977 219 281 978 233 281 979 235 281 980 217 282 981 218 282 982 235 282 983 216 283 984 217 283 985 237 283 986 223 284 987 216 284 988 239 284 989 227 285 990 224 285 991 225 285 992 225 286 993 209 286 994 210 286 995 227 287 996 226 287 997 228 287 998 228 288 999 226 288 1000 210 288 1001 229 289 1002 228 289 1003 230 289 1004 230 290 1005 228 290 1006 211 290 1007 231 291 1008 230 291 1009 232 291 1010 232 292 1011 230 292 1012 212 292 1013 233 293 1014 232 293 1015 234 293 1016 234 294 1017 232 294 1018 213 294 1019 237 295 1020 235 295 1021 234 295 1022 234 296 1023 214 296 1024 215 296 1025 239 297 1026 237 297 1027 236 297 1028 236 298 1029 215 298 1030 208 298 1031 224 299 1032 239 299 1033 238 299 1034 238 300 1035 208 300 1036 209 300 1037 213 301 1038 212 301 1039 244 301 1040 215 302 1041 214 302 1042 246 302 1043 210 303 1044 209 303 1045 241 303 1046 212 304 1047 211 304 1048 243 304 1049 214 305 1050 213 305 1051 245 305 1052 222 149 1053 255 149 1054 223 149 1055 217 150 1056 250 150 1057 218 150 1058 219 151 1059 252 151 1060 220 151 1061 222 152 1062 253 152 1063 254 152 1064 223 153 1065 248 153 1066 216 153 1067 222 306 1068 224 306 1069 227 306 1070 222 307 1071 229 307 1072 221 307 1073 221 308 1074 231 308 1075 220 308 1076 220 309 1077 233 309 1078 219 309 1079 219 310 1080 235 310 1081 218 310 1082 217 311 1083 235 311 1084 237 311 1085 216 312 1086 237 312 1087 239 312 1088 223 313 1089 239 313 1090 224 313 1091 227 314 1092 225 314 1093 226 314 1094 225 315 1095 210 315 1096 226 315 1097 227 316 1098 228 316 1099 229 316 1100 228 317 1101 210 317 1102 211 317 1103 229 318 1104 230 318 1105 231 318 1106 230 319 1107 211 319 1108 212 319 1109 231 320 1110 232 320 1111 233 320 1112 232 321 1113 212 321 1114 213 321 1115 233 322 1116 234 322 1117 235 322 1118 234 323 1119 213 323 1120 214 323 1121 237 324 1122 234 324 1123 236 324 1124 234 325 1125 215 325 1126 236 325 1127 239 326 1128 236 326 1129 238 326 1130 236 327 1131 208 327 1132 238 327 1133 224 328 1134 238 328 1135 225 328 1136 238 329 1137 209 329 1138 225 329 1139 209 330 1140 208 330 1141 240 330 1142 208 331 1143 215 331 1144 247 331 1145 218 180 1146 251 180 1147 219 180 1148 216 181 1149 249 181 1150 217 181 1151 259 332 1152 258 332 1153 290 332 1154 268 183 1155 301 183 1156 269 183 1157 270 333 1158 271 333 1159 272 333 1160 270 334 1161 275 334 1162 277 334 1163 269 335 1164 277 335 1165 279 335 1166 268 336 1167 279 336 1168 281 336 1169 267 337 1170 281 337 1171 283 337 1172 265 338 1173 266 338 1174 283 338 1175 264 339 1176 265 339 1177 285 339 1178 271 340 1179 264 340 1180 287 340 1181 275 341 1182 272 341 1183 273 341 1184 273 342 1185 257 342 1186 258 342 1187 275 343 1188 274 343 1189 276 343 1190 276 344 1191 274 344 1192 258 344 1193 277 345 1194 276 345 1195 278 345 1196 278 346 1197 276 346 1198 259 346 1199 279 347 1200 278 347 1201 280 347 1202 280 348 1203 278 348 1204 260 348 1205 281 349 1206 280 349 1207 282 349 1208 282 350 1209 280 350 1210 261 350 1211 285 351 1212 283 351 1213 282 351 1214 282 352 1215 262 352 1216 263 352 1217 287 353 1218 285 353 1219 284 353 1220 284 354 1221 263 354 1222 256 354 1223 272 355 1224 287 355 1225 286 355 1226 286 356 1227 256 356 1228 257 356 1229 261 357 1230 260 357 1231 292 357 1232 263 358 1233 262 358 1234 294 358 1235 258 359 1236 257 359 1237 289 359 1238 260 360 1239 259 360 1240 291 360 1241 262 361 1242 261 361 1243 293 361 1244 270 213 1245 303 213 1246 271 213 1247 265 214 1248 298 214 1249 266 214 1250 267 215 1251 300 215 1252 268 215 1253 270 216 1254 301 216 1255 302 216 1256 271 217 1257 296 217 1258 264 217 1259 270 362 1260 272 362 1261 275 362 1262 270 363 1263 277 363 1264 269 363 1265 269 364 1266 279 364 1267 268 364 1268 268 365 1269 281 365 1270 267 365 1271 267 366 1272 283 366 1273 266 366 1274 265 367 1275 283 367 1276 285 367 1277 264 368 1278 285 368 1279 287 368 1280 271 369 1281 287 369 1282 272 369 1283 275 370 1284 273 370 1285 274 370 1286 273 371 1287 258 371 1288 274 371 1289 275 372 1290 276 372 1291 277 372 1292 276 373 1293 258 373 1294 259 373 1295 277 374 1296 278 374 1297 279 374 1298 278 375 1299 259 375 1300 260 375 1301 279 376 1302 280 376 1303 281 376 1304 280 377 1305 260 377 1306 261 377 1307 281 378 1308 282 378 1309 283 378 1310 282 379 1311 261 379 1312 262 379 1313 285 380 1314 282 380 1315 284 380 1316 282 381 1317 263 381 1318 284 381 1319 287 382 1320 284 382 1321 286 382 1322 284 383 1323 256 383 1324 286 383 1325 272 384 1326 286 384 1327 273 384 1328 286 385 1329 257 385 1330 273 385 1331 257 386 1332 256 386 1333 288 386 1334 256 387 1335 263 387 1336 295 387 1337 266 244 1338 299 244 1339 267 244 1340 264 245 1341 297 245 1342 265 245 1343 211 388 1344 242 388 1345 243 388 1346 220 247 1347 252 247 1348 253 247 1349 213 389 1350 244 389 1351 245 389 1352 215 390 1353 246 390 1354 247 390 1355 210 391 1356 241 391 1357 242 391 1358 212 392 1359 243 392 1360 244 392 1361 214 393 1362 245 393 1363 246 393 1364 222 253 1365 254 253 1366 255 253 1367 217 254 1368 249 254 1369 250 254 1370 219 255 1371 251 255 1372 252 255 1373 222 256 1374 221 256 1375 253 256 1376 223 257 1377 255 257 1378 248 257 1379 209 394 1380 240 394 1381 241 394 1382 208 395 1383 247 395 1384 240 395 1385 218 260 1386 250 260 1387 251 260 1388 216 261 1389 248 261 1390 249 261 1391 259 396 1392 290 396 1393 291 396 1394 268 263 1395 300 263 1396 301 263 1397 261 357 1398 292 357 1399 293 357 1400 263 397 1401 294 397 1402 295 397 1403 258 398 1404 289 398 1405 290 398 1406 260 360 1407 291 360 1408 292 360 1409 262 399 1410 293 399 1411 294 399 1412 270 267 1413 302 267 1414 303 267 1415 265 268 1416 297 268 1417 298 268 1418 267 269 1419 299 269 1420 300 269 1421 270 270 1422 269 270 1423 301 270 1424 271 271 1425 303 271 1426 296 271 1427 257 400 1428 288 400 1429 289 400 1430 256 401 1431 295 401 1432 288 401 1433 266 274 1434 298 274 1435 299 274 1436 264 275 1437 296 275 1438 297 275 1439</p>
        </triangles>
      </mesh>
    </geometry>
  </library_geometries>
  <library_visual_scenes>
    <visual_scene id="Scene" name="Scene">
      <node id="storehouse" name="storehouse" type="NODE">
        <matrix sid="transform">1 0 0 0 0 1 0 0 0 0 1 0 0 0 0 1</matrix>
        <instance_geometry url="#Cubo_002-mesh" name="storehouse">
          <bind_material>
            <technique_common>
              <instance_material symbol="Material_001-material" target="#Material_001-material">
                <bind_vertex_input semantic="Cubo_007-mesh-map-0" input_semantic="TEXCOORD" input_set="0"/>
                <bind_vertex_input semantic="Cubo_007-mesh-map-1" input_semantic="TEXCOORD" input_set="1"/>
              </instance_material>
            </technique_common>
          </bind_material>
        </instance_geometry>
      </node>
    </visual_scene>
  </library_visual_scenes>
  <scene>
    <instance_visual_scene url="#Scene"/>
  </scene>
</COLLADA>