<?xml version="1.0" encoding="utf-8"?>
<COLLADA xmlns="http://www.collada.org/2005/11/COLLADASchema" version="1.4.1" xmlns:xsi="http://www.w3.org/2001/XMLSchema-instance">
  <asset>
    <contributor>
      <author>Blender User</author>
      <authoring_tool>Blender 4.3.1 commit date:2024-12-10, commit time:07:46, hash:33d812126174</authoring_tool>
    </contributor>
    <created>2026-09-28T18:42:29</created>
    <modified>2026-09-28T18:42:29</modified>
    <unit name="meter" meter="1"/>
    <up_axis>Z_UP</up_axis>
  </asset>
  <library_effects>
    <effect id="Material_001-effect">
      <profile_COMMON>
        <newparam sid="b-surface">
          <surface type="2D">
            <init_from>b</init_from>
          </surface>
        </newparam>
        <newparam sid="b-sampler">
          <sampler2D>
            <source>b-surface</source>
          </sampler2D>
        </newparam>
        <technique sid="common">
          <lambert>
            <emission>
              <color sid="emission">0 0 0 1</color>
            </emission>
            <diffuse>
              <texture texture="b-sampler" texcoord="UVMap"/>
            </diffuse>
            <index_of_refraction>
              <float sid="ior">1.5</float>
            </index_of_refraction>
          </lambert>
        </technique>
      </profile_COMMON>
    </effect>
  </library_effects>
  <library_images>
    <image id="b" name="b">
      <init_from>/home/welton/Downloads/space_rocket_struct.png</init_from>
    </image>
  </library_images>
  <library_materials>
    <material id="Material_001-material" name="Material.001">
      <instance_effect url="#Material_001-effect"/>
    </material>
  </library_materials>
  <library_geometries>
    <geometry id="Cube_002-mesh" name="Cube.002">
      <mesh>
        <source id="Cube_002-mesh-positions">
          <float_array id="Cube_002-mesh-positions-array" count="264">-4.890173 -4.806538 -3.49631 -4.890173 4.806538 -3.49631 4.722902 -4.806538 -3.49631 4.722902 4.806538 -3.49631 -3.40833 -3.447674 12.04814 -3.40833 3.447674 12.04814 3.487017 3.447674 12.04814 3.487017 -3.447674 12.04814 -3.247058 -3.286401 11.91352 -3.247058 3.286401 11.91352 3.325744 -3.286401 11.91352 3.325744 3.286401 11.91352 1.816706 -1.906963 -3.496307 1.816706 1.906963 -3.496307 1.402436 1.367842 12.04814 1.402436 -1.367842 12.04814 1.241164 -1.303858 11.91352 1.241164 1.303858 11.91352 0.6993923 1.010242 26.03659 0.6993923 -1.010242 26.03659 1.496004 -1.906963 -3.496307 1.172401 -1.367842 12.04814 1.172401 1.367842 12.04814 1.496004 1.906963 -3.496307 1.011256 -1.303858 11.90584 0.4874868 -1.010242 26.02951 0.4874868 1.010242 26.02951 1.011256 1.303858 11.90584 -2.471922 -2.546335 25.63524 -2.471922 2.546335 25.63524 2.620747 2.546335 25.63524 2.620747 -2.546335 25.63524 -0.6345579 -1.213843 25.63524 -0.6345579 1.213843 25.63524 0.8287438 1.213843 25.63524 0.8287438 -1.213843 25.63524 -2.471922 -2.546334 25.63524 -2.471922 2.546334 25.63524 2.620747 2.546334 25.63524 2.620747 -2.546334 25.63524 -0.6345579 -1.213843 25.42321 -2.471922 -2.546334 25.42321 -2.471922 2.546334 25.42321 -0.6345579 1.213843 25.42321 2.620747 2.546334 25.42321 0.8287438 1.213843 25.42321 2.620747 -2.546334 25.42321 0.8287438 -1.213843 25.42321 -2.471922 -2.546334 25.63524 -2.471922 2.546334 25.63524 2.620747 2.546334 25.63524 2.620747 -2.546334 25.63524 -2.471922 -2.546334 27.41857 -2.471922 2.546334 27.41857 2.620747 2.546334 27.41857 2.620747 -2.546334 27.41857 2.451128 -2.376715 25.63524 2.451128 -2.376715 27.41857 2.451128 2.376715 27.41857 2.451128 2.376715 25.63524 -2.302303 2.376715 25.63524 -2.302303 2.376715 27.41857 -2.302303 -2.376715 27.41857 -2.302303 -2.376715 25.63524 0.7430678 -0.3744158 24.87534 0.7430678 0.3744158 24.87534 1.491899 -0.3744158 24.87534 1.491899 0.3744158 24.87534 0.9518113 -0.1656721 30.60011 0.9518113 0.1656721 30.60011 1.283156 0.1656721 30.60011 1.283156 -0.1656721 30.60011 4.31094 4.353583 1.685173 3.898978 3.900628 6.866657 3.898978 -3.900628 6.866656 4.31094 -4.353583 1.685173 -4.396226 -4.353583 1.685173 -3.902278 -3.900628 6.866657 -3.902278 3.900628 6.866656 -4.396226 4.353583 1.685173 3.090745 3.039712 16.48743 2.855746 2.793024 21.06133 2.855746 -2.793024 21.06133 3.090745 -3.039712 16.48743 -2.988679 -3.039712 16.48743 -2.730301 -2.793024 21.06133 -2.730301 2.793024 21.06133 -2.988679 3.039712 16.48743</float_array>
          <technique_common>
            <accessor source="#Cube_002-mesh-positions-array" count="88" stride="3">
              <param name="X" type="float"/>
              <param name="Y" type="float"/>
              <param name="Z" type="float"/>
            </accessor>
          </technique_common>
        </source>
        <source id="Cube_002-mesh-normals">
          <float_array id="Cube_002-mesh-normals-array" count="450">0 0 -1 0 0 1 0.9968544 0 0.07925641 0.9968544 0 0.07925641 0.9968544 0 0.07925641 -0.995487 0 0.09489917 -0.9954869 0 0.09489917 -0.995487 0 0.09489917 0 -0.9962009 0.08708584 0 -0.9962009 0.08708578 0 -0.9962009 0.08708578 0 0.9962009 0.08708584 0 0.9962009 0.08708578 0 0.9962008 0.08708596 0.9986828 0 0.05131047 0.9986827 0 0.05131047 0.9986827 0 0.05131047 -0.9984083 0 0.05639976 -0.9984083 0 0.0563997 -0.9984083 0 0.05639976 0 -0.9985488 0.05385571 0 -0.9985488 0.05385571 0 -0.9985488 0.05385571 0 0.9985488 0.05385571 0 0.9985488 0.05385565 0 0.9985488 0.05385571 0.9996451 0 0.02664119 0.9996451 0 0.02664119 0.9992651 0 0.03833252 -0.9997834 0 -0.0208134 -0.9997834 0 -0.0208134 -0.9993132 0 -0.03705906 -0.9993131 0 -0.037059 -0.9993131 0 -0.037059 -0.02383291 -0.7008209 0.7129391 0.02334123 -0.715246 -0.6984829 0.02340817 -0.7132835 -0.7004846 -0.02383303 0.7008174 0.7129425 -0.02389556 -0.698908 0.7148122 0 -0.7005572 0.7135962 0 -0.7239699 -0.6898316 0 -0.7130817 -0.7010811 0 0.7005521 0.7136012 0 -0.6900985 0.7237155 0.02334141 0.7152409 -0.6984881 -0.02389544 0.6989116 0.7148088 0.02340799 0.7132887 -0.7004794 0 0.7239646 -0.6898371 0 0.6901037 0.7237105 0 0.713087 -0.7010756 2.35918e-7 0 1 3.0171e-7 0 1 -5.32268e-7 0 -1 -1.64968e-7 0 -1 -7.97882e-7 0 -1 -2.36698e-7 0 1 -3.132e-7 0 1 5.43388e-7 0 -1 1.65501e-7 0 -1 0.7071013 0.7071124 0 -0.7071013 0.7071124 0 -0.7071124 0.7071013 0 -0.7071118 -0.7071018 0 -0.7071118 0.7071018 0 -0.7071078 0.7071058 0 0.7071118 0.7071018 0 0.7071118 -0.7071018 0 0.7071078 -0.7071058 0 0.7071124 -0.7071013 0 0.7071124 0.7071013 0 -0.7071124 -0.7071013 0 -0.7071013 -0.7071124 0 0.7071078 0.7071058 0 -0.7071078 -0.7071058 0 0.7071013 -0.7071124 0 0.7070881 0.7071255 0 0.7070881 -0.7071255 0 0.7071255 -0.7070881 0 -0.7070881 -0.7071255 0 -0.7070881 0.7071255 0 -0.7071255 0.7070881 0 -0.7071255 -0.7070881 0 0.7071255 0.7070881 0 -0.7070884 0.7071252 0 -0.7070884 -0.7071252 0 -0.7071252 0.7070884 0 0.7070884 -0.7071252 0 0.7070884 0.7071252 0 0.7071252 -0.7070884 0 0.7071252 0.7070884 0 -0.7071252 -0.7070884 0 -1.63184e-6 0 1 -1.65604e-6 0 1 0 0 1 3.80762e-6 0 -1 3.86409e-6 0 -1 1.6939e-7 0 -1 0.7061694 -0.7061676 0.05149841 -0.7061584 -0.7061787 0.05149841 -0.7061676 -0.7061694 0.05149841 -0.7061694 0.7061676 0.05149841 0.7061584 0.7061787 0.05149841 0.7061676 0.7061694 0.05149841 0.7061787 -0.7061584 0.05149841 -0.7061787 0.7061584 0.05149841 0 0.9962009 0.08708572 0 0.9962008 0.08708584 0 0.9962009 0.08708572 0 0.9962009 0.08708578 0 -0.9962009 0.08708572 0 -0.9962008 0.08708584 0 -0.9962008 0.08708596 0 -0.9962009 0.08708572 -0.9954869 0 0.09489911 -0.9954869 0 0.09489911 -0.995487 0 0.09489911 -0.9954869 0 0.09489911 0.9968544 0 0.07925635 0.9968543 0 0.07925641 0.9968544 0 0.07925635 0.9968544 0 0.07925641 0 0.9985488 0.05385559 0 0.9985488 0.05385565 0 0.9985488 0.05385571 0 0.9985488 0.05385565 0 -0.9985488 0.05385559 0 -0.9985488 0.05385559 0 -0.9985488 0.05385571 0 -0.9985488 0.05385559 -0.9984083 0 0.05639976 -0.9984083 0 0.05639976 -0.9984083 0 0.0563997 0.9986827 0 0.05131047 0.9986828 0 0.05131047 0.9986827 0 0.05131047 0.9968543 0 0.07925647 -0.995487 0 0.09489923 0 -0.9962009 0.0870859 0.9986827 0 0.05131053 0 -0.9985488 0.05385559 0.9996451 0 0.02664119 0.9992651 0 0.03833252 -0.9997835 0 -0.0208134 -4.95742e-7 0 1 4.8966e-7 0 1 8.22517e-7 0 -1 0 0.9962008 0.08708596 0 0.9985488 0.05385559 -0.9984083 0 0.05639976 0.9986827 0 0.05131047</float_array>
          <technique_common>
            <accessor source="#Cube_002-mesh-normals-array" count="150" stride="3">
              <param name="X" type="float"/>
              <param name="Y" type="float"/>
              <param name="Z" type="float"/>
            </accessor>
          </technique_common>
        </source>
        <source id="Cube_002-mesh-map-0">
          <float_array id="Cube_002-mesh-map-0-array" count="924">0.7140023 0.5697888 0.6884184 0.6329829 0.7140023 0.6329829 0.9954442 0.4508275 0.9712922 0.3999987 0.9954442 0.3999987 0.7141016 0.570075 0.6902509 0.6331604 0.6887798 0.570075 0.6887673 0.570075 0.7126433 0.6331604 0.7141143 0.570075 0.714089 0.570075 0.6903587 0.6331604 0.6887673 0.570075 0.7141016 0.570075 0.6903587 0.6331604 0.7127512 0.6331604 0.9950903 0.3983551 0.9708119 0.4509316 0.9950903 0.4509316 0.713734 0.5018908 0.6901674 0.5756611 0.6890843 0.5018907 0.6892084 0.5018908 0.7125267 0.5756611 0.7136098 0.5018907 0.7138581 0.5018908 0.6904672 0.5756611 0.6892084 0.5018908 0.713734 0.5018908 0.6904672 0.5756611 0.7128263 0.5756611 0.8827273 0.2145292 0.8617581 0.326122 0.8617581 0.2145292 0.8827273 0.2145292 0.8617581 0.326122 0.8617581 0.2145292 0.8617581 0.326122 0.8827273 0.2145292 0.8617581 0.2145292 0.8617581 0.326122 0.8827273 0.2145292 0.8617581 0.2145292 0.8617581 0.326122 0.8617581 0.2145292 0.8617581 0.2145292 0.8827273 0.326122 0.8617581 0.326122 0.8617581 0.326122 0.8617581 0.326122 0.8617581 0.2145292 0.8617581 0.2145292 0.8827273 0.326122 0.8617581 0.326122 0.8617581 0.326122 0.8827273 0.326122 0.8827273 0.2145292 0.8827273 0.326122 0.8617581 0.2145292 0.8827273 0.2145292 0.8827273 0.2145292 0.8827273 0.326122 0.8827273 0.2145292 0.8827273 0.326122 0.8617581 0.2145292 0.8827273 0.2145292 0.8827273 0.2145292 0.9891248 0.4375283 0.9954442 0.4508275 0.9776116 0.4375283 0.9712922 0.4508275 0.9891248 0.4375283 0.9776116 0.4375283 0.9776116 0.413298 0.9712922 0.3999987 0.9891248 0.4132981 0.9712922 0.3999987 0.9891248 0.4132981 0.9954442 0.3999987 0.9954442 0.3999987 0.9954442 0.4508275 0.9954442 0.4508275 0.9891248 0.4132981 0.9776116 0.413298 0.9776116 0.413298 0.9776116 0.4375283 0.9891248 0.4375283 0.9891248 0.4375283 0.9712922 0.3999987 0.9954442 0.3999987 0.9954442 0.3999987 0.9954442 0.4508275 0.9712922 0.4508275 0.9712922 0.4508275 0.9776116 0.413298 0.9776116 0.4375283 0.9776116 0.4375283 0.9891248 0.4375283 0.9891248 0.4132981 0.9891248 0.4132981 0.9712922 0.4508275 0.9712922 0.3999987 0.9712922 0.3999987 0.9263201 0.4283249 0.8871678 0.4574765 0.8871678 0.4283249 0.8871678 0.4283249 0.9263201 0.4574765 0.9263201 0.4283249 0.9263201 0.4283249 0.8871678 0.4574765 0.8871678 0.4283249 0.8871678 0.4283249 0.9263201 0.4574765 0.9263201 0.4283249 0.8871678 0.4574765 0.9263201 0.4283249 0.8871678 0.4283249 0.9263201 0.4574765 0.8871678 0.4283249 0.9263201 0.4283249 0.8871678 0.4574765 0.9263201 0.4283249 0.8871678 0.4283249 0.9263201 0.4574765 0.8871678 0.4283249 0.9263201 0.4283249 0.8399614 0.1418245 0.8136672 0.1436364 0.8127613 0.1418245 0.8399614 0.1962248 0.8127613 0.1962248 0.8390555 0.194413 0.8871678 0.4283249 0.9263201 0.4283249 0.9263201 0.4283249 0.9263201 0.4283249 0.9263201 0.4283249 0.8871678 0.4283249 0.9078728 0.3511265 0.9041855 0.358501 0.9078728 0.358501 0.9052134 0.3564453 0.906845 0.3531822 0.906845 0.3564453 0.9078728 0.2599688 0.9052134 0.4496588 0.9041855 0.2599688 0.9041855 0.2599688 0.906845 0.4496588 0.9078728 0.2599688 0.9078728 0.2599688 0.9052134 0.4496588 0.9041855 0.2599688 0.9041855 0.2599688 0.906845 0.4496588 0.9078728 0.2599688 0.7148607 0.50236 0.6889416 0.5703074 0.7137593 0.5703076 0.7150128 0.5374143 0.6892187 0.6020723 0.7136586 0.6020724 0.7148607 0.50236 0.6890109 0.5703074 0.6875377 0.50236 0.7149364 0.5374143 0.689231 0.6020724 0.6877484 0.5374143 0.687793 0.50236 0.7138285 0.5703074 0.715116 0.50236 0.6877484 0.5374143 0.7136709 0.6020724 0.7150891 0.5374143 0.715116 0.50236 0.6890802 0.5703074 0.687793 0.50236 0.7150128 0.5374143 0.6892432 0.6020724 0.6878247 0.5374143 0.7135182 0.5030317 0.690406 0.5768019 0.7125759 0.5768018 0.7135831 0.502309 0.6904375 0.5760793 0.7126217 0.5760794 0.7135182 0.5030317 0.6903238 0.5768018 0.6894602 0.5030317 0.7136725 0.5023091 0.6903246 0.5760794 0.6893166 0.502309 0.7133967 0.5030317 0.6903238 0.5768018 0.7124937 0.5768018 0.6893166 0.502309 0.7125088 0.5760792 0.7134934 0.502309 0.6893387 0.5030317 0.7125759 0.5768018 0.6902417 0.5768018 0.7135831 0.502309 0.6902117 0.5760792 0.6892271 0.502309 0.7140023 0.5697888 0.6884184 0.5697888 0.6884184 0.6329829 0.9954442 0.4508275 0.9712922 0.4508275 0.9712922 0.3999987 0.7141016 0.570075 0.7126433 0.6331604 0.6902509 0.6331604 0.6887673 0.570075 0.6902509 0.6331604 0.7126433 0.6331604 0.714089 0.570075 0.7127512 0.6331604 0.6903587 0.6331604 0.7141016 0.570075 0.6887545 0.570075 0.6903587 0.6331604 0.9950903 0.3983551 0.9708119 0.3983551 0.9708119 0.4509316 0.713734 0.5018908 0.7125267 0.5756611 0.6901674 0.5756611 0.6892084 0.5018908 0.6901674 0.5756611 0.7125267 0.5756611 0.7138581 0.5018908 0.7128263 0.5756611 0.6904672 0.5756611 0.713734 0.5018908 0.6893327 0.5018908 0.6904672 0.5756611 0.8827273 0.2145292 0.8827273 0.326122 0.8617581 0.326122 0.8827273 0.2145292 0.8827273 0.326122 0.8617581 0.326122 0.8617581 0.326122 0.8827273 0.326122 0.8827273 0.2145292 0.8617581 0.326122 0.8827273 0.326122 0.8827273 0.2145292 0.8617581 0.326122 0.8617581 0.326122 0.8617581 0.2145292 0.8827273 0.326122 0.8827273 0.326122 0.8617581 0.326122 0.8617581 0.326122 0.8617581 0.326122 0.8617581 0.2145292 0.8827273 0.326122 0.8827273 0.326122 0.8617581 0.326122 0.8827273 0.326122 0.8827273 0.2145292 0.8827273 0.2145292 0.8617581 0.2145292 0.8617581 0.2145292 0.8827273 0.2145292 0.8827273 0.326122 0.8827273 0.2145292 0.8827273 0.2145292 0.8617581 0.2145292 0.8617581 0.2145292 0.8827273 0.2145292 0.9891248 0.4375283 0.9891248 0.4132981 0.9954442 0.3999987 0.9954442 0.4508275 0.9712922 0.4508275 0.9776116 0.4375283 0.9891248 0.4375283 0.9954442 0.3999987 0.9954442 0.4508275 0.9712922 0.4508275 0.9954442 0.4508275 0.9891248 0.4375283 0.9776116 0.413298 0.9776116 0.4375283 0.9712922 0.3999987 0.9776116 0.4375283 0.9712922 0.4508275 0.9712922 0.3999987 0.9712922 0.3999987 0.9954442 0.3999987 0.9891248 0.4132981 0.9712922 0.3999987 0.9712922 0.4508275 0.9776116 0.4375283 0.9712922 0.3999987 0.9776116 0.4375283 0.9776116 0.413298 0.9891248 0.4375283 0.9954442 0.4508275 0.9954442 0.3999987 0.9712922 0.3999987 0.9776116 0.413298 0.9891248 0.4132981 0.9891248 0.4132981 0.9891248 0.4375283 0.9954442 0.3999987 0.9954442 0.3999987 0.9954442 0.3999987 0.9954442 0.4508275 0.9891248 0.4132981 0.9891248 0.4132981 0.9776116 0.413298 0.9776116 0.4375283 0.9776116 0.4375283 0.9891248 0.4375283 0.9712922 0.3999987 0.9712922 0.3999987 0.9954442 0.3999987 0.9954442 0.4508275 0.9954442 0.4508275 0.9712922 0.4508275 0.9776116 0.413298 0.9776116 0.413298 0.9776116 0.4375283 0.9891248 0.4375283 0.9891248 0.4375283 0.9891248 0.4132981 0.9712922 0.4508275 0.9712922 0.4508275 0.9712922 0.3999987 0.9263201 0.4283249 0.9263201 0.4574765 0.8871678 0.4574765 0.8871678 0.4283249 0.8871678 0.4574765 0.9263201 0.4574765 0.9263201 0.4283249 0.9263201 0.4574765 0.8871678 0.4574765 0.8871678 0.4283249 0.8871678 0.4574765 0.9263201 0.4574765 0.8871678 0.4574765 0.9263201 0.4574765 0.9263201 0.4283249 0.9263201 0.4574765 0.8871678 0.4574765 0.8871678 0.4283249 0.8871678 0.4574765 0.9263201 0.4574765 0.9263201 0.4283249 0.9263201 0.4574765 0.8871678 0.4574765 0.8871678 0.4283249 0.8399614 0.1418245 0.8390555 0.1436364 0.8136672 0.1436364 0.8390555 0.1436364 0.8399614 0.1418245 0.8399614 0.1962248 0.8127613 0.1962248 0.8127613 0.1418245 0.8136672 0.1436364 0.8127613 0.1962248 0.8136672 0.1436364 0.8136672 0.194413 0.8390555 0.194413 0.8390555 0.1436364 0.8399614 0.1962248 0.8127613 0.1962248 0.8136672 0.194413 0.8390555 0.194413 0.8871678 0.4283249 0.8871678 0.4283249 0.9263201 0.4283249 0.9263201 0.4283249 0.8871678 0.4283249 0.8871678 0.4283249 0.9263201 0.4283249 0.8871678 0.4283249 0.9263201 0.4283249 0.8871678 0.4283249 0.8871678 0.4283249 0.8871678 0.4283249 0.9263201 0.4283249 0.9263201 0.4283249 0.9263201 0.4283249 0.9263201 0.4283249 0.8871678 0.4283249 0.8871678 0.4283249 0.9078728 0.3511265 0.9041855 0.3511265 0.9041855 0.358501 0.9052134 0.3564453 0.9052134 0.3531822 0.906845 0.3531822 0.9078728 0.2599688 0.906845 0.4496588 0.9052134 0.4496588 0.9041855 0.2599688 0.9052134 0.4496588 0.906845 0.4496588 0.9078728 0.2599688 0.906845 0.4496588 0.9052134 0.4496588 0.9041855 0.2599688 0.9052134 0.4496588 0.906845 0.4496588 0.7148607 0.50236 0.6875377 0.50236 0.6889416 0.5703074 0.7150128 0.5374143 0.687672 0.5374143 0.6892187 0.6020723 0.7148607 0.50236 0.7136899 0.5703076 0.6890109 0.5703074 0.7149364 0.5374143 0.7136465 0.6020723 0.689231 0.6020724 0.687793 0.50236 0.6890109 0.5703074 0.7138285 0.5703074 0.6877484 0.5374143 0.689231 0.6020724 0.7136709 0.6020724 0.715116 0.50236 0.7137593 0.5703076 0.6890802 0.5703074 0.7150128 0.5374143 0.7136586 0.6020724 0.6892432 0.6020724 0.7135182 0.5030317 0.6894602 0.5030317 0.690406 0.5768019 0.7135831 0.502309 0.6894063 0.5023091 0.6904375 0.5760793 0.7135182 0.5030317 0.7126579 0.5768019 0.6903238 0.5768018 0.7136725 0.5023091 0.7127345 0.5760793 0.6903246 0.5760794 0.7133967 0.5030317 0.6893387 0.5030317 0.6903238 0.5768018 0.6893166 0.502309 0.6903246 0.5760794 0.7125088 0.5760792 0.6893387 0.5030317 0.7133967 0.5030317 0.7125759 0.5768018 0.7135831 0.502309 0.7126217 0.5760794 0.6902117 0.5760792</float_array>
          <technique_common>
            <accessor source="#Cube_002-mesh-map-0-array" count="462" stride="2">
              <param name="S" type="float"/>
              <param name="T" type="float"/>
            </accessor>
          </technique_common>
        </source>
        <vertices id="Cube_002-mesh-vertices">
          <input semantic="POSITION" source="#Cube_002-mesh-positions"/>
        </vertices>
        <triangles material="Material_001-material" count="154">
          <input semantic="VERTEX" source="#Cube_002-mesh-vertices" offset="0"/>
          <input semantic="NORMAL" source="#Cube_002-mesh-normals" offset="1"/>
          <input semantic="TEXCOORD" source="#Cube_002-mesh-map-0" offset="2" set="0"/>
          <p>2 0 0 1 0 1 3 0 2 5 1 3 7 1 4 6 1 5 73 2 6 7 3 7 74 4 8 77 5 9 5 6 10 78 7 11 74 8 12 4 9 13 77 10 14 73 11 15 5 12 16 6 13 17 10 0 18 9 0 19 11 0 20 81 14 21 31 15 22 82 16 23 85 17 24 29 18 25 86 19 26 82 20 27 28 21 28 85 22 29 81 23 30 29 24 31 30 25 32 13 26 33 15 27 34 12 26 35 17 28 36 19 28 37 16 28 38 21 29 39 23 30 40 20 30 41 25 31 42 27 32 43 24 33 44 19 34 45 24 35 46 16 36 47 18 37 48 25 38 49 19 34 50 15 39 51 20 40 52 12 41 53 14 42 54 21 43 55 15 39 56 18 37 57 27 44 58 26 45 59 16 36 60 27 44 61 17 46 62 14 42 63 23 47 64 22 48 65 12 41 66 23 47 67 13 49 68 33 1 69 37 50 70 32 51 71 41 52 72 43 53 73 40 54 74 35 1 75 39 55 76 34 56 77 46 57 78 45 58 79 44 0 80 38 59 81 42 60 82 37 61 83 34 62 84 47 63 85 35 64 86 32 65 87 43 66 88 33 67 89 39 68 90 44 69 91 38 59 92 37 61 93 41 70 94 36 71 95 35 64 96 40 72 97 32 65 98 33 67 99 45 73 100 34 62 101 36 71 102 46 74 103 39 68 104 50 75 105 55 76 106 51 77 107 48 78 108 53 79 109 49 80 110 51 77 111 52 81 112 48 78 113 49 80 114 54 82 115 50 75 116 57 83 117 59 84 118 56 85 119 61 86 120 63 87 121 60 88 122 62 89 123 56 85 124 63 87 125 58 90 126 60 88 127 59 84 128 55 1 129 62 91 130 52 92 131 54 1 132 53 93 133 58 1 134 48 0 135 56 94 136 51 95 137 50 96 138 60 0 139 49 0 140 66 0 141 65 0 142 67 0 143 69 1 144 71 1 145 70 1 146 66 97 147 68 98 148 64 99 149 65 100 150 70 101 151 67 102 152 67 102 153 71 103 154 66 97 155 64 99 156 69 104 157 65 100 158 3 105 159 79 106 160 72 107 161 72 107 162 78 108 163 73 11 164 2 109 165 76 110 166 0 111 167 75 112 168 77 10 169 76 110 170 0 113 171 79 114 172 1 115 173 76 116 174 78 7 175 79 114 176 3 117 177 75 118 178 2 119 179 72 120 180 74 4 181 75 118 182 11 121 183 87 122 184 80 123 185 80 123 186 86 124 187 81 23 188 10 125 189 84 126 190 8 127 191 83 128 192 85 22 193 84 126 194 9 129 195 84 130 196 87 131 197 84 130 198 86 19 199 87 131 200 10 132 201 80 133 202 83 134 203 80 133 204 82 16 205 83 134 206 2 0 207 0 0 208 1 0 209 5 1 210 4 1 211 7 1 212 73 2 213 6 135 214 7 3 215 77 5 216 4 136 217 5 6 218 74 8 219 7 137 220 4 9 221 73 11 222 78 108 223 5 12 224 10 0 225 8 0 226 9 0 227 81 14 228 30 138 229 31 15 230 85 17 231 28 18 232 29 18 233 82 20 234 31 139 235 28 21 236 81 23 237 86 124 238 29 24 239 13 26 240 14 140 241 15 27 242 17 28 243 18 141 244 19 28 245 21 29 246 22 142 247 23 30 248 25 31 249 26 31 250 27 32 251 19 34 252 25 38 253 24 35 254 18 37 255 26 45 256 25 38 257 15 39 258 21 43 259 20 40 260 14 42 261 22 48 262 21 43 263 18 37 264 17 46 265 27 44 266 16 36 267 24 35 268 27 44 269 14 42 270 13 49 271 23 47 272 12 41 273 20 40 274 23 47 275 33 1 276 34 56 277 38 143 278 37 50 279 36 144 280 32 51 281 33 1 282 38 143 283 37 50 284 41 52 285 42 0 286 43 53 287 35 1 288 32 51 289 39 55 290 32 51 291 36 144 292 39 55 293 39 55 294 38 143 295 34 56 296 46 57 297 41 52 298 40 54 299 46 57 300 40 54 301 47 145 302 43 53 303 42 0 304 44 0 305 46 57 306 47 145 307 45 58 308 45 58 309 43 53 310 44 0 311 38 59 312 44 69 313 42 60 314 34 62 315 45 73 316 47 63 317 32 65 318 40 72 319 43 66 320 39 68 321 46 74 322 44 69 323 37 61 324 42 60 325 41 70 326 35 64 327 47 63 328 40 72 329 33 67 330 43 66 331 45 73 332 36 71 333 41 70 334 46 74 335 50 75 336 54 82 337 55 76 338 48 78 339 52 81 340 53 79 341 51 77 342 55 76 343 52 81 344 49 80 345 53 79 346 54 82 347 57 83 348 58 90 349 59 84 350 61 86 351 62 89 352 63 87 353 62 89 354 57 83 355 56 85 356 58 90 357 61 86 358 60 88 359 55 1 360 57 1 361 62 91 362 57 1 363 55 1 364 54 1 365 53 93 366 52 92 367 62 91 368 53 93 369 62 91 370 61 1 371 58 1 372 57 1 373 54 1 374 53 93 375 61 1 376 58 1 377 48 0 378 63 0 379 56 94 380 50 96 381 51 95 382 56 94 383 50 96 384 56 94 385 59 0 386 63 0 387 48 0 388 49 0 389 50 96 390 59 0 391 60 0 392 60 0 393 63 0 394 49 0 395 66 0 396 64 0 397 65 0 398 69 1 399 68 1 400 71 1 401 66 97 402 71 103 403 68 98 404 65 100 405 69 104 406 70 101 407 67 102 408 70 101 409 71 103 410 64 99 411 68 98 412 69 104 413 3 105 414 1 146 415 79 106 416 72 107 417 79 106 418 78 108 419 2 109 420 75 112 421 76 110 422 75 112 423 74 8 424 77 10 425 0 113 426 76 116 427 79 114 428 76 116 429 77 5 430 78 7 431 3 117 432 72 120 433 75 118 434 72 120 435 73 2 436 74 4 437 11 121 438 9 147 439 87 122 440 80 123 441 87 122 442 86 124 443 10 125 444 83 128 445 84 126 446 83 128 447 82 20 448 85 22 449 9 129 450 8 148 451 84 130 452 84 130 453 85 17 454 86 19 455 10 132 456 11 149 457 80 133 458 80 133 459 81 14 460 82 16 461</p>
        </triangles>
      </mesh>
    </geometry>
  </library_geometries>
  <library_visual_scenes>
    <visual_scene id="Scene" name="Scene">
      <node id="radio_tower_01" name="radio_tower_01" type="NODE">
        <matrix sid="transform">0.7776552 0 0 0 0 0.7776552 0 0 0 0 1 0 0 0 0 1</matrix>
        <instance_geometry url="#Cube_002-mesh" name="radio_tower_01">
          <bind_material>
            <technique_common>
              <instance_material symbol="Material_001-material" target="#Material_001-material">
                <bind_vertex_input semantic="UVMap" input_semantic="TEXCOORD" input_set="0"/>
              </instance_material>
            </technique_common>
          </bind_material>
        </instance_geometry>
        <node id="prop_signal" name="prop_signal" type="NODE">
          <matrix sid="transform">1.285917 0 0 0 0 1.285917 0 0 0 0 1 26.23804 0 0 0 1</matrix>
        </node>
      </node>
    </visual_scene>
  </library_visual_scenes>
  <scene>
    <instance_visual_scene url="#Scene"/>
  </scene>
</COLLADA>