<?xml version="1.0" encoding="utf-8"?>
<COLLADA xmlns="http://www.collada.org/2005/11/COLLADASchema" version="1.4.1" xmlns:xsi="http://www.w3.org/2001/XMLSchema-instance">
  <asset>
    <contributor>
      <author>Blender User</author>
      <authoring_tool>Blender 4.3.1 commit date:2024-12-10, commit time:07:46, hash:33d812126174</authoring_tool>
    </contributor>
    <created>2026-09-24T23:34:01</created>
    <modified>2026-09-24T23:34:01</modified>
    <unit name="meter" meter="1"/>
    <up_axis>Z_UP</up_axis>
  </asset>
  <library_effects>
    <effect id="Material-effect">
      <profile_COMMON>
        <newparam sid="train_struct_png-surface">
          <surface type="2D">
            <init_from>train_struct_png</init_from>
          </surface>
        </newparam>
        <newparam sid="train_struct_png-sampler">
          <sampler2D>
            <source>train_struct_png-surface</source>
          </sampler2D>
        </newparam>
        <technique sid="common">
          <lambert>
            <emission>
              <color sid="emission">0 0 0 1</color>
            </emission>
            <diffuse>
              <texture texture="train_struct_png-sampler" texcoord="UVMap"/>
            </diffuse>
            <index_of_refraction>
              <float sid="ior">1.45</float>
            </index_of_refraction>
          </lambert>
        </technique>
      </profile_COMMON>
    </effect>
  </library_effects>
  <library_images>
    <image id="train_struct_png" name="train_struct_png">
      <init_from>/home/welton/snap/0ad/743/.local/share/0ad/mods/mars_wars/art/textures/skins/structural/train_struct.png</init_from>
    </image>
  </library_images>
  <library_materials>
    <material id="Material-material" name="Material">
      <instance_effect url="#Material-effect"/>
    </material>
  </library_materials>
  <library_geometries>
    <geometry id="Cylinder-mesh" name="Cylinder">
      <mesh>
        <source id="Cylinder-mesh-positions">
          <float_array id="Cylinder-mesh-positions-array" count="864">0 4.902265 11.22015 0 -4.902265 11.22015 0.9295836 -4.902265 11.09776 0.9295836 4.902265 11.09776 1.795817 -4.902265 10.73896 1.795817 4.902265 10.73896 2.539669 -4.902265 10.16818 2.539669 4.902265 10.16818 3.110447 -4.902265 9.424329 3.110447 4.902265 9.42433 3.469253 -4.902265 8.558095 3.469253 4.902265 8.558096 3.591635 -4.902265 7.628512 3.591635 4.902265 7.628512 3.469253 -4.902265 6.698928 3.469253 4.902265 6.698929 3.110447 -4.902265 5.832694 3.110447 4.902265 5.832695 2.539669 -4.902265 5.088842 2.539669 4.902265 5.088843 1.795817 -4.902265 4.518064 1.795817 4.902265 4.518065 0.9295836 -4.902265 4.159259 0.9295836 4.902265 4.159259 0 -4.902265 4.036877 0 4.902265 4.036877 -0.9295836 -4.902265 4.159259 -0.9295836 4.902265 4.159259 -1.795817 -4.902265 4.518064 -1.795817 4.902265 4.518065 -2.539669 -4.902265 5.088842 -2.539669 4.902265 5.088843 -3.110447 -4.902265 5.832694 -3.110447 4.902265 5.832695 -3.469253 -4.902265 6.698928 -3.469253 4.902265 6.698929 -3.591635 -4.902265 7.628512 -3.591635 4.902265 7.628512 -3.469253 -4.902265 8.558095 -3.469253 4.902265 8.558096 -3.110447 -4.902265 9.424329 -3.110447 4.902265 9.42433 -2.539669 -4.902265 10.16818 -2.539669 4.902265 10.16818 -1.795817 -4.902265 10.73896 -1.795817 4.902265 10.73896 -0.9295836 -4.902265 11.09776 -0.9295836 4.902265 11.09776 0 13.61329 9.982926 0 12.50568 10.98705 0 -13.61329 9.982926 0 -12.50568 10.98705 0.6505531 13.61329 9.902702 0.869254 12.50568 10.87261 0.6505531 -13.61329 9.902701 0.869254 -12.50568 10.87261 1.256772 13.61329 9.667494 1.67927 12.50568 10.53709 1.256772 -13.61329 9.667494 1.67927 -12.50568 10.53709 1.777344 13.61329 9.293334 2.374846 12.50568 10.00336 1.777344 -13.61329 9.293334 2.374846 -12.50568 10.00336 2.176793 13.61329 8.80572 2.90858 12.50568 9.307783 2.176793 -13.61329 8.805719 2.90858 -12.50568 9.307782 2.427896 13.61329 8.23788 3.2441 12.50568 8.497767 2.427896 -13.61329 8.237879 3.2441 -12.50568 8.497766 2.513544 13.61329 7.628512 3.358539 12.50568 7.628512 2.513544 -13.61329 7.628511 3.358539 -12.50568 7.628511 2.427896 13.61329 7.019145 3.2441 12.50568 6.759258 2.427896 -13.61329 7.019145 3.2441 -12.50568 6.759257 2.176793 13.61329 6.451306 2.90858 12.50568 5.949243 2.176793 -13.61329 6.451305 2.90858 -12.50568 5.949242 1.777344 13.61329 5.963691 2.374846 12.50568 5.253666 1.777344 -13.61329 5.96369 2.374846 -12.50568 5.253665 1.256772 13.61329 5.58953 1.67927 12.50568 4.719932 1.256772 -13.61329 5.58953 1.67927 -12.50568 4.719931 0.6505531 13.61329 5.354323 0.869254 12.50568 4.384412 0.6505531 -13.61329 5.354323 0.869254 -12.50568 4.384411 0 13.61329 5.274098 0 12.50568 4.269973 0 -13.61329 5.274098 0 -12.50568 4.269972 -0.6505531 13.61329 5.354323 -0.869254 12.50568 4.384412 -0.6505531 -13.61329 5.354323 -0.869254 -12.50568 4.384411 -1.256772 13.61329 5.58953 -1.67927 12.50568 4.719932 -1.256772 -13.61329 5.58953 -1.67927 -12.50568 4.719931 -1.777344 13.61329 5.963691 -2.374846 12.50568 5.253666 -1.777344 -13.61329 5.96369 -2.374846 -12.50568 5.253665 -2.176793 13.61329 6.451306 -2.90858 12.50568 5.949243 -2.176793 -13.61329 6.451305 -2.90858 -12.50568 5.949242 -2.427896 13.61329 7.019145 -3.2441 12.50568 6.759258 -2.427896 -13.61329 7.019145 -3.2441 -12.50568 6.759257 -2.513544 13.61329 7.628512 -3.358539 12.50568 7.628512 -2.513544 -13.61329 7.628511 -3.358539 -12.50568 7.628511 -2.427896 13.61329 8.23788 -3.2441 12.50568 8.497767 -2.427896 -13.61329 8.237879 -3.2441 -12.50568 8.497766 -2.176793 13.61329 8.80572 -2.90858 12.50568 9.307783 -2.176793 -13.61329 8.805719 -2.90858 -12.50568 9.307782 -1.777344 13.61329 9.293334 -2.374846 12.50568 10.00336 -1.777344 -13.61329 9.293334 -2.374846 -12.50568 10.00336 -1.256772 13.61329 9.667494 -1.67927 12.50568 10.53709 -1.256772 -13.61329 9.667494 -1.67927 -12.50568 10.53709 -0.6505531 13.61329 9.902702 -0.869254 12.50568 10.87261 -0.6505531 -13.61329 9.902701 -0.869254 -12.50568 10.87261 2.176793 13.61329 6.772007 2.90858 12.50568 6.175194 2.176793 -13.61329 6.772006 2.90858 -12.50568 6.175193 1.777344 13.61329 6.192369 2.374846 12.50568 5.348348 1.777344 -13.61329 6.192368 2.374846 -12.50568 5.348347 1.256772 13.61329 5.747597 1.67927 12.50568 4.713887 1.256772 -13.61329 5.747596 1.67927 -12.50568 4.713886 -1.256772 13.61329 5.747597 -1.67927 12.50568 4.713887 -1.256772 -13.61329 5.747596 -1.67927 -12.50568 4.713886 -1.777344 13.61329 6.192369 -2.374846 12.50568 5.348348 -1.777344 -13.61329 6.192368 -2.374846 -12.50568 5.348347 -2.176793 13.61329 6.772007 -2.90858 12.50568 6.175194 -2.176793 -13.61329 6.772006 -2.90858 -12.50568 6.175193 2.90858 12.50568 3.679018 2.176793 13.61329 3.679018 2.176793 -13.61329 3.679018 2.90858 -12.50568 3.679018 2.374846 12.50568 3.679018 1.777344 13.61329 3.679018 1.777344 -13.61329 3.679018 2.374846 -12.50568 3.679018 1.67927 12.50568 3.679018 1.256772 13.61329 3.679018 1.256772 -13.61329 3.679018 1.67927 -12.50568 3.679018 -1.67927 12.50568 3.679018 -1.256772 13.61329 3.679018 -1.256772 -13.61329 3.679018 -1.67927 -12.50568 3.679018 -2.374846 12.50568 3.679018 -1.777344 13.61329 3.679018 -1.777344 -13.61329 3.679018 -2.374846 -12.50568 3.679018 -2.90858 12.50568 3.679018 -2.176793 13.61329 3.679018 -2.176793 -13.61329 3.679018 -2.90858 -12.50568 3.679018 0 -13.61329 8.426609 0.2205236 -13.61329 8.399415 0.426019 -13.61329 8.319684 0.6024819 -13.61329 8.192852 0.7378864 -13.61329 8.027561 0.8230054 -13.61329 7.835074 0.8520379 -13.61329 7.628512 0.8230054 -13.61329 7.421949 0.7378864 -13.61329 7.229464 0.6024819 -13.61329 7.064173 0.426019 -13.61329 6.93734 0.2205237 -13.61329 6.85761 0 -13.61329 6.830416 -0.2205236 -13.61329 6.85761 -0.426019 -13.61329 6.93734 -0.6024819 -13.61329 7.064173 -0.7378864 -13.61329 7.229464 -0.8230054 -13.61329 7.421949 -0.8520379 -13.61329 7.628512 -0.8230054 -13.61329 7.835074 -0.7378864 -13.61329 8.027561 -0.6024819 -13.61329 8.192852 -0.426019 -13.61329 8.319684 -0.2205237 -13.61329 8.399415 0 -13.80862 7.928243 0.08281922 -13.80862 7.918029 0.1599945 -13.80862 7.888086 0.2262665 -13.80862 7.840453 0.2771187 -13.80862 7.778377 0.3090857 -13.80862 7.706088 0.3199891 -13.80862 7.628511 0.3090857 -13.80862 7.550935 0.2771187 -13.80862 7.478646 0.2262665 -13.80862 7.41657 0.1599945 -13.80862 7.368937 0.08281928 -13.80862 7.338994 0 -13.80862 7.328781 -0.08281928 -13.80862 7.338994 -0.1599946 -13.80862 7.368937 -0.2262665 -13.80862 7.41657 -0.2771187 -13.80862 7.478646 -0.3090857 -13.80862 7.550935 -0.3199891 -13.80862 7.628511 -0.3090857 -13.80862 7.706088 -0.2771187 -13.80862 7.778377 -0.2262665 -13.80862 7.840453 -0.1599946 -13.80862 7.888086 -0.08281928 -13.80862 7.918029 5.3977e-7 -13.99976 7.912853 0.07856738 -13.99976 7.903164 0.1517801 -13.99976 7.874758 0.2146493 -13.99976 7.829571 0.2628905 -13.99976 7.770682 0.2932161 -13.99976 7.702105 0.3035597 -13.99976 7.628511 0.2932161 -13.99976 7.554919 0.2628905 -13.99976 7.486341 0.2146493 -13.99976 7.427452 0.1517801 -13.99976 7.382265 0.07856744 -13.99976 7.353859 5.3977e-7 -13.99976 7.344171 -0.07856637 -13.99976 7.353859 -0.1517791 -13.99976 7.382265 -0.2146482 -13.99976 7.427452 -0.2628893 -13.99976 7.486341 -0.293215 -13.99976 7.554919 -0.3035586 -13.99976 7.628511 -0.293215 -13.99976 7.702105 -0.2628893 -13.99976 7.770682 -0.2146482 -13.99976 7.829571 -0.1517791 -13.99976 7.874758 -0.07856637 -13.99976 7.903164 -0.8260048 0.9201207 11.24151 -0.8260048 -0.9201207 11.24151 0.8260048 -0.9201207 11.24151 0.8260048 0.9201207 11.24151 -0.8260048 0.9201208 10.53265 -0.8260048 -0.9201206 10.53265 0.8260048 -0.9201206 10.53265 0.8260048 0.9201208 10.53265 3.53863 -11.49362 5.859402 3.53863 -13.33387 5.859402 3.53863 -13.33387 4.207392 3.53863 -11.49362 4.207392 3.233268 -11.49362 5.859402 3.233268 -13.33387 5.859402 3.233268 -13.33387 4.207392 3.233268 -11.49362 4.207392 -0.8260048 7.920121 11.24151 -0.8260048 6.079879 11.24151 0.8260048 6.079879 11.24151 0.8260048 7.920121 11.24151 -0.8260048 7.920121 10.53265 -0.8260048 6.079879 10.53265 0.8260048 6.079879 10.53265 0.8260048 7.920121 10.53265</float_array>
          <technique_common>
            <accessor source="#Cylinder-mesh-positions-array" count="288" stride="3">
              <param name="X" type="float"/>
              <param name="Y" type="float"/>
              <param name="Z" type="float"/>
            </accessor>
          </technique_common>
        </source>
        <source id="Cylinder-mesh-normals">
          <float_array id="Cylinder-mesh-normals-array" count="1215">-0.2587878 -0.01530343 0.965813 0 -0.03064227 0.9995305 1.2408e-6 -0.01530343 0.999883 0.4999418 0.01530343 0.8659238 0.706774 0.03064227 0.7067756 0.4997632 0.03064233 0.8656199 0.8659237 0.01530337 0.4999421 0.8656188 0.03064227 0.499765 0.9654722 0.03064227 0.2586979 0.9658127 0.01530343 0.2587891 0.9995305 0.03064233 6.48981e-7 0.999883 0.01530343 2.77862e-7 0.9654725 0.03064233 -0.258697 0.9658128 0.01530343 -0.2587884 0.8656189 0.03064227 -0.499765 0.8659241 0.01530343 -0.4999413 0.706775 0.03064227 -0.7067745 0.4999416 0.01530349 -0.865924 0.4997656 0.03064227 -0.8656185 0.2586982 0.03064227 -0.9654721 0.2587887 0.01530349 -0.9658128 0 0.03064227 -0.9995304 -0.2587887 0.01530349 -0.9658128 -0.2586977 0.03064227 -0.9654722 -0.4997652 0.03064227 -0.8656188 -0.4999415 0.01530343 -0.865924 -0.706775 0.03064227 -0.7067745 -0.8659241 0.01530343 -0.4999414 -0.8656187 0.03064227 -0.4997653 -0.9654722 0.03064227 -0.2586979 -0.9658128 0.01530349 -0.2587887 -0.9995305 0.03064233 0 -0.9658128 0.01530337 0.258789 -0.9654723 0.03064227 0.2586974 -0.8656191 0.03064221 0.4997646 -0.8659238 0.01530343 0.4999419 -0.7067739 0.03064227 0.7067756 -0.4999414 0.01530343 0.8659242 -0.4997654 0.03064227 0.8656186 -0.2586995 0.03064227 0.9654717 0.2587887 -0.01530343 0.9658128 0.258789 0.01530343 0.9658127 0.2586972 0.03064227 0.9654724 -0.2587895 0.01530343 0.9658125 0 0.03064227 0.9995304 0 -1 0 0 -1 0 -1.1354e-6 0.01530337 0.999883 -0.499764 -0.03064227 0.8656194 -0.4999422 -0.01530337 0.8659236 -0.7067747 -0.03064221 0.7067749 -0.707024 -0.01530349 0.7070239 -0.7070238 0.01530331 0.7070242 -0.8659241 -0.01530337 0.4999415 -0.965472 -0.03064233 0.2586984 -0.9658128 -0.01530349 0.2587887 -0.9995305 -0.03064233 1.33613e-7 -0.999883 -0.01530343 3.40142e-7 -0.999883 0.01530343 -3.74426e-7 -0.9658128 -0.01530337 -0.2587888 -0.8656191 -0.03064227 -0.4997648 -0.8659238 -0.01530343 -0.4999421 -0.7067751 -0.03064227 -0.7067744 -0.7070237 -0.01530337 -0.7070243 -0.7070238 0.01530349 -0.7070242 -0.4999414 -0.01530343 -0.8659241 -0.2586982 -0.03064227 -0.9654722 -0.2587887 -0.01530337 -0.9658128 0 -0.03064221 -0.9995304 1.67676e-7 -0.01530337 -0.999883 -1.67376e-7 0.01530349 -0.999883 0.2587887 -0.01530343 -0.9658128 0.4997652 -0.03064221 -0.8656189 0.4999412 -0.01530343 -0.8659241 0.7067752 -0.03064221 -0.7067743 0.7070237 -0.01530337 -0.7070243 0.7070239 0.01530343 -0.7070241 0.8659237 -0.01530343 -0.499942 0.9654722 -0.03064227 -0.2586981 0.9658126 -0.01530337 -0.2587891 0.9995305 -0.03064233 -6.53753e-7 0.999883 -0.01530343 -2.56154e-7 0.9654725 -0.03064233 0.2586968 0.9658127 -0.01530343 0.2587888 0.8656191 -0.03064221 0.4997646 0.865924 -0.01530343 0.4999414 0.7067751 -0.03064227 0.7067745 0.7070243 -0.01530343 0.7070237 0.7070235 0.01530337 0.7070245 0.4997659 -0.03064227 0.8656184 0.499942 -0.01530349 0.8659237 0.2586987 -0.03064227 0.965472 0 1 0 0.1902933 0.6685001 0.7189549 0 0.6698689 0.7424795 0 0.6716502 0.7408685 0.1902924 -0.6685007 0.7189546 0 -0.6698691 0.7424793 0.186172 -0.6653108 0.722981 0.3719194 0.6589544 0.6538006 0.1861714 0.6653108 0.7229812 0.3719193 -0.6589547 0.6538003 0.3663532 -0.6534128 0.6624478 0.5364377 0.6441708 0.5452327 0.3663533 0.6534134 0.6624472 0.5364382 -0.6441705 0.5452326 0.5325167 -0.6375343 0.5567548 0.6712105 0.6276031 0.39445 0.5325162 0.6375346 0.5567551 0.6712105 -0.6276031 0.3944503 0.6703256 -0.6216244 0.4052737 0.7614426 0.6138828 0.2082141 0.6703255 0.6216244 0.4052739 0.7614426 -0.6138828 0.2082143 0.762434 -0.6104022 0.2147173 0.7936794 0.6083363 0 0.7624344 0.6104019 0.214717 0.7936795 -0.6083361 0 0.7950509 -0.6065428 0 0.7624346 0.6104018 -0.2147171 0.7950505 0.6065433 0 0.7624347 -0.6104015 -0.214717 0.7614421 -0.6138833 -0.2082143 0.7614423 0.6138831 -0.2082143 0.6703261 0.6216241 -0.4052733 0.6703259 -0.6216242 -0.4052735 0.6712104 -0.6276033 -0.3944501 0.6712102 0.6276034 -0.3944501 0.5325168 0.6375343 -0.5567547 0.5325167 -0.6375344 -0.5567548 0.5364377 -0.6441708 -0.5452327 0.536438 0.6441705 -0.5452327 0.3663536 0.6534127 -0.6624476 0.3663536 -0.6534132 -0.6624471 0.3719189 -0.6589547 -0.6538005 0.3719193 0.6589546 -0.6538004 0.1861724 0.6653106 -0.7229811 0.186172 -0.665311 -0.7229809 0.1902924 -0.6685004 -0.7189548 0.1902925 0.6685006 -0.7189548 0 0.669869 -0.7424793 0 -0.6698691 -0.7424792 0 -0.6716502 -0.7408684 -0.1902923 0.6685002 -0.7189551 0 0.6716499 -0.7408688 -0.1902925 -0.6685007 -0.7189545 -0.1861718 -0.6653108 -0.7229811 -0.3719192 0.6589545 -0.6538006 -0.1861725 0.6653108 -0.7229809 -0.3719189 -0.6589549 -0.6538003 -0.3663535 -0.6534129 -0.6624476 -0.5364381 0.6441706 -0.5452327 -0.3663538 0.6534132 -0.6624472 -0.5364377 -0.6441708 -0.5452327 -0.5325167 -0.6375344 -0.5567549 -0.6712102 0.6276034 -0.3944501 -0.5325168 0.6375343 -0.5567547 -0.6712103 -0.6276033 -0.3944501 -0.6703259 -0.6216242 -0.4052735 -0.7614423 0.6138831 -0.2082143 -0.6703261 0.6216241 -0.4052733 -0.7614421 -0.6138833 -0.2082143 -0.7624347 -0.6104015 -0.214717 -0.7936794 0.6083362 0 -0.7624346 0.6104018 -0.2147171 -0.7936795 -0.6083361 0 -0.7950509 -0.6065428 0 -0.7624344 0.6104019 0.214717 -0.7950505 0.6065433 0 -0.762434 -0.6104023 0.2147173 -0.7614425 -0.6138828 0.2082143 -0.7614427 0.6138827 0.2082141 -0.6703255 0.6216243 0.4052739 -0.6703256 -0.6216242 0.4052737 -0.6712105 -0.6276031 0.3944503 -0.6712105 0.6276031 0.39445 -0.5325162 0.6375346 0.5567551 -0.5325167 -0.6375343 0.5567548 -0.5364382 -0.6441705 0.5452326 -0.5364377 0.6441708 0.5452327 -0.3663531 0.6534129 0.6624478 -0.3663535 -0.6534132 0.6624472 -0.3719193 -0.6589546 0.6538004 -0.3719194 0.6589545 0.6538004 -0.1861713 0.6653106 0.7229814 -0.1861721 -0.6653109 0.7229809 -0.1902923 -0.6685003 0.718955 -0.1902934 0.6685004 0.7189546 0 -0.6716499 0.7408688 -0.632897 -0.6528506 0.4162062 -0.5628805 -0.667691 0.4871902 -0.5546255 -0.6754848 0.4859125 -0.5628808 0.667691 0.4871898 -0.6328976 0.6528506 0.4162054 -0.5546256 0.6754849 0.4859121 -0.4803125 -0.6831409 0.5501077 -0.4894142 -0.6874439 0.5365582 -0.4803124 0.6831409 0.5501077 -0.4894137 0.6874441 0.5365584 0.4803125 -0.6831409 0.5501077 0.5546258 -0.6754848 0.4859122 0.4894142 -0.6874439 0.5365582 0.5546255 0.6754848 0.4859125 0.4803123 0.6831409 0.5501077 0.4894137 0.6874441 0.5365583 0.5628806 -0.6676911 0.4871898 0.6328973 -0.6528506 0.4162056 0.6328974 0.6528503 0.4162061 0.5628807 0.6676909 0.4871902 0.9343332 -0.3564009 2.89869e-7 0.9343332 -0.3564009 3.55176e-7 0.9343332 -0.3564009 0 5.20693e-7 -1 0 0 -1 8.59516e-7 0 -1 1.36091e-6 0.8343448 0.551243 -1.41137e-7 0.8343448 0.551243 -3.96484e-7 0.8343448 0.5512431 0 0.9343333 0.3564007 2.89869e-7 0.9343332 0.3564007 3.55175e-7 0.9343334 0.3564005 7.77372e-7 -3.87612e-7 -1 6.78755e-7 0 -1 1.36091e-6 -5.20693e-7 -1 0 -0.8343448 0.551243 -1.41137e-7 -0.8343448 0.551243 -3.96484e-7 -0.8343449 0.5512428 -5.75589e-7 0.8343449 -0.551243 -1.41137e-7 0.834345 -0.5512427 -3.96484e-7 0.8343451 -0.5512425 -5.75589e-7 3.87612e-7 -1 6.78755e-7 0 -1 2.64972e-6 -0.9343332 -0.3564009 2.89869e-7 -0.9343332 -0.3564009 3.55176e-7 -0.9343332 -0.3564009 7.77372e-7 0 -1 8.59516e-7 -5.91867e-7 -1 0 -0.8343449 -0.551243 -1.41137e-7 -0.834345 -0.5512427 -3.96484e-7 -0.8343448 -0.551243 0 -0.9343333 0.3564007 2.89869e-7 -0.9343332 0.3564007 3.55175e-7 -0.9343332 0.3564009 0 5.20693e-7 1 0 0 1 8.59516e-7 5.91868e-7 1 0 -3.87611e-7 1 6.78756e-7 0 1 1.36091e-6 0 1 2.64972e-6 3.87611e-7 1 6.78756e-7 0 1 1.36091e-6 -5.20693e-7 1 0 0 1 8.59516e-7 0 1 4.39837e-7 0 1 9.38531e-7 -0.8490034 -0.08420026 0.5216355 -0.958041 -0.08524811 0.2736608 -0.8485854 -0.08419656 0.5223158 -0.1726938 -0.9329772 -0.3158012 -0.241585 -0.9348279 -0.2602569 -0.2440599 -0.934906 -0.2576543 0.2986947 -0.9368247 -0.1820465 0.3325078 -0.9382058 -0.09596037 0.2971676 -0.9367666 -0.1848242 -0.08943486 -0.9315605 0.3524153 -0.1700859 -0.9329196 0.317383 -0.0877667 -0.9315398 0.352889 0 -0.931041 0.3649148 0.08776688 -0.931542 0.3528832 0.0894348 -0.93156 0.3524166 -0.2971676 -0.9367666 -0.1848242 -0.2986947 -0.9368247 -0.1820465 0.2440599 -0.934906 -0.2576543 0.241585 -0.9348284 -0.2602548 0 -0.9310408 0.3649153 0.170086 -0.9329209 0.3173791 0.1726951 -0.9329766 0.3158022 -0.3325078 -0.9382058 -0.09596043 -0.3329645 -0.9382243 -0.09418004 0.1726938 -0.9329773 -0.315801 0.1700887 -0.9329205 -0.3173791 0.2415834 -0.9348288 0.2602549 0.2440601 -0.934906 0.2576544 -0.3446403 -0.9387348 0 -0.3446386 -0.9387354 0 0.08943623 -0.9315605 -0.3524148 0.08776324 -0.9315415 -0.3528853 0.2971669 -0.9367668 0.1848241 0.2986935 -0.9368251 0.1820465 -0.3329649 -0.9382241 0.09417992 -0.332507 -0.9382061 0.09596002 0 -0.9310407 -0.3649155 0 -0.9310407 -0.3649156 0.332507 -0.9382061 0.09596002 0.3329649 -0.9382241 0.09417992 -0.2986935 -0.9368251 0.1820464 -0.2971669 -0.9367668 0.1848241 -0.08776313 -0.9315406 -0.352888 -0.08943617 -0.9315599 -0.3524168 0.3446403 -0.9387348 0 0.3446386 -0.9387354 0 -0.2440601 -0.934906 0.2576544 -0.2415832 -0.9348282 0.260257 -0.1700884 -0.932919 -0.3173834 0.3329645 -0.9382243 -0.09418004 -0.1726952 -0.9329771 0.3158008 -1.73131e-7 -0.08025395 -0.9967744 -0.2429326 -0.08058542 -0.9666902 -0.24331 -0.08058619 -0.9665951 0.9581726 -0.08524322 0.2732017 0.9963265 -0.08563691 -2.80464e-7 0.9963265 -0.08563685 -1.10034e-6 -0.6824006 -0.082825 0.726271 -0.6817595 -0.08282017 0.7268733 -0.4745839 -0.08150827 -0.8764283 -0.4752191 -0.08151239 -0.8760837 0.9581712 -0.08524459 -0.2732056 0.9580422 -0.08524227 -0.2736587 -0.4752197 -0.08151155 0.8760834 -0.4745798 -0.08150845 0.8764306 -0.6817606 -0.08282119 -0.7268722 -0.6824041 -0.08282589 -0.7262677 0.8490035 -0.08419626 -0.521636 0.8485869 -0.08419239 -0.5223141 -0.2433233 -0.08058655 0.9665917 -0.2429285 -0.08058524 0.9666911 -1.26482e-6 -0.08025401 0.9967744 0.2429258 -0.08058291 0.9666921 0.2433202 -0.08058393 0.9665927 -0.8485851 -0.08419704 -0.5223163 -0.8490025 -0.08420097 -0.5216368 0.6824045 -0.08282196 -0.7262676 0.6817619 -0.08281749 -0.7268714 2.18464e-7 -0.08025419 0.9967745 0.4745762 -0.08150506 0.8764328 0.4752177 -0.08150857 0.8760848 -0.9580417 -0.08524787 -0.2736589 -0.9581708 -0.0852499 -0.2732055 0.4752171 -0.08150929 -0.8760851 0.4745804 -0.08150494 -0.8764306 0.681761 -0.08281642 0.7268724 0.6824011 -0.08282119 0.7262709 -0.996326 -0.08564263 -2.70957e-7 -0.996326 -0.08564233 -1.09551e-6 0.2433089 -0.08058494 -0.9665956 0.2429291 -0.08058261 -0.9666913 0.8485872 -0.08419191 0.5223137 0.8490044 -0.08419561 0.5216346 -0.958172 -0.08524852 0.2732015 -1.69072e-6 -0.08025425 -0.9967745 0.9580416 -0.0852428 0.2736606 0 0 1 0 1 0 0 1 1.5106e-7 -1 0 0 0 -1 -1.5106e-7 0 -1 0 0 -1 -2.03595e-7 1 0 0 0 0 -1 -0.2586972 -0.03064227 0.9654724 0 -1 0 0 -1 0 0 -1 0 0 -1 0 0 -1 0 -0.8656187 -0.03064227 0.4997654 -0.9654723 -0.03064233 -0.2586976 -0.4997656 -0.03064227 -0.8656185 0.2586977 -0.03064221 -0.9654722 0.8656188 -0.03064227 -0.4997652 0 1 0 0 1 0 0 1 0 0 1 0 0 1 0 0 1 0 -0.6274604 -0.6475493 0.4324043 -0.6274608 0.6475492 0.4324036 0.6274607 -0.6475495 0.4324036 0.6274606 0.647549 0.4324044 0.9343332 -0.3564009 7.77372e-7 5.91867e-7 -1 0 0.8343449 0.5512428 -5.75589e-7 0.9343332 0.3564009 0 -0.8343448 0.5512431 0 0.8343448 -0.551243 0 -0.9343332 -0.3564009 0 -0.8343451 -0.5512425 -5.75589e-7 -0.9343334 0.3564005 7.77372e-7 -5.91868e-7 1 0 0 1 0 0 1 -4.0735e-7 0 1 -3.75228e-7 0 1 -5.1853e-7 0 1 6.54634e-7 0 -1 -4.62181e-7 0 -1 -2.74153e-7 0 -1 3.6837e-7 0 -1 -3.12016e-7 0 -1 3.12016e-7 0 -1 -3.6837e-7 0 -1 2.74153e-7 0 -1 4.62181e-7 0 1 2.03595e-7</float_array>
          <technique_common>
            <accessor source="#Cylinder-mesh-normals-array" count="405" stride="3">
              <param name="X" type="float"/>
              <param name="Y" type="float"/>
              <param name="Z" type="float"/>
            </accessor>
          </technique_common>
        </source>
        <source id="Cylinder-mesh-map-0">
          <float_array id="Cylinder-mesh-map-0-array" count="3108">0.3783965 0.2757772 0.4138344 0.2897563 0.3783965 0.2897564 0.337796 0.316762 0.3023581 0.327948 0.3023581 0.316762 0.3023581 0.2350038 0.337796 0.2238178 0.3023581 0.2238178 0.337796 0.2238178 0.3023581 0.2107913 0.3023581 0.2238178 0.337796 0.2107913 0.3023581 0.1968121 0.3023581 0.2107913 0.337796 0.1968122 0.3023581 0.182833 0.3023581 0.1968121 0.337796 0.182833 0.3023581 0.1698065 0.3023581 0.182833 0.337796 0.1698065 0.3023582 0.1586204 0.3023581 0.1698065 0.3023581 0.2350038 0.337796 0.2238178 0.3023581 0.2238178 0.337796 0.2238178 0.3023581 0.2107913 0.3023581 0.2238178 0.337796 0.2107913 0.3023581 0.1968121 0.3023581 0.2107913 0.3023581 0.1968121 0.337796 0.182833 0.3023581 0.182833 0.337796 0.182833 0.3023581 0.1698065 0.3023581 0.182833 0.337796 0.1698065 0.3023582 0.1586204 0.3023581 0.1698065 0.3023582 0.1586204 0.337796 0.1698065 0.3023581 0.1698065 0.337796 0.1698065 0.3023581 0.182833 0.3023581 0.1698065 0.337796 0.182833 0.3023581 0.1968121 0.3023581 0.182833 0.3023581 0.1968121 0.337796 0.2107913 0.3023581 0.2107913 0.337796 0.2107913 0.3023581 0.2238178 0.3023581 0.2107913 0.337796 0.2238178 0.3023581 0.2350038 0.3023581 0.2238178 0.3023582 0.2515646 0.337796 0.2627508 0.3023581 0.2627508 0.337796 0.2627508 0.3023581 0.2757772 0.3023581 0.2627508 0.4138344 0.2897563 0.3783965 0.3037355 0.3783965 0.2897564 0.337796 0.3037355 0.3023581 0.316762 0.3023581 0.3037355 0.337796 0.2757772 0.3023581 0.2897563 0.3023581 0.2757772 0.2908259 0.1682355 0.2929902 0.1756067 0.2694022 0.1756067 0.3783965 0.2757772 0.337796 0.2897564 0.337796 0.2757772 0.4138344 0.2627508 0.3783965 0.2757772 0.3783965 0.2627508 0.3783965 0.2627508 0.337796 0.2757772 0.337796 0.2627508 0.4138344 0.2515646 0.3783965 0.2627508 0.3783965 0.2515646 0.3377961 0.2515646 0.3783965 0.2627508 0.337796 0.2627508 0.3783965 0.2238178 0.4138344 0.2350038 0.3783965 0.2350038 0.3783965 0.2238178 0.337796 0.2350038 0.337796 0.2238178 0.4138344 0.2107913 0.3783965 0.2238178 0.3783965 0.2107913 0.337796 0.2107913 0.3783965 0.2238178 0.337796 0.2238178 0.4138344 0.1968121 0.3783965 0.2107913 0.3783965 0.1968122 0.3783965 0.1968122 0.337796 0.2107913 0.337796 0.1968122 0.3783965 0.182833 0.4138344 0.1968121 0.3783965 0.1968122 0.3783965 0.182833 0.337796 0.1968122 0.337796 0.182833 0.4138344 0.1698065 0.3783965 0.182833 0.3783965 0.1698065 0.337796 0.1698065 0.3783965 0.182833 0.337796 0.182833 0.4138344 0.1586204 0.3783965 0.1698065 0.3783965 0.1586204 0.3783965 0.1586204 0.337796 0.1698065 0.3377961 0.1586204 0.3783965 0.1698065 0.4138344 0.1586204 0.3783965 0.1586204 0.337796 0.1698065 0.3783965 0.1586204 0.3377961 0.1586204 0.4138344 0.182833 0.3783965 0.1698065 0.3783965 0.182833 0.3783965 0.182833 0.337796 0.1698065 0.337796 0.182833 0.4138344 0.1968121 0.3783965 0.182833 0.3783965 0.1968122 0.3783965 0.1968122 0.337796 0.182833 0.337796 0.1968122 0.3783965 0.2107913 0.4138344 0.1968121 0.3783965 0.1968122 0.3783965 0.2107913 0.337796 0.1968122 0.337796 0.2107913 0.4138344 0.2238178 0.3783965 0.2107913 0.3783965 0.2238178 0.3783965 0.2238178 0.337796 0.2107913 0.337796 0.2238178 0.4138344 0.2350038 0.3783965 0.2238178 0.3783965 0.2350038 0.3783965 0.2350038 0.337796 0.2238178 0.337796 0.2350038 0.3783965 0.1698065 0.4138344 0.1586204 0.3783965 0.1586204 0.3783965 0.1698065 0.3377961 0.1586204 0.337796 0.1698065 0.4138344 0.182833 0.3783965 0.1698065 0.3783965 0.182833 0.3783965 0.182833 0.337796 0.1698065 0.337796 0.182833 0.4138344 0.1968121 0.3783965 0.182833 0.3783965 0.1968122 0.3783965 0.1968122 0.337796 0.182833 0.337796 0.1968122 0.4138344 0.2107913 0.3783965 0.1968122 0.3783965 0.2107913 0.3783965 0.2107913 0.337796 0.1968122 0.337796 0.2107913 0.4138344 0.2238178 0.3783965 0.2107913 0.3783965 0.2238178 0.3783965 0.2238178 0.337796 0.2107913 0.337796 0.2238178 0.4138344 0.2350038 0.3783965 0.2238178 0.3783965 0.2350038 0.3783965 0.2350038 0.337796 0.2238178 0.337796 0.2350038 0.4138344 0.316762 0.3783965 0.327948 0.3783965 0.316762 0.3783965 0.316762 0.337796 0.327948 0.337796 0.316762 0.4138344 0.3037355 0.3783965 0.316762 0.3783965 0.3037355 0.3783965 0.3037355 0.337796 0.316762 0.337796 0.3037355 0.2908259 0.2185689 0.2929902 0.2111977 0.2715664 0.2185689 0.3783965 0.2897564 0.337796 0.3037355 0.337796 0.2897564 0.4047504 0.2988635 0.4080063 0.2925012 0.4047504 0.2925012 0.4078843 0.2988635 0.4046284 0.2925012 0.4046284 0.2972629 0.4047504 0.3047925 0.4080063 0.2972629 0.4047504 0.2988635 0.4078843 0.3047925 0.4046284 0.2972629 0.4046284 0.3017001 0.4063197 0.3169308 0.4033293 0.3202978 0.4060323 0.3220532 0.4063197 0.3169308 0.4033293 0.3202978 0.4035979 0.3165673 0.4059344 0.3118342 0.4035979 0.3165673 0.4063197 0.3169308 0.4059344 0.3118342 0.4035979 0.3165673 0.4033794 0.3128873 0.406818 0.2962085 0.4035621 0.2984626 0.406818 0.3021374 0.4035621 0.2977761 0.406818 0.3000302 0.406818 0.2958739 0.406818 0.2898461 0.4035621 0.2943063 0.406818 0.2962085 0.4035621 0.2914137 0.406818 0.2958739 0.406818 0.2914137 0.406818 0.2898461 0.4035621 0.2853859 0.4035621 0.289846 0.4035621 0.2914137 0.406818 0.2869534 0.4035621 0.2850512 0.406818 0.2834836 0.4035621 0.2812296 0.4035621 0.2853859 0.4035621 0.2850512 0.406818 0.2827971 0.4035621 0.2791223 0.4059445 0.3118538 0.4036081 0.3165869 0.4033895 0.3129069 0.4059445 0.3118538 0.4036081 0.3165869 0.4063298 0.3169504 0.4063298 0.3169504 0.4033395 0.3203173 0.4036081 0.3165869 0.4063298 0.3169504 0.4033395 0.3203173 0.4060425 0.3220728 0.4047504 0.3047925 0.4080063 0.2972629 0.4080063 0.3017001 0.4078843 0.3047925 0.4046284 0.2972629 0.4078843 0.2988635 0.4047504 0.2988635 0.4080063 0.2925012 0.4080063 0.2972629 0.4078843 0.2988635 0.4046284 0.2925012 0.4078843 0.2925012 0.4047504 0.2861386 0.4080063 0.2925012 0.4047504 0.2925012 0.4078843 0.2861386 0.4046284 0.2925012 0.4046283 0.2877394 0.4047504 0.2802099 0.4080063 0.2877394 0.4047504 0.2861386 0.4078842 0.2802099 0.4046283 0.2877394 0.4046283 0.2833023 0.4067127 0.3158484 0.4037045 0.3125455 0.4063979 0.3107324 0.4067127 0.3158484 0.4037045 0.3125455 0.403993 0.31627 0.4063547 0.3209529 0.403993 0.31627 0.4067127 0.3158484 0.4063547 0.3209529 0.403993 0.31627 0.4037941 0.3199545 0.406818 0.2834836 0.4035621 0.2812296 0.406818 0.2775548 0.4035621 0.2850512 0.406818 0.2827971 0.406818 0.2869534 0.406818 0.2898461 0.4035621 0.2853859 0.406818 0.2834836 0.4035621 0.2914137 0.406818 0.2869534 0.406818 0.2914137 0.406818 0.2898461 0.4035621 0.2943063 0.4035621 0.289846 0.4035621 0.2914137 0.406818 0.2958739 0.4035621 0.2977761 0.406818 0.2962085 0.4035621 0.2984626 0.4035621 0.2943063 0.4035621 0.2977761 0.406818 0.3000302 0.4035621 0.303705 0.4063447 0.3209726 0.403983 0.3162897 0.4037841 0.3199742 0.4063447 0.3209726 0.403983 0.3162897 0.4067027 0.3158681 0.4067027 0.3158681 0.4036945 0.3125652 0.403983 0.3162897 0.4067027 0.3158681 0.4036945 0.3125652 0.4063879 0.3107521 0.4047504 0.2802099 0.4080063 0.2877394 0.4080063 0.2833023 0.4078842 0.2802099 0.4046283 0.2877394 0.4078843 0.2861386 0.4047504 0.2861386 0.4080063 0.2925012 0.4080063 0.2877394 0.4078843 0.2861386 0.4046284 0.2925012 0.4078843 0.2925012 0.3023581 0.2897563 0.337796 0.3037355 0.3023581 0.3037355 0.4425147 0.22319 0.4291583 0.223427 0.4362129 0.2117767 0.4291583 0.223427 0.4425147 0.22319 0.4362129 0.2117767 0.4362129 0.2117767 0.423012 0.2172877 0.4280004 0.203019 0.423012 0.2172877 0.4362129 0.2117767 0.4280004 0.203019 0.4431219 0.2172877 0.429921 0.2117767 0.4381335 0.203019 0.429921 0.2117767 0.4431219 0.2172877 0.4381335 0.203019 0.4369756 0.223427 0.4236192 0.22319 0.429921 0.2117767 0.4236192 0.22319 0.4369756 0.223427 0.429921 0.2117767 0.4381335 0.203019 0.4431219 0.1887344 0.4431219 0.2172877 0.4291583 0.223427 0.4338746 0.1887344 0.4338746 0.231428 0.429921 0.2117767 0.4236192 0.1887344 0.429921 0.1887344 0.4425147 0.22319 0.4338746 0.1887344 0.4338746 0.231428 0.4381335 0.203019 0.4431219 0.1887344 0.4381335 0.1887344 0.4280004 0.203019 0.4362129 0.1887344 0.4362129 0.2117767 0.4236192 0.22319 0.4322593 0.1887344 0.4236192 0.1887344 0.4425147 0.22319 0.4338746 0.1887344 0.4425147 0.1887344 0.4381335 0.203019 0.429921 0.1887344 0.4381335 0.1887344 0.4280004 0.203019 0.423012 0.1887344 0.4280004 0.1887344 0.4369756 0.223427 0.4322593 0.1887344 0.4322593 0.231428 0.4362129 0.2117767 0.4425147 0.1887344 0.4425147 0.22319 0.423012 0.2172877 0.4291583 0.1887344 0.423012 0.1887344 0.4236192 0.22319 0.4322593 0.1887344 0.4322593 0.231428 0.4431219 0.2172877 0.4369756 0.1887344 0.4369756 0.223427 0.4280004 0.203019 0.423012 0.1887344 0.423012 0.2172877 0.429921 0.2117767 0.4236192 0.1887344 0.4236192 0.22319 0.4291583 0.223427 0.4338746 0.1887344 0.4291583 0.1887344 0.4280004 0.203019 0.4362129 0.1887344 0.4280004 0.1887344 0.4369756 0.223427 0.4322593 0.1887344 0.4369756 0.1887344 0.4381335 0.203019 0.429921 0.1887344 0.429921 0.2117767 0.423012 0.2172877 0.4291583 0.1887344 0.4291583 0.223427 0.4362129 0.2117767 0.4425147 0.1887344 0.4362129 0.1887344 0.4431219 0.2172877 0.4369756 0.1887344 0.4431219 0.1887344 0.2694278 0.143267 0.2712647 0.144877 0.2694278 0.1153536 0.2707588 0.1323365 0.2704731 0.1308768 0.2707588 0.1323365 0.2694278 0.1153536 0.2712134 0.1250306 0.2678504 0.1179147 0.2798319 0.1212524 0.2759988 0.1277438 0.2757131 0.1262841 0.2712647 0.144877 0.2718058 0.1345519 0.2724956 0.1351565 0.273236 0.1454262 0.2739763 0.1351565 0.2752072 0.144877 0.2678504 0.1179147 0.2707588 0.1262841 0.2666401 0.1212524 0.2786215 0.1179147 0.2757131 0.1262841 0.2752586 0.1250306 0.273236 0.1454262 0.2724956 0.1351565 0.273236 0.1353627 0.2752072 0.144877 0.2746661 0.1345519 0.2770441 0.143267 0.2666401 0.1212524 0.2704731 0.1277438 0.2658792 0.1251392 0.2770441 0.1153536 0.2752586 0.1250306 0.2746661 0.1240687 0.2770441 0.143267 0.2752586 0.13359 0.2786215 0.140706 0.2658792 0.1251392 0.2703756 0.1293103 0.2656196 0.1293103 0.2752072 0.1137436 0.2746661 0.1240687 0.2739763 0.1234641 0.2786215 0.140706 0.2757131 0.1323365 0.2798319 0.1373682 0.2658792 0.1334814 0.2703756 0.1293103 0.2704731 0.1308768 0.273236 0.1131945 0.2739763 0.1234641 0.273236 0.1232579 0.2798319 0.1373682 0.2759988 0.1308768 0.2805927 0.1334814 0.2666401 0.1373682 0.2704731 0.1308768 0.2707588 0.1323365 0.273236 0.1131945 0.2724956 0.1234641 0.2712647 0.1137436 0.2805927 0.1334814 0.2760964 0.1293103 0.2808523 0.1293103 0.2678504 0.140706 0.2707588 0.1323365 0.2712134 0.13359 0.2712647 0.1137436 0.2718058 0.1240687 0.2694278 0.1153536 0.2805927 0.1251392 0.2760964 0.1293103 0.2759988 0.1277438 0.2694278 0.143267 0.2712134 0.13359 0.2718058 0.1345519 0.2757131 0.1323365 0.2752586 0.13359 0.2757131 0.1262841 0.273236 0.1232579 0.2724956 0.1234641 0.2724956 0.1234641 0.2759988 0.1308768 0.2760964 0.1293103 0.2760964 0.1293103 0.2712134 0.13359 0.2707588 0.1323365 0.2712134 0.13359 0.2724956 0.1234641 0.2718058 0.1240687 0.2718058 0.1240687 0.2759988 0.1277438 0.2760964 0.1293103 0.2759988 0.1277438 0.2718058 0.1345519 0.2712134 0.13359 0.2718058 0.1345519 0.2718058 0.1240687 0.2712134 0.1250306 0.2712134 0.1250306 0.2757131 0.1262841 0.2759988 0.1277438 0.2757131 0.1262841 0.2724956 0.1351565 0.2718058 0.1345519 0.2724956 0.1351565 0.273236 0.1353627 0.2739763 0.1351565 0.2739763 0.1351565 0.2712134 0.1250306 0.2707588 0.1262841 0.2707588 0.1262841 0.2752586 0.1250306 0.2757131 0.1262841 0.2752586 0.1250306 0.273236 0.1353627 0.2724956 0.1351565 0.273236 0.1353627 0.2739763 0.1351565 0.2746661 0.1345519 0.2746661 0.1345519 0.2707588 0.1262841 0.2704731 0.1277438 0.2704731 0.1277438 0.2746661 0.1240687 0.2752586 0.1250306 0.2746661 0.1240687 0.2746661 0.1345519 0.2752586 0.13359 0.2752586 0.13359 0.2704731 0.1277438 0.2703756 0.1293103 0.2703756 0.1293103 0.2739763 0.1234641 0.2746661 0.1240687 0.2739763 0.1234641 0.2752586 0.13359 0.2757131 0.1323365 0.2757131 0.1323365 0.2704731 0.1308768 0.2703756 0.1293103 0.2704731 0.1308768 0.273236 0.1232579 0.2739763 0.1234641 0.273236 0.1232579 0.2757131 0.1323365 0.2759988 0.1308768 0.2759988 0.1308768 0.1962845 0.3012124 0.2219582 0.2440143 0.2219582 0.3012124 0.2219582 0.2644837 0.1962845 0.2865164 0.2219582 0.2865164 0.2231633 0.2865164 0.1945643 0.2644837 0.1945643 0.2865164 0.1962845 0.2644837 0.2219582 0.2865164 0.1962845 0.2865164 0.1945643 0.2644837 0.2231633 0.2865164 0.1945643 0.2865164 0.7321091 0.1334638 0.7872669 0.2154852 0.7872669 0.1334638 0.43772 0.07836592 0.3771805 0.07836592 0.43772 0.07836592 0.3771805 0.07836592 0.4166492 0.08115833 0.3771805 0.07836592 0.4166492 0.08115833 0.43772 0.07836592 0.4166492 0.08115833 0.43772 0.07836592 0.43772 0.07836592 0.43772 0.07836592 0.1962845 0.3022426 0.2219582 0.2450446 0.2219582 0.3022426 0.2219582 0.2644837 0.1962845 0.2865164 0.2219582 0.2865164 0.2244409 0.2660086 0.1958419 0.2880413 0.2244409 0.2880413 0.1962845 0.2644837 0.2219582 0.2865164 0.1962845 0.2865164 0.1958419 0.2660086 0.2244409 0.2880413 0.1958419 0.2880413 0.3783965 0.2757772 0.4138344 0.2757772 0.4138344 0.2897563 0.337796 0.316762 0.337796 0.327948 0.3023581 0.327948 0.3023581 0.2350038 0.337796 0.2350038 0.337796 0.2238178 0.337796 0.2238178 0.337796 0.2107913 0.3023581 0.2107913 0.337796 0.2107913 0.337796 0.1968122 0.3023581 0.1968121 0.337796 0.1968122 0.337796 0.182833 0.3023581 0.182833 0.337796 0.182833 0.337796 0.1698065 0.3023581 0.1698065 0.337796 0.1698065 0.3377961 0.1586204 0.3023582 0.1586204 0.3023581 0.2350038 0.337796 0.2350038 0.337796 0.2238178 0.337796 0.2238178 0.337796 0.2107913 0.3023581 0.2107913 0.337796 0.2107913 0.337796 0.1968122 0.3023581 0.1968121 0.3023581 0.1968121 0.337796 0.1968122 0.337796 0.182833 0.337796 0.182833 0.337796 0.1698065 0.3023581 0.1698065 0.337796 0.1698065 0.3377961 0.1586204 0.3023582 0.1586204 0.3023582 0.1586204 0.3377961 0.1586204 0.337796 0.1698065 0.337796 0.1698065 0.337796 0.182833 0.3023581 0.182833 0.337796 0.182833 0.337796 0.1968122 0.3023581 0.1968121 0.3023581 0.1968121 0.337796 0.1968122 0.337796 0.2107913 0.337796 0.2107913 0.337796 0.2238178 0.3023581 0.2238178 0.337796 0.2238178 0.337796 0.2350038 0.3023581 0.2350038 0.3023582 0.2515646 0.3377961 0.2515646 0.337796 0.2627508 0.337796 0.2627508 0.337796 0.2757772 0.3023581 0.2757772 0.4138344 0.2897563 0.4138344 0.3037355 0.3783965 0.3037355 0.337796 0.3037355 0.337796 0.316762 0.3023581 0.316762 0.337796 0.2757772 0.337796 0.2897564 0.3023581 0.2897563 0.2929902 0.1756067 0.2943506 0.1841905 0.2694022 0.1756067 0.2943506 0.1841905 0.2948147 0.1934022 0.2680416 0.1841905 0.2694022 0.1756067 0.2943506 0.1841905 0.2680416 0.1841905 0.2948147 0.1934022 0.2943506 0.2026138 0.2675776 0.1934022 0.2943506 0.2026138 0.2929902 0.2111977 0.2680416 0.2026138 0.2675776 0.1934022 0.2943506 0.2026138 0.2680416 0.2026138 0.2929902 0.2111977 0.2908259 0.2185689 0.2694022 0.2111977 0.2908259 0.2185689 0.2880055 0.224225 0.2715664 0.2185689 0.2694022 0.2111977 0.2908259 0.2185689 0.2715664 0.2185689 0.2880055 0.224225 0.2847209 0.2277805 0.2776714 0.2277805 0.2847209 0.2277805 0.2811961 0.2289932 0.2776714 0.2277805 0.2776714 0.2277805 0.2743869 0.224225 0.2880055 0.224225 0.2743869 0.224225 0.2715664 0.2185689 0.2880055 0.224225 0.2694022 0.2111977 0.2680416 0.2026138 0.2929902 0.2111977 0.2675776 0.1934022 0.2680416 0.1841905 0.2948147 0.1934022 0.2694022 0.1756067 0.2715664 0.1682355 0.2908259 0.1682355 0.2715664 0.1682355 0.2743869 0.1625794 0.2880054 0.1625794 0.2743869 0.1625794 0.2776714 0.1590238 0.2847209 0.1590238 0.2776714 0.1590238 0.2811961 0.1578111 0.2847209 0.1590238 0.2847209 0.1590238 0.2880054 0.1625794 0.2743869 0.1625794 0.2880054 0.1625794 0.2908259 0.1682355 0.2715664 0.1682355 0.3783965 0.2757772 0.3783965 0.2897564 0.337796 0.2897564 0.4138344 0.2627508 0.4138344 0.2757772 0.3783965 0.2757772 0.3783965 0.2627508 0.3783965 0.2757772 0.337796 0.2757772 0.4138344 0.2515646 0.4138344 0.2627508 0.3783965 0.2627508 0.3377961 0.2515646 0.3783965 0.2515646 0.3783965 0.2627508 0.3783965 0.2238178 0.4138344 0.2238178 0.4138344 0.2350038 0.3783965 0.2238178 0.3783965 0.2350038 0.337796 0.2350038 0.4138344 0.2107913 0.4138344 0.2238178 0.3783965 0.2238178 0.337796 0.2107913 0.3783965 0.2107913 0.3783965 0.2238178 0.4138344 0.1968121 0.4138344 0.2107913 0.3783965 0.2107913 0.3783965 0.1968122 0.3783965 0.2107913 0.337796 0.2107913 0.3783965 0.182833 0.4138344 0.182833 0.4138344 0.1968121 0.3783965 0.182833 0.3783965 0.1968122 0.337796 0.1968122 0.4138344 0.1698065 0.4138344 0.182833 0.3783965 0.182833 0.337796 0.1698065 0.3783965 0.1698065 0.3783965 0.182833 0.4138344 0.1586204 0.4138344 0.1698065 0.3783965 0.1698065 0.3783965 0.1586204 0.3783965 0.1698065 0.337796 0.1698065 0.3783965 0.1698065 0.4138344 0.1698065 0.4138344 0.1586204 0.337796 0.1698065 0.3783965 0.1698065 0.3783965 0.1586204 0.4138344 0.182833 0.4138344 0.1698065 0.3783965 0.1698065 0.3783965 0.182833 0.3783965 0.1698065 0.337796 0.1698065 0.4138344 0.1968121 0.4138344 0.182833 0.3783965 0.182833 0.3783965 0.1968122 0.3783965 0.182833 0.337796 0.182833 0.3783965 0.2107913 0.4138344 0.2107913 0.4138344 0.1968121 0.3783965 0.2107913 0.3783965 0.1968122 0.337796 0.1968122 0.4138344 0.2238178 0.4138344 0.2107913 0.3783965 0.2107913 0.3783965 0.2238178 0.3783965 0.2107913 0.337796 0.2107913 0.4138344 0.2350038 0.4138344 0.2238178 0.3783965 0.2238178 0.3783965 0.2350038 0.3783965 0.2238178 0.337796 0.2238178 0.3783965 0.1698065 0.4138344 0.1698065 0.4138344 0.1586204 0.3783965 0.1698065 0.3783965 0.1586204 0.3377961 0.1586204 0.4138344 0.182833 0.4138344 0.1698065 0.3783965 0.1698065 0.3783965 0.182833 0.3783965 0.1698065 0.337796 0.1698065 0.4138344 0.1968121 0.4138344 0.182833 0.3783965 0.182833 0.3783965 0.1968122 0.3783965 0.182833 0.337796 0.182833 0.4138344 0.2107913 0.4138344 0.1968121 0.3783965 0.1968122 0.3783965 0.2107913 0.3783965 0.1968122 0.337796 0.1968122 0.4138344 0.2238178 0.4138344 0.2107913 0.3783965 0.2107913 0.3783965 0.2238178 0.3783965 0.2107913 0.337796 0.2107913 0.4138344 0.2350038 0.4138344 0.2238178 0.3783965 0.2238178 0.3783965 0.2350038 0.3783965 0.2238178 0.337796 0.2238178 0.4138344 0.316762 0.4138344 0.327948 0.3783965 0.327948 0.3783965 0.316762 0.3783965 0.327948 0.337796 0.327948 0.4138344 0.3037355 0.4138344 0.316762 0.3783965 0.316762 0.3783965 0.3037355 0.3783965 0.316762 0.337796 0.316762 0.2943506 0.2026138 0.2948147 0.1934022 0.2675776 0.1934022 0.2948147 0.1934022 0.2943506 0.1841905 0.2680416 0.1841905 0.2943506 0.1841905 0.2929902 0.1756067 0.2680416 0.1841905 0.2929902 0.1756067 0.2908259 0.1682355 0.2694022 0.1756067 0.2680416 0.1841905 0.2929902 0.1756067 0.2694022 0.1756067 0.2908259 0.1682355 0.2880054 0.1625794 0.2743869 0.1625794 0.2880054 0.1625794 0.2847209 0.1590238 0.2776714 0.1590238 0.2847209 0.1590238 0.2811961 0.1578111 0.2776714 0.1590238 0.2776714 0.1590238 0.2743869 0.1625794 0.2880054 0.1625794 0.2743869 0.1625794 0.2715664 0.1682355 0.2908259 0.1682355 0.2715664 0.1682355 0.2694022 0.1756067 0.2908259 0.1682355 0.2680416 0.1841905 0.2675776 0.1934022 0.2948147 0.1934022 0.2675776 0.1934022 0.2680416 0.2026138 0.2943506 0.2026138 0.2680416 0.2026138 0.2694022 0.2111977 0.2943506 0.2026138 0.2694022 0.2111977 0.2715664 0.2185689 0.2929902 0.2111977 0.2943506 0.2026138 0.2694022 0.2111977 0.2929902 0.2111977 0.2715664 0.2185689 0.2743869 0.224225 0.2880055 0.224225 0.2743869 0.224225 0.2776714 0.2277805 0.2847209 0.2277805 0.2776714 0.2277805 0.2811961 0.2289932 0.2847209 0.2277805 0.2847209 0.2277805 0.2880055 0.224225 0.2743869 0.224225 0.2880055 0.224225 0.2908259 0.2185689 0.2715664 0.2185689 0.3783965 0.2897564 0.3783965 0.3037355 0.337796 0.3037355 0.4047504 0.2988635 0.4080063 0.2972629 0.4080063 0.2925012 0.4078843 0.2988635 0.4078843 0.2925012 0.4046284 0.2925012 0.4047504 0.3047925 0.4080063 0.3017001 0.4080063 0.2972629 0.4078843 0.3047925 0.4078843 0.2988635 0.4046284 0.2972629 0.4063197 0.3169308 0.4035979 0.3165673 0.4033293 0.3202978 0.4063197 0.3169308 0.4060323 0.3220532 0.4033293 0.3202978 0.4059344 0.3118342 0.4033794 0.3128873 0.4035979 0.3165673 0.4059344 0.3118342 0.4063197 0.3169308 0.4035979 0.3165673 0.406818 0.2962085 0.4035621 0.2943063 0.4035621 0.2984626 0.4035621 0.2977761 0.4035621 0.303705 0.406818 0.3000302 0.406818 0.2898461 0.4035621 0.289846 0.4035621 0.2943063 0.4035621 0.2914137 0.4035621 0.2977761 0.406818 0.2958739 0.406818 0.2898461 0.406818 0.2834836 0.4035621 0.2853859 0.4035621 0.2914137 0.406818 0.2914137 0.406818 0.2869534 0.406818 0.2834836 0.406818 0.2775548 0.4035621 0.2812296 0.4035621 0.2850512 0.406818 0.2869534 0.406818 0.2827971 0.4059445 0.3118538 0.4063298 0.3169504 0.4036081 0.3165869 0.4059445 0.3118538 0.4033895 0.3129069 0.4036081 0.3165869 0.4063298 0.3169504 0.4060425 0.3220728 0.4033395 0.3203173 0.4063298 0.3169504 0.4036081 0.3165869 0.4033395 0.3203173 0.4047504 0.3047925 0.4047504 0.2988635 0.4080063 0.2972629 0.4078843 0.3047925 0.4046284 0.3017001 0.4046284 0.2972629 0.4047504 0.2988635 0.4047504 0.2925012 0.4080063 0.2925012 0.4078843 0.2988635 0.4046284 0.2972629 0.4046284 0.2925012 0.4047504 0.2861386 0.4080063 0.2877394 0.4080063 0.2925012 0.4078843 0.2861386 0.4078843 0.2925012 0.4046284 0.2925012 0.4047504 0.2802099 0.4080063 0.2833023 0.4080063 0.2877394 0.4078842 0.2802099 0.4078843 0.2861386 0.4046283 0.2877394 0.4067127 0.3158484 0.403993 0.31627 0.4037045 0.3125455 0.4067127 0.3158484 0.4063979 0.3107324 0.4037045 0.3125455 0.4063547 0.3209529 0.4037941 0.3199545 0.403993 0.31627 0.4063547 0.3209529 0.4067127 0.3158484 0.403993 0.31627 0.406818 0.2834836 0.4035621 0.2853859 0.4035621 0.2812296 0.4035621 0.2850512 0.4035621 0.2791223 0.406818 0.2827971 0.406818 0.2898461 0.4035621 0.289846 0.4035621 0.2853859 0.4035621 0.2914137 0.4035621 0.2850512 0.406818 0.2869534 0.406818 0.2898461 0.406818 0.2962085 0.4035621 0.2943063 0.4035621 0.2914137 0.406818 0.2914137 0.406818 0.2958739 0.406818 0.2962085 0.406818 0.3021374 0.4035621 0.2984626 0.4035621 0.2977761 0.406818 0.2958739 0.406818 0.3000302 0.4063447 0.3209726 0.4067027 0.3158681 0.403983 0.3162897 0.4063447 0.3209726 0.4037841 0.3199742 0.403983 0.3162897 0.4067027 0.3158681 0.4063879 0.3107521 0.4036945 0.3125652 0.4067027 0.3158681 0.403983 0.3162897 0.4036945 0.3125652 0.4047504 0.2802099 0.4047504 0.2861386 0.4080063 0.2877394 0.4078842 0.2802099 0.4046283 0.2833023 0.4046283 0.2877394 0.4047504 0.2861386 0.4047504 0.2925012 0.4080063 0.2925012 0.4078843 0.2861386 0.4046283 0.2877394 0.4046284 0.2925012 0.3023581 0.2897563 0.337796 0.2897564 0.337796 0.3037355 0.4425147 0.22319 0.4338746 0.231428 0.4291583 0.223427 0.4291583 0.223427 0.4338746 0.231428 0.4425147 0.22319 0.4362129 0.2117767 0.4291583 0.223427 0.423012 0.2172877 0.423012 0.2172877 0.4291583 0.223427 0.4362129 0.2117767 0.4431219 0.2172877 0.4369756 0.223427 0.429921 0.2117767 0.429921 0.2117767 0.4369756 0.223427 0.4431219 0.2172877 0.4369756 0.223427 0.4322593 0.231428 0.4236192 0.22319 0.4236192 0.22319 0.4322593 0.231428 0.4369756 0.223427 0.4381335 0.203019 0.4381335 0.1887344 0.4431219 0.1887344 0.4291583 0.223427 0.4291583 0.1887344 0.4338746 0.1887344 0.429921 0.2117767 0.4236192 0.22319 0.4236192 0.1887344 0.4425147 0.22319 0.4425147 0.1887344 0.4338746 0.1887344 0.4381335 0.203019 0.4431219 0.2172877 0.4431219 0.1887344 0.4280004 0.203019 0.4280004 0.1887344 0.4362129 0.1887344 0.4236192 0.22319 0.4322593 0.231428 0.4322593 0.1887344 0.4425147 0.22319 0.4338746 0.231428 0.4338746 0.1887344 0.4381335 0.203019 0.429921 0.2117767 0.429921 0.1887344 0.4280004 0.203019 0.423012 0.2172877 0.423012 0.1887344 0.4369756 0.223427 0.4369756 0.1887344 0.4322593 0.1887344 0.4362129 0.2117767 0.4362129 0.1887344 0.4425147 0.1887344 0.423012 0.2172877 0.4291583 0.223427 0.4291583 0.1887344 0.4236192 0.22319 0.4236192 0.1887344 0.4322593 0.1887344 0.4431219 0.2172877 0.4431219 0.1887344 0.4369756 0.1887344 0.4280004 0.203019 0.4280004 0.1887344 0.423012 0.1887344 0.429921 0.2117767 0.429921 0.1887344 0.4236192 0.1887344 0.4291583 0.223427 0.4338746 0.231428 0.4338746 0.1887344 0.4280004 0.203019 0.4362129 0.2117767 0.4362129 0.1887344 0.4369756 0.223427 0.4322593 0.231428 0.4322593 0.1887344 0.4381335 0.203019 0.4381335 0.1887344 0.429921 0.1887344 0.423012 0.2172877 0.423012 0.1887344 0.4291583 0.1887344 0.4362129 0.2117767 0.4425147 0.22319 0.4425147 0.1887344 0.4431219 0.2172877 0.4369756 0.223427 0.4369756 0.1887344 0.273236 0.1454262 0.2752072 0.144877 0.2752072 0.1137436 0.2752072 0.144877 0.2770441 0.143267 0.2770441 0.1153536 0.2770441 0.143267 0.2786215 0.140706 0.2786215 0.1179147 0.2786215 0.140706 0.2798319 0.1373682 0.2798319 0.1212524 0.2798319 0.1373682 0.2805927 0.1334814 0.2798319 0.1212524 0.2805927 0.1334814 0.2808523 0.1293103 0.2805927 0.1251392 0.2798319 0.1212524 0.2805927 0.1334814 0.2805927 0.1251392 0.2798319 0.1212524 0.2786215 0.1179147 0.2786215 0.140706 0.2786215 0.1179147 0.2770441 0.1153536 0.2770441 0.143267 0.2770441 0.1153536 0.2752072 0.1137436 0.2752072 0.144877 0.2752072 0.1137436 0.273236 0.1131945 0.273236 0.1454262 0.273236 0.1131945 0.2712647 0.1137436 0.273236 0.1454262 0.2712647 0.1137436 0.2694278 0.1153536 0.2712647 0.144877 0.273236 0.1454262 0.2712647 0.1137436 0.2712647 0.144877 0.2694278 0.1153536 0.2678504 0.1179147 0.2694278 0.143267 0.2678504 0.1179147 0.2666401 0.1212524 0.2678504 0.140706 0.2694278 0.143267 0.2678504 0.1179147 0.2678504 0.140706 0.2666401 0.1212524 0.2658792 0.1251392 0.2658792 0.1334814 0.2658792 0.1251392 0.2656196 0.1293103 0.2658792 0.1334814 0.2658792 0.1334814 0.2666401 0.1373682 0.2666401 0.1212524 0.2666401 0.1373682 0.2678504 0.140706 0.2666401 0.1212524 0.2707588 0.1323365 0.2704731 0.1308768 0.2704731 0.1308768 0.2694278 0.1153536 0.2718058 0.1240687 0.2712134 0.1250306 0.2798319 0.1212524 0.2805927 0.1251392 0.2759988 0.1277438 0.2712647 0.144877 0.2694278 0.143267 0.2718058 0.1345519 0.273236 0.1454262 0.273236 0.1353627 0.2739763 0.1351565 0.2678504 0.1179147 0.2712134 0.1250306 0.2707588 0.1262841 0.2786215 0.1179147 0.2798319 0.1212524 0.2757131 0.1262841 0.273236 0.1454262 0.2712647 0.144877 0.2724956 0.1351565 0.2752072 0.144877 0.2739763 0.1351565 0.2746661 0.1345519 0.2666401 0.1212524 0.2707588 0.1262841 0.2704731 0.1277438 0.2770441 0.1153536 0.2786215 0.1179147 0.2752586 0.1250306 0.2770441 0.143267 0.2746661 0.1345519 0.2752586 0.13359 0.2658792 0.1251392 0.2704731 0.1277438 0.2703756 0.1293103 0.2752072 0.1137436 0.2770441 0.1153536 0.2746661 0.1240687 0.2786215 0.140706 0.2752586 0.13359 0.2757131 0.1323365 0.2658792 0.1334814 0.2656196 0.1293103 0.2703756 0.1293103 0.273236 0.1131945 0.2752072 0.1137436 0.2739763 0.1234641 0.2798319 0.1373682 0.2757131 0.1323365 0.2759988 0.1308768 0.2666401 0.1373682 0.2658792 0.1334814 0.2704731 0.1308768 0.273236 0.1131945 0.273236 0.1232579 0.2724956 0.1234641 0.2805927 0.1334814 0.2759988 0.1308768 0.2760964 0.1293103 0.2678504 0.140706 0.2666401 0.1373682 0.2707588 0.1323365 0.2712647 0.1137436 0.2724956 0.1234641 0.2718058 0.1240687 0.2805927 0.1251392 0.2808523 0.1293103 0.2760964 0.1293103 0.2694278 0.143267 0.2678504 0.140706 0.2712134 0.13359 0.2746661 0.1345519 0.2739763 0.1351565 0.2739763 0.1234641 0.2739763 0.1351565 0.273236 0.1353627 0.273236 0.1232579 0.273236 0.1353627 0.2724956 0.1351565 0.2724956 0.1234641 0.2724956 0.1351565 0.2718058 0.1345519 0.2718058 0.1240687 0.2718058 0.1345519 0.2712134 0.13359 0.2712134 0.1250306 0.2712134 0.13359 0.2707588 0.1323365 0.2707588 0.1262841 0.2707588 0.1323365 0.2704731 0.1308768 0.2707588 0.1262841 0.2704731 0.1308768 0.2703756 0.1293103 0.2704731 0.1277438 0.2707588 0.1262841 0.2704731 0.1308768 0.2704731 0.1277438 0.2707588 0.1262841 0.2712134 0.1250306 0.2712134 0.13359 0.2712134 0.1250306 0.2718058 0.1240687 0.2718058 0.1345519 0.2718058 0.1240687 0.2724956 0.1234641 0.2724956 0.1351565 0.2724956 0.1234641 0.273236 0.1232579 0.273236 0.1353627 0.273236 0.1232579 0.2739763 0.1234641 0.2739763 0.1351565 0.2739763 0.1234641 0.2746661 0.1240687 0.2746661 0.1345519 0.2746661 0.1240687 0.2752586 0.1250306 0.2746661 0.1345519 0.2752586 0.1250306 0.2757131 0.1262841 0.2752586 0.13359 0.2746661 0.1345519 0.2752586 0.1250306 0.2752586 0.13359 0.2757131 0.1262841 0.2759988 0.1277438 0.2759988 0.1308768 0.2759988 0.1277438 0.2760964 0.1293103 0.2759988 0.1308768 0.2759988 0.1308768 0.2757131 0.1323365 0.2757131 0.1262841 0.273236 0.1232579 0.273236 0.1232579 0.2724956 0.1234641 0.2759988 0.1308768 0.2759988 0.1308768 0.2760964 0.1293103 0.2712134 0.13359 0.2707588 0.1323365 0.2707588 0.1323365 0.2724956 0.1234641 0.2724956 0.1234641 0.2718058 0.1240687 0.2759988 0.1277438 0.2760964 0.1293103 0.2760964 0.1293103 0.2718058 0.1345519 0.2712134 0.13359 0.2712134 0.13359 0.2718058 0.1240687 0.2718058 0.1240687 0.2712134 0.1250306 0.2757131 0.1262841 0.2759988 0.1277438 0.2759988 0.1277438 0.2724956 0.1351565 0.2718058 0.1345519 0.2718058 0.1345519 0.273236 0.1353627 0.273236 0.1353627 0.2739763 0.1351565 0.2712134 0.1250306 0.2712134 0.1250306 0.2707588 0.1262841 0.2752586 0.1250306 0.2757131 0.1262841 0.2757131 0.1262841 0.273236 0.1353627 0.2724956 0.1351565 0.2724956 0.1351565 0.2739763 0.1351565 0.2739763 0.1351565 0.2746661 0.1345519 0.2707588 0.1262841 0.2707588 0.1262841 0.2704731 0.1277438 0.2746661 0.1240687 0.2752586 0.1250306 0.2752586 0.1250306 0.2746661 0.1345519 0.2746661 0.1345519 0.2752586 0.13359 0.2704731 0.1277438 0.2704731 0.1277438 0.2703756 0.1293103 0.2739763 0.1234641 0.2746661 0.1240687 0.2746661 0.1240687 0.2752586 0.13359 0.2752586 0.13359 0.2757131 0.1323365 0.2704731 0.1308768 0.2703756 0.1293103 0.2703756 0.1293103 0.273236 0.1232579 0.2739763 0.1234641 0.2739763 0.1234641 0.2757131 0.1323365 0.2757131 0.1323365 0.2759988 0.1308768 0.1962845 0.3012124 0.1962845 0.2440143 0.2219582 0.2440143 0.2219582 0.2644837 0.1962845 0.2644837 0.1962845 0.2865164 0.2231633 0.2865164 0.2231633 0.2644837 0.1945643 0.2644837 0.1962845 0.2644837 0.2219582 0.2644837 0.2219582 0.2865164 0.1945643 0.2644837 0.2231633 0.2644837 0.2231633 0.2865164 0.7321091 0.1334638 0.7321091 0.2154852 0.7872669 0.2154852 0.43772 0.07836592 0.3771805 0.07836592 0.3771805 0.07836592 0.3771805 0.07836592 0.4166492 0.08115833 0.4166492 0.08115833 0.4166492 0.08115833 0.43772 0.07836592 0.43772 0.07836592 0.43772 0.07836592 0.43772 0.07836592 0.43772 0.07836592 0.1962845 0.3022426 0.1962845 0.2450446 0.2219582 0.2450446 0.2219582 0.2644837 0.1962845 0.2644837 0.1962845 0.2865164 0.2244409 0.2660086 0.1958419 0.2660086 0.1958419 0.2880413 0.1962845 0.2644837 0.2219582 0.2644837 0.2219582 0.2865164 0.1958419 0.2660086 0.2244409 0.2660086 0.2244409 0.2880413</float_array>
          <technique_common>
            <accessor source="#Cylinder-mesh-map-0-array" count="1554" stride="2">
              <param name="S" type="float"/>
              <param name="T" type="float"/>
            </accessor>
          </technique_common>
        </source>
        <vertices id="Cylinder-mesh-vertices">
          <input semantic="POSITION" source="#Cylinder-mesh-positions"/>
        </vertices>
        <triangles material="Material-material" count="518">
          <input semantic="VERTEX" source="#Cylinder-mesh-vertices" offset="0"/>
          <input semantic="NORMAL" source="#Cylinder-mesh-normals" offset="1"/>
          <input semantic="TEXCOORD" source="#Cylinder-mesh-map-0" offset="2" set="0"/>
          <p>46 0 0 51 1 1 1 2 2 5 3 3 61 4 4 57 5 5 61 4 6 9 6 7 65 7 8 9 6 9 69 8 10 65 7 11 11 9 12 73 10 13 69 8 14 13 11 15 77 12 16 73 10 17 15 13 18 81 14 19 77 12 20 17 15 21 85 16 22 81 14 23 85 16 24 21 17 25 89 18 26 21 17 27 93 19 28 89 18 29 23 20 30 97 21 31 93 19 32 97 21 33 27 22 34 101 23 35 27 22 36 105 24 37 101 23 38 29 25 39 109 26 40 105 24 41 109 26 42 33 27 43 113 28 44 33 27 45 117 29 46 113 28 47 35 30 48 121 31 49 117 29 50 121 31 51 39 32 52 125 33 53 39 32 54 129 34 55 125 33 56 41 35 57 133 36 58 129 34 59 133 36 60 45 37 61 137 38 62 45 37 63 141 39 64 137 38 65 51 1 66 2 40 67 1 2 68 3 41 69 57 5 70 53 42 71 47 43 72 49 44 73 141 39 74 62 45 75 58 45 76 90 46 77 46 0 78 0 47 79 47 43 80 139 48 81 46 0 82 44 49 83 44 49 84 47 43 85 45 37 86 135 50 87 44 49 88 42 51 89 43 52 90 44 49 91 45 37 92 40 53 93 135 50 94 42 51 95 40 53 96 43 52 97 41 35 98 127 54 99 40 53 100 38 55 101 39 32 102 40 53 103 41 35 104 123 56 105 38 55 106 36 57 107 36 57 108 39 32 109 37 58 110 34 59 111 123 56 112 36 57 113 34 59 114 37 58 115 35 30 116 115 60 117 34 59 118 32 61 119 33 27 120 34 59 121 35 30 122 111 62 123 32 61 124 30 63 125 30 63 126 33 27 127 31 64 128 28 65 129 111 62 130 30 63 131 29 25 132 30 63 133 31 64 134 103 66 135 28 65 136 26 67 137 26 67 138 29 25 139 27 22 140 99 68 141 26 67 142 24 69 143 24 69 144 27 22 145 25 70 146 22 71 147 99 68 148 24 69 149 22 71 150 25 70 151 23 20 152 91 72 153 22 71 154 20 73 155 20 73 156 23 20 157 21 17 158 87 74 159 20 73 160 18 75 161 18 75 162 21 17 163 19 76 164 16 77 165 87 74 166 18 75 167 16 77 168 19 76 169 17 15 170 79 78 171 16 77 172 14 79 173 14 79 174 17 15 175 15 13 176 75 80 177 14 79 178 12 81 179 12 81 180 15 13 181 13 11 182 71 82 183 12 81 184 10 83 185 10 83 186 13 11 187 11 9 188 67 84 189 10 83 190 8 85 191 8 85 192 11 9 193 9 6 194 63 86 195 8 85 196 6 87 197 6 87 198 9 6 199 7 88 200 59 89 201 6 87 202 4 90 203 4 90 204 7 88 205 5 3 206 55 91 207 4 90 208 2 40 209 2 40 210 5 3 211 3 41 212 132 92 213 136 92 214 108 92 215 1 2 216 3 41 217 0 47 218 53 93 219 48 94 220 49 95 221 55 96 222 50 97 223 54 98 224 57 99 225 52 100 226 53 93 227 59 101 228 54 98 229 58 102 230 61 103 231 56 104 232 57 99 233 63 105 234 58 102 235 62 106 236 65 107 237 60 108 238 61 103 239 67 109 240 62 106 241 66 110 242 69 111 243 64 112 244 65 107 245 71 113 246 66 110 247 70 114 248 73 115 249 68 116 250 69 111 251 75 117 252 70 114 253 74 118 254 73 115 255 76 119 256 72 120 257 75 117 258 78 121 259 79 122 260 77 123 261 80 124 262 76 119 263 79 122 264 82 125 265 83 126 266 81 127 267 84 128 268 80 124 269 83 126 270 86 129 271 87 130 272 85 131 273 88 132 274 84 128 275 87 130 276 90 133 277 91 134 278 89 135 279 92 136 280 88 132 281 91 134 282 94 137 283 95 138 284 93 139 285 96 140 286 92 136 287 95 138 288 98 141 289 99 142 290 101 143 291 96 140 292 97 144 293 103 145 294 98 141 295 102 146 296 105 147 297 100 148 298 101 143 299 107 149 300 102 146 301 106 150 302 109 151 303 104 152 304 105 147 305 111 153 306 106 150 307 110 154 308 113 155 309 108 156 310 109 151 311 115 157 312 110 154 313 114 158 314 117 159 315 112 160 316 113 155 317 119 161 318 114 158 319 118 162 320 121 163 321 116 164 322 117 159 323 123 165 324 118 162 325 122 166 326 121 163 327 124 167 328 120 168 329 123 165 330 126 169 331 127 170 332 125 171 333 128 172 334 124 167 335 127 170 336 130 173 337 131 174 338 129 175 339 132 176 340 128 172 341 131 174 342 134 177 343 135 178 344 133 179 345 136 180 346 132 176 347 135 178 348 138 181 349 139 182 350 137 183 351 140 184 352 136 180 353 139 182 354 142 185 355 143 186 356 141 187 357 48 94 358 140 184 359 143 186 360 50 97 361 51 188 362 49 44 363 3 41 364 53 42 365 145 189 366 148 190 367 149 191 368 150 192 369 147 193 370 151 194 371 149 191 372 152 195 373 153 196 374 154 197 375 151 194 376 155 198 377 156 199 378 161 200 379 157 201 380 163 202 381 158 203 382 159 204 383 160 205 384 165 206 385 161 200 386 167 207 387 162 208 388 163 202 389 157 209 390 181 210 391 156 211 392 150 45 393 170 45 394 146 45 395 161 212 396 188 213 397 184 214 398 145 215 399 169 216 400 144 217 401 159 218 402 182 219 403 183 220 404 153 221 405 172 222 406 149 223 407 165 224 408 189 225 409 188 226 410 147 227 411 170 228 412 171 229 413 157 230 414 184 214 415 180 231 416 153 232 417 177 233 418 176 234 419 160 92 420 189 92 421 164 92 422 149 223 423 168 235 424 145 236 425 152 92 426 173 92 427 177 92 428 167 237 429 190 238 430 166 239 431 156 92 432 185 92 433 160 92 434 155 240 435 178 241 436 154 242 437 163 243 438 191 244 439 167 245 440 148 92 441 169 92 442 173 92 443 155 246 444 175 247 445 179 248 446 162 45 447 190 45 448 186 45 449 159 249 450 187 250 451 163 243 452 154 45 453 174 45 454 150 45 455 151 251 456 171 252 457 175 247 458 158 45 459 186 45 460 182 45 461 214 92 462 215 253 463 206 254 464 236 255 465 259 256 466 260 257 467 206 258 468 231 259 469 207 260 470 200 261 471 223 262 472 224 263 473 215 264 474 238 265 475 239 266 476 192 267 477 217 268 478 193 269 479 207 260 480 232 270 481 208 271 482 201 272 483 224 263 484 225 273 485 192 267 486 239 266 487 216 274 488 193 269 489 218 275 490 194 276 491 208 271 492 233 277 493 209 278 494 202 279 495 225 273 496 226 280 497 194 276 498 219 281 499 195 282 500 209 278 501 234 283 502 210 284 503 203 285 504 226 280 505 227 286 506 195 282 507 220 287 508 196 288 509 211 289 510 234 283 511 235 290 512 204 291 513 227 286 514 228 292 515 196 288 516 221 293 517 197 294 518 212 295 519 235 290 520 236 296 521 204 291 522 229 297 523 205 298 524 197 294 525 222 299 526 198 300 527 213 301 528 236 296 529 237 302 530 205 298 531 230 303 532 206 258 533 199 304 534 222 299 535 223 262 536 214 305 537 237 302 538 238 265 539 244 45 540 243 45 541 248 45 542 228 306 543 253 307 544 229 308 545 221 309 546 246 310 547 222 311 548 237 312 549 260 257 550 261 313 551 229 308 552 254 314 553 230 315 554 223 316 555 246 310 556 247 317 557 238 318 558 261 313 559 262 319 560 230 315 561 255 320 562 231 321 563 224 322 564 247 317 565 248 323 566 239 324 567 262 319 568 263 325 569 216 326 570 241 327 571 217 328 572 231 321 573 256 329 574 232 330 575 225 331 576 248 323 577 249 332 578 216 326 579 263 325 580 240 333 581 217 328 582 242 334 583 218 335 584 232 330 585 257 336 586 233 337 587 226 338 588 249 332 589 250 339 590 218 335 591 243 340 592 219 341 593 233 337 594 258 342 595 234 343 596 227 344 597 250 339 598 251 345 599 219 341 600 244 346 601 220 347 602 235 348 603 258 342 604 259 256 605 228 306 606 251 345 607 252 349 608 220 347 609 245 350 610 221 309 611 264 351 612 266 351 613 267 351 614 271 352 615 264 353 616 267 92 617 264 354 618 269 354 619 265 354 620 269 355 621 266 356 622 265 357 623 270 358 624 267 358 625 266 358 626 272 358 627 274 358 628 275 358 629 279 92 630 272 92 631 275 92 632 276 351 633 273 351 634 272 351 635 277 45 636 274 45 637 273 45 638 278 359 639 275 359 640 274 359 641 280 351 642 282 351 643 283 351 644 287 92 645 280 92 646 283 92 647 284 354 648 281 354 649 280 354 650 285 45 651 282 45 652 281 45 653 286 358 654 283 358 655 282 358 656 46 0 657 143 360 658 51 1 659 5 3 660 7 88 661 61 4 662 61 4 663 7 88 664 9 6 665 9 6 666 11 9 667 69 8 668 11 9 669 13 11 670 73 10 671 13 11 672 15 13 673 77 12 674 15 13 675 17 15 676 81 14 677 17 15 678 19 76 679 85 16 680 85 16 681 19 76 682 21 17 683 21 17 684 23 20 685 93 19 686 23 20 687 25 70 688 97 21 689 97 21 690 25 70 691 27 22 692 27 22 693 29 25 694 105 24 695 29 25 696 31 64 697 109 26 698 109 26 699 31 64 700 33 27 701 33 27 702 35 30 703 117 29 704 35 30 705 37 58 706 121 31 707 121 31 708 37 58 709 39 32 710 39 32 711 41 35 712 129 34 713 41 35 714 43 52 715 133 36 716 133 36 717 43 52 718 45 37 719 45 37 720 47 43 721 141 39 722 51 1 723 55 91 724 2 40 725 3 41 726 5 3 727 57 5 728 47 43 729 0 47 730 49 44 731 58 45 732 54 361 733 90 46 734 54 361 735 50 45 736 94 362 737 90 46 738 54 361 739 94 362 740 50 45 741 142 363 742 98 364 743 142 363 744 138 45 745 102 365 746 98 364 747 142 363 748 102 365 749 138 45 750 134 45 751 106 45 752 134 45 753 130 45 754 110 45 755 106 45 756 134 45 757 110 45 758 130 45 759 126 45 760 118 45 761 126 45 762 122 45 763 118 45 764 118 45 765 114 45 766 130 45 767 114 45 768 110 45 769 130 45 770 106 45 771 102 365 772 138 45 773 98 364 774 94 362 775 50 45 776 90 46 777 86 45 778 62 45 779 86 45 780 82 45 781 66 45 782 82 45 783 78 45 784 70 45 785 78 45 786 74 45 787 70 45 788 70 45 789 66 45 790 82 45 791 66 45 792 62 45 793 86 45 794 46 0 795 1 2 796 0 47 797 139 48 798 143 360 799 46 0 800 44 49 801 46 0 802 47 43 803 135 50 804 139 48 805 44 49 806 43 52 807 42 51 808 44 49 809 40 53 810 131 366 811 135 50 812 40 53 813 42 51 814 43 52 815 127 54 816 131 366 817 40 53 818 39 32 819 38 55 820 40 53 821 123 56 822 127 54 823 38 55 824 36 57 825 38 55 826 39 32 827 34 59 828 119 367 829 123 56 830 34 59 831 36 57 832 37 58 833 115 60 834 119 367 835 34 59 836 33 27 837 32 61 838 34 59 839 111 62 840 115 60 841 32 61 842 30 63 843 32 61 844 33 27 845 28 65 846 107 368 847 111 62 848 29 25 849 28 65 850 30 63 851 103 66 852 107 368 853 28 65 854 26 67 855 28 65 856 29 25 857 99 68 858 103 66 859 26 67 860 24 69 861 26 67 862 27 22 863 22 71 864 95 369 865 99 68 866 22 71 867 24 69 868 25 70 869 91 72 870 95 369 871 22 71 872 20 73 873 22 71 874 23 20 875 87 74 876 91 72 877 20 73 878 18 75 879 20 73 880 21 17 881 16 77 882 83 370 883 87 74 884 16 77 885 18 75 886 19 76 887 79 78 888 83 370 889 16 77 890 14 79 891 16 77 892 17 15 893 75 80 894 79 78 895 14 79 896 12 81 897 14 79 898 15 13 899 71 82 900 75 80 901 12 81 902 10 83 903 12 81 904 13 11 905 67 84 906 71 82 907 10 83 908 8 85 909 10 83 910 11 9 911 63 86 912 67 84 913 8 85 914 6 87 915 8 85 916 9 6 917 59 89 918 63 86 919 6 87 920 4 90 921 6 87 922 7 88 923 55 91 924 59 89 925 4 90 926 2 40 927 4 90 928 5 3 929 140 371 930 48 372 931 96 373 932 48 372 933 52 374 934 92 375 935 52 374 936 56 92 937 92 375 938 56 92 939 60 92 940 88 92 941 92 375 942 56 92 943 88 92 944 60 92 945 64 92 946 80 92 947 64 92 948 68 92 949 76 92 950 68 92 951 72 92 952 76 92 953 76 92 954 80 92 955 64 92 956 80 92 957 84 92 958 60 92 959 84 92 960 88 92 961 60 92 962 92 375 963 96 373 964 48 372 965 96 373 966 100 376 967 140 371 968 100 376 969 104 92 970 140 371 971 104 92 972 108 92 973 136 92 974 140 371 975 104 92 976 136 92 977 108 92 978 112 92 979 128 92 980 112 92 981 116 92 982 124 92 983 116 92 984 120 92 985 124 92 986 124 92 987 128 92 988 112 92 989 128 92 990 132 92 991 108 92 992 1 2 993 2 40 994 3 41 995 53 93 996 52 100 997 48 94 998 55 96 999 51 188 1000 50 97 1001 57 99 1002 56 104 1003 52 100 1004 59 101 1005 55 96 1006 54 98 1007 61 103 1008 60 108 1009 56 104 1010 63 105 1011 59 101 1012 58 102 1013 65 107 1014 64 112 1015 60 108 1016 67 109 1017 63 105 1018 62 106 1019 69 111 1020 68 116 1021 64 112 1022 71 113 1023 67 109 1024 66 110 1025 73 115 1026 72 120 1027 68 116 1028 75 117 1029 71 113 1030 70 114 1031 73 115 1032 77 123 1033 76 119 1034 75 117 1035 74 118 1036 78 121 1037 77 123 1038 81 127 1039 80 124 1040 79 122 1041 78 121 1042 82 125 1043 81 127 1044 85 131 1045 84 128 1046 83 126 1047 82 125 1048 86 129 1049 85 131 1050 89 135 1051 88 132 1052 87 130 1053 86 129 1054 90 133 1055 89 135 1056 93 139 1057 92 136 1058 91 134 1059 90 133 1060 94 137 1061 93 139 1062 97 144 1063 96 140 1064 95 138 1065 94 137 1066 98 141 1067 101 143 1068 100 148 1069 96 140 1070 103 145 1071 99 142 1072 98 141 1073 105 147 1074 104 152 1075 100 148 1076 107 149 1077 103 145 1078 102 146 1079 109 151 1080 108 156 1081 104 152 1082 111 153 1083 107 149 1084 106 150 1085 113 155 1086 112 160 1087 108 156 1088 115 157 1089 111 153 1090 110 154 1091 117 159 1092 116 164 1093 112 160 1094 119 161 1095 115 157 1096 114 158 1097 121 163 1098 120 168 1099 116 164 1100 123 165 1101 119 161 1102 118 162 1103 121 163 1104 125 171 1105 124 167 1106 123 165 1107 122 166 1108 126 169 1109 125 171 1110 129 175 1111 128 172 1112 127 170 1113 126 169 1114 130 173 1115 129 175 1116 133 179 1117 132 176 1118 131 174 1119 130 173 1120 134 177 1121 133 179 1122 137 183 1123 136 180 1124 135 178 1125 134 177 1126 138 181 1127 137 183 1128 141 187 1129 140 184 1130 139 182 1131 138 181 1132 142 185 1133 141 187 1134 49 95 1135 48 94 1136 143 186 1137 142 185 1138 50 97 1139 49 44 1140 0 47 1141 3 41 1142 145 189 1143 144 377 1144 148 190 1145 150 192 1146 146 378 1147 147 193 1148 149 191 1149 148 190 1150 152 195 1151 154 197 1152 150 192 1153 151 194 1154 156 199 1155 160 205 1156 161 200 1157 163 202 1158 162 208 1159 158 203 1160 160 205 1161 164 379 1162 165 206 1163 167 207 1164 166 380 1165 162 208 1166 157 209 1167 180 381 1168 181 210 1169 150 45 1170 174 45 1171 170 45 1172 161 212 1173 165 382 1174 188 213 1175 145 215 1176 168 383 1177 169 216 1178 159 218 1179 158 384 1180 182 219 1181 153 221 1182 176 231 1183 172 222 1184 165 224 1185 164 385 1186 189 225 1187 147 227 1188 146 386 1189 170 228 1190 157 230 1191 161 212 1192 184 214 1193 153 232 1194 152 387 1195 177 233 1196 160 92 1197 185 92 1198 189 92 1199 149 223 1200 172 222 1201 168 235 1202 152 92 1203 148 92 1204 173 92 1205 167 237 1206 191 388 1207 190 238 1208 156 92 1209 181 92 1210 185 92 1211 155 240 1212 179 389 1213 178 241 1214 163 243 1215 187 250 1216 191 244 1217 148 92 1218 144 92 1219 169 92 1220 155 246 1221 151 251 1222 175 247 1223 162 45 1224 166 45 1225 190 45 1226 159 249 1227 183 248 1228 187 250 1229 154 45 1230 178 45 1231 174 45 1232 151 251 1233 147 390 1234 171 252 1235 158 45 1236 162 45 1237 186 45 1238 192 391 1239 193 392 1240 203 393 1241 193 392 1242 194 92 1243 202 394 1244 194 92 1245 195 92 1246 201 92 1247 195 92 1248 196 92 1249 200 92 1250 196 92 1251 197 92 1252 200 92 1253 197 92 1254 198 92 1255 199 92 1256 200 92 1257 197 92 1258 199 92 1259 200 92 1260 201 92 1261 195 92 1262 201 92 1263 202 394 1264 194 92 1265 202 394 1266 203 393 1267 193 392 1268 203 393 1269 204 92 1270 192 391 1271 204 92 1272 205 395 1273 192 391 1274 205 395 1275 206 254 1276 215 253 1277 192 391 1278 205 395 1279 215 253 1280 206 254 1281 207 92 1282 214 92 1283 207 92 1284 208 92 1285 213 92 1286 214 92 1287 207 92 1288 213 92 1289 208 92 1290 209 92 1291 211 92 1292 209 92 1293 210 92 1294 211 92 1295 211 92 1296 212 92 1297 208 92 1298 212 92 1299 213 92 1300 208 92 1301 236 255 1302 235 348 1303 259 256 1304 206 258 1305 230 303 1306 231 259 1307 200 261 1308 199 304 1309 223 262 1310 215 264 1311 214 305 1312 238 265 1313 192 267 1314 216 274 1315 217 268 1316 207 260 1317 231 259 1318 232 270 1319 201 272 1320 200 261 1321 224 263 1322 192 267 1323 215 264 1324 239 266 1325 193 269 1326 217 268 1327 218 275 1328 208 271 1329 232 270 1330 233 277 1331 202 279 1332 201 272 1333 225 273 1334 194 276 1335 218 275 1336 219 281 1337 209 278 1338 233 277 1339 234 283 1340 203 285 1341 202 279 1342 226 280 1343 195 282 1344 219 281 1345 220 287 1346 211 289 1347 210 284 1348 234 283 1349 204 291 1350 203 285 1351 227 286 1352 196 288 1353 220 287 1354 221 293 1355 212 295 1356 211 289 1357 235 290 1358 204 291 1359 228 292 1360 229 297 1361 197 294 1362 221 293 1363 222 299 1364 213 301 1365 212 295 1366 236 296 1367 205 298 1368 229 297 1369 230 303 1370 199 304 1371 198 300 1372 222 299 1373 214 305 1374 213 301 1375 237 302 1376 242 396 1377 241 397 1378 251 398 1379 241 397 1380 240 399 1381 252 400 1382 240 399 1383 263 401 1384 253 402 1385 263 401 1386 262 45 1387 254 403 1388 262 45 1389 261 45 1390 255 45 1391 261 45 1392 260 45 1393 256 45 1394 260 45 1395 259 45 1396 256 45 1397 259 45 1398 258 45 1399 257 45 1400 256 45 1401 259 45 1402 257 45 1403 256 45 1404 255 45 1405 261 45 1406 255 45 1407 254 403 1408 262 45 1409 254 403 1410 253 402 1411 263 401 1412 253 402 1413 252 400 1414 240 399 1415 252 400 1416 251 398 1417 241 397 1418 251 398 1419 250 45 1420 242 396 1421 250 45 1422 249 45 1423 242 396 1424 249 45 1425 248 45 1426 243 45 1427 242 396 1428 249 45 1429 243 45 1430 248 45 1431 247 45 1432 245 45 1433 247 45 1434 246 45 1435 245 45 1436 245 45 1437 244 45 1438 248 45 1439 228 306 1440 252 349 1441 253 307 1442 221 309 1443 245 350 1444 246 310 1445 237 312 1446 236 255 1447 260 257 1448 229 308 1449 253 307 1450 254 314 1451 223 316 1452 222 311 1453 246 310 1454 238 318 1455 237 312 1456 261 313 1457 230 315 1458 254 314 1459 255 320 1460 224 322 1461 223 316 1462 247 317 1463 239 324 1464 238 318 1465 262 319 1466 216 326 1467 240 333 1468 241 327 1469 231 321 1470 255 320 1471 256 329 1472 225 331 1473 224 322 1474 248 323 1475 216 326 1476 239 324 1477 263 325 1478 217 328 1479 241 327 1480 242 334 1481 232 330 1482 256 329 1483 257 336 1484 226 338 1485 225 331 1486 249 332 1487 218 335 1488 242 334 1489 243 340 1490 233 337 1491 257 336 1492 258 342 1493 227 344 1494 226 338 1495 250 339 1496 219 341 1497 243 340 1498 244 346 1499 235 348 1500 234 343 1501 258 342 1502 228 306 1503 227 344 1504 251 345 1505 220 347 1506 244 346 1507 245 350 1508 264 351 1509 265 351 1510 266 351 1511 271 352 1512 268 404 1513 264 353 1514 264 354 1515 268 354 1516 269 354 1517 269 355 1518 270 45 1519 266 356 1520 270 358 1521 271 358 1522 267 358 1523 272 358 1524 273 358 1525 274 358 1526 279 92 1527 276 92 1528 272 92 1529 276 351 1530 277 351 1531 273 351 1532 277 45 1533 278 45 1534 274 45 1535 278 359 1536 279 359 1537 275 359 1538 280 351 1539 281 351 1540 282 351 1541 287 92 1542 284 92 1543 280 92 1544 284 354 1545 285 354 1546 281 354 1547 285 45 1548 286 45 1549 282 45 1550 286 358 1551 287 358 1552 283 358 1553</p>
        </triangles>
      </mesh>
    </geometry>
  </library_geometries>
  <library_visual_scenes>
    <visual_scene id="Scene" name="Scene">
      <node id="train_car_prop_01" name="train_car_prop_01" type="NODE">
        <matrix sid="transform">1 0 0 0 0 1 0 0 0 0 1 0 0 0 0 1</matrix>
        <instance_geometry url="#Cylinder-mesh" name="train_car_prop_01">
          <bind_material>
            <technique_common>
              <instance_material symbol="Material-material" target="#Material-material">
                <bind_vertex_input semantic="UVMap" input_semantic="TEXCOORD" input_set="0"/>
              </instance_material>
            </technique_common>
          </bind_material>
        </instance_geometry>
      </node>
    </visual_scene>
  </library_visual_scenes>
  <scene>
    <instance_visual_scene url="#Scene"/>
  </scene>
</COLLADA>