<?xml version="1.0" encoding="utf-8"?>
<COLLADA xmlns="http://www.collada.org/2005/11/COLLADASchema" version="1.4.1" xmlns:xsi="http://www.w3.org/2001/XMLSchema-instance">
  <asset>
    <contributor>
      <author>Blender User</author>
      <authoring_tool>Blender 4.3.1 commit date:2024-12-10, commit time:07:46, hash:33d812126174</authoring_tool>
    </contributor>
    <created>2026-09-24T23:41:06</created>
    <modified>2026-09-24T23:41:06</modified>
    <unit name="meter" meter="1"/>
    <up_axis>Z_UP</up_axis>
  </asset>
  <library_effects>
    <effect id="Material-effect">
      <profile_COMMON>
        <newparam sid="train_struct_png-surface">
          <surface type="2D">
            <init_from>train_struct_png</init_from>
          </surface>
        </newparam>
        <newparam sid="train_struct_png-sampler">
          <sampler2D>
            <source>train_struct_png-surface</source>
          </sampler2D>
        </newparam>
        <technique sid="common">
          <lambert>
            <emission>
              <color sid="emission">0 0 0 1</color>
            </emission>
            <diffuse>
              <texture texture="train_struct_png-sampler" texcoord="UVMap"/>
            </diffuse>
            <index_of_refraction>
              <float sid="ior">1.45</float>
            </index_of_refraction>
          </lambert>
        </technique>
      </profile_COMMON>
    </effect>
  </library_effects>
  <library_images>
    <image id="train_struct_png" name="train_struct_png">
      <init_from>/home/welton/snap/0ad/743/.local/share/0ad/mods/mars_wars/art/textures/skins/structural/train_struct.png</init_from>
    </image>
  </library_images>
  <library_materials>
    <material id="Material-material" name="Material">
      <instance_effect url="#Material-effect"/>
    </material>
  </library_materials>
  <library_geometries>
    <geometry id="Cube_007-mesh" name="Cube.007">
      <mesh>
        <source id="Cube_007-mesh-positions">
          <float_array id="Cube_007-mesh-positions-array" count="360">-3.595821 -13.25942 4.212306 3.595821 -13.25942 4.212306 3.595821 12.60902 4.212306 -3.595821 12.60902 4.212306 -3.595821 -13.25942 10.44314 3.595821 -13.25942 10.44314 3.595821 12.60902 10.44314 -3.595821 12.60902 10.44314 -3.149324 -13.54813 4.658803 -3.419129 -13.25942 4.388998 3.419129 -13.25942 4.388998 3.149324 -13.54813 4.658803 -3.419129 12.60902 4.388998 -3.149324 12.89772 4.658803 3.149324 12.89772 4.658803 3.419129 12.60902 4.388998 -3.149324 12.89772 9.996645 -3.419129 12.60902 10.26645 -3.419129 -13.25942 10.26645 -3.149324 -13.54813 9.996645 3.149324 -13.54813 9.996645 3.419129 -13.25942 10.26645 3.419129 12.60902 10.26645 3.149324 12.89772 9.996645 2.482278 -13.25942 10.75832 3.076472 -13.25942 10.75832 3.076472 12.60902 10.75832 2.482278 12.60902 10.75832 2.482278 12.60902 10.42539 2.482278 -13.25942 10.42539 3.076472 -13.25942 10.42539 3.076472 12.60902 10.42539 2.482278 -13.25942 4.212647 3.076472 -13.25942 4.212647 3.076472 12.60902 4.212647 2.482278 12.60902 4.212647 2.482278 12.60902 3.879723 2.482278 -13.25942 3.879723 3.076472 -13.25942 3.879723 3.076472 12.60902 3.879723 -2.482278 -13.25942 10.75832 -3.076472 -13.25942 10.75832 -3.076472 12.60902 10.75832 -2.482278 12.60902 10.75832 -2.482278 12.60902 10.42539 -2.482278 -13.25942 10.42539 -3.076472 -13.25942 10.42539 -3.076472 12.60902 10.42539 -2.482278 -13.25942 4.212647 -3.076472 -13.25942 4.212647 -3.076472 12.60902 4.212647 -2.482278 12.60902 4.212647 -2.482278 12.60902 3.879723 -2.482278 -13.25942 3.879723 -3.076472 -13.25942 3.879723 -3.076472 12.60902 3.879723 -3.595821 8.913526 4.212306 -3.595821 5.218034 4.212306 -3.595821 1.163461 4.571388 -3.595821 -1.813867 4.571388 -3.595821 -5.868441 4.212306 -3.595821 -9.563933 4.212306 3.595821 -9.563932 4.212306 3.595821 -5.86844 4.212306 3.595821 -1.813866 4.571388 3.595821 1.163462 4.571388 3.595821 5.218035 4.212306 3.595821 8.913527 4.212306 -3.595821 8.913526 10.44314 -3.595821 5.218034 10.44314 -3.595821 1.163461 10.08406 -3.595821 -1.813867 10.08406 -3.595821 -5.868441 10.44314 -3.595821 -9.563933 10.44314 3.595821 -9.563932 10.44314 3.595821 -5.86844 10.44314 3.595821 -1.813866 10.08406 3.595821 1.163462 10.08406 3.595821 5.218035 10.44314 3.595821 8.913527 10.44314 -3.595821 1.522542 4.212306 -3.595821 -2.172949 4.212306 3.595821 -2.172948 4.212306 3.595821 1.522543 4.212306 -3.595821 1.522542 10.44314 -3.595821 -2.172949 10.44314 3.595821 -2.172948 10.44314 3.595821 1.522543 10.44314 -3.744951 1.062029 4.67282 -3.643519 1.163461 4.571388 -3.643519 -1.813867 4.571388 -3.744951 -1.712436 4.67282 3.744951 -1.712435 4.67282 3.643519 -1.813866 4.571388 3.643519 1.163462 4.571388 3.744951 1.06203 4.67282 -3.643519 1.163461 10.08406 -3.744951 1.062029 9.982628 -3.744951 -1.712436 9.982628 -3.643519 -1.813867 10.08406 3.643519 -1.813866 10.08406 3.744951 -1.712435 9.982628 3.744951 1.06203 9.982628 3.643519 1.163462 10.08406 2.118186 11.48812 10.85725 -2.118186 11.48812 10.85725 -2.118186 7.390456 10.85725 -2.118186 3.292792 10.85725 2.118186 3.292793 10.85725 2.118186 7.390457 10.85725 -2.118186 -0.8048714 10.85725 2.118186 -0.8048705 10.85725 2.515433 7.774698 10.23608 2.515433 12.64084 10.23608 -2.515433 12.64084 10.23608 -2.515433 7.774697 10.23608 -2.515433 2.908551 10.23608 -2.515433 -1.957594 10.23608 2.515433 -1.957593 10.23608 2.515433 2.908553 10.23608</float_array>
          <technique_common>
            <accessor source="#Cube_007-mesh-positions-array" count="120" stride="3">
              <param name="X" type="float"/>
              <param name="Y" type="float"/>
              <param name="Z" type="float"/>
            </accessor>
          </technique_common>
        </source>
        <source id="Cube_007-mesh-normals">
          <float_array id="Cube_007-mesh-normals-array" count="420">0 0 -1 0 0 -1 0 0 -1 0 0 1 2.00322e-7 0 1 2.17205e-7 0 1 0 -1 7.89293e-7 0 -1 0 0 -1 0 1 0 0 -1 0 0 0 1 0 0 1 -1.14599e-6 0 1 0 0 -1 0 0 -1 7.6399e-7 0 1 0 0 1 -1.18394e-6 0 -1 -7.63995e-7 0 1 1.14599e-6 0 1 1.18394e-6 0 -0.6827816 -0.7306226 0 -0.6827851 -0.7306193 0 -0.6827853 -0.7306191 0 0.6827816 -0.7306226 0 0.6827848 -0.7306196 0 0.6827849 -0.7306195 0 -0.6827825 0.7306217 0 -0.6827817 0.7306225 0 -0.6827816 0.7306226 0 0.6827825 0.7306217 0 0.6827813 0.7306228 0 0.6827812 0.730623 0.73062 -0.6827843 0 0.7306202 -0.6827841 0 0.7306203 -0.6827841 0 -0.73062 -0.6827843 0 -0.7306202 -0.6827841 0 -0.73062 -0.6827844 0 0.7306203 0.682784 0 0.7306202 0.6827841 0 -0.7306203 0.682784 0 -0.7306202 0.6827841 0 0 -1 -7.89294e-7 0 0 1 -1 -1.66623e-7 0 1 1.66623e-7 0 -1.22354e-7 0 1 0 0 1 0 0 1 0 0 1 0 0 1 0 0 1 0 0 1 0 0 1 0 0 1 1.60419e-7 0 1 0 0 1 0 0 -1 0 0 -1 0 0 -1 0 0 -1 0 0 -1 0 0 -1 0 0 -1 0 0 -1 0 0 -1 0 0 -1 0 0 -1 -1 0 0 -1 0 0 1 0 0 1 0 0 -1 -3.61332e-7 0 -1 1.66624e-7 0 -1 3.61332e-7 0 1 3.61332e-7 0 1 -1.66624e-7 0 1 -3.61332e-7 0 -0.7071104 0 -0.7071031 -0.7071028 0 -0.7071107 -0.7071027 0 -0.707111 0.7071104 0 -0.7071031 0.7071028 0 -0.7071107 0.7071027 0 -0.707111 -0.7071101 0 0.7071034 -0.7071046 0 0.707109 -0.7071043 0 0.7071093 0.7071101 0 0.7071034 0.7071046 0 0.707109 0.7071043 0 0.7071093 -0.7071046 0.7071089 0 -0.7071076 0.7071061 0 -0.7071076 0.7071059 0 -0.7071068 -0.7071068 0 -0.7071056 -0.707108 0 0.7071046 -0.7071089 0 0.7071076 -0.7071061 0 0.7071076 -0.7071059 0 0.7071068 0.7071068 0 0.7071056 0.707108 0 0 0 -1 -2.5047e-7 0 -1 0 0 -1 -2.55126e-7 0 -1 1.29566e-7 0 -1 -2.2581e-7 0.265523 -0.9641046 1.5218e-7 0.2655236 -0.9641044 -0.8424551 0 -0.5387666 -0.8424553 0 -0.5387662 -0.2168637 0.9647873 0.1488484 0.8424556 0 -0.5387657 0.8424555 0 -0.5387662 0.8424553 0 -0.5387663 0 -0.4743778 -0.8803215 0 -0.4743779 -0.8803213 0 -0.4743781 -0.8803213 -0.8424552 0 -0.5387665 -0.8424555 0 -0.5387662 0.8424557 0 -0.5387656 0.8424558 0 -0.5387657 0.8424557 0 -0.5387657 0.8424558 0 -0.5387656 -0.8424553 0 -0.5387663 -0.7448778 0.6290036 0.2225119 0.7449069 0.6289747 0.2224962 0 -0.6827813 -0.7306228 0 0.6827813 -0.7306228 0 -0.6827826 0.7306216 0 0.6827826 0.7306216 0.73062 -0.6827844 0 -0.7306203 -0.6827841 0 -0.7071109 0 -0.7071028 0.7071109 0 -0.7071028 -0.7071103 0 0.7071033 0.7071103 0 0.7071033 -0.7071046 0.707109 0 0.7071046 -0.707109 0 0 -0.4743777 -0.8803215 0.2168889 0.9647755 0.1488878</float_array>
          <technique_common>
            <accessor source="#Cube_007-mesh-normals-array" count="140" stride="3">
              <param name="X" type="float"/>
              <param name="Y" type="float"/>
              <param name="Z" type="float"/>
            </accessor>
          </technique_common>
        </source>
        <source id="Cube_007-mesh-map-0">
          <float_array id="Cube_007-mesh-map-0-array" count="1260">0.8254035 0.5424384 0.8518434 0.5424384 0.8518434 0.5424384 0.708627 0.8256865 0.6813091 0.7102508 0.7086271 0.7102507 0.7953844 0.6522704 0.7964358 0.5417459 0.7953844 0.5449716 0.6667642 0.5424384 0.6932041 0.6537521 0.6932041 0.5424384 0.8518434 0.5424384 0.8254035 0.6537521 0.8254035 0.5424384 0.7953844 0.6522701 0.7964358 0.5417457 0.7964358 0.6554959 0.8181856 0.4459016 0.8495776 0.5275168 0.8495776 0.4459016 0.8495777 0.4459016 0.8181856 0.5275166 0.8181856 0.4459016 0.7546916 0.6522704 0.7964358 0.6554961 0.7953844 0.6522704 0.7546916 0.5449715 0.7964358 0.5417457 0.7953844 0.5449715 0.7546916 0.6522704 0.7536401 0.5417459 0.7536401 0.6554961 0.7953844 0.6522701 0.7536401 0.6554959 0.7546916 0.6522701 0.7546916 0.6522701 0.7536401 0.5417457 0.7546916 0.5449715 0.7546916 0.5449716 0.7937787 0.5498971 0.7953844 0.5449716 0.7953844 0.5449715 0.7562971 0.549897 0.7546916 0.5449715 0.7562971 0.6473448 0.7953844 0.6522704 0.7937787 0.6473448 0.7937787 0.6473446 0.7546916 0.6522701 0.7562971 0.6473446 0.7546916 0.6522704 0.7562971 0.5498971 0.7546916 0.5449716 0.7953844 0.6522704 0.7937787 0.5498971 0.7937787 0.6473448 0.7562971 0.549897 0.7546916 0.6522701 0.7546916 0.5449715 0.7937788 0.549897 0.7953844 0.6522701 0.7937787 0.6473446 0.7953844 0.5449716 0.7536401 0.5417459 0.7546916 0.5449716 0.7087583 0.4289208 0.7861508 0.40748 0.7861508 0.4289208 0.7861508 0.40748 0.7087583 0.4289208 0.7861508 0.4289208 0.7861508 0.40748 0.7861508 0.4289208 0.7861508 0.40748 0.7087583 0.4289208 0.7087583 0.40748 0.7087583 0.4289208 0.7087583 0.40748 0.7861508 0.40748 0.7087583 0.40748 0.7861508 0.4289208 0.7087583 0.4289208 0.7861508 0.4289208 0.7335699 0.7128947 0.8305152 0.6658346 0.8305152 0.7128947 0.8305152 0.6658346 0.7335699 0.7128947 0.8305152 0.7128947 0.8305152 0.6658346 0.8305152 0.7128947 0.8305152 0.6658346 0.7335699 0.7128947 0.7335699 0.6658346 0.7335699 0.7128947 0.7335699 0.6658346 0.8305152 0.6658346 0.7335699 0.6658346 0.8305152 0.7128947 0.7335699 0.7128947 0.8305152 0.7128947 0.7861508 0.40748 0.7087583 0.4289208 0.7861508 0.4289208 0.7087583 0.4289208 0.7861508 0.40748 0.7861508 0.4289208 0.7861508 0.4289208 0.7861508 0.40748 0.7861508 0.40748 0.7087583 0.40748 0.7087583 0.4289208 0.7087583 0.4289208 0.7861508 0.40748 0.7087583 0.40748 0.7087583 0.40748 0.7087583 0.4289208 0.7861508 0.4289208 0.7861508 0.4289208 0.8305152 0.6658346 0.7335699 0.7128947 0.8305152 0.7128947 0.7335699 0.7128947 0.8305152 0.6658346 0.8305152 0.7128947 0.8305152 0.7128947 0.8305152 0.6658346 0.8305152 0.6658346 0.7335699 0.6658346 0.7335699 0.7128947 0.7335699 0.7128947 0.8305152 0.6658346 0.7335699 0.6658346 0.7335699 0.6658346 0.7335699 0.7128947 0.8305152 0.7128947 0.8305152 0.7128947 0.6932041 0.5424383 0.6667642 0.6537522 0.6667642 0.5424384 0.7196441 0.5424384 0.6932041 0.6537522 0.6932041 0.5424383 0.7460839 0.5424383 0.719644 0.6537521 0.7196441 0.5424384 0.7486529 0.6473371 0.7486529 0.5488534 0.748653 0.5488534 0.7989636 0.5424383 0.7725238 0.6537521 0.7725238 0.5424384 0.8254035 0.5424384 0.7989636 0.6537521 0.7989636 0.5424383 0.8254035 0.5424383 0.8518434 0.6537522 0.8518434 0.5424384 0.7989637 0.5424384 0.8254036 0.6537522 0.8254035 0.5424383 0.7725237 0.5424383 0.7989637 0.6537521 0.7989637 0.5424384 0.7196439 0.5424383 0.7460839 0.6537521 0.7460839 0.5424384 0.6932041 0.5424384 0.719644 0.6537521 0.7196439 0.5424383 0.8725348 0.8256865 0.8452169 0.7102507 0.8725348 0.7102508 0.8452169 0.8256865 0.8178989 0.7102507 0.8452169 0.7102507 0.8178989 0.8256865 0.7905809 0.7102507 0.8178989 0.7102507 0.7905809 0.8256865 0.763263 0.7102507 0.7905809 0.7102507 0.763263 0.8256865 0.735945 0.7102507 0.763263 0.7102507 0.735945 0.8256865 0.7086271 0.7102507 0.735945 0.7102507 0.6667642 0.5424384 0.6932041 0.5424384 0.6932041 0.5424383 0.6932041 0.5424383 0.7196439 0.5424383 0.7196441 0.5424384 0.7196441 0.5424384 0.7460839 0.5424384 0.7460839 0.5424383 0.7460839 0.5424383 0.7725237 0.5424383 0.7725238 0.5424384 0.7725238 0.5424384 0.7989637 0.5424384 0.7989636 0.5424383 0.7989636 0.5424383 0.8254035 0.5424383 0.8254035 0.5424384 0.7486531 0.5488533 0.7725238 0.5424384 0.7699547 0.5488534 0.7699546 0.5488533 0.7460839 0.5424384 0.748653 0.5488534 0.7699547 0.6473371 0.7460839 0.6537521 0.748653 0.6473371 0.7486529 0.6473371 0.7725238 0.6537521 0.7699546 0.6473371 0.7486531 0.5488533 0.7460839 0.6537521 0.7460839 0.5424383 0.7699547 0.5488534 0.7725238 0.6537521 0.7699547 0.6473371 0.7699546 0.5488533 0.7725238 0.6537521 0.7725237 0.5424383 0.748653 0.5488534 0.7460839 0.6537521 0.7486529 0.6473371 0.7486531 0.5488533 0.7486529 0.6473371 0.748653 0.6473371 0.7699546 0.5488533 0.7699546 0.6473371 0.7699546 0.6473371 0.748653 0.5488534 0.7699546 0.5488533 0.7699546 0.5488533 0.7699547 0.6473371 0.7699547 0.5488534 0.7699547 0.5488534 0.7699546 0.6473371 0.748653 0.6473371 0.7486529 0.6473371 0.7692291 0.5506655 0.7493786 0.645525 0.7493788 0.5506654 0.748653 0.6473371 0.7699548 0.6473371 0.7699547 0.6473371 0.7493788 0.5506655 0.7692289 0.645525 0.769229 0.5506654 0.7699547 0.5488534 0.7493788 0.5506654 0.7486531 0.5488533 0.7486529 0.5488534 0.769229 0.5506654 0.7699546 0.5488533 0.769229 0.645525 0.7486529 0.6473371 0.7493786 0.645525 0.7493787 0.645525 0.7699546 0.6473371 0.7692289 0.645525 0.7493786 0.645525 0.7486531 0.5488533 0.7493788 0.5506654 0.7699547 0.5488534 0.769229 0.645525 0.7692291 0.5506655 0.7692289 0.645525 0.7699546 0.5488533 0.769229 0.5506654 0.7486529 0.5488534 0.7493787 0.645525 0.7493788 0.5506655 0.7699547 0.5488534 0.7486531 0.5488533 0.7486531 0.5488533 0.8709411 0.8028621 0.8386226 0.7330752 0.8386226 0.8028621 0.8386226 0.8028621 0.8063042 0.7330752 0.8063042 0.8028621 0.8063042 0.8028621 0.7739858 0.7330752 0.7739858 0.8028621 0.7079496 0.8212946 0.7513911 0.8067612 0.6944645 0.8067612 0.7558861 0.8212946 0.8083176 0.8067612 0.8038225 0.8212946 0.7541511 0.8562401 0.8083574 0.8832103 0.8037102 0.8562401 0.8038226 0.8212946 0.7513911 0.8067612 0.7558861 0.8212946 0.7079495 0.8212946 0.751391 0.8067612 0.7558861 0.8212946 0.851759 0.8212946 0.8083176 0.8067612 0.8652442 0.8067612 0.851759 0.8212946 0.8083176 0.8067612 0.8038226 0.8212946 0.8046339 0.8612205 0.7504276 0.8881908 0.8092811 0.8881908 0.8254035 0.5424384 0.8254035 0.5424383 0.8518434 0.5424384 0.708627 0.8256865 0.6813091 0.8256865 0.6813091 0.7102508 0.7953844 0.6522704 0.7964358 0.6554961 0.7964358 0.5417459 0.6667642 0.5424384 0.6667642 0.6537522 0.6932041 0.6537521 0.8518434 0.5424384 0.8518434 0.6537522 0.8254035 0.6537521 0.7953844 0.6522701 0.7953844 0.5449715 0.7964358 0.5417457 0.8181856 0.4459016 0.8181856 0.5275168 0.8495776 0.5275168 0.8495777 0.4459016 0.8495776 0.5275166 0.8181856 0.5275166 0.7546916 0.6522704 0.7536401 0.6554961 0.7964358 0.6554961 0.7546916 0.5449715 0.7536401 0.5417457 0.7964358 0.5417457 0.7546916 0.6522704 0.7546916 0.5449716 0.7536401 0.5417459 0.7953844 0.6522701 0.7964358 0.6554959 0.7536401 0.6554959 0.7546916 0.6522701 0.7536401 0.6554959 0.7536401 0.5417457 0.7546916 0.5449716 0.7562971 0.5498971 0.7937787 0.5498971 0.7953844 0.5449715 0.7937788 0.549897 0.7562971 0.549897 0.7562971 0.6473448 0.7546916 0.6522704 0.7953844 0.6522704 0.7937787 0.6473446 0.7953844 0.6522701 0.7546916 0.6522701 0.7546916 0.6522704 0.7562971 0.6473448 0.7562971 0.5498971 0.7953844 0.6522704 0.7953844 0.5449716 0.7937787 0.5498971 0.7562971 0.549897 0.7562971 0.6473446 0.7546916 0.6522701 0.7937788 0.549897 0.7953844 0.5449715 0.7953844 0.6522701 0.7953844 0.5449716 0.7964358 0.5417459 0.7536401 0.5417459 0.7087583 0.4289208 0.7087583 0.40748 0.7861508 0.40748 0.7861508 0.40748 0.7087583 0.40748 0.7087583 0.4289208 0.7861508 0.40748 0.7861508 0.4289208 0.7861508 0.4289208 0.7087583 0.4289208 0.7087583 0.40748 0.7087583 0.40748 0.7087583 0.40748 0.7861508 0.40748 0.7861508 0.40748 0.7861508 0.4289208 0.7087583 0.4289208 0.7087583 0.4289208 0.7335699 0.7128947 0.7335699 0.6658346 0.8305152 0.6658346 0.8305152 0.6658346 0.7335699 0.6658346 0.7335699 0.7128947 0.8305152 0.6658346 0.8305152 0.7128947 0.8305152 0.7128947 0.7335699 0.7128947 0.7335699 0.6658346 0.7335699 0.6658346 0.7335699 0.6658346 0.8305152 0.6658346 0.8305152 0.6658346 0.8305152 0.7128947 0.7335699 0.7128947 0.7335699 0.7128947 0.7861508 0.40748 0.7087583 0.40748 0.7087583 0.4289208 0.7087583 0.4289208 0.7087583 0.40748 0.7861508 0.40748 0.7861508 0.4289208 0.7861508 0.4289208 0.7861508 0.40748 0.7087583 0.40748 0.7087583 0.40748 0.7087583 0.4289208 0.7861508 0.40748 0.7861508 0.40748 0.7087583 0.40748 0.7087583 0.4289208 0.7087583 0.4289208 0.7861508 0.4289208 0.8305152 0.6658346 0.7335699 0.6658346 0.7335699 0.7128947 0.7335699 0.7128947 0.7335699 0.6658346 0.8305152 0.6658346 0.8305152 0.7128947 0.8305152 0.7128947 0.8305152 0.6658346 0.7335699 0.6658346 0.7335699 0.6658346 0.7335699 0.7128947 0.8305152 0.6658346 0.8305152 0.6658346 0.7335699 0.6658346 0.7335699 0.7128947 0.7335699 0.7128947 0.8305152 0.7128947 0.6932041 0.5424383 0.6932041 0.6537522 0.6667642 0.6537522 0.7196441 0.5424384 0.719644 0.6537521 0.6932041 0.6537522 0.7460839 0.5424383 0.7460839 0.6537521 0.719644 0.6537521 0.7486529 0.6473371 0.748653 0.6473371 0.7486529 0.5488534 0.7989636 0.5424383 0.7989636 0.6537521 0.7725238 0.6537521 0.8254035 0.5424384 0.8254035 0.6537521 0.7989636 0.6537521 0.8254035 0.5424383 0.8254036 0.6537522 0.8518434 0.6537522 0.7989637 0.5424384 0.7989637 0.6537521 0.8254036 0.6537522 0.7725237 0.5424383 0.7725238 0.6537521 0.7989637 0.6537521 0.7196439 0.5424383 0.719644 0.6537521 0.7460839 0.6537521 0.6932041 0.5424384 0.6932041 0.6537521 0.719644 0.6537521 0.8725348 0.8256865 0.8452169 0.8256865 0.8452169 0.7102507 0.8452169 0.8256865 0.8178989 0.8256865 0.8178989 0.7102507 0.8178989 0.8256865 0.7905809 0.8256865 0.7905809 0.7102507 0.7905809 0.8256865 0.763263 0.8256865 0.763263 0.7102507 0.763263 0.8256865 0.735945 0.8256865 0.735945 0.7102507 0.735945 0.8256865 0.708627 0.8256865 0.7086271 0.7102507 0.6667642 0.5424384 0.6667642 0.5424384 0.6932041 0.5424384 0.6932041 0.5424383 0.6932041 0.5424384 0.7196439 0.5424383 0.7196441 0.5424384 0.7196439 0.5424383 0.7460839 0.5424384 0.7460839 0.5424383 0.7460839 0.5424384 0.7725237 0.5424383 0.7725238 0.5424384 0.7725237 0.5424383 0.7989637 0.5424384 0.7989636 0.5424383 0.7989637 0.5424384 0.8254035 0.5424383 0.7486531 0.5488533 0.7460839 0.5424383 0.7725238 0.5424384 0.7699546 0.5488533 0.7725237 0.5424383 0.7460839 0.5424384 0.7699547 0.6473371 0.7725238 0.6537521 0.7460839 0.6537521 0.7486529 0.6473371 0.7460839 0.6537521 0.7725238 0.6537521 0.7486531 0.5488533 0.748653 0.6473371 0.7460839 0.6537521 0.7699547 0.5488534 0.7725238 0.5424384 0.7725238 0.6537521 0.7699546 0.5488533 0.7699546 0.6473371 0.7725238 0.6537521 0.748653 0.5488534 0.7460839 0.5424384 0.7460839 0.6537521 0.7486531 0.5488533 0.7486531 0.5488533 0.7486529 0.6473371 0.7699546 0.5488533 0.7699546 0.5488533 0.7699546 0.6473371 0.748653 0.5488534 0.7486529 0.5488534 0.7699546 0.5488533 0.7699547 0.6473371 0.7699548 0.6473371 0.7699547 0.5488534 0.7699546 0.6473371 0.7699546 0.6473371 0.748653 0.6473371 0.7692291 0.5506655 0.769229 0.645525 0.7493786 0.645525 0.748653 0.6473371 0.7486529 0.6473371 0.7699548 0.6473371 0.7493788 0.5506655 0.7493787 0.645525 0.7692289 0.645525 0.7699547 0.5488534 0.7692291 0.5506655 0.7493788 0.5506654 0.7486529 0.5488534 0.7493788 0.5506655 0.769229 0.5506654 0.769229 0.645525 0.7699548 0.6473371 0.7486529 0.6473371 0.7493787 0.645525 0.748653 0.6473371 0.7699546 0.6473371 0.7493786 0.645525 0.7486529 0.6473371 0.7486531 0.5488533 0.7699547 0.5488534 0.7699548 0.6473371 0.769229 0.645525 0.7692289 0.645525 0.7699546 0.6473371 0.7699546 0.5488533 0.7486529 0.5488534 0.748653 0.6473371 0.7493787 0.645525 0.7699547 0.5488534 0.7699547 0.5488534 0.7486531 0.5488533 0.8709411 0.8028621 0.8709411 0.7330753 0.8386226 0.7330752 0.8386226 0.8028621 0.8386226 0.7330752 0.8063042 0.7330752 0.8063042 0.8028621 0.8063042 0.7330752 0.7739858 0.7330752 0.7079496 0.8212946 0.7558861 0.8212946 0.7513911 0.8067612 0.7558861 0.8212946 0.751391 0.8067612 0.8083176 0.8067612 0.7541511 0.8562401 0.7495039 0.8832103 0.8083574 0.8832103 0.8038226 0.8212946 0.8083176 0.8067612 0.7513911 0.8067612 0.7079495 0.8212946 0.6944645 0.8067612 0.751391 0.8067612 0.851759 0.8212946 0.8038225 0.8212946 0.8083176 0.8067612 0.851759 0.8212946 0.8652442 0.8067612 0.8083176 0.8067612 0.8046339 0.8612205 0.7550747 0.8612205 0.7504276 0.8881908</float_array>
          <technique_common>
            <accessor source="#Cube_007-mesh-map-0-array" count="630" stride="2">
              <param name="S" type="float"/>
              <param name="T" type="float"/>
            </accessor>
          </technique_common>
        </source>
        <vertices id="Cube_007-mesh-vertices">
          <input semantic="POSITION" source="#Cube_007-mesh-positions"/>
        </vertices>
        <triangles material="Material-material" count="210">
          <input semantic="VERTEX" source="#Cube_007-mesh-vertices" offset="0"/>
          <input semantic="NORMAL" source="#Cube_007-mesh-normals" offset="1"/>
          <input semantic="TEXCOORD" source="#Cube_007-mesh-map-0" offset="2" set="0"/>
          <p>61 0 0 1 1 1 0 2 2 73 3 3 5 4 4 74 5 5 18 6 6 0 7 7 9 8 8 2 9 9 79 9 10 67 9 11 0 10 12 73 10 13 61 10 14 17 11 15 3 12 16 7 13 17 11 7 18 19 7 19 8 7 20 13 13 21 23 13 22 14 13 23 21 14 24 4 15 25 18 6 26 15 16 27 3 12 28 12 17 29 21 14 30 1 18 31 5 7 32 17 11 33 6 19 34 22 20 35 22 20 36 2 13 37 15 16 38 10 21 39 8 22 40 9 23 41 12 24 42 14 25 43 15 26 44 20 27 45 18 28 46 19 29 47 16 30 48 22 31 49 23 32 50 21 33 51 11 34 52 10 35 53 18 36 54 8 37 55 19 38 56 14 39 57 22 40 58 15 39 59 13 41 60 17 42 61 16 42 62 9 8 63 1 18 64 10 43 65 24 44 66 26 44 67 27 44 68 31 2 69 29 2 70 28 2 71 31 13 72 27 13 73 26 13 74 29 7 75 25 7 76 24 7 77 30 9 78 26 9 79 25 9 80 28 10 81 24 10 82 27 10 83 32 44 84 34 44 85 35 44 86 39 2 87 37 2 88 36 2 89 39 13 90 35 13 91 34 13 92 37 7 93 33 7 94 32 7 95 38 9 96 34 9 97 33 9 98 36 10 99 32 10 100 35 10 101 42 44 102 40 44 103 43 44 104 45 2 105 47 2 106 44 2 107 43 13 108 47 13 109 42 13 110 41 7 111 45 7 112 40 7 113 42 10 114 46 10 115 41 10 116 40 9 117 44 9 118 43 9 119 50 44 120 48 44 121 51 44 122 53 2 123 55 2 124 52 2 125 51 13 126 55 13 127 50 13 128 49 7 129 53 7 130 48 7 131 50 10 132 54 10 133 49 10 134 48 9 135 52 9 136 51 9 137 56 10 138 7 10 139 3 10 140 57 10 141 68 10 142 56 10 143 80 10 144 69 10 145 57 10 146 77 13 147 94 13 148 65 13 149 60 10 150 85 45 151 81 10 152 61 10 153 72 10 154 60 10 155 62 9 156 5 9 157 1 9 158 63 9 159 74 9 160 62 9 161 82 9 162 75 9 163 63 9 164 66 9 165 87 46 166 83 9 167 67 9 168 78 9 169 66 9 170 7 47 171 79 48 172 6 44 173 68 49 174 78 50 175 79 48 176 69 51 177 87 52 178 78 50 179 84 53 180 86 54 181 87 52 182 85 55 183 75 56 184 86 54 185 72 57 186 74 5 187 75 56 188 3 58 189 67 59 190 56 60 191 56 60 192 66 61 193 57 62 194 57 62 195 83 63 196 80 64 197 80 64 198 82 65 199 81 64 200 81 64 201 63 66 202 60 67 203 60 67 204 62 68 205 61 0 206 58 69 207 81 10 208 59 70 209 64 71 210 83 9 211 65 72 212 71 73 213 84 74 214 70 75 215 77 76 216 86 77 217 76 78 218 58 69 219 84 74 220 80 10 221 59 70 222 85 45 223 71 73 224 64 71 225 86 77 226 82 9 227 65 72 228 87 46 229 77 76 230 58 13 231 96 13 232 70 13 233 64 7 234 100 7 235 76 7 236 65 2 237 93 2 238 64 2 239 71 7 240 90 7 241 59 7 242 76 44 243 103 44 244 77 44 245 91 10 246 97 10 247 88 10 248 70 44 249 99 44 250 71 44 251 95 9 252 101 9 253 92 9 254 90 79 255 88 80 256 89 81 257 94 82 258 92 83 259 93 84 260 98 85 261 96 86 262 97 87 263 102 88 264 100 89 265 101 90 266 97 91 267 89 92 268 88 93 269 90 94 270 98 95 271 91 94 272 101 96 273 93 97 274 92 98 275 94 99 276 102 100 277 95 99 278 59 2 279 89 2 280 58 2 281 105 101 282 109 102 283 106 103 284 106 103 285 108 104 286 107 105 287 107 105 288 111 106 289 110 107 290 111 108 291 119 109 292 118 110 293 107 111 294 115 112 295 106 113 296 105 114 297 113 115 298 104 116 299 109 117 300 119 109 301 108 118 302 110 119 303 116 120 304 107 111 305 105 121 306 115 112 307 114 122 308 104 117 309 112 123 310 109 117 311 110 107 312 118 124 313 117 125 314 61 0 315 62 68 316 1 1 317 73 3 318 4 44 319 5 4 320 18 6 321 4 15 322 0 7 323 2 9 324 6 9 325 79 9 326 0 10 327 4 10 328 73 10 329 17 11 330 12 17 331 3 12 332 11 7 333 20 7 334 19 7 335 13 13 336 16 13 337 23 13 338 21 14 339 5 7 340 4 15 341 15 16 342 2 13 343 3 12 344 21 14 345 10 43 346 1 18 347 17 11 348 7 13 349 6 19 350 22 20 351 6 19 352 2 13 353 10 21 354 11 126 355 8 22 356 12 24 357 13 127 358 14 25 359 20 27 360 21 128 361 18 28 362 16 30 363 17 129 364 22 31 365 21 33 366 20 130 367 11 34 368 18 36 369 9 131 370 8 37 371 14 39 372 23 40 373 22 40 374 13 41 375 12 41 376 17 42 377 9 8 378 0 7 379 1 18 380 24 44 381 25 44 382 26 44 383 31 2 384 30 2 385 29 2 386 31 13 387 28 13 388 27 13 389 29 7 390 30 7 391 25 7 392 30 9 393 31 9 394 26 9 395 28 10 396 29 10 397 24 10 398 32 44 399 33 44 400 34 44 401 39 2 402 38 2 403 37 2 404 39 13 405 36 13 406 35 13 407 37 7 408 38 7 409 33 7 410 38 9 411 39 9 412 34 9 413 36 10 414 37 10 415 32 10 416 42 44 417 41 44 418 40 44 419 45 2 420 46 2 421 47 2 422 43 13 423 44 13 424 47 13 425 41 7 426 46 7 427 45 7 428 42 10 429 47 10 430 46 10 431 40 9 432 45 9 433 44 9 434 50 44 435 49 44 436 48 44 437 53 2 438 54 2 439 55 2 440 51 13 441 52 13 442 55 13 443 49 7 444 54 7 445 53 7 446 50 10 447 55 10 448 54 10 449 48 9 450 53 9 451 52 9 452 56 10 453 68 10 454 7 10 455 57 10 456 69 10 457 68 10 458 80 10 459 84 74 460 69 10 461 77 13 462 103 13 463 94 13 464 60 10 465 72 10 466 85 45 467 61 10 468 73 10 469 72 10 470 62 9 471 74 9 472 5 9 473 63 9 474 75 9 475 74 9 476 82 9 477 86 77 478 75 9 479 66 9 480 78 9 481 87 46 482 67 9 483 79 9 484 78 9 485 7 47 486 68 49 487 79 48 488 68 49 489 69 51 490 78 50 491 69 51 492 84 53 493 87 52 494 84 53 495 85 55 496 86 54 497 85 55 498 72 57 499 75 56 500 72 57 501 73 3 502 74 5 503 3 58 504 2 2 505 67 59 506 56 60 507 67 59 508 66 61 509 57 62 510 66 61 511 83 63 512 80 64 513 83 63 514 82 65 515 81 64 516 82 65 517 63 66 518 60 67 519 63 66 520 62 68 521 58 69 522 80 10 523 81 10 524 64 71 525 82 9 526 83 9 527 71 73 528 85 45 529 84 74 530 77 76 531 87 46 532 86 77 533 58 69 534 70 75 535 84 74 536 59 70 537 81 10 538 85 45 539 64 71 540 76 78 541 86 77 542 65 72 543 83 9 544 87 46 545 58 13 546 89 13 547 96 13 548 64 7 549 93 7 550 100 7 551 65 2 552 94 2 553 93 2 554 71 7 555 99 7 556 90 7 557 76 44 558 100 44 559 103 44 560 91 10 561 98 10 562 97 10 563 70 44 564 96 44 565 99 44 566 95 9 567 102 9 568 101 9 569 90 79 570 91 132 571 88 80 572 94 82 573 95 133 574 92 83 575 98 85 576 99 134 577 96 86 578 102 88 579 103 135 580 100 89 581 97 91 582 96 136 583 89 92 584 90 94 585 99 95 586 98 95 587 101 96 588 100 137 589 93 97 590 94 99 591 103 100 592 102 100 593 59 2 594 90 2 595 89 2 596 105 101 597 104 2 598 109 102 599 106 103 600 109 102 601 108 104 602 107 105 603 108 104 604 111 106 605 111 108 606 108 118 607 119 109 608 107 111 609 116 120 610 115 112 611 105 114 612 114 138 613 113 115 614 109 117 615 112 123 616 119 109 617 110 119 618 117 139 619 116 120 620 105 121 621 106 113 622 115 112 623 104 117 624 113 117 625 112 123 626 110 107 627 111 106 628 118 124 629</p>
        </triangles>
      </mesh>
    </geometry>
  </library_geometries>
  <library_visual_scenes>
    <visual_scene id="Scene" name="Scene">
      <node id="train_car_prop_02" name="train_car_prop_02" type="NODE">
        <matrix sid="transform">1 0 0 0 0 1 0 0 0 0 1 0 0 0 0 1</matrix>
        <instance_geometry url="#Cube_007-mesh" name="train_car_prop_02">
          <bind_material>
            <technique_common>
              <instance_material symbol="Material-material" target="#Material-material">
                <bind_vertex_input semantic="UVMap" input_semantic="TEXCOORD" input_set="0"/>
              </instance_material>
            </technique_common>
          </bind_material>
        </instance_geometry>
      </node>
    </visual_scene>
  </library_visual_scenes>
  <scene>
    <instance_visual_scene url="#Scene"/>
  </scene>
</COLLADA>