<?xml version="1.0" encoding="utf-8"?>
<COLLADA xmlns="http://www.collada.org/2005/11/COLLADASchema" version="1.4.1" xmlns:xsi="http://www.w3.org/2001/XMLSchema-instance">
  <asset>
    <contributor>
      <author>Blender User</author>
      <authoring_tool>Blender 3.4.1</authoring_tool>
    </contributor>
    <created>2026-07-10T01:56:11</created>
    <modified>2026-07-10T01:56:11</modified>
    <unit name="meter" meter="1"/>
    <up_axis>Z_UP</up_axis>
  </asset>
  <library_effects>
    <effect id="Material_001-effect">
      <profile_COMMON>
        <newparam sid="mcc_shield_police_png-surface">
          <surface type="2D">
            <init_from>mcc_shield_police_png</init_from>
          </surface>
        </newparam>
        <newparam sid="mcc_shield_police_png-sampler">
          <sampler2D>
            <source>mcc_shield_police_png-surface</source>
          </sampler2D>
        </newparam>
        <technique sid="common">
          <lambert>
            <emission>
              <color sid="emission">0 0 0 1</color>
            </emission>
            <diffuse>
              <texture texture="mcc_shield_police_png-sampler" texcoord="UVMap"/>
            </diffuse>
            <index_of_refraction>
              <float sid="ior">1.45</float>
            </index_of_refraction>
          </lambert>
        </technique>
      </profile_COMMON>
    </effect>
  </library_effects>
  <library_images>
    <image id="mcc_shield_police_png" name="mcc_shield_police_png">
      <init_from>mcc_shield_police.png</init_from>
    </image>
  </library_images>
  <library_materials>
    <material id="Material_001-material" name="Material.001">
      <instance_effect url="#Material_001-effect"/>
    </material>
  </library_materials>
  <library_geometries>
    <geometry id="Cylinder-mesh" name="Cylinder">
      <mesh>
        <source id="Cylinder-mesh-positions">
          <float_array id="Cylinder-mesh-positions-array" count="576">0 1 -1 0 1 0.7058824 0.1950903 0.9807853 -1 0.1950903 0.9807853 0.7058824 0.3826835 0.9238795 -1 0.3826835 0.9238795 0.7058824 0.5555703 0.8314696 -1 0.5555703 0.8314696 0.7058824 0.7071068 0.7071068 -1 0.7071068 0.7071068 0.7058824 0.8314696 0.5555703 -1 0.8314696 0.5555703 0.7058824 0.9238795 0.3826835 -1 0.9238795 0.3826835 0.7058824 0.9807853 0.1950903 -1 0.9807853 0.1950903 0.7058824 1 0 -1 1 0 0.7058824 0.9807853 -0.1950903 -1 0.9807853 -0.1950903 0.7058824 0.9238795 -0.3826835 -1 0.9238795 -0.3826835 0.7058824 0.8314696 -0.5555703 -1 0.8314696 -0.5555703 0.7058824 0.7071068 -0.7071068 -1 0.7071068 -0.7071068 0.7058824 0.5555703 -0.8314696 -1 0.5555703 -0.8314696 0.7058824 0.3826835 -0.9238795 -1 0.3826835 -0.9238795 0.7058824 0.1950903 -0.9807853 -1 0.1950903 -0.9807853 0.7058824 0 -1 -1 0 -1 0.7058824 -0.1950903 -0.9807853 -1 -0.1950903 -0.9807853 0.7058824 -0.3826835 -0.9238795 -1 -0.3826835 -0.9238795 0.7058824 -0.5555703 -0.8314696 -1 -0.5555703 -0.8314696 0.7058824 -0.7071068 -0.7071068 -1 -0.7071068 -0.7071068 0.7058824 -0.8314696 -0.5555703 -1 -0.8314696 -0.5555703 0.7058824 -0.9238795 -0.3826835 -1 -0.9238795 -0.3826835 0.7058824 -0.9807853 -0.1950903 -1 -0.9807853 -0.1950903 0.7058824 -1 0 -1 -1 0 0.7058824 -0.9807853 0.1950903 -1 -0.9807853 0.1950903 0.7058824 -0.9238795 0.3826835 -1 -0.9238795 0.3826835 0.7058824 -0.8314696 0.5555703 -1 -0.8314696 0.5555703 0.7058824 -0.7071068 0.7071068 -1 -0.7071068 0.7071068 0.7058824 -0.5555703 0.8314696 -1 -0.5555703 0.8314696 0.7058824 -0.3826835 0.9238795 -1 -0.3826835 0.9238795 0.7058824 -0.1950903 0.9807853 -1 -0.1950903 0.9807853 0.7058824 0 1 1.246361 0 1 0.8463608 -1.36424e-7 0.9375 0.670993 -1.36424e-7 0.9375 0.88064 0.182897 0.9194861 0.670993 0.182897 0.9194861 0.88064 0.3587656 0.866137 0.670993 0.3587656 0.866137 0.88064 0.520847 0.7795028 0.670993 0.520847 0.7795028 0.88064 0.6629126 0.6629126 0.670993 0.6629126 0.6629126 0.88064 0.7795026 0.5208472 0.670993 0.7795026 0.5208472 0.88064 0.866137 0.3587658 0.670993 0.866137 0.3587658 0.88064 0.919486 0.1828972 0.670993 0.919486 0.1828972 0.88064 0.9375 0 0.670993 0.9375 0 0.88064 0.919486 -0.1828971 0.670993 0.919486 -0.1828971 0.88064 0.866137 -0.3587657 0.670993 0.866137 -0.3587657 0.88064 0.7795026 -0.5208472 0.670993 0.7795026 -0.5208472 0.88064 0.6629126 -0.6629126 0.670993 0.6629126 -0.6629126 0.88064 0.520847 -0.7795028 0.670993 0.520847 -0.7795028 0.88064 0.3587656 -0.866137 0.670993 0.3587656 -0.866137 0.88064 0.182897 -0.9194861 0.670993 0.182897 -0.9194861 0.88064 -1.36424e-7 -0.9375 0.670993 -1.36424e-7 -0.9375 0.88064 -0.1828973 -0.9194861 0.670993 -0.1828973 -0.9194861 0.88064 -0.358766 -0.866137 0.670993 -0.358766 -0.866137 0.88064 -0.5208473 -0.7795028 0.670993 -0.5208473 -0.7795028 0.88064 -0.6629127 -0.6629126 0.670993 -0.6629127 -0.6629126 0.88064 -0.7795029 -0.5208472 0.670993 -0.7795029 -0.5208472 0.88064 -0.8661371 -0.3587657 0.670993 -0.8661371 -0.3587657 0.88064 -0.9194864 -0.1828971 0.670993 -0.9194864 -0.1828971 0.88064 -0.9375001 0 0.670993 -0.9375001 0 0.88064 -0.9194864 0.1828972 0.670993 -0.9194864 0.1828972 0.88064 -0.8661371 0.3587658 0.670993 -0.8661371 0.3587658 0.88064 -0.7795029 0.5208472 0.670993 -0.7795029 0.5208472 0.88064 -0.6629127 0.6629126 0.670993 -0.6629127 0.6629126 0.88064 -0.5208473 0.7795028 0.670993 -0.5208473 0.7795028 0.88064 -0.358766 0.866137 0.670993 -0.358766 0.866137 0.88064 -0.1828973 0.9194861 0.670993 -0.1828973 0.9194861 0.88064 0.1950903 0.9807853 0.8463608 0.1950903 0.9807853 1.246361 0.3826835 0.9238795 0.8463608 0.3826835 0.9238795 1.246361 0.5555703 0.8314696 0.8463608 0.5555703 0.8314696 1.246361 0.7071068 0.7071068 0.8463608 0.7071068 0.7071068 1.246361 0.8314696 0.5555703 0.8463608 0.8314696 0.5555703 1.246361 0.9238795 0.3826835 0.8463608 0.9238795 0.3826835 1.246361 0.9807853 0.1950903 0.8463608 0.9807853 0.1950903 1.246361 1 0 0.8463608 1 0 1.246361 0.9807853 -0.1950903 0.8463608 0.9807853 -0.1950903 1.246361 0.9238795 -0.3826835 0.8463608 0.9238795 -0.3826835 1.246361 0.8314696 -0.5555703 0.8463608 0.8314696 -0.5555703 1.246361 0.7071068 -0.7071068 0.8463608 0.7071068 -0.7071068 1.246361 0.5555703 -0.8314696 0.8463608 0.5555703 -0.8314696 1.246361 0.3826835 -0.9238795 0.8463608 0.3826835 -0.9238795 1.246361 0.1950903 -0.9807853 0.8463608 0.1950903 -0.9807853 1.246361 0 -1 0.8463608 0 -1 1.246361 -0.1950903 -0.9807853 0.8463608 -0.1950903 -0.9807853 1.246361 -0.3826835 -0.9238795 0.8463608 -0.3826835 -0.9238795 1.246361 -0.5555703 -0.8314696 0.8463608 -0.5555703 -0.8314696 1.246361 -0.7071068 -0.7071068 0.8463608 -0.7071068 -0.7071068 1.246361 -0.8314696 -0.5555703 0.8463608 -0.8314696 -0.5555703 1.246361 -0.9238795 -0.3826835 0.8463608 -0.9238795 -0.3826835 1.246361 -0.9807853 -0.1950903 0.8463608 -0.9807853 -0.1950903 1.246361 -1 0 0.8463608 -1 0 1.246361 -0.9807853 0.1950903 0.8463608 -0.9807853 0.1950903 1.246361 -0.9238795 0.3826835 0.8463608 -0.9238795 0.3826835 1.246361 -0.8314696 0.5555703 0.8463608 -0.8314696 0.5555703 1.246361 -0.7071068 0.7071068 0.8463608 -0.7071068 0.7071068 1.246361 -0.5555703 0.8314696 0.8463608 -0.5555703 0.8314696 1.246361 -0.3826835 0.9238795 0.8463608 -0.3826835 0.9238795 1.246361 -0.1950903 0.9807853 0.8463608 -0.1950903 0.9807853 1.246361</float_array>
          <technique_common>
            <accessor source="#Cylinder-mesh-positions-array" count="192" stride="3">
              <param name="X" type="float"/>
              <param name="Y" type="float"/>
              <param name="Z" type="float"/>
            </accessor>
          </technique_common>
        </source>
        <source id="Cylinder-mesh-normals">
          <float_array id="Cylinder-mesh-normals-array" count="630">0.09801727 0.9951847 0 0.2902846 0.9569404 0 0.4713968 0.8819214 0 0.6343935 0.7730104 0 0.7730103 0.6343935 0 0.8819212 0.4713968 0 0.9569404 0.2902846 0 0.9951847 0.09801775 0 0.9951847 -0.09801703 0 0.9569404 -0.2902846 0 0.8819216 -0.4713962 0 0.7730103 -0.6343935 0 0.6343935 -0.7730104 0 0.4713968 -0.8819214 0 0.2902846 -0.9569404 0 0.09801727 -0.9951847 0 -0.09801727 -0.9951847 0 -0.2902846 -0.9569404 0 -0.4713968 -0.8819214 0 -0.6343935 -0.7730104 0 -0.7730103 -0.6343935 0 -0.8819212 -0.4713968 0 -0.9569404 -0.2902846 0 -0.9951847 -0.09801775 0 -0.9951847 0.09801703 0 -0.9569404 0.2902846 0 -0.8819216 0.4713962 0 -0.7730103 0.6343935 0 -0.6343935 0.7730104 0 -0.4713968 0.8819214 0 1.19209e-7 0 1 -0.2902846 0.9569404 0 -0.09801727 0.9951847 0 0 0 -1 0.09801793 0.9951847 0 -0.4713966 0.8819213 0 0.2902839 0.9569407 0 -0.634393 0.7730108 0 0.4713966 0.8819214 0 -0.7730107 0.6343932 0 0.6343933 0.7730105 0 -0.8819213 0.4713966 0 0.7730107 0.634393 0 -0.9569403 0.2902849 0 0.8819211 0.4713971 0 -0.9951848 0.09801733 0 0.9569407 0.2902839 0 -0.9951848 -0.09801733 0 0.9951846 0.09801816 0 -0.9569405 -0.2902842 0 0.9951847 -0.09801822 0 -0.8819211 -0.4713973 0 0.9569405 -0.290284 0 -0.7730107 -0.6343932 0 0.8819211 -0.4713971 0 -0.6343938 -0.7730102 0 -0.4713966 -0.8819213 0 0.6343932 -0.7730107 0 -0.2902846 -0.9569404 0 0.4713965 -0.8819215 0 -0.09801727 -0.9951848 0 0.2902839 -0.9569407 0 0.09801727 -0.9951848 0 0.09801793 -0.9951847 0 0.2902846 -0.9569404 0 -0.09801793 -0.9951847 0 0.4713966 -0.8819213 0 -0.2902837 -0.9569407 0 0.634393 -0.7730108 0 0.7730107 -0.6343932 0 -0.6343935 -0.7730103 0 0.8819213 -0.4713966 0 -0.7730095 -0.6343944 0 0.9569403 -0.2902849 0 -0.8819217 -0.4713958 0 0.9951848 -0.09801733 0 -0.9569402 -0.2902854 0 0.9951848 0.09801733 0 -0.9951848 -0.09801673 0 0.9569405 0.2902842 0 -0.9951848 0.09801661 0 0.8819211 0.4713973 0 -0.9569402 0.2902853 0 0.7730107 0.6343932 0 -0.8819215 0.4713965 0 0.6343938 0.7730102 0 -0.77301 0.634394 0 0 0 -1 0.4713966 0.8819213 0 -0.6343938 0.7730102 0 -0.09801727 0.9951848 0 0.2902846 0.9569404 0 -0.4713969 0.8819212 0 0 0 1 0.09801727 0.9951848 0 -0.2902837 0.9569407 0 -0.2902846 0.9569404 0 -0.09801793 0.9951847 0 0 0 -1 0.2902846 0.9569404 0 0.7730103 0.6343935 0 0.8819216 0.4713962 0 0.9951848 0.09801703 0 0.9951847 -0.09801775 0 0.8819212 -0.4713968 0 0.7730103 -0.6343935 0 -0.2902846 -0.9569404 0 -0.7730103 -0.6343935 0 -0.8819216 -0.4713962 0 -0.9951848 -0.09801703 0 -0.9951847 0.09801775 0 -0.8819212 0.4713968 0 -0.7730103 0.6343935 0 2.48446e-7 0 1 0 0 1 1.98754e-6 0 1 3.97512e-6 0 1 -2.68447e-6 0 1 -1.98754e-6 0 1 -1.36853e-6 0 1 -3.97512e-6 0 1 -1.19209e-7 0 1 7.18515e-7 0 -1 -1.02308e-6 0 -1 -3.88857e-7 0 -1 3.59258e-7 0 -1 -7.18515e-7 0 -1 1.02308e-6 0 -1 3.88857e-7 0 -1 -3.59258e-7 0 -1 3.97508e-6 0 1 3.97512e-6 0 1 2.73706e-6 0 1 -3.97508e-6 0 1 -2.73706e-6 0 1 2.68447e-6 0 1 0.09801799 0.9951847 0 -0.4713968 0.8819212 0 0.2902842 0.9569405 0 0.4713966 0.8819214 0 0.6343932 0.7730107 0 -0.8819211 0.4713973 0 0.7730106 0.6343931 0 -0.9569405 0.290284 0 0.8819213 0.4713969 0 0.9569405 0.290284 0 -0.9569404 -0.2902847 0 0.9951846 -0.09801816 0 -0.8819213 -0.4713966 0 0.9569407 -0.2902837 0 0.8819215 -0.4713966 0 -0.634393 -0.7730108 0 0.773011 -0.6343927 0 -0.4713968 -0.8819212 0 0.6343933 -0.7730105 0 -0.2902848 -0.9569404 0 0.4713968 -0.8819213 0 0.2902842 -0.9569405 0 0.09801799 -0.9951847 0 0.2902848 -0.9569404 0 -0.09801799 -0.9951847 0 0.4713968 -0.8819212 0 -0.2902841 -0.9569405 0 0.6343938 -0.7730102 0 -0.4713971 -0.8819211 0 0.8819211 -0.4713973 0 -0.7730103 -0.6343936 0 -0.8819218 -0.471396 0 -0.9569403 -0.2902852 0 -0.9951848 -0.09801661 0 0.9569404 0.2902847 0 0.8819213 0.4713966 0 -0.9569402 0.2902854 0 -0.8819219 0.4713957 0 0.634393 0.7730108 0 -0.7730099 0.6343941 0 -1.98756e-6 0 -1 1.98756e-6 0 -1 5.11539e-7 0 -1 -5.11539e-7 0 -1 0 0 -1 0.4713968 0.8819212 0 -0.6343935 0.7730103 0 0.2902848 0.9569404 0 -0.4713969 0.8819212 0 5.65355e-7 0 1 -3.8179e-7 0 1 4.52277e-6 0 1 4.52277e-6 0 1 1.13071e-6 0 1 3.05432e-6 0 1 -1.52716e-6 0 1 -2.21217e-7 0 1 5.82019e-7 0 1 -3.27449e-7 0 1 -1.63724e-7 0 1 0 0 1 -0.290284 0.9569406 0 -0.2902848 0.9569404 0 -0.09801799 0.9951847 0 -2.2614e-6 0 -1 -4.52278e-6 0 -1 6.78418e-6 0 -1 2.26141e-6 0 -1 5.82018e-7 0 -1 -2.21217e-7 0 -1 -4.08755e-7 0 -1 2.91009e-7 0 -1 -3.27449e-7 0 -1 0 0 -1</float_array>
          <technique_common>
            <accessor source="#Cylinder-mesh-normals-array" count="210" stride="3">
              <param name="X" type="float"/>
              <param name="Y" type="float"/>
              <param name="Z" type="float"/>
            </accessor>
          </technique_common>
        </source>
        <source id="Cylinder-mesh-map-0">
          <float_array id="Cylinder-mesh-map-0-array" count="2232">0.711435 0.743345 0.6644362 0.745695 0.6644362 0.743345 0.711435 0.745695 0.6644362 0.7480449 0.6644362 0.745695 0.711435 0.7480449 0.6644362 0.7503948 0.6644362 0.7480449 0.711435 0.7503948 0.6644362 0.7527448 0.6644362 0.7503948 0.711435 0.7527448 0.6644362 0.7550947 0.6644362 0.7527448 0.711435 0.7550947 0.6644362 0.7574447 0.6644362 0.7550947 0.711435 0.7574447 0.6644362 0.7597947 0.6644362 0.7574447 0.711435 0.7597947 0.6644362 0.7621446 0.6644362 0.7597947 0.711435 0.7621446 0.6644362 0.7644945 0.6644362 0.7621446 0.711435 0.7644945 0.6644362 0.7668445 0.6644362 0.7644945 0.711435 0.7668445 0.6644362 0.7691944 0.6644362 0.7668445 0.711435 0.7691944 0.6644362 0.7715443 0.6644362 0.7691944 0.711435 0.7715443 0.6644362 0.7738943 0.6644362 0.7715443 0.711435 0.7738943 0.6644362 0.7762442 0.6644362 0.7738943 0.711435 0.7762442 0.6644362 0.7785941 0.6644362 0.7762442 0.711435 0.7785941 0.6644362 0.7809441 0.6644362 0.7785941 0.711435 0.7809441 0.6644362 0.7832941 0.6644362 0.7809441 0.711435 0.7832941 0.6644362 0.785644 0.6644362 0.7832941 0.711435 0.785644 0.6644362 0.7879939 0.6644362 0.785644 0.711435 0.7879939 0.6644362 0.7903439 0.6644362 0.7879939 0.711435 0.7903439 0.6644362 0.7926939 0.6644362 0.7903439 0.711435 0.7926939 0.6644362 0.7950438 0.6644362 0.7926939 0.711435 0.7950438 0.6644362 0.7973937 0.6644362 0.7950438 0.711435 0.7973937 0.6644362 0.7997437 0.6644362 0.7973937 0.711435 0.7997437 0.6644362 0.8020936 0.6644362 0.7997437 0.711435 0.8020936 0.6644362 0.8044435 0.6644362 0.8020936 0.711435 0.8044435 0.6644362 0.8067935 0.6644362 0.8044435 0.711435 0.8067935 0.6644362 0.8091434 0.6644362 0.8067935 0.711435 0.8091434 0.6644362 0.8114934 0.6644362 0.8091434 0.711435 0.8114934 0.6644362 0.8138433 0.6644362 0.8114934 0.9692791 0.8220935 0.9297686 0.7987138 0.9461344 0.7422704 0.711435 0.8138433 0.6644362 0.8161932 0.6644362 0.8138433 0.711435 0.8161932 0.6644362 0.8185432 0.6644362 0.8161932 0.927171 0.7865223 0.9542707 0.7395709 0.9872917 0.7781029 0.9434313 0.6244452 0.9901796 0.6520848 0.9708158 0.7188127 0.8109402 0.8430613 0.7981162 0.8455216 0.7981162 0.8430613 0.568964 0.7534888 0.5503841 0.7512491 0.5503841 0.7534888 0.8109402 0.8455216 0.7981162 0.8479818 0.7981162 0.8455216 0.568964 0.7557286 0.5503841 0.7534888 0.5503841 0.7557286 0.8109402 0.8479818 0.7981162 0.8504421 0.7981162 0.8479818 0.568964 0.7579683 0.5503841 0.7557286 0.5503841 0.7579683 0.8109402 0.8504421 0.7981162 0.8529024 0.7981162 0.8504421 0.568964 0.7602081 0.5503841 0.7579683 0.5503841 0.7602081 0.8109402 0.8529024 0.7981162 0.8553627 0.7981162 0.8529024 0.568964 0.7624478 0.5503841 0.7602081 0.5503841 0.7624478 0.8109402 0.8553627 0.7981162 0.857823 0.7981162 0.8553627 0.568964 0.7646875 0.5503841 0.7624478 0.5503841 0.7646875 0.8109402 0.857823 0.7981162 0.8602832 0.7981162 0.857823 0.568964 0.7669273 0.5503841 0.7646875 0.5503841 0.7669273 0.8109402 0.8602832 0.7981162 0.8627435 0.7981162 0.8602832 0.568964 0.769167 0.5503841 0.7669273 0.5503841 0.769167 0.8109402 0.8627435 0.7981162 0.8652037 0.7981162 0.8627435 0.568964 0.7714067 0.5503841 0.769167 0.5503841 0.7714067 0.8109402 0.8652037 0.7981162 0.867664 0.7981162 0.8652037 0.568964 0.7736464 0.5503841 0.7714067 0.5503841 0.7736464 0.8109402 0.867664 0.7981162 0.8701243 0.7981162 0.867664 0.568964 0.7758862 0.5503841 0.7736464 0.5503841 0.7758862 0.8109402 0.8701243 0.7981162 0.8725846 0.7981162 0.8701243 0.568964 0.7781259 0.5503841 0.7758862 0.5503841 0.7781259 0.8109402 0.8725846 0.7981162 0.8750449 0.7981162 0.8725846 0.568964 0.7803657 0.5503841 0.7781259 0.5503841 0.7803657 0.8109402 0.8750449 0.7981162 0.8775051 0.7981162 0.8750449 0.568964 0.7826054 0.5503841 0.7803657 0.5503841 0.7826054 0.8109402 0.8775051 0.7981162 0.8799654 0.7981162 0.8775051 0.568964 0.7848451 0.5503841 0.7826054 0.5503841 0.7848451 0.8109402 0.8799654 0.7981162 0.8824257 0.7981162 0.8799654 0.568964 0.7870848 0.5503841 0.7848451 0.5503841 0.7870848 0.8109402 0.8824257 0.7981162 0.8848859 0.7981162 0.8824257 0.568964 0.7893245 0.5503841 0.7870848 0.5503841 0.7893245 0.8109402 0.8848859 0.7981162 0.8873462 0.7981162 0.8848859 0.568964 0.7915643 0.5503841 0.7893245 0.5503841 0.7915643 0.8109402 0.8873462 0.7981162 0.8898065 0.7981162 0.8873462 0.568964 0.793804 0.5503841 0.7915643 0.5503841 0.793804 0.8109402 0.8898065 0.7981162 0.8922668 0.7981162 0.8898065 0.568964 0.7960438 0.5503841 0.793804 0.5503841 0.7960438 0.8109402 0.8922668 0.7981162 0.8947271 0.7981162 0.8922668 0.568964 0.7982835 0.5503841 0.7960438 0.5503841 0.7982835 0.8109402 0.8947271 0.7981162 0.8971873 0.7981162 0.8947271 0.568964 0.8005232 0.5503841 0.7982835 0.5503841 0.8005232 0.8109402 0.8971873 0.7981162 0.8996476 0.7981162 0.8971873 0.568964 0.8027629 0.5503841 0.8005232 0.5503841 0.8027629 0.8109402 0.8996476 0.7981162 0.9021078 0.7981162 0.8996476 0.568964 0.8050026 0.5503841 0.8027629 0.5503841 0.8050026 0.8109402 0.9021078 0.7981162 0.9045681 0.7981162 0.9021078 0.568964 0.8072424 0.5503841 0.8050026 0.5503841 0.8072424 0.8109402 0.9045681 0.7981162 0.9070284 0.7981162 0.9045681 0.568964 0.8094821 0.5503841 0.8072424 0.5503841 0.8094821 0.8109402 0.9070284 0.7981162 0.9094887 0.7981162 0.9070284 0.568964 0.8117219 0.5503841 0.8094821 0.5503841 0.8117219 0.8109402 0.9094887 0.7981162 0.9119489 0.7981162 0.9094887 0.7968217 0.01461154 0.5146116 0.2031783 0.7031784 0.4853885 0.568964 0.8139616 0.5503841 0.8117219 0.5503841 0.8139616 0.8109402 0.9119489 0.7981162 0.9144092 0.7981162 0.9119489 0.568964 0.7490094 0.5503841 0.7467697 0.5503841 0.7490094 0.568964 0.8162013 0.5503841 0.8139616 0.5503841 0.8162013 0.8109402 0.9144092 0.7981162 0.9168695 0.7981162 0.9144092 0.02826893 0.341844 0.1581559 0.02826893 0.4717311 0.1581559 0.568964 0.818441 0.5503841 0.8162013 0.5503841 0.818441 0.8109402 0.9168695 0.7981162 0.9193298 0.7981162 0.9168695 0.568964 0.7512491 0.5503841 0.7490094 0.5503841 0.7512491 0.8109402 0.9193298 0.7981162 0.9217901 0.7981162 0.9193298 0.7968217 0.01461154 0.5146116 0.2031783 0.7031784 0.4853885 0.711435 0.743345 0.711435 0.745695 0.6644362 0.745695 0.711435 0.745695 0.711435 0.7480449 0.6644362 0.7480449 0.711435 0.7480449 0.711435 0.7503948 0.6644362 0.7503948 0.711435 0.7503948 0.711435 0.7527448 0.6644362 0.7527448 0.711435 0.7527448 0.711435 0.7550947 0.6644362 0.7550947 0.711435 0.7550947 0.711435 0.7574447 0.6644362 0.7574447 0.711435 0.7574447 0.711435 0.7597947 0.6644362 0.7597947 0.711435 0.7597947 0.711435 0.7621446 0.6644362 0.7621446 0.711435 0.7621446 0.711435 0.7644945 0.6644362 0.7644945 0.711435 0.7644945 0.711435 0.7668445 0.6644362 0.7668445 0.711435 0.7668445 0.711435 0.7691944 0.6644362 0.7691944 0.711435 0.7691944 0.711435 0.7715443 0.6644362 0.7715443 0.711435 0.7715443 0.711435 0.7738943 0.6644362 0.7738943 0.711435 0.7738943 0.711435 0.7762442 0.6644362 0.7762442 0.711435 0.7762442 0.711435 0.7785941 0.6644362 0.7785941 0.711435 0.7785941 0.711435 0.7809441 0.6644362 0.7809441 0.711435 0.7809441 0.711435 0.7832941 0.6644362 0.7832941 0.711435 0.7832941 0.711435 0.785644 0.6644362 0.785644 0.711435 0.785644 0.711435 0.7879939 0.6644362 0.7879939 0.711435 0.7879939 0.711435 0.7903439 0.6644362 0.7903439 0.711435 0.7903439 0.711435 0.7926939 0.6644362 0.7926939 0.711435 0.7926939 0.711435 0.7950438 0.6644362 0.7950438 0.711435 0.7950438 0.711435 0.7973937 0.6644362 0.7973937 0.711435 0.7973937 0.711435 0.7997437 0.6644362 0.7997437 0.711435 0.7997437 0.711435 0.8020936 0.6644362 0.8020936 0.711435 0.8020936 0.711435 0.8044435 0.6644362 0.8044435 0.711435 0.8044435 0.711435 0.8067935 0.6644362 0.8067935 0.711435 0.8067935 0.711435 0.8091434 0.6644362 0.8091434 0.711435 0.8091434 0.711435 0.8114934 0.6644362 0.8114934 0.711435 0.8114934 0.711435 0.8138433 0.6644362 0.8138433 0.9461344 0.7422704 0.9518072 0.739812 0.9577067 0.738982 0.9577067 0.738982 0.9636062 0.739812 0.9461344 0.7422704 0.9636062 0.739812 0.9692791 0.7422704 0.9461344 0.7422704 0.9692791 0.7422704 0.9745072 0.7462624 0.9790896 0.7516349 0.9790896 0.7516349 0.9828503 0.7581813 0.9856448 0.76565 0.9856448 0.76565 0.9873657 0.773754 0.9879466 0.7821819 0.9879466 0.7821819 0.9873657 0.7906098 0.9856448 0.76565 0.9873657 0.7906098 0.9856448 0.7987138 0.9856448 0.76565 0.9856448 0.7987138 0.9828503 0.8061826 0.9790896 0.812729 0.9790896 0.812729 0.9745072 0.8181014 0.9692791 0.8220935 0.9692791 0.8220935 0.9636062 0.8245519 0.9461344 0.8220935 0.9636062 0.8245519 0.9577067 0.8253819 0.9461344 0.8220935 0.9577067 0.8253819 0.9518072 0.8245519 0.9461344 0.8220935 0.9461344 0.8220935 0.9409062 0.8181014 0.9363238 0.812729 0.9363238 0.812729 0.9325631 0.8061826 0.9297686 0.7987138 0.9297686 0.7987138 0.9280478 0.7906098 0.9297686 0.76565 0.9280478 0.7906098 0.9274668 0.7821819 0.9297686 0.76565 0.9274668 0.7821819 0.9280478 0.773754 0.9297686 0.76565 0.9297686 0.76565 0.9325631 0.7581813 0.9363238 0.7516349 0.9363238 0.7516349 0.9409062 0.7462624 0.9461344 0.7422704 0.9692791 0.7422704 0.9790896 0.7516349 0.9461344 0.7422704 0.9790896 0.7516349 0.9856448 0.76565 0.9461344 0.7422704 0.9856448 0.7987138 0.9790896 0.812729 0.9856448 0.76565 0.9790896 0.812729 0.9692791 0.8220935 0.9856448 0.76565 0.9461344 0.8220935 0.9363238 0.812729 0.9692791 0.8220935 0.9363238 0.812729 0.9297686 0.7987138 0.9692791 0.8220935 0.9297686 0.76565 0.9363238 0.7516349 0.9297686 0.7987138 0.9363238 0.7516349 0.9461344 0.7422704 0.9297686 0.7987138 0.9461344 0.7422704 0.9856448 0.76565 0.9692791 0.8220935 0.711435 0.8138433 0.711435 0.8161932 0.6644362 0.8161932 0.711435 0.8161932 0.711435 0.8185432 0.6644362 0.8185432 0.9872917 0.7781029 0.9872917 0.7865223 0.9861366 0.7947799 0.9861366 0.7947799 0.9838705 0.8025585 0.9805808 0.8095589 0.9805808 0.8095589 0.9763937 0.8155123 0.9714702 0.82019 0.9714702 0.82019 0.9659997 0.8234118 0.9601921 0.8250544 0.9601921 0.8250544 0.9542707 0.8250544 0.948463 0.8234118 0.948463 0.8234118 0.9429925 0.8201899 0.938069 0.8155124 0.938069 0.8155124 0.9338819 0.8095589 0.9305922 0.8025585 0.9305922 0.8025585 0.9283262 0.7947799 0.927171 0.7865223 0.927171 0.7865223 0.927171 0.7781029 0.9283263 0.7698453 0.9283263 0.7698453 0.9305922 0.7620668 0.9338819 0.7550663 0.9338819 0.7550663 0.938069 0.749113 0.9429925 0.7444354 0.9429925 0.7444354 0.948463 0.7412135 0.9542707 0.7395709 0.9542707 0.7395709 0.9601921 0.7395709 0.9659997 0.7412135 0.9659997 0.7412135 0.9714702 0.7444354 0.9763937 0.7491129 0.9763937 0.7491129 0.9805808 0.7550663 0.9838705 0.7620668 0.9838705 0.7620668 0.9861366 0.7698453 0.9872917 0.7781029 0.9872917 0.7781029 0.9861366 0.7947799 0.9601921 0.8250544 0.9861366 0.7947799 0.9805808 0.8095589 0.9601921 0.8250544 0.9805808 0.8095589 0.9714702 0.82019 0.9601921 0.8250544 0.9601921 0.8250544 0.948463 0.8234118 0.927171 0.7865223 0.948463 0.8234118 0.938069 0.8155124 0.927171 0.7865223 0.938069 0.8155124 0.9305922 0.8025585 0.927171 0.7865223 0.927171 0.7865223 0.9283263 0.7698453 0.9542707 0.7395709 0.9283263 0.7698453 0.9338819 0.7550663 0.9542707 0.7395709 0.9338819 0.7550663 0.9429925 0.7444354 0.9542707 0.7395709 0.9542707 0.7395709 0.9659997 0.7412135 0.9872917 0.7781029 0.9659997 0.7412135 0.9763937 0.7491129 0.9872917 0.7781029 0.9763937 0.7491129 0.9838705 0.7620668 0.9872917 0.7781029 0.9872917 0.7781029 0.9601921 0.8250544 0.927171 0.7865223 0.9708158 0.7188127 0.9641038 0.7217189 0.9571235 0.7227003 0.9571235 0.7227003 0.9501433 0.7217189 0.9708158 0.7188127 0.9501433 0.7217189 0.9434313 0.7188127 0.9708158 0.7188127 0.9434313 0.7188127 0.9372454 0.7140932 0.9318235 0.7077419 0.9318235 0.7077419 0.9273738 0.7000027 0.9240674 0.6911731 0.9240674 0.6911731 0.9220313 0.6815925 0.9213439 0.671629 0.9213439 0.671629 0.9220313 0.6616654 0.9240674 0.6911731 0.9220313 0.6616654 0.9240674 0.6520848 0.9240674 0.6911731 0.9240674 0.6520848 0.9273738 0.6432552 0.9318235 0.6355161 0.9318235 0.6355161 0.9372454 0.6291648 0.9434313 0.6244452 0.9434313 0.6244452 0.9501433 0.6215389 0.9708158 0.6244452 0.9501433 0.6215389 0.9571235 0.6205576 0.9708158 0.6244452 0.9571235 0.6205576 0.9641038 0.6215389 0.9708158 0.6244452 0.9708158 0.6244452 0.9770017 0.6291648 0.9824236 0.6355161 0.9824236 0.6355161 0.9868733 0.6432552 0.9901796 0.6520848 0.9901796 0.6520848 0.9922158 0.6616654 0.9901796 0.6911731 0.9922158 0.6616654 0.9929032 0.671629 0.9901796 0.6911731 0.9929032 0.671629 0.9922158 0.6815925 0.9901796 0.6911731 0.9901796 0.6911731 0.9868733 0.7000027 0.9824236 0.7077419 0.9824236 0.7077419 0.9770017 0.7140932 0.9708158 0.7188127 0.9434313 0.7188127 0.9318235 0.7077419 0.9708158 0.7188127 0.9318235 0.7077419 0.9240674 0.6911731 0.9708158 0.7188127 0.9240674 0.6520848 0.9318235 0.6355161 0.9240674 0.6911731 0.9318235 0.6355161 0.9434313 0.6244452 0.9240674 0.6911731 0.9708158 0.6244452 0.9824236 0.6355161 0.9434313 0.6244452 0.9824236 0.6355161 0.9901796 0.6520848 0.9434313 0.6244452 0.9901796 0.6911731 0.9824236 0.7077419 0.9901796 0.6520848 0.9824236 0.7077419 0.9708158 0.7188127 0.9901796 0.6520848 0.9708158 0.7188127 0.9240674 0.6911731 0.9434313 0.6244452 0.8109402 0.8430613 0.8109402 0.8455216 0.7981162 0.8455216 0.568964 0.7534888 0.568964 0.7512491 0.5503841 0.7512491 0.8109402 0.8455216 0.8109402 0.8479818 0.7981162 0.8479818 0.568964 0.7557286 0.568964 0.7534888 0.5503841 0.7534888 0.8109402 0.8479818 0.8109402 0.8504421 0.7981162 0.8504421 0.568964 0.7579683 0.568964 0.7557286 0.5503841 0.7557286 0.8109402 0.8504421 0.8109402 0.8529024 0.7981162 0.8529024 0.568964 0.7602081 0.568964 0.7579683 0.5503841 0.7579683 0.8109402 0.8529024 0.8109402 0.8553627 0.7981162 0.8553627 0.568964 0.7624478 0.568964 0.7602081 0.5503841 0.7602081 0.8109402 0.8553627 0.8109402 0.857823 0.7981162 0.857823 0.568964 0.7646875 0.568964 0.7624478 0.5503841 0.7624478 0.8109402 0.857823 0.8109402 0.8602832 0.7981162 0.8602832 0.568964 0.7669273 0.568964 0.7646875 0.5503841 0.7646875 0.8109402 0.8602832 0.8109402 0.8627435 0.7981162 0.8627435 0.568964 0.769167 0.568964 0.7669273 0.5503841 0.7669273 0.8109402 0.8627435 0.8109402 0.8652037 0.7981162 0.8652037 0.568964 0.7714067 0.568964 0.769167 0.5503841 0.769167 0.8109402 0.8652037 0.8109402 0.867664 0.7981162 0.867664 0.568964 0.7736464 0.568964 0.7714067 0.5503841 0.7714067 0.8109402 0.867664 0.8109402 0.8701243 0.7981162 0.8701243 0.568964 0.7758862 0.568964 0.7736464 0.5503841 0.7736464 0.8109402 0.8701243 0.8109402 0.8725846 0.7981162 0.8725846 0.568964 0.7781259 0.568964 0.7758862 0.5503841 0.7758862 0.8109402 0.8725846 0.8109402 0.8750449 0.7981162 0.8750449 0.568964 0.7803657 0.568964 0.7781259 0.5503841 0.7781259 0.8109402 0.8750449 0.8109402 0.8775051 0.7981162 0.8775051 0.568964 0.7826054 0.568964 0.7803657 0.5503841 0.7803657 0.8109402 0.8775051 0.8109402 0.8799654 0.7981162 0.8799654 0.568964 0.7848451 0.568964 0.7826054 0.5503841 0.7826054 0.8109402 0.8799654 0.8109402 0.8824257 0.7981162 0.8824257 0.568964 0.7870848 0.568964 0.7848451 0.5503841 0.7848451 0.8109402 0.8824257 0.8109402 0.8848859 0.7981162 0.8848859 0.568964 0.7893245 0.568964 0.7870848 0.5503841 0.7870848 0.8109402 0.8848859 0.8109402 0.8873462 0.7981162 0.8873462 0.568964 0.7915643 0.568964 0.7893245 0.5503841 0.7893245 0.8109402 0.8873462 0.8109402 0.8898065 0.7981162 0.8898065 0.568964 0.793804 0.568964 0.7915643 0.5503841 0.7915643 0.8109402 0.8898065 0.8109402 0.8922668 0.7981162 0.8922668 0.568964 0.7960438 0.568964 0.793804 0.5503841 0.793804 0.8109402 0.8922668 0.8109402 0.8947271 0.7981162 0.8947271 0.568964 0.7982835 0.568964 0.7960438 0.5503841 0.7960438 0.8109402 0.8947271 0.8109402 0.8971873 0.7981162 0.8971873 0.568964 0.8005232 0.568964 0.7982835 0.5503841 0.7982835 0.8109402 0.8971873 0.8109402 0.8996476 0.7981162 0.8996476 0.568964 0.8027629 0.568964 0.8005232 0.5503841 0.8005232 0.8109402 0.8996476 0.8109402 0.9021078 0.7981162 0.9021078 0.568964 0.8050026 0.568964 0.8027629 0.5503841 0.8027629 0.8109402 0.9021078 0.8109402 0.9045681 0.7981162 0.9045681 0.568964 0.8072424 0.568964 0.8050026 0.5503841 0.8050026 0.8109402 0.9045681 0.8109402 0.9070284 0.7981162 0.9070284 0.568964 0.8094821 0.568964 0.8072424 0.5503841 0.8072424 0.8109402 0.9070284 0.8109402 0.9094887 0.7981162 0.9094887 0.568964 0.8117219 0.568964 0.8094821 0.5503841 0.8094821 0.8109402 0.9094887 0.8109402 0.9119489 0.7981162 0.9119489 0.7031784 0.4853885 0.75 0.49 0.7968217 0.4853885 0.7968217 0.4853885 0.841844 0.4717311 0.8833369 0.4495527 0.8833369 0.4495527 0.9197056 0.4197056 0.9495527 0.3833369 0.9495527 0.3833369 0.9717311 0.341844 0.9853885 0.2968217 0.9853885 0.2968217 0.99 0.25 0.9853885 0.2031783 0.9853885 0.2031783 0.9717311 0.1581559 0.9495527 0.1166631 0.9495527 0.1166631 0.9197056 0.08029437 0.8833369 0.05044728 0.8833369 0.05044728 0.841844 0.02826887 0.7968217 0.01461154 0.7968217 0.01461154 0.75 0.00999999 0.7031784 0.01461154 0.7031784 0.01461154 0.658156 0.02826887 0.6166632 0.05044728 0.6166632 0.05044728 0.5802944 0.08029437 0.5504473 0.1166631 0.5504473 0.1166631 0.5282689 0.1581559 0.5146116 0.2031783 0.5146116 0.2031783 0.51 0.25 0.5146116 0.2968217 0.5146116 0.2968217 0.5282689 0.341844 0.5504473 0.3833369 0.5504473 0.3833369 0.5802944 0.4197056 0.6166632 0.4495527 0.6166632 0.4495527 0.658156 0.4717311 0.7031784 0.4853885 0.7031784 0.4853885 0.7968217 0.4853885 0.9853885 0.2968217 0.7968217 0.4853885 0.8833369 0.4495527 0.9853885 0.2968217 0.8833369 0.4495527 0.9495527 0.3833369 0.9853885 0.2968217 0.9853885 0.2968217 0.9853885 0.2031783 0.7968217 0.01461154 0.9853885 0.2031783 0.9495527 0.1166631 0.7968217 0.01461154 0.9495527 0.1166631 0.8833369 0.05044728 0.7968217 0.01461154 0.7968217 0.01461154 0.7031784 0.01461154 0.5146116 0.2031783 0.7031784 0.01461154 0.6166632 0.05044728 0.5146116 0.2031783 0.6166632 0.05044728 0.5504473 0.1166631 0.5146116 0.2031783 0.5146116 0.2031783 0.5146116 0.2968217 0.7031784 0.4853885 0.5146116 0.2968217 0.5504473 0.3833369 0.7031784 0.4853885 0.5504473 0.3833369 0.6166632 0.4495527 0.7031784 0.4853885 0.7031784 0.4853885 0.9853885 0.2968217 0.7968217 0.01461154 0.568964 0.8139616 0.568964 0.8117219 0.5503841 0.8117219 0.8109402 0.9119489 0.8109402 0.9144092 0.7981162 0.9144092 0.568964 0.7490094 0.568964 0.7467697 0.5503841 0.7467697 0.568964 0.8162013 0.568964 0.8139616 0.5503841 0.8139616 0.8109402 0.9144092 0.8109402 0.9168695 0.7981162 0.9168695 0.341844 0.4717311 0.2968217 0.4853885 0.25 0.49 0.25 0.49 0.2031783 0.4853885 0.341844 0.4717311 0.2031783 0.4853885 0.1581559 0.4717311 0.341844 0.4717311 0.1581559 0.4717311 0.1166631 0.4495527 0.08029437 0.4197056 0.08029437 0.4197056 0.05044728 0.3833369 0.02826893 0.341844 0.02826893 0.341844 0.01461154 0.2968217 0.00999999 0.25 0.00999999 0.25 0.01461154 0.2031783 0.02826893 0.1581559 0.02826893 0.1581559 0.05044728 0.1166631 0.08029437 0.08029437 0.08029437 0.08029437 0.1166631 0.05044728 0.1581559 0.02826893 0.1581559 0.02826893 0.2031783 0.01461154 0.341844 0.02826893 0.2031783 0.01461154 0.25 0.00999999 0.341844 0.02826893 0.25 0.00999999 0.2968217 0.01461154 0.341844 0.02826893 0.341844 0.02826893 0.3833369 0.05044728 0.4197056 0.08029437 0.4197056 0.08029437 0.4495527 0.1166631 0.341844 0.02826893 0.4495527 0.1166631 0.4717311 0.1581559 0.341844 0.02826893 0.4717311 0.1581559 0.4853885 0.2031783 0.49 0.25 0.49 0.25 0.4853885 0.2968217 0.4717311 0.1581559 0.4853885 0.2968217 0.4717311 0.341844 0.4717311 0.1581559 0.4717311 0.341844 0.4495527 0.3833369 0.341844 0.4717311 0.4495527 0.3833369 0.4197056 0.4197056 0.341844 0.4717311 0.4197056 0.4197056 0.3833369 0.4495527 0.341844 0.4717311 0.1581559 0.4717311 0.08029437 0.4197056 0.341844 0.4717311 0.08029437 0.4197056 0.02826893 0.341844 0.341844 0.4717311 0.02826893 0.341844 0.00999999 0.25 0.02826893 0.1581559 0.02826893 0.1581559 0.08029437 0.08029437 0.1581559 0.02826893 0.02826893 0.341844 0.02826893 0.1581559 0.1581559 0.02826893 0.1581559 0.02826893 0.341844 0.02826893 0.4717311 0.1581559 0.4717311 0.1581559 0.4717311 0.341844 0.341844 0.4717311 0.341844 0.4717311 0.02826893 0.341844 0.4717311 0.1581559 0.568964 0.818441 0.568964 0.8162013 0.5503841 0.8162013 0.8109402 0.9168695 0.8109402 0.9193298 0.7981162 0.9193298 0.568964 0.7512491 0.568964 0.7490094 0.5503841 0.7490094 0.8109402 0.9193298 0.8109402 0.9217901 0.7981162 0.9217901 0.7031784 0.4853885 0.75 0.49 0.7968217 0.4853885 0.7968217 0.4853885 0.841844 0.4717311 0.8833369 0.4495527 0.8833369 0.4495527 0.9197056 0.4197056 0.9495527 0.3833369 0.9495527 0.3833369 0.9717311 0.341844 0.9853885 0.2968217 0.9853885 0.2968217 0.99 0.25 0.9853885 0.2031783 0.9853885 0.2031783 0.9717311 0.1581559 0.9495527 0.1166631 0.9495527 0.1166631 0.9197056 0.08029437 0.8833369 0.05044728 0.8833369 0.05044728 0.841844 0.02826893 0.7968217 0.01461154 0.7968217 0.01461154 0.75 0.00999999 0.7031784 0.01461154 0.7031784 0.01461154 0.658156 0.02826893 0.6166632 0.05044728 0.6166632 0.05044728 0.5802944 0.08029437 0.5504474 0.1166631 0.5504474 0.1166631 0.5282689 0.1581559 0.6166632 0.05044728 0.5282689 0.1581559 0.5146116 0.2031783 0.6166632 0.05044728 0.5146116 0.2031783 0.51 0.25 0.5146116 0.2968217 0.5146116 0.2968217 0.5282689 0.341844 0.5146116 0.2031783 0.5282689 0.341844 0.5504474 0.3833369 0.5146116 0.2031783 0.5504474 0.3833369 0.5802944 0.4197056 0.7031784 0.4853885 0.5802944 0.4197056 0.6166632 0.4495527 0.7031784 0.4853885 0.6166632 0.4495527 0.658156 0.4717311 0.7031784 0.4853885 0.7031784 0.4853885 0.7968217 0.4853885 0.9853885 0.2968217 0.7968217 0.4853885 0.8833369 0.4495527 0.9853885 0.2968217 0.8833369 0.4495527 0.9495527 0.3833369 0.9853885 0.2968217 0.9853885 0.2968217 0.9853885 0.2031783 0.7968217 0.01461154 0.9853885 0.2031783 0.9495527 0.1166631 0.7968217 0.01461154 0.9495527 0.1166631 0.8833369 0.05044728 0.7968217 0.01461154 0.7968217 0.01461154 0.7031784 0.01461154 0.5146116 0.2031783 0.7031784 0.01461154 0.6166632 0.05044728 0.5146116 0.2031783 0.5146116 0.2031783 0.5504474 0.3833369 0.7031784 0.4853885 0.7031784 0.4853885 0.9853885 0.2968217 0.7968217 0.01461154</float_array>
          <technique_common>
            <accessor source="#Cylinder-mesh-map-0-array" count="1116" stride="2">
              <param name="S" type="float"/>
              <param name="T" type="float"/>
            </accessor>
          </technique_common>
        </source>
        <vertices id="Cylinder-mesh-vertices">
          <input semantic="POSITION" source="#Cylinder-mesh-positions"/>
        </vertices>
        <triangles material="Material_001-material" count="372">
          <input semantic="VERTEX" source="#Cylinder-mesh-vertices" offset="0"/>
          <input semantic="NORMAL" source="#Cylinder-mesh-normals" offset="1"/>
          <input semantic="TEXCOORD" source="#Cylinder-mesh-map-0" offset="2" set="0"/>
          <p>1 0 0 2 0 1 0 0 2 3 1 3 4 1 4 2 1 5 5 2 6 6 2 7 4 2 8 7 3 9 8 3 10 6 3 11 9 4 12 10 4 13 8 4 14 11 5 15 12 5 16 10 5 17 13 6 18 14 6 19 12 6 20 15 7 21 16 7 22 14 7 23 17 8 24 18 8 25 16 8 26 19 9 27 20 9 28 18 9 29 21 10 30 22 10 31 20 10 32 23 11 33 24 11 34 22 11 35 25 12 36 26 12 37 24 12 38 27 13 39 28 13 40 26 13 41 29 14 42 30 14 43 28 14 44 31 15 45 32 15 46 30 15 47 33 16 48 34 16 49 32 16 50 35 17 51 36 17 52 34 17 53 37 18 54 38 18 55 36 18 56 39 19 57 40 19 58 38 19 59 41 20 60 42 20 61 40 20 62 43 21 63 44 21 64 42 21 65 45 22 66 46 22 67 44 22 68 47 23 69 48 23 70 46 23 71 49 24 72 50 24 73 48 24 74 51 25 75 52 25 76 50 25 77 53 26 78 54 26 79 52 26 80 55 27 81 56 27 82 54 27 83 57 28 84 58 28 85 56 28 86 59 29 87 60 29 88 58 29 89 37 30 90 21 30 91 5 30 92 61 31 93 62 31 94 60 31 95 63 32 96 0 32 97 62 32 98 30 33 99 46 33 100 62 33 101 165 30 102 149 30 103 133 30 104 67 34 105 68 34 106 66 34 107 187 35 108 188 35 109 186 35 110 69 36 111 70 36 112 68 36 113 185 37 114 186 37 115 184 37 116 71 38 117 72 38 118 70 38 119 183 39 120 184 39 121 182 39 122 73 40 123 74 40 124 72 40 125 181 41 126 182 41 127 180 41 128 75 42 129 76 42 130 74 42 131 179 43 132 180 43 133 178 43 134 77 44 135 78 44 136 76 44 137 177 45 138 178 45 139 176 45 140 79 46 141 80 46 142 78 46 143 175 47 144 176 47 145 174 47 146 81 48 147 82 48 148 80 48 149 173 49 150 174 49 151 172 49 152 83 50 153 84 50 154 82 50 155 171 51 156 172 51 157 170 51 158 85 52 159 86 52 160 84 52 161 169 53 162 170 53 163 168 53 164 87 54 165 88 54 166 86 54 167 167 55 168 168 55 169 166 55 170 89 11 171 90 11 172 88 11 173 165 56 174 166 56 175 164 56 176 91 57 177 92 57 178 90 57 179 163 58 180 164 58 181 162 58 182 93 59 183 94 59 184 92 59 185 161 60 186 162 60 187 160 60 188 95 61 189 96 61 190 94 61 191 159 62 192 160 62 193 158 62 194 97 63 195 98 63 196 96 63 197 157 64 198 158 64 199 156 64 200 99 65 201 100 65 202 98 65 203 155 66 204 156 66 205 154 66 206 101 67 207 102 67 208 100 67 209 153 68 210 154 68 211 152 68 212 103 18 213 104 18 214 102 18 215 151 69 216 152 69 217 150 69 218 105 70 219 106 70 220 104 70 221 149 71 222 150 71 223 148 71 224 107 72 225 108 72 226 106 72 227 147 73 228 148 73 229 146 73 230 109 74 231 110 74 232 108 74 233 145 75 234 146 75 235 144 75 236 111 76 237 112 76 238 110 76 239 143 77 240 144 77 241 142 77 242 113 78 243 114 78 244 112 78 245 141 79 246 142 79 247 140 79 248 115 80 249 116 80 250 114 80 251 139 81 252 140 81 253 138 81 254 117 82 255 118 82 256 116 82 257 137 83 258 138 83 259 136 83 260 119 84 261 120 84 262 118 84 263 135 85 264 136 85 265 134 85 266 121 86 267 122 86 268 120 86 269 158 87 270 174 87 271 190 87 272 133 88 273 134 88 274 132 88 275 123 89 276 124 89 277 122 89 278 191 90 279 65 90 280 190 90 281 131 91 282 132 91 283 130 91 284 125 92 285 126 92 286 124 92 287 119 93 288 103 93 289 87 93 290 64 94 291 130 94 292 65 94 293 127 95 294 128 95 295 126 95 296 189 96 297 190 96 298 188 96 299 129 97 300 66 97 301 128 97 302 96 98 303 112 98 304 128 98 305 1 0 306 3 0 307 2 0 308 3 99 309 5 99 310 4 99 311 5 2 312 7 2 313 6 2 314 7 3 315 9 3 316 8 3 317 9 100 318 11 100 319 10 100 320 11 101 321 13 101 322 12 101 323 13 6 324 15 6 325 14 6 326 15 102 327 17 102 328 16 102 329 17 103 330 19 103 331 18 103 332 19 9 333 21 9 334 20 9 335 21 104 336 23 104 337 22 104 338 23 105 339 25 105 340 24 105 341 25 12 342 27 12 343 26 12 344 27 13 345 29 13 346 28 13 347 29 64 348 31 64 349 30 64 350 31 15 351 33 15 352 32 15 353 33 16 354 35 16 355 34 16 356 35 106 357 37 106 358 36 106 359 37 18 360 39 18 361 38 18 362 39 19 363 41 19 364 40 19 365 41 107 366 43 107 367 42 107 368 43 108 369 45 108 370 44 108 371 45 22 372 47 22 373 46 22 374 47 109 375 49 109 376 48 109 377 49 110 378 51 110 379 50 110 380 51 25 381 53 25 382 52 25 383 53 111 384 55 111 385 54 111 386 55 112 387 57 112 388 56 112 389 57 28 390 59 28 391 58 28 392 59 29 393 61 29 394 60 29 395 5 113 396 3 113 397 1 113 398 1 114 399 63 114 400 5 114 401 63 114 402 61 114 403 5 114 404 61 115 405 59 115 406 57 115 407 57 114 408 55 114 409 53 114 410 53 116 411 51 116 412 49 116 413 49 117 414 47 117 415 53 117 416 47 114 417 45 114 418 53 114 419 45 114 420 43 114 421 41 114 422 41 115 423 39 115 424 37 115 425 37 114 426 35 114 427 29 114 428 35 114 429 33 114 430 29 114 431 33 114 432 31 114 433 29 114 434 29 118 435 27 118 436 25 118 437 25 114 438 23 114 439 21 114 440 21 119 441 19 119 442 13 119 443 19 114 444 17 114 445 13 114 446 17 120 447 15 120 448 13 120 449 13 114 450 11 114 451 9 114 452 9 118 453 7 118 454 5 118 455 61 114 456 57 114 457 5 114 458 57 114 459 53 114 460 5 114 461 45 114 462 41 114 463 53 114 464 41 114 465 37 114 466 53 114 467 29 114 468 25 114 469 37 114 470 25 114 471 21 114 472 37 114 473 13 114 474 9 114 475 21 114 476 9 114 477 5 114 478 21 114 479 5 121 480 53 121 481 37 121 482 61 96 483 63 96 484 62 96 485 63 32 486 1 32 487 0 32 488 62 33 489 0 33 490 2 33 491 2 33 492 4 33 493 6 33 494 6 33 495 8 33 496 10 33 497 10 33 498 12 33 499 14 33 500 14 33 501 16 33 502 18 33 503 18 33 504 20 33 505 22 33 506 22 33 507 24 33 508 26 33 509 26 33 510 28 33 511 30 33 512 30 33 513 32 33 514 34 33 515 34 33 516 36 33 517 38 33 518 38 33 519 40 33 520 42 33 521 42 33 522 44 33 523 46 33 524 46 33 525 48 33 526 50 33 527 50 33 528 52 33 529 54 33 530 54 33 531 56 33 532 58 33 533 58 33 534 60 33 535 62 33 536 62 33 537 2 33 538 14 33 539 2 122 540 6 122 541 14 122 542 6 123 543 10 123 544 14 123 545 14 124 546 18 124 547 30 124 548 18 125 549 22 125 550 30 125 551 22 33 552 26 33 553 30 33 554 30 33 555 34 33 556 46 33 557 34 126 558 38 126 559 46 126 560 38 127 561 42 127 562 46 127 563 46 128 564 50 128 565 62 128 566 50 129 567 54 129 568 62 129 569 54 33 570 58 33 571 62 33 572 62 33 573 14 33 574 30 33 575 133 114 576 131 114 577 64 114 578 64 114 579 191 114 580 133 114 581 191 114 582 189 114 583 133 114 584 189 130 585 187 130 586 185 130 587 185 131 588 183 131 589 181 131 590 181 116 591 179 116 592 177 116 593 177 114 594 175 114 595 181 114 596 175 132 597 173 132 598 181 132 599 173 131 600 171 131 601 169 131 602 169 130 603 167 130 604 165 130 605 165 114 606 163 114 607 157 114 608 163 114 609 161 114 610 157 114 611 161 114 612 159 114 613 157 114 614 157 133 615 155 133 616 153 133 617 153 120 618 151 120 619 149 120 620 149 134 621 147 134 622 141 134 623 147 135 624 145 135 625 141 135 626 145 120 627 143 120 628 141 120 629 141 120 630 139 120 631 137 120 632 137 133 633 135 133 634 133 133 635 189 114 636 185 114 637 133 114 638 185 114 639 181 114 640 133 114 641 173 114 642 169 114 643 181 114 644 169 114 645 165 114 646 181 114 647 157 114 648 153 114 649 165 114 650 153 114 651 149 114 652 165 114 653 141 114 654 137 114 655 149 114 656 137 114 657 133 114 658 149 114 659 133 121 660 181 121 661 165 121 662 67 136 663 69 136 664 68 136 665 187 137 666 189 137 667 188 137 668 69 138 669 71 138 670 70 138 671 185 89 672 187 89 673 186 89 674 71 139 675 73 139 676 72 139 677 183 39 678 185 39 679 184 39 680 73 140 681 75 140 682 74 140 683 181 141 684 183 141 685 182 141 686 75 142 687 77 142 688 76 142 689 179 143 690 181 143 691 180 143 692 77 144 693 79 144 694 78 144 695 177 45 696 179 45 697 178 45 698 79 145 699 81 145 700 80 145 701 175 47 702 177 47 703 176 47 704 81 48 705 83 48 706 82 48 707 173 146 708 175 146 709 174 146 710 83 147 711 85 147 712 84 147 713 171 148 714 173 148 715 172 148 716 85 149 717 87 149 718 86 149 719 169 53 720 171 53 721 170 53 722 87 150 723 89 150 724 88 150 725 167 151 726 169 151 727 168 151 728 89 152 729 91 152 730 90 152 731 165 153 732 167 153 733 166 153 734 91 154 735 93 154 736 92 154 737 163 155 738 165 155 739 164 155 740 93 156 741 95 156 742 94 156 743 161 60 744 163 60 745 162 60 746 95 157 747 97 157 748 96 157 749 159 62 750 161 62 751 160 62 752 97 158 753 99 158 754 98 158 755 157 159 756 159 159 757 158 159 758 99 160 759 101 160 760 100 160 761 155 161 762 157 161 763 156 161 764 101 162 765 103 162 766 102 162 767 153 163 768 155 163 769 154 163 770 103 164 771 105 164 772 104 164 773 151 69 774 153 69 775 152 69 776 105 55 777 107 55 778 106 55 779 149 165 780 151 165 781 150 165 782 107 166 783 109 166 784 108 166 785 147 52 786 149 52 787 148 52 788 109 167 789 111 167 790 110 167 791 145 75 792 147 75 793 146 75 794 111 168 795 113 168 796 112 168 797 143 77 798 145 77 799 144 77 800 113 169 801 115 169 802 114 169 803 141 170 804 143 170 805 142 170 806 115 80 807 117 80 808 116 80 809 139 171 810 141 171 811 140 171 812 117 172 813 119 172 814 118 172 815 137 83 816 139 83 817 138 83 818 119 173 819 121 173 820 120 173 821 135 174 822 137 174 823 136 174 824 121 175 825 123 175 826 122 175 827 190 33 828 65 33 829 130 33 830 130 176 831 132 176 832 134 176 833 134 33 834 136 33 835 138 33 836 138 33 837 140 33 838 142 33 839 142 33 840 144 33 841 146 33 842 146 33 843 148 33 844 150 33 845 150 33 846 152 33 847 154 33 848 154 176 849 156 176 850 158 176 851 158 33 852 160 33 853 162 33 854 162 177 855 164 177 856 166 177 857 166 33 858 168 33 859 170 33 860 170 33 861 172 33 862 174 33 863 174 33 864 176 33 865 178 33 866 178 33 867 180 33 868 182 33 869 182 33 870 184 33 871 186 33 872 186 177 873 188 177 874 190 177 875 190 33 876 130 33 877 142 33 878 130 126 879 134 126 880 142 126 881 134 127 882 138 127 883 142 127 884 142 128 885 146 128 886 158 128 887 146 129 888 150 129 889 158 129 890 150 178 891 154 178 892 158 178 893 158 33 894 162 33 895 174 33 896 162 122 897 166 122 898 174 122 899 166 123 900 170 123 901 174 123 902 174 124 903 178 124 904 190 124 905 178 125 906 182 125 907 190 125 908 182 179 909 186 179 910 190 179 911 190 180 912 142 180 913 158 180 914 133 181 915 135 181 916 134 181 917 123 182 918 125 182 919 124 182 920 191 90 921 64 90 922 65 90 923 131 183 924 133 183 925 132 183 926 125 184 927 127 184 928 126 184 929 71 185 930 69 185 931 67 185 932 67 186 933 129 186 934 71 186 935 129 114 936 127 114 937 71 114 938 127 114 939 125 114 940 123 114 941 123 187 942 121 187 943 119 187 944 119 114 945 117 114 946 115 114 947 115 114 948 113 114 949 111 114 950 111 188 951 109 188 952 107 188 953 107 114 954 105 114 955 103 114 956 103 114 957 101 114 958 95 114 959 101 114 960 99 114 961 95 114 962 99 189 963 97 189 964 95 189 965 95 114 966 93 114 967 91 114 968 91 114 969 89 114 970 95 114 971 89 114 972 87 114 973 95 114 974 87 114 975 85 114 976 83 114 977 83 190 978 81 190 979 87 190 980 81 114 981 79 114 982 87 114 983 79 114 984 77 114 985 71 114 986 77 191 987 75 191 988 71 191 989 75 114 990 73 114 991 71 114 992 127 114 993 123 114 994 71 114 995 123 192 996 119 192 997 71 192 998 119 114 999 115 114 1000 111 114 1001 111 193 1002 107 193 1003 103 193 1004 119 194 1005 111 194 1006 103 194 1007 103 114 1008 95 114 1009 87 114 1010 87 195 1011 79 195 1012 71 195 1013 71 196 1014 119 196 1015 87 196 1016 64 94 1017 131 94 1018 130 94 1019 127 197 1020 129 197 1021 128 197 1022 189 198 1023 191 198 1024 190 198 1025 129 199 1026 67 199 1027 66 199 1028 128 33 1029 66 33 1030 68 33 1031 68 33 1032 70 33 1033 72 33 1034 72 200 1035 74 200 1036 76 200 1037 76 201 1038 78 201 1039 80 201 1040 80 33 1041 82 33 1042 84 33 1043 84 202 1044 86 202 1045 88 202 1046 88 200 1047 90 200 1048 92 200 1049 92 33 1050 94 33 1051 96 33 1052 96 33 1053 98 33 1054 100 33 1055 100 33 1056 102 33 1057 104 33 1058 104 203 1059 106 203 1060 108 203 1061 108 33 1062 110 33 1063 104 33 1064 110 33 1065 112 33 1066 104 33 1067 112 33 1068 114 33 1069 116 33 1070 116 33 1071 118 33 1072 112 33 1073 118 33 1074 120 33 1075 112 33 1076 120 33 1077 122 33 1078 128 33 1079 122 33 1080 124 33 1081 128 33 1082 124 33 1083 126 33 1084 128 33 1085 128 33 1086 68 33 1087 80 33 1088 68 33 1089 72 33 1090 80 33 1091 72 204 1092 76 204 1093 80 204 1094 80 205 1095 84 205 1096 96 205 1097 84 206 1098 88 206 1099 96 206 1100 88 207 1101 92 207 1102 96 207 1103 96 33 1104 100 33 1105 112 33 1106 100 33 1107 104 33 1108 112 33 1109 112 208 1110 120 208 1111 128 208 1112 128 209 1113 80 209 1114 96 209 1115</p>
        </triangles>
      </mesh>
    </geometry>
  </library_geometries>
  <library_visual_scenes>
    <visual_scene id="Scene" name="Scene">
      <node id="Cylinder" name="Cylinder" type="NODE">
        <matrix sid="transform">0.112 0 0 0 0 0.112 0 0 0 0 0.238 0 0 0 0 1</matrix>
        <instance_geometry url="#Cylinder-mesh" name="Cylinder">
          <bind_material>
            <technique_common>
              <instance_material symbol="Material_001-material" target="#Material_001-material">
                <bind_vertex_input semantic="UVMap" input_semantic="TEXCOORD" input_set="0"/>
              </instance_material>
            </technique_common>
          </bind_material>
        </instance_geometry>
      </node>
    </visual_scene>
  </library_visual_scenes>
  <scene>
    <instance_visual_scene url="#Scene"/>
  </scene>
</COLLADA>