<?xml version="1.0" encoding="utf-8"?>
<COLLADA xmlns="http://www.collada.org/2005/11/COLLADASchema" version="1.4.1" xmlns:xsi="http://www.w3.org/2001/XMLSchema-instance">
  <asset>
    <contributor>
      <author>Blender User</author>
      <authoring_tool>Blender 4.3.1 commit date:2024-12-10, commit time:07:46, hash:33d812126174</authoring_tool>
    </contributor>
    <created>2026-09-25T15:58:11</created>
    <modified>2026-09-25T15:58:11</modified>
    <unit name="meter" meter="1"/>
    <up_axis>Z_UP</up_axis>
  </asset>
  <library_effects>
    <effect id="Material_006-effect">
      <profile_COMMON>
        <newparam sid="mla_struct_png-surface">
          <surface type="2D">
            <init_from>mla_struct_png</init_from>
          </surface>
        </newparam>
        <newparam sid="mla_struct_png-sampler">
          <sampler2D>
            <source>mla_struct_png-surface</source>
          </sampler2D>
        </newparam>
        <technique sid="common">
          <lambert>
            <emission>
              <color sid="emission">0 0 0 1</color>
            </emission>
            <diffuse>
              <texture texture="mla_struct_png-sampler" texcoord="Cylinder_001-mesh-map-0"/>
            </diffuse>
            <index_of_refraction>
              <float sid="ior">1.5</float>
            </index_of_refraction>
          </lambert>
        </technique>
      </profile_COMMON>
    </effect>
  </library_effects>
  <library_images>
    <image id="mla_struct_png" name="mla_struct_png">
      <init_from>/home/welton/snap/0ad/743/.local/share/0ad/mods/mars_wars/art/textures/skins/structural/mla_struct.png</init_from>
    </image>
  </library_images>
  <library_materials>
    <material id="Material_006-material" name="Material.006">
      <instance_effect url="#Material_006-effect"/>
    </material>
  </library_materials>
  <library_geometries>
    <geometry id="Cylinder_001-mesh" name="Cylinder.001">
      <mesh>
        <source id="Cylinder_001-mesh-positions">
          <float_array id="Cylinder_001-mesh-positions-array" count="720">-0.8978205 0.9097563 14.12755 0.005527675 1.283936 14.12755 0.005527675 -1.271117 14.12755 -0.8978205 -0.8969404 14.12755 0.9088768 0.9097563 14.12755 -1.271997 0.006408095 14.12755 1.283056 0.006408095 14.12755 0.9088768 -0.8969404 14.12755 -0.8687274 0.8806638 0.8493031 0.005527555 1.242793 0.8493031 0.005527555 -1.229974 0.8493031 -0.8687276 -0.8678476 0.8493031 0.879784 0.8806635 0.8493031 -1.230854 0.006407976 0.8493031 1.241913 0.006407976 0.8493031 0.8797842 -0.8678473 0.8493031 -0.6416611 0.653594 15.92041 0.005527675 0.9216688 15.92041 0.005527675 -0.9088542 15.92041 -0.6416611 -0.6407811 15.92041 0.6527144 0.653594 15.92041 -0.9097348 0.006408095 15.92041 0.9207888 0.006408095 15.92041 0.6527144 -0.6407811 15.92041 -0.2457333 0.2576685 16.95648 0.005527675 0.3617439 16.95648 0.005527675 -0.3489271 16.95648 -0.2457333 -0.2448528 16.95648 0.2567886 0.2576685 16.95648 -0.3498075 0.006408095 16.95648 0.3608635 0.006408095 16.95648 0.2567886 -0.2448528 16.95648 0.005527496 -1.574912 0.8493031 1.123692 -1.111756 0.8493031 -1.112636 -1.111756 0.8493031 -1.575792 0.006408035 0.8493031 -1.112636 1.124571 0.8493031 1.123692 1.124571 0.8493031 1.586851 0.006408035 0.8493031 0.005527496 1.587731 0.8493031 0.005527853 -0.8239374 1.102557 0.5926728 -0.5807358 1.102557 -0.581616 -0.5807361 1.102557 -0.8248174 0.006408154 1.102557 -0.5816159 0.5935524 1.102557 0.5926727 0.5935522 1.102557 0.8358757 0.006408154 1.102557 0.005527853 0.8367559 1.102557 0.006106019 -0.4346163 1.325215 0.3192585 -0.3049052 1.325215 -0.3070458 -0.3049053 1.325215 -0.4367568 0.00824666 1.325215 -0.3070458 0.3213988 1.325215 0.3192584 0.3213987 1.325215 0.4489702 0.00824666 1.325215 0.006106019 0.4511108 1.325215 0.006106078 -0.2772716 0.7386271 0.2079989 -0.1936454 0.7386271 -0.1957861 -0.1936456 0.7386271 -0.2794121 0.00824666 0.7386271 -0.1957859 0.2101393 0.7386271 0.2079988 0.2101391 0.7386271 0.2916254 0.00824666 0.7386271 0.006106078 0.2937659 0.7386271 0.006106019 -0.4346163 0.7386271 0.3192585 -0.3049052 0.7386271 -0.3070458 -0.3049053 0.7386271 -0.4367568 0.00824666 0.7386271 -0.3070458 0.3213988 0.7386271 0.3192584 0.3213987 0.7386271 0.4489702 0.00824666 0.7386271 0.006106019 0.4511108 0.7386271 0.01436007 -0.251016 0.8140761 0.2162529 -0.1673898 0.8140761 -0.1875321 -0.1673899 0.8140761 -0.271158 0.03450226 0.8140761 -0.1875319 0.236395 0.8140761 0.2162528 0.2363947 0.8140761 0.2998793 0.03450226 0.8140761 0.01436007 0.3200216 0.8140761 0.1615547 -1.363451 4.301537 0.2237353 -1.363451 0.4757103 0.1615547 -2.529747 1.857307 0.1615547 -2.529747 0.4757103 -0.1618756 -1.363451 4.301537 -0.2240562 -1.363451 0.4757103 -0.1618756 -2.529747 1.857307 -0.1618756 -2.529747 0.4757103 0.1615547 1.364892 4.301537 0.2237353 1.364892 0.4757103 0.1615547 2.531188 1.857307 0.1615547 2.531188 0.4757103 -0.1618756 1.364892 4.301537 -0.2240562 1.364892 0.4757103 -0.1618756 2.531188 1.857307 -0.1618756 2.531188 0.4757103 1.364011 0.1624354 4.301537 1.364011 0.2246159 0.4757103 2.530307 0.1624354 1.857307 2.530307 0.1624354 0.4757103 1.364011 -0.1609949 4.301537 1.364011 -0.2231755 0.4757103 2.530307 -0.1609948 1.857307 2.530307 -0.1609948 0.4757103 -1.364332 0.1624353 4.301537 -1.364332 0.2246159 0.4757103 -2.530628 0.1624352 1.857307 -2.530628 0.1624352 0.4757103 -1.364332 -0.160995 4.301537 -1.364332 -0.2231756 0.4757103 -2.530628 -0.1609951 1.857307 -2.530628 -0.1609951 0.4757103 -0.9397632 -0.4346163 1.393863 -0.6266108 -0.3049052 1.393863 -1.252915 -0.3049053 1.393863 -1.382626 0.00824666 1.393863 -1.252915 0.3213988 1.393863 -0.6266109 0.3213987 1.393863 -0.496899 0.00824666 1.393863 -0.9397632 0.4511108 1.393863 -0.9397632 -0.2772716 0.8072745 -0.7378703 -0.1936454 0.8072745 -1.141655 -0.1936456 0.8072745 -1.225281 0.00824666 0.8072745 -1.141655 0.2101393 0.8072745 -0.7378705 0.2101391 0.8072745 -0.6542438 0.00824666 0.8072745 -0.9397632 0.2937659 0.8072745 -0.9397632 -0.4346163 0.8072745 -0.6266108 -0.3049052 0.8072745 -1.252915 -0.3049053 0.8072745 -1.382626 0.00824666 0.8072745 -1.252915 0.3213988 0.8072745 -0.6266109 0.3213987 0.8072745 -0.496899 0.00824666 0.8072745 -0.9397632 0.4511108 0.8072745 -0.9315093 -0.251016 0.8827235 -0.7296164 -0.1673898 0.8827235 -1.133401 -0.1673899 0.8827235 -1.217027 0.03450226 0.8827235 -1.133401 0.236395 0.8827235 -0.7296166 0.2363947 0.8827235 -0.6459899 0.03450226 0.8827235 -0.9315093 0.3200216 0.8827235 0.9394423 -0.4346163 1.393863 0.6262899 -0.3049052 1.393863 1.252594 -0.3049053 1.393863 1.382305 0.00824666 1.393863 1.252594 0.3213988 1.393863 0.62629 0.3213987 1.393863 0.4965782 0.00824666 1.393863 0.9394423 0.4511108 1.393863 0.9394423 -0.2772716 0.8072745 0.7375494 -0.1936454 0.8072745 1.141335 -0.1936456 0.8072745 1.22496 0.00824666 0.8072745 1.141334 0.2101393 0.8072745 0.7375497 0.2101391 0.8072745 0.653923 0.00824666 0.8072745 0.9394423 0.2937659 0.8072745 0.9394423 -0.4346163 0.8072745 0.6262899 -0.3049052 0.8072745 1.252594 -0.3049053 0.8072745 1.382305 0.00824666 0.8072745 1.252594 0.3213988 0.8072745 0.62629 0.3213987 0.8072745 0.4965782 0.00824666 0.8072745 0.9394423 0.4511108 0.8072745 0.9311883 -0.251016 0.8827235 0.7292955 -0.1673898 0.8827235 1.13308 -0.1673899 0.8827235 1.216706 0.03450226 0.8827235 1.13308 0.236395 0.8827235 0.7292956 0.2363947 0.8827235 0.6456689 0.03450226 0.8827235 0.9311883 0.3200216 0.8827235 0.4351761 -0.9388825 1.393863 0.305465 -0.6257302 1.393863 0.3054652 -1.252035 1.393863 -0.007686853 -1.381745 1.393863 -0.3208389 -1.252034 1.393863 -0.3208389 -0.6257303 1.393863 -0.007686913 -0.4960184 1.393863 -0.450551 -0.9388825 1.393863 0.2778314 -0.9388825 0.8072745 0.1942052 -0.7369897 0.8072745 0.1942054 -1.140775 0.8072745 -0.007686853 -1.224401 0.8072745 -0.2095795 -1.140775 0.8072745 -0.2095793 -0.7369899 0.8072745 -0.007686853 -0.6533632 0.8072745 -0.2932061 -0.9388825 0.8072745 0.4351761 -0.9388825 0.8072745 0.305465 -0.6257302 0.8072745 0.3054652 -1.252035 0.8072745 -0.007686853 -1.381745 0.8072745 -0.3208389 -1.252034 0.8072745 -0.3208389 -0.6257303 0.8072745 -0.007686913 -0.4960184 0.8072745 -0.450551 -0.9388825 0.8072745 0.2515757 -0.9306286 0.8827235 0.1679496 -0.7287356 0.8827235 0.1679497 -1.132521 0.8827235 -0.03394252 -1.216147 0.8827235 -0.2358351 -1.132521 0.8827235 -0.235835 -0.7287359 0.8827235 -0.03394252 -0.6451092 0.8827235 -0.3194618 -0.9306286 0.8827235 0.435176 0.9403229 1.393863 0.3054649 0.6271705 1.393863 0.305465 1.253475 1.393863 -0.007686972 1.383186 1.393863 -0.3208391 1.253475 1.393863 -0.3208389 0.6271706 1.393863 -0.007686913 0.4974588 1.393863 -0.450551 0.9403229 1.393863 0.2778313 0.9403229 0.8072745 0.1942051 0.73843 0.8072745 0.1942053 1.142215 0.8072745 -0.007686972 1.225841 0.8072745 -0.2095796 1.142215 0.8072745 -0.2095794 0.7384303 0.8072745 -0.007686913 0.6548036 0.8072745 -0.2932062 0.9403229 0.8072745 0.435176 0.9403229 0.8072745 0.3054649 0.6271705 0.8072745 0.305465 1.253475 0.8072745 -0.007686972 1.383186 0.8072745 -0.3208391 1.253475 0.8072745 -0.3208389 0.6271706 0.8072745 -0.007686913 0.4974588 0.8072745 -0.450551 0.9403229 0.8072745 0.2515757 0.932069 0.8827235 0.1679495 0.730176 0.8827235 0.1679496 1.133961 0.8827235 -0.03394258 1.217587 0.8827235 -0.2358352 1.133961 0.8827235 -0.235835 0.7301763 0.8827235 -0.03394258 0.6465497 0.8827235 -0.3194618 0.932069 0.8827235</float_array>
          <technique_common>
            <accessor source="#Cylinder_001-mesh-positions-array" count="240" stride="3">
              <param name="X" type="float"/>
              <param name="Y" type="float"/>
              <param name="Z" type="float"/>
            </accessor>
          </technique_common>
        </source>
        <source id="Cylinder_001-mesh-normals">
          <float_array id="Cylinder_001-mesh-normals-array" count="726">1.92478e-6 -0.9940854 0.1086017 0.5538794 -0.5538827 -0.6216362 0.7029256 -0.702924 0.1085988 -0.9940854 -2.13645e-6 0.1086015 -0.5538824 -0.5538799 -0.6216361 -0.7029233 -0.7029263 0.1085982 -1.60175e-6 -0.7832977 -0.6216468 -0.702927 0.7029225 0.1085987 -0.7832978 1.60175e-6 -0.6216468 0.9940853 2.2022e-6 0.1086028 0.5538766 0.5538742 -0.6216463 0.7029232 0.7029262 0.1085992 1.31053e-6 0.7833021 -0.6216413 -2.30343e-6 0.9940853 0.1086028 -0.5538806 0.5538814 -0.6216365 0.783302 -1.52087e-6 -0.6216415 -5.66482e-6 -0.9441682 0.329464 -0.9441671 5.16428e-7 0.3294668 -0.667628 -0.6676285 0.3294619 -0.6676283 0.6676282 0.3294618 0.944168 6.76691e-6 0.3294644 3.88652e-7 0.9441671 0.3294669 0.6676282 0.6676283 0.329462 0.6676269 -0.6676273 0.3294667 -0.8797454 1.22086e-6 0.4754452 -2.713e-7 -0.879745 0.4754458 -0.6220746 -0.6220731 0.4754456 -0.6220742 0.6220736 0.4754454 0.8797454 -1.71824e-7 0.475445 2.07998e-7 0.879746 0.475444 0.622074 0.6220746 0.4754444 0.6220726 -0.6220741 0.4754466 1.06816e-5 0 1 0 0 1 -1.06816e-5 0 1 0.1481773 -0.148181 -0.9777966 0 -0.3361455 -0.9418101 0.2376934 -0.2376941 -0.9418086 -0.1481757 0.148176 -0.9777975 1.55865e-7 0.2095533 -0.9777972 0.1481756 0.1481756 -0.9777976 0.2095533 0 -0.9777973 -0.2095527 2.93717e-6 -0.9777975 0 -0.2095479 -0.9777984 -0.1481761 -0.1481761 -0.9777974 -0.336149 1.11087e-6 -0.9418089 0 0.3361517 -0.9418079 0.3361527 0 -0.9418076 -0.2376912 -0.2376909 -0.94181 0.2376931 0.2376931 -0.941809 -0.2376927 0.2376935 -0.941809 0.5419622 0.04224783 -0.8393403 0.4951369 0.453817 -0.7408708 0.322966 0.3463494 -0.8807583 -0.7803215 -2.82261e-5 0.6253786 -0.5489912 -0.5489935 -0.6302498 -0.551835 -0.5517054 0.6253795 -2.84024e-5 0.7803211 0.6253791 -0.5489943 0.5489903 -0.63025 -0.5517912 0.5517495 0.6253792 0.7803212 2.83863e-5 0.625379 0.5489774 0.5489794 -0.6302741 0.5517506 0.5517903 0.6253789 1.65814e-6 -0.7763724 -0.6302745 2.8186e-5 -0.7803215 0.6253786 0.5489929 -0.5489917 -0.6302499 0.5517897 -0.551751 0.6253792 0.7763825 1.72193e-6 -0.6302622 -1.80165e-6 0.7763826 -0.630262 -0.7763725 -1.61031e-6 -0.6302744 -0.3427902 0.3951129 -0.8522799 0.01046943 0.4661517 -0.884643 0.493366 -0.4205216 -0.7614142 -0.6229568 0.05240595 -0.7804989 0.02039921 -0.7174006 -0.6963621 -0.5222098 -0.4786323 -0.7058386 -0.8134524 -0.06341165 -0.5781646 -0.01880168 0.6612275 -0.7499498 0.7492612 -0.06303066 -0.6592685 0.5439949 -0.6270259 -0.5575914 -0.58755 -0.6300901 -0.5077121 -0.556558 0.4743864 -0.6820563 -0.01944178 -0.865647 -0.5002773 0 -0.9025197 0.4306489 0 0 -1 0 -1 0 0.9985819 -0.05323892 0 -0.9985819 -0.05323898 0 0 0.9025195 0.4306489 0 1 0 0.9992887 0.03403717 0.01624125 -0.9985819 0.05323898 0 0.9025197 0 0.4306489 0 0 -1 1 0 0 0.05323892 0.9985819 0 0.05323898 -0.9985819 0 -0.9025197 0 0.4306488 0 0 -1 -1 0 0 -0.03403723 0.9992887 0.01624125 -0.05323892 -0.9985819 0 0.5419623 0.04224795 -0.8393403 0.4951369 0.4538169 -0.7408708 0.322966 0.3463492 -0.8807584 -0.7803909 -2.82939e-5 0.6252922 -0.5489913 -0.5489935 -0.6302497 -0.5518839 -0.5517545 0.625293 -2.8358e-5 0.7803904 0.6252927 -0.5489871 0.5489836 -0.630262 -0.5519164 0.5517222 0.6252926 0.7803905 2.8374e-5 0.6252925 0.5489773 0.5489795 -0.6302741 0.5517995 0.5518393 0.6252925 1.59436e-6 -0.7763724 -0.6302745 2.82618e-5 -0.7803908 0.6252921 0.5489928 -0.5489918 -0.6302499 0.5518386 -0.5518 0.6252928 0.7763824 1.76977e-6 -0.6302621 -1.69007e-6 0.7763924 -0.63025 -0.7763725 -1.33926e-6 -0.6302744 -0.3427902 0.3951127 -0.8522798 0.01046913 0.4661517 -0.884643 0.4933651 -0.4205205 -0.7614154 -0.6229564 0.05240607 -0.7804992 0.02039897 -0.7174019 -0.6963609 -0.52221 -0.4786321 -0.7058386 -0.8134523 -0.06341153 -0.5781646 -0.01880162 0.6612274 -0.7499499 0.7492608 -0.06303042 -0.6592689 0.5439947 -0.6270259 -0.5575915 -0.5875498 -0.6300902 -0.5077122 -0.556558 0.4743864 -0.6820563 -0.01944178 -0.865647 -0.5002772 -0.4951368 0.453817 -0.740871 -0.5419623 0.04224801 -0.8393402 -0.3229661 0.3463493 -0.8807583 0.5489913 -0.5489935 -0.6302497 0.7803563 -2.8001e-5 0.6253353 0.5517238 -0.5518656 0.6253362 0.5489875 0.5489833 -0.630262 2.84658e-5 0.7803558 0.6253359 0.5518156 0.5517741 0.625336 -0.5489774 0.5489795 -0.6302741 -0.7803559 2.82895e-5 0.6253357 -0.5516055 0.5519844 0.6253356 -1.51464e-6 -0.7763723 -0.6302745 -2.81132e-5 -0.7803563 0.6253353 -0.5489928 -0.5489917 -0.6302499 -0.5518141 -0.5517755 0.6253361 -0.7763825 1.75382e-6 -0.6302621 1.91329e-6 0.7763924 -0.63025 0.7763724 -1.5545e-6 -0.6302745 0.3427902 0.3951126 -0.85228 -0.01046961 0.4661517 -0.884643 -0.4933649 -0.4205204 -0.7614156 0.6229568 0.05240631 -0.7804988 0.5222101 -0.4786325 -0.7058382 -0.02039939 -0.7174019 -0.6963609 0.0194422 -0.8656537 -0.5002658 -0.7492583 -0.06303036 -0.6592717 0.0188018 0.6612296 -0.749948 -0.5439944 -0.6270261 -0.5575917 0.8134467 -0.06341081 -0.5781728 0.5565579 0.4743863 -0.6820565 0.5875501 -0.6300901 -0.507712 -0.04224729 0.541963 -0.8393398 -0.4538179 0.4951372 -0.7408702 -0.3463499 0.3229662 -0.8807579 2.80535e-5 -0.7803909 0.6252922 0.5489934 -0.5489914 -0.6302499 0.5517544 -0.5518839 0.625293 -0.7803903 -2.84061e-5 0.6252927 -0.5489835 -0.5489873 -0.630262 -0.5517987 -0.5518401 0.6252926 -2.8366e-5 0.7803905 0.6252925 -0.5489795 0.5489772 -0.6302742 -0.5518393 0.5517996 0.6252924 0.7763724 1.64219e-6 -0.6302745 0.7803908 2.82859e-5 0.6252921 0.5489917 0.5489929 -0.6302499 0.5518 0.5518386 0.6252928 -1.80165e-6 0.7763826 -0.630262 -0.7763924 -1.91329e-6 -0.63025 1.57842e-6 -0.7763724 -0.6302744 -0.3951129 -0.3427901 -0.8522799 -0.4661517 0.01046937 -0.884643 0.4205207 0.4933649 -0.7614155 -0.05240577 -0.6229566 -0.7804991 0.7174022 0.02039939 -0.6963605 0.4786316 -0.5222104 -0.7058387 0.06341195 -0.8134524 -0.5781645 -0.6612274 -0.01880151 -0.7499499 0.06303095 0.749261 -0.6592686 0.6270262 0.5439949 -0.557591 0.6300897 -0.5875502 -0.5077125 -0.4743866 -0.5565582 -0.682056 0.8656474 -0.01944142 -0.5002766 -0.4538173 -0.4951367 -0.7408707 -0.04224717 -0.5419627 -0.83934 -0.3463497 -0.322966 -0.8807582 0.5489933 0.5489915 -0.6302499 2.8001e-5 0.7803562 0.6253353 0.5519418 0.5516476 0.6253361 -0.5489836 0.5489872 -0.630262 -0.7803558 2.84658e-5 0.6253359 -0.5517742 0.5518155 0.6253359 -0.5489794 -0.5489774 -0.6302741 -2.82574e-5 -0.7803559 0.6253357 -0.5519844 -0.5516055 0.6253356 0.7763724 -1.61031e-6 -0.6302745 0.7803563 -2.81773e-5 0.6253353 0.548992 -0.5489928 -0.6302499 0.5518518 -0.5517377 0.625336 -1.78571e-6 -0.7763825 -0.6302621 -0.7763924 1.80965e-6 -0.63025 1.57045e-6 0.7763725 -0.6302744 -0.3951125 0.3427901 -0.85228 -0.4661515 -0.01046943 -0.884643 0.4205206 -0.4933649 -0.7614156 -0.05240595 0.622956 -0.7804995 0.4786317 0.5222102 -0.7058386 0.7174022 -0.02039933 -0.6963606 0.8656539 0.0194416 -0.5002653 0.06303071 -0.7492586 -0.6592714 -0.6612294 0.01880145 -0.7499482 0.6270259 -0.5439949 -0.5575914 0.06341129 0.8134458 -0.578174 -0.4743866 0.5565579 -0.6820563 0.6300898 0.5875501 -0.5077124 0.9992887 -0.03403717 0.01624125 -0.9992887 -0.03403717 0.01624125 0 0.9025197 0.4306488 0.9985819 0.05323892 0 -0.9992887 0.03403717 0.01624125 0.9025197 0 0.4306488 0 0 -1 0.03403711 0.9992887 0.01624125 0.03403723 -0.9992887 0.01624125 -0.9025196 0 0.4306489 -0.05323898 0.9985819 0 -0.03403711 -0.9992887 0.01624125</float_array>
          <technique_common>
            <accessor source="#Cylinder_001-mesh-normals-array" count="242" stride="3">
              <param name="X" type="float"/>
              <param name="Y" type="float"/>
              <param name="Z" type="float"/>
            </accessor>
          </technique_common>
        </source>
        <source id="Cylinder_001-mesh-map-0">
          <float_array id="Cylinder_001-mesh-map-0-array" count="2412">0.6854777 0.487065 0.7016843 0.3457472 0.7016843 0.487065 0.6854777 0.487065 0.669272 0.3457472 0.669272 0.487065 0.669272 0.487065 0.6854777 0.3457472 0.6854777 0.487065 0.7016843 0.487065 0.6854777 0.3457472 0.6854777 0.487065 0.6854777 0.487065 0.7016843 0.3457472 0.7016843 0.487065 0.7016843 0.487065 0.6854777 0.3457472 0.6854777 0.487065 0.6854777 0.487065 0.669272 0.3457472 0.669272 0.487065 0.669272 0.487065 0.6854777 0.3457472 0.6854777 0.487065 0.6655049 0.03875201 0.6190714 0.0604934 0.6190714 0.03875201 0.5726383 0.03875201 0.6190714 0.0604934 0.6190714 0.03875201 0.5726383 0.03875201 0.6190714 0.0604934 0.5858057 0.0604934 0.6655054 0.03875201 0.6190714 0.0604934 0.6523376 0.0604934 0.6655054 0.03875201 0.6190714 0.0604934 0.6190714 0.03875201 0.6655054 0.03875201 0.6190714 0.0604934 0.6523376 0.0604934 0.5726383 0.03875201 0.6190714 0.0604934 0.6190714 0.03875201 0.5726383 0.03875201 0.6190714 0.0604934 0.5858057 0.0604934 0.5586834 0.07498925 0.5932781 0.1023458 0.5932781 0.07498925 0.5586834 0.07498925 0.5932781 0.1023458 0.579847 0.1023458 0.6278731 0.07498925 0.5932781 0.1023458 0.6067096 0.1023458 0.6278731 0.07498925 0.5932781 0.1023458 0.5932781 0.07498925 0.6278731 0.07498925 0.5932781 0.1023458 0.6067096 0.1023458 0.5586834 0.07498925 0.5932781 0.1023458 0.5932781 0.07498925 0.5932781 0.07498925 0.579847 0.1023458 0.5586834 0.07498925 0.5932781 0.07498925 0.6067096 0.1023458 0.5932781 0.1023458 0.6881799 0.4562351 0.6873886 0.4581456 0.6835675 0.4543246 0.6854777 0.487065 0.6854777 0.3457472 0.7016843 0.3457472 0.6854777 0.487065 0.6854777 0.3457472 0.669272 0.3457472 0.669272 0.487065 0.669272 0.3457472 0.6854777 0.3457472 0.7016843 0.487065 0.7016843 0.3457472 0.6854777 0.3457472 0.6854777 0.487065 0.6854777 0.3457472 0.7016843 0.3457472 0.7016843 0.487065 0.7016843 0.3457472 0.6854777 0.3457472 0.6854777 0.487065 0.6854777 0.3457472 0.669272 0.3457472 0.669272 0.487065 0.669272 0.3457472 0.6854777 0.3457472 0.6655049 0.03875201 0.6523376 0.0604934 0.6190714 0.0604934 0.5726383 0.03875201 0.5858057 0.0604934 0.6190714 0.0604934 0.5726383 0.03875201 0.6190714 0.03875201 0.6190714 0.0604934 0.6655054 0.03875201 0.6190714 0.03875201 0.6190714 0.0604934 0.6655054 0.03875201 0.6523376 0.0604934 0.6190714 0.0604934 0.6655054 0.03875201 0.6190714 0.03875201 0.6190714 0.0604934 0.5726383 0.03875201 0.5858057 0.0604934 0.6190714 0.0604934 0.5726383 0.03875201 0.6190714 0.03875201 0.6190714 0.0604934 0.5586834 0.07498925 0.579847 0.1023458 0.5932781 0.1023458 0.5586834 0.07498925 0.5932781 0.07498925 0.5932781 0.1023458 0.6278731 0.07498925 0.5932781 0.07498925 0.5932781 0.1023458 0.6278731 0.07498925 0.6067096 0.1023458 0.5932781 0.1023458 0.6278731 0.07498925 0.5932781 0.07498925 0.5932781 0.1023458 0.5586834 0.07498925 0.579847 0.1023458 0.5932781 0.1023458 0.5932781 0.07498925 0.5932781 0.1023458 0.579847 0.1023458 0.5932781 0.07498925 0.6278731 0.07498925 0.6067096 0.1023458 0.6873886 0.4581456 0.685478 0.4589369 0.6835675 0.4581456 0.6835675 0.4581456 0.6827762 0.4562351 0.6873886 0.4581456 0.6827762 0.4562351 0.6835675 0.4543246 0.6873886 0.4581456 0.6835675 0.4543246 0.685478 0.4535332 0.6873886 0.4543246 0.6873886 0.4543246 0.6881799 0.4562351 0.6835675 0.4543246 0.6809264 0.3628649 0.6852339 0.3628649 0.6809264 0.3628649 0.6809263 0.3628649 0.685478 0.3628649 0.6837641 0.3628649 0.6807879 0.3628649 0.685478 0.3628649 0.6837642 0.3628649 0.6807879 0.3628649 0.685478 0.3628649 0.6786093 0.3628649 0.6809264 0.3628649 0.685478 0.3628649 0.6786093 0.3628649 0.685234 0.3628649 0.6923469 0.3628649 0.685478 0.3628649 0.6852339 0.3628649 0.6923469 0.3628649 0.6894502 0.3628649 0.6809264 0.3628649 0.685478 0.3628649 0.6852339 0.3628649 0.6809263 0.3628649 0.685478 0.3628649 0.6786093 0.3628649 0.685234 0.3628649 0.6837641 0.3628649 0.6837642 0.3628649 0.6894502 0.3628649 0.685234 0.3628649 0.6894502 0.3628649 0.6837641 0.3628649 0.6807879 0.3628649 0.6837641 0.3628649 0.6837641 0.3628649 0.6809263 0.3628649 0.6809263 0.3628649 0.685234 0.3628649 0.6809263 0.3628649 0.685234 0.3628649 0.6894502 0.3628649 0.6852339 0.3628649 0.6852339 0.3628649 0.6837642 0.3628649 0.6809264 0.3628649 0.6837642 0.3628649 0.6837642 0.3628649 0.6807879 0.3628649 0.6807879 0.3628649 0.2573123 0.2232833 0.2626237 0.2104603 0.2626237 0.2104603 0.2754467 0.2419116 0.2555572 0.2046549 0.2555572 0.2419116 0.2754467 0.2419116 0.2555572 0.2046549 0.2555572 0.2419116 0.2754467 0.2419116 0.2953363 0.2046549 0.2953363 0.2419116 0.2555572 0.2419116 0.2754467 0.2046549 0.2754467 0.2419116 0.2754467 0.2419116 0.2953363 0.2046549 0.2953363 0.2419116 0.2555572 0.2419116 0.2754467 0.2046549 0.2754467 0.2419116 0.2953363 0.2419116 0.2754467 0.2046549 0.2754467 0.2419116 0.2953363 0.2419116 0.2754467 0.2046549 0.2754467 0.2419116 0.2882698 0.2104603 0.2754467 0.1951552 0.2754467 0.2051488 0.2626237 0.2104603 0.2473186 0.2232833 0.2573123 0.2232833 0.2626237 0.2104603 0.2754467 0.1951552 0.2555572 0.2033937 0.2626238 0.2361063 0.2473186 0.2232833 0.2555572 0.2431729 0.2935813 0.2232833 0.2953363 0.2431729 0.3035749 0.2232833 0.2754468 0.2414178 0.2953363 0.2431729 0.2882698 0.2361063 0.2626238 0.2361063 0.2754467 0.2514114 0.2754468 0.2414178 0.2882698 0.2104603 0.3035749 0.2232833 0.2953363 0.2033937 0.2935813 0.2232833 0.2754467 0.2051488 0.2573123 0.2232833 0.2754468 0.2414178 0.2626238 0.2361063 0.2626238 0.2361063 0.2882698 0.2361063 0.2935813 0.2232833 0.2882698 0.2361063 0.2626237 0.2104603 0.2754467 0.2051488 0.2754467 0.2051488 0.2882698 0.2104603 0.2754467 0.2051488 0.2882698 0.2104603 0.2935813 0.2232833 0.2882698 0.2104603 0.2935813 0.2232833 0.2754468 0.2414178 0.2882698 0.2361063 0.2754468 0.2414178 0.2626238 0.2361063 0.2573123 0.2232833 0.2573123 0.2232833 0.5927733 0.8058534 0.5982628 0.7643678 0.5982628 0.8058534 0.5993182 0.7728173 0.5927733 0.7530219 0.5917179 0.7728173 0.5982628 0.7643678 0.5927733 0.7409182 0.5982628 0.7409182 0.6073952 0.7409182 0.5875999 0.7643678 0.5875999 0.7409182 0.5875999 0.7643678 0.6073952 0.7409182 0.5875999 0.7409182 0.5982628 0.7643678 0.5927733 0.8058534 0.5982628 0.8058534 0.5927733 0.7530219 0.5993182 0.7728173 0.5917179 0.7728173 0.5927733 0.7409182 0.5982628 0.7643678 0.5982628 0.7409182 0.6073952 0.7409182 0.5875999 0.7643678 0.6073952 0.8058534 0.6073952 0.7409182 0.5875999 0.7643678 0.5875999 0.7409182 0.5927733 0.8058534 0.5982628 0.7643678 0.5982628 0.8058534 0.5993182 0.7728173 0.5927733 0.7530219 0.5917179 0.7728173 0.5982628 0.7643678 0.5927733 0.7409182 0.5982628 0.7409182 0.6073952 0.7409182 0.5875999 0.7643678 0.5875999 0.7409182 0.5875999 0.7643678 0.6073952 0.7409182 0.5875999 0.7409182 0.5982628 0.7643678 0.5927733 0.8058534 0.5982628 0.8058534 0.5917179 0.7728173 0.5982628 0.7530219 0.5993182 0.7728173 0.5927733 0.7409182 0.5982628 0.7643678 0.5982628 0.7409182 0.6073952 0.7409182 0.5875999 0.7643678 0.6073952 0.8058534 0.6073952 0.7409182 0.5875999 0.7643678 0.5875999 0.7409182 0.2573123 0.2232833 0.2626237 0.2104603 0.2626237 0.2104603 0.2754467 0.2419116 0.2555572 0.2046549 0.2555572 0.2419116 0.2754467 0.2419116 0.2555572 0.2046549 0.2555572 0.2419116 0.2754467 0.2419116 0.2953363 0.2046549 0.2953363 0.2419116 0.2555572 0.2419116 0.2754467 0.2046549 0.2754467 0.2419116 0.2754467 0.2419116 0.2953363 0.2046549 0.2953363 0.2419116 0.2555572 0.2419116 0.2754467 0.2046549 0.2754467 0.2419116 0.2953363 0.2419116 0.2754467 0.2046549 0.2754467 0.2419116 0.2953363 0.2419116 0.2754467 0.2046549 0.2754467 0.2419116 0.2882698 0.2104603 0.2754467 0.1951552 0.2754467 0.2051488 0.2626237 0.2104603 0.2473186 0.2232833 0.2573123 0.2232833 0.2626237 0.2104603 0.2754467 0.1951552 0.2555572 0.2033937 0.2626238 0.2361063 0.2473186 0.2232833 0.2555572 0.2431729 0.2935813 0.2232833 0.2953363 0.2431729 0.3035749 0.2232833 0.2754468 0.2414178 0.2953363 0.2431729 0.2882698 0.2361063 0.2754468 0.2414178 0.2555572 0.2431729 0.2754467 0.2514114 0.2882698 0.2104603 0.3035749 0.2232833 0.2953363 0.2033937 0.2935813 0.2232833 0.2754467 0.2051488 0.2573123 0.2232833 0.2754468 0.2414178 0.2626238 0.2361063 0.2626238 0.2361063 0.2882698 0.2361063 0.2935813 0.2232833 0.2882698 0.2361063 0.2626237 0.2104603 0.2754467 0.2051488 0.2754467 0.2051488 0.2882698 0.2104603 0.2754467 0.2051488 0.2882698 0.2104603 0.2935813 0.2232833 0.2882698 0.2104603 0.2935813 0.2232833 0.2754468 0.2414178 0.2882698 0.2361063 0.2754468 0.2414178 0.2626238 0.2361063 0.2573123 0.2232833 0.2573123 0.2232833 0.2626237 0.2104603 0.2573123 0.2232833 0.2626237 0.2104603 0.2555572 0.2046549 0.2754467 0.2419116 0.2555572 0.2419116 0.2555572 0.2046549 0.2754467 0.2419116 0.2555572 0.2419116 0.2953363 0.2046549 0.2754467 0.2419116 0.2953363 0.2419116 0.2754467 0.2046549 0.2555572 0.2419116 0.2754467 0.2419116 0.2953363 0.2046549 0.2754467 0.2419116 0.2953363 0.2419116 0.2754467 0.2046549 0.2555572 0.2419116 0.2754467 0.2419116 0.2754467 0.2046549 0.2953363 0.2419116 0.2754467 0.2419116 0.2754467 0.2046549 0.2953363 0.2419116 0.2754467 0.2419116 0.2754467 0.1951552 0.2882698 0.2104603 0.2754467 0.2051488 0.2473186 0.2232833 0.2626237 0.2104603 0.2573123 0.2232833 0.2626237 0.2104603 0.2754467 0.1951552 0.2754467 0.2051488 0.2626238 0.2361063 0.2473186 0.2232833 0.2573123 0.2232833 0.2935813 0.2232833 0.2953363 0.2431729 0.2882698 0.2361063 0.2953363 0.2431729 0.2754468 0.2414178 0.2882698 0.2361063 0.2754468 0.2414178 0.2555572 0.2431729 0.2626238 0.2361063 0.2882698 0.2104603 0.3035749 0.2232833 0.2935813 0.2232833 0.2754468 0.2414178 0.2573123 0.2232833 0.2754467 0.2051488 0.2626238 0.2361063 0.2754468 0.2414178 0.2626238 0.2361063 0.2882698 0.2361063 0.2935813 0.2232833 0.2935813 0.2232833 0.2754467 0.2051488 0.2626237 0.2104603 0.2754467 0.2051488 0.2882698 0.2104603 0.2754467 0.2051488 0.2754467 0.2051488 0.2935813 0.2232833 0.2882698 0.2104603 0.2882698 0.2104603 0.2754468 0.2414178 0.2882698 0.2361063 0.2882698 0.2361063 0.2573123 0.2232833 0.2626238 0.2361063 0.2573123 0.2232833 0.2573123 0.2232833 0.2626237 0.2104603 0.2626237 0.2104603 0.2754467 0.2419116 0.2555572 0.2046549 0.2555572 0.2419116 0.2754467 0.2419116 0.2555572 0.2046549 0.2555572 0.2419116 0.2754467 0.2419116 0.2953363 0.2046549 0.2953363 0.2419116 0.2555572 0.2419116 0.2754467 0.2046549 0.2754467 0.2419116 0.2754467 0.2419116 0.2953363 0.2046549 0.2953363 0.2419116 0.2555572 0.2419116 0.2754467 0.2046549 0.2754467 0.2419116 0.2953363 0.2419116 0.2754467 0.2046549 0.2754467 0.2419116 0.2953363 0.2419116 0.2754467 0.2046549 0.2754467 0.2419116 0.2882698 0.2104603 0.2754467 0.1951552 0.2754467 0.2051488 0.2626237 0.2104603 0.2473186 0.2232833 0.2573123 0.2232833 0.2626237 0.2104603 0.2754467 0.1951552 0.2555572 0.2033937 0.2626238 0.2361063 0.2473186 0.2232833 0.2555572 0.2431729 0.2935813 0.2232833 0.2953363 0.2431729 0.3035749 0.2232833 0.2754468 0.2414178 0.2953363 0.2431729 0.2882698 0.2361063 0.2754468 0.2414178 0.2555572 0.2431729 0.2754467 0.2514114 0.2882698 0.2104603 0.3035749 0.2232833 0.2953363 0.2033937 0.2935813 0.2232833 0.2754467 0.2051488 0.2573123 0.2232833 0.2754468 0.2414178 0.2626238 0.2361063 0.2626238 0.2361063 0.2882698 0.2361063 0.2935813 0.2232833 0.2882698 0.2361063 0.2626237 0.2104603 0.2754467 0.2051488 0.2754467 0.2051488 0.2882698 0.2104603 0.2754467 0.2051488 0.2882698 0.2104603 0.2935813 0.2232833 0.2882698 0.2104603 0.2935813 0.2232833 0.2754468 0.2414178 0.2882698 0.2361063 0.2754468 0.2414178 0.2626238 0.2361063 0.2573123 0.2232833 0.2573123 0.2232833 0.2626237 0.2104603 0.2573123 0.2232833 0.2626237 0.2104603 0.2555572 0.2046549 0.2754467 0.2419116 0.2555572 0.2419116 0.2555572 0.2046549 0.2754467 0.2419116 0.2555572 0.2419116 0.2953363 0.2046549 0.2754467 0.2419116 0.2953363 0.2419116 0.2754467 0.2046549 0.2555572 0.2419116 0.2754467 0.2419116 0.2953363 0.2046549 0.2754467 0.2419116 0.2953363 0.2419116 0.2754467 0.2046549 0.2555572 0.2419116 0.2754467 0.2419116 0.2754467 0.2046549 0.2953363 0.2419116 0.2754467 0.2419116 0.2754467 0.2046549 0.2953363 0.2419116 0.2754467 0.2419116 0.2754467 0.1951552 0.2882698 0.2104603 0.2754467 0.2051488 0.2473186 0.2232833 0.2626237 0.2104603 0.2573123 0.2232833 0.2626237 0.2104603 0.2754467 0.1951552 0.2754467 0.2051488 0.2626238 0.2361063 0.2473186 0.2232833 0.2573123 0.2232833 0.2935813 0.2232833 0.2953363 0.2431729 0.2882698 0.2361063 0.2953363 0.2431729 0.2754468 0.2414178 0.2882698 0.2361063 0.2754468 0.2414178 0.2555572 0.2431729 0.2626238 0.2361063 0.2882698 0.2104603 0.3035749 0.2232833 0.2935813 0.2232833 0.2754468 0.2414178 0.2573123 0.2232833 0.2754467 0.2051488 0.2626238 0.2361063 0.2754468 0.2414178 0.2626238 0.2361063 0.2882698 0.2361063 0.2935813 0.2232833 0.2935813 0.2232833 0.2754467 0.2051488 0.2626237 0.2104603 0.2754467 0.2051488 0.2882698 0.2104603 0.2754467 0.2051488 0.2754467 0.2051488 0.2935813 0.2232833 0.2882698 0.2104603 0.2882698 0.2104603 0.2754468 0.2414178 0.2882698 0.2361063 0.2882698 0.2361063 0.2573123 0.2232833 0.2626238 0.2361063 0.2573123 0.2232833 0.6809264 0.3628649 0.6852339 0.3628649 0.6852339 0.3628649 0.6809263 0.3628649 0.6786093 0.3628649 0.685478 0.3628649 0.6807879 0.3628649 0.6786093 0.3628649 0.685478 0.3628649 0.6807879 0.3628649 0.6837641 0.3628649 0.685478 0.3628649 0.6809264 0.3628649 0.6837642 0.3628649 0.685478 0.3628649 0.685234 0.3628649 0.6894502 0.3628649 0.6923469 0.3628649 0.6852339 0.3628649 0.685478 0.3628649 0.6923469 0.3628649 0.6809264 0.3628649 0.6786093 0.3628649 0.685478 0.3628649 0.6809263 0.3628649 0.685234 0.3628649 0.685478 0.3628649 0.685234 0.3628649 0.6809263 0.3628649 0.6837641 0.3628649 0.6837641 0.3628649 0.6807879 0.3628649 0.6837642 0.3628649 0.6837642 0.3628649 0.6809264 0.3628649 0.6852339 0.3628649 0.6852339 0.3628649 0.6894502 0.3628649 0.6837642 0.3628649 0.6894502 0.3628649 0.685234 0.3628649 0.6837642 0.3628649 0.6894502 0.3628649 0.685234 0.3628649 0.685234 0.3628649 0.6837641 0.3628649 0.6807879 0.3628649 0.6807879 0.3628649 0.6837641 0.3628649 0.6837641 0.3628649 0.6809263 0.3628649 0.685234 0.3628649 0.6809263 0.3628649 0.6809263 0.3628649 0.6894502 0.3628649 0.6894502 0.3628649 0.6852339 0.3628649 0.6837642 0.3628649 0.6809264 0.3628649 0.6809264 0.3628649 0.6837642 0.3628649 0.6837642 0.3628649 0.6807879 0.3628649 0.2573123 0.2232833 0.2573123 0.2232833 0.2626237 0.2104603 0.2754467 0.2419116 0.2754467 0.2046549 0.2555572 0.2046549 0.2754467 0.2419116 0.2754467 0.2046549 0.2555572 0.2046549 0.2754467 0.2419116 0.2754467 0.2046549 0.2953363 0.2046549 0.2555572 0.2419116 0.2555572 0.2046549 0.2754467 0.2046549 0.2754467 0.2419116 0.2754467 0.2046549 0.2953363 0.2046549 0.2555572 0.2419116 0.2555572 0.2046549 0.2754467 0.2046549 0.2953363 0.2419116 0.2953363 0.2046549 0.2754467 0.2046549 0.2953363 0.2419116 0.2953363 0.2046549 0.2754467 0.2046549 0.2882698 0.2104603 0.2953363 0.2033937 0.2754467 0.1951552 0.2626237 0.2104603 0.2555572 0.2033937 0.2473186 0.2232833 0.2626237 0.2104603 0.2754467 0.2051488 0.2754467 0.1951552 0.2626238 0.2361063 0.2573123 0.2232833 0.2473186 0.2232833 0.2935813 0.2232833 0.2882698 0.2361063 0.2953363 0.2431729 0.2754468 0.2414178 0.2754467 0.2514114 0.2953363 0.2431729 0.2626238 0.2361063 0.2555572 0.2431729 0.2754467 0.2514114 0.2882698 0.2104603 0.2935813 0.2232833 0.3035749 0.2232833 0.2935813 0.2232833 0.2882698 0.2104603 0.2754467 0.2051488 0.2754467 0.2051488 0.2626237 0.2104603 0.2573123 0.2232833 0.2573123 0.2232833 0.2626238 0.2361063 0.2754468 0.2414178 0.2754468 0.2414178 0.2882698 0.2361063 0.2573123 0.2232833 0.2882698 0.2361063 0.2935813 0.2232833 0.2573123 0.2232833 0.2754468 0.2414178 0.2754468 0.2414178 0.2626238 0.2361063 0.2882698 0.2361063 0.2935813 0.2232833 0.2935813 0.2232833 0.2626237 0.2104603 0.2626237 0.2104603 0.2754467 0.2051488 0.2882698 0.2104603 0.2754467 0.2051488 0.2754467 0.2051488 0.2935813 0.2232833 0.2882698 0.2104603 0.2882698 0.2104603 0.2754468 0.2414178 0.2882698 0.2361063 0.2882698 0.2361063 0.2626238 0.2361063 0.2626238 0.2361063 0.2573123 0.2232833 0.5927733 0.8058534 0.5927733 0.7643678 0.5982628 0.7643678 0.5993182 0.7728173 0.5982628 0.7530219 0.5927733 0.7530219 0.5982628 0.7643678 0.5927733 0.7643678 0.5927733 0.7409182 0.6073952 0.7409182 0.6073952 0.8058534 0.5875999 0.7643678 0.5875999 0.7643678 0.6073952 0.8058534 0.6073952 0.7409182 0.5982628 0.7643678 0.5927733 0.7643678 0.5927733 0.8058534 0.5927733 0.7530219 0.5982628 0.7530219 0.5993182 0.7728173 0.5927733 0.7409182 0.5927733 0.7643678 0.5982628 0.7643678 0.6073952 0.7409182 0.5875999 0.7409182 0.5875999 0.7643678 0.6073952 0.7409182 0.6073952 0.8058534 0.5875999 0.7643678 0.5927733 0.8058534 0.5927733 0.7643678 0.5982628 0.7643678 0.5993182 0.7728173 0.5982628 0.7530219 0.5927733 0.7530219 0.5982628 0.7643678 0.5927733 0.7643678 0.5927733 0.7409182 0.6073952 0.7409182 0.6073952 0.8058534 0.5875999 0.7643678 0.5875999 0.7643678 0.6073952 0.8058534 0.6073952 0.7409182 0.5982628 0.7643678 0.5927733 0.7643678 0.5927733 0.8058534 0.5917179 0.7728173 0.5927733 0.7530219 0.5982628 0.7530219 0.5927733 0.7409182 0.5927733 0.7643678 0.5982628 0.7643678 0.6073952 0.7409182 0.5875999 0.7409182 0.5875999 0.7643678 0.6073952 0.7409182 0.6073952 0.8058534 0.5875999 0.7643678 0.2573123 0.2232833 0.2573123 0.2232833 0.2626237 0.2104603 0.2754467 0.2419116 0.2754467 0.2046549 0.2555572 0.2046549 0.2754467 0.2419116 0.2754467 0.2046549 0.2555572 0.2046549 0.2754467 0.2419116 0.2754467 0.2046549 0.2953363 0.2046549 0.2555572 0.2419116 0.2555572 0.2046549 0.2754467 0.2046549 0.2754467 0.2419116 0.2754467 0.2046549 0.2953363 0.2046549 0.2555572 0.2419116 0.2555572 0.2046549 0.2754467 0.2046549 0.2953363 0.2419116 0.2953363 0.2046549 0.2754467 0.2046549 0.2953363 0.2419116 0.2953363 0.2046549 0.2754467 0.2046549 0.2882698 0.2104603 0.2953363 0.2033937 0.2754467 0.1951552 0.2626237 0.2104603 0.2555572 0.2033937 0.2473186 0.2232833 0.2626237 0.2104603 0.2754467 0.2051488 0.2754467 0.1951552 0.2626238 0.2361063 0.2573123 0.2232833 0.2473186 0.2232833 0.2935813 0.2232833 0.2882698 0.2361063 0.2953363 0.2431729 0.2754468 0.2414178 0.2754467 0.2514114 0.2953363 0.2431729 0.2754468 0.2414178 0.2626238 0.2361063 0.2555572 0.2431729 0.2882698 0.2104603 0.2935813 0.2232833 0.3035749 0.2232833 0.2935813 0.2232833 0.2882698 0.2104603 0.2754467 0.2051488 0.2754467 0.2051488 0.2626237 0.2104603 0.2573123 0.2232833 0.2573123 0.2232833 0.2626238 0.2361063 0.2754468 0.2414178 0.2754468 0.2414178 0.2882698 0.2361063 0.2573123 0.2232833 0.2882698 0.2361063 0.2935813 0.2232833 0.2573123 0.2232833 0.2754468 0.2414178 0.2754468 0.2414178 0.2626238 0.2361063 0.2882698 0.2361063 0.2935813 0.2232833 0.2935813 0.2232833 0.2626237 0.2104603 0.2626237 0.2104603 0.2754467 0.2051488 0.2882698 0.2104603 0.2754467 0.2051488 0.2754467 0.2051488 0.2935813 0.2232833 0.2882698 0.2104603 0.2882698 0.2104603 0.2754468 0.2414178 0.2882698 0.2361063 0.2882698 0.2361063 0.2626238 0.2361063 0.2626238 0.2361063 0.2573123 0.2232833 0.2626237 0.2104603 0.2573123 0.2232833 0.2573123 0.2232833 0.2555572 0.2046549 0.2754467 0.2046549 0.2754467 0.2419116 0.2555572 0.2046549 0.2754467 0.2046549 0.2754467 0.2419116 0.2953363 0.2046549 0.2754467 0.2046549 0.2754467 0.2419116 0.2754467 0.2046549 0.2555572 0.2046549 0.2555572 0.2419116 0.2953363 0.2046549 0.2754467 0.2046549 0.2754467 0.2419116 0.2754467 0.2046549 0.2555572 0.2046549 0.2555572 0.2419116 0.2754467 0.2046549 0.2953363 0.2046549 0.2953363 0.2419116 0.2754467 0.2046549 0.2953363 0.2046549 0.2953363 0.2419116 0.2754467 0.1951552 0.2953363 0.2033937 0.2882698 0.2104603 0.2473186 0.2232833 0.2555572 0.2033937 0.2626237 0.2104603 0.2626237 0.2104603 0.2555572 0.2033937 0.2754467 0.1951552 0.2626238 0.2361063 0.2555572 0.2431729 0.2473186 0.2232833 0.2935813 0.2232833 0.3035749 0.2232833 0.2953363 0.2431729 0.2953363 0.2431729 0.2754467 0.2514114 0.2754468 0.2414178 0.2754468 0.2414178 0.2754467 0.2514114 0.2555572 0.2431729 0.2882698 0.2104603 0.2953363 0.2033937 0.3035749 0.2232833 0.2754467 0.2051488 0.2882698 0.2104603 0.2935813 0.2232833 0.2935813 0.2232833 0.2882698 0.2361063 0.2754467 0.2051488 0.2882698 0.2361063 0.2754468 0.2414178 0.2754467 0.2051488 0.2754468 0.2414178 0.2626238 0.2361063 0.2573123 0.2232833 0.2573123 0.2232833 0.2626237 0.2104603 0.2754467 0.2051488 0.2626238 0.2361063 0.2754468 0.2414178 0.2754468 0.2414178 0.2882698 0.2361063 0.2882698 0.2361063 0.2935813 0.2232833 0.2754467 0.2051488 0.2626237 0.2104603 0.2626237 0.2104603 0.2882698 0.2104603 0.2882698 0.2104603 0.2754467 0.2051488 0.2935813 0.2232833 0.2935813 0.2232833 0.2882698 0.2104603 0.2754468 0.2414178 0.2754468 0.2414178 0.2882698 0.2361063 0.2573123 0.2232833 0.2626238 0.2361063 0.2626238 0.2361063 0.2573123 0.2232833 0.2573123 0.2232833 0.2626237 0.2104603 0.2754467 0.2419116 0.2754467 0.2046549 0.2555572 0.2046549 0.2754467 0.2419116 0.2754467 0.2046549 0.2555572 0.2046549 0.2754467 0.2419116 0.2754467 0.2046549 0.2953363 0.2046549 0.2555572 0.2419116 0.2555572 0.2046549 0.2754467 0.2046549 0.2754467 0.2419116 0.2754467 0.2046549 0.2953363 0.2046549 0.2555572 0.2419116 0.2555572 0.2046549 0.2754467 0.2046549 0.2953363 0.2419116 0.2953363 0.2046549 0.2754467 0.2046549 0.2953363 0.2419116 0.2953363 0.2046549 0.2754467 0.2046549 0.2882698 0.2104603 0.2953363 0.2033937 0.2754467 0.1951552 0.2626237 0.2104603 0.2555572 0.2033937 0.2473186 0.2232833 0.2626237 0.2104603 0.2754467 0.2051488 0.2754467 0.1951552 0.2626238 0.2361063 0.2573123 0.2232833 0.2473186 0.2232833 0.2935813 0.2232833 0.2882698 0.2361063 0.2953363 0.2431729 0.2754468 0.2414178 0.2754467 0.2514114 0.2953363 0.2431729 0.2754468 0.2414178 0.2626238 0.2361063 0.2555572 0.2431729 0.2882698 0.2104603 0.2935813 0.2232833 0.3035749 0.2232833 0.2935813 0.2232833 0.2882698 0.2104603 0.2754467 0.2051488 0.2754467 0.2051488 0.2626237 0.2104603 0.2573123 0.2232833 0.2573123 0.2232833 0.2626238 0.2361063 0.2754468 0.2414178 0.2754468 0.2414178 0.2882698 0.2361063 0.2573123 0.2232833 0.2882698 0.2361063 0.2935813 0.2232833 0.2573123 0.2232833 0.2754468 0.2414178 0.2754468 0.2414178 0.2626238 0.2361063 0.2882698 0.2361063 0.2935813 0.2232833 0.2935813 0.2232833 0.2626237 0.2104603 0.2626237 0.2104603 0.2754467 0.2051488 0.2882698 0.2104603 0.2754467 0.2051488 0.2754467 0.2051488 0.2935813 0.2232833 0.2882698 0.2104603 0.2882698 0.2104603 0.2754468 0.2414178 0.2882698 0.2361063 0.2882698 0.2361063 0.2626238 0.2361063 0.2626238 0.2361063 0.2573123 0.2232833 0.2626237 0.2104603 0.2573123 0.2232833 0.2573123 0.2232833 0.2555572 0.2046549 0.2754467 0.2046549 0.2754467 0.2419116 0.2555572 0.2046549 0.2754467 0.2046549 0.2754467 0.2419116 0.2953363 0.2046549 0.2754467 0.2046549 0.2754467 0.2419116 0.2754467 0.2046549 0.2555572 0.2046549 0.2555572 0.2419116 0.2953363 0.2046549 0.2754467 0.2046549 0.2754467 0.2419116 0.2754467 0.2046549 0.2555572 0.2046549 0.2555572 0.2419116 0.2754467 0.2046549 0.2953363 0.2046549 0.2953363 0.2419116 0.2754467 0.2046549 0.2953363 0.2046549 0.2953363 0.2419116 0.2754467 0.1951552 0.2953363 0.2033937 0.2882698 0.2104603 0.2473186 0.2232833 0.2555572 0.2033937 0.2626237 0.2104603 0.2626237 0.2104603 0.2555572 0.2033937 0.2754467 0.1951552 0.2626238 0.2361063 0.2555572 0.2431729 0.2473186 0.2232833 0.2935813 0.2232833 0.3035749 0.2232833 0.2953363 0.2431729 0.2953363 0.2431729 0.2754467 0.2514114 0.2754468 0.2414178 0.2754468 0.2414178 0.2754467 0.2514114 0.2555572 0.2431729 0.2882698 0.2104603 0.2953363 0.2033937 0.3035749 0.2232833 0.2754467 0.2051488 0.2882698 0.2104603 0.2935813 0.2232833 0.2935813 0.2232833 0.2882698 0.2361063 0.2754467 0.2051488 0.2882698 0.2361063 0.2754468 0.2414178 0.2754467 0.2051488 0.2754468 0.2414178 0.2626238 0.2361063 0.2573123 0.2232833 0.2573123 0.2232833 0.2626237 0.2104603 0.2754467 0.2051488 0.2626238 0.2361063 0.2754468 0.2414178 0.2754468 0.2414178 0.2882698 0.2361063 0.2882698 0.2361063 0.2935813 0.2232833 0.2754467 0.2051488 0.2626237 0.2104603 0.2626237 0.2104603 0.2882698 0.2104603 0.2882698 0.2104603 0.2754467 0.2051488 0.2935813 0.2232833 0.2935813 0.2232833 0.2882698 0.2104603 0.2754468 0.2414178 0.2754468 0.2414178 0.2882698 0.2361063 0.2573123 0.2232833 0.2626238 0.2361063 0.2626238 0.2361063</float_array>
          <technique_common>
            <accessor source="#Cylinder_001-mesh-map-0-array" count="1206" stride="2">
              <param name="S" type="float"/>
              <param name="T" type="float"/>
            </accessor>
          </technique_common>
        </source>
        <source id="Cylinder_001-mesh-map-1">
          <float_array id="Cylinder_001-mesh-map-1-array" count="2412">0 0 0 0 0 0 0 0 0 0 0 0 0 0 0 0 0 0 0 0 0 0 0 0 0 0 0 0 0 0 0 0 0 0 0 0 0 0 0 0 0 0 0 0 0 0 0 0 0 0 0 0 0 0 0 0 0 0 0 0 0 0 0 0 0 0 0 0 0 0 0 0 0 0 0 0 0 0 0 0 0 0 0 0 0 0 0 0 0 0 0 0 0 0 0 0 0 0 0 0 0 0 0 0 0 0 0 0 0 0 0 0 0 0 0 0 0 0 0 0 0 0 0 0 0 0 0 0 0 0 0 0 0 0 0 0 0 0 0 0 0 0 0 0 0 0 0 0 0 0 0 0 0 0 0 0 0 0 0 0 0 0 0 0 0 0 0 0 0 0 0 0 0 0 0 0 0 0 0 0 0 0 0 0 0 0 0 0 0 0 0 0 0 0 0 0 0 0 0 0 0 0 0 0 0 0 0 0 0 0 0 0 0 0 0 0 0 0 0 0 0 0 0 0 0 0 0 0 0 0 0 0 0 0 0 0 0 0 0 0 0 0 0 0 0 0 0 0 0 0 0 0 0 0 0 0 0 0 0 0 0 0 0 0 0 0 0 0 0 0 0 0 0 0 0 0 0 0 0 0 0 0 0 0 0 0 0 0 0 0 0 0 0 0 0 0 0 0 0 0 0 0 0 0 0 0 0 0 0 0 0 0 0 0 0 0 0 0 0 0 0 0 0 0 0 0 0 0 0 0 0 0 0 0 0 0 0 0 0 0 0 0 0 0 0 0 0 0 0 0 0 0 0 0 0 0 0 0 0 0 0 0 0 0 0 0 0 0 0 0 0 0 0 0 0 0 0 0 0 0 0 0 0 0 0 0 0 0 0 0 0 0 0 0 0 0 0 0 0 0 0 0 0 0 0 0 0 0 0 0 0 0 0 0 0 0 0 0 0 0 0 0 0 0 0 0 0 0 0 0 0 0 0 0 0 0 0 0 0 0 0 0 0 0 0 0 0 0 0 0 0 0 0 0 0 0 0 0 0 0 0 0 0 0 0 0 0 0 0 0 0 0 0 0 0 0 0 0 0 0 0 0 0 0 0 0 0 0 0 0 0 0 0 0 0 0 0 0 0 0 0 0 0 0 0 0 0 0 0 0 0 0 0 0 0 0 0 0 0 0 0 0 0 0 0 0 0 0 0 0 0 0 0 0 0 0 0 0 0 0 0 0 0 0 0 0 0 0 0 0 0 0 0 0 0 0 0 0 0 0 0 0 0 0 0 0 0 0 0 0 0 0 0 0 0 0 0 0 0 0 0 0 0 0 0 0 0 0 0 0 0 0 0 0 0 0 0 0 0 0 0 0 0 0 0 0 0 0 0 0 0 0 0 0 0 0 0 0 0 0 0 0 0 0 0 0 0 0 0 0 0 0 0 0 0 0 0 0 0 0 0 0 0 0 0 0 0 0 0 0 0 0 0 0 0 0 0 0 0 0 0 0 0 0 0 0 0 0 0 0 0 0 0 0 0 0 0 0 0 0 0 0 0 0 0 0 0 0 0 0 0 0 0 0 0 0 0 0 0 0 0 0 0 0 0 0 0 0 0 0 0 0 0 0 0 0 0 0 0 0 0 0 0 0 0 0 0 0 0 0 0 0 0 0 0 0 0 0 0 0 0 0 0 0 0 0 0 0 0 0 0 0 0 0 0 0 0 0 0 0 0 0 0 0 0 0 0 0 0 0 0 0 0 0 0 0 0 0 0 0 0 0 0 0 0 0 0 0 0 0 0 0 0 0 0 0 0 0 0 0 0 0 0 0 0 0 0 0 0 0 0 0 0 0 0 0 0 0 0 0 0 0 0 0 0 0 0 0 0 0 0 0 0 0 0 0 0 0 0 0 0 0 0 0 0 0 0 0 0 0 0 0 0 0 0 0 0 0 0 0 0 0 0 0 0 0 0 0 0 0 0 0 0 0 0 0 0 0 0 0 0 0 0 0 0 0 0 0 0 0 0 0 0 0 0 0 0 0 0 0 0 0 0 0 0 0 0 0 0 0 0 0 0 0 0 0 0 0 0 0 0 0 0 0 0 0 0 0 0 0 0 0 0 0 0 0 0 0 0 0 0 0 0 0 0 0 0 0 0 0 0 0 0 0 0 0 0 0 0 0 0 0 0 0 0 0 0 0 0 0 0 0 0 0 0 0 0 0 0 0 0 0 0 0 0 0 0 0 0 0 0 0 0 0 0 0 0 0 0 0 0 0 0 0 0 0 0 0 0 0 0 0 0 0 0 0 0 0 0 0 0 0 0 0 0 0 0 0 0 0 0 0 0 0 0 0 0 0 0 0 0 0 0 0 0 0 0 0 0 0 0 0 0 0 0 0 0 0 0 0 0 0 0 0 0 0 0 0 0 0 0 0 0 0 0 0 0 0 0 0 0 0 0 0 0 0 0 0 0 0 0 0 0 0 0 0 0 0 0 0 0 0 0 0 0 0 0 0 0 0 0 0 0 0 0 0 0 0 0 0 0 0 0 0 0 0 0 0 0 0 0 0 0 0 0 0 0 0 0 0 0 0 0 0 0 0 0 0 0 0 0 0 0 0 0 0 0 0 0 0 0 0 0 0 0 0 0 0 0 0 0 0 0 0 0 0 0 0 0 0 0 0 0 0 0 0 0 0 0 0 0 0 0 0 0 0 0 0 0 0 0 0 0 0 0 0 0 0 0 0 0 0 0 0 0 0 0 0 0 0 0 0 0 0 0 0 0 0 0 0 0 0 0 0 0 0 0 0 0 0 0 0 0 0 0 0 0 0 0 0 0 0 0 0 0 0 0 0 0 0 0 0 0 0 0 0 0 0 0 0 0 0 0 0 0 0 0 0 0 0 0 0 0 0 0 0 0 0 0 0 0 0 0 0 0 0 0 0 0 0 0 0 0 0 0 0 0 0 0 0 0 0 0 0 0 0 0 0 0 0 0 0 0 0 0 0 0 0 0 0 0 0 0 0 0 0 0 0 0 0 0 0 0 0 0 0 0 0 0 0 0 0 0 0 0 0 0 0 0 0 0 0 0 0 0 0 0 0 0 0 0 0 0 0 0 0 0 0 0 0 0 0 0 0 0 0 0 0 0 0 0 0 0 0 0 0 0 0 0 0 0 0 0 0 0 0 0 0 0 0 0 0 0 0 0 0 0 0 0 0 0 0 0 0 0 0 0 0 0 0 0 0 0 0 0 0 0 0 0 0 0 0 0 0 0 0 0 0 0 0 0 0 0 0 0 0 0 0 0 0 0 0 0 0 0 0 0 0 0 0 0 0 0 0 0 0 0 0 0 0 0 0 0 0 0 0 0 0 0 0 0 0 0 0 0 0 0 0 0 0 0 0 0 0 0 0 0 0 0 0 0 0 0 0 0 0 0 0 0 0 0 0 0 0 0 0 0 0 0 0 0 0 0 0 0 0 0 0 0 0 0 0 0 0 0 0 0 0 0 0 0 0 0 0 0 0 0 0 0 0 0 0 0 0 0 0 0 0 0 0 0 0 0 0 0 0 0 0 0 0 0 0 0 0 0 0 0 0 0 0 0 0 0 0 0 0 0 0 0 0 0 0 0 0 0 0 0 0 0 0 0 0 0 0 0 0 0 0 0 0 0 0 0 0 0 0 0 0 0 0 0 0 0 0 0 0 0 0 0 0 0 0 0 0 0 0 0 0 0 0 0 0 0 0 0 0 0 0 0 0 0 0 0 0 0 0 0 0 0 0 0 0 0 0 0 0 0 0 0 0 0 0 0 0 0 0 0 0 0 0 0 0 0 0 0 0 0 0 0 0 0 0 0 0 0 0 0 0 0 0 0 0 0 0 0 0 0 0 0 0 0 0 0 0 0 0 0 0 0 0 0 0 0 0 0 0 0 0 0 0 0 0 0 0 0 0 0 0 0 0 0 0 0 0 0 0 0 0 0 0 0 0 0 0 0 0 0 0 0 0 0 0 0 0 0 0 0 0 0 0 0 0 0 0 0 0 0 0 0 0 0 0 0 0 0 0 0 0 0 0 0 0 0 0 0 0 0 0 0 0 0 0 0 0 0 0 0 0 0 0 0 0 0 0 0 0 0 0 0 0 0 0 0 0 0 0 0 0 0 0 0 0 0 0 0 0 0 0 0 0 0 0 0 0 0 0 0 0 0 0 0 0 0 0 0 0 0 0 0 0 0 0 0 0 0 0 0 0 0 0 0 0 0 0 0 0 0 0 0 0 0 0 0 0 0 0 0 0 0 0 0 0 0 0 0 0 0 0 0 0 0 0 0 0 0 0 0 0 0 0 0 0 0 0 0 0 0 0 0 0 0 0 0 0 0 0 0 0 0 0 0 0 0 0 0 0 0 0 0 0 0 0 0 0 0 0 0 0 0 0 0 0 0 0 0 0 0 0 0 0 0 0 0 0 0 0 0 0 0 0 0 0 0 0 0 0 0 0 0 0 0 0 0 0 0 0 0 0 0 0 0 0 0 0 0 0 0 0 0 0 0 0 0 0 0 0 0 0 0 0 0 0 0 0 0 0 0 0 0 0 0 0 0 0 0 0 0 0 0 0 0 0 0 0 0 0 0 0 0 0 0 0 0 0 0 0 0 0 0 0 0 0 0 0 0 0 0 0 0 0 0 0 0 0 0 0 0 0 0 0 0 0 0 0 0 0 0 0 0 0 0 0 0 0 0 0 0 0 0 0 0 0 0 0 0 0 0 0 0 0 0 0 0 0 0 0 0 0 0 0 0 0 0 0 0 0 0 0 0 0 0 0 0 0 0 0 0 0 0 0 0 0 0 0 0 0 0 0 0 0 0 0 0 0 0 0 0 0 0 0 0 0 0 0 0 0 0 0 0 0 0 0 0 0 0 0 0 0 0 0 0 0 0 0 0 0 0 0 0 0 0 0 0 0 0 0 0 0 0 0 0 0 0 0 0 0 0 0 0 0 0 0 0 0 0 0 0 0 0 0 0 0 0 0 0 0 0 0 0 0 0 0 0 0 0 0 0 0 0 0 0 0 0 0 0 0 0 0 0 0 0 0 0 0 0 0 0 0 0 0 0 0 0 0 0 0 0 0 0 0 0 0 0 0 0 0 0 0 0 0 0 0 0 0 0 0 0 0 0 0 0 0 0 0 0 0 0 0 0 0 0 0 0 0 0 0 0 0 0 0 0 0 0 0 0 0 0 0 0 0 0 0 0 0 0 0 0 0 0 0 0 0 0 0 0 0 0 0 0 0 0 0 0 0 0 0 0 0 0 0 0 0 0 0 0 0 0 0 0 0 0 0 0 0 0 0 0 0 0 0 0 0 0 0 0 0 0 0 0 0 0 0 0 0 0 0 0 0 0 0 0 0 0 0 0 0 0 0 0 0 0 0 0 0 0 0 0 0 0 0 0 0</float_array>
          <technique_common>
            <accessor source="#Cylinder_001-mesh-map-1-array" count="1206" stride="2">
              <param name="S" type="float"/>
              <param name="T" type="float"/>
            </accessor>
          </technique_common>
        </source>
        <vertices id="Cylinder_001-mesh-vertices">
          <input semantic="POSITION" source="#Cylinder_001-mesh-positions"/>
        </vertices>
        <triangles material="Material_006-material" count="402">
          <input semantic="VERTEX" source="#Cylinder_001-mesh-vertices" offset="0"/>
          <input semantic="NORMAL" source="#Cylinder_001-mesh-normals" offset="1"/>
          <input semantic="TEXCOORD" source="#Cylinder_001-mesh-map-0" offset="2" set="0"/>
          <input semantic="TEXCOORD" source="#Cylinder_001-mesh-map-1" offset="2" set="1"/>
          <p>2 0 0 33 1 1 7 2 2 5 3 3 34 4 4 3 5 5 3 5 6 32 6 7 2 0 8 0 7 9 35 8 10 5 3 11 6 9 12 37 10 13 4 11 14 4 11 15 39 12 16 1 13 17 1 13 18 36 14 19 0 7 20 7 2 21 38 15 22 6 9 23 7 2 24 18 16 25 2 0 26 3 5 27 21 17 28 5 3 29 3 5 30 18 16 31 19 18 32 0 7 33 21 17 34 16 19 35 4 11 36 22 20 37 6 9 38 4 11 39 17 21 40 20 22 41 0 7 42 17 21 43 1 13 44 7 2 45 22 20 46 23 23 47 19 18 48 29 24 49 21 17 50 19 18 51 26 25 52 27 26 53 16 19 54 29 24 55 24 27 56 20 22 57 30 28 58 22 20 59 20 22 60 25 29 61 28 30 62 16 19 63 25 29 64 17 21 65 22 20 66 31 31 67 23 23 68 18 16 69 31 31 70 26 25 71 30 32 72 28 32 73 27 32 74 2 0 75 32 6 76 33 1 77 5 3 78 35 8 79 34 4 80 3 5 81 34 4 82 32 6 83 0 7 84 36 14 85 35 8 86 6 9 87 38 15 88 37 10 89 4 11 90 37 10 91 39 12 92 1 13 93 39 12 94 36 14 95 7 2 96 33 1 97 38 15 98 7 2 99 23 23 100 18 16 101 3 5 102 19 18 103 21 17 104 3 5 105 2 0 106 18 16 107 0 7 108 5 3 109 21 17 110 4 11 111 20 22 112 22 20 113 4 11 114 1 13 115 17 21 116 0 7 117 16 19 118 17 21 119 7 2 120 6 9 121 22 20 122 19 18 123 27 26 124 29 24 125 19 18 126 18 16 127 26 25 128 16 19 129 21 17 130 29 24 131 20 22 132 28 30 133 30 28 134 20 22 135 17 21 136 25 29 137 16 19 138 24 27 139 25 29 140 22 20 141 30 28 142 31 31 143 18 16 144 23 23 145 31 31 146 28 33 147 25 33 148 24 33 149 24 33 150 29 33 151 28 33 152 29 34 153 27 34 154 28 34 155 27 33 156 26 33 157 31 33 158 31 33 159 30 33 160 27 33 161 8 35 162 47 36 163 44 37 164 15 38 165 32 6 166 10 39 167 11 40 168 35 8 169 13 41 170 11 40 171 32 6 172 34 4 173 8 35 174 35 8 175 36 14 176 14 42 177 37 10 178 38 15 179 9 43 180 37 10 181 12 44 182 8 35 183 39 12 184 9 43 185 15 38 186 38 15 187 33 1 188 46 45 189 40 46 190 43 47 191 12 44 192 46 45 193 45 48 194 10 39 195 42 49 196 40 46 197 10 39 198 41 50 199 15 38 200 14 42 201 41 50 202 46 45 203 12 44 204 47 36 205 9 43 206 13 41 207 44 37 208 43 47 209 13 41 210 42 49 211 11 40 212 59 51 213 74 52 214 58 53 215 51 54 216 66 55 217 50 56 218 55 57 219 68 58 220 52 59 221 54 60 222 69 61 223 53 62 224 50 56 225 64 63 226 48 64 227 48 64 228 65 65 229 49 66 230 49 66 231 70 67 232 54 60 233 53 62 234 71 68 235 55 57 236 52 59 237 67 69 238 51 54 239 57 70 240 64 63 241 56 71 242 58 53 243 67 69 244 59 51 245 58 53 246 64 63 247 66 55 248 60 72 249 67 69 250 68 58 251 62 73 252 69 61 253 70 67 254 63 74 255 69 61 256 61 75 257 60 72 258 71 68 259 63 74 260 57 70 261 70 67 262 65 65 263 78 76 264 72 77 265 75 78 266 63 74 267 76 79 268 60 72 269 61 75 270 78 76 271 77 80 272 58 53 273 72 77 274 56 71 275 57 70 276 72 77 277 73 81 278 62 73 279 73 81 280 78 76 281 63 74 282 77 80 283 79 82 284 60 72 285 75 78 286 59 51 287 84 83 288 82 83 289 80 83 290 81 84 291 87 84 292 85 84 293 82 85 294 87 85 295 83 85 296 81 86 297 82 86 298 83 86 299 86 87 300 85 87 301 87 87 302 90 88 303 92 88 304 88 88 305 95 84 306 89 84 307 93 84 308 95 89 309 90 89 310 91 89 311 89 90 312 90 90 313 88 90 314 93 91 315 94 91 316 95 91 317 100 92 318 98 92 319 96 92 320 97 93 321 103 93 322 101 93 323 98 94 324 103 94 325 99 94 326 97 95 327 98 95 328 99 95 329 102 96 330 101 96 331 103 96 332 106 97 333 108 97 334 104 97 335 109 98 336 107 98 337 105 98 338 111 99 339 106 99 340 107 99 341 105 100 342 106 100 343 104 100 344 109 101 345 110 101 346 111 101 347 123 102 348 138 103 349 122 104 350 115 105 351 130 106 352 114 107 353 119 108 354 132 109 355 116 110 356 118 111 357 133 112 358 117 113 359 114 107 360 128 114 361 112 115 362 112 115 363 129 116 364 113 117 365 113 117 366 134 118 367 118 111 368 117 113 369 135 119 370 119 108 371 116 110 372 131 120 373 115 105 374 121 121 375 128 114 376 120 122 377 122 104 378 131 120 379 123 102 380 122 104 381 128 114 382 130 106 383 124 123 384 131 120 385 132 109 386 126 124 387 133 112 388 134 118 389 127 125 390 133 112 391 125 126 392 127 125 393 132 109 394 135 119 395 121 121 396 134 118 397 129 116 398 142 127 399 136 128 400 139 129 401 127 125 402 140 130 403 124 123 404 125 126 405 142 127 406 141 131 407 122 104 408 136 128 409 120 122 410 121 121 411 136 128 412 137 132 413 126 124 414 137 132 415 142 127 416 127 125 417 141 131 418 143 133 419 124 123 420 139 129 421 123 102 422 170 134 423 155 135 424 154 136 425 162 137 426 147 138 427 146 139 428 164 140 429 151 141 430 148 142 431 165 143 432 150 144 433 149 145 434 160 146 435 146 139 436 144 147 437 161 148 438 144 147 439 145 149 440 166 150 441 145 149 442 150 144 443 167 151 444 149 145 445 151 141 446 163 152 447 148 142 448 147 138 449 160 146 450 153 153 451 152 154 452 163 152 453 154 136 454 155 135 455 154 136 456 160 146 457 152 154 458 156 155 459 163 152 460 155 135 461 158 156 462 165 143 463 157 157 464 165 143 465 159 158 466 157 157 467 159 158 468 164 140 469 156 155 470 153 153 471 166 150 472 158 156 473 175 159 474 171 160 475 168 161 476 172 162 477 159 158 478 156 155 479 157 157 480 174 163 481 158 156 482 168 161 483 154 136 484 152 154 485 153 153 486 168 161 487 152 154 488 158 156 489 169 164 490 153 153 491 159 158 492 173 165 493 157 157 494 171 160 495 156 155 496 155 135 497 187 166 498 202 167 499 186 168 500 179 169 501 194 170 502 178 171 503 183 172 504 196 173 505 180 174 506 182 175 507 197 176 508 181 177 509 178 171 510 192 178 511 176 179 512 176 179 513 193 180 514 177 181 515 177 181 516 198 182 517 182 175 518 181 177 519 199 183 520 183 172 521 180 174 522 195 184 523 179 169 524 185 185 525 192 178 526 184 186 527 186 168 528 195 184 529 187 166 530 186 168 531 192 178 532 194 170 533 188 187 534 195 184 535 196 173 536 190 188 537 197 176 538 198 182 539 191 189 540 197 176 541 189 190 542 191 189 543 196 173 544 199 183 545 185 185 546 198 182 547 193 180 548 206 191 549 200 192 550 203 193 551 191 189 552 204 194 553 188 187 554 189 190 555 206 191 556 205 195 557 186 168 558 200 192 559 184 186 560 185 185 561 200 192 562 201 196 563 190 188 564 201 196 565 206 191 566 191 189 567 205 195 568 207 197 569 188 187 570 203 193 571 187 166 572 234 198 573 219 199 574 218 200 575 226 201 576 211 202 577 210 203 578 228 204 579 215 205 580 212 206 581 229 207 582 214 208 583 213 209 584 224 210 585 210 203 586 208 211 587 225 212 588 208 211 589 209 213 590 230 214 591 209 213 592 214 208 593 231 215 594 213 209 595 215 205 596 227 216 597 212 206 598 211 202 599 224 210 600 217 217 601 216 218 602 227 216 603 218 200 604 219 199 605 218 200 606 224 210 607 216 218 608 220 219 609 227 216 610 219 199 611 222 220 612 229 207 613 221 221 614 229 207 615 223 222 616 221 221 617 223 222 618 228 204 619 220 219 620 217 217 621 230 214 622 222 220 623 239 223 624 235 224 625 232 225 626 236 226 627 223 222 628 220 219 629 221 221 630 238 227 631 222 220 632 232 225 633 218 200 634 216 218 635 217 217 636 232 225 637 216 218 638 222 220 639 233 228 640 217 217 641 223 222 642 237 229 643 221 221 644 235 224 645 220 219 646 219 199 647 8 35 648 9 43 649 47 36 650 15 38 651 33 1 652 32 6 653 11 40 654 34 4 655 35 8 656 11 40 657 10 39 658 32 6 659 8 35 660 13 41 661 35 8 662 14 42 663 12 44 664 37 10 665 9 43 666 39 12 667 37 10 668 8 35 669 36 14 670 39 12 671 15 38 672 14 42 673 38 15 674 46 45 675 41 50 676 40 46 677 40 46 678 42 49 679 43 47 680 43 47 681 44 37 682 47 36 683 47 36 684 45 48 685 43 47 686 45 48 687 46 45 688 43 47 689 12 44 690 14 42 691 46 45 692 10 39 693 11 40 694 42 49 695 10 39 696 40 46 697 41 50 698 14 42 699 15 38 700 41 50 701 12 44 702 45 48 703 47 36 704 13 41 705 8 35 706 44 37 707 13 41 708 43 47 709 42 49 710 59 51 711 75 78 712 74 52 713 51 54 714 67 69 715 66 55 716 55 57 717 71 68 718 68 58 719 54 60 720 70 67 721 69 61 722 50 56 723 66 55 724 64 63 725 48 64 726 64 63 727 65 65 728 49 66 729 65 65 730 70 67 731 53 62 732 69 61 733 71 68 734 52 59 735 68 58 736 67 69 737 57 70 738 65 65 739 64 63 740 58 53 741 66 55 742 67 69 743 58 53 744 56 71 745 64 63 746 60 72 747 59 51 748 67 69 749 62 73 750 61 75 751 69 61 752 63 74 753 71 68 754 69 61 755 60 72 756 68 58 757 71 68 758 57 70 759 62 73 760 70 67 761 78 76 762 73 81 763 72 77 764 72 77 765 74 52 766 75 78 767 75 78 768 76 79 769 79 82 770 79 82 771 77 80 772 75 78 773 77 80 774 78 76 775 75 78 776 63 74 777 79 82 778 76 79 779 61 75 780 62 73 781 78 76 782 58 53 783 74 52 784 72 77 785 57 70 786 56 71 787 72 77 788 62 73 789 57 70 790 73 81 791 63 74 792 61 75 793 77 80 794 60 72 795 76 79 796 75 78 797 84 83 798 86 83 799 82 83 800 81 84 801 83 84 802 87 84 803 82 85 804 86 85 805 87 85 806 81 230 807 80 230 808 82 230 809 86 231 810 84 231 811 85 231 812 90 232 813 94 232 814 92 232 815 95 84 816 91 84 817 89 84 818 95 89 819 94 89 820 90 89 821 89 233 822 91 233 823 90 233 824 93 234 825 92 234 826 94 234 827 100 235 828 102 235 829 98 235 830 97 236 831 99 236 832 103 236 833 98 94 834 102 94 835 103 94 836 97 237 837 96 237 838 98 237 839 102 238 840 100 238 841 101 238 842 106 239 843 110 239 844 108 239 845 109 84 846 111 84 847 107 84 848 111 99 849 110 99 850 106 99 851 105 240 852 107 240 853 106 240 854 109 241 855 108 241 856 110 241 857 123 102 858 139 129 859 138 103 860 115 105 861 131 120 862 130 106 863 119 108 864 135 119 865 132 109 866 118 111 867 134 118 868 133 112 869 114 107 870 130 106 871 128 114 872 112 115 873 128 114 874 129 116 875 113 117 876 129 116 877 134 118 878 117 113 879 133 112 880 135 119 881 116 110 882 132 109 883 131 120 884 121 121 885 129 116 886 128 114 887 122 104 888 130 106 889 131 120 890 122 104 891 120 122 892 128 114 893 124 123 894 123 102 895 131 120 896 126 124 897 125 126 898 133 112 899 127 125 900 135 119 901 133 112 902 127 125 903 124 123 904 132 109 905 121 121 906 126 124 907 134 118 908 142 127 909 137 132 910 136 128 911 136 128 912 138 103 913 139 129 914 139 129 915 140 130 916 143 133 917 143 133 918 141 131 919 139 129 920 141 131 921 142 127 922 139 129 923 127 125 924 143 133 925 140 130 926 125 126 927 126 124 928 142 127 929 122 104 930 138 103 931 136 128 932 121 121 933 120 122 934 136 128 935 126 124 936 121 121 937 137 132 938 127 125 939 125 126 940 141 131 941 124 123 942 140 130 943 139 129 944 170 134 945 171 160 946 155 135 947 162 137 948 163 152 949 147 138 950 164 140 951 167 151 952 151 141 953 165 143 954 166 150 955 150 144 956 160 146 957 162 137 958 146 139 959 161 148 960 160 146 961 144 147 962 166 150 963 161 148 964 145 149 965 167 151 966 165 143 967 149 145 968 163 152 969 164 140 970 148 142 971 160 146 972 161 148 973 153 153 974 163 152 975 162 137 976 154 136 977 154 136 978 162 137 979 160 146 980 156 155 981 164 140 982 163 152 983 158 156 984 166 150 985 165 143 986 165 143 987 167 151 988 159 158 989 159 158 990 167 151 991 164 140 992 153 153 993 161 148 994 166 150 995 168 161 996 169 164 997 174 163 998 174 163 999 173 165 1000 168 161 1001 173 165 1002 175 159 1003 168 161 1004 175 159 1005 172 162 1006 171 160 1007 171 160 1008 170 134 1009 168 161 1010 172 162 1011 175 159 1012 159 158 1013 157 157 1014 173 165 1015 174 163 1016 168 161 1017 170 134 1018 154 136 1019 153 153 1020 169 164 1021 168 161 1022 158 156 1023 174 163 1024 169 164 1025 159 158 1026 175 159 1027 173 165 1028 171 160 1029 172 162 1030 156 155 1031 187 166 1032 203 193 1033 202 167 1034 179 169 1035 195 184 1036 194 170 1037 183 172 1038 199 183 1039 196 173 1040 182 175 1041 198 182 1042 197 176 1043 178 171 1044 194 170 1045 192 178 1046 176 179 1047 192 178 1048 193 180 1049 177 181 1050 193 180 1051 198 182 1052 181 177 1053 197 176 1054 199 183 1055 180 174 1056 196 173 1057 195 184 1058 185 185 1059 193 180 1060 192 178 1061 186 168 1062 194 170 1063 195 184 1064 186 168 1065 184 186 1066 192 178 1067 188 187 1068 187 166 1069 195 184 1070 190 188 1071 189 190 1072 197 176 1073 191 189 1074 199 183 1075 197 176 1076 191 189 1077 188 187 1078 196 173 1079 185 185 1080 190 188 1081 198 182 1082 206 191 1083 201 196 1084 200 192 1085 200 192 1086 202 167 1087 203 193 1088 203 193 1089 204 194 1090 207 197 1091 207 197 1092 205 195 1093 203 193 1094 205 195 1095 206 191 1096 203 193 1097 191 189 1098 207 197 1099 204 194 1100 189 190 1101 190 188 1102 206 191 1103 186 168 1104 202 167 1105 200 192 1106 185 185 1107 184 186 1108 200 192 1109 190 188 1110 185 185 1111 201 196 1112 191 189 1113 189 190 1114 205 195 1115 188 187 1116 204 194 1117 203 193 1118 234 198 1119 235 224 1120 219 199 1121 226 201 1122 227 216 1123 211 202 1124 228 204 1125 231 215 1126 215 205 1127 229 207 1128 230 214 1129 214 208 1130 224 210 1131 226 201 1132 210 203 1133 225 212 1134 224 210 1135 208 211 1136 230 214 1137 225 212 1138 209 213 1139 231 215 1140 229 207 1141 213 209 1142 227 216 1143 228 204 1144 212 206 1145 224 210 1146 225 212 1147 217 217 1148 227 216 1149 226 201 1150 218 200 1151 218 200 1152 226 201 1153 224 210 1154 220 219 1155 228 204 1156 227 216 1157 222 220 1158 230 214 1159 229 207 1160 229 207 1161 231 215 1162 223 222 1163 223 222 1164 231 215 1165 228 204 1166 217 217 1167 225 212 1168 230 214 1169 232 225 1170 233 228 1171 238 227 1172 238 227 1173 237 229 1174 232 225 1175 237 229 1176 239 223 1177 232 225 1178 239 223 1179 236 226 1180 235 224 1181 235 224 1182 234 198 1183 232 225 1184 236 226 1185 239 223 1186 223 222 1187 221 221 1188 237 229 1189 238 227 1190 232 225 1191 234 198 1192 218 200 1193 217 217 1194 233 228 1195 232 225 1196 222 220 1197 238 227 1198 233 228 1199 223 222 1200 239 223 1201 237 229 1202 235 224 1203 236 226 1204 220 219 1205</p>
        </triangles>
      </mesh>
    </geometry>
  </library_geometries>
  <library_visual_scenes>
    <visual_scene id="Scene" name="Scene">
      <node id="icbm" name="icbm" type="NODE">
        <matrix sid="transform">1 0 0 0 0 1 0 0 0 0 1 0 0 0 0 1</matrix>
        <instance_geometry url="#Cylinder_001-mesh" name="icbm">
          <bind_material>
            <technique_common>
              <instance_material symbol="Material_006-material" target="#Material_006-material">
                <bind_vertex_input semantic="Cylinder_001-mesh-map-0" input_semantic="TEXCOORD" input_set="0"/>
                <bind_vertex_input semantic="Cylinder_001-mesh-map-1" input_semantic="TEXCOORD" input_set="1"/>
              </instance_material>
            </technique_common>
          </bind_material>
        </instance_geometry>
        <node id="prop_turbo_01" name="prop_turbo_01" type="NODE">
          <matrix sid="transform">0.645148 0 0 0 0 0.645148 0 0 0 0 0.645148 0.4934218 0 0 0 1</matrix>
        </node>
        <node id="prop_turbo_02" name="prop_turbo_02" type="NODE">
          <matrix sid="transform">0.645148 0 0 0 0 0.645148 0 1.08831 0 0 0.645148 0.4934218 0 0 0 1</matrix>
        </node>
        <node id="prop_turbo_03" name="prop_turbo_03" type="NODE">
          <matrix sid="transform">0.645148 0 0 0 0 0.645148 0 -1.088307 0 0 0.645148 0.4934218 0 0 0 1</matrix>
        </node>
        <node id="prop_turbo_04" name="prop_turbo_04" type="NODE">
          <matrix sid="transform">4.87073e-8 -0.645148 0 -1.088308 0.645148 4.87073e-8 0 1.46125e-6 0 0 0.645148 0.4934218 0 0 0 1</matrix>
        </node>
        <node id="prop_turbo_05" name="prop_turbo_05" type="NODE">
          <matrix sid="transform">4.87073e-8 -0.645148 0 1.088308 0.645148 4.87073e-8 0 1.53815e-6 0 0 0.645148 0.4934218 0 0 0 1</matrix>
        </node>
      </node>
    </visual_scene>
  </library_visual_scenes>
  <scene>
    <instance_visual_scene url="#Scene"/>
  </scene>
</COLLADA>