<?xml version="1.0" encoding="utf-8"?>
<COLLADA xmlns="http://www.collada.org/2005/11/COLLADASchema" version="1.4.1" xmlns:xsi="http://www.w3.org/2001/XMLSchema-instance">
  <asset>
    <contributor>
      <author>Blender User</author>
      <authoring_tool>Blender 3.4.1</authoring_tool>
    </contributor>
    <created>2026-07-10T00:27:50</created>
    <modified>2026-07-10T00:27:50</modified>
    <unit name="meter" meter="1"/>
    <up_axis>Z_UP</up_axis>
  </asset>
  <library_effects>
    <effect id="Material_003-effect">
      <profile_COMMON>
        <technique sid="common">
          <lambert>
            <emission>
              <color sid="emission">0 0 0 1</color>
            </emission>
            <diffuse>
              <color sid="diffuse">0.8 0.8 0.8 1</color>
            </diffuse>
            <index_of_refraction>
              <float sid="ior">1.45</float>
            </index_of_refraction>
          </lambert>
        </technique>
      </profile_COMMON>
    </effect>
  </library_effects>
  <library_images/>
  <library_materials>
    <material id="Material_003-material" name="Material.003">
      <instance_effect url="#Material_003-effect"/>
    </material>
  </library_materials>
  <library_geometries>
    <geometry id="Cube_003-mesh" name="Cube.003">
      <mesh>
        <source id="Cube_003-mesh-positions">
          <float_array id="Cube_003-mesh-positions-array" count="297">-0.04172801 0.003453433 0.07233834 -0.04172801 0.02576053 0.3198547 0.04172801 0.003453433 0.07233834 0.04172801 0.02576053 0.3198547 -0.04172801 -0.1768923 0.09212523 -0.04172801 -0.1545852 0.3396416 0.04172801 -0.1545852 0.3396416 0.04172801 -0.1768923 0.09212523 -0.03104716 0.00159955 0.07603889 0.03104716 0.00159955 0.07603889 -0.03104716 -0.1762334 0.09206587 0.03104716 -0.1762334 0.09206587 -0.03104716 -0.003100216 0.02388882 0.03104716 -0.003100216 0.02388882 -0.03104716 -0.1809334 0.0399158 0.03104716 -0.1809334 0.0399158 -0.03104716 -0.01698613 0.02514028 0.03104716 -0.01698613 0.02514028 -0.03104716 -0.1670475 0.03866434 0.03104716 -0.1670475 0.03866434 -0.03104716 0.03761363 -0.1627107 0.03104716 0.03761363 -0.1627107 -0.03104716 -0.1124477 -0.1491866 0.03104716 -0.1124477 -0.1491866 -0.03104716 0.03316777 -0.2120404 0.03104716 0.03316777 -0.2120404 -0.03104716 -0.1168936 -0.1985164 0.03104716 -0.1168936 -0.1985164 -0.03104716 -0.01242762 -0.2502084 0.03104716 -0.01242762 -0.2502084 -0.03104716 -0.1068615 -0.2416976 0.03104716 -0.1068615 -0.2416976 -0.0367192 -0.08711576 0.08403426 0.0367192 -0.08711576 0.08403426 -0.0367192 -0.09181565 0.03188419 0.0367192 -0.09181565 0.03188419 -0.0367192 -0.091847 0.03188699 0.0367192 -0.091847 0.03188699 -0.0367192 -0.03724735 -0.155964 0.0367192 -0.03724735 -0.155964 -0.0367192 -0.04169315 -0.2052937 0.0367192 -0.04169315 -0.2052937 -0.0367192 -0.05953776 -0.2459626 0.0367192 -0.05953776 -0.2459626 -0.02140212 -0.4627588 0.3576579 0.02122771 -0.4627588 0.3576579 -0.02140212 -0.5006948 0.3610768 0.02122771 -0.5006948 0.3610768 0.02122771 -0.4582 0.4082412 -0.02140212 -0.4582 0.4082412 0.02122771 -0.4961361 0.41166 -0.02140212 -0.4961361 0.41166 -7.43014e-4 -0.4559124 0.3570408 -7.43014e-4 -0.5075412 0.3616938 -7.43014e-4 -0.4513536 0.4076241 -7.43014e-4 -0.5029824 0.4122771 -0.02291733 -0.2026113 0.09660172 0.02291733 -0.2026113 0.09660172 -0.02291733 -0.348512 0.1097508 0.02291733 -0.348512 0.1097508 -0.02291733 -0.2240854 0.02306056 0.02291733 -0.2240854 0.02306056 -0.02291733 -0.3405327 0.0335552 0.02291733 -0.3405327 0.0335552 0.02291733 -0.1773866 0.1076664 0.02291733 -0.4100868 0.1286382 -0.02291733 -0.4100868 0.1286382 -0.02291733 -0.1773866 0.1076664 0.02291733 -0.2064505 0.008133292 0.02291733 -0.3992873 0.02551239 -0.02291733 -0.3992873 0.02551239 -0.02291733 -0.2064505 0.008133292 -0.03282135 -0.1802794 0.3426859 -0.04172801 -0.155964 0.3243423 0.03282135 -0.1802794 0.3426859 0.04172801 -0.155964 0.3243423 -0.03282135 -0.7336365 0.3925565 -0.04172801 -0.7608397 0.378856 0.03282135 -0.7336365 0.3925565 0.04172801 -0.7608397 0.378856 0.04172801 -0.7607091 0.380306 -0.03525871 -0.1942173 0.1091832 -0.04172801 -0.1744581 0.1191346 0.04172801 -0.1744581 0.1191346 0.03525871 -0.1942173 0.1091832 -0.04172801 -0.7793338 0.1736482 0.04172801 -0.7793338 0.1736482 -0.0132628 -0.6971374 0.3830633 0.01291984 -0.6971374 0.3830633 -0.0132628 -0.7204372 0.3851632 0.01291984 -0.7204372 0.3851632 0.01291984 -0.6943374 0.4141309 -0.0132628 -0.6943374 0.4141309 0.01291984 -0.7176372 0.4162308 -0.0132628 -0.7176372 0.4162308 -5.74324e-4 -0.6929324 0.3826844 -5.74324e-4 -0.724642 0.3855422 -5.74324e-4 -0.6901324 0.413752 -5.74324e-4 -0.7218421 0.4166098</float_array>
          <technique_common>
            <accessor source="#Cube_003-mesh-positions-array" count="99" stride="3">
              <param name="X" type="float"/>
              <param name="Y" type="float"/>
              <param name="Z" type="float"/>
            </accessor>
          </technique_common>
        </source>
        <source id="Cube_003-mesh-normals">
          <float_array id="Cube_003-mesh-normals-array" count="336">-1 0 0 0 -0.1090619 -0.994035 0 0.109062 0.994035 1 0 0 0 0.08975994 0.9959635 -1 0 0 0 -0.9959635 0.08976089 -0.644232 -0.7634118 -0.04655945 -0.7278135 -0.06602758 -0.6825892 -0.5512817 -0.5627548 -0.615951 0.7226763 -0.06181418 -0.6884171 0.2134981 -0.3603002 -0.9080762 0.7264647 0.04855465 0.6854863 0.6842707 0.7262846 -0.06545358 -0.5570428 0.5391167 -0.6317092 -0.6842707 0.7262846 -0.06545358 1 1.42537e-4 -1.28182e-5 0.5571358 -0.6433036 -0.5251287 -0.6843749 -0.7261872 0.06544739 0.6843749 -0.7261872 0.06544756 -0.7226395 -0.06182557 -0.6884548 -1 1.42537e-4 -1.28182e-5 -0.4090388 0.2625626 -0.8739268 -0.9999527 0.009352445 0.002686202 -0.7264648 0.04855513 0.6854862 -0.5571358 -0.6433036 -0.5251287 0.5570428 0.5391168 -0.6317092 -0.6419424 0.7632744 0.07295364 -0.9998168 0.01369816 -0.01337206 0.4090388 0.2625627 -0.8739268 0.7220193 -0.6885114 -0.06811869 0.9999527 0.009352445 0.002686202 -0.2134981 -0.3603003 -0.9080762 0.644232 -0.7634118 -0.04655945 0.7278135 -0.06602758 -0.6825892 0.9998168 0.01369816 -0.01337206 0.6419424 0.7632744 0.07295364 -0.6056097 0.7067194 -0.3657656 -0.7220194 -0.6885114 -0.06811875 0.5512818 -0.5627548 -0.615951 -0.585785 0.2656316 -0.7656996 0.6056098 0.7067194 -0.3657656 0.5857851 0.2656316 -0.7656996 3.47856e-6 0.08976048 0.9959635 0.2985981 -0.9505265 0.08566546 -1 0 0 -0.315723 0.9450213 -0.08516979 1 0 0 0.2986013 0.9505254 -0.08566695 -0.3157215 -0.9450219 0.08516842 7.23366e-6 0.08975535 0.9959639 -0.5678189 -0.5862508 0.5778337 0.5678182 0.6801184 0.463704 -0.5678182 0.6801184 0.4637041 0.5882569 0.4555473 -0.6681545 -0.5882571 -0.5676696 -0.5759382 -0.588257 0.4555473 -0.6681546 -0.8809994 -0.2665196 0.390906 0.9263167 -0.3112804 -0.212231 -0.9263167 -0.3112804 -0.2122309 0.588257 -0.5676697 -0.5759382 0.5678189 -0.5862507 0.5778338 0.9263167 0.268319 -0.2644666 -0.9263167 0.2683189 -0.2644666 0.8809994 0.3321171 0.3369548 0.8809994 -0.2665197 0.3909059 -0.8809993 0.332117 0.3369547 0 0.6022469 0.7983099 0 -0.449808 0.8931254 -0.8748626 0.04347711 0.4824162 0.8748625 0.04347711 0.4824162 1 0 0 0 0.4498083 -0.8931252 0.8748626 -0.04347711 -0.482416 0 -0.9959635 0.08975988 -9.22146e-6 0.08976006 0.9959635 0.2986003 -0.9505264 0.08565902 -1 0 0 -0.3157238 0.9450209 -0.08517146 0.2986073 0.9505234 -0.08566719 -0.3157081 -0.9450256 0.0851764 -5.16276e-6 0.08976107 0.9959633 -1 0 0 0 0.109062 0.994035 -1 0 0 0 -0.9959635 0.08976 -7.69296e-6 0.08975565 0.9959638 0.2986016 -0.9505256 0.08566397 -0.3157213 0.9450217 -0.08517152 1 0 0 0.2986031 0.9505251 -0.08566534 -0.3157179 -0.945023 0.08516997 -3.2709e-6 0.0897606 0.9959634 0 0.6022468 0.7983101 0 -0.4498122 0.8931233 -0.8748619 0.04347723 0.4824174 0.874862 0.04347723 0.482417 1 0 0 0 0.4498076 -0.8931255 -0.8748626 -0.04347711 -0.482416 0 0.9959635 -0.08975994 5.49056e-6 0.08976131 0.9959633 0.2985885 -0.950529 0.0856719 -1 0 0 -0.3157278 0.9450195 -0.08517134 1 0 0 0.2986035 0.9505248 -0.08566731 -0.3157205 -0.9450228 0.08516275 8.67092e-6 0.08976012 0.9959635 0 -0.109512 -0.9939855 0 0.9959635 -0.08975994 0 -0.109512 -0.9939855</float_array>
          <technique_common>
            <accessor source="#Cube_003-mesh-normals-array" count="112" stride="3">
              <param name="X" type="float"/>
              <param name="Y" type="float"/>
              <param name="Z" type="float"/>
            </accessor>
          </technique_common>
        </source>
        <source id="Cube_003-mesh-map-0">
          <float_array id="Cube_003-mesh-map-0-array" count="972">0.1756085 1.007725 0.1161227 0.7910595 0.1161227 1.007725 0.2598803 0.8611558 0.1284639 0.80167 0.1284639 0.8611558 0.1284639 0.8611558 0.2598803 0.80167 0.2598803 0.8611558 0.1756085 1.007725 0.1161227 0.7910595 0.1756085 0.7910595 0.8107482 0.8840273 0.4671954 0.8215969 0.8107482 0.8215969 0.9852501 0.8128962 0.4532845 0.9954059 0.9852501 0.9954059 0.4974287 0.9954059 0.2851549 0.8128962 0.4974287 0.8128962 0.04003918 0.02359133 0.05691474 0.004980087 0.04385167 0.004980087 0.08029597 0.06520694 0.07576775 0.04444015 0.08029597 0.0651983 0.07576775 0.1491574 0.02619522 0.1260133 0.02619522 0.1491574 0.04122018 0.1491574 0.01662033 0.1260133 0.04122018 0.1260133 0.02619522 0.1491574 0.07576775 0.1260133 0.07576775 0.1491574 0.06570899 0.1491574 0.04122018 0.1260133 0.04122018 0.1491574 0.06187593 0.1260133 0.06079733 0.0454837 0.04121148 0.1260133 0.02619522 0.04060715 0.07576775 0.04444015 0.07576775 0.04060715 0.02166706 0.06520694 0.02619522 0.08586275 0.02166706 0.0651983 0.07576775 0.08969575 0.02619522 0.08586275 0.02619522 0.08969575 0.08146178 0.0454837 0.06079733 0.02359133 0.06079733 0.0454837 0.07576775 0.1260133 0.02619522 0.0454837 0.02619522 0.1260133 0.04121148 0.1260133 0.04003918 0.0454837 0.06079733 0.0454837 0.02619522 0.1260133 0.07576775 0.0454837 0.07576775 0.1260133 0.04003918 0.02359133 0.05691474 0.004980087 0.06079733 0.02359133 0.07576775 0.0454837 0.02619522 0.02359133 0.02619522 0.0454837 0.06079733 0.0454837 0.04003918 0.02359133 0.06079733 0.02359133 0.02619522 0.0454837 0.07576775 0.02359133 0.07576775 0.0454837 0.08029597 0.08090156 0.02619522 0.06783843 0.02166706 0.08090156 0.02619522 0.02359133 0.07576775 0.004980087 0.07576775 0.02359133 0.06079733 0.02359133 0.06991893 0.004980087 0.05691474 0.004980087 0.07576775 0.02359133 0.02619522 0.004980087 0.02619522 0.02359133 0.07576775 0.09390568 0.02166706 0.08090156 0.02619522 0.09390568 0.08146178 0.0454837 0.06079733 0.02359133 0.08146178 0.02359133 0.06079733 0.02359133 0.06991893 0.004980087 0.08146178 0.02359133 0.06187593 0.1260133 0.06079733 0.0454837 0.08146178 0.0454837 0.06079733 0.0454837 0.04003918 0.02359133 0.04003918 0.0454837 0.02166706 0.06520694 0.02619522 0.04444015 0.02619522 0.04060715 0.04121148 0.1260133 0.04003918 0.0454837 0.02045339 0.1260133 0.04122018 0.1491574 0.01662033 0.1260133 0.01662033 0.1491574 0.06570899 0.1491574 0.04122018 0.1260133 0.06570899 0.1260133 0.08029597 0.06520694 0.07576775 0.08586275 0.07576775 0.08969575 0.625 1 0.625 0.8788462 0.625 0.8788462 0.625 0.8788462 0.625 0.75 0.625 0.8788462 0.625 1 0.625 1 0.625 1 0.625 1 0.625 0.8788462 0.625 0.8788461 0.625 0.75 0.625 0.75 0.625 0.75 0.625 0.75 0.625 0.8788462 0.625 0.75 0.625 0.8788462 0.625 1 0.625 1 0.625 0.75 0.625 0.8788462 0.625 0.75 0.375 1 0.375 0.75 0.375 1 0.375 0.75 0.375 1 0.375 1 0.375 1 0.375 0.75 0.375 1 0.375 1 0.375 0.75 0.375 0.75 0.375 0.75 0.375 1 0.375 0.75 0.375 0.75 0.375 1 0.375 1 0.375 0.75 0.375 0.75 0.375 0.75 0.375 1 0.375 1 0.375 1 0.375 0.75 0.375 0.75 0.375 0.75 0.375 1 0.375 1 0.375 1 0.375 1 0.375 1 0.375 1 0.375 1 0.375 1 0.375 1 0.375 0.75 0.375 0.75 0.375 0.75 0.375 0.75 0.375 0.75 0.375 0.75 0.375 1 0.375 0.75 0.375 0.75 0.375 0.75 0.375 1 0.375 1 0.826741 0.892498 0.8107482 0.8215969 0.826741 0.8131261 0.4671954 0.8840273 0.4512027 0.8131261 0.4671954 0.8215969 0.8107482 0.8840273 0.4512027 0.892498 0.4671954 0.8840273 0.4512027 0.8131261 0.8107482 0.8215969 0.4671954 0.8215969 0.9852501 0.8128962 0.4532845 0.9954059 0.4532845 0.8128962 0.826741 0.8131261 0.8151246 0.8863453 0.826741 0.892498 0.4512027 0.8131261 0.8151246 0.8192788 0.826741 0.8131261 0.2598803 0.7910595 0.1284639 1.007725 0.1284639 0.7910595 0.625 1 0.625 0.8788462 0.625 0.8788462 0.625 0.8788462 0.625 0.75 0.625 0.8788462 0.625 1 0.625 1 0.625 1 0.625 1 0.625 0.8788462 0.625 0.8788461 0.625 0.75 0.625 0.75 0.625 0.75 0.625 0.75 0.625 0.8788462 0.625 0.75 0.625 0.8788462 0.625 1 0.625 1 0.625 0.75 0.625 0.8788462 0.625 0.75 0.1756085 1.007725 0.1756085 0.7910595 0.1161227 0.7910595 0.2598803 0.8611558 0.2598803 0.80167 0.1284639 0.80167 0.1284639 0.8611558 0.1284639 0.80167 0.2598803 0.80167 0.1756085 1.007725 0.1161227 1.007725 0.1161227 0.7910595 0.8107482 0.8840273 0.4671954 0.8840273 0.4671954 0.8215969 0.9852501 0.8128962 0.4532845 0.8128962 0.4532845 0.9954059 0.4974287 0.9954059 0.2851549 0.9954059 0.2851549 0.8128962 0.04003918 0.02359133 0.06079733 0.02359133 0.05691474 0.004980087 0.08029597 0.06520694 0.07576775 0.04060715 0.07576775 0.04444015 0.07576775 0.1491574 0.07576775 0.1260133 0.02619522 0.1260133 0.04122018 0.1491574 0.01662033 0.1491574 0.01662033 0.1260133 0.02619522 0.1491574 0.02619522 0.1260133 0.07576775 0.1260133 0.06570899 0.1491574 0.06570899 0.1260133 0.04122018 0.1260133 0.06187593 0.1260133 0.08146178 0.0454837 0.06079733 0.0454837 0.02619522 0.04060715 0.02619522 0.04444015 0.07576775 0.04444015 0.02166706 0.06520694 0.02619522 0.08969575 0.02619522 0.08586275 0.07576775 0.08969575 0.07576775 0.08586275 0.02619522 0.08586275 0.08146178 0.0454837 0.08146178 0.02359133 0.06079733 0.02359133 0.07576775 0.1260133 0.07576775 0.0454837 0.02619522 0.0454837 0.04121148 0.1260133 0.02045339 0.1260133 0.04003918 0.0454837 0.02619522 0.1260133 0.02619522 0.0454837 0.07576775 0.0454837 0.04003918 0.02359133 0.04385167 0.004980087 0.05691474 0.004980087 0.07576775 0.0454837 0.07576775 0.02359133 0.02619522 0.02359133 0.06079733 0.0454837 0.04003918 0.0454837 0.04003918 0.02359133 0.02619522 0.0454837 0.02619522 0.02359133 0.07576775 0.02359133 0.08029597 0.08090156 0.07576775 0.06783843 0.02619522 0.06783843 0.02619522 0.02359133 0.02619522 0.004980087 0.07576775 0.004980087 0.06079733 0.02359133 0.08146178 0.02359133 0.06991893 0.004980087 0.07576775 0.02359133 0.07576775 0.004980087 0.02619522 0.004980087 0.07576775 0.09390568 0.08029597 0.08090156 0.02166706 0.08090156 0.08146178 0.0454837 0.06079733 0.0454837 0.06079733 0.02359133 0.06079733 0.02359133 0.05691474 0.004980087 0.06991893 0.004980087 0.06187593 0.1260133 0.04121148 0.1260133 0.06079733 0.0454837 0.06079733 0.0454837 0.06079733 0.02359133 0.04003918 0.02359133 0.02166706 0.06520694 0.02166706 0.0651983 0.02619522 0.04444015 0.04121148 0.1260133 0.06079733 0.0454837 0.04003918 0.0454837 0.04122018 0.1491574 0.04122018 0.1260133 0.01662033 0.1260133 0.06570899 0.1491574 0.04122018 0.1491574 0.04122018 0.1260133 0.08029597 0.06520694 0.08029597 0.0651983 0.07576775 0.08586275 0.625 1 0.625 1 0.625 0.8788462 0.625 0.8788462 0.625 0.75 0.625 0.75 0.625 1 0.625 1 0.625 1 0.625 1 0.625 1 0.625 0.8788462 0.625 0.75 0.625 0.75 0.625 0.75 0.625 0.75 0.625 0.8788461 0.625 0.8788462 0.625 0.8788462 0.625 0.8788462 0.625 1 0.625 0.75 0.625 0.8788462 0.625 0.8788462 0.375 1 0.375 0.75 0.375 0.75 0.375 0.75 0.375 0.75 0.375 1 0.375 1 0.375 0.75 0.375 0.75 0.375 1 0.375 1 0.375 0.75 0.375 0.75 0.375 1 0.375 1 0.375 0.75 0.375 0.75 0.375 1 0.375 0.75 0.375 0.75 0.375 0.75 0.375 1 0.375 1 0.375 1 0.375 0.75 0.375 0.75 0.375 0.75 0.375 1 0.375 1 0.375 1 0.375 1 0.375 1 0.375 1 0.375 1 0.375 1 0.375 1 0.375 0.75 0.375 0.75 0.375 0.75 0.375 0.75 0.375 0.75 0.375 0.75 0.375 1 0.375 1 0.375 0.75 0.375 0.75 0.375 0.75 0.375 1 0.826741 0.892498 0.8107482 0.8840273 0.8107482 0.8215969 0.4671954 0.8840273 0.4512027 0.892498 0.4512027 0.8131261 0.8107482 0.8840273 0.826741 0.892498 0.4512027 0.892498 0.4512027 0.8131261 0.826741 0.8131261 0.8107482 0.8215969 0.9852501 0.8128962 0.9852501 0.9954059 0.4532845 0.9954059 0.826741 0.8131261 0.8151246 0.8192788 0.8151246 0.8863453 0.4512027 0.892498 0.826741 0.892498 0.8151246 0.8863453 0.2598803 0.8611558 0.1284639 0.8611558 0.1284639 0.8611558 0.2598803 0.7910595 0.2598803 1.007725 0.1284639 1.007725 0.625 1 0.625 1 0.625 0.8788462 0.625 0.8788462 0.625 0.75 0.625 0.75 0.625 1 0.625 1 0.625 1 0.625 1 0.625 1 0.625 0.8788462 0.625 0.75 0.625 0.75 0.625 0.75 0.625 0.75 0.625 0.8788461 0.625 0.8788462 0.625 0.8788462 0.625 0.8788462 0.625 1 0.625 0.75 0.625 0.8788462 0.625 0.8788462 0.4512027 0.892498 0.8151246 0.8192788 0.4512027 0.8131261 0.2598803 0.8611558 0.1756085 0.7910595 0.1284639 0.8611558 0.4512027 0.892498 0.8151246 0.8863453 0.8151246 0.8192788</float_array>
          <technique_common>
            <accessor source="#Cube_003-mesh-map-0-array" count="486" stride="2">
              <param name="S" type="float"/>
              <param name="T" type="float"/>
            </accessor>
          </technique_common>
        </source>
        <vertices id="Cube_003-mesh-vertices">
          <input semantic="POSITION" source="#Cube_003-mesh-positions"/>
        </vertices>
        <triangles material="Material_003-material" count="162">
          <input semantic="VERTEX" source="#Cube_003-mesh-vertices" offset="0"/>
          <input semantic="NORMAL" source="#Cube_003-mesh-normals" offset="1"/>
          <input semantic="TEXCOORD" source="#Cube_003-mesh-map-0" offset="2" set="0"/>
          <p>1 0 0 4 0 1 5 0 2 2 1 3 4 1 4 0 1 5 1 2 6 6 2 7 3 2 8 3 3 9 7 3 10 2 3 11 72 4 12 78 4 13 74 4 14 82 5 15 77 5 16 73 5 17 79 6 18 85 6 19 86 6 20 26 7 21 42 8 22 30 9 23 35 10 24 19 11 25 37 12 26 9 13 27 12 14 28 8 15 29 33 16 30 15 17 31 35 10 32 10 18 33 15 17 34 11 19 35 8 15 36 34 20 37 32 21 38 16 22 39 38 23 40 36 24 41 14 25 42 19 11 43 15 17 44 34 20 45 16 22 46 36 24 47 13 26 48 16 22 49 12 14 50 20 27 51 40 28 52 38 23 53 17 29 54 20 27 55 16 22 56 37 12 57 23 30 58 39 31 59 18 32 60 23 30 61 19 11 62 27 33 63 43 34 64 41 35 65 21 36 66 24 37 67 20 27 68 39 31 69 27 33 70 41 35 71 22 38 72 27 33 73 23 30 74 43 34 75 30 9 76 42 8 77 26 7 78 31 39 79 27 33 80 40 28 81 28 40 82 42 8 83 25 41 84 28 40 85 24 37 86 29 42 87 42 8 88 28 40 89 21 36 90 41 35 91 25 41 92 41 35 93 29 42 94 25 41 95 17 29 96 39 31 97 21 36 98 38 23 99 26 7 100 22 38 101 34 20 102 18 32 103 14 25 104 36 24 105 22 38 106 18 32 107 32 21 108 14 25 109 10 18 110 9 13 111 35 10 112 13 26 113 35 10 114 17 29 115 13 26 116 49 43 117 55 43 118 54 43 119 53 44 120 50 44 121 55 44 122 44 45 123 51 45 124 49 45 125 44 46 126 54 46 127 52 46 128 45 47 129 50 47 130 47 47 131 45 48 132 54 48 133 48 48 134 53 49 135 51 49 136 46 49 137 48 50 138 55 50 139 50 50 140 66 51 141 64 52 142 67 53 143 68 54 144 70 55 145 71 56 146 60 57 147 57 58 148 56 59 149 66 51 150 69 60 151 65 61 152 59 62 153 56 59 154 57 58 155 64 52 156 71 56 157 67 53 158 59 62 159 64 52 160 65 61 161 58 63 162 67 53 163 56 59 164 63 64 165 68 54 166 61 65 167 62 66 168 71 56 169 70 55 170 56 59 171 71 56 172 60 57 173 58 63 174 70 55 175 66 51 176 59 62 177 69 60 178 63 64 179 57 58 180 68 54 181 64 52 182 60 57 183 63 64 184 61 65 185 59 62 186 62 66 187 58 63 188 73 67 189 74 67 190 75 67 191 76 68 192 79 68 193 78 68 194 72 69 195 77 69 196 76 69 197 79 70 198 74 70 199 78 70 200 83 71 201 79 71 202 86 71 203 83 72 204 81 72 205 82 72 206 86 73 207 84 73 208 83 73 209 7 74 210 5 74 211 4 74 212 92 75 213 98 75 214 97 75 215 96 76 216 93 76 217 98 76 218 87 77 219 94 77 220 92 77 221 87 78 222 97 78 223 95 78 224 88 47 225 93 47 226 90 47 227 88 79 228 97 79 229 91 79 230 96 80 231 94 80 232 89 80 233 91 81 234 98 81 235 93 81 236 1 82 237 0 82 238 4 82 239 2 1 240 7 1 241 4 1 242 1 83 243 5 83 244 6 83 245 3 47 246 6 47 247 7 47 248 72 4 249 76 4 250 78 4 251 82 84 252 85 84 253 77 84 254 79 85 255 77 85 256 85 85 257 26 7 258 40 28 259 42 8 260 35 10 261 15 17 262 19 11 263 9 13 264 13 26 265 12 14 266 33 16 267 11 19 268 15 17 269 10 18 270 14 25 271 15 17 272 8 15 273 12 14 274 34 20 275 16 22 276 20 27 277 38 23 278 14 25 279 18 32 280 19 11 281 34 20 282 12 14 283 16 22 284 13 26 285 17 29 286 16 22 287 20 27 288 24 37 289 40 28 290 17 29 291 21 36 292 20 27 293 37 12 294 19 11 295 23 30 296 18 32 297 22 38 298 23 30 299 27 33 300 31 39 301 43 34 302 21 36 303 25 41 304 24 37 305 39 31 306 23 30 307 27 33 308 22 38 309 26 7 310 27 33 311 43 34 312 31 39 313 30 9 314 26 7 315 30 9 316 31 39 317 40 28 318 24 37 319 28 40 320 25 41 321 29 42 322 28 40 323 29 42 324 43 34 325 42 8 326 21 36 327 39 31 328 41 35 329 41 35 330 43 34 331 29 42 332 17 29 333 37 12 334 39 31 335 38 23 336 40 28 337 26 7 338 34 20 339 36 24 340 18 32 341 36 24 342 38 23 343 22 38 344 32 21 345 34 20 346 14 25 347 9 13 348 33 16 349 35 10 350 35 10 351 37 12 352 17 29 353 49 86 354 51 86 355 55 86 356 53 87 357 47 87 358 50 87 359 44 0 360 46 0 361 51 0 362 44 88 363 49 88 364 54 88 365 45 89 366 48 89 367 50 89 368 45 90 369 52 90 370 54 90 371 53 91 372 55 91 373 51 91 374 48 92 375 54 92 376 55 92 377 66 51 378 65 61 379 64 52 380 68 54 381 69 60 382 70 55 383 60 57 384 61 65 385 57 58 386 66 51 387 70 55 388 69 60 389 59 62 390 58 63 391 56 59 392 64 52 393 68 54 394 71 56 395 59 62 396 57 58 397 64 52 398 58 63 399 66 51 400 67 53 401 63 64 402 69 60 403 68 54 404 62 66 405 60 57 406 71 56 407 56 59 408 67 53 409 71 56 410 58 63 411 62 66 412 70 55 413 59 62 414 65 61 415 69 60 416 57 58 417 61 65 418 68 54 419 60 57 420 62 66 421 63 64 422 59 62 423 63 64 424 62 66 425 73 93 426 72 93 427 74 93 428 76 94 429 77 94 430 79 94 431 72 95 432 73 95 433 77 95 434 79 96 435 75 96 436 74 96 437 83 97 438 75 97 439 79 97 440 83 98 441 84 98 442 81 98 443 85 99 444 82 99 445 81 99 446 3 100 447 0 100 448 1 100 449 7 74 450 6 74 451 5 74 452 92 101 453 94 101 454 98 101 455 96 102 456 90 102 457 93 102 458 87 103 459 89 103 460 94 103 461 87 104 462 92 104 463 97 104 464 88 105 465 91 105 466 93 105 467 88 106 468 95 106 469 97 106 470 96 107 471 98 107 472 94 107 473 91 108 474 97 108 475 98 108 476 85 109 477 84 109 478 86 109 479 3 110 480 2 110 481 0 110 482 85 111 483 81 111 484 84 111 485</p>
        </triangles>
      </mesh>
    </geometry>
  </library_geometries>
  <library_visual_scenes>
    <visual_scene id="Scene" name="Scene">
      <node id="pseudo_ak74" name="pseudo_ak74" type="NODE">
        <matrix sid="transform">1 0 0 0 0 0.9940381 0.1090333 0 0 -0.1090333 0.9940381 0 0 0 0 1</matrix>
        <instance_geometry url="#Cube_003-mesh" name="pseudo_ak74">
          <bind_material>
            <technique_common>
              <instance_material symbol="Material_003-material" target="#Material_003-material">
                <bind_vertex_input semantic="Cube_002-mesh-map-0" input_semantic="TEXCOORD" input_set="0"/>
              </instance_material>
            </technique_common>
          </bind_material>
        </instance_geometry>
        <node id="prop_shoot_002" name="prop_shoot.002" type="NODE">
          <matrix sid="transform">0.2704485 0 0 0 0 0.2653656 -0.05218705 -0.7549095 0 0.05218705 0.2653656 0.2904723 0 0 0 1</matrix>
        </node>
      </node>
    </visual_scene>
  </library_visual_scenes>
  <scene>
    <instance_visual_scene url="#Scene"/>
  </scene>
</COLLADA>