<?xml version="1.0" encoding="utf-8"?>
<COLLADA xmlns="http://www.collada.org/2005/11/COLLADASchema" version="1.4.1" xmlns:xsi="http://www.w3.org/2001/XMLSchema-instance">
  <asset>
    <contributor>
      <author>Blender User</author>
      <authoring_tool>Blender 3.4.1</authoring_tool>
    </contributor>
    <created>2026-07-09T01:23:57</created>
    <modified>2026-07-09T01:23:57</modified>
    <unit name="meter" meter="1"/>
    <up_axis>Z_UP</up_axis>
  </asset>
  <library_effects>
    <effect id="Material_001-effect">
      <profile_COMMON>
        <newparam sid="mla_struct_png-surface">
          <surface type="2D">
            <init_from>mla_struct_png</init_from>
          </surface>
        </newparam>
        <newparam sid="mla_struct_png-sampler">
          <sampler2D>
            <source>mla_struct_png-surface</source>
          </sampler2D>
        </newparam>
        <technique sid="common">
          <lambert>
            <emission>
              <color sid="emission">0 0 0 1</color>
            </emission>
            <diffuse>
              <texture texture="mla_struct_png-sampler" texcoord="UVMap"/>
            </diffuse>
            <index_of_refraction>
              <float sid="ior">1.45</float>
            </index_of_refraction>
          </lambert>
        </technique>
      </profile_COMMON>
    </effect>
  </library_effects>
  <library_images>
    <image id="mla_struct_png" name="mla_struct_png">
      <init_from>mla_struct.png</init_from>
    </image>
  </library_images>
  <library_materials>
    <material id="Material_001-material" name="Material.001">
      <instance_effect url="#Material_001-effect"/>
    </material>
  </library_materials>
  <library_geometries>
    <geometry id="rocket-mesh" name="rocket">
      <mesh>
        <source id="rocket-mesh-positions">
          <float_array id="rocket-mesh-positions-array" count="675">0 0.3587908 0.1764 0 0.3577828 0.15876 0 0.1571907 0.126 0 0.1581987 0.1134001 0.02876019 0.3577828 0.1557095 0.03195577 0.3587908 0.1730105 0.02212321 0.1581987 0.1112211 0.02458137 0.1571907 0.123579 0.06268352 0.3587908 0.1629723 0.0564152 0.3577828 0.1466751 0.04339629 0.1581987 0.1047679 0.04821813 0.1571907 0.1164088 0.08190214 0.3577828 0.1320041 0.0910024 0.3587908 0.1466712 0.06300169 0.1581987 0.09428864 0.07000184 0.1571907 0.1047652 0.1042417 0.3577828 0.1122603 0.1158241 0.3587908 0.1247336 0.08018589 0.1581987 0.08018589 0.08909547 0.1571907 0.08909547 0.1361947 0.3587908 0.09800261 0.1225753 0.3577828 0.08820235 0.1047652 0.1571907 0.07000184 0.09428864 0.1581987 0.06300169 0.1513315 0.3587908 0.06750535 0.1361984 0.3577828 0.06075483 0.1164088 0.1571907 0.04821813 0.1047679 0.1581987 0.04339629 0.1606526 0.3587908 0.03441393 0.1445874 0.3577828 0.03097254 0.123579 0.1571907 0.02458137 0.1112211 0.1581987 0.02212321 0.1638 0.3587908 0 0.14742 0.3577828 0 0.126 0.1571907 0 0.1134 0.1581987 0 0.1445874 0.3577828 -0.03097254 0.1606526 0.3587908 -0.03441393 0.1112211 0.1581987 -0.02212321 0.123579 0.1571907 -0.02458137 0.1513315 0.3587908 -0.06750535 0.1361984 0.3577828 -0.06075483 0.1047679 0.1581987 -0.04339629 0.1164088 0.1571907 -0.04821807 0.1225753 0.3577828 -0.08820235 0.1361947 0.3587908 -0.09800261 0.09428864 0.1581987 -0.06300163 0.1047652 0.1571907 -0.07000184 0.1158241 0.3587908 -0.1247336 0.1042417 0.3577828 -0.1122603 0.08909547 0.1571907 -0.08909547 0.08018589 0.1581987 -0.08018589 0.08190214 0.3577828 -0.1320042 0.0910024 0.3587908 -0.1466712 0.06300169 0.1581987 -0.09428864 0.07000184 0.1571907 -0.1047652 0.0564152 0.3577828 -0.1466751 0.06268352 0.3587908 -0.1629723 0.04821813 0.1571907 -0.1164088 0.04339629 0.1581987 -0.1047679 0.03195577 0.3587908 -0.1730105 0.02876019 0.3577828 -0.1557095 0.02458137 0.1571907 -0.1235789 0.02212321 0.1581987 -0.111221 0 0.3587908 -0.1764 0 0.3577828 -0.15876 0 0.1581987 -0.1134 0 0.1571907 -0.126 -0.02876019 0.3577828 -0.1557095 -0.03195577 0.3587908 -0.1730105 -0.02212321 0.1581987 -0.111221 -0.02458137 0.1571907 -0.1235789 -0.0564152 0.3577828 -0.1466751 -0.06268352 0.3587908 -0.1629723 -0.04339629 0.1581987 -0.1047679 -0.04821813 0.1571907 -0.1164088 -0.0910024 0.3587908 -0.1466712 -0.08190214 0.3577828 -0.1320042 -0.07000184 0.1571907 -0.1047652 -0.06300169 0.1581987 -0.09428864 -0.1158241 0.3587908 -0.1247336 -0.1042417 0.3577828 -0.1122603 -0.08909547 0.1571907 -0.08909547 -0.08018589 0.1581987 -0.08018589 -0.1361947 0.3587908 -0.09800261 -0.1225753 0.3577828 -0.08820235 -0.1047652 0.1571907 -0.07000184 -0.09428864 0.1581987 -0.06300163 -0.1513315 0.3587908 -0.06750535 -0.1361984 0.3577828 -0.06075483 -0.1164088 0.1571907 -0.04821807 -0.1047679 0.1581987 -0.04339629 -0.1445874 0.3577828 -0.03097254 -0.1606526 0.3587908 -0.03441393 -0.1112211 0.1581987 -0.02212321 -0.123579 0.1571907 -0.02458137 -0.14742 0.3577828 0 -0.1638 0.3587908 0 -0.1134 0.1581987 0 -0.126 0.1571907 0 -0.1445874 0.3577828 0.03097254 -0.1606526 0.3587908 0.03441393 -0.1112211 0.1581987 0.02212321 -0.123579 0.1571907 0.02458137 -0.1361984 0.3577828 0.06075483 -0.1513315 0.3587908 0.06750535 -0.1164088 0.1571907 0.04821813 -0.1047679 0.1581987 0.04339629 -0.1361947 0.3587908 0.09800261 -0.1225753 0.3577828 0.08820235 -0.1047652 0.1571907 0.07000184 -0.09428864 0.1581987 0.06300169 -0.1158241 0.3587908 0.1247336 -0.1042417 0.3577828 0.1122603 -0.08909547 0.1571907 0.08909547 -0.08018589 0.1581987 0.08018589 -0.08190214 0.3577828 0.1320041 -0.0910024 0.3587908 0.1466712 -0.07000184 0.1571907 0.1047652 -0.06300169 0.1581987 0.09428864 -0.06268352 0.3587908 0.1629723 -0.0564152 0.3577828 0.1466751 -0.04339629 0.1581987 0.1047679 -0.04821813 0.1571907 0.1164088 -0.03195577 0.3587908 0.1730105 -0.02876019 0.3577828 0.1557095 -0.02212321 0.1581987 0.1112211 -0.02458137 0.1571907 0.123579 0 0.1571907 0.126 0 -0.2748094 0.126 0.02458137 0.1571907 0.1235789 0.02458137 -0.2748094 0.123579 0.04821813 0.1571907 0.1164088 0.04821813 -0.2748094 0.1164088 0.07000184 0.1571907 0.1047651 0.07000184 -0.2748094 0.1047652 0.08909547 0.1571907 0.08909541 0.08909547 -0.2748094 0.08909547 0.1047652 0.1571907 0.07000184 0.1047652 -0.2748094 0.07000184 0.1164088 0.1571907 0.04821807 0.1164088 -0.2748094 0.04821813 0.123579 0.1571907 0.02458131 0.123579 -0.2748094 0.02458137 0.126 0.1571907 0 0.126 -0.2748094 0 0.123579 0.1571907 -0.02458137 0.123579 -0.2748094 -0.02458137 0.1164088 0.1571907 -0.04821813 0.1164088 -0.2748094 -0.04821807 0.1047652 0.1571907 -0.0700019 0.1047652 -0.2748094 -0.07000184 0.08909547 0.1571907 -0.08909547 0.08909547 -0.2748094 -0.08909547 0.07000184 0.1571907 -0.1047652 0.07000184 -0.2748094 -0.1047652 0.04821813 0.1571907 -0.1164088 0.04821813 -0.2748094 -0.1164088 0.02458137 0.1571907 -0.123579 0.02458137 -0.2748094 -0.1235789 0 0.1571907 -0.126 0 -0.2748094 -0.126 -0.02458137 0.1571907 -0.123579 -0.02458137 -0.2748094 -0.1235789 -0.04821813 0.1571907 -0.1164088 -0.04821813 -0.2748094 -0.1164088 -0.07000184 0.1571907 -0.1047652 -0.07000184 -0.2748094 -0.1047652 -0.08909547 0.1571907 -0.08909547 -0.08909547 -0.2748094 -0.08909547 -0.1047652 0.1571907 -0.0700019 -0.1047652 -0.2748094 -0.07000184 -0.1164088 0.1571907 -0.04821813 -0.1164088 -0.2748094 -0.04821807 -0.123579 0.1571907 -0.02458137 -0.123579 -0.2748094 -0.02458137 -0.126 0.1571907 0 -0.126 -0.2748094 0 -0.123579 0.1571907 0.02458131 -0.123579 -0.2748094 0.02458137 -0.1164088 0.1571907 0.04821807 -0.1164088 -0.2748094 0.04821813 -0.1047652 0.1571907 0.07000184 -0.1047652 -0.2748094 0.07000184 -0.08909547 0.1571907 0.08909541 -0.08909547 -0.2748094 0.08909547 -0.07000184 0.1571907 0.1047651 -0.07000184 -0.2748094 0.1047652 -0.04821813 0.1571907 0.1164088 -0.04821813 -0.2748094 0.1164088 -0.02458137 0.1571907 0.1235789 -0.02458137 -0.2748094 0.123579 0 -0.2748094 0.126 0.02458137 -0.2748094 0.1235789 0.04821813 -0.2748094 0.1164088 0.07000184 -0.2748094 0.1047651 0.08909547 -0.2748094 0.08909541 0.1047652 -0.2748094 0.07000184 0.1164088 -0.2748094 0.04821807 0.123579 -0.2748094 0.02458137 0.126 -0.2748094 0 0.123579 -0.2748094 -0.02458137 0.1164088 -0.2748094 -0.04821813 0.1047652 -0.2748094 -0.0700019 0.08909547 -0.2748094 -0.08909547 0.07000184 -0.2748094 -0.1047652 0.04821813 -0.2748094 -0.1164088 0.02458137 -0.2748094 -0.123579 0 -0.2748094 -0.126 -0.02458137 -0.2748094 -0.123579 -0.04821813 -0.2748094 -0.1164088 -0.07000184 -0.2748094 -0.1047652 -0.08909547 -0.2748094 -0.08909547 -0.1047652 -0.2748094 -0.0700019 -0.1164088 -0.2748094 -0.04821813 -0.123579 -0.2748094 -0.02458137 -0.126 -0.2748094 0 -0.123579 -0.2748094 0.02458137 -0.1164088 -0.2748094 0.04821807 -0.1047652 -0.2748094 0.07000184 -0.08909547 -0.2748094 0.08909541 -0.07000184 -0.2748094 0.1047651 -0.04821813 -0.2748094 0.1164088 -0.02458137 -0.2748094 0.1235789 0 -0.4764094 0</float_array>
          <technique_common>
            <accessor source="#rocket-mesh-positions-array" count="225" stride="3">
              <param name="X" type="float"/>
              <param name="Y" type="float"/>
              <param name="Z" type="float"/>
            </accessor>
          </technique_common>
        </source>
        <source id="rocket-mesh-normals">
          <float_array id="rocket-mesh-normals-array" count="1059">0.1023608 -0.2412616 0.9650468 0.3016507 -0.237443 0.9233784 0.4855443 -0.2296636 0.8435055 0.6461184 -0.2192697 0.7310622 0.7779847 -0.2079529 0.5928704 0.8781069 -0.197431 0.435832 0.9451586 -0.189198 0.2662317 0.978774 -0.1843598 0.08951556 0.978774 -0.1843597 -0.08951556 0.9451587 -0.189198 -0.2662315 0.8781067 -0.1974311 -0.435832 0.7779852 -0.2079529 -0.5928699 0.6461185 -0.2192698 -0.7310621 0.4855439 -0.2296638 -0.8435056 0.3016502 -0.2374432 -0.9233785 0.1023603 -0.2412617 -0.9650467 -0.1023603 -0.2412617 -0.9650468 -0.3016503 -0.2374432 -0.9233785 -0.4855439 -0.2296638 -0.8435056 -0.6461185 -0.2192698 -0.7310621 -0.7779852 -0.2079529 -0.5928699 -0.8781067 -0.1974312 -0.435832 -0.9451587 -0.189198 -0.2662317 -0.978774 -0.1843597 -0.08951556 -0.978774 -0.1843599 0.0895155 -0.9451587 -0.189198 0.2662316 -0.8781069 -0.197431 0.435832 -0.7779847 -0.2079529 0.5928704 -0.6461184 -0.2192697 0.7310622 -0.4855443 -0.2296636 0.8435055 0 -1 2.34649e-7 -0.3016508 -0.2374431 0.9233784 -0.1023607 -0.2412615 0.9650468 -0.006051003 0.998353 -0.05705064 -0.09562528 0.2195975 -0.9708928 -0.2835133 0.2147373 -0.9346166 -0.4612137 0.2067332 -0.8628694 -0.6219913 0.1967672 -0.7578982 -0.7594712 0.1863377 -0.6232832 -0.8679902 0.1770419 -0.4639495 -0.9429573 0.1703256 -0.2860434 -0.981168 0.1672444 -0.09663641 -0.981168 0.1672446 0.09663653 -0.9481083 0.172535 0.2670626 -0.881092 0.1800931 0.4373139 -0.7809209 0.1897616 0.5951076 -0.6219916 0.1967672 0.7578979 -0.4612129 0.2067335 0.8628697 -0.2835133 0.2147374 0.9346166 -0.09562444 0.2195974 0.9708929 0.09562444 0.2195974 0.9708929 0.2835133 0.2147374 0.9346166 0.4612129 0.2067334 0.8628697 0.6219916 0.1967672 0.7578979 0.7594715 0.1863376 0.6232827 0.8679901 0.177042 0.4639499 0.9429573 0.1703256 0.2860434 0.981168 0.1672445 0.09663641 0.981168 0.1672444 -0.09663653 0.9429574 0.1703256 -0.2860432 0.8679901 0.1770419 -0.4639497 0.7809212 0.1897614 -0.5951074 0.6219912 0.1967672 -0.7578982 0.4612137 0.2067331 -0.8628693 0 1 0 0.2835133 0.2147373 -0.9346166 0.09562522 0.2195974 -0.9708928 0.006051003 0.9983531 -0.05704855 0.01792025 0.9983335 -0.05485588 0.02909982 0.9982972 -0.0505557 0.03915923 0.9982501 -0.04430919 0.04771268 0.9981992 -0.03636115 0.05443257 0.998152 -0.02701562 0.05906057 0.9981158 -0.01663559 0.06141966 0.9980963 -0.005616903 0.06141966 0.9980962 0.005617618 0.05906051 0.9981158 0.01663553 0.05443245 0.998152 0.02701562 0.04771274 0.9981992 0.03635895 0.03915882 0.9982504 0.04430592 0.02909904 0.9982973 0.05055427 0.01791977 0.9983335 0.05485647 0.006050825 0.9983532 0.05704748 -0.006050825 0.9983532 0.05704748 -0.01791965 0.9983335 0.05485588 -0.02909892 0.9982975 0.05055248 -0.03915876 0.9982504 0.04430592 -0.04771268 0.9981991 0.03636115 -0.05443245 0.998152 0.02701562 -0.05906051 0.9981158 0.01663553 -0.06141966 0.9980963 0.005616903 -0.06141966 0.9980963 -0.005616486 -0.05906057 0.9981158 -0.01663559 -0.05443257 0.998152 -0.02701562 -0.04771268 0.9981992 -0.03635895 -0.03915882 0.9982503 -0.04430663 -0.02909982 0.9982973 -0.05055493 -0.01792031 0.9983339 -0.05484914 0.09801727 0 0.9951848 0.2902854 0 0.9569401 0.4713961 0 0.8819217 0.6343939 0 0.77301 0.7730103 0 0.6343935 0.8819213 0 0.4713966 0.9569404 0 0.2902849 0.9951848 0 0.09801727 0.9951848 0 -0.09801727 0.9569404 0 -0.290285 0.8819215 0 -0.4713964 0.7730103 0 -0.6343935 0.6343935 0 -0.7730103 0.4713967 0 -0.8819214 0.2902842 0 -0.9569406 0.09801656 0 -0.9951848 -0.09801727 0 -0.9951848 -0.2902848 0 -0.9569404 -0.4713967 0 -0.8819214 -0.6343935 0 -0.7730103 -0.77301 0 -0.6343938 -0.8819215 0 -0.4713964 -0.9569404 0 -0.290285 -0.9951848 0 -0.09801727 -0.9951848 0 0.09801727 -0.9569404 0 0.2902849 -0.8819214 0 0.4713965 -0.7730104 0 0.6343933 -0.6343935 0 0.7730103 -0.4713967 0 0.8819214 0 -1 2.34649e-7 -0.2902854 0 0.9569401 -0.09801656 0 0.9951848 0 1 0 0.0832315 -0.5281601 0.8450559 0.2464935 -0.52816 0.8125811 0.4002841 -0.5281603 0.7488787 0.5386918 -0.5281597 0.6563982 0.6563979 -0.5281601 0.5386917 0.7488791 -0.5281601 0.4002838 0.8125811 -0.52816 0.2464932 0.8450559 -0.5281601 0.08323121 0.845056 -0.52816 -0.08323121 0.8125811 -0.5281603 -0.2464932 0.7488793 -0.52816 -0.4002836 0.6563982 -0.5281604 -0.5386911 0.5386916 -0.5281598 -0.6563981 0.4002844 -0.5281603 -0.7488785 0.2464935 -0.5281601 -0.8125811 0.08323055 -0.5281602 -0.8450559 -0.08323055 -0.5281602 -0.8450559 -0.2464935 -0.5281601 -0.8125811 -0.4002844 -0.5281603 -0.7488785 -0.5386917 -0.5281598 -0.6563982 -0.6563977 -0.5281601 -0.5386919 -0.7488793 -0.52816 -0.4002836 -0.8125811 -0.5281602 -0.2464932 -0.845056 -0.52816 -0.08323121 -0.8450559 -0.5281601 0.08323121 -0.8125811 -0.52816 0.2464932 -0.7488791 -0.5281601 0.4002838 -0.6563984 -0.5281605 0.5386908 -0.5386918 -0.5281597 0.6563982 -0.4002841 -0.5281603 0.7488787 0 1 -3.51974e-7 -0.2464935 -0.52816 0.8125811 -0.0832315 -0.5281601 0.8450559 0.09514385 -0.2403433 0.9660139 0.2821501 -0.2350757 0.9301241 0.4591574 -0.2263929 0.8590231 0.6194781 -0.2155693 0.7548356 0.7567179 -0.2042281 0.6210225 0.8651475 -0.1941084 0.4624304 0.9400979 -0.1867901 0.285176 0.978299 -0.183431 0.09635418 0.978299 -0.1834311 -0.09635424 0.9400979 -0.1867901 -0.2851759 0.8651475 -0.1941084 -0.4624303 0.7567179 -0.2042282 -0.6210225 0.6194775 -0.2155695 -0.754836 0.4591574 -0.2263929 -0.8590232 0.2821508 -0.2350758 -0.9301238 0.09514385 -0.2403433 -0.9660139 -0.09514379 -0.2403433 -0.9660138 -0.2821508 -0.2350758 -0.9301238 -0.4591574 -0.2263929 -0.8590231 -0.6194776 -0.2155695 -0.754836 -0.7567179 -0.2042283 -0.6210225 -0.8651475 -0.1941084 -0.4624304 -0.9400979 -0.1867902 -0.285176 -0.978299 -0.1834311 -0.09635418 -0.978299 -0.1834311 0.09635424 -0.940098 -0.1867901 0.2851759 -0.8651476 -0.1941084 0.4624302 -0.7567179 -0.2042282 0.6210224 -0.6194781 -0.2155693 0.7548356 -0.4591574 -0.2263928 0.8590231 0 -1 0 0 -1 3.36724e-7 1.2186e-6 -1 0 0 -1 -3.91227e-6 0 -1 -2.69379e-6 0 -1 -2.64202e-6 -4.69446e-7 -1 0 2.07824e-6 -1 0 0 -1 1.95614e-6 0 -1 -2.64202e-6 0 -1 0 0 -1 5.66493e-7 -1.21404e-7 -1 -1.41623e-7 0 -1 -2.83246e-7 0 -1 0 -0.2821501 -0.2350757 0.9301241 -0.09514385 -0.2403432 0.9660139 -0.006051003 0.9983531 -0.05704855 -0.1028816 0.2204449 -0.9699586 -0.3031359 0.2169213 -0.9279299 -0.4877823 0.2097473 -0.8473928 -0.648831 0.200173 -0.7341316 -0.7809212 0.1897614 -0.5951074 -0.8810921 0.1800929 -0.4373138 -0.9481083 0.1725348 -0.2670626 -0.9816737 0.1680962 -0.08978033 -0.9816736 0.1680961 0.08978039 -0.9429573 0.1703256 0.2860434 -0.8679901 0.177042 0.4639499 -0.7594715 0.1863376 0.6232827 -0.648831 0.2001731 0.7341316 -0.4877828 0.2097474 0.8473924 -0.3031359 0.2169213 0.9279299 -0.1028816 0.2204451 0.9699584 0.1028816 0.2204451 0.9699585 0.303136 0.2169214 0.9279298 0.4877828 0.2097473 0.8473924 0.648831 0.2001731 0.7341316 0.7809209 0.1897616 0.5951076 0.881092 0.1800931 0.4373139 0.9481083 0.172535 0.2670626 0.9816737 0.1680962 0.08978033 0.9816737 0.1680961 -0.08978044 0.9481083 0.1725349 -0.2670626 0.8810921 0.1800929 -0.4373138 0.7594712 0.1863377 -0.6232832 0.648831 0.200173 -0.7341316 0.4877823 0.2097474 -0.8473928 0 1 0 -3.75209e-7 1 -1.66283e-6 -8.96811e-7 1 0 3.28794e-6 1 2.41498e-6 0 1 -3.32567e-6 0 1 4.82996e-6 0 1 -3.32566e-6 0 1 3.26176e-6 0 1 -2.41499e-6 -1.74316e-6 1 8.31413e-7 0 1 3.32567e-6 0 1 -6.52351e-6 0 1 4.82997e-6 0 1 0 0 1 3.49687e-7 0 1 -1.53631e-7 0 1 -1.44845e-7 1.34894e-7 1 0 0.303136 0.2169213 -0.9279298 0.1028816 0.2204449 -0.9699585 0.006051003 0.998353 -0.05705076 0.01792031 0.9983334 -0.05485641 0.02909982 0.9982973 -0.05055427 0.03915882 0.9982503 -0.04430663 0.04771268 0.9981992 -0.03635895 0.05443245 0.998152 -0.02701783 0.05906051 0.9981158 -0.01663517 0.06141954 0.9980962 -0.005617618 0.06141966 0.9980963 0.005616903 0.05906063 0.9981158 0.01663523 0.05443251 0.9981519 0.02701783 0.04771268 0.9981991 0.03636115 0.03915876 0.9982503 0.04430663 0.02909892 0.9982975 0.05055248 0.01791965 0.9983338 0.0548526 0.006050884 0.9983531 0.05704849 -0.006050884 0.9983531 0.05704849 -0.01791977 0.9983339 0.05484914 -0.02909904 0.9982973 0.05055427 -0.03915876 0.9982503 0.04430663 -0.04771274 0.9981992 0.03635895 -0.05443251 0.998152 0.02701783 -0.05906057 0.9981158 0.01663517 -0.06141966 0.9980962 0.005617618 -0.06141954 0.9980963 -0.005617141 -0.05906051 0.9981158 -0.01663517 -0.05443245 0.9981519 -0.02701783 -0.04771268 0.9981992 -0.03636115 -0.03915923 0.9982501 -0.04430919 -0.02909982 0.9982973 -0.05055427 -0.01792025 0.9983333 -0.05485916 0.09801656 0 0.9951848 0.2902854 0 0.9569401 0.4713967 0 0.8819214 0.6343935 0 0.7730103 0.7730103 0 0.6343937 0.8819215 0 0.4713964 0.9569403 0 0.2902848 0.9951848 0 0.09801727 0.9951848 0 -0.09801727 0.9569403 0 -0.2902848 0.8819214 0 -0.4713965 0.7730103 0 -0.6343935 0.6343935 0 -0.7730103 0.4713967 0 -0.8819214 0.2902854 0 -0.9569401 0.09801727 0 -0.9951848 -0.09801656 0 -0.9951848 -0.2902848 0 -0.9569404 -0.4713967 0 -0.8819214 -0.6343935 0 -0.7730103 -0.7730106 0 -0.6343932 -0.8819214 0 -0.4713965 -0.9569403 0 -0.2902848 -0.9951848 0 -0.09801727 -0.9951848 0 0.09801727 -0.9569403 0 0.2902848 -0.8819214 0 0.4713965 -0.77301 0 0.6343938 -0.6343939 0 0.77301 -0.4713961 0 0.8819217 0 -1 1.05681e-5 0 -1 -5.38756e-6 0 -1 7.82454e-6 0 -1 -7.82456e-6 0 -1 7.82453e-6 0 -1 -3.02071e-6 0 -1 7.65419e-7 0 -1 -1.53084e-6 0 -1 3.02071e-6 0 -1 -7.65419e-7 0 -1 1.13299e-6 0 -1 -2.34649e-7 -0.2902854 0 0.9569401 -0.09801727 0 0.9951848 0 1 5.28404e-6 0 1 -2.64203e-6 0 1 2.69379e-6 0 1 -7.65419e-7 0 1 5.66493e-7 0 1 0 0 1 3.91227e-6 0 1 -5.28405e-6 0 1 -3.91229e-6 0 1 5.28405e-6 0 1 -2.29626e-6 0 1 7.07155e-7 0 1 2.29626e-6 0 1 -7.07155e-7 0 1 3.51974e-7</float_array>
          <technique_common>
            <accessor source="#rocket-mesh-normals-array" count="353" stride="3">
              <param name="X" type="float"/>
              <param name="Y" type="float"/>
              <param name="Z" type="float"/>
            </accessor>
          </technique_common>
        </source>
        <source id="rocket-mesh-map-0">
          <float_array id="rocket-mesh-map-0-array" count="2628">0.6123892 0.6598688 0.6180242 0.6154314 0.6123892 0.6154314 0.6167239 0.6598688 0.6234428 0.6154314 0.6180242 0.6154314 0.6208919 0.6598688 0.6284365 0.6154314 0.6234428 0.6154314 0.6247333 0.6598688 0.6328135 0.6154314 0.6284365 0.6154314 0.6281002 0.6598688 0.6296709 0.6154314 0.6343846 0.6154314 0.6247333 0.6598688 0.6242931 0.6154314 0.6296709 0.6154314 0.6208919 0.6598688 0.6184577 0.6154314 0.6242931 0.6154314 0.6167239 0.6598688 0.6123892 0.6154314 0.6184577 0.6154314 0.6123892 0.6154314 0.6080545 0.6598688 0.6063207 0.6154314 0.6063207 0.6154314 0.6038865 0.6598688 0.6004853 0.6154314 0.6004853 0.6154314 0.6000452 0.6598688 0.5951076 0.6154314 0.5951076 0.6154314 0.5966782 0.6598688 0.5903938 0.6154314 0.6328135 0.6154314 0.6247333 0.6598688 0.6284365 0.6154314 0.6284365 0.6154314 0.6208919 0.6598688 0.6234428 0.6154314 0.6234428 0.6154314 0.6167239 0.6598688 0.6180242 0.6154314 0.6180242 0.6154314 0.6123892 0.6598688 0.6123892 0.6154314 0.6123892 0.6598688 0.6067542 0.6154314 0.6123892 0.6154314 0.6080545 0.6598688 0.6013357 0.6154314 0.6067542 0.6154314 0.6038865 0.6598688 0.5963419 0.6154314 0.6013357 0.6154314 0.6000452 0.6598688 0.5919649 0.6154314 0.5963419 0.6154314 0.5966782 0.6598688 0.5951076 0.6154314 0.5903938 0.6154314 0.6000452 0.6598688 0.6004853 0.6154314 0.5951076 0.6154314 0.6038865 0.6598688 0.6063207 0.6154314 0.6004853 0.6154314 0.6080545 0.6598688 0.6123892 0.6154314 0.6063207 0.6154314 0.6123892 0.6154314 0.6167239 0.6598688 0.6184577 0.6154314 0.6184577 0.6154314 0.6208919 0.6598688 0.6242931 0.6154314 0.6242931 0.6154314 0.6247333 0.6598688 0.6296709 0.6154314 0.6296709 0.6154314 0.6281002 0.6598688 0.6343846 0.6154314 0.5919649 0.6154314 0.6000452 0.6598688 0.5963419 0.6154314 0.5963419 0.6154314 0.6038865 0.6598688 0.6013357 0.6154314 0.4440426 0.4092467 0.09075343 0.4440427 0.05595743 0.09075343 0.6013357 0.6154314 0.6080545 0.6598688 0.6067542 0.6154314 0.6067542 0.6154314 0.6123892 0.6598688 0.6123892 0.6154314 0.8434912 0.6196303 0.8387178 0.6175016 0.8387178 0.6201366 0.6123892 0.6596467 0.6174607 0.6156536 0.6162905 0.6596467 0.6162905 0.6596467 0.6223375 0.6156536 0.6200417 0.6596467 0.6200417 0.6596467 0.6268318 0.6156536 0.6234989 0.6596467 0.6234989 0.6596467 0.6307711 0.6156536 0.6265292 0.6596467 0.6265292 0.6596467 0.6279428 0.6156536 0.6234989 0.6596467 0.6234989 0.6596467 0.6231027 0.6156536 0.6200417 0.6596467 0.6200417 0.6596467 0.6178509 0.6156536 0.6162905 0.6596467 0.6162905 0.6596467 0.6123892 0.6156536 0.6123892 0.6596467 0.6123892 0.6156536 0.608488 0.6596467 0.6123892 0.6596467 0.6047368 0.6596467 0.6069276 0.6156536 0.6016758 0.6156536 0.6012796 0.6596467 0.6016758 0.6156536 0.5968357 0.6156536 0.5982493 0.6596467 0.5968357 0.6156536 0.5925934 0.6156536 0.6307711 0.6156536 0.6234989 0.6596467 0.6265292 0.6596467 0.6268318 0.6156536 0.6200417 0.6596467 0.6234989 0.6596467 0.6223375 0.6156536 0.6162905 0.6596467 0.6200417 0.6596467 0.6174607 0.6156536 0.6123892 0.6596467 0.6162905 0.6596467 0.6123892 0.6596467 0.6073177 0.6156536 0.608488 0.6596467 0.608488 0.6596467 0.602441 0.6156536 0.6047368 0.6596467 0.6047368 0.6596467 0.5979467 0.6156536 0.6012796 0.6596467 0.6012796 0.6596467 0.5940073 0.6156536 0.5982493 0.6596467 0.5982493 0.6596467 0.5968357 0.6156536 0.6012796 0.6596467 0.6012796 0.6596467 0.6016758 0.6156536 0.6047368 0.6596467 0.6047368 0.6596467 0.6069276 0.6156536 0.608488 0.6596467 0.608488 0.6596467 0.6123892 0.6156536 0.6123892 0.6596467 0.6123892 0.6156536 0.6162905 0.6596467 0.6123892 0.6596467 0.6178509 0.6156536 0.6200417 0.6596467 0.6162905 0.6596467 0.6231027 0.6156536 0.6234989 0.6596467 0.6200417 0.6596467 0.6265292 0.6596467 0.6279428 0.6156536 0.6321851 0.6156536 0.5940073 0.6156536 0.6012796 0.6596467 0.5982493 0.6596467 0.5979467 0.6156536 0.6047368 0.6596467 0.6012796 0.6596467 1.86786e-4 0.7028748 0.2471626 0.5001868 0.4498506 0.7471626 0.602441 0.6156536 0.608488 0.6596467 0.6047368 0.6596467 0.6073177 0.6156536 0.6123892 0.6596467 0.608488 0.6596467 0.8339444 0.6196303 0.8387178 0.6175016 0.8344218 0.6170459 0.8344218 0.6170459 0.8293545 0.6181308 0.8339444 0.6196303 0.8302909 0.6156964 0.8251244 0.6156958 0.8293545 0.6181308 0.8264837 0.613505 0.8214167 0.612419 0.8251244 0.6156958 0.8231468 0.6105557 0.8183739 0.608426 0.8214167 0.612419 0.8204082 0.6069621 0.8161128 0.6038705 0.8183739 0.608426 0.8183733 0.6028621 0.8147205 0.5989274 0.8161128 0.6038705 0.8171202 0.5984134 0.8142503 0.5937869 0.8147205 0.5989274 0.8171202 0.5891604 0.8142503 0.5937869 0.8166971 0.5937869 0.8147205 0.5886464 0.8183733 0.5847117 0.8161128 0.5837033 0.8161128 0.5837033 0.8204082 0.5806117 0.8183739 0.5791478 0.8231468 0.5770181 0.8183739 0.5791478 0.8204082 0.5806117 0.8214167 0.5751549 0.8264837 0.5740689 0.8251244 0.571878 0.8302909 0.5718774 0.8251244 0.571878 0.8264837 0.5740689 0.8344218 0.5705279 0.8293545 0.569443 0.8302909 0.5718774 0.8339444 0.5679435 0.8387178 0.5700722 0.8387178 0.5674372 0.8387178 0.5700722 0.8434912 0.5679435 0.8387178 0.5674372 0.8430139 0.5705279 0.8480812 0.569443 0.8434912 0.5679435 0.8471449 0.5718774 0.8523113 0.571878 0.8480812 0.569443 0.850952 0.5740689 0.856019 0.5751549 0.8523113 0.571878 0.8542889 0.5770181 0.8590618 0.5791478 0.856019 0.5751549 0.8570274 0.5806117 0.8613228 0.5837033 0.8590618 0.5791478 0.8590624 0.5847117 0.8627153 0.5886464 0.8613228 0.5837033 0.8603155 0.5891604 0.8631854 0.5937869 0.8627153 0.5886464 0.8631854 0.5937869 0.8603155 0.5984134 0.8627153 0.5989274 0.8627153 0.5989274 0.8590624 0.6028621 0.8613228 0.6038705 0.8613228 0.6038705 0.8570274 0.6069621 0.8590618 0.608426 0.8542889 0.6105557 0.8590618 0.608426 0.8570274 0.6069621 0.850952 0.613505 0.856019 0.612419 0.8542889 0.6105557 0.8523113 0.6156958 0.8471449 0.6156964 0.8480812 0.6181308 0.8430139 0.6170459 0.8480812 0.6181308 0.8471449 0.6156964 0.1262539 0.7821777 0.1780307 0.7825166 0.1780307 0.7821777 0.1262539 0.7825166 0.1780307 0.7828424 0.1780307 0.7825166 0.1262539 0.7828424 0.1780307 0.7831427 0.1780307 0.7828424 0.1262539 0.7831427 0.1780307 0.783406 0.1780307 0.7831427 0.1262539 0.7784496 0.1780307 0.7781863 0.1780307 0.7784496 0.1262539 0.7781863 0.1780307 0.777886 0.1780307 0.7781863 0.1780307 0.777886 0.1262539 0.7775601 0.1780307 0.7775601 0.1262539 0.7775601 0.1780307 0.7772212 0.1780307 0.7775601 0.1262539 0.7772212 0.1780307 0.7768822 0.1780307 0.7772212 0.1780307 0.7768822 0.1262539 0.7765563 0.1780307 0.7765563 0.1262539 0.7765563 0.1780307 0.776256 0.1780307 0.7765563 0.1262539 0.776256 0.1780307 0.7759928 0.1780307 0.776256 0.1262539 0.7809278 0.1780307 0.7806645 0.1780307 0.7809278 0.1262539 0.7806645 0.1780307 0.7803642 0.1780307 0.7806645 0.1262539 0.7803642 0.1780307 0.7800383 0.1780307 0.7803642 0.1262539 0.7800383 0.1780307 0.7796993 0.1780307 0.7800383 0.1262539 0.7796993 0.1780307 0.7793605 0.1780307 0.7796993 0.1262539 0.7793605 0.1780307 0.7790346 0.1780307 0.7793605 0.1262539 0.7790346 0.1780307 0.7787342 0.1780307 0.7790346 0.1262539 0.7787342 0.1780307 0.7784711 0.1780307 0.7787342 0.1262539 0.7735146 0.1780307 0.7737777 0.1780307 0.7735146 0.1262539 0.7737777 0.1780307 0.7740781 0.1780307 0.7737777 0.1262539 0.7740781 0.1780307 0.774404 0.1780307 0.7740781 0.1262539 0.774404 0.1780307 0.774743 0.1780307 0.774404 0.1262539 0.774743 0.1780307 0.7750819 0.1780307 0.774743 0.1262539 0.7750819 0.1780307 0.7754078 0.1780307 0.7750819 0.1262539 0.7754078 0.1780307 0.775708 0.1780307 0.7754078 0.1262539 0.775708 0.1780307 0.7759713 0.1780307 0.775708 0.1262539 0.7809492 0.1780307 0.7812125 0.1780307 0.7809492 0.1262539 0.7812125 0.1780307 0.7815129 0.1780307 0.7812125 0.3086583 0.03806042 0.9619397 0.3086584 0.6913417 0.9619398 0.1262539 0.7815129 0.1780307 0.7818387 0.1780307 0.7815129 0.1262539 0.7818387 0.1780307 0.7821777 0.1780307 0.7818387 0.9684152 0.6862724 0.9717376 0.6525396 0.9380048 0.6492172 0.4565945 0.8893983 0.4565945 0.9466613 0.4621803 0.8893983 0.4621803 0.8893983 0.4565945 0.9466613 0.4675513 0.8893983 0.4675513 0.8893983 0.4565945 0.9466613 0.4725013 0.8893983 0.4725013 0.8893983 0.4565945 0.9466613 0.47684 0.8893983 0.47684 0.8893983 0.4565945 0.9466613 0.4725013 0.8893983 0.4725013 0.8893983 0.4565945 0.9466613 0.4675513 0.8893983 0.4675513 0.8893983 0.4565945 0.9466613 0.4621803 0.8893983 0.4621803 0.8893983 0.4565945 0.9466613 0.4565945 0.8893983 0.4565945 0.8893983 0.4565945 0.9466613 0.4510088 0.8893983 0.4510088 0.8893983 0.4565945 0.9466613 0.4456377 0.8893983 0.4456377 0.8893983 0.4565945 0.9466613 0.4406877 0.8893983 0.4406877 0.8893983 0.4565945 0.9466613 0.436349 0.8893983 0.47684 0.8893983 0.4565945 0.9466613 0.4725013 0.8893983 0.4725013 0.8893983 0.4565945 0.9466613 0.4675513 0.8893983 0.4675513 0.8893983 0.4565945 0.9466613 0.4621803 0.8893983 0.4621803 0.8893983 0.4565945 0.9466613 0.4565945 0.8893983 0.4565945 0.8893983 0.4565945 0.9466613 0.4510088 0.8893983 0.4510088 0.8893983 0.4565945 0.9466613 0.4456377 0.8893983 0.4456377 0.8893983 0.4565945 0.9466613 0.4406877 0.8893983 0.4406877 0.8893983 0.4565945 0.9466613 0.436349 0.8893983 0.436349 0.8893983 0.4565945 0.9466613 0.4406877 0.8893983 0.4406877 0.8893983 0.4565945 0.9466613 0.4456377 0.8893983 0.4456377 0.8893983 0.4565945 0.9466613 0.4510088 0.8893983 0.4510088 0.8893983 0.4565945 0.9466613 0.4565945 0.8893983 0.4565945 0.8893983 0.4565945 0.9466613 0.4621803 0.8893983 0.4621803 0.8893983 0.4565945 0.9466613 0.4675513 0.8893983 0.4675513 0.8893983 0.4565945 0.9466613 0.4725013 0.8893983 0.4725013 0.8893983 0.4565945 0.9466613 0.47684 0.8893983 0.436349 0.8893983 0.4565945 0.9466613 0.4406877 0.8893983 0.4406877 0.8893983 0.4565945 0.9466613 0.4456377 0.8893983 0.5975452 0.009607434 0.009607434 0.4024549 0.4024549 0.9903926 0.4456377 0.8893983 0.4565945 0.9466613 0.4510088 0.8893983 0.4510088 0.8893983 0.4565945 0.9466613 0.4565945 0.8893983 0.6123892 0.6598688 0.6167239 0.6598688 0.6180242 0.6154314 0.6167239 0.6598688 0.6208919 0.6598688 0.6234428 0.6154314 0.6208919 0.6598688 0.6247333 0.6598688 0.6284365 0.6154314 0.6247333 0.6598688 0.6281002 0.6598688 0.6328135 0.6154314 0.6281002 0.6598688 0.6247333 0.6598688 0.6296709 0.6154314 0.6247333 0.6598688 0.6208919 0.6598688 0.6242931 0.6154314 0.6208919 0.6598688 0.6167239 0.6598688 0.6184577 0.6154314 0.6167239 0.6598688 0.6123892 0.6598688 0.6123892 0.6154314 0.6123892 0.6154314 0.6123892 0.6598688 0.6080545 0.6598688 0.6063207 0.6154314 0.6080545 0.6598688 0.6038865 0.6598688 0.6004853 0.6154314 0.6038865 0.6598688 0.6000452 0.6598688 0.5951076 0.6154314 0.6000452 0.6598688 0.5966782 0.6598688 0.6328135 0.6154314 0.6281002 0.6598688 0.6247333 0.6598688 0.6284365 0.6154314 0.6247333 0.6598688 0.6208919 0.6598688 0.6234428 0.6154314 0.6208919 0.6598688 0.6167239 0.6598688 0.6180242 0.6154314 0.6167239 0.6598688 0.6123892 0.6598688 0.6123892 0.6598688 0.6080545 0.6598688 0.6067542 0.6154314 0.6080545 0.6598688 0.6038865 0.6598688 0.6013357 0.6154314 0.6038865 0.6598688 0.6000452 0.6598688 0.5963419 0.6154314 0.6000452 0.6598688 0.5966782 0.6598688 0.5919649 0.6154314 0.5966782 0.6598688 0.6000452 0.6598688 0.5951076 0.6154314 0.6000452 0.6598688 0.6038865 0.6598688 0.6004853 0.6154314 0.6038865 0.6598688 0.6080545 0.6598688 0.6063207 0.6154314 0.6080545 0.6598688 0.6123892 0.6598688 0.6123892 0.6154314 0.6123892 0.6154314 0.6123892 0.6598688 0.6167239 0.6598688 0.6184577 0.6154314 0.6167239 0.6598688 0.6208919 0.6598688 0.6242931 0.6154314 0.6208919 0.6598688 0.6247333 0.6598688 0.6296709 0.6154314 0.6247333 0.6598688 0.6281002 0.6598688 0.5919649 0.6154314 0.5966782 0.6598688 0.6000452 0.6598688 0.5963419 0.6154314 0.6000452 0.6598688 0.6038865 0.6598688 0.05595743 0.09075343 0.09075331 0.05595743 0.131669 0.02861845 0.131669 0.02861845 0.1771322 0.009787082 0.05595743 0.09075343 0.1771322 0.009787082 0.2253955 1.86801e-4 0.05595743 0.09075343 0.2253955 1.86801e-4 0.2746044 1.86801e-4 0.4092467 0.05595743 0.2746044 1.86801e-4 0.3228679 0.009786963 0.4092467 0.05595743 0.3228679 0.009786963 0.368331 0.02861845 0.4092467 0.05595743 0.4092467 0.05595743 0.4440426 0.09075343 0.4998132 0.2253955 0.4440426 0.09075343 0.4713817 0.131669 0.4998132 0.2253955 0.4713817 0.131669 0.490213 0.1771321 0.4998132 0.2253955 0.4998132 0.2253955 0.4998132 0.2746044 0.4440426 0.4092467 0.4998132 0.2746044 0.490213 0.3228679 0.4440426 0.4092467 0.490213 0.3228679 0.4713817 0.368331 0.4440426 0.4092467 0.4440426 0.4092467 0.4092467 0.4440427 0.2746044 0.4998133 0.4092467 0.4440427 0.3683311 0.4713817 0.2746044 0.4998133 0.3683311 0.4713817 0.3228679 0.4902131 0.2746044 0.4998133 0.2746044 0.4998133 0.2253955 0.4998133 0.09075343 0.4440427 0.2253955 0.4998133 0.1771322 0.4902132 0.09075343 0.4440427 0.1771322 0.4902132 0.1316691 0.4713817 0.09075343 0.4440427 0.09075343 0.4440427 0.05595743 0.4092467 0.02861845 0.368331 0.02861845 0.368331 0.009786963 0.3228679 0.09075343 0.4440427 0.009786963 0.3228679 1.86801e-4 0.2746046 0.09075343 0.4440427 1.86801e-4 0.2746046 1.86801e-4 0.2253956 0.05595743 0.09075343 1.86801e-4 0.2253956 0.009786963 0.1771322 0.05595743 0.09075343 0.009786963 0.1771322 0.02861845 0.1316691 0.05595743 0.09075343 0.05595743 0.09075343 0.2253955 1.86801e-4 0.4092467 0.05595743 0.4092467 0.05595743 0.4998132 0.2253955 0.4440426 0.4092467 0.4440426 0.4092467 0.2746044 0.4998133 0.09075343 0.4440427 0.09075343 0.4440427 1.86801e-4 0.2746046 0.05595743 0.09075343 0.05595743 0.09075343 0.4092467 0.05595743 0.4440426 0.4092467 0.6013357 0.6154314 0.6038865 0.6598688 0.6080545 0.6598688 0.6067542 0.6154314 0.6080545 0.6598688 0.6123892 0.6598688 0.8434912 0.6196303 0.8430139 0.6170459 0.8387178 0.6175016 0.6123892 0.6596467 0.6123892 0.6156536 0.6174607 0.6156536 0.6162905 0.6596467 0.6174607 0.6156536 0.6223375 0.6156536 0.6200417 0.6596467 0.6223375 0.6156536 0.6268318 0.6156536 0.6234989 0.6596467 0.6268318 0.6156536 0.6307711 0.6156536 0.6265292 0.6596467 0.6321851 0.6156536 0.6279428 0.6156536 0.6234989 0.6596467 0.6279428 0.6156536 0.6231027 0.6156536 0.6200417 0.6596467 0.6231027 0.6156536 0.6178509 0.6156536 0.6162905 0.6596467 0.6178509 0.6156536 0.6123892 0.6156536 0.6123892 0.6156536 0.6069276 0.6156536 0.608488 0.6596467 0.6047368 0.6596467 0.608488 0.6596467 0.6069276 0.6156536 0.6012796 0.6596467 0.6047368 0.6596467 0.6016758 0.6156536 0.5982493 0.6596467 0.6012796 0.6596467 0.5968357 0.6156536 0.6307711 0.6156536 0.6268318 0.6156536 0.6234989 0.6596467 0.6268318 0.6156536 0.6223375 0.6156536 0.6200417 0.6596467 0.6223375 0.6156536 0.6174607 0.6156536 0.6162905 0.6596467 0.6174607 0.6156536 0.6123892 0.6156536 0.6123892 0.6596467 0.6123892 0.6596467 0.6123892 0.6156536 0.6073177 0.6156536 0.608488 0.6596467 0.6073177 0.6156536 0.602441 0.6156536 0.6047368 0.6596467 0.602441 0.6156536 0.5979467 0.6156536 0.6012796 0.6596467 0.5979467 0.6156536 0.5940073 0.6156536 0.5982493 0.6596467 0.5925934 0.6156536 0.5968357 0.6156536 0.6012796 0.6596467 0.5968357 0.6156536 0.6016758 0.6156536 0.6047368 0.6596467 0.6016758 0.6156536 0.6069276 0.6156536 0.608488 0.6596467 0.6069276 0.6156536 0.6123892 0.6156536 0.6123892 0.6156536 0.6178509 0.6156536 0.6162905 0.6596467 0.6178509 0.6156536 0.6231027 0.6156536 0.6200417 0.6596467 0.6231027 0.6156536 0.6279428 0.6156536 0.6234989 0.6596467 0.6265292 0.6596467 0.6234989 0.6596467 0.6279428 0.6156536 0.5940073 0.6156536 0.5979467 0.6156536 0.6012796 0.6596467 0.5979467 0.6156536 0.602441 0.6156536 0.6047368 0.6596467 1.86786e-4 0.7028748 0.008826911 0.6594377 0.02577519 0.6185209 0.02577519 0.6185209 0.05038028 0.5816968 1.86786e-4 0.7028748 0.05038028 0.5816968 0.08169662 0.5503804 1.86786e-4 0.7028748 0.08169662 0.5503804 0.1185207 0.5257753 0.2471626 0.5001868 0.1185207 0.5257753 0.1594375 0.508827 0.2471626 0.5001868 0.1594375 0.508827 0.2028746 0.5001868 0.2471626 0.5001868 0.2471626 0.5001868 0.2905997 0.5088269 0.3315165 0.5257752 0.3315165 0.5257752 0.3683407 0.5503803 0.2471626 0.5001868 0.3683407 0.5503803 0.399657 0.5816966 0.2471626 0.5001868 0.399657 0.5816966 0.4242621 0.6185207 0.4498506 0.7471626 0.4242621 0.6185207 0.4412104 0.6594375 0.4498506 0.7471626 0.4412104 0.6594375 0.4498506 0.7028746 0.4498506 0.7471626 0.4498506 0.7471626 0.4412105 0.7905997 0.3683407 0.899657 0.4412105 0.7905997 0.4242622 0.8315165 0.3683407 0.899657 0.4242622 0.8315165 0.3996571 0.8683407 0.3683407 0.899657 0.3683407 0.899657 0.3315166 0.9242621 0.2028747 0.9498506 0.3315166 0.9242621 0.2905998 0.9412104 0.2028747 0.9498506 0.2905998 0.9412104 0.2471628 0.9498506 0.2028747 0.9498506 0.2028747 0.9498506 0.1594377 0.9412105 0.1185209 0.9242622 0.1185209 0.9242622 0.08169668 0.8996571 0.2028747 0.9498506 0.08169668 0.8996571 0.05038034 0.8683407 0.2028747 0.9498506 0.05038034 0.8683407 0.02577525 0.8315166 1.86786e-4 0.7028748 0.02577525 0.8315166 0.008826971 0.7905999 1.86786e-4 0.7028748 0.008826971 0.7905999 1.86794e-4 0.7471628 1.86786e-4 0.7028748 1.86786e-4 0.7028748 0.08169662 0.5503804 0.2471626 0.5001868 0.2471626 0.5001868 0.399657 0.5816966 0.4498506 0.7471626 0.4498506 0.7471626 0.3683407 0.899657 1.86786e-4 0.7028748 0.3683407 0.899657 0.2028747 0.9498506 1.86786e-4 0.7028748 0.2028747 0.9498506 0.05038034 0.8683407 1.86786e-4 0.7028748 0.602441 0.6156536 0.6073177 0.6156536 0.608488 0.6596467 0.6073177 0.6156536 0.6123892 0.6156536 0.6123892 0.6596467 0.8339444 0.6196303 0.8387178 0.6201366 0.8387178 0.6175016 0.8344218 0.6170459 0.8302909 0.6156964 0.8293545 0.6181308 0.8302909 0.6156964 0.8264837 0.613505 0.8251244 0.6156958 0.8264837 0.613505 0.8231468 0.6105557 0.8214167 0.612419 0.8231468 0.6105557 0.8204082 0.6069621 0.8183739 0.608426 0.8204082 0.6069621 0.8183733 0.6028621 0.8161128 0.6038705 0.8183733 0.6028621 0.8171202 0.5984134 0.8147205 0.5989274 0.8171202 0.5984134 0.8166971 0.5937869 0.8142503 0.5937869 0.8171202 0.5891604 0.8147205 0.5886464 0.8142503 0.5937869 0.8147205 0.5886464 0.8171202 0.5891604 0.8183733 0.5847117 0.8161128 0.5837033 0.8183733 0.5847117 0.8204082 0.5806117 0.8231468 0.5770181 0.8214167 0.5751549 0.8183739 0.5791478 0.8214167 0.5751549 0.8231468 0.5770181 0.8264837 0.5740689 0.8302909 0.5718774 0.8293545 0.569443 0.8251244 0.571878 0.8344218 0.5705279 0.8339444 0.5679435 0.8293545 0.569443 0.8339444 0.5679435 0.8344218 0.5705279 0.8387178 0.5700722 0.8387178 0.5700722 0.8430139 0.5705279 0.8434912 0.5679435 0.8430139 0.5705279 0.8471449 0.5718774 0.8480812 0.569443 0.8471449 0.5718774 0.850952 0.5740689 0.8523113 0.571878 0.850952 0.5740689 0.8542889 0.5770181 0.856019 0.5751549 0.8542889 0.5770181 0.8570274 0.5806117 0.8590618 0.5791478 0.8570274 0.5806117 0.8590624 0.5847117 0.8613228 0.5837033 0.8590624 0.5847117 0.8603155 0.5891604 0.8627153 0.5886464 0.8603155 0.5891604 0.8607386 0.5937869 0.8631854 0.5937869 0.8631854 0.5937869 0.8607386 0.5937869 0.8603155 0.5984134 0.8627153 0.5989274 0.8603155 0.5984134 0.8590624 0.6028621 0.8613228 0.6038705 0.8590624 0.6028621 0.8570274 0.6069621 0.8542889 0.6105557 0.856019 0.612419 0.8590618 0.608426 0.850952 0.613505 0.8523113 0.6156958 0.856019 0.612419 0.8523113 0.6156958 0.850952 0.613505 0.8471449 0.6156964 0.8430139 0.6170459 0.8434912 0.6196303 0.8480812 0.6181308 0.1262539 0.7821777 0.1262539 0.7825166 0.1780307 0.7825166 0.1262539 0.7825166 0.1262539 0.7828424 0.1780307 0.7828424 0.1262539 0.7828424 0.1262539 0.7831427 0.1780307 0.7831427 0.1262539 0.7831427 0.1262539 0.783406 0.1780307 0.783406 0.1262539 0.7784496 0.1262539 0.7781863 0.1780307 0.7781863 0.1262539 0.7781863 0.1262539 0.777886 0.1780307 0.777886 0.1780307 0.777886 0.1262539 0.777886 0.1262539 0.7775601 0.1262539 0.7775601 0.1262539 0.7772212 0.1780307 0.7772212 0.1262539 0.7772212 0.1262539 0.7768822 0.1780307 0.7768822 0.1780307 0.7768822 0.1262539 0.7768822 0.1262539 0.7765563 0.1262539 0.7765563 0.1262539 0.776256 0.1780307 0.776256 0.1262539 0.776256 0.1262539 0.7759928 0.1780307 0.7759928 0.1262539 0.7809278 0.1262539 0.7806645 0.1780307 0.7806645 0.1262539 0.7806645 0.1262539 0.7803642 0.1780307 0.7803642 0.1262539 0.7803642 0.1262539 0.7800383 0.1780307 0.7800383 0.1262539 0.7800383 0.1262539 0.7796993 0.1780307 0.7796993 0.1262539 0.7796993 0.1262539 0.7793605 0.1780307 0.7793605 0.1262539 0.7793605 0.1262539 0.7790346 0.1780307 0.7790346 0.1262539 0.7790346 0.1262539 0.7787342 0.1780307 0.7787342 0.1262539 0.7787342 0.1262539 0.7784711 0.1780307 0.7784711 0.1262539 0.7735146 0.1262539 0.7737777 0.1780307 0.7737777 0.1262539 0.7737777 0.1262539 0.7740781 0.1780307 0.7740781 0.1262539 0.7740781 0.1262539 0.774404 0.1780307 0.774404 0.1262539 0.774404 0.1262539 0.774743 0.1780307 0.774743 0.1262539 0.774743 0.1262539 0.7750819 0.1780307 0.7750819 0.1262539 0.7750819 0.1262539 0.7754078 0.1780307 0.7754078 0.1262539 0.7754078 0.1262539 0.775708 0.1780307 0.775708 0.1262539 0.775708 0.1262539 0.7759713 0.1780307 0.7759713 0.1262539 0.7809492 0.1262539 0.7812125 0.1780307 0.7812125 0.1262539 0.7812125 0.1262539 0.7815129 0.1780307 0.7815129 0.6913417 0.9619398 0.5975452 0.9903927 0.5 1 0.5 1 0.4024549 0.9903927 0.6913417 0.9619398 0.4024549 0.9903927 0.3086583 0.9619398 0.6913417 0.9619398 0.3086583 0.9619398 0.2222149 0.9157349 0.1464466 0.8535535 0.1464466 0.8535535 0.08426523 0.7777852 0.0380603 0.6913418 0.0380603 0.6913418 0.009607434 0.5975453 0.0380603 0.3086584 0.009607434 0.5975453 0 0.5000001 0.0380603 0.3086584 0 0.5000001 0.009607434 0.402455 0.0380603 0.3086584 0.0380603 0.3086584 0.08426523 0.222215 0.1464466 0.1464467 0.1464466 0.1464467 0.2222149 0.08426535 0.3086583 0.03806042 0.3086583 0.03806042 0.4024549 0.009607553 0.5 1.78814e-7 0.5 1.78814e-7 0.5975452 0.009607553 0.6913417 0.03806042 0.6913417 0.03806042 0.7777851 0.08426535 0.8535534 0.1464467 0.8535534 0.1464467 0.9157348 0.222215 0.9619397 0.3086584 0.9619397 0.3086584 0.9903926 0.402455 0.9619397 0.6913418 0.9903926 0.402455 1 0.5000001 0.9619397 0.6913418 1 0.5000001 0.9903926 0.5975453 0.9619397 0.6913418 0.9619397 0.6913418 0.9157348 0.7777852 0.8535534 0.8535535 0.8535534 0.8535535 0.7777851 0.9157349 0.6913417 0.9619398 0.3086583 0.9619398 0.1464466 0.8535535 0.0380603 0.6913418 0.0380603 0.3086584 0.1464466 0.1464467 0.0380603 0.6913418 0.1464466 0.1464467 0.3086583 0.03806042 0.0380603 0.6913418 0.3086583 0.03806042 0.5 1.78814e-7 0.9619397 0.3086584 0.5 1.78814e-7 0.6913417 0.03806042 0.9619397 0.3086584 0.6913417 0.03806042 0.8535534 0.1464467 0.9619397 0.3086584 0.9619397 0.6913418 0.8535534 0.8535535 0.9619397 0.3086584 0.8535534 0.8535535 0.6913417 0.9619398 0.9619397 0.3086584 0.6913417 0.9619398 0.3086583 0.9619398 0.0380603 0.6913418 0.6913417 0.9619398 0.0380603 0.6913418 0.3086583 0.03806042 0.1262539 0.7815129 0.1262539 0.7818387 0.1780307 0.7818387 0.1262539 0.7818387 0.1262539 0.7821777 0.1780307 0.7821777 0.9380048 0.6492172 0.9346824 0.6525396 0.932072 0.6564463 0.932072 0.6564463 0.930274 0.6607872 0.9380048 0.6492172 0.930274 0.6607872 0.9293573 0.6653955 0.9380048 0.6492172 0.9293573 0.6653955 0.9293573 0.6700941 0.930274 0.6747024 0.930274 0.6747024 0.932072 0.6790432 0.9293573 0.6653955 0.932072 0.6790432 0.9346824 0.68295 0.9293573 0.6653955 0.9346824 0.68295 0.9380048 0.6862724 0.9419115 0.6888828 0.9419115 0.6888828 0.9462524 0.6906808 0.9508607 0.6915975 0.9508607 0.6915975 0.9555593 0.6915975 0.9684152 0.6862724 0.9555593 0.6915975 0.9601675 0.6906808 0.9684152 0.6862724 0.9601675 0.6906808 0.9645085 0.6888828 0.9684152 0.6862724 0.9684152 0.6862724 0.9717376 0.68295 0.974348 0.6790432 0.974348 0.6790432 0.9761461 0.6747024 0.9770627 0.670094 0.9770627 0.670094 0.9770627 0.6653955 0.9761461 0.6607872 0.9761461 0.6607872 0.974348 0.6564463 0.9770627 0.670094 0.974348 0.6564463 0.9717376 0.6525396 0.9770627 0.670094 0.9717376 0.6525396 0.9684152 0.6492172 0.9645084 0.6466068 0.9645084 0.6466068 0.9601675 0.6448087 0.9717376 0.6525396 0.9601675 0.6448087 0.9555593 0.6438921 0.9717376 0.6525396 0.9555593 0.6438921 0.9508607 0.6438921 0.9462524 0.6448087 0.9462524 0.6448087 0.9419115 0.6466068 0.9555593 0.6438921 0.9419115 0.6466068 0.9380048 0.6492172 0.9555593 0.6438921 0.9346824 0.68295 0.9419115 0.6888828 0.9684152 0.6862724 0.9419115 0.6888828 0.9508607 0.6915975 0.9684152 0.6862724 0.9684152 0.6862724 0.974348 0.6790432 0.9717376 0.6525396 0.974348 0.6790432 0.9770627 0.670094 0.9717376 0.6525396 0.9380048 0.6492172 0.9293573 0.6653955 0.9346824 0.68295 0.9717376 0.6525396 0.9555593 0.6438921 0.9380048 0.6492172 0.9380048 0.6492172 0.9346824 0.68295 0.9684152 0.6862724 0.4024549 0.9903926 0.5 1 0.5975452 0.9903926 0.5975452 0.9903926 0.6913417 0.9619397 0.7777851 0.9157348 0.7777851 0.9157348 0.8535534 0.8535534 0.9157348 0.7777851 0.9157348 0.7777851 0.9619397 0.6913417 0.7777851 0.9157348 0.9619397 0.6913417 0.9903926 0.5975452 0.7777851 0.9157348 0.9903926 0.5975452 1 0.5 0.9903926 0.4024549 0.9903926 0.4024549 0.9619397 0.3086583 0.9157348 0.2222149 0.9157348 0.2222149 0.8535534 0.1464466 0.5975452 0.009607434 0.8535534 0.1464466 0.7777851 0.08426523 0.5975452 0.009607434 0.7777851 0.08426523 0.6913417 0.0380603 0.5975452 0.009607434 0.5975452 0.009607434 0.5 0 0.4024549 0.009607434 0.4024549 0.009607434 0.3086583 0.0380603 0.2222149 0.08426523 0.2222149 0.08426523 0.1464466 0.1464466 0.08426523 0.2222149 0.08426523 0.2222149 0.0380603 0.3086583 0.2222149 0.08426523 0.0380603 0.3086583 0.009607434 0.4024549 0.2222149 0.08426523 0.009607434 0.4024549 0 0.5 0.009607434 0.5975452 0.009607434 0.5975452 0.0380603 0.6913417 0.08426523 0.7777851 0.08426523 0.7777851 0.1464466 0.8535534 0.4024549 0.9903926 0.1464466 0.8535534 0.2222149 0.9157348 0.4024549 0.9903926 0.2222149 0.9157348 0.3086583 0.9619397 0.4024549 0.9903926 0.4024549 0.9903926 0.5975452 0.9903926 0.9903926 0.5975452 0.5975452 0.9903926 0.7777851 0.9157348 0.9903926 0.5975452 0.9903926 0.5975452 0.9903926 0.4024549 0.5975452 0.009607434 0.9903926 0.4024549 0.9157348 0.2222149 0.5975452 0.009607434 0.5975452 0.009607434 0.4024549 0.009607434 0.009607434 0.4024549 0.4024549 0.009607434 0.2222149 0.08426523 0.009607434 0.4024549 0.009607434 0.4024549 0.009607434 0.5975452 0.4024549 0.9903926 0.009607434 0.5975452 0.08426523 0.7777851 0.4024549 0.9903926 0.4024549 0.9903926 0.9903926 0.5975452 0.5975452 0.009607434</float_array>
          <technique_common>
            <accessor source="#rocket-mesh-map-0-array" count="1314" stride="2">
              <param name="S" type="float"/>
              <param name="T" type="float"/>
            </accessor>
          </technique_common>
        </source>
        <vertices id="rocket-mesh-vertices">
          <input semantic="POSITION" source="#rocket-mesh-positions"/>
        </vertices>
        <triangles material="Material_001-material" count="438">
          <input semantic="VERTEX" source="#rocket-mesh-vertices" offset="0"/>
          <input semantic="NORMAL" source="#rocket-mesh-normals" offset="1"/>
          <input semantic="TEXCOORD" source="#rocket-mesh-map-0" offset="2" set="0"/>
          <p>2 0 0 5 0 1 0 0 2 7 1 3 8 1 4 5 1 5 11 2 6 13 2 7 8 2 8 15 3 9 17 3 10 13 3 11 19 4 12 20 4 13 17 4 14 22 5 15 24 5 16 20 5 17 26 6 18 28 6 19 24 6 20 30 7 21 32 7 22 28 7 23 32 8 24 39 8 25 37 8 26 37 9 27 43 9 28 40 9 29 40 10 30 47 10 31 45 10 32 45 11 33 50 11 34 48 11 35 48 12 36 55 12 37 53 12 38 53 13 39 58 13 40 57 13 41 57 14 42 62 14 43 60 14 44 60 15 45 67 15 46 64 15 47 67 16 48 69 16 49 64 16 50 71 17 51 73 17 52 69 17 53 75 18 54 76 18 55 73 18 56 78 19 57 80 19 58 76 19 59 82 20 60 84 20 61 80 20 62 86 21 63 88 21 64 84 21 65 90 22 66 93 22 67 88 22 68 95 23 69 97 23 70 93 23 71 97 24 72 103 24 73 101 24 74 101 25 75 106 25 76 105 25 77 105 26 78 110 26 79 108 26 80 108 27 81 114 27 82 112 27 83 112 28 84 118 28 85 117 28 86 117 29 87 123 29 88 120 29 89 62 30 90 30 30 91 127 30 92 120 31 93 127 31 94 124 31 95 124 32 96 2 32 97 0 32 98 5 33 99 1 33 100 0 33 101 3 34 102 4 34 103 6 34 104 6 35 105 9 35 106 10 35 107 10 36 108 12 36 109 14 36 110 14 37 111 16 37 112 18 37 113 18 38 114 21 38 115 23 38 116 23 39 117 25 39 118 27 39 119 27 40 120 29 40 121 31 40 122 31 41 123 33 41 124 35 41 125 33 42 126 38 42 127 35 42 128 42 43 129 36 43 130 41 43 131 46 44 132 41 44 133 44 44 134 51 45 135 44 45 136 49 45 137 49 46 138 54 46 139 51 46 140 52 47 141 59 47 142 54 47 143 56 48 144 63 48 145 59 48 146 61 49 147 66 49 148 63 49 149 66 50 150 68 50 151 70 50 152 70 51 153 72 51 154 74 51 155 74 52 156 77 52 157 79 52 158 79 53 159 81 53 160 83 53 161 83 54 162 85 54 163 87 54 164 87 55 165 89 55 166 91 55 167 91 56 168 92 56 169 94 56 170 94 57 171 96 57 172 98 57 173 96 58 174 102 58 175 98 58 176 100 59 177 107 59 178 102 59 179 104 60 180 111 60 181 107 60 182 115 61 183 109 61 184 113 61 185 113 62 186 119 62 187 115 62 188 116 63 189 122 63 190 119 63 191 126 64 192 31 64 193 63 64 194 121 65 195 126 65 196 122 65 197 125 66 198 3 66 199 126 66 200 124 67 201 1 67 202 125 67 203 125 68 204 120 68 205 124 68 206 121 69 207 117 69 208 120 69 209 116 70 210 112 70 211 117 70 212 113 71 213 108 71 214 112 71 215 109 72 216 105 72 217 108 72 218 104 73 219 101 73 220 105 73 221 100 74 222 97 74 223 101 74 224 92 75 225 97 75 226 96 75 227 93 76 228 89 76 229 88 76 230 88 77 231 85 77 232 84 77 233 81 78 234 84 78 235 85 78 236 80 79 237 77 79 238 76 79 239 72 80 240 76 80 241 77 80 242 68 81 243 73 81 244 72 81 245 69 82 246 65 82 247 64 82 248 65 83 249 60 83 250 64 83 251 61 84 252 57 84 253 60 84 254 56 85 255 53 85 256 57 85 257 52 86 258 48 86 259 53 86 260 49 87 261 45 87 262 48 87 263 44 88 264 40 88 265 45 88 266 41 89 267 37 89 268 40 89 269 36 90 270 32 90 271 37 90 272 32 91 273 29 91 274 28 91 275 28 92 276 25 92 277 24 92 278 24 93 279 21 93 280 20 93 281 16 94 282 20 94 283 21 94 284 12 95 285 17 95 286 16 95 287 13 96 288 9 96 289 8 96 290 4 97 291 8 97 292 9 97 293 129 98 294 130 98 295 128 98 296 131 99 297 132 99 298 130 99 299 133 100 300 134 100 301 132 100 302 135 101 303 136 101 304 134 101 305 137 102 306 138 102 307 136 102 308 139 103 309 140 103 310 138 103 311 140 104 312 143 104 313 142 104 314 143 105 315 144 105 316 142 105 317 145 106 318 146 106 319 144 106 320 146 107 321 149 107 322 148 107 323 149 108 324 150 108 325 148 108 326 151 109 327 152 109 328 150 109 329 153 110 330 154 110 331 152 110 332 155 111 333 156 111 334 154 111 335 157 112 336 158 112 337 156 112 338 159 113 339 160 113 340 158 113 341 161 114 342 162 114 343 160 114 344 163 115 345 164 115 346 162 115 347 165 116 348 166 116 349 164 116 350 167 117 351 168 117 352 166 117 353 169 118 354 170 118 355 168 118 356 171 119 357 172 119 358 170 119 359 173 120 360 174 120 361 172 120 362 175 121 363 176 121 364 174 121 365 177 122 366 178 122 367 176 122 368 179 123 369 180 123 370 178 123 371 181 124 372 182 124 373 180 124 374 183 125 375 184 125 376 182 125 377 185 126 378 186 126 379 184 126 380 187 127 381 188 127 382 186 127 383 165 128 384 149 128 385 133 128 386 189 129 387 190 129 388 188 129 389 191 130 390 128 130 391 190 130 392 158 131 393 174 131 394 190 131 395 192 132 396 224 132 397 193 132 398 193 133 399 224 133 400 194 133 401 194 134 402 224 134 403 195 134 404 195 135 405 224 135 406 196 135 407 196 136 408 224 136 409 197 136 410 197 137 411 224 137 412 198 137 413 198 138 414 224 138 415 199 138 416 199 139 417 224 139 418 200 139 419 200 140 420 224 140 421 201 140 422 201 141 423 224 141 424 202 141 425 202 142 426 224 142 427 203 142 428 203 143 429 224 143 430 204 143 431 204 144 432 224 144 433 205 144 434 205 145 435 224 145 436 206 145 437 206 146 438 224 146 439 207 146 440 207 147 441 224 147 442 208 147 443 208 148 444 224 148 445 209 148 446 209 149 447 224 149 448 210 149 449 210 150 450 224 150 451 211 150 452 211 151 453 224 151 454 212 151 455 212 152 456 224 152 457 213 152 458 213 153 459 224 153 460 214 153 461 214 154 462 224 154 463 215 154 464 215 155 465 224 155 466 216 155 467 216 156 468 224 156 469 217 156 470 217 157 471 224 157 472 218 157 473 218 158 474 224 158 475 219 158 476 219 159 477 224 159 478 220 159 479 220 160 480 224 160 481 221 160 482 221 161 483 224 161 484 222 161 485 207 162 486 215 162 487 223 162 488 222 163 489 224 163 490 223 163 491 223 164 492 224 164 493 192 164 494 2 165 495 7 165 496 5 165 497 7 166 498 11 166 499 8 166 500 11 167 501 15 167 502 13 167 503 15 168 504 19 168 505 17 168 506 19 169 507 22 169 508 20 169 509 22 170 510 26 170 511 24 170 512 26 171 513 30 171 514 28 171 515 30 172 516 34 172 517 32 172 518 32 173 519 34 173 520 39 173 521 37 174 522 39 174 523 43 174 524 40 175 525 43 175 526 47 175 527 45 176 528 47 176 529 50 176 530 48 177 531 50 177 532 55 177 533 53 178 534 55 178 535 58 178 536 57 179 537 58 179 538 62 179 539 60 180 540 62 180 541 67 180 542 67 181 543 71 181 544 69 181 545 71 182 546 75 182 547 73 182 548 75 183 549 78 183 550 76 183 551 78 184 552 82 184 553 80 184 554 82 185 555 86 185 556 84 185 557 86 186 558 90 186 559 88 186 560 90 187 561 95 187 562 93 187 563 95 188 564 99 188 565 97 188 566 97 189 567 99 189 568 103 189 569 101 190 570 103 190 571 106 190 572 105 191 573 106 191 574 110 191 575 108 192 576 110 192 577 114 192 578 112 193 579 114 193 580 118 193 581 117 194 582 118 194 583 123 194 584 127 195 585 123 195 586 118 195 587 118 195 588 114 195 589 127 195 590 114 195 591 110 195 592 127 195 593 110 196 594 106 196 595 95 196 596 106 195 597 103 195 598 95 195 599 103 195 600 99 195 601 95 195 602 95 197 603 90 197 604 78 197 605 90 195 606 86 195 607 78 195 608 86 198 609 82 198 610 78 198 611 78 199 612 75 199 613 62 199 614 75 195 615 71 195 616 62 195 617 71 195 618 67 195 619 62 195 620 62 195 621 58 195 622 47 195 623 58 200 624 55 200 625 47 200 626 55 198 627 50 198 628 47 198 629 47 201 630 43 201 631 30 201 632 43 202 633 39 202 634 30 202 635 39 195 636 34 195 637 30 195 638 30 203 639 26 203 640 22 203 641 22 195 642 19 195 643 30 195 644 19 195 645 15 195 646 30 195 647 15 195 648 11 195 649 127 195 650 11 204 651 7 204 652 127 204 653 7 195 654 2 195 655 127 195 656 127 205 657 110 205 658 95 205 659 95 206 660 78 206 661 62 206 662 62 207 663 47 207 664 30 207 665 30 208 666 15 208 667 127 208 668 127 209 669 95 209 670 62 209 671 120 210 672 123 210 673 127 210 674 124 211 675 127 211 676 2 211 677 5 212 678 4 212 679 1 212 680 3 213 681 1 213 682 4 213 683 6 214 684 4 214 685 9 214 686 10 215 687 9 215 688 12 215 689 14 216 690 12 216 691 16 216 692 18 217 693 16 217 694 21 217 695 23 218 696 21 218 697 25 218 698 27 219 699 25 219 700 29 219 701 31 220 702 29 220 703 33 220 704 33 221 705 36 221 706 38 221 707 42 222 708 38 222 709 36 222 710 46 223 711 42 223 712 41 223 713 51 224 714 46 224 715 44 224 716 49 225 717 52 225 718 54 225 719 52 226 720 56 226 721 59 226 722 56 227 723 61 227 724 63 227 725 61 228 726 65 228 727 66 228 728 66 229 729 65 229 730 68 229 731 70 230 732 68 230 733 72 230 734 74 231 735 72 231 736 77 231 737 79 232 738 77 232 739 81 232 740 83 233 741 81 233 742 85 233 743 87 234 744 85 234 745 89 234 746 91 235 747 89 235 748 92 235 749 94 236 750 92 236 751 96 236 752 96 237 753 100 237 754 102 237 755 100 238 756 104 238 757 107 238 758 104 239 759 109 239 760 111 239 761 115 240 762 111 240 763 109 240 764 113 241 765 116 241 766 119 241 767 116 242 768 121 242 769 122 242 770 126 243 771 3 243 772 6 243 773 6 243 774 10 243 775 126 243 776 10 243 777 14 243 778 126 243 779 14 244 780 18 244 781 31 244 782 18 245 783 23 245 784 31 245 785 23 246 786 27 246 787 31 246 788 31 243 789 35 243 790 38 243 791 38 243 792 42 243 793 31 243 794 42 243 795 46 243 796 31 243 797 46 247 798 51 247 799 63 247 800 51 243 801 54 243 802 63 243 803 54 248 804 59 248 805 63 248 806 63 249 807 66 249 808 79 249 809 66 250 810 70 250 811 79 250 812 70 248 813 74 248 814 79 248 815 79 243 816 83 243 817 94 243 818 83 243 819 87 243 820 94 243 821 87 251 822 91 251 823 94 251 824 94 243 825 98 243 826 102 243 827 102 243 828 107 243 829 94 243 830 107 252 831 111 252 832 94 252 833 111 253 834 115 253 835 126 253 836 115 254 837 119 254 838 126 254 839 119 255 840 122 255 841 126 255 842 126 256 843 14 256 844 31 256 845 31 257 846 46 257 847 63 257 848 63 258 849 79 258 850 126 258 851 79 259 852 94 259 853 126 259 854 94 260 855 111 260 856 126 260 857 121 261 858 125 261 859 126 261 860 125 262 861 1 262 862 3 262 863 124 263 864 0 263 865 1 263 866 125 264 867 121 264 868 120 264 869 121 265 870 116 265 871 117 265 872 116 266 873 113 266 874 112 266 875 113 267 876 109 267 877 108 267 878 109 268 879 104 268 880 105 268 881 104 269 882 100 269 883 101 269 884 100 270 885 96 270 886 97 270 887 92 271 888 93 271 889 97 271 890 93 272 891 92 272 892 89 272 893 88 273 894 89 273 895 85 273 896 81 274 897 80 274 898 84 274 899 80 275 900 81 275 901 77 275 902 72 276 903 73 276 904 76 276 905 68 277 906 69 277 907 73 277 908 69 278 909 68 278 910 65 278 911 65 279 912 61 279 913 60 279 914 61 280 915 56 280 916 57 280 917 56 281 918 52 281 919 53 281 920 52 282 921 49 282 922 48 282 923 49 283 924 44 283 925 45 283 926 44 284 927 41 284 928 40 284 929 41 285 930 36 285 931 37 285 932 36 286 933 33 286 934 32 286 935 32 287 936 33 287 937 29 287 938 28 288 939 29 288 940 25 288 941 24 289 942 25 289 943 21 289 944 16 290 945 17 290 946 20 290 947 12 291 948 13 291 949 17 291 950 13 292 951 12 292 952 9 292 953 4 293 954 5 293 955 8 293 956 129 294 957 131 294 958 130 294 959 131 295 960 133 295 961 132 295 962 133 296 963 135 296 964 134 296 965 135 297 966 137 297 967 136 297 968 137 298 969 139 298 970 138 298 971 139 299 972 141 299 973 140 299 974 140 300 975 141 300 976 143 300 977 143 301 978 145 301 979 144 301 980 145 302 981 147 302 982 146 302 983 146 303 984 147 303 985 149 303 986 149 304 987 151 304 988 150 304 989 151 305 990 153 305 991 152 305 992 153 306 993 155 306 994 154 306 995 155 307 996 157 307 997 156 307 998 157 308 999 159 308 1000 158 308 1001 159 309 1002 161 309 1003 160 309 1004 161 310 1005 163 310 1006 162 310 1007 163 311 1008 165 311 1009 164 311 1010 165 312 1011 167 312 1012 166 312 1013 167 313 1014 169 313 1015 168 313 1016 169 314 1017 171 314 1018 170 314 1019 171 315 1020 173 315 1021 172 315 1022 173 316 1023 175 316 1024 174 316 1025 175 317 1026 177 317 1027 176 317 1028 177 318 1029 179 318 1030 178 318 1031 179 319 1032 181 319 1033 180 319 1034 181 320 1035 183 320 1036 182 320 1037 183 321 1038 185 321 1039 184 321 1040 185 322 1041 187 322 1042 186 322 1043 187 323 1044 189 323 1045 188 323 1046 133 195 1047 131 195 1048 129 195 1049 129 324 1050 191 324 1051 133 324 1052 191 325 1053 189 325 1054 133 325 1055 189 326 1056 187 326 1057 185 326 1058 185 195 1059 183 195 1060 181 195 1061 181 195 1062 179 195 1063 173 195 1064 179 195 1065 177 195 1066 173 195 1067 177 195 1068 175 195 1069 173 195 1070 173 195 1071 171 195 1072 169 195 1073 169 327 1074 167 327 1075 165 327 1076 165 195 1077 163 195 1078 161 195 1079 161 195 1080 159 195 1081 157 195 1082 157 327 1083 155 327 1084 153 327 1085 153 195 1086 151 195 1087 149 195 1088 149 195 1089 147 195 1090 141 195 1091 147 195 1092 145 195 1093 141 195 1094 145 195 1095 143 195 1096 141 195 1097 141 195 1098 139 195 1099 137 195 1100 137 328 1101 135 328 1102 133 328 1103 189 329 1104 185 329 1105 181 329 1106 173 195 1107 169 195 1108 181 195 1109 169 330 1110 165 330 1111 181 330 1112 165 331 1113 161 331 1114 149 331 1115 161 195 1116 157 195 1117 149 195 1118 157 332 1119 153 332 1120 149 332 1121 141 195 1122 137 195 1123 149 195 1124 137 333 1125 133 333 1126 149 333 1127 133 334 1128 189 334 1129 181 334 1130 133 335 1131 181 335 1132 165 335 1133 189 336 1134 191 336 1135 190 336 1136 191 337 1137 129 337 1138 128 337 1139 190 243 1140 128 243 1141 130 243 1142 130 338 1143 132 338 1144 190 338 1145 132 243 1146 134 243 1147 190 243 1148 134 243 1149 136 243 1150 138 243 1151 138 243 1152 140 243 1153 134 243 1154 140 243 1155 142 243 1156 134 243 1157 142 243 1158 144 243 1159 146 243 1160 146 243 1161 148 243 1162 150 243 1163 150 243 1164 152 243 1165 158 243 1166 152 339 1167 154 339 1168 158 339 1169 154 243 1170 156 243 1171 158 243 1172 158 243 1173 160 243 1174 162 243 1175 162 243 1176 164 243 1177 166 243 1178 166 243 1179 168 243 1180 170 243 1181 170 243 1182 172 243 1183 166 243 1184 172 243 1185 174 243 1186 166 243 1187 174 243 1188 176 243 1189 178 243 1190 178 243 1191 180 243 1192 174 243 1193 180 243 1194 182 243 1195 174 243 1196 182 243 1197 184 243 1198 186 243 1199 186 243 1200 188 243 1201 182 243 1202 188 340 1203 190 340 1204 182 340 1205 142 243 1206 146 243 1207 158 243 1208 146 243 1209 150 243 1210 158 243 1211 158 341 1212 162 341 1213 174 341 1214 162 243 1215 166 243 1216 174 243 1217 190 342 1218 134 342 1219 142 342 1220 174 243 1221 182 243 1222 190 243 1223 190 343 1224 142 343 1225 158 343 1226 223 243 1227 192 243 1228 193 243 1229 193 243 1230 194 243 1231 195 243 1232 195 243 1233 196 243 1234 197 243 1235 197 243 1236 198 243 1237 195 243 1238 198 243 1239 199 243 1240 195 243 1241 199 243 1242 200 243 1243 201 243 1244 201 344 1245 202 344 1246 203 344 1247 203 243 1248 204 243 1249 207 243 1250 204 345 1251 205 345 1252 207 345 1253 205 243 1254 206 243 1255 207 243 1256 207 243 1257 208 243 1258 209 243 1259 209 243 1260 210 243 1261 211 243 1262 211 243 1263 212 243 1264 213 243 1265 213 243 1266 214 243 1267 211 243 1268 214 243 1269 215 243 1270 211 243 1271 215 243 1272 216 243 1273 217 243 1274 217 346 1275 218 346 1276 219 346 1277 219 243 1278 220 243 1279 223 243 1280 220 347 1281 221 347 1282 223 347 1283 221 243 1284 222 243 1285 223 243 1286 223 348 1287 193 348 1288 199 348 1289 193 349 1290 195 349 1291 199 349 1292 199 243 1293 201 243 1294 207 243 1295 201 243 1296 203 243 1297 207 243 1298 207 350 1299 209 350 1300 215 350 1301 209 351 1302 211 351 1303 215 351 1304 215 243 1305 217 243 1306 223 243 1307 217 243 1308 219 243 1309 223 243 1310 223 352 1311 199 352 1312 207 352 1313</p>
        </triangles>
      </mesh>
    </geometry>
  </library_geometries>
  <library_visual_scenes>
    <visual_scene id="Scene" name="Scene">
      <node id="rocket" name="rocket" type="NODE">
        <matrix sid="transform">1 0 0 0 0 7.54979e-8 1 0 0 -1 7.54979e-8 0 0 0 0 1</matrix>
        <instance_geometry url="#rocket-mesh" name="rocket">
          <bind_material>
            <technique_common>
              <instance_material symbol="Material_001-material" target="#Material_001-material">
                <bind_vertex_input semantic="UVMap" input_semantic="TEXCOORD" input_set="0"/>
              </instance_material>
            </technique_common>
          </bind_material>
        </instance_geometry>
        <node id="prop_flame" name="prop_flame" type="NODE">
          <matrix sid="transform">0.1800001 0 0 0 0 0.1800001 0 0.2579907 0 0 0.1800001 -1.77636e-15 0 0 0 1</matrix>
        </node>
      </node>
    </visual_scene>
  </library_visual_scenes>
  <scene>
    <instance_visual_scene url="#Scene"/>
  </scene>
</COLLADA>