<?xml version="1.0" encoding="utf-8"?>
<COLLADA xmlns="http://www.collada.org/2005/11/COLLADASchema" version="1.4.1" xmlns:xsi="http://www.w3.org/2001/XMLSchema-instance">
  <asset>
    <contributor>
      <author>Blender User</author>
      <authoring_tool>Blender 3.4.1</authoring_tool>
    </contributor>
    <created>2026-07-09T01:11:04</created>
    <modified>2026-07-09T01:11:04</modified>
    <unit name="meter" meter="1"/>
    <up_axis>Z_UP</up_axis>
  </asset>
  <library_effects>
    <effect id="Material_001-effect">
      <profile_COMMON>
        <newparam sid="mla_struct_png-surface">
          <surface type="2D">
            <init_from>mla_struct_png</init_from>
          </surface>
        </newparam>
        <newparam sid="mla_struct_png-sampler">
          <sampler2D>
            <source>mla_struct_png-surface</source>
          </sampler2D>
        </newparam>
        <technique sid="common">
          <lambert>
            <emission>
              <color sid="emission">0 0 0 1</color>
            </emission>
            <diffuse>
              <texture texture="mla_struct_png-sampler" texcoord="UVMap"/>
            </diffuse>
            <index_of_refraction>
              <float sid="ior">1.45</float>
            </index_of_refraction>
          </lambert>
        </technique>
      </profile_COMMON>
    </effect>
  </library_effects>
  <library_images>
    <image id="mla_struct_png" name="mla_struct_png">
      <init_from>mla_struct.png</init_from>
    </image>
  </library_images>
  <library_materials>
    <material id="Material_001-material" name="Material.001">
      <instance_effect url="#Material_001-effect"/>
    </material>
  </library_materials>
  <library_geometries>
    <geometry id="rocket-mesh" name="rocket">
      <mesh>
        <source id="rocket-mesh-positions">
          <float_array id="rocket-mesh-positions-array" count="675">0 1.4 -1 0 1.26 -0.9900003 0 1 0.9999998 0 0.9 0.9899998 0.2282556 1.23579 -0.9900003 0.2536174 1.373099 -1 0.1755813 0.8827068 0.9899998 0.1950903 0.9807853 0.9999998 0.4974885 1.293431 -1 0.4477397 1.164088 -0.9900003 0.3444151 0.8314916 0.9899998 0.3826835 0.9238795 0.9999998 0.6500173 1.047652 -0.9900003 0.7222414 1.164057 -1 0.5000132 0.7483227 0.9899998 0.5555703 0.8314696 0.9999998 0.827315 0.8909546 -0.9900003 0.9192389 0.9899495 -1 0.6363961 0.6363961 0.9899998 0.7071068 0.7071068 0.9999998 1.080911 0.7777984 -1 0.9728196 0.7000185 -0.9900003 0.8314696 0.5555703 0.9999998 0.7483227 0.5000132 0.9899998 1.201043 0.5357568 -1 1.080939 0.4821811 -0.9900003 0.9238795 0.3826835 0.9999998 0.8314916 0.3444151 0.9899998 1.275021 0.2731264 -1 1.147519 0.2458138 -0.9900003 0.9807853 0.1950903 0.9999998 0.8827068 0.1755813 0.9899998 1.3 0 -1 1.17 0 -0.9900003 1 0 0.9999998 0.9 0 0.9899998 1.147519 -0.2458137 -0.9900003 1.275021 -0.2731264 -1 0.8827068 -0.1755813 0.9899998 0.9807853 -0.1950903 0.9999998 1.201043 -0.5357568 -1 1.080939 -0.4821811 -0.9900003 0.8314916 -0.3444151 0.9899998 0.9238795 -0.3826835 0.9999998 0.9728196 -0.7000185 -0.9900003 1.080911 -0.7777983 -1 0.7483227 -0.5000132 0.9899998 0.8314696 -0.5555703 0.9999998 0.9192389 -0.9899495 -1 0.827315 -0.8909546 -0.9900003 0.7071068 -0.7071068 0.9999998 0.6363961 -0.6363961 0.9899998 0.6500173 -1.047652 -0.9900003 0.7222414 -1.164057 -1 0.5000132 -0.7483227 0.9899998 0.5555703 -0.8314696 0.9999998 0.4477397 -1.164088 -0.9900003 0.4974885 -1.293431 -1 0.3826835 -0.9238795 0.9999998 0.3444151 -0.8314916 0.9899998 0.2536174 -1.373099 -1 0.2282556 -1.235789 -0.9900003 0.1950903 -0.9807853 0.9999998 0.1755813 -0.8827068 0.9899998 0 -1.4 -1 0 -1.26 -0.9900003 0 -0.9 0.9899998 0 -1 0.9999998 -0.2282557 -1.235789 -0.9900003 -0.2536175 -1.373099 -1 -0.1755813 -0.8827068 0.9899998 -0.1950903 -0.9807853 0.9999998 -0.4477397 -1.164088 -0.9900003 -0.4974885 -1.293431 -1 -0.3444151 -0.8314916 0.9899998 -0.3826835 -0.9238795 0.9999998 -0.7222414 -1.164057 -1 -0.6500173 -1.047652 -0.9900003 -0.5555703 -0.8314696 0.9999998 -0.5000132 -0.7483227 0.9899998 -0.9192389 -0.9899495 -1 -0.827315 -0.8909546 -0.9900003 -0.7071068 -0.7071068 0.9999998 -0.6363961 -0.6363961 0.9899998 -1.080911 -0.7777983 -1 -0.9728196 -0.7000185 -0.9900003 -0.8314696 -0.5555703 0.9999998 -0.7483227 -0.5000132 0.9899998 -1.201043 -0.5357568 -1 -1.080939 -0.4821811 -0.9900003 -0.9238795 -0.3826835 0.9999998 -0.8314916 -0.3444151 0.9899998 -1.147519 -0.2458137 -0.9900003 -1.275021 -0.2731264 -1 -0.8827068 -0.1755813 0.9899998 -0.9807853 -0.1950903 0.9999998 -1.17 0 -0.9900003 -1.3 0 -1 -0.9 0 0.9899998 -1 0 0.9999998 -1.147519 0.2458138 -0.9900003 -1.275021 0.2731264 -1 -0.8827068 0.1755813 0.9899998 -0.9807853 0.1950903 0.9999998 -1.080939 0.4821811 -0.9900003 -1.201043 0.5357568 -1 -0.9238795 0.3826835 0.9999998 -0.8314916 0.3444151 0.9899998 -1.080911 0.7777984 -1 -0.9728196 0.7000185 -0.9900003 -0.8314696 0.5555703 0.9999998 -0.7483227 0.5000132 0.9899998 -0.9192389 0.9899495 -1 -0.827315 0.8909546 -0.9900003 -0.7071068 0.7071068 0.9999998 -0.6363961 0.6363961 0.9899998 -0.6500173 1.047652 -0.9900003 -0.7222414 1.164057 -1 -0.5555703 0.8314696 0.9999998 -0.5000132 0.7483227 0.9899998 -0.4974885 1.293431 -1 -0.4477397 1.164088 -0.9900003 -0.3444151 0.8314916 0.9899998 -0.3826835 0.9238795 0.9999998 -0.2536175 1.373099 -1 -0.2282557 1.23579 -0.9900003 -0.1755813 0.8827068 0.9899998 -0.1950903 0.9807853 0.9999998 0 0.9999998 1 0 0.9999998 5.285714 0.1950903 0.980785 1 0.1950903 0.980785 5.285714 0.3826835 0.9238793 1 0.3826835 0.9238793 5.285714 0.5555703 0.8314694 1 0.5555703 0.8314694 5.285714 0.7071068 0.7071065 1 0.7071068 0.7071065 5.285714 0.8314696 0.55557 1 0.8314696 0.55557 5.285714 0.9238795 0.3826832 1 0.9238795 0.3826832 5.285714 0.9807853 0.1950901 1 0.9807853 0.1950901 5.285714 1 -2.37279e-7 1 1 -2.37279e-7 5.285714 0.9807853 -0.1950905 1 0.9807853 -0.1950905 5.285714 0.9238795 -0.3826837 1 0.9238795 -0.3826837 5.285714 0.8314696 -0.5555705 1 0.8314696 -0.5555705 5.285714 0.7071068 -0.707107 1 0.7071068 -0.707107 5.285714 0.5555703 -0.8314698 1 0.5555703 -0.8314698 5.285714 0.3826835 -0.9238798 1 0.3826835 -0.9238798 5.285714 0.1950903 -0.9807855 1 0.1950903 -0.9807855 5.285714 0 -1 1 0 -1 5.285714 -0.1950903 -0.9807855 1 -0.1950903 -0.9807855 5.285714 -0.3826835 -0.9238798 1 -0.3826835 -0.9238798 5.285714 -0.5555703 -0.8314698 1 -0.5555703 -0.8314698 5.285714 -0.7071068 -0.707107 1 -0.7071068 -0.707107 5.285714 -0.8314696 -0.5555705 1 -0.8314696 -0.5555705 5.285714 -0.9238795 -0.3826837 1 -0.9238795 -0.3826837 5.285714 -0.9807853 -0.1950905 1 -0.9807853 -0.1950905 5.285714 -1 -2.37279e-7 1 -1 -2.37279e-7 5.285714 -0.9807853 0.1950901 1 -0.9807853 0.1950901 5.285714 -0.9238795 0.3826832 1 -0.9238795 0.3826832 5.285714 -0.8314696 0.55557 1 -0.8314696 0.55557 5.285714 -0.7071068 0.7071065 1 -0.7071068 0.7071065 5.285714 -0.5555703 0.8314694 1 -0.5555703 0.8314694 5.285714 -0.3826835 0.9238793 1 -0.3826835 0.9238793 5.285714 -0.1950903 0.980785 1 -0.1950903 0.980785 5.285714 0 0.9999995 5.285714 0.1950903 0.9807848 5.285714 0.3826835 0.923879 5.285714 0.5555703 0.8314691 5.285714 0.7071068 0.7071063 5.285714 0.8314696 0.5555698 5.285714 0.9238795 0.382683 5.285714 0.9807853 0.1950898 5.285714 1 -4.74558e-7 5.285714 0.9807853 -0.1950908 5.285714 0.9238795 -0.3826839 5.285714 0.8314696 -0.5555707 5.285714 0.7071068 -0.7071073 5.285714 0.5555703 -0.8314701 5.285714 0.3826835 -0.92388 5.285714 0.1950903 -0.9807857 5.285714 0 -1 5.285714 -0.1950903 -0.9807857 5.285714 -0.3826835 -0.92388 5.285714 -0.5555703 -0.8314701 5.285714 -0.7071068 -0.7071073 5.285714 -0.8314696 -0.5555707 5.285714 -0.9238795 -0.3826839 5.285714 -0.9807853 -0.1950908 5.285714 -1 -4.74558e-7 5.285714 -0.9807853 0.1950898 5.285714 -0.9238795 0.382683 5.285714 -0.8314696 0.5555698 5.285714 -0.7071068 0.7071063 5.285714 -0.5555703 0.8314691 5.285714 -0.3826835 0.923879 5.285714 -0.1950903 0.9807848 5.285714 0 -4.74558e-7 7.285714</float_array>
          <technique_common>
            <accessor source="#rocket-mesh-positions-array" count="225" stride="3">
              <param name="X" type="float"/>
              <param name="Y" type="float"/>
              <param name="Z" type="float"/>
            </accessor>
          </technique_common>
        </source>
        <source id="rocket-mesh-normals">
          <float_array id="rocket-mesh-normals-array" count="990">0.1034495 0.9753196 0.195064 0.3047588 0.9328944 0.1919121 0.4902214 0.8516294 0.1855007 0.6517837 0.7374723 0.1769539 0.7841123 0.5975398 0.1676726 0.8843336 0.4389221 0.159065 0.9513082 0.2679635 0.1523432 0.9848176 0.09006851 0.1483984 0.9848176 -0.09006857 0.1483985 0.9513081 -0.2679635 0.1523431 0.8843335 -0.4389221 0.159065 0.7841125 -0.5975397 0.1676726 0.6517835 -0.7374725 0.176954 0.4902211 -0.8516296 0.1855005 0.3047588 -0.9328944 0.191912 0.10345 -0.9753196 0.1950637 -0.10345 -0.9753197 0.1950637 -0.3047589 -0.9328944 0.191912 -0.4902211 -0.8516296 0.1855005 -0.6517834 -0.7374725 0.176954 -0.7841125 -0.5975397 0.1676726 -0.8843335 -0.4389221 0.159065 -0.9513081 -0.2679635 0.1523431 -0.9848175 -0.09006851 0.1483984 -0.9848175 0.09006851 0.1483984 -0.9513082 0.2679635 0.1523432 -0.8843336 0.4389221 0.159065 -0.7841123 0.5975399 0.1676726 -0.6517837 0.7374723 0.1769539 -0.4902214 0.8516294 0.1855007 0 0 1 -0.3047589 0.9328944 0.1919121 -0.1034495 0.9753196 0.1950639 -0.007556498 -0.07124507 -0.9974302 -0.0964657 -0.9794316 -0.1772231 -0.2858958 -0.9424721 -0.1732338 -0.4648029 -0.869585 -0.166674 -0.6263714 -0.7632364 -0.1585222 -0.7642633 -0.6272149 -0.1500106 -0.8729287 -0.4665903 -0.1424395 -0.9479203 -0.2875486 -0.1369777 -0.9861455 -0.09712845 -0.1344743 -0.9861455 0.09712845 -0.1344743 -0.9532299 0.2685047 -0.1387735 -0.8862815 0.4398891 -0.144923 -0.7860324 0.599003 -0.1528028 -0.6263714 0.7632364 -0.1585223 -0.4648029 0.869585 -0.1666739 -0.2858958 0.9424721 -0.1732338 -0.0964657 0.9794316 -0.177223 0.0964657 0.9794316 -0.177223 0.2858958 0.9424721 -0.1732338 0.464803 0.8695851 -0.1666739 0.6263714 0.7632364 -0.1585222 0.7642633 0.6272149 -0.1500106 0.8729287 0.4665903 -0.1424395 0.9479203 0.2875486 -0.1369777 0.9861455 0.09712845 -0.1344743 0.9861455 -0.09712845 -0.1344743 0.9479203 -0.2875486 -0.1369777 0.8729287 -0.4665903 -0.1424394 0.7860323 -0.5990031 -0.1528029 0.6263714 -0.7632364 -0.1585223 0.4648029 -0.869585 -0.166674 -1.47172e-7 0 -1 0.2858958 -0.9424721 -0.1732337 0.0964657 -0.9794317 -0.1772231 0.007557034 -0.07124435 -0.9974303 0.02237915 -0.06850463 -0.9973999 0.03633934 -0.06313055 -0.9973435 0.04890179 -0.05533033 -0.9972699 0.05958122 -0.04540479 -0.9971903 0.06797212 -0.03373634 -0.9971167 0.07374942 -0.02077353 -0.9970605 0.07669454 -0.007014155 -0.99703 0.07669413 0.007014155 -0.9970301 0.0737496 0.02077353 -0.9970604 0.06797164 0.03373628 -0.9971168 0.05958122 0.04540479 -0.9971903 0.04890215 0.05533021 -0.9972699 0.03633934 0.06313049 -0.9973435 0.02237927 0.06850445 -0.9973998 0.007556498 0.07124453 -0.9974303 -0.007556796 0.07124465 -0.9974303 -0.02237915 0.06850469 -0.9973999 -0.0363394 0.06313067 -0.9973435 -0.04890167 0.05533021 -0.9972699 -0.05958122 0.04540479 -0.9971903 -0.06797206 0.03373628 -0.9971168 -0.07374942 0.02077353 -0.9970604 -0.07669287 0.007014155 -0.9970301 -0.07669466 -0.007014155 -0.99703 -0.07374966 -0.02077353 -0.9970605 -0.0679717 -0.03373634 -0.9971168 -0.05958122 -0.04540479 -0.9971904 -0.04890042 -0.05533033 -0.9972699 -0.03633934 -0.06313055 -0.9973435 -0.02237927 -0.06850439 -0.9973999 0.09801727 0.9951847 0 0.2902846 0.9569404 0 0.4713967 0.8819213 0 0.6343936 0.7730102 0 0.7730106 0.6343932 0 0.8819211 0.4713971 0 0.9569404 0.2902846 0 0.9951847 0.09801715 0 0.9951847 -0.09801715 0 0.9569402 -0.2902851 0 0.8819216 -0.4713962 0 0.7730103 -0.6343935 0 0.6343931 -0.7730107 0 0.4713967 -0.8819213 0 0.2902847 -0.9569404 0 0.09801727 -0.9951847 0 -0.09801727 -0.9951847 0 -0.2902846 -0.9569404 0 -0.4713967 -0.8819213 0 -0.6343936 -0.7730102 0 -0.7730106 -0.6343932 0 -0.8819211 -0.4713971 0 -0.9569404 -0.2902846 0 -0.9951847 -0.09801715 0 -0.9951847 0.09801715 0 -0.9569402 0.2902851 0 -0.8819216 0.4713962 0 -0.7730103 0.6343935 0 -0.6343931 0.7730107 0 -0.4713967 0.8819213 0 0 0 1 -0.2902847 0.9569404 0 -0.09801727 0.9951847 0 0 0 -1 0.08775526 0.8909766 0.4454883 0.2598883 0.856737 0.4454883 0.4220346 0.7895738 0.4454885 0.567965 0.6920666 0.4454882 0.6920672 0.5679643 0.445488 0.7895735 0.4220356 0.4454883 0.8567371 0.2598882 0.4454882 0.8909767 0.08775365 0.4454884 0.8909767 -0.08775365 0.4454885 0.8567372 -0.2598882 0.4454882 0.7895731 -0.422036 0.4454887 0.6920666 -0.5679647 0.4454884 0.567965 -0.6920666 0.4454882 0.4220346 -0.7895738 0.4454886 0.2598883 -0.856737 0.4454883 0.08775526 -0.8909766 0.4454883 -0.08775526 -0.8909766 0.4454883 -0.2598883 -0.856737 0.4454884 -0.4220346 -0.7895738 0.4454886 -0.567965 -0.6920666 0.4454882 -0.6920672 -0.5679643 0.445488 -0.7895735 -0.4220356 0.4454883 -0.8567372 -0.2598882 0.4454882 -0.8909767 -0.08775365 0.4454884 -0.8909767 0.08775365 0.4454884 -0.8567371 0.2598882 0.4454882 -0.7895731 0.422036 0.4454886 -0.6920666 0.5679647 0.4454884 -0.567965 0.6920666 0.4454882 -0.4220346 0.7895738 0.4454886 4.76837e-7 0 -1 -0.2598883 0.856737 0.4454884 -0.08775526 0.8909766 0.4454883 0.09614914 0.9762176 0.1943055 0.2849991 0.9395164 0.1899597 0.4634531 0.8670596 0.1828088 0.6247256 0.76123 0.1739162 0.7624637 0.6257384 0.1646232 0.8710753 0.4655991 0.1563507 0.9460583 0.2869836 0.1503795 0.9842783 0.09694367 0.1476418 0.9842783 -0.09694367 0.1476418 0.9460583 -0.2869836 0.1503795 0.8710753 -0.4655991 0.1563507 0.7624637 -0.6257385 0.164623 0.6247256 -0.76123 0.1739162 0.4634531 -0.8670596 0.1828088 0.2849991 -0.9395164 0.1899596 0.09614914 -0.9762176 0.1943055 -0.09614914 -0.9762176 0.1943057 -0.2849991 -0.9395164 0.1899596 -0.4634531 -0.8670596 0.1828088 -0.6247256 -0.76123 0.1739162 -0.7624637 -0.6257384 0.164623 -0.8710753 -0.4655991 0.1563507 -0.9460583 -0.2869836 0.1503795 -0.9842783 -0.09694367 0.1476418 -0.9842783 0.09694367 0.1476418 -0.9460583 0.2869836 0.1503795 -0.8710753 0.4655991 0.1563507 -0.7624636 0.6257384 0.1646232 -0.6247256 0.76123 0.1739162 -0.4634531 0.8670596 0.1828088 -1.98756e-6 0 1 2.73706e-6 0 1 1.98756e-6 0 1 -2.73706e-6 0 1 1.02308e-6 0 1 -1.02308e-6 0 1 -2.87797e-7 0 1 -4.31695e-7 0 1 2.87797e-7 0 1 4.31695e-7 0 1 0 0 1 -0.2849991 0.9395164 0.1899597 -0.09614914 0.9762176 0.1943057 -0.007557034 -0.07124435 -0.9974303 -0.1037927 -0.978556 -0.1779192 -0.3057376 -0.9358901 -0.1750261 -0.4916915 -0.8541841 -0.1691426 -0.6535623 -0.739484 -0.1613062 -0.7860323 -0.5990031 -0.1528029 -0.8862816 -0.439889 -0.144923 -0.9532299 -0.2685048 -0.1387735 -0.9867051 -0.09024024 -0.1351662 -0.9867051 0.09024024 -0.1351662 -0.9479203 0.2875486 -0.1369777 -0.8729287 0.4665903 -0.1424395 -0.7642633 0.6272149 -0.1500106 -0.653562 0.7394843 -0.1613062 -0.4916915 0.8541841 -0.1691426 -0.3057372 0.9358904 -0.1750259 -0.1037932 0.978556 -0.177919 0.1037932 0.978556 -0.1779191 0.3057373 0.9358903 -0.1750258 0.4916915 0.8541841 -0.1691426 0.653562 0.7394843 -0.1613062 0.7860324 0.599003 -0.1528028 0.8862815 0.4398891 -0.144923 0.9532299 0.2685047 -0.1387735 0.9867051 0.09024024 -0.1351662 0.9867051 -0.09024024 -0.1351662 0.9532299 -0.2685048 -0.1387735 0.8862816 -0.439889 -0.144923 0.7642633 -0.6272149 -0.1500106 0.6535623 -0.739484 -0.1613062 0.4916915 -0.8541841 -0.1691426 1.68954e-6 0 -1 -3.31416e-6 0 -1 -4.90755e-6 0 -1 3.37909e-6 0 -1 -1.68954e-6 0 -1 3.31416e-6 0 -1 4.90755e-6 0 -1 -3.37909e-6 0 -1 -5.32957e-7 0 -1 5.32957e-7 0 -1 1.47172e-7 0 -1 0.3057377 -0.9358902 -0.1750259 0.1037927 -0.978556 -0.1779192 0.007556498 -0.07124495 -0.9974303 0.02237927 -0.06850439 -0.9973999 0.03633934 -0.06313055 -0.9973435 0.04890042 -0.05533033 -0.9972699 0.05958122 -0.04540479 -0.9971904 0.06797146 -0.03373628 -0.9971168 0.07374876 -0.02077353 -0.9970605 0.0766943 -0.007014155 -0.9970301 0.07669287 0.007014155 -0.9970301 0.07374882 0.02077353 -0.9970605 0.06797176 0.03373628 -0.9971168 0.05958122 0.04540479 -0.9971903 0.04890102 0.05533045 -0.99727 0.0363394 0.06313067 -0.9973435 0.02237915 0.06850463 -0.9973999 0.007557034 0.07124453 -0.9974303 -0.007557034 0.07124441 -0.9974303 -0.02237927 0.06850451 -0.9973998 -0.03633934 0.06313049 -0.9973435 -0.04890054 0.05533045 -0.99727 -0.05958122 0.04540479 -0.9971903 -0.06797152 0.03373628 -0.9971168 -0.0737487 0.02077353 -0.9970605 -0.07669413 0.007014155 -0.9970301 -0.07669419 -0.007014155 -0.9970301 -0.07374882 -0.02077353 -0.9970605 -0.0679717 -0.03373628 -0.9971168 -0.05958122 -0.04540479 -0.9971903 -0.04890179 -0.05533033 -0.9972699 -0.03633934 -0.06313055 -0.9973435 -0.02237915 -0.06850469 -0.9973999 0.2902847 0.9569404 0 0.6343931 0.7730107 0 0.7730103 0.6343935 0 0.8819217 0.4713962 0 0.9569403 0.2902851 0 0.9951847 0.09801715 0 0.9951847 -0.09801715 0 0.9569404 -0.2902846 0 0.8819211 -0.471397 0 0.7730106 -0.6343932 0 0.6343936 -0.7730102 0 0.2902846 -0.9569404 0 -0.2902847 -0.9569404 0 -0.6343931 -0.7730107 0 -0.7730103 -0.6343935 0 -0.8819217 -0.4713962 0 -0.9569403 -0.2902851 0 -0.9951847 -0.09801715 0 -0.9951847 0.09801715 0 -0.9569404 0.2902846 0 -0.8819211 0.471397 0 -0.7730106 0.6343932 0 -0.6343936 0.7730102 0 -1.98757e-6 0 1 1.59004e-5 0 1 -2.14757e-5 0 1 1.59004e-5 0 1 -1.59004e-5 0 1 -1.09482e-5 0 1 2.14757e-5 0 1 -1.59005e-5 0 1 3.11086e-6 0 1 -3.11086e-6 0 1 -0.2902846 0.9569404 0 -7.18515e-7 0 -1 1.02308e-6 0 -1 3.88858e-7 0 -1 -3.59257e-7 0 -1 7.18515e-7 0 -1 -1.02308e-6 0 -1 -3.88858e-7 0 -1 3.59257e-7 0 -1 -2.87406e-6 0 -1 8.18463e-6 0 -1 2.87406e-6 0 -1 -8.18463e-6 0 -1 -4.76837e-7 0 -1</float_array>
          <technique_common>
            <accessor source="#rocket-mesh-normals-array" count="330" stride="3">
              <param name="X" type="float"/>
              <param name="Y" type="float"/>
              <param name="Z" type="float"/>
            </accessor>
          </technique_common>
        </source>
        <source id="rocket-mesh-map-0">
          <float_array id="rocket-mesh-map-0-array" count="2628">0.6123892 0.6598688 0.6180242 0.6154314 0.6123892 0.6154314 0.6167239 0.6598688 0.6234428 0.6154314 0.6180242 0.6154314 0.6208919 0.6598688 0.6284365 0.6154314 0.6234428 0.6154314 0.6247333 0.6598688 0.6328135 0.6154314 0.6284365 0.6154314 0.6281002 0.6598688 0.6296709 0.6154314 0.6343846 0.6154314 0.6247333 0.6598688 0.6242931 0.6154314 0.6296709 0.6154314 0.6208919 0.6598688 0.6184577 0.6154314 0.6242931 0.6154314 0.6167239 0.6598688 0.6123892 0.6154314 0.6184577 0.6154314 0.6123892 0.6154314 0.6080545 0.6598688 0.6063207 0.6154314 0.6063207 0.6154314 0.6038865 0.6598688 0.6004853 0.6154314 0.6004853 0.6154314 0.6000452 0.6598688 0.5951076 0.6154314 0.5951076 0.6154314 0.5966782 0.6598688 0.5903938 0.6154314 0.6328135 0.6154314 0.6247333 0.6598688 0.6284365 0.6154314 0.6284365 0.6154314 0.6208919 0.6598688 0.6234428 0.6154314 0.6234428 0.6154314 0.6167239 0.6598688 0.6180242 0.6154314 0.6180242 0.6154314 0.6123892 0.6598688 0.6123892 0.6154314 0.6123892 0.6598688 0.6067542 0.6154314 0.6123892 0.6154314 0.6080545 0.6598688 0.6013357 0.6154314 0.6067542 0.6154314 0.6038865 0.6598688 0.5963419 0.6154314 0.6013357 0.6154314 0.6000452 0.6598688 0.5919649 0.6154314 0.5963419 0.6154314 0.5966782 0.6598688 0.5951076 0.6154314 0.5903938 0.6154314 0.6000452 0.6598688 0.6004853 0.6154314 0.5951076 0.6154314 0.6038865 0.6598688 0.6063207 0.6154314 0.6004853 0.6154314 0.6080545 0.6598688 0.6123892 0.6154314 0.6063207 0.6154314 0.6123892 0.6154314 0.6167239 0.6598688 0.6184577 0.6154314 0.6184577 0.6154314 0.6208919 0.6598688 0.6242931 0.6154314 0.6242931 0.6154314 0.6247333 0.6598688 0.6296709 0.6154314 0.6296709 0.6154314 0.6281002 0.6598688 0.6343846 0.6154314 0.5919649 0.6154314 0.6000452 0.6598688 0.5963419 0.6154314 0.5963419 0.6154314 0.6038865 0.6598688 0.6013357 0.6154314 0.4440426 0.4092467 0.09075343 0.4440427 0.05595743 0.09075343 0.6013357 0.6154314 0.6080545 0.6598688 0.6067542 0.6154314 0.6067542 0.6154314 0.6123892 0.6598688 0.6123892 0.6154314 0.8434912 0.6196303 0.8387178 0.6175016 0.8387178 0.6201366 0.6123892 0.6596467 0.6174607 0.6156536 0.6162905 0.6596467 0.6162905 0.6596467 0.6223375 0.6156536 0.6200417 0.6596467 0.6200417 0.6596467 0.6268318 0.6156536 0.6234989 0.6596467 0.6234989 0.6596467 0.6307711 0.6156536 0.6265292 0.6596467 0.6265292 0.6596467 0.6279428 0.6156536 0.6234989 0.6596467 0.6234989 0.6596467 0.6231027 0.6156536 0.6200417 0.6596467 0.6200417 0.6596467 0.6178509 0.6156536 0.6162905 0.6596467 0.6162905 0.6596467 0.6123892 0.6156536 0.6123892 0.6596467 0.6123892 0.6156536 0.608488 0.6596467 0.6123892 0.6596467 0.6047368 0.6596467 0.6069276 0.6156536 0.6016758 0.6156536 0.6012796 0.6596467 0.6016758 0.6156536 0.5968357 0.6156536 0.5982493 0.6596467 0.5968357 0.6156536 0.5925934 0.6156536 0.6307711 0.6156536 0.6234989 0.6596467 0.6265292 0.6596467 0.6268318 0.6156536 0.6200417 0.6596467 0.6234989 0.6596467 0.6223375 0.6156536 0.6162905 0.6596467 0.6200417 0.6596467 0.6174607 0.6156536 0.6123892 0.6596467 0.6162905 0.6596467 0.6123892 0.6596467 0.6073177 0.6156536 0.608488 0.6596467 0.608488 0.6596467 0.602441 0.6156536 0.6047368 0.6596467 0.6047368 0.6596467 0.5979467 0.6156536 0.6012796 0.6596467 0.6012796 0.6596467 0.5940073 0.6156536 0.5982493 0.6596467 0.5982493 0.6596467 0.5968357 0.6156536 0.6012796 0.6596467 0.6012796 0.6596467 0.6016758 0.6156536 0.6047368 0.6596467 0.6047368 0.6596467 0.6069276 0.6156536 0.608488 0.6596467 0.608488 0.6596467 0.6123892 0.6156536 0.6123892 0.6596467 0.6123892 0.6156536 0.6162905 0.6596467 0.6123892 0.6596467 0.6178509 0.6156536 0.6200417 0.6596467 0.6162905 0.6596467 0.6231027 0.6156536 0.6234989 0.6596467 0.6200417 0.6596467 0.6265292 0.6596467 0.6279428 0.6156536 0.6321851 0.6156536 0.5940073 0.6156536 0.6012796 0.6596467 0.5982493 0.6596467 0.5979467 0.6156536 0.6047368 0.6596467 0.6012796 0.6596467 0.4498506 0.7471626 0.2028747 0.9498506 1.86786e-4 0.7028748 0.602441 0.6156536 0.608488 0.6596467 0.6047368 0.6596467 0.6073177 0.6156536 0.6123892 0.6596467 0.608488 0.6596467 0.8339444 0.6196303 0.8387178 0.6175016 0.8344218 0.6170459 0.8344218 0.6170459 0.8293545 0.6181308 0.8339444 0.6196303 0.8302909 0.6156964 0.8251244 0.6156958 0.8293545 0.6181308 0.8264837 0.613505 0.8214167 0.612419 0.8251244 0.6156958 0.8231468 0.6105557 0.8183739 0.608426 0.8214167 0.612419 0.8204082 0.6069621 0.8161128 0.6038705 0.8183739 0.608426 0.8183733 0.6028621 0.8147205 0.5989274 0.8161128 0.6038705 0.8171202 0.5984134 0.8142503 0.5937869 0.8147205 0.5989274 0.8171202 0.5891604 0.8142503 0.5937869 0.8166971 0.5937869 0.8147205 0.5886464 0.8183733 0.5847117 0.8161128 0.5837033 0.8161128 0.5837033 0.8204082 0.5806117 0.8183739 0.5791478 0.8231468 0.5770181 0.8183739 0.5791478 0.8204082 0.5806117 0.8214167 0.5751549 0.8264837 0.5740689 0.8251244 0.571878 0.8302909 0.5718774 0.8251244 0.571878 0.8264837 0.5740689 0.8344218 0.5705279 0.8293545 0.569443 0.8302909 0.5718774 0.8339444 0.5679435 0.8387178 0.5700722 0.8387178 0.5674372 0.8387178 0.5700722 0.8434912 0.5679435 0.8387178 0.5674372 0.8430139 0.5705279 0.8480812 0.569443 0.8434912 0.5679435 0.8471449 0.5718774 0.8523113 0.571878 0.8480812 0.569443 0.850952 0.5740689 0.856019 0.5751549 0.8523113 0.571878 0.8542889 0.5770181 0.8590618 0.5791478 0.856019 0.5751549 0.8570274 0.5806117 0.8613228 0.5837033 0.8590618 0.5791478 0.8590624 0.5847117 0.8627153 0.5886464 0.8613228 0.5837033 0.8603155 0.5891604 0.8631854 0.5937869 0.8627153 0.5886464 0.8631854 0.5937869 0.8603155 0.5984134 0.8627153 0.5989274 0.8627153 0.5989274 0.8590624 0.6028621 0.8613228 0.6038705 0.8613228 0.6038705 0.8570274 0.6069621 0.8590618 0.608426 0.8542889 0.6105557 0.8590618 0.608426 0.8570274 0.6069621 0.850952 0.613505 0.856019 0.612419 0.8542889 0.6105557 0.8523113 0.6156958 0.8471449 0.6156964 0.8480812 0.6181308 0.8430139 0.6170459 0.8480812 0.6181308 0.8471449 0.6156964 0.1262539 0.7821777 0.1780307 0.7825166 0.1780307 0.7821777 0.1262539 0.7825166 0.1780307 0.7828424 0.1780307 0.7825166 0.1262539 0.7828424 0.1780307 0.7831427 0.1780307 0.7828424 0.1262539 0.7831427 0.1780307 0.783406 0.1780307 0.7831427 0.1262539 0.7784496 0.1780307 0.7781863 0.1780307 0.7784496 0.1262539 0.7781863 0.1780307 0.777886 0.1780307 0.7781863 0.1262539 0.777886 0.1780307 0.7775601 0.1780307 0.777886 0.1262539 0.7775601 0.1780307 0.7772212 0.1780307 0.7775601 0.1262539 0.7772212 0.1780307 0.7768822 0.1780307 0.7772212 0.1262539 0.7768822 0.1780307 0.7765563 0.1780307 0.7768822 0.1262539 0.7765563 0.1780307 0.776256 0.1780307 0.7765563 0.1262539 0.776256 0.1780307 0.7759928 0.1780307 0.776256 0.1262539 0.7809278 0.1780307 0.7806645 0.1780307 0.7809278 0.1262539 0.7806645 0.1780307 0.7803642 0.1780307 0.7806645 0.1262539 0.7803642 0.1780307 0.7800383 0.1780307 0.7803642 0.1262539 0.7800383 0.1780307 0.7796993 0.1780307 0.7800383 0.1262539 0.7796993 0.1780307 0.7793605 0.1780307 0.7796993 0.1262539 0.7793605 0.1780307 0.7790346 0.1780307 0.7793605 0.1262539 0.7790346 0.1780307 0.7787342 0.1780307 0.7790346 0.1262539 0.7787342 0.1780307 0.7784711 0.1780307 0.7787342 0.1262539 0.7735146 0.1780307 0.7737777 0.1780307 0.7735146 0.1262539 0.7737777 0.1780307 0.7740781 0.1780307 0.7737777 0.1262539 0.7740781 0.1780307 0.774404 0.1780307 0.7740781 0.1262539 0.774404 0.1780307 0.774743 0.1780307 0.774404 0.1262539 0.774743 0.1780307 0.7750819 0.1780307 0.774743 0.1262539 0.7750819 0.1780307 0.7754078 0.1780307 0.7750819 0.1262539 0.7754078 0.1780307 0.775708 0.1780307 0.7754078 0.1262539 0.775708 0.1780307 0.7759713 0.1780307 0.775708 0.1262539 0.7809492 0.1780307 0.7812125 0.1780307 0.7809492 0.1262539 0.7812125 0.1780307 0.7815129 0.1780307 0.7812125 0.3086583 0.03806042 0.9619397 0.3086584 0.6913417 0.9619398 0.1262539 0.7815129 0.1780307 0.7818387 0.1780307 0.7815129 0.1262539 0.7818387 0.1780307 0.7821777 0.1780307 0.7818387 0.9684152 0.6862724 0.9717376 0.6525396 0.9380048 0.6492172 0.4565945 0.8893983 0.4565945 0.9466613 0.4621803 0.8893983 0.4621803 0.8893983 0.4565945 0.9466613 0.4675513 0.8893983 0.4675513 0.8893983 0.4565945 0.9466613 0.4725013 0.8893983 0.4725013 0.8893983 0.4565945 0.9466613 0.47684 0.8893983 0.47684 0.8893983 0.4565945 0.9466613 0.4725013 0.8893983 0.4725013 0.8893983 0.4565945 0.9466613 0.4675513 0.8893983 0.4675513 0.8893983 0.4565945 0.9466613 0.4621803 0.8893983 0.4621803 0.8893983 0.4565945 0.9466613 0.4565945 0.8893983 0.4565945 0.8893983 0.4565945 0.9466613 0.4510088 0.8893983 0.4510088 0.8893983 0.4565945 0.9466613 0.4456377 0.8893983 0.4456377 0.8893983 0.4565945 0.9466613 0.4406877 0.8893983 0.4406877 0.8893983 0.4565945 0.9466613 0.436349 0.8893983 0.47684 0.8893983 0.4565945 0.9466613 0.4725013 0.8893983 0.4725013 0.8893983 0.4565945 0.9466613 0.4675513 0.8893983 0.4675513 0.8893983 0.4565945 0.9466613 0.4621803 0.8893983 0.4621803 0.8893983 0.4565945 0.9466613 0.4565945 0.8893983 0.4565945 0.8893983 0.4565945 0.9466613 0.4510088 0.8893983 0.4510088 0.8893983 0.4565945 0.9466613 0.4456377 0.8893983 0.4456377 0.8893983 0.4565945 0.9466613 0.4406877 0.8893983 0.4406877 0.8893983 0.4565945 0.9466613 0.436349 0.8893983 0.436349 0.8893983 0.4565945 0.9466613 0.4406877 0.8893983 0.4406877 0.8893983 0.4565945 0.9466613 0.4456377 0.8893983 0.4456377 0.8893983 0.4565945 0.9466613 0.4510088 0.8893983 0.4510088 0.8893983 0.4565945 0.9466613 0.4565945 0.8893983 0.4565945 0.8893983 0.4565945 0.9466613 0.4621803 0.8893983 0.4621803 0.8893983 0.4565945 0.9466613 0.4675513 0.8893983 0.4675513 0.8893983 0.4565945 0.9466613 0.4725013 0.8893983 0.4725013 0.8893983 0.4565945 0.9466613 0.47684 0.8893983 0.436349 0.8893983 0.4565945 0.9466613 0.4406877 0.8893983 0.4406877 0.8893983 0.4565945 0.9466613 0.4456377 0.8893983 0.5975452 0.009607434 0.009607434 0.4024549 0.4024549 0.9903926 0.4456377 0.8893983 0.4565945 0.9466613 0.4510088 0.8893983 0.4510088 0.8893983 0.4565945 0.9466613 0.4565945 0.8893983 0.6123892 0.6598688 0.6167239 0.6598688 0.6180242 0.6154314 0.6167239 0.6598688 0.6208919 0.6598688 0.6234428 0.6154314 0.6208919 0.6598688 0.6247333 0.6598688 0.6284365 0.6154314 0.6247333 0.6598688 0.6281002 0.6598688 0.6328135 0.6154314 0.6281002 0.6598688 0.6247333 0.6598688 0.6296709 0.6154314 0.6247333 0.6598688 0.6208919 0.6598688 0.6242931 0.6154314 0.6208919 0.6598688 0.6167239 0.6598688 0.6184577 0.6154314 0.6167239 0.6598688 0.6123892 0.6598688 0.6123892 0.6154314 0.6123892 0.6154314 0.6123892 0.6598688 0.6080545 0.6598688 0.6063207 0.6154314 0.6080545 0.6598688 0.6038865 0.6598688 0.6004853 0.6154314 0.6038865 0.6598688 0.6000452 0.6598688 0.5951076 0.6154314 0.6000452 0.6598688 0.5966782 0.6598688 0.6328135 0.6154314 0.6281002 0.6598688 0.6247333 0.6598688 0.6284365 0.6154314 0.6247333 0.6598688 0.6208919 0.6598688 0.6234428 0.6154314 0.6208919 0.6598688 0.6167239 0.6598688 0.6180242 0.6154314 0.6167239 0.6598688 0.6123892 0.6598688 0.6123892 0.6598688 0.6080545 0.6598688 0.6067542 0.6154314 0.6080545 0.6598688 0.6038865 0.6598688 0.6013357 0.6154314 0.6038865 0.6598688 0.6000452 0.6598688 0.5963419 0.6154314 0.6000452 0.6598688 0.5966782 0.6598688 0.5919649 0.6154314 0.5966782 0.6598688 0.6000452 0.6598688 0.5951076 0.6154314 0.6000452 0.6598688 0.6038865 0.6598688 0.6004853 0.6154314 0.6038865 0.6598688 0.6080545 0.6598688 0.6063207 0.6154314 0.6080545 0.6598688 0.6123892 0.6598688 0.6123892 0.6154314 0.6123892 0.6154314 0.6123892 0.6598688 0.6167239 0.6598688 0.6184577 0.6154314 0.6167239 0.6598688 0.6208919 0.6598688 0.6242931 0.6154314 0.6208919 0.6598688 0.6247333 0.6598688 0.6296709 0.6154314 0.6247333 0.6598688 0.6281002 0.6598688 0.5919649 0.6154314 0.5966782 0.6598688 0.6000452 0.6598688 0.5963419 0.6154314 0.6000452 0.6598688 0.6038865 0.6598688 0.05595743 0.09075343 0.09075331 0.05595743 0.131669 0.02861845 0.131669 0.02861845 0.1771322 0.009787082 0.05595743 0.09075343 0.1771322 0.009787082 0.2253955 1.86801e-4 0.05595743 0.09075343 0.2253955 1.86801e-4 0.2746044 1.86801e-4 0.3228679 0.009786963 0.3228679 0.009786963 0.368331 0.02861845 0.4092467 0.05595743 0.4092467 0.05595743 0.4440426 0.09075343 0.4713817 0.131669 0.4713817 0.131669 0.490213 0.1771321 0.4092467 0.05595743 0.490213 0.1771321 0.4998132 0.2253955 0.4092467 0.05595743 0.4998132 0.2253955 0.4998132 0.2746044 0.490213 0.3228679 0.490213 0.3228679 0.4713817 0.368331 0.4440426 0.4092467 0.4440426 0.4092467 0.4092467 0.4440427 0.3683311 0.4713817 0.3683311 0.4713817 0.3228679 0.4902131 0.4440426 0.4092467 0.3228679 0.4902131 0.2746044 0.4998133 0.4440426 0.4092467 0.2746044 0.4998133 0.2253955 0.4998133 0.1771322 0.4902132 0.1771322 0.4902132 0.1316691 0.4713817 0.09075343 0.4440427 0.09075343 0.4440427 0.05595743 0.4092467 0.02861845 0.368331 0.02861845 0.368331 0.009786963 0.3228679 0.09075343 0.4440427 0.009786963 0.3228679 1.86801e-4 0.2746046 0.09075343 0.4440427 1.86801e-4 0.2746046 1.86801e-4 0.2253956 0.009786963 0.1771322 0.009786963 0.1771322 0.02861845 0.1316691 0.05595743 0.09075343 0.2253955 1.86801e-4 0.3228679 0.009786963 0.4092467 0.05595743 0.4998132 0.2253955 0.490213 0.3228679 0.4440426 0.4092467 0.2746044 0.4998133 0.1771322 0.4902132 0.09075343 0.4440427 1.86801e-4 0.2746046 0.009786963 0.1771322 0.05595743 0.09075343 0.05595743 0.09075343 0.2253955 1.86801e-4 0.4092467 0.05595743 0.4092467 0.05595743 0.4998132 0.2253955 0.4440426 0.4092467 0.4440426 0.4092467 0.2746044 0.4998133 0.09075343 0.4440427 0.09075343 0.4440427 1.86801e-4 0.2746046 0.05595743 0.09075343 0.05595743 0.09075343 0.4092467 0.05595743 0.4440426 0.4092467 0.6013357 0.6154314 0.6038865 0.6598688 0.6080545 0.6598688 0.6067542 0.6154314 0.6080545 0.6598688 0.6123892 0.6598688 0.8434912 0.6196303 0.8430139 0.6170459 0.8387178 0.6175016 0.6123892 0.6596467 0.6123892 0.6156536 0.6174607 0.6156536 0.6162905 0.6596467 0.6174607 0.6156536 0.6223375 0.6156536 0.6200417 0.6596467 0.6223375 0.6156536 0.6268318 0.6156536 0.6234989 0.6596467 0.6268318 0.6156536 0.6307711 0.6156536 0.6265292 0.6596467 0.6321851 0.6156536 0.6279428 0.6156536 0.6234989 0.6596467 0.6279428 0.6156536 0.6231027 0.6156536 0.6200417 0.6596467 0.6231027 0.6156536 0.6178509 0.6156536 0.6162905 0.6596467 0.6178509 0.6156536 0.6123892 0.6156536 0.6123892 0.6156536 0.6069276 0.6156536 0.608488 0.6596467 0.6047368 0.6596467 0.608488 0.6596467 0.6069276 0.6156536 0.6012796 0.6596467 0.6047368 0.6596467 0.6016758 0.6156536 0.5982493 0.6596467 0.6012796 0.6596467 0.5968357 0.6156536 0.6307711 0.6156536 0.6268318 0.6156536 0.6234989 0.6596467 0.6268318 0.6156536 0.6223375 0.6156536 0.6200417 0.6596467 0.6223375 0.6156536 0.6174607 0.6156536 0.6162905 0.6596467 0.6174607 0.6156536 0.6123892 0.6156536 0.6123892 0.6596467 0.6123892 0.6596467 0.6123892 0.6156536 0.6073177 0.6156536 0.608488 0.6596467 0.6073177 0.6156536 0.602441 0.6156536 0.6047368 0.6596467 0.602441 0.6156536 0.5979467 0.6156536 0.6012796 0.6596467 0.5979467 0.6156536 0.5940073 0.6156536 0.5982493 0.6596467 0.5925934 0.6156536 0.5968357 0.6156536 0.6012796 0.6596467 0.5968357 0.6156536 0.6016758 0.6156536 0.6047368 0.6596467 0.6016758 0.6156536 0.6069276 0.6156536 0.608488 0.6596467 0.6069276 0.6156536 0.6123892 0.6156536 0.6123892 0.6156536 0.6178509 0.6156536 0.6162905 0.6596467 0.6178509 0.6156536 0.6231027 0.6156536 0.6200417 0.6596467 0.6231027 0.6156536 0.6279428 0.6156536 0.6234989 0.6596467 0.6265292 0.6596467 0.6234989 0.6596467 0.6279428 0.6156536 0.5940073 0.6156536 0.5979467 0.6156536 0.6012796 0.6596467 0.5979467 0.6156536 0.602441 0.6156536 0.6047368 0.6596467 1.86786e-4 0.7028748 0.008826911 0.6594377 0.02577519 0.6185209 0.02577519 0.6185209 0.05038028 0.5816968 1.86786e-4 0.7028748 0.05038028 0.5816968 0.08169662 0.5503804 1.86786e-4 0.7028748 0.08169662 0.5503804 0.1185207 0.5257753 0.2471626 0.5001868 0.1185207 0.5257753 0.1594375 0.508827 0.2471626 0.5001868 0.1594375 0.508827 0.2028746 0.5001868 0.2471626 0.5001868 0.2471626 0.5001868 0.2905997 0.5088269 0.3315165 0.5257752 0.3315165 0.5257752 0.3683407 0.5503803 0.2471626 0.5001868 0.3683407 0.5503803 0.399657 0.5816966 0.2471626 0.5001868 0.399657 0.5816966 0.4242621 0.6185207 0.4498506 0.7471626 0.4242621 0.6185207 0.4412104 0.6594375 0.4498506 0.7471626 0.4412104 0.6594375 0.4498506 0.7028746 0.4498506 0.7471626 0.4498506 0.7471626 0.4412105 0.7905997 0.4242622 0.8315165 0.4242622 0.8315165 0.3996571 0.8683407 0.4498506 0.7471626 0.3996571 0.8683407 0.3683407 0.899657 0.4498506 0.7471626 0.3683407 0.899657 0.3315166 0.9242621 0.2028747 0.9498506 0.3315166 0.9242621 0.2905998 0.9412104 0.2028747 0.9498506 0.2905998 0.9412104 0.2471628 0.9498506 0.2028747 0.9498506 0.2028747 0.9498506 0.1594377 0.9412105 0.1185209 0.9242622 0.1185209 0.9242622 0.08169668 0.8996571 0.2028747 0.9498506 0.08169668 0.8996571 0.05038034 0.8683407 0.2028747 0.9498506 0.05038034 0.8683407 0.02577525 0.8315166 1.86786e-4 0.7028748 0.02577525 0.8315166 0.008826971 0.7905999 1.86786e-4 0.7028748 0.008826971 0.7905999 1.86794e-4 0.7471628 1.86786e-4 0.7028748 1.86786e-4 0.7028748 0.08169662 0.5503804 0.2471626 0.5001868 0.2471626 0.5001868 0.399657 0.5816966 0.4498506 0.7471626 0.4498506 0.7471626 0.3683407 0.899657 0.2028747 0.9498506 0.2028747 0.9498506 0.05038034 0.8683407 1.86786e-4 0.7028748 1.86786e-4 0.7028748 0.2471626 0.5001868 0.4498506 0.7471626 0.602441 0.6156536 0.6073177 0.6156536 0.608488 0.6596467 0.6073177 0.6156536 0.6123892 0.6156536 0.6123892 0.6596467 0.8339444 0.6196303 0.8387178 0.6201366 0.8387178 0.6175016 0.8344218 0.6170459 0.8302909 0.6156964 0.8293545 0.6181308 0.8302909 0.6156964 0.8264837 0.613505 0.8251244 0.6156958 0.8264837 0.613505 0.8231468 0.6105557 0.8214167 0.612419 0.8231468 0.6105557 0.8204082 0.6069621 0.8183739 0.608426 0.8204082 0.6069621 0.8183733 0.6028621 0.8161128 0.6038705 0.8183733 0.6028621 0.8171202 0.5984134 0.8147205 0.5989274 0.8171202 0.5984134 0.8166971 0.5937869 0.8142503 0.5937869 0.8171202 0.5891604 0.8147205 0.5886464 0.8142503 0.5937869 0.8147205 0.5886464 0.8171202 0.5891604 0.8183733 0.5847117 0.8161128 0.5837033 0.8183733 0.5847117 0.8204082 0.5806117 0.8231468 0.5770181 0.8214167 0.5751549 0.8183739 0.5791478 0.8214167 0.5751549 0.8231468 0.5770181 0.8264837 0.5740689 0.8302909 0.5718774 0.8293545 0.569443 0.8251244 0.571878 0.8344218 0.5705279 0.8339444 0.5679435 0.8293545 0.569443 0.8339444 0.5679435 0.8344218 0.5705279 0.8387178 0.5700722 0.8387178 0.5700722 0.8430139 0.5705279 0.8434912 0.5679435 0.8430139 0.5705279 0.8471449 0.5718774 0.8480812 0.569443 0.8471449 0.5718774 0.850952 0.5740689 0.8523113 0.571878 0.850952 0.5740689 0.8542889 0.5770181 0.856019 0.5751549 0.8542889 0.5770181 0.8570274 0.5806117 0.8590618 0.5791478 0.8570274 0.5806117 0.8590624 0.5847117 0.8613228 0.5837033 0.8590624 0.5847117 0.8603155 0.5891604 0.8627153 0.5886464 0.8603155 0.5891604 0.8607386 0.5937869 0.8631854 0.5937869 0.8631854 0.5937869 0.8607386 0.5937869 0.8603155 0.5984134 0.8627153 0.5989274 0.8603155 0.5984134 0.8590624 0.6028621 0.8613228 0.6038705 0.8590624 0.6028621 0.8570274 0.6069621 0.8542889 0.6105557 0.856019 0.612419 0.8590618 0.608426 0.850952 0.613505 0.8523113 0.6156958 0.856019 0.612419 0.8523113 0.6156958 0.850952 0.613505 0.8471449 0.6156964 0.8430139 0.6170459 0.8434912 0.6196303 0.8480812 0.6181308 0.1262539 0.7821777 0.1262539 0.7825166 0.1780307 0.7825166 0.1262539 0.7825166 0.1262539 0.7828424 0.1780307 0.7828424 0.1262539 0.7828424 0.1262539 0.7831427 0.1780307 0.7831427 0.1262539 0.7831427 0.1262539 0.783406 0.1780307 0.783406 0.1262539 0.7784496 0.1262539 0.7781863 0.1780307 0.7781863 0.1262539 0.7781863 0.1262539 0.777886 0.1780307 0.777886 0.1262539 0.777886 0.1262539 0.7775601 0.1780307 0.7775601 0.1262539 0.7775601 0.1262539 0.7772212 0.1780307 0.7772212 0.1262539 0.7772212 0.1262539 0.7768822 0.1780307 0.7768822 0.1262539 0.7768822 0.1262539 0.7765563 0.1780307 0.7765563 0.1262539 0.7765563 0.1262539 0.776256 0.1780307 0.776256 0.1262539 0.776256 0.1262539 0.7759928 0.1780307 0.7759928 0.1262539 0.7809278 0.1262539 0.7806645 0.1780307 0.7806645 0.1262539 0.7806645 0.1262539 0.7803642 0.1780307 0.7803642 0.1262539 0.7803642 0.1262539 0.7800383 0.1780307 0.7800383 0.1262539 0.7800383 0.1262539 0.7796993 0.1780307 0.7796993 0.1262539 0.7796993 0.1262539 0.7793605 0.1780307 0.7793605 0.1262539 0.7793605 0.1262539 0.7790346 0.1780307 0.7790346 0.1262539 0.7790346 0.1262539 0.7787342 0.1780307 0.7787342 0.1262539 0.7787342 0.1262539 0.7784711 0.1780307 0.7784711 0.1262539 0.7735146 0.1262539 0.7737777 0.1780307 0.7737777 0.1262539 0.7737777 0.1262539 0.7740781 0.1780307 0.7740781 0.1262539 0.7740781 0.1262539 0.774404 0.1780307 0.774404 0.1262539 0.774404 0.1262539 0.774743 0.1780307 0.774743 0.1262539 0.774743 0.1262539 0.7750819 0.1780307 0.7750819 0.1262539 0.7750819 0.1262539 0.7754078 0.1780307 0.7754078 0.1262539 0.7754078 0.1262539 0.775708 0.1780307 0.775708 0.1262539 0.775708 0.1262539 0.7759713 0.1780307 0.7759713 0.1262539 0.7809492 0.1262539 0.7812125 0.1780307 0.7812125 0.1262539 0.7812125 0.1262539 0.7815129 0.1780307 0.7815129 0.6913417 0.9619398 0.5975452 0.9903927 0.5 1 0.5 1 0.4024549 0.9903927 0.6913417 0.9619398 0.4024549 0.9903927 0.3086583 0.9619398 0.6913417 0.9619398 0.3086583 0.9619398 0.2222149 0.9157349 0.1464466 0.8535535 0.1464466 0.8535535 0.08426523 0.7777852 0.0380603 0.6913418 0.0380603 0.6913418 0.009607434 0.5975453 0 0.5000001 0 0.5000001 0.009607434 0.402455 0.0380603 0.6913418 0.009607434 0.402455 0.0380603 0.3086584 0.0380603 0.6913418 0.0380603 0.3086584 0.08426523 0.222215 0.1464466 0.1464467 0.1464466 0.1464467 0.2222149 0.08426535 0.3086583 0.03806042 0.3086583 0.03806042 0.4024549 0.009607553 0.6913417 0.03806042 0.4024549 0.009607553 0.5 1.78814e-7 0.6913417 0.03806042 0.5 1.78814e-7 0.5975452 0.009607553 0.6913417 0.03806042 0.6913417 0.03806042 0.7777851 0.08426535 0.8535534 0.1464467 0.8535534 0.1464467 0.9157348 0.222215 0.9619397 0.3086584 0.9619397 0.3086584 0.9903926 0.402455 0.9619397 0.6913418 0.9903926 0.402455 1 0.5000001 0.9619397 0.6913418 1 0.5000001 0.9903926 0.5975453 0.9619397 0.6913418 0.9619397 0.6913418 0.9157348 0.7777852 0.8535534 0.8535535 0.8535534 0.8535535 0.7777851 0.9157349 0.6913417 0.9619398 0.3086583 0.9619398 0.1464466 0.8535535 0.6913417 0.9619398 0.1464466 0.8535535 0.0380603 0.6913418 0.6913417 0.9619398 0.0380603 0.3086584 0.1464466 0.1464467 0.0380603 0.6913418 0.1464466 0.1464467 0.3086583 0.03806042 0.0380603 0.6913418 0.6913417 0.03806042 0.8535534 0.1464467 0.3086583 0.03806042 0.8535534 0.1464467 0.9619397 0.3086584 0.3086583 0.03806042 0.9619397 0.6913418 0.8535534 0.8535535 0.9619397 0.3086584 0.8535534 0.8535535 0.6913417 0.9619398 0.9619397 0.3086584 0.6913417 0.9619398 0.0380603 0.6913418 0.3086583 0.03806042 0.1262539 0.7815129 0.1262539 0.7818387 0.1780307 0.7818387 0.1262539 0.7818387 0.1262539 0.7821777 0.1780307 0.7821777 0.9380048 0.6492172 0.9346824 0.6525396 0.932072 0.6564463 0.932072 0.6564463 0.930274 0.6607872 0.9293573 0.6653955 0.9293573 0.6653955 0.9293573 0.6700941 0.930274 0.6747024 0.930274 0.6747024 0.932072 0.6790432 0.9346824 0.68295 0.9346824 0.68295 0.9380048 0.6862724 0.9419115 0.6888828 0.9419115 0.6888828 0.9462524 0.6906808 0.9508607 0.6915975 0.9508607 0.6915975 0.9555593 0.6915975 0.9601675 0.6906808 0.9601675 0.6906808 0.9645085 0.6888828 0.9684152 0.6862724 0.9684152 0.6862724 0.9717376 0.68295 0.974348 0.6790432 0.974348 0.6790432 0.9761461 0.6747024 0.9770627 0.670094 0.9770627 0.670094 0.9770627 0.6653955 0.9761461 0.6607872 0.9761461 0.6607872 0.974348 0.6564463 0.9717376 0.6525396 0.9717376 0.6525396 0.9684152 0.6492172 0.9645084 0.6466068 0.9645084 0.6466068 0.9601675 0.6448087 0.9555593 0.6438921 0.9555593 0.6438921 0.9508607 0.6438921 0.9462524 0.6448087 0.9462524 0.6448087 0.9419115 0.6466068 0.9380048 0.6492172 0.9380048 0.6492172 0.932072 0.6564463 0.9346824 0.68295 0.932072 0.6564463 0.9293573 0.6653955 0.9346824 0.68295 0.9293573 0.6653955 0.930274 0.6747024 0.9346824 0.68295 0.9346824 0.68295 0.9419115 0.6888828 0.9684152 0.6862724 0.9419115 0.6888828 0.9508607 0.6915975 0.9684152 0.6862724 0.9508607 0.6915975 0.9601675 0.6906808 0.9684152 0.6862724 0.9684152 0.6862724 0.974348 0.6790432 0.9717376 0.6525396 0.974348 0.6790432 0.9770627 0.670094 0.9717376 0.6525396 0.9770627 0.670094 0.9761461 0.6607872 0.9717376 0.6525396 0.9717376 0.6525396 0.9645084 0.6466068 0.9380048 0.6492172 0.9645084 0.6466068 0.9555593 0.6438921 0.9380048 0.6492172 0.9555593 0.6438921 0.9462524 0.6448087 0.9380048 0.6492172 0.9380048 0.6492172 0.9346824 0.68295 0.9684152 0.6862724 0.4024549 0.9903926 0.5 1 0.5975452 0.9903926 0.5975452 0.9903926 0.6913417 0.9619397 0.7777851 0.9157348 0.7777851 0.9157348 0.8535534 0.8535534 0.9157348 0.7777851 0.9157348 0.7777851 0.9619397 0.6913417 0.9903926 0.5975452 0.9903926 0.5975452 1 0.5 0.9903926 0.4024549 0.9903926 0.4024549 0.9619397 0.3086583 0.9157348 0.2222149 0.9157348 0.2222149 0.8535534 0.1464466 0.7777851 0.08426523 0.7777851 0.08426523 0.6913417 0.0380603 0.5975452 0.009607434 0.5975452 0.009607434 0.5 0 0.4024549 0.009607434 0.4024549 0.009607434 0.3086583 0.0380603 0.2222149 0.08426523 0.2222149 0.08426523 0.1464466 0.1464466 0.08426523 0.2222149 0.08426523 0.2222149 0.0380603 0.3086583 0.009607434 0.4024549 0.009607434 0.4024549 0 0.5 0.009607434 0.5975452 0.009607434 0.5975452 0.0380603 0.6913417 0.08426523 0.7777851 0.08426523 0.7777851 0.1464466 0.8535534 0.2222149 0.9157348 0.2222149 0.9157348 0.3086583 0.9619397 0.4024549 0.9903926 0.4024549 0.9903926 0.5975452 0.9903926 0.9903926 0.5975452 0.5975452 0.9903926 0.7777851 0.9157348 0.9903926 0.5975452 0.7777851 0.9157348 0.9157348 0.7777851 0.9903926 0.5975452 0.9903926 0.5975452 0.9903926 0.4024549 0.5975452 0.009607434 0.9903926 0.4024549 0.9157348 0.2222149 0.5975452 0.009607434 0.9157348 0.2222149 0.7777851 0.08426523 0.5975452 0.009607434 0.5975452 0.009607434 0.4024549 0.009607434 0.009607434 0.4024549 0.4024549 0.009607434 0.2222149 0.08426523 0.009607434 0.4024549 0.2222149 0.08426523 0.08426523 0.2222149 0.009607434 0.4024549 0.009607434 0.4024549 0.009607434 0.5975452 0.4024549 0.9903926 0.009607434 0.5975452 0.08426523 0.7777851 0.4024549 0.9903926 0.08426523 0.7777851 0.2222149 0.9157348 0.4024549 0.9903926 0.4024549 0.9903926 0.9903926 0.5975452 0.5975452 0.009607434</float_array>
          <technique_common>
            <accessor source="#rocket-mesh-map-0-array" count="1314" stride="2">
              <param name="S" type="float"/>
              <param name="T" type="float"/>
            </accessor>
          </technique_common>
        </source>
        <vertices id="rocket-mesh-vertices">
          <input semantic="POSITION" source="#rocket-mesh-positions"/>
        </vertices>
        <triangles material="Material_001-material" count="438">
          <input semantic="VERTEX" source="#rocket-mesh-vertices" offset="0"/>
          <input semantic="NORMAL" source="#rocket-mesh-normals" offset="1"/>
          <input semantic="TEXCOORD" source="#rocket-mesh-map-0" offset="2" set="0"/>
          <p>2 0 0 5 0 1 0 0 2 7 1 3 8 1 4 5 1 5 11 2 6 13 2 7 8 2 8 15 3 9 17 3 10 13 3 11 19 4 12 20 4 13 17 4 14 22 5 15 24 5 16 20 5 17 26 6 18 28 6 19 24 6 20 30 7 21 32 7 22 28 7 23 32 8 24 39 8 25 37 8 26 37 9 27 43 9 28 40 9 29 40 10 30 47 10 31 45 10 32 45 11 33 50 11 34 48 11 35 48 12 36 55 12 37 53 12 38 53 13 39 58 13 40 57 13 41 57 14 42 62 14 43 60 14 44 60 15 45 67 15 46 64 15 47 67 16 48 69 16 49 64 16 50 71 17 51 73 17 52 69 17 53 75 18 54 76 18 55 73 18 56 78 19 57 80 19 58 76 19 59 82 20 60 84 20 61 80 20 62 86 21 63 88 21 64 84 21 65 90 22 66 93 22 67 88 22 68 95 23 69 97 23 70 93 23 71 97 24 72 103 24 73 101 24 74 101 25 75 106 25 76 105 25 77 105 26 78 110 26 79 108 26 80 108 27 81 114 27 82 112 27 83 112 28 84 118 28 85 117 28 86 117 29 87 123 29 88 120 29 89 62 30 90 30 30 91 127 30 92 120 31 93 127 31 94 124 31 95 124 32 96 2 32 97 0 32 98 5 33 99 1 33 100 0 33 101 3 34 102 4 34 103 6 34 104 6 35 105 9 35 106 10 35 107 10 36 108 12 36 109 14 36 110 14 37 111 16 37 112 18 37 113 18 38 114 21 38 115 23 38 116 23 39 117 25 39 118 27 39 119 27 40 120 29 40 121 31 40 122 31 41 123 33 41 124 35 41 125 33 42 126 38 42 127 35 42 128 42 43 129 36 43 130 41 43 131 46 44 132 41 44 133 44 44 134 51 45 135 44 45 136 49 45 137 49 46 138 54 46 139 51 46 140 52 47 141 59 47 142 54 47 143 56 48 144 63 48 145 59 48 146 61 49 147 66 49 148 63 49 149 66 50 150 68 50 151 70 50 152 70 51 153 72 51 154 74 51 155 74 52 156 77 52 157 79 52 158 79 53 159 81 53 160 83 53 161 83 54 162 85 54 163 87 54 164 87 55 165 89 55 166 91 55 167 91 56 168 92 56 169 94 56 170 94 57 171 96 57 172 98 57 173 96 58 174 102 58 175 98 58 176 100 59 177 107 59 178 102 59 179 104 60 180 111 60 181 107 60 182 115 61 183 109 61 184 113 61 185 113 62 186 119 62 187 115 62 188 116 63 189 122 63 190 119 63 191 63 64 192 94 64 193 126 64 194 121 65 195 126 65 196 122 65 197 125 66 198 3 66 199 126 66 200 124 67 201 1 67 202 125 67 203 125 68 204 120 68 205 124 68 206 121 69 207 117 69 208 120 69 209 116 70 210 112 70 211 117 70 212 113 71 213 108 71 214 112 71 215 109 72 216 105 72 217 108 72 218 104 73 219 101 73 220 105 73 221 100 74 222 97 74 223 101 74 224 92 75 225 97 75 226 96 75 227 93 76 228 89 76 229 88 76 230 88 77 231 85 77 232 84 77 233 81 78 234 84 78 235 85 78 236 80 79 237 77 79 238 76 79 239 72 80 240 76 80 241 77 80 242 68 81 243 73 81 244 72 81 245 69 82 246 65 82 247 64 82 248 65 83 249 60 83 250 64 83 251 61 84 252 57 84 253 60 84 254 56 85 255 53 85 256 57 85 257 52 86 258 48 86 259 53 86 260 49 87 261 45 87 262 48 87 263 44 88 264 40 88 265 45 88 266 41 89 267 37 89 268 40 89 269 36 90 270 32 90 271 37 90 272 32 91 273 29 91 274 28 91 275 28 92 276 25 92 277 24 92 278 24 93 279 21 93 280 20 93 281 16 94 282 20 94 283 21 94 284 12 95 285 17 95 286 16 95 287 13 96 288 9 96 289 8 96 290 4 97 291 8 97 292 9 97 293 129 98 294 130 98 295 128 98 296 131 99 297 132 99 298 130 99 299 133 100 300 134 100 301 132 100 302 135 101 303 136 101 304 134 101 305 137 102 306 138 102 307 136 102 308 139 103 309 140 103 310 138 103 311 141 104 312 142 104 313 140 104 314 143 105 315 144 105 316 142 105 317 145 106 318 146 106 319 144 106 320 147 107 321 148 107 322 146 107 323 149 108 324 150 108 325 148 108 326 151 109 327 152 109 328 150 109 329 153 110 330 154 110 331 152 110 332 155 111 333 156 111 334 154 111 335 157 112 336 158 112 337 156 112 338 159 113 339 160 113 340 158 113 341 161 114 342 162 114 343 160 114 344 163 115 345 164 115 346 162 115 347 165 116 348 166 116 349 164 116 350 167 117 351 168 117 352 166 117 353 169 118 354 170 118 355 168 118 356 171 119 357 172 119 358 170 119 359 173 120 360 174 120 361 172 120 362 175 121 363 176 121 364 174 121 365 177 122 366 178 122 367 176 122 368 179 123 369 180 123 370 178 123 371 181 124 372 182 124 373 180 124 374 183 125 375 184 125 376 182 125 377 185 126 378 186 126 379 184 126 380 187 127 381 188 127 382 186 127 383 165 128 384 149 128 385 133 128 386 189 129 387 190 129 388 188 129 389 191 130 390 128 130 391 190 130 392 158 131 393 174 131 394 190 131 395 192 132 396 224 132 397 193 132 398 193 133 399 224 133 400 194 133 401 194 134 402 224 134 403 195 134 404 195 135 405 224 135 406 196 135 407 196 136 408 224 136 409 197 136 410 197 137 411 224 137 412 198 137 413 198 138 414 224 138 415 199 138 416 199 139 417 224 139 418 200 139 419 200 140 420 224 140 421 201 140 422 201 141 423 224 141 424 202 141 425 202 142 426 224 142 427 203 142 428 203 143 429 224 143 430 204 143 431 204 144 432 224 144 433 205 144 434 205 145 435 224 145 436 206 145 437 206 146 438 224 146 439 207 146 440 207 147 441 224 147 442 208 147 443 208 148 444 224 148 445 209 148 446 209 149 447 224 149 448 210 149 449 210 150 450 224 150 451 211 150 452 211 151 453 224 151 454 212 151 455 212 152 456 224 152 457 213 152 458 213 153 459 224 153 460 214 153 461 214 154 462 224 154 463 215 154 464 215 155 465 224 155 466 216 155 467 216 156 468 224 156 469 217 156 470 217 157 471 224 157 472 218 157 473 218 158 474 224 158 475 219 158 476 219 159 477 224 159 478 220 159 479 220 160 480 224 160 481 221 160 482 221 161 483 224 161 484 222 161 485 207 162 486 215 162 487 223 162 488 222 163 489 224 163 490 223 163 491 223 164 492 224 164 493 192 164 494 2 165 495 7 165 496 5 165 497 7 166 498 11 166 499 8 166 500 11 167 501 15 167 502 13 167 503 15 168 504 19 168 505 17 168 506 19 169 507 22 169 508 20 169 509 22 170 510 26 170 511 24 170 512 26 171 513 30 171 514 28 171 515 30 172 516 34 172 517 32 172 518 32 173 519 34 173 520 39 173 521 37 174 522 39 174 523 43 174 524 40 175 525 43 175 526 47 175 527 45 176 528 47 176 529 50 176 530 48 177 531 50 177 532 55 177 533 53 178 534 55 178 535 58 178 536 57 179 537 58 179 538 62 179 539 60 180 540 62 180 541 67 180 542 67 181 543 71 181 544 69 181 545 71 182 546 75 182 547 73 182 548 75 183 549 78 183 550 76 183 551 78 184 552 82 184 553 80 184 554 82 185 555 86 185 556 84 185 557 86 186 558 90 186 559 88 186 560 90 187 561 95 187 562 93 187 563 95 188 564 99 188 565 97 188 566 97 189 567 99 189 568 103 189 569 101 190 570 103 190 571 106 190 572 105 191 573 106 191 574 110 191 575 108 192 576 110 192 577 114 192 578 112 193 579 114 193 580 118 193 581 117 194 582 118 194 583 123 194 584 127 195 585 123 195 586 118 195 587 118 128 588 114 128 589 127 128 590 114 128 591 110 128 592 127 128 593 110 128 594 106 128 595 103 128 596 103 128 597 99 128 598 95 128 599 95 128 600 90 128 601 86 128 602 86 128 603 82 128 604 95 128 605 82 196 606 78 196 607 95 196 608 78 195 609 75 195 610 71 195 611 71 128 612 67 128 613 62 128 614 62 197 615 58 197 616 55 197 617 55 128 618 50 128 619 62 128 620 50 128 621 47 128 622 62 128 623 47 128 624 43 128 625 39 128 626 39 128 627 34 128 628 30 128 629 30 128 630 26 128 631 22 128 632 22 128 633 19 128 634 30 128 635 19 198 636 15 198 637 30 198 638 15 197 639 11 197 640 7 197 641 7 128 642 2 128 643 127 128 644 110 199 645 103 199 646 95 199 647 78 128 648 71 128 649 62 128 650 47 200 651 39 200 652 30 200 653 15 128 654 7 128 655 127 128 656 127 201 657 110 201 658 95 201 659 95 202 660 78 202 661 62 202 662 62 203 663 47 203 664 30 203 665 30 204 666 15 204 667 127 204 668 127 205 669 95 205 670 62 205 671 120 206 672 123 206 673 127 206 674 124 207 675 127 207 676 2 207 677 5 208 678 4 208 679 1 208 680 3 209 681 1 209 682 4 209 683 6 210 684 4 210 685 9 210 686 10 211 687 9 211 688 12 211 689 14 212 690 12 212 691 16 212 692 18 213 693 16 213 694 21 213 695 23 214 696 21 214 697 25 214 698 27 215 699 25 215 700 29 215 701 31 216 702 29 216 703 33 216 704 33 217 705 36 217 706 38 217 707 42 218 708 38 218 709 36 218 710 46 219 711 42 219 712 41 219 713 51 220 714 46 220 715 44 220 716 49 221 717 52 221 718 54 221 719 52 222 720 56 222 721 59 222 722 56 223 723 61 223 724 63 223 725 61 224 726 65 224 727 66 224 728 66 225 729 65 225 730 68 225 731 70 226 732 68 226 733 72 226 734 74 227 735 72 227 736 77 227 737 79 228 738 77 228 739 81 228 740 83 229 741 81 229 742 85 229 743 87 230 744 85 230 745 89 230 746 91 231 747 89 231 748 92 231 749 94 232 750 92 232 751 96 232 752 96 233 753 100 233 754 102 233 755 100 234 756 104 234 757 107 234 758 104 235 759 109 235 760 111 235 761 115 236 762 111 236 763 109 236 764 113 237 765 116 237 766 119 237 767 116 238 768 121 238 769 122 238 770 126 131 771 3 131 772 6 131 773 6 131 774 10 131 775 126 131 776 10 131 777 14 131 778 126 131 779 14 239 780 18 239 781 31 239 782 18 240 783 23 240 784 31 240 785 23 241 786 27 241 787 31 241 788 31 131 789 35 131 790 38 131 791 38 131 792 42 131 793 31 131 794 42 242 795 46 242 796 31 242 797 46 131 798 51 131 799 63 131 800 51 131 801 54 131 802 63 131 803 54 131 804 59 131 805 63 131 806 63 131 807 66 131 808 70 131 809 70 131 810 74 131 811 63 131 812 74 131 813 79 131 814 63 131 815 79 243 816 83 243 817 94 243 818 83 244 819 87 244 820 94 244 821 87 245 822 91 245 823 94 245 824 94 131 825 98 131 826 102 131 827 102 131 828 107 131 829 94 131 830 107 246 831 111 246 832 94 246 833 111 131 834 115 131 835 126 131 836 115 131 837 119 131 838 126 131 839 119 131 840 122 131 841 126 131 842 126 131 843 14 131 844 31 131 845 31 247 846 46 247 847 63 247 848 63 131 849 79 131 850 94 131 851 94 248 852 111 248 853 126 248 854 126 249 855 31 249 856 63 249 857 121 250 858 125 250 859 126 250 860 125 251 861 1 251 862 3 251 863 124 252 864 0 252 865 1 252 866 125 253 867 121 253 868 120 253 869 121 254 870 116 254 871 117 254 872 116 255 873 113 255 874 112 255 875 113 256 876 109 256 877 108 256 878 109 257 879 104 257 880 105 257 881 104 258 882 100 258 883 101 258 884 100 259 885 96 259 886 97 259 887 92 260 888 93 260 889 97 260 890 93 261 891 92 261 892 89 261 893 88 262 894 89 262 895 85 262 896 81 263 897 80 263 898 84 263 899 80 264 900 81 264 901 77 264 902 72 265 903 73 265 904 76 265 905 68 266 906 69 266 907 73 266 908 69 267 909 68 267 910 65 267 911 65 268 912 61 268 913 60 268 914 61 269 915 56 269 916 57 269 917 56 270 918 52 270 919 53 270 920 52 271 921 49 271 922 48 271 923 49 272 924 44 272 925 45 272 926 44 273 927 41 273 928 40 273 929 41 274 930 36 274 931 37 274 932 36 275 933 33 275 934 32 275 935 32 276 936 33 276 937 29 276 938 28 277 939 29 277 940 25 277 941 24 278 942 25 278 943 21 278 944 16 279 945 17 279 946 20 279 947 12 280 948 13 280 949 17 280 950 13 281 951 12 281 952 9 281 953 4 282 954 5 282 955 8 282 956 129 98 957 131 98 958 130 98 959 131 283 960 133 283 961 132 283 962 133 100 963 135 100 964 134 100 965 135 284 966 137 284 967 136 284 968 137 285 969 139 285 970 138 285 971 139 286 972 141 286 973 140 286 974 141 287 975 143 287 976 142 287 977 143 288 978 145 288 979 144 288 980 145 289 981 147 289 982 146 289 983 147 290 984 149 290 985 148 290 986 149 291 987 151 291 988 150 291 989 151 292 990 153 292 991 152 292 992 153 293 993 155 293 994 154 293 995 155 111 996 157 111 997 156 111 998 157 294 999 159 294 1000 158 294 1001 159 113 1002 161 113 1003 160 113 1004 161 114 1005 163 114 1006 162 114 1007 163 295 1008 165 295 1009 164 295 1010 165 116 1011 167 116 1012 166 116 1013 167 296 1014 169 296 1015 168 296 1016 169 297 1017 171 297 1018 170 297 1019 171 298 1020 173 298 1021 172 298 1022 173 299 1023 175 299 1024 174 299 1025 175 300 1026 177 300 1027 176 300 1028 177 301 1029 179 301 1030 178 301 1031 179 302 1032 181 302 1033 180 302 1034 181 303 1035 183 303 1036 182 303 1037 183 304 1038 185 304 1039 184 304 1040 185 305 1041 187 305 1042 186 305 1043 187 127 1044 189 127 1045 188 127 1046 133 306 1047 131 306 1048 129 306 1049 129 128 1050 191 128 1051 133 128 1052 191 128 1053 189 128 1054 133 128 1055 189 307 1056 187 307 1057 185 307 1058 185 128 1059 183 128 1060 181 128 1061 181 128 1062 179 128 1063 177 128 1064 177 308 1065 175 308 1066 181 308 1067 175 128 1068 173 128 1069 181 128 1070 173 128 1071 171 128 1072 169 128 1073 169 309 1074 167 309 1075 165 309 1076 165 128 1077 163 128 1078 157 128 1079 163 128 1080 161 128 1081 157 128 1082 161 128 1083 159 128 1084 157 128 1085 157 310 1086 155 310 1087 153 310 1088 153 128 1089 151 128 1090 149 128 1091 149 311 1092 147 311 1093 141 311 1094 147 312 1095 145 312 1096 141 312 1097 145 128 1098 143 128 1099 141 128 1100 141 128 1101 139 128 1102 137 128 1103 137 313 1104 135 313 1105 133 313 1106 189 128 1107 185 128 1108 133 128 1109 185 128 1110 181 128 1111 133 128 1112 173 128 1113 169 128 1114 181 128 1115 169 314 1116 165 314 1117 181 314 1118 157 128 1119 153 128 1120 165 128 1121 153 128 1122 149 128 1123 165 128 1124 141 128 1125 137 128 1126 149 128 1127 137 315 1128 133 315 1129 149 315 1130 133 128 1131 181 128 1132 165 128 1133 189 316 1134 191 316 1135 190 316 1136 191 130 1137 129 130 1138 128 130 1139 190 131 1140 128 131 1141 130 131 1142 130 131 1143 132 131 1144 134 131 1145 134 131 1146 136 131 1147 138 131 1148 138 131 1149 140 131 1150 142 131 1151 142 131 1152 144 131 1153 146 131 1154 146 131 1155 148 131 1156 150 131 1157 150 131 1158 152 131 1159 154 131 1160 154 131 1161 156 131 1162 158 131 1163 158 131 1164 160 131 1165 162 131 1166 162 131 1167 164 131 1168 166 131 1169 166 131 1170 168 131 1171 170 131 1172 170 131 1173 172 131 1174 174 131 1175 174 131 1176 176 131 1177 178 131 1178 178 131 1179 180 131 1180 182 131 1181 182 131 1182 184 131 1183 186 131 1184 186 131 1185 188 131 1186 190 131 1187 190 131 1188 130 131 1189 142 131 1190 130 317 1191 134 317 1192 142 317 1193 134 318 1194 138 318 1195 142 318 1196 142 319 1197 146 319 1198 158 319 1199 146 320 1200 150 320 1201 158 320 1202 150 131 1203 154 131 1204 158 131 1205 158 131 1206 162 131 1207 174 131 1208 162 321 1209 166 321 1210 174 321 1211 166 322 1212 170 322 1213 174 322 1214 174 323 1215 178 323 1216 190 323 1217 178 324 1218 182 324 1219 190 324 1220 182 131 1221 186 131 1222 190 131 1223 190 131 1224 142 131 1225 158 131 1226 223 131 1227 192 131 1228 193 131 1229 193 131 1230 194 131 1231 195 131 1232 195 131 1233 196 131 1234 197 131 1235 197 131 1236 198 131 1237 199 131 1238 199 131 1239 200 131 1240 201 131 1241 201 131 1242 202 131 1243 203 131 1244 203 131 1245 204 131 1246 205 131 1247 205 131 1248 206 131 1249 207 131 1250 207 131 1251 208 131 1252 209 131 1253 209 131 1254 210 131 1255 211 131 1256 211 131 1257 212 131 1258 213 131 1259 213 131 1260 214 131 1261 215 131 1262 215 131 1263 216 131 1264 217 131 1265 217 131 1266 218 131 1267 219 131 1268 219 131 1269 220 131 1270 221 131 1271 221 131 1272 222 131 1273 223 131 1274 223 131 1275 193 131 1276 199 131 1277 193 325 1278 195 325 1279 199 325 1280 195 326 1281 197 326 1282 199 326 1283 199 131 1284 201 131 1285 207 131 1286 201 131 1287 203 131 1288 207 131 1289 203 131 1290 205 131 1291 207 131 1292 207 131 1293 209 131 1294 215 131 1295 209 327 1296 211 327 1297 215 327 1298 211 328 1299 213 328 1300 215 328 1301 215 131 1302 217 131 1303 223 131 1304 217 131 1305 219 131 1306 223 131 1307 219 131 1308 221 131 1309 223 131 1310 223 329 1311 199 329 1312 207 329 1313</p>
        </triangles>
      </mesh>
    </geometry>
  </library_geometries>
  <library_visual_scenes>
    <visual_scene id="Scene" name="Scene">
      <node id="rocket" name="rocket" type="NODE">
        <matrix sid="transform">0.7 0 0 0 0 5.28485e-8 -0.56 1.6 0 0.7 4.22788e-8 0 0 0 0 1</matrix>
        <instance_geometry url="#rocket-mesh" name="rocket">
          <bind_material>
            <technique_common>
              <instance_material symbol="Material_001-material" target="#Material_001-material">
                <bind_vertex_input semantic="UVMap" input_semantic="TEXCOORD" input_set="0"/>
              </instance_material>
            </technique_common>
          </bind_material>
        </instance_geometry>
        <node id="prop_flame" name="prop_flame" type="NODE">
          <matrix sid="transform">1.428571 0 0 0 0 1.07854e-7 1.428571 -1.42109e-14 0 -1.785714 1.34818e-7 0 0 0 0 1</matrix>
        </node>
      </node>
    </visual_scene>
  </library_visual_scenes>
  <scene>
    <instance_visual_scene url="#Scene"/>
  </scene>
</COLLADA>