<?xml version="1.0" encoding="utf-8"?>
<COLLADA xmlns="http://www.collada.org/2005/11/COLLADASchema" version="1.4.1" xmlns:xsi="http://www.w3.org/2001/XMLSchema-instance">
  <asset>
    <contributor>
      <author>Blender User</author>
      <authoring_tool>Blender 4.3.1 commit date:2024-12-10, commit time:07:46, hash:33d812126174</authoring_tool>
    </contributor>
    <created>2026-05-04T09:48:20</created>
    <modified>2026-05-04T09:48:20</modified>
    <unit name="meter" meter="1"/>
    <up_axis>Z_UP</up_axis>
  </asset>
  <library_effects>
    <effect id="Material_001-effect">
      <profile_COMMON>
        <technique sid="common">
          <lambert>
            <emission>
              <color sid="emission">0 0 0 1</color>
            </emission>
            <diffuse>
              <color sid="diffuse">0.8 0.8 0.8 1</color>
            </diffuse>
            <index_of_refraction>
              <float sid="ior">1.45</float>
            </index_of_refraction>
          </lambert>
        </technique>
      </profile_COMMON>
    </effect>
  </library_effects>
  <library_images/>
  <library_materials>
    <material id="Material_001-material" name="Material.001">
      <instance_effect url="#Material_001-effect"/>
    </material>
  </library_materials>
  <library_geometries>
    <geometry id="Cube_002-mesh" name="Cube.002">
      <mesh>
        <source id="Cube_002-mesh-positions">
          <float_array id="Cube_002-mesh-positions-array" count="648">-0.04513823 0.1788591 0.07617992 -0.0301547 0.1736422 0.3560896 -0.03124451 0.3915456 0.07940006 -0.02215635 0.3883816 0.2491764 0.04867464 0.1728084 0.07104533 0.06365817 0.1675917 0.350955 0.06256836 0.3854951 0.07426548 0.07165652 0.3823311 0.2440419 -0.0378549 0.2903525 0.07786798 -0.02876681 0.2871882 0.2476444 0.05595797 0.284302 0.0727334 0.06504607 0.2811377 0.2425098 -0.05320423 0.05538398 0.07431048 -0.0382207 0.05016708 0.3542201 0.05559217 0.04411667 0.3490855 0.04060864 0.04933351 0.06917589 -0.1191533 -0.9245652 0.1143512 -0.1077631 -0.9285314 0.3271339 -0.01395004 -0.934582 0.3219993 -0.02534025 -0.9306157 0.1092167 -0.1235415 -0.9917402 0.1133342 -0.1121513 -0.9957067 0.3261168 -0.01833826 -1.001757 0.3209822 -0.02972847 -0.9977909 0.1081996 -0.09585779 -0.9521666 0.3260561 -0.02883028 -0.9564897 0.3223875 -0.0986585 -0.9950401 0.325407 -0.03163099 -0.999363 0.3217385 -0.02643799 -0.9573222 0.3670789 -0.0934655 -0.9529992 0.3707475 -0.02923864 -1.000195 0.3664298 -0.09626621 -0.9958725 0.3700984 -0.02802038 0.2563322 0.07670748 0.04177987 0.2518305 0.07288718 -0.04114925 0.05535429 0.0736646 0.02865099 0.05085241 0.0698443 -0.03117734 0.2574315 0.01773256 0.03862297 0.2529297 0.0139122 -0.04430621 0.05645328 0.01468962 0.02549409 0.05195158 0.01086932 -0.03220248 0.2417383 0.01749485 0.03759777 0.2372365 0.01367455 -0.04328107 0.07214641 0.0149272 0.02651923 0.06764471 0.0111069 -0.03794878 0.3257508 -0.1864951 0.03185147 0.321249 -0.1903154 -0.04902738 0.1561588 -0.1890628 0.02077287 0.1516569 -0.1928831 -0.04093503 0.3267903 -0.2422809 0.02886533 0.3222885 -0.2461012 -0.05201357 0.1571986 -0.2448486 0.01778668 0.1526967 -0.2486689 -0.04656076 0.2804157 -0.2904213 0.02323943 0.2759138 -0.2942417 -0.05353254 0.1736915 -0.2920372 0.01626777 0.1691896 -0.2958575 -0.04094588 0.156482 0.07553839 0.04160624 0.1511577 0.07102018 -0.04410284 0.157581 0.01656341 0.03844928 0.1522567 0.01204514 -0.04410517 0.1575456 0.01656287 0.03844696 0.1522213 0.0120446 -0.04985153 0.2415577 -0.1874272 0.03270065 0.2362334 -0.1919454 -0.05283766 0.2425975 -0.2432129 0.02971446 0.2372732 -0.2477311 -0.05641472 0.2275856 -0.2908784 0.02613741 0.2222613 -0.2953967 -0.06286978 -0.9465246 0.3243955 -0.06668132 -1.004872 0.3235121 -0.06047743 -0.9473572 0.3690869 -0.06428903 -1.005705 0.3682031 -0.03864538 -0.2983989 0.336766 0.00927478 -0.3014895 0.3341432 -0.04144608 -0.3412722 0.3361167 0.006474077 -0.3443629 0.3334938 0.01233685 -0.3025556 0.3913464 -0.03558325 -0.2994648 0.3939692 0.009536147 -0.345429 0.3906971 -0.03838396 -0.3423382 0.3933199 -0.01491695 -0.2921592 0.3356118 -0.01872861 -0.3505074 0.3347285 -0.01185488 -0.2932252 0.3928151 -0.01566648 -0.3515735 0.3919318 -0.07774269 -0.6385511 0.1002993 -0.01863223 -0.6410007 0.09080898 -0.05653566 -0.4053722 0.1226592 0.002574801 -0.4078217 0.113169 -0.06961184 -0.6726096 0.002722918 -0.01050126 -0.6750589 -0.006767332 -0.04840469 -0.4394304 0.02508276 0.0107057 -0.4418798 0.01559263 -0.06138008 -0.7527193 -0.1352942 -0.002269566 -0.7551688 -0.1447845 -0.04017299 -0.5195402 -0.1129344 0.01893758 -0.5219897 -0.1224246 -0.06158554 -0.854732 -0.2212774 -0.002474904 -0.8571816 -0.2307677 -0.03284376 -0.6303415 -0.2697585 0.02626681 -0.6327909 -0.2792487 -0.03384256 0.02469062 0.07513111 0.01768022 0.02136766 0.07231116 -0.04461395 -0.1401988 0.07263469 0.006908833 -0.1435219 0.06981474 -0.03946197 0.009625315 -0.009787261 0.01206082 0.006302297 -0.01260721 -0.04805886 -0.1219776 -0.01177972 0.003463864 -0.1253006 -0.01459968 0.02025538 0.048249 0.08768451 0.003075838 -0.2147371 0.08370292 -0.04844695 -0.211414 0.08652287 -0.0312674 0.05157202 0.09050446 0.01264983 0.02785873 -0.02724713 -0.001586675 -0.1900756 -0.0305466 -0.05310946 -0.1867526 -0.0277267 -0.03887295 0.03118169 -0.02442717 -0.03006666 0.02039444 0.3540487 -0.03914684 0.05048978 0.3369187 0.04372227 0.01563543 0.3500101 0.05466604 0.04443925 0.3317841 -0.07091927 -0.604982 0.3445803 -0.08380293 -0.6331105 0.3265686 0.002869546 -0.6097411 0.3405417 0.01000994 -0.6391611 0.321434 -0.06870782 -0.5057674 0.3582841 -0.07770025 -0.4757026 0.3427938 0.005081176 -0.5105265 0.3542454 0.01611274 -0.4817532 0.3376592 -0.09213304 -0.8643638 0.352855 -0.10645 -0.9159169 0.3362598 -0.01263701 -0.9219674 0.3311253 -0.01834404 -0.8691229 0.3488163 -0.04638296 0.03344547 0.09097564 -0.05156922 0.05481481 0.1048547 0.04224365 0.04876416 0.09972012 0.03288578 0.028333 0.08663713 -0.09622532 -0.6287854 0.09450465 -0.08827638 -0.607864 0.08126604 -0.009007632 -0.6129766 0.07692748 -0.002412378 -0.6348361 0.08937007 -0.0863434 -0.4921483 0.070436 -0.0916962 -0.4708296 0.08133345 0.002116799 -0.4768801 0.07619887 -0.007074773 -0.4972609 0.06609743 -0.1186421 -0.9060112 0.1018276 -0.1095675 -0.8673275 0.08822184 -0.03029894 -0.8724399 0.08388328 -0.02482903 -0.9120618 0.09669297 -0.004467487 -0.5635685 0.09712314 0.002601563 -0.4858421 0.1045765 -0.0707004 -0.4828044 0.1163451 -0.07776957 -0.5605309 0.1088918 0.00366348 -0.5976266 -4.53278e-4 0.01073253 -0.5199003 0.007000088 -0.06256949 -0.5168627 0.01876878 -0.06963849 -0.5945889 0.0113154 0.01189535 -0.6777365 -0.1384704 0.01896435 -0.6000099 -0.1310171 -0.05433785 -0.5969725 -0.1192484 -0.06140691 -0.6746988 -0.1267017 0.01420146 -0.7826787 -0.2480674 0.02378201 -0.7078819 -0.2642277 -0.04952025 -0.7048442 -0.2524588 -0.0591008 -0.7796412 -0.2362987 -0.06809121 -1.176194 0.180426 -0.08412259 -1.17524 0.1866309 -0.0703172 -0.9761976 0.2043157 -0.08333748 -1.175513 0.2012979 -0.0458315 -0.9776542 0.1948388 -0.05885177 -1.17697 0.1918211 -0.03156685 -0.9782509 0.172756 -0.04458719 -1.177568 0.1697382 -0.03297233 -0.9777624 0.1465019 -0.04599261 -1.177078 0.1434841 -0.04951077 -0.9763723 0.1261049 -0.06253111 -1.175688 0.1230872 -0.07486516 -0.9746146 0.1193557 -0.08788537 -1.17393 0.1163381 -0.09935086 -0.9731579 0.1288328 -0.1123712 -1.172474 0.125815 -0.1136154 -0.9725611 0.1509157 -0.1266357 -1.171877 0.1478978 -0.11221 -0.9730498 0.1771698 -0.1252303 -1.172367 0.1741519 -0.09567153 -0.9744396 0.1975667 -0.1086918 -1.173755 0.194549 -0.05875188 -1.176585 0.1659677 -0.05967199 -1.176265 0.1487786 -0.07050013 -1.175355 0.1354241 -0.08710026 -1.174204 0.1310054 -0.1031317 -1.173251 0.13721 -0.1124711 -1.17286 0.1516683 -0.1115509 -1.173179 0.1688576 -0.1007227 -1.17409 0.1822119 -0.08896118 -1.258384 0.1962032 -0.1120242 -1.256784 0.1900641 -0.1270681 -1.255521 0.1715106 -0.1283464 -1.255075 0.147629 -0.1153711 -1.255619 0.1275417 -0.09309792 -1.256942 0.1189215 -0.07003504 -1.258543 0.1250603 -0.05499118 -1.259806 0.1436141 -0.05371284 -1.260252 0.1674957 -0.06668823 -1.259708 0.1875829 -0.04657047 -0.5643942 0.3370519 -0.0171386 -0.5662925 0.335441 -0.04829061 -0.5907266 0.3366532 -0.01885873 -0.5926247 0.3350422 -0.01525789 -0.5669472 0.3705745 -0.04468977 -0.5650488 0.3721854 -0.01697802 -0.5932793 0.3701758 -0.0464099 -0.5913811 0.3717867 -0.03199696 -0.560562 0.3363434 -0.03433793 -0.5963984 0.3358008 -0.0301162 -0.5612164 0.3714767 -0.03245729 -0.5970532 0.3709341</float_array>
          <technique_common>
            <accessor source="#Cube_002-mesh-positions-array" count="216" stride="3">
              <param name="X" type="float"/>
              <param name="Y" type="float"/>
              <param name="Z" type="float"/>
            </accessor>
          </technique_common>
        </source>
        <source id="Cube_002-mesh-normals">
          <float_array id="Cube_002-mesh-normals-array" count="864">-0.9964414 0.06426686 0.05453723 0.9964414 -0.06426697 -0.05453717 -0.9964415 0.06426662 0.05453723 -0.0534442 0.01860755 -0.9983975 0.08382308 0.6877099 0.7211303 0.05344361 -0.01860678 0.9983975 -0.05344432 0.01860707 -0.9983975 0.9964414 -0.06426662 -0.05453717 -0.9964415 0.06426656 0.05453729 -0.05344438 0.01860725 -0.9983975 0.05344438 -0.01860719 0.9983975 0.9964414 -0.06426674 -0.05453717 0.0534442 -0.01860737 0.9983975 0.9964414 -0.06426662 -0.05453717 -0.9964414 0.06426668 0.05453717 -0.05344438 0.01860719 -0.9983975 -0.06517982 -0.9977593 -0.01510584 0.05344444 -0.01860678 0.9983975 -0.08113723 -0.5560839 -0.8271563 0.9964413 -0.06426912 -0.05453723 -0.9964415 0.06426674 0.05453735 -0.05741 -0.04372888 -0.9973926 -0.05344408 0.01860624 -0.9983976 -0.9964412 0.0642715 0.05453681 0.006494998 -0.5865719 0.8098711 -0.06517988 -0.9977592 -0.01510888 -0.9964415 0.0642659 0.05453729 0.05344414 -0.01860785 0.9983975 0.9964416 -0.06426614 -0.05453735 0.05344206 -0.01861256 0.9983975 0.1538963 -0.9877273 -0.02666091 -0.9964414 0.06426721 0.05453664 -0.167185 0.9855473 0.02731007 0.9964415 -0.06426572 -0.05453789 -0.6973701 -0.7109107 -0.09100002 -0.7621506 0.0550512 -0.6450551 -0.6177405 -0.4562777 -0.6404744 0.6834902 -0.0332278 -0.7292032 0.1445989 -0.2730242 -0.9510779 0.7604735 -0.07256591 0.6453017 0.7293472 0.6836382 -0.02629953 -0.5473985 0.6389389 -0.5404738 -0.634304 0.7715712 0.04833757 0.9964509 -0.06412357 -0.05453497 0.485417 -0.6172598 -0.6191614 -0.7294479 -0.6835303 0.02630865 0.6344153 -0.7714796 -0.04833877 -0.7587749 0.06004536 -0.6485794 -0.996432 0.06440991 0.05453962 -0.4307577 0.3812538 -0.8179813 -0.995615 0.07325178 0.05818098 -0.6910613 0.0209394 0.7224928 -0.6248827 -0.5456403 -0.5583891 0.5627237 0.5673277 -0.6012332 -0.5829979 0.7905818 0.1873342 -0.9959374 0.07929092 0.04268139 0.384509 0.3286342 -0.8626427 0.668233 -0.7220778 -0.1790766 0.9971736 -0.05527579 -0.050888 -0.2808627 -0.2455533 -0.9278037 0.586516 -0.7937206 -0.1612661 0.6882631 -0.03849506 -0.7244392 0.9965803 -0.04921919 -0.06637269 0.6963136 0.7080846 0.1173189 -0.5715166 0.7795671 -0.2562106 -0.7706683 -0.6292893 -0.1003267 0.4809138 -0.5271471 -0.7005983 -0.6014633 0.3839448 -0.7005914 0.6353884 0.7017236 -0.3222818 0.5659514 0.3086379 -0.7644879 0.2811109 0.9596711 0.002832233 -0.2940294 -0.9557943 -0.002061367 0.05343937 -0.01860707 0.9983977 0.05345302 -0.01860713 0.998397 0.2353346 -0.9714295 -0.03070044 -0.9964416 0.06426674 0.05453711 -0.2527535 0.9670162 0.03154945 0.9964415 -0.06426674 -0.05453705 0.3597482 0.9330477 -0.001869559 -0.3764427 -0.9264355 0.002886831 0.05344974 -0.01861274 0.9983971 -0.9979679 0.006638467 -0.06337362 0.996235 -0.00915271 0.08620983 0.01396292 -0.9436845 0.330552 -0.9962349 0.009150922 -0.08621066 -0.01396375 0.9436856 -0.3305488 0.998718 -0.005202829 0.05035102 -0.04508304 0.8628193 -0.5034982 0.9979678 -0.0066365 0.06337463 0.04508721 -0.8628193 0.5034979 -0.1632894 -0.1883227 -0.9684376 0.09559559 -0.6416379 0.7610271 -0.9997296 0.00220561 -0.02314829 -0.05904614 0.8139905 -0.5778695 -0.5792781 -0.6075636 0.5434182 0.6351888 0.5880929 0.5006815 -0.4964122 0.6610906 0.5626139 0.5862626 0.4863578 -0.647883 -0.6530344 -0.463108 -0.5992305 -0.5860624 0.5619463 -0.5837356 -0.8779305 -0.2500371 0.4083128 0.8912654 -0.3453993 -0.2938457 -0.954778 -0.2263394 -0.1927944 0.5193164 -0.5386987 -0.6634111 0.5522813 -0.6805588 0.4814822 0.9292009 0.2352411 -0.2850391 -0.9168462 0.3543044 -0.1840153 0.9169855 0.2364422 0.3212984 0.8778062 -0.3632748 0.3122304 -0.8387469 0.3496773 0.4174081 0.07980608 0.5111741 0.855764 0.01095694 -0.5427762 0.839806 -0.8458603 0.04721158 0.5313111 0.8976348 -0.06523752 0.4358854 0.0786091 0.4750737 0.8764278 0.03166413 -0.3142237 0.9488208 -0.8233461 0.04521989 0.5657354 0.8774607 -0.06436043 0.4753109 0.9964416 -0.06426668 -0.05453711 -0.0109564 0.5427795 -0.8398038 -0.07980722 -0.5111828 -0.8557587 0.8458684 -0.04721212 -0.5312982 -0.8976395 0.0652374 -0.4358755 -0.01973783 0.4511287 -0.8922407 -0.07214927 -0.3158236 -0.9460709 0.8075574 -0.07753682 -0.5846701 -0.8695604 0.03063088 -0.4928758 -0.964872 0.1911985 -0.1801815 -0.9878966 0.1011259 -0.117618 -0.1632887 -0.1883248 -0.9684371 -0.163286 -0.1883186 -0.9684389 0.9671182 -0.1906428 0.1683384 0.9878965 -0.1011264 0.1176184 0.95985 -0.1922459 0.2042782 0.9878967 -0.1011248 0.1176177 -0.9707889 0.1895798 -0.1470665 -0.9878965 0.1011268 -0.1176175 0.9707888 -0.18958 0.1470662 0.9878966 -0.1011262 0.1176179 -0.9671183 0.1906434 -0.1683371 -0.9878968 0.101125 -0.1176168 0.06142687 0.1106342 0.9919612 0.4669849 -0.6356169 0.614749 0.6320796 0.07669866 0.7710984 -0.001051068 -0.6564869 0.7543367 0.6289303 -0.05282878 0.7756648 0.05344462 -0.01860743 0.9983975 -0.9148986 0.1839908 0.3593161 -0.4749317 -0.5748913 0.6662881 -0.5294663 0.1516162 0.8346724 0.6959137 -0.6934359 0.186684 0.9641867 -0.0668714 0.2566562 -0.8140561 -0.5393793 -0.2153667 -0.7875124 -0.5486013 0.2808221 0.9311564 -0.05537116 -0.3603911 -0.615213 0.1814681 -0.7671913 -0.08172023 -0.5781236 -0.8118467 -0.5444762 -0.5506634 -0.6327049 0.3731698 -0.659649 -0.6523861 0.5424591 -0.02272146 -0.839775 0.0042243 -0.6080897 0.7938572 -0.05344313 0.01860725 -0.9983976 0.9317647 0.0741769 -0.3554047 0.3974496 -0.6113979 -0.6842707 0.5463313 0.1065527 -0.8307639 -0.5232626 -0.6018231 -0.6033285 -0.6289346 0.05282884 -0.7756612 -0.9476525 0.1953931 -0.2525397 0.964517 0.06277388 0.2564496 0.7365925 -0.6468859 0.1974089 -0.9641874 0.06687122 -0.2566533 -0.04456317 0.1475337 -0.9880526 0.7100191 -0.637653 -0.2987837 -0.7545418 -0.5998964 0.2660658 -0.9311566 0.05537098 0.3603906 -0.5424562 0.02272105 0.8397768 -0.06517732 -0.9977594 -0.01510709 0.05343908 -0.01860713 0.9983978 0.2353357 -0.9714291 -0.03070223 -0.9964416 0.06426566 0.05453747 -0.2527543 0.9670163 0.03154128 0.9964414 -0.06426709 -0.05453723 0.3597545 0.9330452 -0.001871585 -0.3764281 -0.9264413 0.002894222 0.05344772 -0.01860576 0.9983973 -0.9964415 0.06426674 0.05453723 0.9964414 -0.06426686 -0.05453717 -0.9964415 0.0642668 0.05453711 -0.05344426 0.01860773 -0.9983975 0.08382385 0.6877099 0.7211301 0.05344432 -0.01860678 0.9983975 -0.05344408 0.01860702 -0.9983975 0.9964415 -0.06426662 -0.05453711 -0.9964414 0.06426686 0.05453705 -0.0534442 0.01860719 -0.9983975 0.05344426 -0.01860767 0.9983975 0.9964415 -0.06426656 -0.05453723 0.05344367 -0.01860737 0.9983976 0.9964415 -0.06426668 -0.05453705 -0.9964415 0.06426668 0.05453711 -0.05344402 0.01860725 -0.9983975 -0.06517857 -0.9977593 -0.01510685 0.0534439 -0.0186069 0.9983975 -0.08113634 -0.5560862 -0.8271548 0.9964416 -0.06426548 -0.05453699 -0.9964415 0.06426668 0.05453735 -0.05740916 -0.04372894 -0.9973926 -0.05344468 0.01860707 -0.9983975 -0.9964414 0.06426751 0.05453711 0.006494402 -0.5865721 0.809871 -0.06517738 -0.9977593 -0.01511013 -0.9964415 0.0642668 0.05453717 0.0534439 -0.01860827 0.9983975 0.9964415 -0.06426674 -0.05453711 0.05345255 -0.01860678 0.9983971 0.153927 -0.9877231 -0.02664041 -0.9964415 0.06426703 0.05453628 -0.1671854 0.9855473 0.02730762 0.9964415 -0.06426668 -0.05453693 0.2811107 0.9596712 0.002829909 -0.2940007 -0.955803 -0.002089679 0.05344539 -0.0186128 0.9983974 0.05344116 -0.01861262 0.9983975 0.2353355 -0.9714292 -0.03070253 -0.9964415 0.06426697 0.05453741 -0.2527547 0.9670158 0.03155046 0.9964415 -0.06426692 -0.05453717 0.3597461 0.9330484 -0.001869857 -0.376444 -0.9264349 0.002885341 0.05343878 -0.01860624 0.9983978 -0.9979678 0.006636321 -0.06337368 0.996235 -0.009152054 0.08621007 0.0139693 -0.9436858 0.3305482 -0.9962351 0.009153902 -0.08620929 -0.0139653 0.9436855 -0.3305491 0.9982889 -0.02221286 0.05409181 -0.04508256 0.8628192 -0.5034985 0.9979678 -0.006637334 0.06337457 0.04508274 -0.8628191 0.5034987 -0.1632857 -0.1883207 -0.9684385 0.09559506 -0.6416378 0.7610275 -0.9991891 0.02710717 -0.02977335 -0.05904769 0.8139901 -0.57787 0.07980585 0.5111737 0.8557644 0.01095718 -0.5427747 0.8398069 -0.8458604 0.04721128 0.531311 0.8976346 -0.0652374 0.4358856 0.07861036 0.475077 0.8764259 0.03166466 -0.3142229 0.9488211 -0.8215747 0.04522031 0.5683048 0.8789278 -0.0645706 0.4725641 0.9964415 -0.06426668 -0.05453717 -0.01095694 0.5427818 -0.8398023 -0.0798074 -0.5111792 -0.8557609 0.8458657 -0.047212 -0.5313026 -0.8976417 0.06523752 -0.4358709 -0.01973795 0.4511293 -0.8922403 -0.07214999 -0.3158246 -0.9460705 0.8104214 -0.07769399 -0.5806729 -0.8719683 0.03081399 -0.4885916 -0.9683769 0.1756063 -0.1772252 -0.9878966 0.1011257 -0.117618 -0.1632857 -0.1883231 -0.968438 -0.1632891 -0.1883208 -0.9684379 0.9671179 -0.1906447 0.168338 0.9878966 -0.1011249 0.1176183 0.9651488 -0.1697936 0.1991429 0.9878966 -0.1011257 0.1176179 -0.9707888 0.1895804 -0.1470663 -0.9878965 0.1011253 -0.1176188 0.9707888 -0.1895797 0.1470667 0.9878965 -0.1011264 0.1176181 -0.9671182 0.1906437 -0.168337 -0.9878967 0.101126 -0.1176168 0.4393364 -0.6827046 0.5838648 0.6706264 -0.684641 -0.2855294 -0.0828576 -0.6280588 -0.773742 -0.7798064 -0.5911066 -0.2061429 -0.4570703 -0.624892 0.6329271 -0.06517672 -0.9977594 -0.01510691 0.0534411 -0.01860648 0.9983977 0.2353217 -0.9714326 -0.030698 -0.9964416 0.06426602 0.05453753 -0.2527618 0.9670139 0.03155386 0.9964415 -0.06426692 -0.05453693 0.3597407 0.9330505 -0.001877784 -0.3764473 -0.9264336 0.002880632 0.0534501 -0.01860749 0.9983972</float_array>
          <technique_common>
            <accessor source="#Cube_002-mesh-normals-array" count="288" stride="3">
              <param name="X" type="float"/>
              <param name="Y" type="float"/>
              <param name="Z" type="float"/>
            </accessor>
          </technique_common>
        </source>
        <source id="Cube_002-mesh-map-0">
          <float_array id="Cube_002-mesh-map-0-array" count="2088">0.2293221 0.7910595 0.2780733 0.9224757 0.2780733 0.7910595 0.2293221 0.9224757 0.1756085 0.7910595 0.2293221 0.7910595 0.1756085 1.007725 0.1161227 0.7910595 0.1161227 1.007725 0.2598803 0.9148693 0.1284639 0.8611558 0.1284639 0.9148693 0.1284639 0.9224757 0.2598803 1.007725 0.2598803 0.9224757 0.1284639 0.9636206 0.2598803 0.9148693 0.2598803 0.9636206 0.2598803 0.9636206 0.1284639 0.9148693 0.1284639 0.9636206 0.2780733 0.9224757 0.2293221 0.7910595 0.2780733 0.7910595 0.1756085 0.7910595 0.2293221 0.9224757 0.2293221 0.7910595 0.2598803 0.8611558 0.1284639 0.80167 0.1284639 0.8611558 0.1284639 0.8611558 0.2598803 0.80167 0.2598803 0.8611558 0.1756085 1.007725 0.1161227 0.7910595 0.1756085 0.7910595 0.8107482 0.8840273 0.4671954 0.8215969 0.8107482 0.8215969 0.4532845 0.9966956 0.1150268 0.8123605 0.4532845 0.7910667 0.9852501 0.8128962 0.4532845 0.9954059 0.9852501 0.9954059 0.8151246 0.8192788 0.462819 0.8863453 0.8151246 0.8863453 0.4974287 0.9954059 0.2851549 0.8128962 0.4974287 0.8128962 0.4352099 0.8840273 0.2382134 0.8215969 0.4352099 0.8215969 0.4974287 0.8123605 0.2851549 0.8224279 0.2851549 0.8123605 0.1107195 0.9967988 0.1007734 0.8224279 0.1150268 0.8123605 0.4532845 0.9966956 0.1150268 0.8123605 0.1107195 0.9967988 0.4396446 0.8192788 0.2337788 0.8863453 0.4396446 0.8863453 0.2023493 0.8131261 0.1654465 0.892498 0.2023493 0.892498 0.1107195 0.9967988 0.1007734 0.8224279 0.1007734 0.9897736 0.2851549 0.9967988 0.4974287 0.9897736 0.4974287 0.9967988 0.4974287 0.9897736 0.2851549 0.8224279 0.4974287 0.8224279 0.1007734 0.9897736 0.04849886 0.8224279 0.04849886 0.9897736 0.2023493 0.892498 0.1654465 0.8131261 0.2023493 0.8131261 0.1007734 0.9897736 0.04849886 0.8224279 0.1007734 0.8224279 0.625 1 0.625 0.8788462 0.625 0.8788462 0.625 0.75 0.625 0.8788462 0.625 0.8788462 0.625 1 0.625 1 0.625 1 0.625 0.8788461 0.625 1 0.625 0.8788462 0.625 0.75 0.625 0.75 0.625 0.75 0.04003918 0.02359122 0.05691462 0.004980087 0.04385167 0.004980087 0.08029597 0.06520694 0.07576775 0.04444015 0.08029597 0.0651983 0.07576775 0.1491574 0.0261951 0.1260133 0.0261951 0.1491574 0.04122006 0.1491574 0.01662021 0.1260133 0.04122006 0.1260133 0.0261951 0.1491574 0.07576775 0.1260133 0.07576775 0.1491574 0.06570899 0.1491574 0.04122006 0.1260133 0.04122006 0.1491574 0.06187582 0.1260133 0.06079733 0.04548358 0.04121136 0.1260133 0.0261951 0.04060715 0.07576775 0.04444015 0.07576775 0.04060715 0.02166706 0.06520694 0.0261951 0.08586275 0.02166706 0.0651983 0.07576775 0.08969575 0.0261951 0.08586275 0.0261951 0.08969575 0.08146178 0.04548358 0.06079733 0.02359122 0.06079733 0.04548358 0.07576775 0.1260133 0.0261951 0.04548358 0.0261951 0.1260133 0.04121136 0.1260133 0.04003918 0.04548358 0.06079733 0.04548358 0.0261951 0.1260133 0.07576775 0.04548358 0.07576775 0.1260133 0.04003918 0.02359122 0.05691462 0.004980087 0.06079733 0.02359122 0.07576775 0.04548358 0.0261951 0.02359122 0.0261951 0.04548358 0.06079733 0.04548358 0.04003918 0.02359122 0.06079733 0.02359122 0.0261951 0.04548358 0.07576775 0.02359122 0.07576775 0.04548358 0.08029597 0.08090156 0.0261951 0.06783843 0.02166706 0.08090156 0.0261951 0.02359122 0.07576775 0.004980087 0.07576775 0.02359122 0.06079733 0.02359122 0.06991893 0.004980087 0.05691462 0.004980087 0.07576775 0.02359122 0.0261951 0.004980087 0.0261951 0.02359122 0.07576775 0.09390568 0.02166706 0.08090156 0.0261951 0.09390568 0.08146178 0.04548358 0.06079733 0.02359122 0.08146178 0.02359122 0.06079733 0.02359122 0.06991893 0.004980087 0.08146178 0.02359122 0.06187582 0.1260133 0.06079733 0.04548358 0.08146178 0.04548358 0.06079733 0.04548358 0.04003918 0.02359122 0.04003918 0.04548358 0.02166706 0.06520694 0.0261951 0.04444015 0.0261951 0.04060715 0.04121136 0.1260133 0.04003918 0.04548358 0.02045339 0.1260133 0.04122006 0.1491574 0.01662021 0.1260133 0.01662021 0.1491574 0.06570899 0.1491574 0.04122006 0.1260133 0.06570899 0.1260133 0.08029597 0.06520694 0.07576775 0.08586275 0.07576775 0.08969575 0.625 0.8788461 0.625 0.75 0.625 0.75 0.625 1 0.625 0.8788462 0.625 1 0.625 0.75 0.625 0.8788462 0.625 0.75 0.625 1 0.625 0.8788462 0.625 0.8788462 0.625 0.8788462 0.625 0.75 0.625 0.8788462 0.625 1 0.625 1 0.625 1 0.625 1 0.625 0.8788462 0.625 0.8788461 0.625 0.75 0.625 0.75 0.625 0.75 0.625 0.75 0.625 0.8788462 0.625 0.75 0.625 0.8788462 0.625 1 0.625 1 0.625 0.75 0.625 0.8788462 0.625 0.75 0.4398096 0.06998401 0.4374545 0.1274766 0.4505477 0.1274766 0.4673835 0.1690781 0.4767341 0.1274766 0.4804766 0.1690781 0.4329972 0.1274766 0.4622943 0.1690781 0.4329972 0.1690781 0.4505477 0.1274766 0.4411971 0.1690781 0.4542903 0.1690781 0.4622943 0.1274766 0.4329972 0.1690781 0.4622943 0.1690781 0.4529028 0.06998401 0.4504233 0.0054937 0.465996 0.06998401 0.4622943 0.06998401 0.4329972 0.1274766 0.4622943 0.1274766 0.4636409 0.1274766 0.465996 0.06998401 0.4767341 0.1274766 0.4329972 0.06998401 0.4622943 0.1274766 0.4329972 0.1274766 0.4329972 0.0917598 0.4658113 0.07866662 0.4294803 0.07866662 0.4329972 0.03637075 0.4622943 0.06998401 0.4329972 0.06998401 0.4242369 0.0260784 0.4267164 0.06998401 0.4398096 0.06998401 0.4622943 0.0054937 0.4329972 0.06998401 0.4622943 0.06998401 0.375 1 0.375 0.75 0.375 1 0.375 0.75 0.375 1 0.375 1 0.375 1 0.375 0.75 0.375 1 0.375 1 0.375 0.75 0.375 0.75 0.375 0.75 0.375 1 0.375 0.75 0.375 0.75 0.375 1 0.375 1 0.375 0.75 0.375 0.75 0.375 0.75 0.375 1 0.375 1 0.375 1 0.375 0.75 0.375 0.75 0.375 0.75 0.375 1 0.375 1 0.375 1 0.375 1 0.375 1 0.375 1 0.375 1 0.375 1 0.375 1 0.375 0.75 0.375 0.75 0.375 0.75 0.375 0.75 0.375 0.75 0.375 0.75 0.375 1 0.375 0.75 0.375 0.75 0.375 0.75 0.375 1 0.375 1 0.826741 0.892498 0.8107482 0.8215969 0.826741 0.8131261 0.4671954 0.8840273 0.4512027 0.8131261 0.4671954 0.8215969 0.8107482 0.8840273 0.4512027 0.892498 0.4671954 0.8840273 0.4512027 0.8131261 0.8107482 0.8215969 0.4671954 0.8215969 0.4512027 0.892498 0.4352099 0.8215969 0.4512027 0.8131261 0.2382134 0.8840273 0.2093706 0.8131261 0.2382134 0.8215969 0.4512027 0.892498 0.2382134 0.8840273 0.4352099 0.8840273 0.4512027 0.8131261 0.2382134 0.8215969 0.2093706 0.8131261 0.9852501 0.8128962 0.4532845 0.9954059 0.4532845 0.8128962 0.826741 0.8131261 0.8151246 0.8863453 0.826741 0.892498 0.462819 0.8192788 0.4512027 0.892498 0.462819 0.8863453 0.4512027 0.8131261 0.8151246 0.8192788 0.826741 0.8131261 0.4512027 0.892498 0.8151246 0.8863453 0.462819 0.8863453 0.4512027 0.8131261 0.4396446 0.8863453 0.4512027 0.892498 0.2337788 0.8192788 0.2124114 0.892498 0.2337788 0.8863453 0.2337788 0.8192788 0.4512027 0.8131261 0.2124114 0.8131261 0.4512027 0.892498 0.2337788 0.8863453 0.2124114 0.892498 0.4504233 0.0054937 0.4529028 0.06998401 0.465996 0.06998401 0.4373301 0.01578605 0.4398096 0.06998401 0.4529028 0.06998401 0.4294803 0.06557345 0.4622943 0.05248028 0.4329972 0.05248028 0.4294803 0.07866662 0.4658113 0.06557345 0.4294803 0.06557345 0.4374545 0.1274766 0.4398096 0.06998401 0.4505477 0.1274766 0.4505477 0.1274766 0.4529028 0.06998401 0.4636409 0.1274766 0.4267164 0.06998401 0.4242369 0.0260784 0.4398096 0.06998401 0.4398096 0.06998401 0.4373301 0.01578605 0.4529028 0.06998401 0.4767341 0.1274766 0.4673835 0.1690781 0.4804766 0.1690781 0.4636409 0.1274766 0.4542903 0.1690781 0.4673835 0.1690781 0.4411971 0.1690781 0.4505477 0.1274766 0.4542903 0.1690781 0.4542903 0.1690781 0.4636409 0.1274766 0.4673835 0.1690781 0.465996 0.06998401 0.4636409 0.1274766 0.4767341 0.1274766 0.4529028 0.06998401 0.4505477 0.1274766 0.4636409 0.1274766 0.4139167 0.1875004 0.3497307 0.1706222 0.4139167 0.175352 0.4295174 0.193516 0.5555519 0.1792191 0.5555519 0.193516 0.4139167 0.207157 0.3497307 0.2043785 0.4139167 0.1996487 0.5555519 0.1792191 0.4295174 0.170383 0.5555519 0.170383 0.3895926 0.1759157 0.3640592 0.1971544 0.3937533 0.1971544 0.5332639 0.2323583 0.8962557 0.1555359 0.8962557 0.2323583 0.4139167 0.1996487 0.3497307 0.1875004 0.3497307 0.2043785 0.5555519 0.170383 0.4295174 0.1792191 0.5555519 0.1792191 0.4139167 0.1875004 0.3497307 0.2043785 0.3497307 0.1875004 0.4295174 0.1792191 0.5555519 0.193516 0.5555519 0.1792191 0.4139167 0.1678438 0.3497307 0.1706222 0.4139167 0.175352 0.5555519 0.193516 0.4295174 0.207813 0.5555519 0.207813 0.4139167 0.207157 0.3497307 0.2043785 0.3497307 0.2148098 0.4139167 0.1678438 0.3497307 0.1706222 0.3497307 0.1601909 0.4295174 0.207813 0.5555519 0.2166489 0.5555519 0.207813 0.4139167 0.175352 0.3497307 0.1875004 0.4139167 0.1875004 0.3640592 0.1601909 0.3937533 0.1601909 0.3937533 0.2148098 0.8962557 0.1555358 0.5332639 0.2323583 0.8962557 0.2323583 0.4426017 0.09338504 0.7065303 0.09338504 0.7880887 0.2323583 0.4295174 0.2166489 0.5555519 0.207813 0.5555519 0.2166489 0.3895926 0.1759157 0.3640592 0.1971544 0.3682196 0.1759157 0.5555519 0.207813 0.4295174 0.193516 0.5555519 0.193516 0.2598803 0.7910595 0.1284639 1.007725 0.1284639 0.7910595 0.625 1 0.625 0.8788462 0.625 0.8788462 0.625 0.8788462 0.625 0.75 0.625 0.8788462 0.625 1 0.625 1 0.625 1 0.625 1 0.625 0.8788462 0.625 0.8788461 0.625 0.75 0.625 0.75 0.625 0.75 0.625 0.75 0.625 0.8788462 0.625 0.75 0.625 0.8788462 0.625 1 0.625 1 0.625 0.75 0.625 0.8788462 0.625 0.75 0.2293221 0.7910595 0.2293221 0.9224757 0.2780733 0.9224757 0.2293221 0.9224757 0.1756085 1.007725 0.1756085 0.7910595 0.1756085 1.007725 0.1756085 0.7910595 0.1161227 0.7910595 0.2598803 0.9148693 0.2598803 0.8611558 0.1284639 0.8611558 0.1284639 0.9224757 0.1284639 1.007725 0.2598803 1.007725 0.1284639 0.9636206 0.1284639 0.9148693 0.2598803 0.9148693 0.2598803 0.9636206 0.2598803 0.9148693 0.1284639 0.9148693 0.2780733 0.9224757 0.2293221 0.9224757 0.2293221 0.7910595 0.1756085 0.7910595 0.1756085 1.007725 0.2293221 0.9224757 0.2598803 0.8611558 0.2598803 0.80167 0.1284639 0.80167 0.1284639 0.8611558 0.1284639 0.80167 0.2598803 0.80167 0.1756085 1.007725 0.1161227 1.007725 0.1161227 0.7910595 0.8107482 0.8840273 0.4671954 0.8840273 0.4671954 0.8215969 0.4532845 0.9966956 0.1107195 0.9967988 0.1150268 0.8123605 0.9852501 0.8128962 0.4532845 0.8128962 0.4532845 0.9954059 0.8151246 0.8192788 0.462819 0.8192788 0.462819 0.8863453 0.4974287 0.9954059 0.2851549 0.9954059 0.2851549 0.8128962 0.4352099 0.8840273 0.2382134 0.8840273 0.2382134 0.8215969 0.4974287 0.8123605 0.4974287 0.8224279 0.2851549 0.8224279 0.1107195 0.9967988 0.1007734 0.9897736 0.1007734 0.8224279 0.4532845 0.9966956 0.4532845 0.7910667 0.1150268 0.8123605 0.4396446 0.8192788 0.2337788 0.8192788 0.2337788 0.8863453 0.2023493 0.8131261 0.1654465 0.8131261 0.1654465 0.892498 0.1107195 0.9967988 0.1150268 0.8123605 0.1007734 0.8224279 0.2851549 0.9967988 0.2851549 0.9897736 0.4974287 0.9897736 0.4974287 0.9897736 0.2851549 0.9897736 0.2851549 0.8224279 0.1007734 0.9897736 0.1007734 0.8224279 0.04849886 0.8224279 0.2023493 0.892498 0.1654465 0.892498 0.1654465 0.8131261 0.1007734 0.9897736 0.04849886 0.9897736 0.04849886 0.8224279 0.625 1 0.625 1 0.625 0.8788462 0.625 0.75 0.625 0.75 0.625 0.8788462 0.625 1 0.625 1 0.625 1 0.625 0.8788461 0.625 1 0.625 1 0.625 0.75 0.625 0.75 0.625 0.75 0.04003918 0.02359122 0.06079733 0.02359122 0.05691462 0.004980087 0.08029597 0.06520694 0.07576775 0.04060715 0.07576775 0.04444015 0.07576775 0.1491574 0.07576775 0.1260133 0.0261951 0.1260133 0.04122006 0.1491574 0.01662021 0.1491574 0.01662021 0.1260133 0.0261951 0.1491574 0.0261951 0.1260133 0.07576775 0.1260133 0.06570899 0.1491574 0.06570899 0.1260133 0.04122006 0.1260133 0.06187582 0.1260133 0.08146178 0.04548358 0.06079733 0.04548358 0.0261951 0.04060715 0.0261951 0.04444015 0.07576775 0.04444015 0.02166706 0.06520694 0.0261951 0.08969575 0.0261951 0.08586275 0.07576775 0.08969575 0.07576775 0.08586275 0.0261951 0.08586275 0.08146178 0.04548358 0.08146178 0.02359122 0.06079733 0.02359122 0.07576775 0.1260133 0.07576775 0.04548358 0.0261951 0.04548358 0.04121136 0.1260133 0.02045339 0.1260133 0.04003918 0.04548358 0.0261951 0.1260133 0.0261951 0.04548358 0.07576775 0.04548358 0.04003918 0.02359122 0.04385167 0.004980087 0.05691462 0.004980087 0.07576775 0.04548358 0.07576775 0.02359122 0.0261951 0.02359122 0.06079733 0.04548358 0.04003918 0.04548358 0.04003918 0.02359122 0.0261951 0.04548358 0.0261951 0.02359122 0.07576775 0.02359122 0.08029597 0.08090156 0.07576775 0.06783843 0.0261951 0.06783843 0.0261951 0.02359122 0.0261951 0.004980087 0.07576775 0.004980087 0.06079733 0.02359122 0.08146178 0.02359122 0.06991893 0.004980087 0.07576775 0.02359122 0.07576775 0.004980087 0.0261951 0.004980087 0.07576775 0.09390568 0.08029597 0.08090156 0.02166706 0.08090156 0.08146178 0.04548358 0.06079733 0.04548358 0.06079733 0.02359122 0.06079733 0.02359122 0.05691462 0.004980087 0.06991893 0.004980087 0.06187582 0.1260133 0.04121136 0.1260133 0.06079733 0.04548358 0.06079733 0.04548358 0.06079733 0.02359122 0.04003918 0.02359122 0.02166706 0.06520694 0.02166706 0.0651983 0.0261951 0.04444015 0.04121136 0.1260133 0.06079733 0.04548358 0.04003918 0.04548358 0.04122006 0.1491574 0.04122006 0.1260133 0.01662021 0.1260133 0.06570899 0.1491574 0.04122006 0.1491574 0.04122006 0.1260133 0.08029597 0.06520694 0.08029597 0.0651983 0.07576775 0.08586275 0.625 0.8788461 0.625 0.8788462 0.625 0.75 0.625 1 0.625 0.8788462 0.625 0.8788462 0.625 0.75 0.625 0.8788462 0.625 0.8788462 0.625 1 0.625 1 0.625 0.8788462 0.625 0.8788462 0.625 0.75 0.625 0.75 0.625 1 0.625 1 0.625 1 0.625 1 0.625 1 0.625 0.8788462 0.625 0.75 0.625 0.75 0.625 0.75 0.625 0.75 0.625 0.8788461 0.625 0.8788462 0.625 0.8788462 0.625 0.8788462 0.625 1 0.625 0.75 0.625 0.8788462 0.625 0.8788462 0.4398096 0.06998401 0.4267164 0.06998401 0.4374545 0.1274766 0.4673835 0.1690781 0.4636409 0.1274766 0.4767341 0.1274766 0.4329972 0.1274766 0.4622943 0.1274766 0.4622943 0.1690781 0.4505477 0.1274766 0.4374545 0.1274766 0.4411971 0.1690781 0.4622943 0.1274766 0.4329972 0.1274766 0.4329972 0.1690781 0.4529028 0.06998401 0.4373301 0.01578605 0.4504233 0.0054937 0.4622943 0.06998401 0.4329972 0.06998401 0.4329972 0.1274766 0.4636409 0.1274766 0.4529028 0.06998401 0.465996 0.06998401 0.4329972 0.06998401 0.4622943 0.06998401 0.4622943 0.1274766 0.4329972 0.0917598 0.4622943 0.0917598 0.4658113 0.07866662 0.4329972 0.03637075 0.4622943 0.03637075 0.4622943 0.06998401 0.4242369 0.0260784 0.4111437 0.03637075 0.4267164 0.06998401 0.4622943 0.0054937 0.4329972 0.0054937 0.4329972 0.06998401 0.375 1 0.375 0.75 0.375 0.75 0.375 0.75 0.375 0.75 0.375 1 0.375 1 0.375 0.75 0.375 0.75 0.375 1 0.375 1 0.375 0.75 0.375 0.75 0.375 1 0.375 1 0.375 0.75 0.375 0.75 0.375 1 0.375 0.75 0.375 0.75 0.375 0.75 0.375 1 0.375 1 0.375 1 0.375 0.75 0.375 0.75 0.375 0.75 0.375 1 0.375 1 0.375 1 0.375 1 0.375 1 0.375 1 0.375 1 0.375 1 0.375 1 0.375 0.75 0.375 0.75 0.375 0.75 0.375 0.75 0.375 0.75 0.375 0.75 0.375 1 0.375 1 0.375 0.75 0.375 0.75 0.375 0.75 0.375 1 0.826741 0.892498 0.8107482 0.8840273 0.8107482 0.8215969 0.4671954 0.8840273 0.4512027 0.892498 0.4512027 0.8131261 0.8107482 0.8840273 0.826741 0.892498 0.4512027 0.892498 0.4512027 0.8131261 0.826741 0.8131261 0.8107482 0.8215969 0.4512027 0.892498 0.4352099 0.8840273 0.4352099 0.8215969 0.2382134 0.8840273 0.2093706 0.892498 0.2093706 0.8131261 0.4512027 0.892498 0.2093706 0.892498 0.2382134 0.8840273 0.4512027 0.8131261 0.4352099 0.8215969 0.2382134 0.8215969 0.9852501 0.8128962 0.9852501 0.9954059 0.4532845 0.9954059 0.826741 0.8131261 0.8151246 0.8192788 0.8151246 0.8863453 0.462819 0.8192788 0.4512027 0.8131261 0.4512027 0.892498 0.4512027 0.8131261 0.462819 0.8192788 0.8151246 0.8192788 0.4512027 0.892498 0.826741 0.892498 0.8151246 0.8863453 0.4512027 0.8131261 0.4396446 0.8192788 0.4396446 0.8863453 0.2337788 0.8192788 0.2124114 0.8131261 0.2124114 0.892498 0.2337788 0.8192788 0.4396446 0.8192788 0.4512027 0.8131261 0.4512027 0.892498 0.4396446 0.8863453 0.2337788 0.8863453 0.4504233 0.0054937 0.4373301 0.01578605 0.4529028 0.06998401 0.4373301 0.01578605 0.4242369 0.0260784 0.4398096 0.06998401 0.4294803 0.06557345 0.4658113 0.06557345 0.4622943 0.05248028 0.4294803 0.07866662 0.4658113 0.07866662 0.4658113 0.06557345 0.4374545 0.1274766 0.4267164 0.06998401 0.4398096 0.06998401 0.4505477 0.1274766 0.4398096 0.06998401 0.4529028 0.06998401 0.4267164 0.06998401 0.4111437 0.03637075 0.4242369 0.0260784 0.4398096 0.06998401 0.4242369 0.0260784 0.4373301 0.01578605 0.4767341 0.1274766 0.4636409 0.1274766 0.4673835 0.1690781 0.4636409 0.1274766 0.4505477 0.1274766 0.4542903 0.1690781 0.4411971 0.1690781 0.4374545 0.1274766 0.4505477 0.1274766 0.4542903 0.1690781 0.4505477 0.1274766 0.4636409 0.1274766 0.465996 0.06998401 0.4529028 0.06998401 0.4636409 0.1274766 0.4529028 0.06998401 0.4398096 0.06998401 0.4505477 0.1274766 0.4139167 0.1875004 0.3497307 0.1875004 0.3497307 0.1706222 0.4295174 0.193516 0.4295174 0.1792191 0.5555519 0.1792191 0.4139167 0.207157 0.3497307 0.2148098 0.3497307 0.2043785 0.5555519 0.1792191 0.4295174 0.1792191 0.4295174 0.170383 0.3895926 0.1759157 0.3682196 0.1759157 0.3640592 0.1971544 0.5332639 0.2323583 0.5332639 0.1555359 0.8962557 0.1555359 0.4139167 0.1996487 0.4139167 0.1875004 0.3497307 0.1875004 0.5555519 0.170383 0.4295174 0.170383 0.4295174 0.1792191 0.4139167 0.1875004 0.4139167 0.1996487 0.3497307 0.2043785 0.4295174 0.1792191 0.4295174 0.193516 0.5555519 0.193516 0.4139167 0.1678438 0.3497307 0.1601909 0.3497307 0.1706222 0.5555519 0.193516 0.4295174 0.193516 0.4295174 0.207813 0.4139167 0.207157 0.4139167 0.1996487 0.3497307 0.2043785 0.4139167 0.1678438 0.4139167 0.175352 0.3497307 0.1706222 0.4295174 0.207813 0.4295174 0.2166489 0.5555519 0.2166489 0.4139167 0.175352 0.3497307 0.1706222 0.3497307 0.1875004 0.3937533 0.1601909 0.4177762 0.1706222 0.4269523 0.1875004 0.4269523 0.1875004 0.4177762 0.2043785 0.3937533 0.1601909 0.4177762 0.2043785 0.3937533 0.2148098 0.3937533 0.1601909 0.3937533 0.2148098 0.3640592 0.2148098 0.3400362 0.1706222 0.3640592 0.2148098 0.3400362 0.2043785 0.3400362 0.1706222 0.3400362 0.2043785 0.3308603 0.1875004 0.3400362 0.1706222 0.3400362 0.1706222 0.3640592 0.1601909 0.3937533 0.2148098 0.8962557 0.1555358 0.5332639 0.1555358 0.5332639 0.2323583 0.7880887 0.2323583 0.7065303 0.2945092 0.574566 0.3182487 0.574566 0.3182487 0.4426017 0.2945092 0.7880887 0.2323583 0.4426017 0.2945092 0.3610432 0.2323583 0.7880887 0.2323583 0.3610432 0.2323583 0.3610432 0.1555358 0.4426017 0.09338504 0.4426017 0.09338504 0.574566 0.06964558 0.7065303 0.09338504 0.7065303 0.09338504 0.7880887 0.1555359 0.7880887 0.2323583 0.3610432 0.2323583 0.4426017 0.09338504 0.7880887 0.2323583 0.4295174 0.2166489 0.4295174 0.207813 0.5555519 0.207813 0.3895926 0.1759157 0.3937533 0.1971544 0.3640592 0.1971544 0.5555519 0.207813 0.4295174 0.207813 0.4295174 0.193516 0.2598803 0.7910595 0.2598803 1.007725 0.1284639 1.007725 0.625 1 0.625 1 0.625 0.8788462 0.625 0.8788462 0.625 0.75 0.625 0.75 0.625 1 0.625 1 0.625 1 0.625 1 0.625 1 0.625 0.8788462 0.625 0.75 0.625 0.75 0.625 0.75 0.625 0.75 0.625 0.8788461 0.625 0.8788462 0.625 0.8788462 0.625 0.8788462 0.625 1 0.625 0.75 0.625 0.8788462 0.625 0.8788462</float_array>
          <technique_common>
            <accessor source="#Cube_002-mesh-map-0-array" count="1044" stride="2">
              <param name="S" type="float"/>
              <param name="T" type="float"/>
            </accessor>
          </technique_common>
        </source>
        <vertices id="Cube_002-mesh-vertices">
          <input semantic="POSITION" source="#Cube_002-mesh-positions"/>
        </vertices>
        <triangles material="Material_001-material" count="348">
          <input semantic="VERTEX" source="#Cube_002-mesh-vertices" offset="0"/>
          <input semantic="NORMAL" source="#Cube_002-mesh-normals" offset="1"/>
          <input semantic="TEXCOORD" source="#Cube_002-mesh-map-0" offset="2" set="0"/>
          <p>8 0 0 3 0 1 2 0 2 11 1 3 4 1 4 10 1 5 1 2 6 12 2 7 13 2 8 10 3 9 0 3 10 8 3 11 9 4 12 5 4 13 11 4 14 3 5 15 11 5 16 7 5 17 6 6 18 8 6 19 2 6 20 7 7 21 10 7 22 6 7 23 0 8 24 9 8 25 8 8 26 4 9 27 12 9 28 0 9 29 1 10 30 14 10 31 5 10 32 5 11 33 15 11 34 4 11 35 116 12 36 122 12 37 118 12 38 127 13 39 147 13 40 142 13 41 133 14 42 121 14 43 117 14 44 135 15 45 137 15 46 132 15 47 123 16 48 136 16 49 139 16 50 124 17 51 131 17 52 126 17 53 147 18 54 16 18 55 144 18 56 130 19 57 19 19 58 147 19 59 125 20 60 144 20 61 129 20 62 143 21 63 145 21 64 140 21 65 19 22 66 20 22 67 16 22 68 129 23 69 16 23 70 17 23 71 129 24 72 18 24 73 130 24 74 22 25 75 20 25 76 23 25 77 17 26 78 20 26 79 21 26 80 17 27 81 22 27 82 18 27 83 18 28 84 23 28 85 19 28 86 29 29 87 71 29 88 70 29 89 27 30 90 71 30 91 69 30 92 26 31 93 29 31 94 24 31 95 68 32 96 29 32 97 70 32 98 27 33 99 28 33 100 30 33 101 50 34 102 66 35 103 54 36 104 59 37 105 43 38 106 61 39 107 33 40 108 36 41 109 32 42 110 57 43 111 39 44 112 59 37 113 34 45 114 39 44 115 35 46 116 32 42 117 58 47 118 56 48 119 40 49 120 62 50 121 60 51 122 38 52 123 43 38 124 39 44 125 58 47 126 40 49 127 60 51 128 37 53 129 40 49 130 36 41 131 44 54 132 64 55 133 62 50 134 41 56 135 44 54 136 40 49 137 61 39 138 47 57 139 63 58 140 42 59 141 47 57 142 43 38 143 51 60 144 67 61 145 65 62 146 45 63 147 48 64 148 44 54 149 63 58 150 51 60 151 65 62 152 46 65 153 51 60 154 47 57 155 67 61 156 54 36 157 66 35 158 50 34 159 55 66 160 51 60 161 64 55 162 52 67 163 66 35 164 49 68 165 52 67 166 48 64 167 53 69 168 66 35 169 52 67 170 45 63 171 65 62 172 49 68 173 65 62 174 53 69 175 49 68 176 41 56 177 63 58 178 45 63 179 62 50 180 50 34 181 46 65 182 58 47 183 42 59 184 38 52 185 60 51 186 46 65 187 42 59 188 56 48 189 38 52 190 34 45 191 33 40 192 59 37 193 37 53 194 59 37 195 41 56 196 37 53 197 68 70 198 28 70 199 25 70 200 26 71 201 71 71 202 31 71 203 28 72 204 71 72 205 30 72 206 77 73 207 83 73 208 82 73 209 81 74 210 78 74 211 83 74 212 72 75 213 79 75 214 77 75 215 72 76 216 82 76 217 80 76 218 73 77 219 78 77 220 75 77 221 73 78 222 82 78 223 76 78 224 81 79 225 79 79 226 74 79 227 76 80 228 83 80 229 78 80 230 159 81 231 88 81 232 155 81 233 149 82 234 91 82 235 87 82 236 88 83 237 85 83 238 84 83 239 155 84 240 84 84 241 151 84 242 91 85 243 86 85 244 87 85 245 157 86 246 99 86 247 95 86 248 95 87 249 90 87 250 91 87 251 153 88 252 95 88 253 91 88 254 92 89 255 89 89 256 88 89 257 98 90 258 161 90 259 162 90 260 96 91 261 93 91 262 92 91 263 163 92 264 92 92 265 159 92 266 99 93 267 94 93 268 95 93 269 110 94 270 108 95 271 111 96 272 112 97 273 114 98 274 115 99 275 104 100 276 101 101 277 100 102 278 110 94 279 113 103 280 109 104 281 103 105 282 100 102 283 101 101 284 108 95 285 115 99 286 111 96 287 103 105 288 108 95 289 109 104 290 102 106 291 111 96 292 100 102 293 107 107 294 112 97 295 105 108 296 106 109 297 115 99 298 114 98 299 100 102 300 115 99 301 104 100 302 102 106 303 114 98 304 110 94 305 103 105 306 113 103 307 107 107 308 101 101 309 112 97 310 108 95 311 104 100 312 107 107 313 105 108 314 103 105 315 106 109 316 102 106 317 117 110 318 118 110 319 119 110 320 120 111 321 123 111 322 122 111 323 116 112 324 121 112 325 120 112 326 123 113 327 118 113 328 122 113 329 125 114 330 126 114 331 127 114 332 128 115 333 130 115 334 131 115 335 125 116 336 128 116 337 124 116 338 127 117 339 131 117 340 130 117 341 134 118 342 123 118 343 139 118 344 134 119 345 132 119 346 133 119 347 138 120 348 136 120 349 137 120 350 139 121 351 135 121 352 134 121 353 136 122 354 132 122 355 137 122 356 142 123 357 140 123 358 141 123 359 146 124 360 144 124 361 145 124 362 146 125 363 142 125 364 147 125 365 141 126 366 145 126 367 144 126 368 98 127 369 158 127 370 94 127 371 162 128 372 159 128 373 158 128 374 163 129 375 97 129 376 96 129 377 162 130 378 160 130 379 163 130 380 89 131 381 156 131 382 152 131 383 152 132 384 157 132 385 153 132 386 93 133 387 160 133 388 156 133 389 156 134 390 161 134 391 157 134 392 90 135 393 150 135 394 86 135 395 154 136 396 151 136 397 150 136 398 85 137 399 152 137 400 148 137 401 148 138 402 153 138 403 149 138 404 94 139 405 154 139 406 90 139 407 158 140 408 155 140 409 154 140 410 165 141 411 203 142 412 164 143 413 167 144 414 168 145 415 166 146 416 192 147 417 195 148 418 193 149 419 168 145 420 171 150 421 170 151 422 192 147 423 197 152 424 196 153 425 171 150 426 172 154 427 170 151 428 190 155 429 199 156 430 198 157 431 172 154 432 175 158 433 174 159 434 165 141 435 195 148 436 194 160 437 175 158 438 176 161 439 174 159 440 187 162 441 200 163 442 188 164 443 176 161 444 179 165 445 178 166 446 191 167 447 198 157 448 197 152 449 186 168 450 203 142 451 202 169 452 179 165 453 180 170 454 178 166 455 188 164 456 199 156 457 189 171 458 201 172 459 202 169 460 196 153 461 180 170 462 183 173 463 182 174 464 179 165 465 175 158 466 171 150 467 183 173 468 184 175 469 182 174 470 186 168 471 201 172 472 187 162 473 184 175 474 167 144 475 166 146 476 15 176 477 13 176 478 12 176 479 209 177 480 215 177 481 214 177 482 213 178 483 210 178 484 215 178 485 204 179 486 211 179 487 209 179 488 204 180 489 214 180 490 212 180 491 205 181 492 210 181 493 207 181 494 205 182 495 214 182 496 208 182 497 213 183 498 211 183 499 206 183 500 208 184 501 215 184 502 210 184 503 8 185 504 9 185 505 3 185 506 11 186 507 5 186 508 4 186 509 1 187 510 0 187 511 12 187 512 10 188 513 4 188 514 0 188 515 9 189 516 1 189 517 5 189 518 3 190 519 9 190 520 11 190 521 6 191 522 10 191 523 8 191 524 7 192 525 11 192 526 10 192 527 0 193 528 1 193 529 9 193 530 4 194 531 15 194 532 12 194 533 1 195 534 13 195 535 14 195 536 5 196 537 14 196 538 15 196 539 116 197 540 120 197 541 122 197 542 127 198 543 130 198 544 147 198 545 133 199 546 136 199 547 121 199 548 135 200 549 138 200 550 137 200 551 123 201 552 121 201 553 136 201 554 124 202 555 128 202 556 131 202 557 147 203 558 19 203 559 16 203 560 130 204 561 18 204 562 19 204 563 125 205 564 141 205 565 144 205 566 143 206 567 146 206 568 145 206 569 19 207 570 23 207 571 20 207 572 129 208 573 144 208 574 16 208 575 129 209 576 17 209 577 18 209 578 22 210 579 21 210 580 20 210 581 17 211 582 16 211 583 20 211 584 17 212 585 21 212 586 22 212 587 18 213 588 22 213 589 23 213 590 29 214 591 31 214 592 71 214 593 27 215 594 30 215 595 71 215 596 26 216 597 31 216 598 29 216 599 68 217 600 24 217 601 29 217 602 27 218 603 25 218 604 28 218 605 50 34 606 64 55 607 66 35 608 59 37 609 39 44 610 43 38 611 33 40 612 37 53 613 36 41 614 57 43 615 35 46 616 39 44 617 34 45 618 38 52 619 39 44 620 32 42 621 36 41 622 58 47 623 40 49 624 44 54 625 62 50 626 38 52 627 42 59 628 43 38 629 58 47 630 36 41 631 40 49 632 37 53 633 41 56 634 40 49 635 44 54 636 48 64 637 64 55 638 41 56 639 45 63 640 44 54 641 61 39 642 43 38 643 47 57 644 42 59 645 46 65 646 47 57 647 51 60 648 55 66 649 67 61 650 45 63 651 49 68 652 48 64 653 63 58 654 47 57 655 51 60 656 46 65 657 50 34 658 51 60 659 67 61 660 55 66 661 54 36 662 50 34 663 54 36 664 55 66 665 64 55 666 48 64 667 52 67 668 49 68 669 53 69 670 52 67 671 53 69 672 67 61 673 66 35 674 45 63 675 63 58 676 65 62 677 65 62 678 67 61 679 53 69 680 41 56 681 61 39 682 63 58 683 62 50 684 64 55 685 50 34 686 58 47 687 60 51 688 42 59 689 60 51 690 62 50 691 46 65 692 56 48 693 58 47 694 38 52 695 33 40 696 57 43 697 59 37 698 59 37 699 61 39 700 41 56 701 68 219 702 70 219 703 28 219 704 26 220 705 69 220 706 71 220 707 28 221 708 70 221 709 71 221 710 77 222 711 79 222 712 83 222 713 81 223 714 75 223 715 78 223 716 72 224 717 74 224 718 79 224 719 72 225 720 77 225 721 82 225 722 73 226 723 76 226 724 78 226 725 73 227 726 80 227 727 82 227 728 81 228 729 83 228 730 79 228 731 76 229 732 82 229 733 83 229 734 159 230 735 92 230 736 88 230 737 149 231 738 153 231 739 91 231 740 88 232 741 89 232 742 85 232 743 155 233 744 88 233 745 84 233 746 91 234 747 90 234 748 86 234 749 157 235 750 161 235 751 99 235 752 95 236 753 94 236 754 90 236 755 153 237 756 157 237 757 95 237 758 92 238 759 93 238 760 89 238 761 98 239 762 99 239 763 161 239 764 96 240 765 97 240 766 93 240 767 163 241 768 96 241 769 92 241 770 99 242 771 98 242 772 94 242 773 110 94 774 109 104 775 108 95 776 112 97 777 113 103 778 114 98 779 104 100 780 105 108 781 101 101 782 110 94 783 114 98 784 113 103 785 103 105 786 102 106 787 100 102 788 108 95 789 112 97 790 115 99 791 103 105 792 101 101 793 108 95 794 102 106 795 110 94 796 111 96 797 107 107 798 113 103 799 112 97 800 106 109 801 104 100 802 115 99 803 100 102 804 111 96 805 115 99 806 102 106 807 106 109 808 114 98 809 103 105 810 109 104 811 113 103 812 101 101 813 105 108 814 112 97 815 104 100 816 106 109 817 107 107 818 103 105 819 107 107 820 106 109 821 117 243 822 116 243 823 118 243 824 120 244 825 121 244 826 123 244 827 116 245 828 117 245 829 121 245 830 123 246 831 119 246 832 118 246 833 125 247 834 124 247 835 126 247 836 128 248 837 129 248 838 130 248 839 125 249 840 129 249 841 128 249 842 127 250 843 126 250 844 131 250 845 134 251 846 119 251 847 123 251 848 134 252 849 135 252 850 132 252 851 138 253 852 139 253 853 136 253 854 139 254 855 138 254 856 135 254 857 136 255 858 133 255 859 132 255 860 142 256 861 143 256 862 140 256 863 146 257 864 147 257 865 144 257 866 146 258 867 143 258 868 142 258 869 141 259 870 140 259 871 145 259 872 98 260 873 162 260 874 158 260 875 162 261 876 163 261 877 159 261 878 163 262 879 160 262 880 97 262 881 162 263 882 161 263 883 160 263 884 89 264 885 93 264 886 156 264 887 152 265 888 156 265 889 157 265 890 93 266 891 97 266 892 160 266 893 156 267 894 160 267 895 161 267 896 90 268 897 154 268 898 150 268 899 154 269 900 155 269 901 151 269 902 85 270 903 89 270 904 152 270 905 148 271 906 152 271 907 153 271 908 94 272 909 158 272 910 154 272 911 158 273 912 159 273 913 155 273 914 165 141 915 194 160 916 203 142 917 167 144 918 169 274 919 168 145 920 192 147 921 196 153 922 195 148 923 168 145 924 169 274 925 171 150 926 192 147 927 191 167 928 197 152 929 171 150 930 173 275 931 172 154 932 190 155 933 189 171 934 199 156 935 172 154 936 173 275 937 175 158 938 165 141 939 193 149 940 195 148 941 175 158 942 177 276 943 176 161 944 187 162 945 201 172 946 200 163 947 176 161 948 177 276 949 179 165 950 191 167 951 190 155 952 198 157 953 186 168 954 164 143 955 203 142 956 179 165 957 181 277 958 180 170 959 188 164 960 200 163 961 199 156 962 202 169 963 203 142 964 194 160 965 194 160 966 195 148 967 202 169 968 195 148 969 196 153 970 202 169 971 196 153 972 197 152 973 200 163 974 197 152 975 198 157 976 200 163 977 198 157 978 199 156 979 200 163 980 200 163 981 201 172 982 196 153 983 180 170 984 181 277 985 183 173 986 171 150 987 169 274 988 167 144 989 167 144 990 185 278 991 171 150 992 185 278 993 183 173 994 171 150 995 183 173 996 181 277 997 179 165 998 179 165 999 177 276 1000 175 158 1001 175 158 1002 173 275 1003 171 150 1004 183 173 1005 179 165 1006 171 150 1007 183 173 1008 185 278 1009 184 175 1010 186 168 1011 202 169 1012 201 172 1013 184 175 1014 185 278 1015 167 144 1016 15 279 1017 14 279 1018 13 279 1019 209 280 1020 211 280 1021 215 280 1022 213 281 1023 207 281 1024 210 281 1025 204 282 1026 206 282 1027 211 282 1028 204 283 1029 209 283 1030 214 283 1031 205 284 1032 208 284 1033 210 284 1034 205 285 1035 212 285 1036 214 285 1037 213 286 1038 215 286 1039 211 286 1040 208 287 1041 214 287 1042 215 287 1043</p>
        </triangles>
      </mesh>
    </geometry>
  </library_geometries>
  <library_visual_scenes>
    <visual_scene id="Scene" name="Scene">
      <node id="subm" name="subm" type="NODE">
        <matrix sid="transform">1 0 0 0 0 1 0 0 0 0 1 0 0 0 0 1</matrix>
        <instance_geometry url="#Cube_002-mesh" name="subm">
          <bind_material>
            <technique_common>
              <instance_material symbol="Material_001-material" target="#Material_001-material">
                <bind_vertex_input semantic="Cube_002-mesh-map-0" input_semantic="TEXCOORD" input_set="0"/>
              </instance_material>
            </technique_common>
          </bind_material>
        </instance_geometry>
        <node id="prop_shoot" name="prop_shoot" type="NODE">
          <matrix sid="transform">0.2384694 0.01661365 -0.1264861 -0.06986603 -0.04053098 0.2641189 -0.04172336 -1.088566 0.1209627 0.05574572 0.2353781 0.1606808 0 0 0 1</matrix>
        </node>
      </node>
    </visual_scene>
  </library_visual_scenes>
  <scene>
    <instance_visual_scene url="#Scene"/>
  </scene>
</COLLADA>