<?xml version="1.0" encoding="utf-8"?>
<COLLADA xmlns="http://www.collada.org/2005/11/COLLADASchema" version="1.4.1" xmlns:xsi="http://www.w3.org/2001/XMLSchema-instance">
  <asset>
    <contributor>
      <author>Blender User</author>
      <authoring_tool>Blender 4.3.1 commit date:2024-12-10, commit time:07:46, hash:33d812126174</authoring_tool>
    </contributor>
    <created>2026-05-04T09:44:09</created>
    <modified>2026-05-04T09:44:09</modified>
    <unit name="meter" meter="1"/>
    <up_axis>Z_UP</up_axis>
  </asset>
  <library_effects>
    <effect id="Material_001-effect">
      <profile_COMMON>
        <technique sid="common">
          <lambert>
            <emission>
              <color sid="emission">0 0 0 1</color>
            </emission>
            <diffuse>
              <color sid="diffuse">0.8 0.8 0.8 1</color>
            </diffuse>
            <index_of_refraction>
              <float sid="ior">1.45</float>
            </index_of_refraction>
          </lambert>
        </technique>
      </profile_COMMON>
    </effect>
  </library_effects>
  <library_images/>
  <library_materials>
    <material id="Material_001-material" name="Material.001">
      <instance_effect url="#Material_001-effect"/>
    </material>
  </library_materials>
  <library_geometries>
    <geometry id="Cube_002-mesh" name="Cube.002">
      <mesh>
        <source id="Cube_002-mesh-positions">
          <float_array id="Cube_002-mesh-positions-array" count="648">-0.04172796 0.1940152 0.0321421 -0.04172796 0.2163223 0.2796585 -0.04172796 0.3822085 0.01518142 -0.04172796 0.3957387 0.16531 0.04172796 0.1940152 0.0321421 0.04172796 0.2163223 0.2796585 0.04172796 0.3822085 0.01518142 0.04172796 0.3957387 0.16531 -0.04172796 0.2926689 0.02325111 -0.04172796 0.306199 0.1733797 0.04172796 0.2926689 0.02325111 0.04172796 0.306199 0.1733797 -0.04172796 0.08475983 0.04198861 -0.04172796 0.1070669 0.289505 0.04172796 0.1070669 0.289505 0.04172796 0.08475983 0.04198861 -0.04608923 -0.777365 0.1683587 -0.04608923 -0.760408 0.3565166 0.03736674 -0.760408 0.3565166 0.03736674 -0.777365 0.1683587 -0.04608923 -0.836804 0.1737156 -0.04608923 -0.8198471 0.3618735 0.03736674 -0.8198471 0.3618735 0.03736674 -0.836804 0.1737156 -0.03417491 -0.780557 0.3583325 0.02545267 -0.780557 0.3583325 -0.03417491 -0.818493 0.3617515 0.02545267 -0.818493 0.3617515 0.02545267 -0.776995 0.3978518 -0.03417491 -0.776995 0.3978518 0.02545267 -0.814931 0.4012708 -0.03417491 -0.814931 0.4012708 -0.03104716 0.2632517 0.02590227 0.03104716 0.2632517 0.02590227 -0.03104716 0.0854187 0.04192924 0.03104716 0.0854187 0.04192924 -0.03104716 0.2585519 -0.02624768 0.03104716 0.2585519 -0.02624768 -0.03104716 0.08071869 -0.01022064 0.03104716 0.08071869 -0.01022064 -0.03104716 0.244666 -0.02499628 0.03104716 0.244666 -0.02499628 -0.03104716 0.09460461 -0.0114721 0.03104716 0.09460461 -0.0114721 -0.03104716 0.2992658 -0.2128472 0.03104716 0.2992658 -0.2128472 -0.03104716 0.1492043 -0.1993231 0.03104716 0.1492043 -0.1993231 -0.03104716 0.29482 -0.262177 0.03104716 0.29482 -0.262177 -0.03104716 0.1447585 -0.2486529 0.03104716 0.1447585 -0.2486529 -0.03104716 0.2492244 -0.300345 0.03104716 0.2492244 -0.300345 -0.03104716 0.1547906 -0.2918342 0.03104716 0.1547906 -0.2918342 -0.0367192 0.1745364 0.03389751 0.0367192 0.1745364 0.03389751 -0.0367192 0.1698365 -0.01825237 0.0367192 0.1698365 -0.01825237 -0.0367192 0.1698051 -0.01824957 0.0367192 0.1698051 -0.01824957 -0.0367192 0.2244047 -0.2061005 0.0367192 0.2244047 -0.2061005 -0.0367192 0.219959 -0.2554303 0.0367192 0.219959 -0.2554303 -0.0367192 0.2021143 -0.2960992 0.0367192 0.2021143 -0.2960992 -0.005278468 -0.773711 0.3577156 -0.005278468 -0.825339 0.3623685 -0.005278468 -0.7701491 0.3972349 -0.005278468 -0.821778 0.4018877 -0.02140212 -0.2011066 0.3075214 0.02122759 -0.2011066 0.3075214 -0.02140212 -0.2390426 0.3109402 0.02122759 -0.2390426 0.3109402 0.02122759 -0.1965478 0.3581047 -0.02140212 -0.1965478 0.3581047 0.02122759 -0.2344838 0.3615234 -0.02140212 -0.2344838 0.3615234 -7.43014e-4 -0.1942602 0.3069042 -7.43014e-4 -0.245889 0.3115572 -7.43014e-4 -0.1897014 0.3574875 -7.43014e-4 -0.2413302 0.3621405 -0.02512639 -0.5245898 0.1303242 0.0276829 -0.5239716 0.1246877 -0.02075946 -0.316148 0.1285547 0.03204995 -0.3155298 0.1229183 -0.01128721 -0.5630909 0.04803854 0.04152226 -0.5624726 0.0424019 -0.006920099 -0.3546489 0.04626893 0.04588919 -0.3540306 0.0406326 0.007219672 -0.6458351 -0.06542813 0.06002908 -0.6452168 -0.07106465 0.01158666 -0.4373931 -0.06719762 0.06439626 -0.4367749 -0.07283407 0.01700639 -0.7435346 -0.1313481 0.06981599 -0.7429164 -0.1369846 0.03195405 -0.548928 -0.194316 0.08476358 -0.5483098 -0.1999524 -0.02291733 0.05904078 0.04646497 0.02291733 0.05904078 0.04646497 -0.02291733 -0.08685982 0.05961418 0.02291733 -0.08685982 0.05961418 -0.02291733 0.03756672 -0.02707594 0.02291733 0.03756672 -0.02707594 -0.02291733 -0.07888054 -0.01658117 0.02291733 -0.07888054 -0.01658117 0.02291733 0.08426553 0.05752968 0.02291733 -0.1484346 0.07850164 -0.02291733 -0.1484346 0.07850164 -0.02291733 0.08426553 0.05752968 0.02291733 0.05520159 -0.04200327 0.02291733 -0.1376351 -0.02462399 -0.02291733 -0.1376351 -0.02462399 -0.02291733 0.05520159 -0.04200327 -0.03282123 0.08137273 0.2925493 -0.04172796 0.1056881 0.2742058 0.03282123 0.08137273 0.2925493 0.04172796 0.1056881 0.2742058 -0.03282123 -0.4719843 0.3424199 -0.04172796 -0.4991876 0.3287194 0.03282123 -0.4719843 0.3424199 0.04172796 -0.4991876 0.3287194 -0.03718245 -0.3833272 0.3450691 -0.04608923 -0.3588811 0.3281756 0.0284602 -0.3833272 0.3450691 0.03736674 -0.3588811 0.3281756 -0.03718245 -0.700627 0.3736655 -0.04608923 -0.748387 0.3633961 0.03736674 -0.748387 0.3633961 0.0284602 -0.700627 0.3736655 -0.03525871 0.06743478 0.05904644 -0.04172796 0.08719402 0.06899803 0.04172796 0.08719402 0.06899803 0.03525871 0.06743478 0.05904644 -0.04172796 -0.5176817 0.1235116 -0.03525871 -0.5000203 0.1101877 0.03525871 -0.5000203 0.1101877 0.04172796 -0.5176817 0.1235116 -0.03961986 -0.3991457 0.08964848 -0.04608923 -0.3797178 0.09697341 0.03736674 -0.3797178 0.09697341 0.03089737 -0.3991457 0.08964848 -0.04608923 -0.762179 0.1555786 -0.03961986 -0.728862 0.1402769 0.03089737 -0.728862 0.1402769 0.03736674 -0.762179 0.1555786 0.03547787 -0.4544168 0.1234213 0.03693366 -0.3849362 0.1228315 -0.02855443 -0.3857028 0.1298211 -0.03001028 -0.4551835 0.130411 0.0493173 -0.4929177 0.04113548 0.05077302 -0.4234371 0.04054582 -0.01471519 -0.4242038 0.04753541 -0.01617079 -0.4936844 0.0481252 0.0678243 -0.575662 -0.07233101 0.06927996 -0.5061813 -0.07292085 0.00379163 -0.506948 -0.06593114 0.002335906 -0.5764287 -0.06534129 0.08113795 -0.6779733 -0.1586506 0.08612048 -0.6131044 -0.1796398 0.02063202 -0.613871 -0.17265 0.01564949 -0.67874 -0.1516609 0.01015341 -0.989361 0.2527747 -0.004361093 -0.988937 0.2574717 -0.004361093 -0.811406 0.2545471 -0.004361093 -0.987768 0.2704415 0.01780772 -0.812053 0.2473731 0.01780772 -0.9884151 0.2632675 0.03150892 -0.813745 0.2285912 0.03150892 -0.990108 0.2444856 0.03150892 -0.815838 0.2053755 0.03150892 -0.9922 0.2212698 0.01780772 -0.81753 0.1865935 0.01780772 -0.993892 0.2024879 -0.004361093 -0.8181771 0.1794193 -0.004361093 -0.994539 0.1953138 -0.0265299 -0.81753 0.1865935 -0.0265299 -0.993892 0.2024879 -0.04023104 -0.815838 0.2053755 -0.04023104 -0.9922 0.2212698 -0.04023104 -0.813745 0.2285912 -0.04023104 -0.990108 0.2444856 -0.0265299 -0.812053 0.2473731 -0.0265299 -0.9884151 0.2632675 0.01912391 -0.990469 0.2404777 0.01912391 -0.991839 0.2252778 0.01015341 -0.9929471 0.2129807 -0.004361093 -0.99337 0.2082837 -0.01887553 -0.9929471 0.2129807 -0.02784603 -0.991839 0.2252778 -0.02784603 -0.990469 0.2404777 -0.01887553 -0.989361 0.2527747 -0.004361093 -1.061464 0.273661 -0.02452659 -1.062052 0.2671353 -0.03698951 -1.063592 0.2500509 -0.03698951 -1.065495 0.228933 -0.02452659 -1.067035 0.2118484 -0.004361093 -1.067622 0.2053228 0.01580429 -1.067035 0.2118484 0.02826726 -1.065495 0.228933 0.02826726 -1.063592 0.2500509 0.01580429 -1.062052 0.2671353 -0.01326268 -0.4354853 0.3329268 0.01291984 -0.4354853 0.3329268 -0.01326268 -0.4587851 0.3350266 0.01291984 -0.4587851 0.3350266 0.01291984 -0.4326853 0.3639943 -0.01326268 -0.4326853 0.3639943 0.01291984 -0.455985 0.3660942 -0.01326268 -0.455985 0.3660942 -5.74324e-4 -0.4312803 0.3325479 -5.74324e-4 -0.4629898 0.3354057 -5.74324e-4 -0.4284802 0.3636154 -5.74324e-4 -0.4601899 0.3664732</float_array>
          <technique_common>
            <accessor source="#Cube_002-mesh-positions-array" count="216" stride="3">
              <param name="X" type="float"/>
              <param name="Y" type="float"/>
              <param name="Z" type="float"/>
            </accessor>
          </technique_common>
        </source>
        <source id="Cube_002-mesh-normals">
          <float_array id="Cube_002-mesh-normals-array" count="801">-1 0 0 1 0 0 0 -0.0897594 -0.9959635 0 0.7635687 0.6457267 0 0.08976054 0.9959635 0 -0.08976042 -0.9959634 1 0 0 -1 0 0 0 -0.08976 -0.9959635 0 0.08975994 0.9959635 1 0 0 0 0.08975988 0.9959635 1 0 0 0 -0.08976 -0.9959635 0 -0.9959635 0.08975982 0 0.08976042 0.9959635 0 -0.643898 -0.7651113 1 0 0 0 -0.1517727 -0.9884154 0 -0.08976078 -0.9959635 0 -0.4967018 0.8679213 0 -0.9959637 0.08975732 0 0.08976048 0.9959634 1 0 0 -4.97389e-6 0.08975636 0.9959638 0.2182806 -0.9719482 0.0875808 -0.2314139 0.9689278 -0.08732968 1 0 0 -0.6442366 -0.7634078 -0.04656064 -0.7277966 -0.06603038 -0.6826069 -0.5512893 -0.5627526 -0.6159462 0.7253383 -0.0609622 -0.685688 0.2134866 -0.360302 -0.9080783 0.7304272 0.04802405 0.6813001 0.6842516 0.7263026 -0.0654549 -0.5570365 0.5391389 -0.6316958 -0.6842679 0.7262874 -0.06545305 1 1.42894e-4 -1.2869e-5 0.5571256 -0.6433231 -0.5251158 -0.6843584 -0.7262024 0.06544893 0.6843748 -0.7261872 0.06544756 -0.7253383 -0.0609622 -0.685688 -1 1.42893e-4 -1.28691e-5 -0.4090953 0.262587 -0.8738932 -0.9999527 0.009352743 0.002686381 -0.7304272 0.04802405 0.6813001 -0.5571401 -0.6433117 -0.5251142 0.557051 0.5391279 -0.6316925 -0.641948 0.7632701 0.07294976 -0.9998167 0.01369923 -0.01337265 0.4090917 0.2625674 -0.8739007 0.722027 -0.6885038 -0.06811493 0.9999527 0.009352743 0.002686381 -0.2134866 -0.3602892 -0.9080833 0.6442337 -0.7634105 -0.04655694 0.7277964 -0.06603038 -0.682607 0.9998167 0.01369923 -0.01337265 0.6419318 0.7632836 0.07295155 -0.6056089 0.7067224 -0.3657611 -0.7220123 -0.688519 -0.06811708 0.5512888 -0.5627624 -0.6159376 -0.5857896 0.2656426 -0.7656922 0.6056063 0.7067173 -0.3657756 0.5857956 0.2656304 -0.7656918 0.2182784 0.9719466 -0.08760434 -0.2314497 -0.968919 0.08733206 -7.95632e-6 0.08976179 0.9959633 1.39143e-5 0.08976048 0.9959635 0.2986047 -0.9505245 0.08566498 -1 0 0 -0.3157238 0.945021 -0.08516895 1 1.20356e-7 0 0.2986043 0.9505245 -0.08566576 -0.3157215 -0.9450218 0.08517009 1.05724e-5 0.08975332 0.9959641 -0.9913868 -0.06961816 -0.1109299 0.9885764 0.06939297 0.1337963 0.05653417 -0.9006238 0.4309067 -0.9885761 -0.06939458 -0.1337968 -0.05653411 0.9006254 -0.4309035 0.9927524 0.06973111 0.09787887 -0.07291346 0.8001303 -0.5953783 0.9913867 0.06962001 0.1109308 0.07291585 -0.8001302 0.5953781 -0.09778815 -0.2995697 -0.9490499 0.09498661 -0.550229 0.8295937 -0.9950514 -0.06992828 -0.07059007 -0.0796318 0.7429317 -0.6646137 -0.5678073 -0.5862485 0.5778475 0.5678285 0.6801065 0.4637091 -0.5678157 0.68012 0.4637048 0.5882537 0.4555579 -0.6681501 -0.5882676 -0.5676726 -0.5759246 -0.5882555 0.4555354 -0.6681639 -0.8810057 -0.2665202 0.3908911 0.9263168 -0.3112795 -0.2122316 -0.9263198 -0.3112806 -0.2122169 0.5882693 -0.567653 -0.5759422 0.5677946 -0.5862625 0.5778457 0.9263213 0.2683178 -0.264451 -0.9263178 0.2683168 -0.2644647 0.8810038 0.3321185 0.3369417 0.8810003 -0.2665186 0.3909047 -0.8809992 0.3321168 0.3369554 0 0.6022455 0.7983109 0 -0.4498075 0.8931255 -0.8748612 0.04347729 0.4824184 0.8748616 0.04347729 0.482418 0 0.5685107 0.822676 0 -0.2102157 0.9776551 -0.8541755 0.04667407 0.5178861 0.8525523 0.0470671 0.5205184 1 0 0 0 0.4498121 -0.8931232 0 -0.6022502 -0.7983075 0.874868 -0.04347616 -0.4824064 -0.8748659 -0.04347658 -0.4824102 0 0.3527896 -0.9357027 0 -0.4173626 -0.9087401 0.8415529 -0.08181691 -0.5339427 -0.8415531 -0.08181691 -0.5339424 -0.9638996 0.1035586 -0.2453026 -0.9844654 0.01914429 -0.1745318 -0.09778761 -0.2995699 -0.9490498 -0.0977872 -0.2995655 -0.9490512 0.9667479 -0.1040906 0.2335888 0.9844654 -0.01914459 0.174532 0.9576485 -0.1024264 0.2691065 0.9844656 -0.0191434 0.1745311 -0.9714972 0.1050064 -0.2125247 -0.9844655 0.01914519 -0.1745315 0.9714973 -0.1050063 0.2125248 0.9844655 -0.01914471 0.1745316 -0.9667482 0.1040912 -0.2335875 -0.9844657 0.01914358 -0.1745304 0 0.2178577 0.9759806 0.4726475 -0.5336926 0.7012679 0.5828458 0.2008585 0.7873669 4.29739e-6 -0.5723979 0.819976 0.5877849 0.07261717 0.8057516 4.98734e-7 0.08976 0.9959635 -0.9430636 0.1563566 0.2935708 -0.47263 -0.5337041 0.7012709 -0.5828456 0.2008595 0.7873669 0.7278202 -0.6198797 0.2933036 0.9510561 0.02773725 0.307771 -0.7647467 -0.6143908 -0.1941298 -0.7647702 -0.569752 0.3008475 0.9510564 -0.02773731 -0.3077703 -0.5828452 0.05684417 -0.8105925 4.80976e-7 -0.6642085 -0.7475474 -0.4726399 -0.6504651 -0.5945643 0.4498151 -0.6966765 -0.5588456 0.5877885 -0.07261705 -0.805749 -6.21993e-7 -0.5198734 0.8542433 1.19693e-7 -0.08975994 -0.9959635 0.9430651 0.1013465 -0.3167921 0.4726455 -0.6504527 -0.5945733 0.5828458 0.05684357 -0.8105922 -0.449819 -0.6966689 -0.5588517 -0.5877894 -0.07261699 -0.8057485 -0.943065 0.1013476 -0.3167922 0.9430638 0.1563556 0.2935708 0.7647794 -0.5697399 0.3008472 -0.9510567 -0.02773725 -0.3077692 0 0.03984481 -0.999206 0.7647644 -0.6143671 -0.1941354 -0.7278158 -0.6198872 0.2932987 -0.9510565 0.02773714 0.3077698 -0.5877855 0.07261717 0.8057513 0 -0.9959635 0.08975976 -4.61078e-6 0.0897603 0.9959634 0.2985976 -0.9505267 0.08566558 -1 0 0 -0.3157266 0.9450196 -0.08517467 1 0 0 0.298611 0.9505223 -0.08566731 -0.3157081 -0.9450258 0.08517491 5.1628e-6 0.08976191 0.9959633 -1 0 0 -1 0 0 0 -0.0897594 -0.9959635 0 0.7635689 0.6457264 0 0.0897606 0.9959635 0 -0.08976048 -0.9959635 -1 0 0 0 0.08975994 0.9959635 0 0.08975988 0.9959635 -1 0 0 0 -0.08975994 -0.9959635 -1 0 0 0 -0.1517726 -0.9884155 0 -0.08976048 -0.9959634 -1 -1.39747e-7 0 0 -0.4967046 0.8679196 0 -0.9959638 0.08975636 -1 0 0 8.46151e-6 0.08976215 0.9959633 0.2183108 -0.9719396 0.08760064 -1 0 0 -0.2314158 0.9689272 -0.08733284 0.2182767 0.9719472 -0.08760136 -0.2314181 -0.9689289 0.08730787 4.67695e-6 0.08975636 0.9959638 -1.12436e-5 0.08975344 0.9959641 0.2986029 -0.950525 0.085666 -0.3157228 0.9450213 -0.08516985 1 0 0 0.2986052 0.9505242 -0.0856657 -0.3157232 -0.9450212 0.08516895 -1.30836e-5 0.08976042 0.9959634 -0.9913868 -0.06961989 -0.1109295 0.9885763 0.06939357 0.1337966 0.05653762 -0.9006244 0.4309051 -0.9885765 -0.06939196 -0.1337959 -0.05653554 0.9006246 -0.430905 0.9932139 0.05321806 0.1034117 -0.07291197 0.8001304 -0.5953782 0.9913867 0.06961888 0.1109309 0.07291436 -0.8001306 0.5953779 -0.0977866 -0.299568 -0.9490505 0.09498631 -0.5502294 0.8295935 -0.9957517 -0.04588037 -0.07983487 -0.07963216 0.7429313 -0.6646142 0 0.6022453 0.7983112 0 -0.4498069 0.893126 -0.874861 0.04347729 0.482419 0.874861 0.04347729 0.482419 0 0.5685106 0.8226761 0 -0.2102171 0.9776548 -0.8525489 0.04706764 0.5205239 0.8541787 0.04667353 0.5178806 0 0.4498122 -0.8931233 0 -0.6022518 -0.7983062 0.8748659 -0.04347658 -0.4824102 -0.874868 -0.04347616 -0.4824064 0 0.352789 -0.9357029 0 -0.4173614 -0.9087407 0.8441994 -0.08135461 -0.5298196 -0.8441997 -0.08135455 -0.5298193 -0.9665513 0.08815515 -0.2408476 -0.9844655 0.01914429 -0.1745314 -0.09778743 -0.2995697 -0.94905 -0.09778833 -0.2995671 -0.9490506 0.9667477 -0.1040928 0.2335891 0.9844655 -0.01914352 0.1745316 0.9617658 -0.08032011 0.2618311 0.9844655 -0.01914399 0.1745315 -0.9714972 0.1050071 -0.2125244 -0.9844654 0.01914352 -0.1745319 0.9714973 -0.1050064 0.2125245 0.9844655 -0.01914465 0.1745315 -0.9667482 0.1040912 -0.2335874 -0.9844657 0.01914429 -0.1745303 0.4498059 -0.5855603 0.674384 0.7278035 -0.6623492 -0.1777514 1.52669e-7 -0.7098211 -0.7043821 -0.7278031 -0.6623491 -0.1777539 -0.4498048 -0.585557 0.6743877 0 -0.9959635 0.08975982 -5.49065e-6 0.08976185 0.9959633 0.2985858 -0.95053 0.08566981 -0.3157343 0.9450174 -0.08516997 1 0 0 0.2986037 0.9505243 -0.08566963 -0.3157203 -0.9450222 0.08516818 4.33547e-6 0.0897603 0.9959635</float_array>
          <technique_common>
            <accessor source="#Cube_002-mesh-normals-array" count="267" stride="3">
              <param name="X" type="float"/>
              <param name="Y" type="float"/>
              <param name="Z" type="float"/>
            </accessor>
          </technique_common>
        </source>
        <source id="Cube_002-mesh-map-0">
          <float_array id="Cube_002-mesh-map-0-array" count="2088">0.2293221 0.7910595 0.2780733 0.9224757 0.2780733 0.7910595 0.2293221 0.9224757 0.1756085 0.7910595 0.2293221 0.7910595 0.1756085 1.007725 0.1161227 0.7910595 0.1161227 1.007725 0.2598803 0.9148693 0.1284639 0.8611558 0.1284639 0.9148693 0.1284639 0.9224757 0.2598803 1.007725 0.2598803 0.9224757 0.1284639 0.9636206 0.2598803 0.9148693 0.2598803 0.9636206 0.2598803 0.9636206 0.1284639 0.9148693 0.1284639 0.9636206 0.2780733 0.9224757 0.2293221 0.7910595 0.2780733 0.7910595 0.1756085 0.7910595 0.2293221 0.9224757 0.2293221 0.7910595 0.2598803 0.8611558 0.1284639 0.80167 0.1284639 0.8611558 0.1284639 0.8611558 0.2598803 0.80167 0.2598803 0.8611558 0.1756085 1.007725 0.1161227 0.7910595 0.1756085 0.7910595 0.8107482 0.8840273 0.4671954 0.8215969 0.8107482 0.8215969 0.4532845 0.9966956 0.1150268 0.8123605 0.4532845 0.7910667 0.9852501 0.8128962 0.4532845 0.9954059 0.9852501 0.9954059 0.8151246 0.8192788 0.462819 0.8863453 0.8151246 0.8863453 0.4974287 0.9954059 0.2851549 0.8128962 0.4974287 0.8128962 0.4352099 0.8840273 0.2382134 0.8215969 0.4352099 0.8215969 0.4974287 0.8123605 0.2851549 0.8224279 0.2851549 0.8123605 0.1107195 0.9967988 0.1007734 0.8224279 0.1150268 0.8123605 0.4532845 0.9966956 0.1150268 0.8123605 0.1107195 0.9967988 0.4396446 0.8192788 0.2337788 0.8863453 0.4396446 0.8863453 0.2023493 0.8131261 0.1654465 0.892498 0.2023493 0.892498 0.1107195 0.9967988 0.1007734 0.8224279 0.1007734 0.9897736 0.2851549 0.9967988 0.4974287 0.9897736 0.4974287 0.9967988 0.4974287 0.9897736 0.2851549 0.8224279 0.4974287 0.8224279 0.1007734 0.9897736 0.04849886 0.8224279 0.04849886 0.9897736 0.2023493 0.892498 0.1654465 0.8131261 0.2023493 0.8131261 0.1007734 0.9897736 0.04849886 0.8224279 0.1007734 0.8224279 0.625 1 0.625 0.8788462 0.625 0.8788462 0.625 0.75 0.625 0.8788462 0.625 0.8788462 0.625 1 0.625 1 0.625 1 0.625 0.8788461 0.625 1 0.625 0.8788462 0.625 0.75 0.625 0.75 0.625 0.75 0.04003918 0.02359122 0.05691462 0.004980087 0.04385167 0.004980087 0.08029597 0.06520694 0.07576775 0.04444015 0.08029597 0.0651983 0.07576775 0.1491574 0.0261951 0.1260133 0.0261951 0.1491574 0.04122006 0.1491574 0.01662021 0.1260133 0.04122006 0.1260133 0.0261951 0.1491574 0.07576775 0.1260133 0.07576775 0.1491574 0.06570899 0.1491574 0.04122006 0.1260133 0.04122006 0.1491574 0.06187582 0.1260133 0.06079733 0.04548358 0.04121136 0.1260133 0.0261951 0.04060715 0.07576775 0.04444015 0.07576775 0.04060715 0.02166706 0.06520694 0.0261951 0.08586275 0.02166706 0.0651983 0.07576775 0.08969575 0.0261951 0.08586275 0.0261951 0.08969575 0.08146178 0.04548358 0.06079733 0.02359122 0.06079733 0.04548358 0.07576775 0.1260133 0.0261951 0.04548358 0.0261951 0.1260133 0.04121136 0.1260133 0.04003918 0.04548358 0.06079733 0.04548358 0.0261951 0.1260133 0.07576775 0.04548358 0.07576775 0.1260133 0.04003918 0.02359122 0.05691462 0.004980087 0.06079733 0.02359122 0.07576775 0.04548358 0.0261951 0.02359122 0.0261951 0.04548358 0.06079733 0.04548358 0.04003918 0.02359122 0.06079733 0.02359122 0.0261951 0.04548358 0.07576775 0.02359122 0.07576775 0.04548358 0.08029597 0.08090156 0.0261951 0.06783843 0.02166706 0.08090156 0.0261951 0.02359122 0.07576775 0.004980087 0.07576775 0.02359122 0.06079733 0.02359122 0.06991893 0.004980087 0.05691462 0.004980087 0.07576775 0.02359122 0.0261951 0.004980087 0.0261951 0.02359122 0.07576775 0.09390568 0.02166706 0.08090156 0.0261951 0.09390568 0.08146178 0.04548358 0.06079733 0.02359122 0.08146178 0.02359122 0.06079733 0.02359122 0.06991893 0.004980087 0.08146178 0.02359122 0.06187582 0.1260133 0.06079733 0.04548358 0.08146178 0.04548358 0.06079733 0.04548358 0.04003918 0.02359122 0.04003918 0.04548358 0.02166706 0.06520694 0.0261951 0.04444015 0.0261951 0.04060715 0.04121136 0.1260133 0.04003918 0.04548358 0.02045339 0.1260133 0.04122006 0.1491574 0.01662021 0.1260133 0.01662021 0.1491574 0.06570899 0.1491574 0.04122006 0.1260133 0.06570899 0.1260133 0.08029597 0.06520694 0.07576775 0.08586275 0.07576775 0.08969575 0.625 0.8788461 0.625 0.75 0.625 0.75 0.625 1 0.625 0.8788462 0.625 1 0.625 0.75 0.625 0.8788462 0.625 0.75 0.625 1 0.625 0.8788462 0.625 0.8788462 0.625 0.8788462 0.625 0.75 0.625 0.8788462 0.625 1 0.625 1 0.625 1 0.625 1 0.625 0.8788462 0.625 0.8788461 0.625 0.75 0.625 0.75 0.625 0.75 0.625 0.75 0.625 0.8788462 0.625 0.75 0.625 0.8788462 0.625 1 0.625 1 0.625 0.75 0.625 0.8788462 0.625 0.75 0.4398096 0.06998401 0.4374545 0.1274766 0.4505477 0.1274766 0.4673835 0.1690781 0.4767341 0.1274766 0.4804766 0.1690781 0.4329972 0.1274766 0.4622943 0.1690781 0.4329972 0.1690781 0.4505477 0.1274766 0.4411971 0.1690781 0.4542903 0.1690781 0.4622943 0.1274766 0.4329972 0.1690781 0.4622943 0.1690781 0.4529028 0.06998401 0.4504233 0.0054937 0.465996 0.06998401 0.4622943 0.06998401 0.4329972 0.1274766 0.4622943 0.1274766 0.4636409 0.1274766 0.465996 0.06998401 0.4767341 0.1274766 0.4329972 0.06998401 0.4622943 0.1274766 0.4329972 0.1274766 0.4329972 0.0917598 0.4658113 0.07866662 0.4294803 0.07866662 0.4329972 0.03637075 0.4622943 0.06998401 0.4329972 0.06998401 0.4242369 0.0260784 0.4267164 0.06998401 0.4398096 0.06998401 0.4622943 0.0054937 0.4329972 0.06998401 0.4622943 0.06998401 0.375 1 0.375 0.75 0.375 1 0.375 0.75 0.375 1 0.375 1 0.375 1 0.375 0.75 0.375 1 0.375 1 0.375 0.75 0.375 0.75 0.375 0.75 0.375 1 0.375 0.75 0.375 0.75 0.375 1 0.375 1 0.375 0.75 0.375 0.75 0.375 0.75 0.375 1 0.375 1 0.375 1 0.375 0.75 0.375 0.75 0.375 0.75 0.375 1 0.375 1 0.375 1 0.375 1 0.375 1 0.375 1 0.375 1 0.375 1 0.375 1 0.375 0.75 0.375 0.75 0.375 0.75 0.375 0.75 0.375 0.75 0.375 0.75 0.375 1 0.375 0.75 0.375 0.75 0.375 0.75 0.375 1 0.375 1 0.826741 0.892498 0.8107482 0.8215969 0.826741 0.8131261 0.4671954 0.8840273 0.4512027 0.8131261 0.4671954 0.8215969 0.8107482 0.8840273 0.4512027 0.892498 0.4671954 0.8840273 0.4512027 0.8131261 0.8107482 0.8215969 0.4671954 0.8215969 0.4512027 0.892498 0.4352099 0.8215969 0.4512027 0.8131261 0.2382134 0.8840273 0.2093706 0.8131261 0.2382134 0.8215969 0.4512027 0.892498 0.2382134 0.8840273 0.4352099 0.8840273 0.4512027 0.8131261 0.2382134 0.8215969 0.2093706 0.8131261 0.9852501 0.8128962 0.4532845 0.9954059 0.4532845 0.8128962 0.826741 0.8131261 0.8151246 0.8863453 0.826741 0.892498 0.462819 0.8192788 0.4512027 0.892498 0.462819 0.8863453 0.4512027 0.8131261 0.8151246 0.8192788 0.826741 0.8131261 0.4512027 0.892498 0.8151246 0.8863453 0.462819 0.8863453 0.4512027 0.8131261 0.4396446 0.8863453 0.4512027 0.892498 0.2337788 0.8192788 0.2124114 0.892498 0.2337788 0.8863453 0.2337788 0.8192788 0.4512027 0.8131261 0.2124114 0.8131261 0.4512027 0.892498 0.2337788 0.8863453 0.2124114 0.892498 0.4504233 0.0054937 0.4529028 0.06998401 0.465996 0.06998401 0.4373301 0.01578605 0.4398096 0.06998401 0.4529028 0.06998401 0.4294803 0.06557345 0.4622943 0.05248028 0.4329972 0.05248028 0.4294803 0.07866662 0.4658113 0.06557345 0.4294803 0.06557345 0.4374545 0.1274766 0.4398096 0.06998401 0.4505477 0.1274766 0.4505477 0.1274766 0.4529028 0.06998401 0.4636409 0.1274766 0.4267164 0.06998401 0.4242369 0.0260784 0.4398096 0.06998401 0.4398096 0.06998401 0.4373301 0.01578605 0.4529028 0.06998401 0.4767341 0.1274766 0.4673835 0.1690781 0.4804766 0.1690781 0.4636409 0.1274766 0.4542903 0.1690781 0.4673835 0.1690781 0.4411971 0.1690781 0.4505477 0.1274766 0.4542903 0.1690781 0.4542903 0.1690781 0.4636409 0.1274766 0.4673835 0.1690781 0.465996 0.06998401 0.4636409 0.1274766 0.4767341 0.1274766 0.4529028 0.06998401 0.4505477 0.1274766 0.4636409 0.1274766 0.4139167 0.1875004 0.3497307 0.1706222 0.4139167 0.175352 0.4295174 0.193516 0.5555519 0.1792191 0.5555519 0.193516 0.4139167 0.207157 0.3497307 0.2043785 0.4139167 0.1996487 0.5555519 0.1792191 0.4295174 0.170383 0.5555519 0.170383 0.3895926 0.1759157 0.3640592 0.1971544 0.3937533 0.1971544 0.5332639 0.2323583 0.8962557 0.1555359 0.8962557 0.2323583 0.4139167 0.1996487 0.3497307 0.1875004 0.3497307 0.2043785 0.5555519 0.170383 0.4295174 0.1792191 0.5555519 0.1792191 0.4139167 0.1875004 0.3497307 0.2043785 0.3497307 0.1875004 0.4295174 0.1792191 0.5555519 0.193516 0.5555519 0.1792191 0.4139167 0.1678438 0.3497307 0.1706222 0.4139167 0.175352 0.5555519 0.193516 0.4295174 0.207813 0.5555519 0.207813 0.4139167 0.207157 0.3497307 0.2043785 0.3497307 0.2148098 0.4139167 0.1678438 0.3497307 0.1706222 0.3497307 0.1601909 0.4295174 0.207813 0.5555519 0.2166489 0.5555519 0.207813 0.4139167 0.175352 0.3497307 0.1875004 0.4139167 0.1875004 0.3640592 0.1601909 0.3937533 0.1601909 0.3937533 0.2148098 0.8962557 0.1555358 0.5332639 0.2323583 0.8962557 0.2323583 0.4426017 0.09338504 0.7065303 0.09338504 0.7880887 0.2323583 0.4295174 0.2166489 0.5555519 0.207813 0.5555519 0.2166489 0.3895926 0.1759157 0.3640592 0.1971544 0.3682196 0.1759157 0.5555519 0.207813 0.4295174 0.193516 0.5555519 0.193516 0.2598803 0.7910595 0.1284639 1.007725 0.1284639 0.7910595 0.625 1 0.625 0.8788462 0.625 0.8788462 0.625 0.8788462 0.625 0.75 0.625 0.8788462 0.625 1 0.625 1 0.625 1 0.625 1 0.625 0.8788462 0.625 0.8788461 0.625 0.75 0.625 0.75 0.625 0.75 0.625 0.75 0.625 0.8788462 0.625 0.75 0.625 0.8788462 0.625 1 0.625 1 0.625 0.75 0.625 0.8788462 0.625 0.75 0.2293221 0.7910595 0.2293221 0.9224757 0.2780733 0.9224757 0.2293221 0.9224757 0.1756085 1.007725 0.1756085 0.7910595 0.1756085 1.007725 0.1756085 0.7910595 0.1161227 0.7910595 0.2598803 0.9148693 0.2598803 0.8611558 0.1284639 0.8611558 0.1284639 0.9224757 0.1284639 1.007725 0.2598803 1.007725 0.1284639 0.9636206 0.1284639 0.9148693 0.2598803 0.9148693 0.2598803 0.9636206 0.2598803 0.9148693 0.1284639 0.9148693 0.2780733 0.9224757 0.2293221 0.9224757 0.2293221 0.7910595 0.1756085 0.7910595 0.1756085 1.007725 0.2293221 0.9224757 0.2598803 0.8611558 0.2598803 0.80167 0.1284639 0.80167 0.1284639 0.8611558 0.1284639 0.80167 0.2598803 0.80167 0.1756085 1.007725 0.1161227 1.007725 0.1161227 0.7910595 0.8107482 0.8840273 0.4671954 0.8840273 0.4671954 0.8215969 0.4532845 0.9966956 0.1107195 0.9967988 0.1150268 0.8123605 0.9852501 0.8128962 0.4532845 0.8128962 0.4532845 0.9954059 0.8151246 0.8192788 0.462819 0.8192788 0.462819 0.8863453 0.4974287 0.9954059 0.2851549 0.9954059 0.2851549 0.8128962 0.4352099 0.8840273 0.2382134 0.8840273 0.2382134 0.8215969 0.4974287 0.8123605 0.4974287 0.8224279 0.2851549 0.8224279 0.1107195 0.9967988 0.1007734 0.9897736 0.1007734 0.8224279 0.4532845 0.9966956 0.4532845 0.7910667 0.1150268 0.8123605 0.4396446 0.8192788 0.2337788 0.8192788 0.2337788 0.8863453 0.2023493 0.8131261 0.1654465 0.8131261 0.1654465 0.892498 0.1107195 0.9967988 0.1150268 0.8123605 0.1007734 0.8224279 0.2851549 0.9967988 0.2851549 0.9897736 0.4974287 0.9897736 0.4974287 0.9897736 0.2851549 0.9897736 0.2851549 0.8224279 0.1007734 0.9897736 0.1007734 0.8224279 0.04849886 0.8224279 0.2023493 0.892498 0.1654465 0.892498 0.1654465 0.8131261 0.1007734 0.9897736 0.04849886 0.9897736 0.04849886 0.8224279 0.625 1 0.625 1 0.625 0.8788462 0.625 0.75 0.625 0.75 0.625 0.8788462 0.625 1 0.625 1 0.625 1 0.625 0.8788461 0.625 1 0.625 1 0.625 0.75 0.625 0.75 0.625 0.75 0.04003918 0.02359122 0.06079733 0.02359122 0.05691462 0.004980087 0.08029597 0.06520694 0.07576775 0.04060715 0.07576775 0.04444015 0.07576775 0.1491574 0.07576775 0.1260133 0.0261951 0.1260133 0.04122006 0.1491574 0.01662021 0.1491574 0.01662021 0.1260133 0.0261951 0.1491574 0.0261951 0.1260133 0.07576775 0.1260133 0.06570899 0.1491574 0.06570899 0.1260133 0.04122006 0.1260133 0.06187582 0.1260133 0.08146178 0.04548358 0.06079733 0.04548358 0.0261951 0.04060715 0.0261951 0.04444015 0.07576775 0.04444015 0.02166706 0.06520694 0.0261951 0.08969575 0.0261951 0.08586275 0.07576775 0.08969575 0.07576775 0.08586275 0.0261951 0.08586275 0.08146178 0.04548358 0.08146178 0.02359122 0.06079733 0.02359122 0.07576775 0.1260133 0.07576775 0.04548358 0.0261951 0.04548358 0.04121136 0.1260133 0.02045339 0.1260133 0.04003918 0.04548358 0.0261951 0.1260133 0.0261951 0.04548358 0.07576775 0.04548358 0.04003918 0.02359122 0.04385167 0.004980087 0.05691462 0.004980087 0.07576775 0.04548358 0.07576775 0.02359122 0.0261951 0.02359122 0.06079733 0.04548358 0.04003918 0.04548358 0.04003918 0.02359122 0.0261951 0.04548358 0.0261951 0.02359122 0.07576775 0.02359122 0.08029597 0.08090156 0.07576775 0.06783843 0.0261951 0.06783843 0.0261951 0.02359122 0.0261951 0.004980087 0.07576775 0.004980087 0.06079733 0.02359122 0.08146178 0.02359122 0.06991893 0.004980087 0.07576775 0.02359122 0.07576775 0.004980087 0.0261951 0.004980087 0.07576775 0.09390568 0.08029597 0.08090156 0.02166706 0.08090156 0.08146178 0.04548358 0.06079733 0.04548358 0.06079733 0.02359122 0.06079733 0.02359122 0.05691462 0.004980087 0.06991893 0.004980087 0.06187582 0.1260133 0.04121136 0.1260133 0.06079733 0.04548358 0.06079733 0.04548358 0.06079733 0.02359122 0.04003918 0.02359122 0.02166706 0.06520694 0.02166706 0.0651983 0.0261951 0.04444015 0.04121136 0.1260133 0.06079733 0.04548358 0.04003918 0.04548358 0.04122006 0.1491574 0.04122006 0.1260133 0.01662021 0.1260133 0.06570899 0.1491574 0.04122006 0.1491574 0.04122006 0.1260133 0.08029597 0.06520694 0.08029597 0.0651983 0.07576775 0.08586275 0.625 0.8788461 0.625 0.8788462 0.625 0.75 0.625 1 0.625 0.8788462 0.625 0.8788462 0.625 0.75 0.625 0.8788462 0.625 0.8788462 0.625 1 0.625 1 0.625 0.8788462 0.625 0.8788462 0.625 0.75 0.625 0.75 0.625 1 0.625 1 0.625 1 0.625 1 0.625 1 0.625 0.8788462 0.625 0.75 0.625 0.75 0.625 0.75 0.625 0.75 0.625 0.8788461 0.625 0.8788462 0.625 0.8788462 0.625 0.8788462 0.625 1 0.625 0.75 0.625 0.8788462 0.625 0.8788462 0.4398096 0.06998401 0.4267164 0.06998401 0.4374545 0.1274766 0.4673835 0.1690781 0.4636409 0.1274766 0.4767341 0.1274766 0.4329972 0.1274766 0.4622943 0.1274766 0.4622943 0.1690781 0.4505477 0.1274766 0.4374545 0.1274766 0.4411971 0.1690781 0.4622943 0.1274766 0.4329972 0.1274766 0.4329972 0.1690781 0.4529028 0.06998401 0.4373301 0.01578605 0.4504233 0.0054937 0.4622943 0.06998401 0.4329972 0.06998401 0.4329972 0.1274766 0.4636409 0.1274766 0.4529028 0.06998401 0.465996 0.06998401 0.4329972 0.06998401 0.4622943 0.06998401 0.4622943 0.1274766 0.4329972 0.0917598 0.4622943 0.0917598 0.4658113 0.07866662 0.4329972 0.03637075 0.4622943 0.03637075 0.4622943 0.06998401 0.4242369 0.0260784 0.4111437 0.03637075 0.4267164 0.06998401 0.4622943 0.0054937 0.4329972 0.0054937 0.4329972 0.06998401 0.375 1 0.375 0.75 0.375 0.75 0.375 0.75 0.375 0.75 0.375 1 0.375 1 0.375 0.75 0.375 0.75 0.375 1 0.375 1 0.375 0.75 0.375 0.75 0.375 1 0.375 1 0.375 0.75 0.375 0.75 0.375 1 0.375 0.75 0.375 0.75 0.375 0.75 0.375 1 0.375 1 0.375 1 0.375 0.75 0.375 0.75 0.375 0.75 0.375 1 0.375 1 0.375 1 0.375 1 0.375 1 0.375 1 0.375 1 0.375 1 0.375 1 0.375 0.75 0.375 0.75 0.375 0.75 0.375 0.75 0.375 0.75 0.375 0.75 0.375 1 0.375 1 0.375 0.75 0.375 0.75 0.375 0.75 0.375 1 0.826741 0.892498 0.8107482 0.8840273 0.8107482 0.8215969 0.4671954 0.8840273 0.4512027 0.892498 0.4512027 0.8131261 0.8107482 0.8840273 0.826741 0.892498 0.4512027 0.892498 0.4512027 0.8131261 0.826741 0.8131261 0.8107482 0.8215969 0.4512027 0.892498 0.4352099 0.8840273 0.4352099 0.8215969 0.2382134 0.8840273 0.2093706 0.892498 0.2093706 0.8131261 0.4512027 0.892498 0.2093706 0.892498 0.2382134 0.8840273 0.4512027 0.8131261 0.4352099 0.8215969 0.2382134 0.8215969 0.9852501 0.8128962 0.9852501 0.9954059 0.4532845 0.9954059 0.826741 0.8131261 0.8151246 0.8192788 0.8151246 0.8863453 0.462819 0.8192788 0.4512027 0.8131261 0.4512027 0.892498 0.4512027 0.8131261 0.462819 0.8192788 0.8151246 0.8192788 0.4512027 0.892498 0.826741 0.892498 0.8151246 0.8863453 0.4512027 0.8131261 0.4396446 0.8192788 0.4396446 0.8863453 0.2337788 0.8192788 0.2124114 0.8131261 0.2124114 0.892498 0.2337788 0.8192788 0.4396446 0.8192788 0.4512027 0.8131261 0.4512027 0.892498 0.4396446 0.8863453 0.2337788 0.8863453 0.4504233 0.0054937 0.4373301 0.01578605 0.4529028 0.06998401 0.4373301 0.01578605 0.4242369 0.0260784 0.4398096 0.06998401 0.4294803 0.06557345 0.4658113 0.06557345 0.4622943 0.05248028 0.4294803 0.07866662 0.4658113 0.07866662 0.4658113 0.06557345 0.4374545 0.1274766 0.4267164 0.06998401 0.4398096 0.06998401 0.4505477 0.1274766 0.4398096 0.06998401 0.4529028 0.06998401 0.4267164 0.06998401 0.4111437 0.03637075 0.4242369 0.0260784 0.4398096 0.06998401 0.4242369 0.0260784 0.4373301 0.01578605 0.4767341 0.1274766 0.4636409 0.1274766 0.4673835 0.1690781 0.4636409 0.1274766 0.4505477 0.1274766 0.4542903 0.1690781 0.4411971 0.1690781 0.4374545 0.1274766 0.4505477 0.1274766 0.4542903 0.1690781 0.4505477 0.1274766 0.4636409 0.1274766 0.465996 0.06998401 0.4529028 0.06998401 0.4636409 0.1274766 0.4529028 0.06998401 0.4398096 0.06998401 0.4505477 0.1274766 0.4139167 0.1875004 0.3497307 0.1875004 0.3497307 0.1706222 0.4295174 0.193516 0.4295174 0.1792191 0.5555519 0.1792191 0.4139167 0.207157 0.3497307 0.2148098 0.3497307 0.2043785 0.5555519 0.1792191 0.4295174 0.1792191 0.4295174 0.170383 0.3895926 0.1759157 0.3682196 0.1759157 0.3640592 0.1971544 0.5332639 0.2323583 0.5332639 0.1555359 0.8962557 0.1555359 0.4139167 0.1996487 0.4139167 0.1875004 0.3497307 0.1875004 0.5555519 0.170383 0.4295174 0.170383 0.4295174 0.1792191 0.4139167 0.1875004 0.4139167 0.1996487 0.3497307 0.2043785 0.4295174 0.1792191 0.4295174 0.193516 0.5555519 0.193516 0.4139167 0.1678438 0.3497307 0.1601909 0.3497307 0.1706222 0.5555519 0.193516 0.4295174 0.193516 0.4295174 0.207813 0.4139167 0.207157 0.4139167 0.1996487 0.3497307 0.2043785 0.4139167 0.1678438 0.4139167 0.175352 0.3497307 0.1706222 0.4295174 0.207813 0.4295174 0.2166489 0.5555519 0.2166489 0.4139167 0.175352 0.3497307 0.1706222 0.3497307 0.1875004 0.3937533 0.1601909 0.4177762 0.1706222 0.4269523 0.1875004 0.4269523 0.1875004 0.4177762 0.2043785 0.3937533 0.1601909 0.4177762 0.2043785 0.3937533 0.2148098 0.3937533 0.1601909 0.3937533 0.2148098 0.3640592 0.2148098 0.3400362 0.1706222 0.3640592 0.2148098 0.3400362 0.2043785 0.3400362 0.1706222 0.3400362 0.2043785 0.3308603 0.1875004 0.3400362 0.1706222 0.3400362 0.1706222 0.3640592 0.1601909 0.3937533 0.2148098 0.8962557 0.1555358 0.5332639 0.1555358 0.5332639 0.2323583 0.7880887 0.2323583 0.7065303 0.2945092 0.574566 0.3182487 0.574566 0.3182487 0.4426017 0.2945092 0.7880887 0.2323583 0.4426017 0.2945092 0.3610432 0.2323583 0.7880887 0.2323583 0.3610432 0.2323583 0.3610432 0.1555358 0.4426017 0.09338504 0.4426017 0.09338504 0.574566 0.06964558 0.7065303 0.09338504 0.7065303 0.09338504 0.7880887 0.1555359 0.7880887 0.2323583 0.3610432 0.2323583 0.4426017 0.09338504 0.7880887 0.2323583 0.4295174 0.2166489 0.4295174 0.207813 0.5555519 0.207813 0.3895926 0.1759157 0.3937533 0.1971544 0.3640592 0.1971544 0.5555519 0.207813 0.4295174 0.207813 0.4295174 0.193516 0.2598803 0.7910595 0.2598803 1.007725 0.1284639 1.007725 0.625 1 0.625 1 0.625 0.8788462 0.625 0.8788462 0.625 0.75 0.625 0.75 0.625 1 0.625 1 0.625 1 0.625 1 0.625 1 0.625 0.8788462 0.625 0.75 0.625 0.75 0.625 0.75 0.625 0.75 0.625 0.8788461 0.625 0.8788462 0.625 0.8788462 0.625 0.8788462 0.625 1 0.625 0.75 0.625 0.8788462 0.625 0.8788462</float_array>
          <technique_common>
            <accessor source="#Cube_002-mesh-map-0-array" count="1044" stride="2">
              <param name="S" type="float"/>
              <param name="T" type="float"/>
            </accessor>
          </technique_common>
        </source>
        <vertices id="Cube_002-mesh-vertices">
          <input semantic="POSITION" source="#Cube_002-mesh-positions"/>
        </vertices>
        <triangles material="Material_001-material" count="348">
          <input semantic="VERTEX" source="#Cube_002-mesh-vertices" offset="0"/>
          <input semantic="NORMAL" source="#Cube_002-mesh-normals" offset="1"/>
          <input semantic="TEXCOORD" source="#Cube_002-mesh-map-0" offset="2" set="0"/>
          <p>8 0 0 3 0 1 2 0 2 11 1 3 4 1 4 10 1 5 1 0 6 12 0 7 13 0 8 10 2 9 0 2 10 8 2 11 9 3 12 5 3 13 11 3 14 3 4 15 11 4 16 7 4 17 6 5 18 8 5 19 2 5 20 7 6 21 10 6 22 6 6 23 0 7 24 9 7 25 8 7 26 4 8 27 12 8 28 0 8 29 1 9 30 14 9 31 5 9 32 5 10 33 15 10 34 4 10 35 116 11 36 122 11 37 118 11 38 127 12 39 147 12 40 142 12 41 133 0 42 121 0 43 117 0 44 135 13 45 137 13 46 132 13 47 123 14 48 136 14 49 139 14 50 124 15 51 131 15 52 126 15 53 147 16 54 16 16 55 144 16 56 130 17 57 19 17 58 147 17 59 125 0 60 144 0 61 129 0 62 143 18 63 145 18 64 140 18 65 19 19 66 20 19 67 16 19 68 129 0 69 16 0 70 17 0 71 129 20 72 18 20 73 130 20 74 22 21 75 20 21 76 23 21 77 17 0 78 20 0 79 21 0 80 17 22 81 22 22 82 18 22 83 18 23 84 23 23 85 19 23 86 29 24 87 71 24 88 70 24 89 27 25 90 71 25 91 69 25 92 26 0 93 29 0 94 24 0 95 68 26 96 29 26 97 70 26 98 27 27 99 28 27 100 30 27 101 50 28 102 66 29 103 54 30 104 59 31 105 43 32 106 61 33 107 33 34 108 36 35 109 32 36 110 57 37 111 39 38 112 59 31 113 34 39 114 39 38 115 35 40 116 32 36 117 58 41 118 56 42 119 40 43 120 62 44 121 60 45 122 38 46 123 43 32 124 39 38 125 58 41 126 40 43 127 60 45 128 37 47 129 40 43 130 36 35 131 44 48 132 64 49 133 62 44 134 41 50 135 44 48 136 40 43 137 61 33 138 47 51 139 63 52 140 42 53 141 47 51 142 43 32 143 51 54 144 67 55 145 65 56 146 45 57 147 48 58 148 44 48 149 63 52 150 51 54 151 65 56 152 46 59 153 51 54 154 47 51 155 67 55 156 54 30 157 66 29 158 50 28 159 55 60 160 51 54 161 64 49 162 52 61 163 66 29 164 49 62 165 52 61 166 48 58 167 53 63 168 66 29 169 52 61 170 45 57 171 65 56 172 49 62 173 65 56 174 53 63 175 49 62 176 41 50 177 63 52 178 45 57 179 62 44 180 50 28 181 46 59 182 58 41 183 42 53 184 38 46 185 60 45 186 46 59 187 42 53 188 56 42 189 38 46 190 34 39 191 33 34 192 59 31 193 37 47 194 59 31 195 41 50 196 37 47 197 68 64 198 28 64 199 25 64 200 26 65 201 71 65 202 31 65 203 28 66 204 71 66 205 30 66 206 77 67 207 83 67 208 82 67 209 81 68 210 78 68 211 83 68 212 72 69 213 79 69 214 77 69 215 72 70 216 82 70 217 80 70 218 73 71 219 78 71 220 75 71 221 73 72 222 82 72 223 76 72 224 81 73 225 79 73 226 74 73 227 76 74 228 83 74 229 78 74 230 159 75 231 88 75 232 155 75 233 149 76 234 91 76 235 87 76 236 88 77 237 85 77 238 84 77 239 155 78 240 84 78 241 151 78 242 91 79 243 86 79 244 87 79 245 157 80 246 99 80 247 95 80 248 95 81 249 90 81 250 91 81 251 153 82 252 95 82 253 91 82 254 92 83 255 89 83 256 88 83 257 98 84 258 161 84 259 162 84 260 96 85 261 93 85 262 92 85 263 163 86 264 92 86 265 159 86 266 99 87 267 94 87 268 95 87 269 110 88 270 108 89 271 111 90 272 112 91 273 114 92 274 115 93 275 104 94 276 101 95 277 100 96 278 110 88 279 113 97 280 109 98 281 103 99 282 100 96 283 101 95 284 108 89 285 115 93 286 111 90 287 103 99 288 108 89 289 109 98 290 102 100 291 111 90 292 100 96 293 107 101 294 112 91 295 105 102 296 106 103 297 115 93 298 114 92 299 100 96 300 115 93 301 104 94 302 102 100 303 114 92 304 110 88 305 103 99 306 113 97 307 107 101 308 101 95 309 112 91 310 108 89 311 104 94 312 107 101 313 105 102 314 103 99 315 106 103 316 102 100 317 117 104 318 118 104 319 119 104 320 120 105 321 123 105 322 122 105 323 116 106 324 121 106 325 120 106 326 123 107 327 118 107 328 122 107 329 125 108 330 126 108 331 127 108 332 128 109 333 130 109 334 131 109 335 125 110 336 128 110 337 124 110 338 127 111 339 131 111 340 130 111 341 134 112 342 123 112 343 139 112 344 134 113 345 132 113 346 133 113 347 138 114 348 136 114 349 137 114 350 139 115 351 135 115 352 134 115 353 136 116 354 132 116 355 137 116 356 142 117 357 140 117 358 141 117 359 146 118 360 144 118 361 145 118 362 146 119 363 142 119 364 147 119 365 141 120 366 145 120 367 144 120 368 98 121 369 158 121 370 94 121 371 162 122 372 159 122 373 158 122 374 163 123 375 97 123 376 96 123 377 162 124 378 160 124 379 163 124 380 89 125 381 156 125 382 152 125 383 152 126 384 157 126 385 153 126 386 93 127 387 160 127 388 156 127 389 156 128 390 161 128 391 157 128 392 90 129 393 150 129 394 86 129 395 154 130 396 151 130 397 150 130 398 85 131 399 152 131 400 148 131 401 148 132 402 153 132 403 149 132 404 94 133 405 154 133 406 90 133 407 158 134 408 155 134 409 154 134 410 165 135 411 203 136 412 164 137 413 167 138 414 168 139 415 166 140 416 192 141 417 195 142 418 193 143 419 168 139 420 171 144 421 170 145 422 192 141 423 197 146 424 196 147 425 171 144 426 172 148 427 170 145 428 190 149 429 199 150 430 198 151 431 172 148 432 175 152 433 174 153 434 165 135 435 195 142 436 194 154 437 175 152 438 176 155 439 174 153 440 187 156 441 200 157 442 188 158 443 176 155 444 179 159 445 178 160 446 191 161 447 198 151 448 197 146 449 186 162 450 203 136 451 202 163 452 179 159 453 180 164 454 178 160 455 188 158 456 199 150 457 189 165 458 201 166 459 202 163 460 196 147 461 180 164 462 183 167 463 182 168 464 179 159 465 175 152 466 171 144 467 183 167 468 184 169 469 182 168 470 186 162 471 201 166 472 187 156 473 184 169 474 167 138 475 166 140 476 15 170 477 13 170 478 12 170 479 209 171 480 215 171 481 214 171 482 213 172 483 210 172 484 215 172 485 204 173 486 211 173 487 209 173 488 204 174 489 214 174 490 212 174 491 205 175 492 210 175 493 207 175 494 205 176 495 214 176 496 208 176 497 213 177 498 211 177 499 206 177 500 208 178 501 215 178 502 210 178 503 8 179 504 9 179 505 3 179 506 11 175 507 5 175 508 4 175 509 1 180 510 0 180 511 12 180 512 10 181 513 4 181 514 0 181 515 9 182 516 1 182 517 5 182 518 3 183 519 9 183 520 11 183 521 6 184 522 10 184 523 8 184 524 7 175 525 11 175 526 10 175 527 0 185 528 1 185 529 9 185 530 4 8 531 15 8 532 12 8 533 1 186 534 13 186 535 14 186 536 5 175 537 14 175 538 15 175 539 116 187 540 120 187 541 122 187 542 127 175 543 130 175 544 147 175 545 133 188 546 136 188 547 121 188 548 135 189 549 138 189 550 137 189 551 123 14 552 121 14 553 136 14 554 124 15 555 128 15 556 131 15 557 147 16 558 19 16 559 16 16 560 130 175 561 18 175 562 19 175 563 125 190 564 141 190 565 144 190 566 143 191 567 146 191 568 145 191 569 19 192 570 23 192 571 20 192 572 129 193 573 144 193 574 16 193 575 129 194 576 17 194 577 18 194 578 22 195 579 21 195 580 20 195 581 17 196 582 16 196 583 20 196 584 17 22 585 21 22 586 22 22 587 18 175 588 22 175 589 23 175 590 29 197 591 31 197 592 71 197 593 27 198 594 30 198 595 71 198 596 26 199 597 31 199 598 29 199 599 68 200 600 24 200 601 29 200 602 27 175 603 25 175 604 28 175 605 50 28 606 64 49 607 66 29 608 59 31 609 39 38 610 43 32 611 33 34 612 37 47 613 36 35 614 57 37 615 35 40 616 39 38 617 34 39 618 38 46 619 39 38 620 32 36 621 36 35 622 58 41 623 40 43 624 44 48 625 62 44 626 38 46 627 42 53 628 43 32 629 58 41 630 36 35 631 40 43 632 37 47 633 41 50 634 40 43 635 44 48 636 48 58 637 64 49 638 41 50 639 45 57 640 44 48 641 61 33 642 43 32 643 47 51 644 42 53 645 46 59 646 47 51 647 51 54 648 55 60 649 67 55 650 45 57 651 49 62 652 48 58 653 63 52 654 47 51 655 51 54 656 46 59 657 50 28 658 51 54 659 67 55 660 55 60 661 54 30 662 50 28 663 54 30 664 55 60 665 64 49 666 48 58 667 52 61 668 49 62 669 53 63 670 52 61 671 53 63 672 67 55 673 66 29 674 45 57 675 63 52 676 65 56 677 65 56 678 67 55 679 53 63 680 41 50 681 61 33 682 63 52 683 62 44 684 64 49 685 50 28 686 58 41 687 60 45 688 42 53 689 60 45 690 62 44 691 46 59 692 56 42 693 58 41 694 38 46 695 33 34 696 57 37 697 59 31 698 59 31 699 61 33 700 41 50 701 68 201 702 70 201 703 28 201 704 26 202 705 69 202 706 71 202 707 28 203 708 70 203 709 71 203 710 77 204 711 79 204 712 83 204 713 81 205 714 75 205 715 78 205 716 72 0 717 74 0 718 79 0 719 72 206 720 77 206 721 82 206 722 73 207 723 76 207 724 78 207 725 73 208 726 80 208 727 82 208 728 81 209 729 83 209 730 79 209 731 76 210 732 82 210 733 83 210 734 159 211 735 92 211 736 88 211 737 149 212 738 153 212 739 91 212 740 88 213 741 89 213 742 85 213 743 155 214 744 88 214 745 84 214 746 91 215 747 90 215 748 86 215 749 157 216 750 161 216 751 99 216 752 95 217 753 94 217 754 90 217 755 153 218 756 157 218 757 95 218 758 92 219 759 93 219 760 89 219 761 98 220 762 99 220 763 161 220 764 96 221 765 97 221 766 93 221 767 163 222 768 96 222 769 92 222 770 99 223 771 98 223 772 94 223 773 110 88 774 109 98 775 108 89 776 112 91 777 113 97 778 114 92 779 104 94 780 105 102 781 101 95 782 110 88 783 114 92 784 113 97 785 103 99 786 102 100 787 100 96 788 108 89 789 112 91 790 115 93 791 103 99 792 101 95 793 108 89 794 102 100 795 110 88 796 111 90 797 107 101 798 113 97 799 112 91 800 106 103 801 104 94 802 115 93 803 100 96 804 111 90 805 115 93 806 102 100 807 106 103 808 114 92 809 103 99 810 109 98 811 113 97 812 101 95 813 105 102 814 112 91 815 104 94 816 106 103 817 107 101 818 103 99 819 107 101 820 106 103 821 117 224 822 116 224 823 118 224 824 120 225 825 121 225 826 123 225 827 116 226 828 117 226 829 121 226 830 123 227 831 119 227 832 118 227 833 125 228 834 124 228 835 126 228 836 128 229 837 129 229 838 130 229 839 125 230 840 129 230 841 128 230 842 127 231 843 126 231 844 131 231 845 134 175 846 119 175 847 123 175 848 134 232 849 135 232 850 132 232 851 138 233 852 139 233 853 136 233 854 139 234 855 138 234 856 135 234 857 136 235 858 133 235 859 132 235 860 142 236 861 143 236 862 140 236 863 146 237 864 147 237 865 144 237 866 146 238 867 143 238 868 142 238 869 141 239 870 140 239 871 145 239 872 98 240 873 162 240 874 158 240 875 162 241 876 163 241 877 159 241 878 163 242 879 160 242 880 97 242 881 162 243 882 161 243 883 160 243 884 89 244 885 93 244 886 156 244 887 152 245 888 156 245 889 157 245 890 93 246 891 97 246 892 160 246 893 156 247 894 160 247 895 161 247 896 90 248 897 154 248 898 150 248 899 154 249 900 155 249 901 151 249 902 85 250 903 89 250 904 152 250 905 148 251 906 152 251 907 153 251 908 94 252 909 158 252 910 154 252 911 158 253 912 159 253 913 155 253 914 165 135 915 194 154 916 203 136 917 167 138 918 169 254 919 168 139 920 192 141 921 196 147 922 195 142 923 168 139 924 169 254 925 171 144 926 192 141 927 191 161 928 197 146 929 171 144 930 173 255 931 172 148 932 190 149 933 189 165 934 199 150 935 172 148 936 173 255 937 175 152 938 165 135 939 193 143 940 195 142 941 175 152 942 177 256 943 176 155 944 187 156 945 201 166 946 200 157 947 176 155 948 177 256 949 179 159 950 191 161 951 190 149 952 198 151 953 186 162 954 164 137 955 203 136 956 179 159 957 181 257 958 180 164 959 188 158 960 200 157 961 199 150 962 202 163 963 203 136 964 194 154 965 194 154 966 195 142 967 202 163 968 195 142 969 196 147 970 202 163 971 196 147 972 197 146 973 200 157 974 197 146 975 198 151 976 200 157 977 198 151 978 199 150 979 200 157 980 200 157 981 201 166 982 196 147 983 180 164 984 181 257 985 183 167 986 171 144 987 169 254 988 167 138 989 167 138 990 185 258 991 171 144 992 185 258 993 183 167 994 171 144 995 183 167 996 181 257 997 179 159 998 179 159 999 177 256 1000 175 152 1001 175 152 1002 173 255 1003 171 144 1004 183 167 1005 179 159 1006 171 144 1007 183 167 1008 185 258 1009 184 169 1010 186 162 1011 202 163 1012 201 166 1013 184 169 1014 185 258 1015 167 138 1016 15 259 1017 14 259 1018 13 259 1019 209 260 1020 211 260 1021 215 260 1022 213 261 1023 207 261 1024 210 261 1025 204 0 1026 206 0 1027 211 0 1028 204 262 1029 209 262 1030 214 262 1031 205 263 1032 208 263 1033 210 263 1034 205 264 1035 212 264 1036 214 264 1037 213 265 1038 215 265 1039 211 265 1040 208 266 1041 214 266 1042 215 266 1043</p>
        </triangles>
      </mesh>
    </geometry>
  </library_geometries>
  <library_visual_scenes>
    <visual_scene id="Scene" name="Scene">
      <node id="subm" name="subm" type="NODE">
        <matrix sid="transform">0.8817554 0.1505231 -0.4470462 0 -0.1498658 0.9880111 0.03707342 0 0.447267 0.03430725 0.8937423 0.01185025 0 0 0 1</matrix>
        <instance_geometry url="#Cube_002-mesh" name="subm">
          <bind_material>
            <technique_common>
              <instance_material symbol="Material_001-material" target="#Material_001-material">
                <bind_vertex_input semantic="Cube_002-mesh-map-0" input_semantic="TEXCOORD" input_set="0"/>
              </instance_material>
            </technique_common>
          </bind_material>
        </instance_geometry>
        <node id="prop_shoot" name="prop_shoot" type="NODE">
          <matrix sid="transform">0.2704485 1.86265e-9 -7.45058e-9 -0.02029678 -2.32831e-9 0.2653656 -0.05218703 -1.034855 0 0.05218703 0.2653656 0.2532228 0 0 0 1</matrix>
        </node>
      </node>
    </visual_scene>
  </library_visual_scenes>
  <scene>
    <instance_visual_scene url="#Scene"/>
  </scene>
</COLLADA>